<?xml version="1.0" encoding="UTF-8" standalone="no"?><!DOCTYPE svg PUBLIC "-//W3C//DTD SVG 1.1//EN" "http://www.w3.org/Graphics/SVG/1.1/DTD/svg11.dtd"><!-- Generated by graphviz version 2.40.1 (20161225.0304)
 --><!-- Title: Taskflow Pages: 1 --><svg xmlns="http://www.w3.org/2000/svg" xmlns:xlink="http://www.w3.org/1999/xlink" width="1639pt" height="761pt" viewBox="0.00 0.00 1638.81 761.00">
<g id="graph0" class="graph" transform="scale(1 1) rotate(0) translate(4 757)">
<title>Taskflow</title>
<polygon fill="#ffffff" stroke="transparent" points="-4,4 -4,-757 1634.8056,-757 1634.8056,4 -4,4"/>
<g id="clust1" class="cluster">
<title>cluster_p0x55f824e16950</title>
<polygon fill="none" stroke="#a020f0" points="548.7199,-321 548.7199,-506 1090.14,-506 1090.14,-321 548.7199,-321"/>
<text text-anchor="middle" x="819.4299" y="-489.4" font-family="Times,serif" font-size="14.00" fill="#000000">cudaFlow: h2d_constant</text>
</g>
<g id="clust2" class="cluster">
<title>cluster_p0x55f824e16ea0</title>
<polygon fill="none" stroke="#a020f0" points="523.5288,-560 523.5288,-745 1085.086,-745 1085.086,-560 523.5288,-560"/>
<text text-anchor="middle" x="804.3074" y="-728.4" font-family="Times,serif" font-size="14.00" fill="#000000">cudaFlow: [0]mis_h2d</text>
</g>
<g id="clust3" class="cluster">
<title>cluster_p0x55f824e170c0</title>
<polygon fill="none" stroke="#a020f0" points="8,-126 8,-257 673.257,-257 673.257,-126 8,-126"/>
<text text-anchor="middle" x="340.6285" y="-240.4" font-family="Times,serif" font-size="14.00" fill="#000000">cudaFlow: [0]mis_loop_k</text>
</g>
<g id="clust4" class="cluster">
<title>cluster_p0x55f824e173f0</title>
<polygon fill="none" stroke="#a020f0" points="737.054,-46 737.054,-123 1294.032,-123 1294.032,-46 737.054,-46"/>
<text text-anchor="middle" x="1015.543" y="-106.4" font-family="Times,serif" font-size="14.00" fill="#000000">cudaFlow: [0]mis_loop_end</text>
</g>
<!-- p0x55f824e15da0 -->
<g id="node1" class="node">
<title>p0x55f824e15da0</title>
<ellipse fill="none" stroke="#000000" cx="826.3622" cy="-241" rx="68.9235" ry="18"/>
<text text-anchor="middle" x="826.3622" y="-236.8" font-family="Times,serif" font-size="14.00" fill="#000000">new_net_mask</text>
</g>
<!-- p0x55f824e16950 -->
<g id="node2" class="node">
<title>p0x55f824e16950</title>
<polygon fill="#00ffff" stroke="#000000" points="1081.9682,-365 1078.9682,-369 1057.9682,-369 1054.9682,-365 991.6568,-365 991.6568,-329 1081.9682,-329 1081.9682,-365"/>
<text text-anchor="middle" x="1036.8125" y="-342.8" font-family="Times,serif" font-size="14.00" fill="#000000">h2d_constant</text>
</g>
<!-- p0x55f824e15da0&#45;&gt;p0x55f824e16950 -->
<g id="edge1" class="edge">
<title>p0x55f824e15da0-&gt;p0x55f824e16950</title>
<path fill="none" stroke="#000000" d="M876.6076,-253.5936C889.4499,-257.5339 903.0494,-262.3562 915.1767,-268 947.5051,-283.0449 981.2869,-305.6183 1005.0221,-322.7877"/>
<polygon fill="#000000" stroke="#000000" points="1003.1553,-325.7588 1013.2908,-328.8448 1007.292,-320.1118 1003.1553,-325.7588"/>
</g>
<!-- p0x55f824e16fb0 -->
<g id="node4" class="node">
<title>p0x55f824e16fb0</title>
<ellipse fill="none" stroke="#000000" cx="1230.2059" cy="-239" rx="65.5161" ry="18"/>
<text text-anchor="middle" x="1230.2059" y="-234.8" font-family="Times,serif" font-size="14.00" fill="#000000">mis_loop_beg</text>
</g>
<!-- p0x55f824e16950&#45;&gt;p0x55f824e16fb0 -->
<g id="edge3" class="edge">
<title>p0x55f824e16950-&gt;p0x55f824e16fb0</title>
<path fill="none" stroke="#000000" d="M1069.1822,-328.9232C1103.0389,-310.0161 1156.1508,-280.3559 1192.0311,-260.3186"/>
<polygon fill="#000000" stroke="#000000" points="1194.187,-263.1235 1201.2113,-255.192 1190.7739,-257.0119 1194.187,-263.1235"/>
</g>
<!-- p0x55f824e160d0 -->
<g id="node3" class="node">
<title>p0x55f824e160d0</title>
<ellipse fill="none" stroke="#000000" cx="826.3622" cy="-295" rx="60.839" ry="18"/>
<text text-anchor="middle" x="826.3622" y="-290.8" font-family="Times,serif" font-size="14.00" fill="#000000">new_pin2net</text>
</g>
<!-- p0x55f824e160d0&#45;&gt;p0x55f824e16950 -->
<g id="edge2" class="edge">
<title>p0x55f824e160d0-&gt;p0x55f824e16950</title>
<path fill="none" stroke="#000000" d="M873.3294,-306.6051C905.2767,-314.4989 947.686,-324.9778 981.3041,-333.2845"/>
<polygon fill="#000000" stroke="#000000" points="980.8862,-336.7864 991.4338,-335.7874 982.5653,-329.9908 980.8862,-336.7864"/>
</g>
<!-- p0x55f824e170c0 -->
<g id="node16" class="node">
<title>p0x55f824e170c0</title>
<polygon fill="#00ffff" stroke="#000000" points="665.4768,-196 662.4768,-200 641.4768,-200 638.4768,-196 566.5996,-196 566.5996,-160 665.4768,-160 665.4768,-196"/>
<text text-anchor="middle" x="616.0382" y="-173.8" font-family="Times,serif" font-size="14.00" fill="#000000">[0]mis_loop_k</text>
</g>
<!-- p0x55f824e16fb0&#45;&gt;p0x55f824e170c0 -->
<g id="edge15" class="edge">
<title>p0x55f824e16fb0-&gt;p0x55f824e170c0</title>
<path fill="none" stroke="#000000" d="M1168.1721,-232.8387C1049.5354,-221.0555 791.9477,-195.4716 675.4178,-183.8977"/>
<polygon fill="#000000" stroke="#000000" points="675.5569,-180.3943 665.2599,-182.8888 674.865,-187.3601 675.5569,-180.3943"/>
</g>
<!-- p0x7f4ad8000e70 -->
<g id="node5" class="node">
<title>p0x7f4ad8000e70</title>
<ellipse fill="none" stroke="#000000" cx="616.0382" cy="-455" rx="59.1372" ry="18"/>
<text text-anchor="middle" x="616.0382" y="-450.8" font-family="Times,serif" font-size="14.00" fill="#000000">h2d_pin2net</text>
</g>
<!-- p0x7f4ad8000e70&#45;&gt;p0x55f824e16950 -->
<g id="edge4" class="edge">
<title>p0x7f4ad8000e70-&gt;p0x55f824e16950</title>
<path fill="none" stroke="#000000" d="M661.9349,-443.4674C720.6736,-428.6785 825.5582,-402.1723 915.1767,-379 936.8871,-373.3864 960.7532,-367.1271 981.5518,-361.6434"/>
<polygon fill="#000000" stroke="#000000" points="982.7169,-364.9559 991.4927,-359.02 980.9306,-358.1876 982.7169,-364.9559"/>
</g>
<!-- p0x7f4ad8000f30 -->
<g id="node6" class="node">
<title>p0x7f4ad8000f30</title>
<ellipse fill="none" stroke="#000000" cx="616.0382" cy="-401" rx="55.6256" ry="18"/>
<text text-anchor="middle" x="616.0382" y="-396.8" font-family="Times,serif" font-size="14.00" fill="#000000">h2d_fv2pin</text>
</g>
<!-- p0x7f4ad8000f30&#45;&gt;p0x55f824e16950 -->
<g id="edge5" class="edge">
<title>p0x7f4ad8000f30-&gt;p0x55f824e16950</title>
<path fill="none" stroke="#000000" d="M668.0554,-394.3244C747.8664,-384.0818 899.8496,-364.5771 981.5616,-354.0906"/>
<polygon fill="#000000" stroke="#000000" points="982.1762,-357.5405 991.6493,-352.796 981.2851,-350.5975 982.1762,-357.5405"/>
</g>
<!-- p0x7f4ad8001140 -->
<g id="node7" class="node">
<title>p0x7f4ad8001140</title>
<ellipse fill="none" stroke="#000000" cx="616.0382" cy="-347" rx="52.1963" ry="18"/>
<text text-anchor="middle" x="616.0382" y="-342.8" font-family="Times,serif" font-size="14.00" fill="#000000">h2d_pin2v</text>
</g>
<!-- p0x7f4ad8001140&#45;&gt;p0x55f824e16950 -->
<g id="edge6" class="edge">
<title>p0x7f4ad8001140-&gt;p0x55f824e16950</title>
<path fill="none" stroke="#000000" d="M668.4788,-347C748.3384,-347 899.7493,-347 981.3641,-347"/>
<polygon fill="#000000" stroke="#000000" points="981.442,-350.5001 991.4419,-347 981.4419,-343.5001 981.442,-350.5001"/>
</g>
<!-- p0x55f824e16a60 -->
<g id="node8" class="node">
<title>p0x55f824e16a60</title>
<ellipse fill="none" stroke="#000000" cx="272.1215" cy="-532" rx="67.7586" ry="18"/>
<text text-anchor="middle" x="272.1215" y="-527.8" font-family="Times,serif" font-size="14.00" fill="#000000">[0]shuffle_beg</text>
</g>
<!-- p0x55f824e16b70 -->
<g id="node9" class="node">
<title>p0x55f824e16b70</title>
<ellipse fill="none" stroke="#000000" cx="435.7648" cy="-532" rx="58.529" ry="18"/>
<text text-anchor="middle" x="435.7648" y="-527.8" font-family="Times,serif" font-size="14.00" fill="#000000">[0]shuffle_k</text>
</g>
<!-- p0x55f824e16a60&#45;&gt;p0x55f824e16b70 -->
<g id="edge7" class="edge">
<title>p0x55f824e16a60-&gt;p0x55f824e16b70</title>
<path fill="none" stroke="#000000" d="M340.0993,-532C348.8725,-532 357.8644,-532 366.6555,-532"/>
<polygon fill="#000000" stroke="#000000" points="366.8583,-535.5001 376.8583,-532 366.8583,-528.5001 366.8583,-535.5001"/>
</g>
<!-- p0x55f824e16c80 -->
<g id="node10" class="node">
<title>p0x55f824e16c80</title>
<ellipse fill="none" stroke="#000000" cx="616.0382" cy="-532" rx="67.7586" ry="18"/>
<text text-anchor="middle" x="616.0382" y="-527.8" font-family="Times,serif" font-size="14.00" fill="#000000">[0]shuffle_end</text>
</g>
<!-- p0x55f824e16b70&#45;&gt;p0x55f824e16c80 -->
<g id="edge8" class="edge">
<title>p0x55f824e16b70-&gt;p0x55f824e16c80</title>
<path fill="none" stroke="#000000" d="M494.793,-532C508.5097,-532 523.3218,-532 537.7241,-532"/>
<polygon fill="#000000" stroke="#000000" points="538.1174,-535.5001 548.1174,-532 538.1173,-528.5001 538.1174,-535.5001"/>
</g>
<!-- p0x55f824e16d90 -->
<g id="node11" class="node">
<title>p0x55f824e16d90</title>
<ellipse fill="none" stroke="#000000" cx="826.3622" cy="-533" rx="88.6024" ry="18"/>
<text text-anchor="middle" x="826.3622" y="-528.8" font-family="Times,serif" font-size="14.00" fill="#000000">[0]mis_parallel_beg</text>
</g>
<!-- p0x55f824e16c80&#45;&gt;p0x55f824e16d90 -->
<g id="edge9" class="edge">
<title>p0x55f824e16c80-&gt;p0x55f824e16d90</title>
<path fill="none" stroke="#000000" d="M684.0339,-532.3233C697.881,-532.3891 712.7147,-532.4597 727.3872,-532.5294"/>
<polygon fill="#000000" stroke="#000000" points="727.4887,-536.0298 737.5053,-532.5775 727.522,-529.0299 727.4887,-536.0298"/>
</g>
<!-- p0x55f824e16ea0 -->
<g id="node12" class="node">
<title>p0x55f824e16ea0</title>
<polygon fill="#00ffff" stroke="#000000" points="1076.8608,-604 1073.8608,-608 1052.8608,-608 1049.8608,-604 996.7642,-604 996.7642,-568 1076.8608,-568 1076.8608,-604"/>
<text text-anchor="middle" x="1036.8125" y="-581.8" font-family="Times,serif" font-size="14.00" fill="#000000">[0]mis_h2d</text>
</g>
<!-- p0x55f824e16d90&#45;&gt;p0x55f824e16ea0 -->
<g id="edge10" class="edge">
<title>p0x55f824e16d90-&gt;p0x55f824e16ea0</title>
<path fill="none" stroke="#000000" d="M882.2065,-547.0639C914.7309,-555.2548 955.3954,-565.4959 986.8562,-573.4189"/>
<polygon fill="#000000" stroke="#000000" points="986.1733,-576.8562 996.7253,-575.9044 987.8829,-570.0681 986.1733,-576.8562"/>
</g>
<!-- p0x55f824e16ea0&#45;&gt;p0x55f824e16fb0 -->
<g id="edge11" class="edge">
<title>p0x55f824e16ea0-&gt;p0x55f824e16fb0</title>
<path fill="none" stroke="#000000" d="M1062.6531,-567.88C1081.0924,-553.8493 1105.375,-532.9791 1121.4483,-510 1177.0413,-430.5222 1210.2836,-318.4799 1223.5327,-266.9365"/>
<polygon fill="#000000" stroke="#000000" points="1226.9428,-267.727 1225.9871,-257.1753 1220.1541,-266.0199 1226.9428,-267.727"/>
</g>
<!-- p0x7f4ad8004530 -->
<g id="node13" class="node">
<title>p0x7f4ad8004530</title>
<ellipse fill="none" stroke="#000000" cx="616.0382" cy="-694" rx="84.5189" ry="18"/>
<text text-anchor="middle" x="616.0382" y="-689.8" font-family="Times,serif" font-size="14.00" fill="#000000">[0]h2d_ordered_vs</text>
</g>
<!-- p0x7f4ad8004530&#45;&gt;p0x55f824e16ea0 -->
<g id="edge12" class="edge">
<title>p0x7f4ad8004530-&gt;p0x55f824e16ea0</title>
<path fill="none" stroke="#000000" d="M670.9333,-680.2011C730.9581,-665.0782 829.9678,-640.0322 915.1767,-618 938.7344,-611.9087 964.8304,-605.0572 986.7912,-599.2614"/>
<polygon fill="#000000" stroke="#000000" points="987.7919,-602.6172 996.5663,-596.6792 986.0041,-595.8493 987.7919,-602.6172"/>
</g>
<!-- p0x7f4ad8006d10 -->
<g id="node14" class="node">
<title>p0x7f4ad8006d10</title>
<ellipse fill="none" stroke="#000000" cx="616.0382" cy="-640" rx="81.0898" ry="18"/>
<text text-anchor="middle" x="616.0382" y="-635.8" font-family="Times,serif" font-size="14.00" fill="#000000">[0]h2d_dependent</text>
</g>
<!-- p0x7f4ad8006d10&#45;&gt;p0x55f824e16ea0 -->
<g id="edge13" class="edge">
<title>p0x7f4ad8006d10-&gt;p0x55f824e16ea0</title>
<path fill="none" stroke="#000000" d="M686.4664,-630.9616C771.375,-620.0649 911.9455,-602.0248 986.6029,-592.4436"/>
<polygon fill="#000000" stroke="#000000" points="987.2141,-595.894 996.6872,-591.1495 986.323,-588.9509 987.2141,-595.894"/>
</g>
<!-- p0x7f4ad8006df0 -->
<g id="node15" class="node">
<title>p0x7f4ad8006df0</title>
<ellipse fill="none" stroke="#000000" cx="616.0382" cy="-586" rx="72.914" ry="18"/>
<text text-anchor="middle" x="616.0382" y="-581.8" font-family="Times,serif" font-size="14.00" fill="#000000">[0]h2d_selected</text>
</g>
<!-- p0x7f4ad8006df0&#45;&gt;p0x55f824e16ea0 -->
<g id="edge14" class="edge">
<title>p0x7f4ad8006df0-&gt;p0x55f824e16ea0</title>
<path fill="none" stroke="#000000" d="M688.8511,-586C773.8196,-586 912.1,-586 986.1697,-586"/>
<polygon fill="#000000" stroke="#000000" points="986.6181,-589.5001 996.6181,-586 986.618,-582.5001 986.6181,-589.5001"/>
</g>
<!-- p0x55f824e171d0 -->
<g id="node17" class="node">
<title>p0x55f824e171d0</title>
<ellipse fill="none" stroke="#000000" cx="826.3622" cy="-149" rx="88.6294" ry="18"/>
<text text-anchor="middle" x="826.3622" y="-144.8" font-family="Times,serif" font-size="14.00" fill="#000000">[0]mis_loop_update</text>
</g>
<!-- p0x55f824e170c0&#45;&gt;p0x55f824e171d0 -->
<g id="edge16" class="edge">
<title>p0x55f824e170c0-&gt;p0x55f824e171d0</title>
<path fill="none" stroke="#000000" d="M665.3498,-171.2008C688.3896,-168.024 716.468,-164.1525 742.6854,-160.5376"/>
<polygon fill="#000000" stroke="#000000" points="743.1998,-163.9998 752.6279,-159.1667 742.2436,-157.0655 743.1998,-163.9998"/>
</g>
<!-- p0x55f824e172e0 -->
<g id="node21" class="node">
<title>p0x55f824e172e0</title>
<polygon fill="#7fffd4" stroke="#000000" points="1036.8125,-167 952.0406,-149 1036.8125,-131 1121.5844,-149 1036.8125,-167"/>
<text text-anchor="middle" x="1036.8125" y="-144.8" font-family="Times,serif" font-size="14.00" fill="#000000">[0]mis_cond</text>
</g>
<!-- p0x55f824e171d0&#45;&gt;p0x55f824e172e0 -->
<g id="edge20" class="edge">
<title>p0x55f824e171d0-&gt;p0x55f824e172e0</title>
<path fill="none" stroke="#000000" d="M915.307,-149C924.0151,-149 932.8756,-149 941.6421,-149"/>
<polygon fill="#000000" stroke="#000000" points="941.8754,-152.5001 951.8754,-149 941.8753,-145.5001 941.8754,-152.5001"/>
</g>
<!-- p0x7f4ad8007e00 -->
<g id="node18" class="node">
<title>p0x7f4ad8007e00</title>
<ellipse fill="none" stroke="#000000" cx="72.6211" cy="-206" rx="56.7426" ry="18"/>
<text text-anchor="middle" x="72.6211" y="-201.8" font-family="Times,serif" font-size="14.00" fill="#000000">[0]h2d_size</text>
</g>
<!-- p0x7f4ad8007d00 -->
<g id="node19" class="node">
<title>p0x7f4ad8007d00</title>
<polygon fill="#000000" stroke="#ffffff" points="305.17,-224 243.073,-224 239.073,-220 239.073,-188 301.17,-188 305.17,-192 305.17,-224"/>
<polyline fill="none" stroke="#ffffff" points="301.17,-220 239.073,-220 "/>
<polyline fill="none" stroke="#ffffff" points="301.17,-220 301.17,-188 "/>
<polyline fill="none" stroke="#ffffff" points="301.17,-220 305.17,-224 "/>
<text text-anchor="middle" x="272.1215" y="-201.8" font-family="Times,serif" font-size="14.00" fill="#ffffff">[0]mis_k</text>
</g>
<!-- p0x7f4ad8007e00&#45;&gt;p0x7f4ad8007d00 -->
<g id="edge17" class="edge">
<title>p0x7f4ad8007e00-&gt;p0x7f4ad8007d00</title>
<path fill="none" stroke="#000000" d="M129.2563,-206C160.8564,-206 199.6048,-206 228.7712,-206"/>
<polygon fill="#000000" stroke="#000000" points="229.0522,-209.5001 239.0522,-206 229.0521,-202.5001 229.0522,-209.5001"/>
</g>
<!-- p0x7f4ad8007d00&#45;&gt;p0x55f824e170c0 -->
<g id="edge18" class="edge">
<title>p0x7f4ad8007d00-&gt;p0x55f824e170c0</title>
<path fill="none" stroke="#000000" d="M305.4102,-203.2898C363.4128,-198.5675 483.7429,-188.7708 556.4337,-182.8527"/>
<polygon fill="#000000" stroke="#000000" points="557.1168,-186.3088 566.7998,-182.0088 556.5487,-179.3318 557.1168,-186.3088"/>
</g>
<!-- p0x7f4ad8007b80 -->
<g id="node20" class="node">
<title>p0x7f4ad8007b80</title>
<ellipse fill="none" stroke="#000000" cx="272.1215" cy="-152" rx="56.7426" ry="18"/>
<text text-anchor="middle" x="272.1215" y="-147.8" font-family="Times,serif" font-size="14.00" fill="#000000">[0]d2h_size</text>
</g>
<!-- p0x7f4ad8007b80&#45;&gt;p0x55f824e170c0 -->
<g id="edge19" class="edge">
<title>p0x7f4ad8007b80-&gt;p0x55f824e170c0</title>
<path fill="none" stroke="#000000" d="M327.3777,-156.1773C390.1897,-160.9259 492.3357,-168.6481 556.768,-173.5192"/>
<polygon fill="#000000" stroke="#000000" points="556.5379,-177.0117 566.7733,-174.2756 557.0657,-170.0316 556.5379,-177.0117"/>
</g>
<!-- p0x55f824e172e0&#45;&gt;p0x55f824e16fb0 -->
<g id="edge21" class="edge">
<title>p0x55f824e172e0-&gt;p0x55f824e16fb0</title>
<path fill="none" stroke="#000000" stroke-dasharray="5,2" d="M1106.1383,-152.3149C1119.9225,-154.698 1133.9789,-158.4304 1146.4483,-164.2 1170.9291,-175.5272 1193.4137,-196.4598 1208.909,-213.3063"/>
<polygon fill="#000000" stroke="#000000" points="1206.6665,-216.0507 1215.9324,-221.1882 1211.8926,-211.3938 1206.6665,-216.0507"/>
<text text-anchor="middle" x="1142.9483" y="-169.2" font-family="Times,serif" font-size="14.00" fill="#000000">0</text>
</g>
<!-- p0x55f824e173f0 -->
<g id="node22" class="node">
<title>p0x55f824e173f0</title>
<polygon fill="#00ffff" stroke="#000000" points="1285.8587,-90 1282.8587,-94 1261.8587,-94 1258.8587,-90 1174.5532,-90 1174.5532,-54 1285.8587,-54 1285.8587,-90"/>
<text text-anchor="middle" x="1230.2059" y="-67.8" font-family="Times,serif" font-size="14.00" fill="#000000">[0]mis_loop_end</text>
</g>
<!-- p0x55f824e172e0&#45;&gt;p0x55f824e173f0 -->
<g id="edge22" class="edge">
<title>p0x55f824e172e0-&gt;p0x55f824e173f0</title>
<path fill="none" stroke="#000000" stroke-dasharray="5,2" d="M1079.6507,-140.0228C1093.24,-136.6059 1108.1765,-132.2462 1121.4483,-127 1129.9194,-123.6515 1131.3702,-121.4088 1139.4483,-117.2 1153.7907,-109.7274 1169.528,-101.7967 1183.8118,-94.6992"/>
<polygon fill="#000000" stroke="#000000" points="1185.5514,-97.7434 1192.959,-90.1686 1182.4445,-91.4706 1185.5514,-97.7434"/>
<text text-anchor="middle" x="1142.9483" y="-122.2" font-family="Times,serif" font-size="14.00" fill="#000000">1</text>
</g>
<!-- p0x55f824e1aa20 -->
<g id="node23" class="node">
<title>p0x55f824e1aa20</title>
<ellipse fill="none" stroke="#000000" cx="1384.227" cy="-72" rx="51.028" ry="18"/>
<text text-anchor="middle" x="1384.227" y="-67.8" font-family="Times,serif" font-size="14.00" fill="#000000">[0]hpwl_k</text>
</g>
<!-- p0x55f824e173f0&#45;&gt;p0x55f824e1aa20 -->
<g id="edge23" class="edge">
<title>p0x55f824e173f0-&gt;p0x55f824e1aa20</title>
<path fill="none" stroke="#000000" d="M1286.2468,-72C1298.0217,-72 1310.5047,-72 1322.4753,-72"/>
<polygon fill="#000000" stroke="#000000" points="1322.8323,-75.5001 1332.8323,-72 1322.8323,-68.5001 1322.8323,-75.5001"/>
</g>
<!-- p0x55f824e1ab30 -->
<g id="node25" class="node">
<title>p0x55f824e1ab30</title>
<ellipse fill="none" stroke="#000000" cx="1551.648" cy="-126" rx="64.8486" ry="18"/>
<text text-anchor="middle" x="1551.648" y="-121.8" font-family="Times,serif" font-size="14.00" fill="#000000">del_net_mask</text>
</g>
<!-- p0x55f824e1aa20&#45;&gt;p0x55f824e1ab30 -->
<g id="edge25" class="edge">
<title>p0x55f824e1aa20-&gt;p0x55f824e1ab30</title>
<path fill="none" stroke="#000000" d="M1422.2174,-84.2534C1445.1284,-91.6432 1474.6307,-101.1588 1499.6809,-109.2385"/>
<polygon fill="#000000" stroke="#000000" points="1498.8039,-112.6332 1509.3955,-112.3719 1500.9528,-105.9711 1498.8039,-112.6332"/>
</g>
<!-- p0x55f824e1ac40 -->
<g id="node26" class="node">
<title>p0x55f824e1ac40</title>
<ellipse fill="none" stroke="#000000" cx="1551.648" cy="-72" rx="59.6935" ry="18"/>
<text text-anchor="middle" x="1551.648" y="-67.8" font-family="Times,serif" font-size="14.00" fill="#000000">del_fnet2pin</text>
</g>
<!-- p0x55f824e1aa20&#45;&gt;p0x55f824e1ac40 -->
<g id="edge26" class="edge">
<title>p0x55f824e1aa20-&gt;p0x55f824e1ac40</title>
<path fill="none" stroke="#000000" d="M1435.8249,-72C1450.1887,-72 1466.0392,-72 1481.2837,-72"/>
<polygon fill="#000000" stroke="#000000" points="1481.715,-75.5001 1491.715,-72 1481.7149,-68.5001 1481.715,-75.5001"/>
</g>
<!-- p0x55f824e1ad50 -->
<g id="node27" class="node">
<title>p0x55f824e1ad50</title>
<ellipse fill="none" stroke="#000000" cx="1551.648" cy="-18" rx="79.3154" ry="18"/>
<text text-anchor="middle" x="1551.648" y="-13.8" font-family="Times,serif" font-size="14.00" fill="#000000">del_fnet2pin_ofst</text>
</g>
<!-- p0x55f824e1aa20&#45;&gt;p0x55f824e1ad50 -->
<g id="edge27" class="edge">
<title>p0x55f824e1aa20-&gt;p0x55f824e1ad50</title>
<path fill="none" stroke="#000000" d="M1422.2174,-59.7466C1444.0095,-52.7177 1471.7648,-43.7656 1495.9802,-35.9551"/>
<polygon fill="#000000" stroke="#000000" points="1497.32,-39.2006 1505.7628,-32.7998 1495.1712,-32.5385 1497.32,-39.2006"/>
</g>
<!-- p0x7f4ad8008470 -->
<g id="node24" class="node">
<title>p0x7f4ad8008470</title>
<ellipse fill="none" stroke="#000000" cx="826.3622" cy="-72" rx="81.1168" ry="18"/>
<text text-anchor="middle" x="826.3622" y="-67.8" font-family="Times,serif" font-size="14.00" fill="#000000">p0x7f4ad8008470</text>
</g>
<!-- p0x7f4ad8008470&#45;&gt;p0x55f824e173f0 -->
<g id="edge24" class="edge">
<title>p0x7f4ad8008470-&gt;p0x55f824e173f0</title>
<path fill="none" stroke="#000000" d="M908.086,-72C983.6537,-72 1094.5346,-72 1164.5115,-72"/>
<polygon fill="#000000" stroke="#000000" points="1164.5301,-75.5001 1174.5301,-72 1164.53,-68.5001 1164.5301,-75.5001"/>
</g>
</g>
</svg>