<?xml version="1.0" encoding="UTF-8" standalone="no"?><!DOCTYPE svg PUBLIC "-//W3C//DTD SVG 1.1//EN" "http://www.w3.org/Graphics/SVG/1.1/DTD/svg11.dtd"><!-- Generated by graphviz version 2.40.1 (20161225.0304)
 --><!-- Title: Taskflow Pages: 1 --><svg xmlns="http://www.w3.org/2000/svg" xmlns:xlink="http://www.w3.org/1999/xlink" width="1063pt" height="1037pt" viewBox="0.00 0.00 1063.00 1036.80">
<g id="graph0" class="graph" transform="scale(1 1) rotate(0) translate(4 1032.8)">
<title>Taskflow</title>
<polygon fill="#ffffff" stroke="transparent" points="-4,4 -4,-1032.8 1059,-1032.8 1059,4 -4,4"/>
<g id="clust1" class="cluster">
<title>cluster_p0x7fd36b804d90</title>
<polygon fill="none" stroke="#0000ff" points="206,-80 206,-988 611,-988 611,-80 206,-80"/>
<text text-anchor="middle" x="408.5" y="-971.4" font-family="Times,serif" font-size="14.00" fill="#000000">Subflow: 3</text>
</g>
<g id="clust2" class="cluster">
<title>cluster_p0x7fd36c005e90</title>
<polygon fill="none" stroke="#0000ff" points="276,-152 276,-955.2 603,-955.2 603,-152 276,-152"/>
<text text-anchor="middle" x="439.5" y="-938.6" font-family="Times,serif" font-size="14.00" fill="#000000">Subflow: 3</text>
</g>
<g id="clust3" class="cluster">
<title>cluster_p0x7fd36c005c50</title>
<polygon fill="none" stroke="#0000ff" points="369,-224 369,-922.4 595,-922.4 595,-224 369,-224"/>
<text text-anchor="middle" x="482" y="-905.8" font-family="Times,serif" font-size="14.00" fill="#000000">Subflow: 4</text>
</g>
<g id="clust4" class="cluster">
<title>cluster_p0x7fd36c005a10</title>
<polygon fill="none" stroke="#0000ff" points="439,-296 439,-889.6 587,-889.6 587,-296 439,-296"/>
<text text-anchor="middle" x="513" y="-873" font-family="Times,serif" font-size="14.00" fill="#000000">Subflow: 6</text>
</g>
<g id="clust5" class="cluster">
<title>cluster_p0x7fd36c005470</title>
<polygon fill="none" stroke="#0000ff" points="447,-380.8 447,-856.8 579,-856.8 579,-380.8 447,-380.8"/>
<text text-anchor="middle" x="513" y="-840.2" font-family="Times,serif" font-size="14.00" fill="#000000">Subflow: 9</text>
</g>
<g id="clust6" class="cluster">
<title>cluster_p0x7fd36c005590</title>
<polygon fill="none" stroke="#0000ff" points="455,-465.6 455,-824 571,-824 571,-465.6 455,-465.6"/>
<text text-anchor="middle" x="513" y="-807.4" font-family="Times,serif" font-size="14.00" fill="#000000">Subflow: 11</text>
</g>
<g id="clust7" class="cluster">
<title>cluster_p0x7fd36c0057d0</title>
<polygon fill="none" stroke="#0000ff" points="463,-537.6 463,-791.2 563,-791.2 563,-537.6 463,-537.6"/>
<text text-anchor="middle" x="513" y="-774.6" font-family="Times,serif" font-size="14.00" fill="#000000">Subflow: 12</text>
</g>
<g id="clust8" class="cluster">
<title>cluster_p0x7fd36c005350</title>
<polygon fill="none" stroke="#0000ff" points="471,-609.6 471,-758.4 555,-758.4 555,-609.6 471,-609.6"/>
<text text-anchor="middle" x="513" y="-741.8" font-family="Times,serif" font-size="14.00" fill="#000000">Subflow: 13</text>
</g>
<g id="clust9" class="cluster">
<title>cluster_p0x7fd36c005b30</title>
<polygon fill="none" stroke="#0000ff" points="284,-224 284,-372.8 361,-372.8 361,-224 284,-224"/>
<text text-anchor="middle" x="322.5" y="-356.2" font-family="Times,serif" font-size="14.00" fill="#000000">Subflow: 4</text>
</g>
<g id="clust10" class="cluster">
<title>cluster_p0x7fd36b804eb0</title>
<polygon fill="none" stroke="#0000ff" points="619,-8 619,-1020.8 1047,-1020.8 1047,-8 619,-8"/>
<text text-anchor="middle" x="833" y="-1004.2" font-family="Times,serif" font-size="14.00" fill="#000000">Subflow: 4</text>
</g>
<g id="clust11" class="cluster">
<title>cluster_p0x7fd36b00dc30</title>
<polygon fill="none" stroke="#0000ff" points="689,-80 689,-988 1039,-988 1039,-80 689,-80"/>
<text text-anchor="middle" x="864" y="-971.4" font-family="Times,serif" font-size="14.00" fill="#000000">Subflow: 15</text>
</g>
<g id="clust12" class="cluster">
<title>cluster_p0x7fd36b00de70</title>
<polygon fill="none" stroke="#0000ff" points="697,-152 697,-955.2 1031,-955.2 1031,-152 697,-152"/>
<text text-anchor="middle" x="864" y="-938.6" font-family="Times,serif" font-size="14.00" fill="#000000">Subflow: 17</text>
</g>
<g id="clust13" class="cluster">
<title>cluster_p0x7fd36b00df90</title>
<polygon fill="none" stroke="#0000ff" points="705,-224 705,-922.4 1023,-922.4 1023,-224 705,-224"/>
<text text-anchor="middle" x="864" y="-905.8" font-family="Times,serif" font-size="14.00" fill="#000000">Subflow: 19</text>
</g>
<g id="clust14" class="cluster">
<title>cluster_p0x7fd36b00e0b0</title>
<polygon fill="none" stroke="#0000ff" points="805,-296 805,-889.6 1015,-889.6 1015,-296 805,-296"/>
<text text-anchor="middle" x="910" y="-873" font-family="Times,serif" font-size="14.00" fill="#000000">Subflow: 20</text>
</g>
<g id="clust15" class="cluster">
<title>cluster_p0x7fd36b00e410</title>
<polygon fill="none" stroke="#0000ff" points="875,-380.8 875,-856.8 1007,-856.8 1007,-380.8 875,-380.8"/>
<text text-anchor="middle" x="941" y="-840.2" font-family="Times,serif" font-size="14.00" fill="#000000">Subflow: 21</text>
</g>
<g id="clust16" class="cluster">
<title>cluster_p0x7fd36b00e650</title>
<polygon fill="none" stroke="#0000ff" points="883,-465.6 883,-824 999,-824 999,-465.6 883,-465.6"/>
<text text-anchor="middle" x="941" y="-807.4" font-family="Times,serif" font-size="14.00" fill="#000000">Subflow: 24</text>
</g>
<g id="clust17" class="cluster">
<title>cluster_p0x7fd36b00e770</title>
<polygon fill="none" stroke="#0000ff" points="891,-537.6 891,-791.2 991,-791.2 991,-537.6 891,-537.6"/>
<text text-anchor="middle" x="941" y="-774.6" font-family="Times,serif" font-size="14.00" fill="#000000">Subflow: 26</text>
</g>
<g id="clust18" class="cluster">
<title>cluster_p0x7fd36b00e890</title>
<polygon fill="none" stroke="#0000ff" points="899,-609.6 899,-758.4 983,-758.4 983,-609.6 899,-609.6"/>
<text text-anchor="middle" x="941" y="-741.8" font-family="Times,serif" font-size="14.00" fill="#000000">Subflow: 27</text>
</g>
<g id="clust19" class="cluster">
<title>cluster_p0x7fd36b00e1d0</title>
<polygon fill="none" stroke="#0000ff" points="713,-296 713,-457.6 797,-457.6 797,-296 713,-296"/>
<text text-anchor="middle" x="755" y="-441" font-family="Times,serif" font-size="14.00" fill="#000000">Subflow: 20</text>
</g>
<!-- p0x7fd36b804c70 -->
<g id="node1" class="node">
<title>p0x7fd36b804c70</title>
<ellipse fill="none" stroke="#000000" cx="27" cy="-707.6" rx="27" ry="18"/>
<text text-anchor="middle" x="27" y="-703.4" font-family="Times,serif" font-size="14.00" fill="#000000">0</text>
</g>
<!-- p0x7fd36b804a30 -->
<g id="node2" class="node">
<title>p0x7fd36b804a30</title>
<ellipse fill="none" stroke="#000000" cx="99" cy="-707.6" rx="27" ry="18"/>
<text text-anchor="middle" x="99" y="-703.4" font-family="Times,serif" font-size="14.00" fill="#000000">1</text>
</g>
<!-- p0x7fd36b804b50 -->
<g id="node3" class="node">
<title>p0x7fd36b804b50</title>
<ellipse fill="none" stroke="#000000" cx="171" cy="-707.6" rx="27" ry="18"/>
<text text-anchor="middle" x="171" y="-703.4" font-family="Times,serif" font-size="14.00" fill="#000000">2</text>
</g>
<!-- p0x7fd36b804d90 -->
<g id="node4" class="node">
<title>p0x7fd36b804d90</title>
<ellipse fill="none" stroke="#000000" cx="280" cy="-106" rx="27" ry="18"/>
<text text-anchor="middle" x="280" y="-101.8" font-family="Times,serif" font-size="14.00" fill="#000000">3</text>
</g>
<!-- p0x7fd36c005e90 -->
<g id="node5" class="node">
<title>p0x7fd36c005e90</title>
<ellipse fill="none" stroke="#000000" cx="322" cy="-178" rx="27" ry="18"/>
<text text-anchor="middle" x="322" y="-173.8" font-family="Times,serif" font-size="14.00" fill="#000000">3</text>
</g>
<!-- p0x7fd36c005e90&#45;&gt;p0x7fd36b804d90 -->
<g id="edge1" class="edge">
<title>p0x7fd36c005e90-&gt;p0x7fd36b804d90</title>
<path fill="none" stroke="#000000" d="M312.0466,-160.937C306.9729,-152.2393 300.6966,-141.4799 295.047,-131.7948"/>
<polygon fill="#000000" stroke="#000000" points="297.944,-129.8148 289.882,-122.9405 291.8975,-133.3419 297.944,-129.8148"/>
</g>
<!-- p0x7fd36c005c50 -->
<g id="node6" class="node">
<title>p0x7fd36c005c50</title>
<ellipse fill="none" stroke="#000000" cx="404" cy="-250" rx="27" ry="18"/>
<text text-anchor="middle" x="404" y="-245.8" font-family="Times,serif" font-size="14.00" fill="#000000">4</text>
</g>
<!-- p0x7fd36c005c50&#45;&gt;p0x7fd36c005e90 -->
<g id="edge2" class="edge">
<title>p0x7fd36c005c50-&gt;p0x7fd36c005e90</title>
<path fill="none" stroke="#000000" d="M387.4061,-235.4297C375.6246,-225.0851 359.616,-211.0286 346.3855,-199.4116"/>
<polygon fill="#000000" stroke="#000000" points="348.393,-196.5166 338.5692,-192.5486 343.7744,-201.7767 348.393,-196.5166"/>
</g>
<!-- p0x7fd36c005a10 -->
<g id="node7" class="node">
<title>p0x7fd36c005a10</title>
<ellipse fill="none" stroke="#000000" cx="479" cy="-322" rx="27" ry="18"/>
<text text-anchor="middle" x="479" y="-317.8" font-family="Times,serif" font-size="14.00" fill="#000000">6</text>
</g>
<!-- p0x7fd36c005a10&#45;&gt;p0x7fd36c005c50 -->
<g id="edge3" class="edge">
<title>p0x7fd36c005a10-&gt;p0x7fd36c005c50</title>
<path fill="none" stroke="#000000" d="M463.46,-307.0816C452.901,-296.945 438.7556,-283.3654 426.9108,-271.9944"/>
<polygon fill="#000000" stroke="#000000" points="429.1579,-269.2998 419.5201,-264.8993 424.3102,-274.3495 429.1579,-269.2998"/>
</g>
<!-- p0x7fd36c005470 -->
<g id="node8" class="node">
<title>p0x7fd36c005470</title>
<ellipse fill="none" stroke="#000000" cx="486" cy="-406.8" rx="27" ry="18"/>
<text text-anchor="middle" x="486" y="-402.6" font-family="Times,serif" font-size="14.00" fill="#000000">9</text>
</g>
<!-- p0x7fd36c005470&#45;&gt;p0x7fd36c005a10 -->
<g id="edge4" class="edge">
<title>p0x7fd36c005470-&gt;p0x7fd36c005a10</title>
<path fill="none" stroke="#000000" d="M484.5155,-388.8161C483.5937,-377.6492 482.389,-363.0547 481.3406,-350.3553"/>
<polygon fill="#000000" stroke="#000000" points="484.8174,-349.9285 480.5065,-340.2503 477.8411,-350.5044 484.8174,-349.9285"/>
</g>
<!-- p0x7fd36c005590 -->
<g id="node9" class="node">
<title>p0x7fd36c005590</title>
<ellipse fill="none" stroke="#000000" cx="494" cy="-491.6" rx="27" ry="18"/>
<text text-anchor="middle" x="494" y="-487.4" font-family="Times,serif" font-size="14.00" fill="#000000">11</text>
</g>
<!-- p0x7fd36c005590&#45;&gt;p0x7fd36c005470 -->
<g id="edge5" class="edge">
<title>p0x7fd36c005590-&gt;p0x7fd36c005470</title>
<path fill="none" stroke="#000000" d="M492.3034,-473.6161C491.2499,-462.4492 489.8731,-447.8547 488.675,-435.1553"/>
<polygon fill="#000000" stroke="#000000" points="492.1456,-434.6774 487.7217,-425.0503 485.1765,-435.3349 492.1456,-434.6774"/>
</g>
<!-- p0x7fd36c0057d0 -->
<g id="node10" class="node">
<title>p0x7fd36c0057d0</title>
<ellipse fill="none" stroke="#000000" cx="502" cy="-563.6" rx="27" ry="18"/>
<text text-anchor="middle" x="502" y="-559.4" font-family="Times,serif" font-size="14.00" fill="#000000">12</text>
</g>
<!-- p0x7fd36c0057d0&#45;&gt;p0x7fd36c005590 -->
<g id="edge6" class="edge">
<title>p0x7fd36c0057d0-&gt;p0x7fd36c005590</title>
<path fill="none" stroke="#000000" d="M499.9813,-545.4314C499.1257,-537.731 498.1083,-528.5743 497.1574,-520.0166"/>
<polygon fill="#000000" stroke="#000000" points="500.6289,-519.5656 496.0459,-510.0133 493.6717,-520.3386 500.6289,-519.5656"/>
</g>
<!-- p0x7fd36c005350 -->
<g id="node11" class="node">
<title>p0x7fd36c005350</title>
<ellipse fill="none" stroke="#000000" cx="506" cy="-635.6" rx="27" ry="18"/>
<text text-anchor="middle" x="506" y="-631.4" font-family="Times,serif" font-size="14.00" fill="#000000">13</text>
</g>
<!-- p0x7fd36c005350&#45;&gt;p0x7fd36c0057d0 -->
<g id="edge7" class="edge">
<title>p0x7fd36c005350-&gt;p0x7fd36c0057d0</title>
<path fill="none" stroke="#000000" d="M504.9906,-617.4314C504.5628,-609.731 504.0541,-600.5743 503.5787,-592.0166"/>
<polygon fill="#000000" stroke="#000000" points="507.0724,-591.8037 503.023,-582.0133 500.0831,-592.192 507.0724,-591.8037"/>
</g>
<!-- p0x7fd36c005230 -->
<g id="node12" class="node">
<title>p0x7fd36c005230</title>
<ellipse fill="none" stroke="#000000" cx="506" cy="-707.6" rx="27" ry="18"/>
<text text-anchor="middle" x="506" y="-703.4" font-family="Times,serif" font-size="14.00" fill="#000000">14</text>
</g>
<!-- p0x7fd36c005230&#45;&gt;p0x7fd36c005350 -->
<g id="edge8" class="edge">
<title>p0x7fd36c005230-&gt;p0x7fd36c005350</title>
<path fill="none" stroke="#000000" d="M506,-689.4314C506,-681.731 506,-672.5743 506,-664.0166"/>
<polygon fill="#000000" stroke="#000000" points="509.5001,-664.0132 506,-654.0133 502.5001,-664.0133 509.5001,-664.0132"/>
</g>
<!-- p0x7fd36c0058f0 -->
<g id="node13" class="node">
<title>p0x7fd36c0058f0</title>
<ellipse fill="none" stroke="#000000" cx="404" cy="-322" rx="27" ry="18"/>
<text text-anchor="middle" x="404" y="-317.8" font-family="Times,serif" font-size="14.00" fill="#000000">6</text>
</g>
<!-- p0x7fd36c0058f0&#45;&gt;p0x7fd36c005c50 -->
<g id="edge9" class="edge">
<title>p0x7fd36c0058f0-&gt;p0x7fd36c005c50</title>
<path fill="none" stroke="#000000" d="M404,-303.8314C404,-296.131 404,-286.9743 404,-278.4166"/>
<polygon fill="#000000" stroke="#000000" points="407.5001,-278.4132 404,-268.4133 400.5001,-278.4133 407.5001,-278.4132"/>
</g>
<!-- p0x7fd36c005b30 -->
<g id="node14" class="node">
<title>p0x7fd36c005b30</title>
<ellipse fill="none" stroke="#000000" cx="322" cy="-250" rx="27" ry="18"/>
<text text-anchor="middle" x="322" y="-245.8" font-family="Times,serif" font-size="14.00" fill="#000000">4</text>
</g>
<!-- p0x7fd36c005b30&#45;&gt;p0x7fd36c005e90 -->
<g id="edge10" class="edge">
<title>p0x7fd36c005b30-&gt;p0x7fd36c005e90</title>
<path fill="none" stroke="#000000" d="M322,-231.8314C322,-224.131 322,-214.9743 322,-206.4166"/>
<polygon fill="#000000" stroke="#000000" points="325.5001,-206.4132 322,-196.4133 318.5001,-206.4133 325.5001,-206.4132"/>
</g>
<!-- p0x7fd36c0056b0 -->
<g id="node15" class="node">
<title>p0x7fd36c0056b0</title>
<ellipse fill="none" stroke="#000000" cx="322" cy="-322" rx="27" ry="18"/>
<text text-anchor="middle" x="322" y="-317.8" font-family="Times,serif" font-size="14.00" fill="#000000">7</text>
</g>
<!-- p0x7fd36c0056b0&#45;&gt;p0x7fd36c005b30 -->
<g id="edge11" class="edge">
<title>p0x7fd36c0056b0-&gt;p0x7fd36c005b30</title>
<path fill="none" stroke="#000000" d="M322,-303.8314C322,-296.131 322,-286.9743 322,-278.4166"/>
<polygon fill="#000000" stroke="#000000" points="325.5001,-278.4132 322,-268.4133 318.5001,-278.4133 325.5001,-278.4132"/>
</g>
<!-- p0x7fd36c005d70 -->
<g id="node16" class="node">
<title>p0x7fd36c005d70</title>
<ellipse fill="none" stroke="#000000" cx="241" cy="-178" rx="27" ry="18"/>
<text text-anchor="middle" x="241" y="-173.8" font-family="Times,serif" font-size="14.00" fill="#000000">3</text>
</g>
<!-- p0x7fd36c005d70&#45;&gt;p0x7fd36b804d90 -->
<g id="edge12" class="edge">
<title>p0x7fd36c005d70-&gt;p0x7fd36b804d90</title>
<path fill="none" stroke="#000000" d="M250.2425,-160.937C254.9537,-152.2393 260.7817,-141.4799 266.0278,-131.7948"/>
<polygon fill="#000000" stroke="#000000" points="269.1385,-133.4005 270.8239,-122.9405 262.9835,-130.0664 269.1385,-133.4005"/>
</g>
<!-- p0x7fd36b804eb0 -->
<g id="node17" class="node">
<title>p0x7fd36b804eb0</title>
<ellipse fill="none" stroke="#000000" cx="690" cy="-34" rx="27" ry="18"/>
<text text-anchor="middle" x="690" y="-29.8" font-family="Times,serif" font-size="14.00" fill="#000000">4</text>
</g>
<!-- p0x7fd36b00dc30 -->
<g id="node18" class="node">
<title>p0x7fd36b00dc30</title>
<ellipse fill="none" stroke="#000000" cx="729" cy="-106" rx="27" ry="18"/>
<text text-anchor="middle" x="729" y="-101.8" font-family="Times,serif" font-size="14.00" fill="#000000">15</text>
</g>
<!-- p0x7fd36b00dc30&#45;&gt;p0x7fd36b804eb0 -->
<g id="edge13" class="edge">
<title>p0x7fd36b00dc30-&gt;p0x7fd36b804eb0</title>
<path fill="none" stroke="#000000" d="M719.7575,-88.937C715.0463,-80.2393 709.2183,-69.4799 703.9722,-59.7948"/>
<polygon fill="#000000" stroke="#000000" points="707.0165,-58.0664 699.1761,-50.9405 700.8615,-61.4005 707.0165,-58.0664"/>
</g>
<!-- p0x7fd36b00de70 -->
<g id="node19" class="node">
<title>p0x7fd36b00de70</title>
<ellipse fill="none" stroke="#000000" cx="740" cy="-178" rx="27" ry="18"/>
<text text-anchor="middle" x="740" y="-173.8" font-family="Times,serif" font-size="14.00" fill="#000000">17</text>
</g>
<!-- p0x7fd36b00de70&#45;&gt;p0x7fd36b00dc30 -->
<g id="edge14" class="edge">
<title>p0x7fd36b00de70-&gt;p0x7fd36b00dc30</title>
<path fill="none" stroke="#000000" d="M737.2242,-159.8314C736.0297,-152.0125 734.6058,-142.6923 733.2812,-134.0221"/>
<polygon fill="#000000" stroke="#000000" points="736.707,-133.2701 731.7368,-123.9134 729.7873,-134.3273 736.707,-133.2701"/>
</g>
<!-- p0x7fd36b00df90 -->
<g id="node20" class="node">
<title>p0x7fd36b00df90</title>
<ellipse fill="none" stroke="#000000" cx="755" cy="-250" rx="27" ry="18"/>
<text text-anchor="middle" x="755" y="-245.8" font-family="Times,serif" font-size="14.00" fill="#000000">19</text>
</g>
<!-- p0x7fd36b00df90&#45;&gt;p0x7fd36b00de70 -->
<g id="edge15" class="edge">
<title>p0x7fd36b00df90-&gt;p0x7fd36b00de70</title>
<path fill="none" stroke="#000000" d="M751.2149,-231.8314C749.568,-223.9266 747.6015,-214.4872 745.7784,-205.7365"/>
<polygon fill="#000000" stroke="#000000" points="749.198,-204.9894 743.732,-195.9134 742.3452,-206.4171 749.198,-204.9894"/>
</g>
<!-- p0x7fd36b00e0b0 -->
<g id="node21" class="node">
<title>p0x7fd36b00e0b0</title>
<ellipse fill="none" stroke="#000000" cx="840" cy="-322" rx="27" ry="18"/>
<text text-anchor="middle" x="840" y="-317.8" font-family="Times,serif" font-size="14.00" fill="#000000">20</text>
</g>
<!-- p0x7fd36b00e0b0&#45;&gt;p0x7fd36b00df90 -->
<g id="edge16" class="edge">
<title>p0x7fd36b00e0b0-&gt;p0x7fd36b00df90</title>
<path fill="none" stroke="#000000" d="M823.2067,-307.7751C810.7499,-297.2234 793.5734,-282.674 779.5741,-270.8157"/>
<polygon fill="#000000" stroke="#000000" points="781.6511,-267.9881 771.7584,-264.1953 777.1266,-273.3295 781.6511,-267.9881"/>
</g>
<!-- p0x7fd36b00e410 -->
<g id="node22" class="node">
<title>p0x7fd36b00e410</title>
<ellipse fill="none" stroke="#000000" cx="915" cy="-406.8" rx="27" ry="18"/>
<text text-anchor="middle" x="915" y="-402.6" font-family="Times,serif" font-size="14.00" fill="#000000">21</text>
</g>
<!-- p0x7fd36b00e410&#45;&gt;p0x7fd36b00e0b0 -->
<g id="edge17" class="edge">
<title>p0x7fd36b00e410-&gt;p0x7fd36b00e0b0</title>
<path fill="none" stroke="#000000" d="M901.2438,-391.2464C889.8972,-378.4171 873.6238,-360.0173 860.7034,-345.4086"/>
<polygon fill="#000000" stroke="#000000" points="863.1697,-342.9141 853.9229,-337.7422 857.9262,-347.5516 863.1697,-342.9141"/>
</g>
<!-- p0x7fd36b00e650 -->
<g id="node23" class="node">
<title>p0x7fd36b00e650</title>
<ellipse fill="none" stroke="#000000" cx="922" cy="-491.6" rx="27" ry="18"/>
<text text-anchor="middle" x="922" y="-487.4" font-family="Times,serif" font-size="14.00" fill="#000000">24</text>
</g>
<!-- p0x7fd36b00e650&#45;&gt;p0x7fd36b00e410 -->
<g id="edge18" class="edge">
<title>p0x7fd36b00e650-&gt;p0x7fd36b00e410</title>
<path fill="none" stroke="#000000" d="M920.5155,-473.6161C919.5937,-462.4492 918.389,-447.8547 917.3406,-435.1553"/>
<polygon fill="#000000" stroke="#000000" points="920.8174,-434.7285 916.5065,-425.0503 913.8411,-435.3044 920.8174,-434.7285"/>
</g>
<!-- p0x7fd36b00e770 -->
<g id="node24" class="node">
<title>p0x7fd36b00e770</title>
<ellipse fill="none" stroke="#000000" cx="930" cy="-563.6" rx="27" ry="18"/>
<text text-anchor="middle" x="930" y="-559.4" font-family="Times,serif" font-size="14.00" fill="#000000">26</text>
</g>
<!-- p0x7fd36b00e770&#45;&gt;p0x7fd36b00e650 -->
<g id="edge19" class="edge">
<title>p0x7fd36b00e770-&gt;p0x7fd36b00e650</title>
<path fill="none" stroke="#000000" d="M927.9813,-545.4314C927.1257,-537.731 926.1083,-528.5743 925.1574,-520.0166"/>
<polygon fill="#000000" stroke="#000000" points="928.6289,-519.5656 924.0459,-510.0133 921.6717,-520.3386 928.6289,-519.5656"/>
</g>
<!-- p0x7fd36b00e890 -->
<g id="node25" class="node">
<title>p0x7fd36b00e890</title>
<ellipse fill="none" stroke="#000000" cx="934" cy="-635.6" rx="27" ry="18"/>
<text text-anchor="middle" x="934" y="-631.4" font-family="Times,serif" font-size="14.00" fill="#000000">27</text>
</g>
<!-- p0x7fd36b00e890&#45;&gt;p0x7fd36b00e770 -->
<g id="edge20" class="edge">
<title>p0x7fd36b00e890-&gt;p0x7fd36b00e770</title>
<path fill="none" stroke="#000000" d="M932.9906,-617.4314C932.5628,-609.731 932.0541,-600.5743 931.5787,-592.0166"/>
<polygon fill="#000000" stroke="#000000" points="935.0724,-591.8037 931.023,-582.0133 928.0831,-592.192 935.0724,-591.8037"/>
</g>
<!-- p0x7fd36b00e9b0 -->
<g id="node26" class="node">
<title>p0x7fd36b00e9b0</title>
<ellipse fill="none" stroke="#000000" cx="934" cy="-707.6" rx="27" ry="18"/>
<text text-anchor="middle" x="934" y="-703.4" font-family="Times,serif" font-size="14.00" fill="#000000">28</text>
</g>
<!-- p0x7fd36b00e9b0&#45;&gt;p0x7fd36b00e890 -->
<g id="edge21" class="edge">
<title>p0x7fd36b00e9b0-&gt;p0x7fd36b00e890</title>
<path fill="none" stroke="#000000" d="M934,-689.4314C934,-681.731 934,-672.5743 934,-664.0166"/>
<polygon fill="#000000" stroke="#000000" points="937.5001,-664.0132 934,-654.0133 930.5001,-664.0133 937.5001,-664.0132"/>
</g>
<!-- p0x7fd36b00e530 -->
<g id="node27" class="node">
<title>p0x7fd36b00e530</title>
<ellipse fill="none" stroke="#000000" cx="840" cy="-406.8" rx="27" ry="18"/>
<text text-anchor="middle" x="840" y="-402.6" font-family="Times,serif" font-size="14.00" fill="#000000">21</text>
</g>
<!-- p0x7fd36b00e530&#45;&gt;p0x7fd36b00e0b0 -->
<g id="edge22" class="edge">
<title>p0x7fd36b00e530-&gt;p0x7fd36b00e0b0</title>
<path fill="none" stroke="#000000" d="M840,-388.3997C840,-377.2112 840,-362.6983 840,-350.0954"/>
<polygon fill="#000000" stroke="#000000" points="843.5001,-350.0731 840,-340.0731 836.5001,-350.0731 843.5001,-350.0731"/>
</g>
<!-- p0x7fd36b00e1d0 -->
<g id="node28" class="node">
<title>p0x7fd36b00e1d0</title>
<ellipse fill="none" stroke="#000000" cx="755" cy="-322" rx="27" ry="18"/>
<text text-anchor="middle" x="755" y="-317.8" font-family="Times,serif" font-size="14.00" fill="#000000">20</text>
</g>
<!-- p0x7fd36b00e1d0&#45;&gt;p0x7fd36b00df90 -->
<g id="edge23" class="edge">
<title>p0x7fd36b00e1d0-&gt;p0x7fd36b00df90</title>
<path fill="none" stroke="#000000" d="M755,-303.8314C755,-296.131 755,-286.9743 755,-278.4166"/>
<polygon fill="#000000" stroke="#000000" points="758.5001,-278.4132 755,-268.4133 751.5001,-278.4133 758.5001,-278.4132"/>
</g>
<!-- p0x7fd36b00e2f0 -->
<g id="node29" class="node">
<title>p0x7fd36b00e2f0</title>
<ellipse fill="none" stroke="#000000" cx="755" cy="-406.8" rx="27" ry="18"/>
<text text-anchor="middle" x="755" y="-402.6" font-family="Times,serif" font-size="14.00" fill="#000000">22</text>
</g>
<!-- p0x7fd36b00e2f0&#45;&gt;p0x7fd36b00e1d0 -->
<g id="edge24" class="edge">
<title>p0x7fd36b00e2f0-&gt;p0x7fd36b00e1d0</title>
<path fill="none" stroke="#000000" d="M755,-388.3997C755,-377.2112 755,-362.6983 755,-350.0954"/>
<polygon fill="#000000" stroke="#000000" points="758.5001,-350.0731 755,-340.0731 751.5001,-350.0731 758.5001,-350.0731"/>
</g>
<!-- p0x7fd36b00dd50 -->
<g id="node30" class="node">
<title>p0x7fd36b00dd50</title>
<ellipse fill="none" stroke="#000000" cx="654" cy="-106" rx="27" ry="18"/>
<text text-anchor="middle" x="654" y="-101.8" font-family="Times,serif" font-size="14.00" fill="#000000">15</text>
</g>
<!-- p0x7fd36b00dd50&#45;&gt;p0x7fd36b804eb0 -->
<g id="edge25" class="edge">
<title>p0x7fd36b00dd50-&gt;p0x7fd36b804eb0</title>
<path fill="none" stroke="#000000" d="M662.7146,-88.5708C666.9597,-80.0807 672.1536,-69.6929 676.8663,-60.2674"/>
<polygon fill="#000000" stroke="#000000" points="680.024,-61.7782 681.3657,-51.2687 673.763,-58.6477 680.024,-61.7782"/>
</g>
</g>
</svg>