<?xml version="1.0" encoding="UTF-8" standalone="no"?><!DOCTYPE svg PUBLIC "-//W3C//DTD SVG 1.1//EN" "http://www.w3.org/Graphics/SVG/1.1/DTD/svg11.dtd"><!-- Generated by graphviz version 2.40.1 (20161225.0304)
 --><!-- Title: Taskflow Pages: 1 --><svg xmlns="http://www.w3.org/2000/svg" xmlns:xlink="http://www.w3.org/1999/xlink" width="244pt" height="350pt" viewBox="0.00 0.00 244.00 349.60">
<g id="graph0" class="graph" transform="scale(1 1) rotate(0) translate(4 345.6)">
<title>Taskflow</title>
<polygon fill="#ffffff" stroke="transparent" points="-4,4 -4,-345.6 240,-345.6 240,4 -4,4"/>
<g id="clust1" class="cluster">
<title>cluster_p0x7ffee9781810</title>
<polygon fill="none" stroke="#000000" points="8,-8 8,-333.6 228,-333.6 228,-8 8,-8"/>
<text text-anchor="middle" x="118" y="-317" font-family="Times,serif" font-size="14.00" fill="#000000">Taskflow</text>
</g>
<g id="clust2" class="cluster">
<title>cluster_p0x7f9866c01b70</title>
<polygon fill="none" stroke="#0000ff" points="78,-80 78,-300.8 220,-300.8 220,-80 78,-80"/>
<text text-anchor="middle" x="149" y="-284.2" font-family="Times,serif" font-size="14.00" fill="#000000">Subflow: B</text>
</g>
<!-- p0x7f9866c01820 -->
<g id="node1" class="node">
<title>p0x7f9866c01820</title>
<ellipse fill="none" stroke="#000000" cx="43" cy="-178" rx="27" ry="18"/>
<text text-anchor="middle" x="43" y="-173.8" font-family="Times,serif" font-size="14.00" fill="#000000">A</text>
</g>
<!-- p0x7f9866c01b70 -->
<g id="node2" class="node">
<title>p0x7f9866c01b70</title>
<ellipse fill="none" stroke="#000000" cx="115" cy="-106" rx="27" ry="18"/>
<text text-anchor="middle" x="115" y="-101.8" font-family="Times,serif" font-size="14.00" fill="#000000">B</text>
</g>
<!-- p0x7f9866c01820&#45;&gt;p0x7f9866c01b70 -->
<g id="edge1" class="edge">
<title>p0x7f9866c01820-&gt;p0x7f9866c01b70</title>
<path fill="none" stroke="#000000" d="M58.2693,-162.7307C68.197,-152.803 81.3153,-139.6847 92.4363,-128.5637"/>
<polygon fill="#000000" stroke="#000000" points="95.1564,-130.7933 99.7527,-121.2473 90.2067,-125.8436 95.1564,-130.7933"/>
</g>
<!-- p0x7f9866c01930 -->
<g id="node3" class="node">
<title>p0x7f9866c01930</title>
<ellipse fill="none" stroke="#000000" cx="43" cy="-106" rx="27" ry="18"/>
<text text-anchor="middle" x="43" y="-101.8" font-family="Times,serif" font-size="14.00" fill="#000000">C</text>
</g>
<!-- p0x7f9866c01820&#45;&gt;p0x7f9866c01930 -->
<g id="edge2" class="edge">
<title>p0x7f9866c01820-&gt;p0x7f9866c01930</title>
<path fill="none" stroke="#000000" d="M43,-159.8314C43,-152.131 43,-142.9743 43,-134.4166"/>
<polygon fill="#000000" stroke="#000000" points="46.5001,-134.4132 43,-124.4133 39.5001,-134.4133 46.5001,-134.4132"/>
</g>
<!-- p0x7f9866c01a40 -->
<g id="node4" class="node">
<title>p0x7f9866c01a40</title>
<ellipse fill="none" stroke="#000000" cx="79" cy="-34" rx="27" ry="18"/>
<text text-anchor="middle" x="79" y="-29.8" font-family="Times,serif" font-size="14.00" fill="#000000">D</text>
</g>
<!-- p0x7f9866c01b70&#45;&gt;p0x7f9866c01a40 -->
<g id="edge4" class="edge">
<title>p0x7f9866c01b70-&gt;p0x7f9866c01a40</title>
<path fill="none" stroke="#000000" d="M106.2854,-88.5708C102.0403,-80.0807 96.8464,-69.6929 92.1337,-60.2674"/>
<polygon fill="#000000" stroke="#000000" points="95.237,-58.6477 87.6343,-51.2687 88.976,-61.7782 95.237,-58.6477"/>
</g>
<!-- p0x7f9866c01930&#45;&gt;p0x7f9866c01a40 -->
<g id="edge3" class="edge">
<title>p0x7f9866c01930-&gt;p0x7f9866c01a40</title>
<path fill="none" stroke="#000000" d="M51.7146,-88.5708C55.9597,-80.0807 61.1536,-69.6929 65.8663,-60.2674"/>
<polygon fill="#000000" stroke="#000000" points="69.024,-61.7782 70.3657,-51.2687 62.763,-58.6477 69.024,-61.7782"/>
</g>
<!-- p0x7f9866d01880 -->
<g id="node5" class="node">
<title>p0x7f9866d01880</title>
<ellipse fill="none" stroke="#000000" cx="185" cy="-250" rx="27" ry="18"/>
<text text-anchor="middle" x="185" y="-245.8" font-family="Times,serif" font-size="14.00" fill="#000000">B1</text>
</g>
<!-- p0x7f9866d01ac0 -->
<g id="node6" class="node">
<title>p0x7f9866d01ac0</title>
<ellipse fill="none" stroke="#000000" cx="115" cy="-178" rx="27" ry="18"/>
<text text-anchor="middle" x="115" y="-173.8" font-family="Times,serif" font-size="14.00" fill="#000000">B3</text>
</g>
<!-- p0x7f9866d01880&#45;&gt;p0x7f9866d01ac0 -->
<g id="edge5" class="edge">
<title>p0x7f9866d01880-&gt;p0x7f9866d01ac0</title>
<path fill="none" stroke="#000000" d="M170.1548,-234.7307C160.5029,-224.803 147.749,-211.6847 136.9369,-200.5637"/>
<polygon fill="#000000" stroke="#000000" points="139.3041,-197.9775 129.8238,-193.2473 134.2851,-202.8571 139.3041,-197.9775"/>
</g>
<!-- p0x7f9866d01ac0&#45;&gt;p0x7f9866c01b70 -->
<g id="edge7" class="edge">
<title>p0x7f9866d01ac0-&gt;p0x7f9866c01b70</title>
<path fill="none" stroke="#000000" d="M115,-159.8314C115,-152.131 115,-142.9743 115,-134.4166"/>
<polygon fill="#000000" stroke="#000000" points="118.5001,-134.4132 115,-124.4133 111.5001,-134.4133 118.5001,-134.4132"/>
</g>
<!-- p0x7f9866d019a0 -->
<g id="node7" class="node">
<title>p0x7f9866d019a0</title>
<ellipse fill="none" stroke="#000000" cx="113" cy="-250" rx="27" ry="18"/>
<text text-anchor="middle" x="113" y="-245.8" font-family="Times,serif" font-size="14.00" fill="#000000">B2</text>
</g>
<!-- p0x7f9866d019a0&#45;&gt;p0x7f9866d01ac0 -->
<g id="edge6" class="edge">
<title>p0x7f9866d019a0-&gt;p0x7f9866d01ac0</title>
<path fill="none" stroke="#000000" d="M113.5047,-231.8314C113.7186,-224.131 113.9729,-214.9743 114.2106,-206.4166"/>
<polygon fill="#000000" stroke="#000000" points="117.7094,-206.5066 114.4885,-196.4133 110.7121,-206.3122 117.7094,-206.5066"/>
</g>
</g>
</svg>