<?xml version="1.0" encoding="UTF-8" standalone="no"?><!DOCTYPE svg PUBLIC "-//W3C//DTD SVG 1.1//EN" "http://www.w3.org/Graphics/SVG/1.1/DTD/svg11.dtd"><!-- Generated by graphviz version 2.40.1 (20161225.0304)
 --><!-- Title: Taskflow Pages: 1 --><svg xmlns="http://www.w3.org/2000/svg" xmlns:xlink="http://www.w3.org/1999/xlink" width="316pt" height="278pt" viewBox="0.00 0.00 316.00 277.60">
<g id="graph0" class="graph" transform="scale(1 1) rotate(0) translate(4 273.6)">
<title>Taskflow</title>
<polygon fill="#ffffff" stroke="transparent" points="-4,4 -4,-273.6 312,-273.6 312,4 -4,4"/>
<g id="clust1" class="cluster">
<title>cluster_p0x7ffeecc59810</title>
<polygon fill="none" stroke="#000000" points="8,-8 8,-261.6 300,-261.6 300,-8 8,-8"/>
<text text-anchor="middle" x="154" y="-245" font-family="Times,serif" font-size="14.00" fill="#000000">Taskflow</text>
</g>
<g id="clust2" class="cluster">
<title>cluster_p0x7fdc0dc02b60</title>
<polygon fill="none" stroke="#0000ff" points="150,-80 150,-228.8 292,-228.8 292,-80 150,-80"/>
<text text-anchor="middle" x="221" y="-212.2" font-family="Times,serif" font-size="14.00" fill="#000000">Subflow: B</text>
</g>
<!-- p0x7fdc0dc02830 -->
<g id="node1" class="node">
<title>p0x7fdc0dc02830</title>
<ellipse fill="none" stroke="#000000" cx="78" cy="-178" rx="27" ry="18"/>
<text text-anchor="middle" x="78" y="-173.8" font-family="Times,serif" font-size="14.00" fill="#000000">A</text>
</g>
<!-- p0x7fdc0dc02b60 -->
<g id="node2" class="node">
<title>p0x7fdc0dc02b60</title>
<ellipse fill="none" stroke="#000000" cx="43" cy="-106" rx="27" ry="18"/>
<text text-anchor="middle" x="43" y="-101.8" font-family="Times,serif" font-size="14.00" fill="#000000">B</text>
</g>
<!-- p0x7fdc0dc02830&#45;&gt;p0x7fdc0dc02b60 -->
<g id="edge1" class="edge">
<title>p0x7fdc0dc02830-&gt;p0x7fdc0dc02b60</title>
<path fill="none" stroke="#000000" d="M69.5275,-160.5708C65.4003,-152.0807 60.3507,-141.6929 55.7689,-132.2674"/>
<polygon fill="#000000" stroke="#000000" points="58.9143,-130.7322 51.3945,-123.2687 52.6187,-133.7926 58.9143,-130.7322"/>
</g>
<!-- p0x7fdc0dc02940 -->
<g id="node3" class="node">
<title>p0x7fdc0dc02940</title>
<ellipse fill="none" stroke="#000000" cx="115" cy="-106" rx="27" ry="18"/>
<text text-anchor="middle" x="115" y="-101.8" font-family="Times,serif" font-size="14.00" fill="#000000">C</text>
</g>
<!-- p0x7fdc0dc02830&#45;&gt;p0x7fdc0dc02940 -->
<g id="edge2" class="edge">
<title>p0x7fdc0dc02830-&gt;p0x7fdc0dc02940</title>
<path fill="none" stroke="#000000" d="M86.7685,-160.937C91.1279,-152.4537 96.4953,-142.0092 101.3753,-132.513"/>
<polygon fill="#000000" stroke="#000000" points="104.5797,-133.9348 106.0374,-123.4407 98.3537,-130.7352 104.5797,-133.9348"/>
</g>
<!-- p0x7fdc0dc02a50 -->
<g id="node4" class="node">
<title>p0x7fdc0dc02a50</title>
<ellipse fill="none" stroke="#000000" cx="79" cy="-34" rx="27" ry="18"/>
<text text-anchor="middle" x="79" y="-29.8" font-family="Times,serif" font-size="14.00" fill="#000000">D</text>
</g>
<!-- p0x7fdc0dc02b60&#45;&gt;p0x7fdc0dc02a50 -->
<g id="edge4" class="edge">
<title>p0x7fdc0dc02b60-&gt;p0x7fdc0dc02a50</title>
<path fill="none" stroke="#000000" d="M51.7146,-88.5708C55.9597,-80.0807 61.1536,-69.6929 65.8663,-60.2674"/>
<polygon fill="#000000" stroke="#000000" points="69.024,-61.7782 70.3657,-51.2687 62.763,-58.6477 69.024,-61.7782"/>
</g>
<!-- p0x7fdc0dc02940&#45;&gt;p0x7fdc0dc02a50 -->
<g id="edge3" class="edge">
<title>p0x7fdc0dc02940-&gt;p0x7fdc0dc02a50</title>
<path fill="none" stroke="#000000" d="M106.2854,-88.5708C102.0403,-80.0807 96.8464,-69.6929 92.1337,-60.2674"/>
<polygon fill="#000000" stroke="#000000" points="95.237,-58.6477 87.6343,-51.2687 88.976,-61.7782 95.237,-58.6477"/>
</g>
<!-- p0x7fdc0de00120 -->
<g id="node5" class="node">
<title>p0x7fdc0de00120</title>
<ellipse fill="none" stroke="#000000" cx="257" cy="-178" rx="27" ry="18"/>
<text text-anchor="middle" x="257" y="-173.8" font-family="Times,serif" font-size="14.00" fill="#000000">B1</text>
</g>
<!-- p0x7fdc0de00360 -->
<g id="node6" class="node">
<title>p0x7fdc0de00360</title>
<ellipse fill="none" stroke="#000000" cx="222" cy="-106" rx="27" ry="18"/>
<text text-anchor="middle" x="222" y="-101.8" font-family="Times,serif" font-size="14.00" fill="#000000">B3</text>
</g>
<!-- p0x7fdc0de00120&#45;&gt;p0x7fdc0de00360 -->
<g id="edge5" class="edge">
<title>p0x7fdc0de00120-&gt;p0x7fdc0de00360</title>
<path fill="none" stroke="#000000" d="M248.5275,-160.5708C244.4003,-152.0807 239.3507,-141.6929 234.7689,-132.2674"/>
<polygon fill="#000000" stroke="#000000" points="237.9143,-130.7322 230.3945,-123.2687 231.6187,-133.7926 237.9143,-130.7322"/>
</g>
<!-- p0x7fdc0de00240 -->
<g id="node7" class="node">
<title>p0x7fdc0de00240</title>
<ellipse fill="none" stroke="#000000" cx="185" cy="-178" rx="27" ry="18"/>
<text text-anchor="middle" x="185" y="-173.8" font-family="Times,serif" font-size="14.00" fill="#000000">B2</text>
</g>
<!-- p0x7fdc0de00240&#45;&gt;p0x7fdc0de00360 -->
<g id="edge6" class="edge">
<title>p0x7fdc0de00240-&gt;p0x7fdc0de00360</title>
<path fill="none" stroke="#000000" d="M193.7685,-160.937C198.1279,-152.4537 203.4953,-142.0092 208.3753,-132.513"/>
<polygon fill="#000000" stroke="#000000" points="211.5797,-133.9348 213.0374,-123.4407 205.3537,-130.7352 211.5797,-133.9348"/>
</g>
</g>
</svg>