<?xml version="1.0" encoding="UTF-8" standalone="no"?><!DOCTYPE svg PUBLIC "-//W3C//DTD SVG 1.1//EN" "http://www.w3.org/Graphics/SVG/1.1/DTD/svg11.dtd"><!-- Generated by graphviz version 2.40.1 (20161225.0304)
 --><!-- Title: Taskflow Pages: 1 --><svg xmlns="http://www.w3.org/2000/svg" xmlns:xlink="http://www.w3.org/1999/xlink" width="1565pt" height="188pt" viewBox="0.00 0.00 1565.00 188.00">
<g id="graph0" class="graph" transform="scale(1 1) rotate(0) translate(4 184)">
<title>Taskflow</title>
<polygon fill="#ffffff" stroke="transparent" points="-4,4 -4,-184 1561,-184 1561,4 -4,4"/>
<!-- p0x7fbcfc80de30 -->
<g id="node1" class="node">
<title>p0x7fbcfc80de30</title>
<ellipse fill="none" stroke="#000000" cx="63" cy="-162" rx="27" ry="18"/>
<text text-anchor="middle" x="63" y="-157.8" font-family="Times,serif" font-size="14.00" fill="#000000">A</text>
</g>
<!-- p0x7fbcfc80df50 -->
<g id="node2" class="node">
<title>p0x7fbcfc80df50</title>
<ellipse fill="none" stroke="#000000" cx="27" cy="-90" rx="27" ry="18"/>
<text text-anchor="middle" x="27" y="-85.8" font-family="Times,serif" font-size="14.00" fill="#000000">B</text>
</g>
<!-- p0x7fbcfc80de30&#45;&gt;p0x7fbcfc80df50 -->
<g id="edge1" class="edge">
<title>p0x7fbcfc80de30-&gt;p0x7fbcfc80df50</title>
<path fill="none" stroke="#000000" d="M54.2854,-144.5708C50.0403,-136.0807 44.8464,-125.6929 40.1337,-116.2674"/>
<polygon fill="#000000" stroke="#000000" points="43.237,-114.6477 35.6343,-107.2687 36.976,-117.7782 43.237,-114.6477"/>
</g>
<!-- p0x7fbcfc80e070 -->
<g id="node3" class="node">
<title>p0x7fbcfc80e070</title>
<ellipse fill="none" stroke="#000000" cx="99" cy="-90" rx="27" ry="18"/>
<text text-anchor="middle" x="99" y="-85.8" font-family="Times,serif" font-size="14.00" fill="#000000">C</text>
</g>
<!-- p0x7fbcfc80de30&#45;&gt;p0x7fbcfc80e070 -->
<g id="edge2" class="edge">
<title>p0x7fbcfc80de30-&gt;p0x7fbcfc80e070</title>
<path fill="none" stroke="#000000" d="M71.7146,-144.5708C75.9597,-136.0807 81.1536,-125.6929 85.8663,-116.2674"/>
<polygon fill="#000000" stroke="#000000" points="89.024,-117.7782 90.3657,-107.2687 82.763,-114.6477 89.024,-117.7782"/>
</g>
<!-- p0x7fbcfc80e190 -->
<g id="node4" class="node">
<title>p0x7fbcfc80e190</title>
<ellipse fill="none" stroke="#000000" cx="63" cy="-18" rx="27" ry="18"/>
<text text-anchor="middle" x="63" y="-13.8" font-family="Times,serif" font-size="14.00" fill="#000000">D</text>
</g>
<!-- p0x7fbcfc80df50&#45;&gt;p0x7fbcfc80e190 -->
<g id="edge3" class="edge">
<title>p0x7fbcfc80df50-&gt;p0x7fbcfc80e190</title>
<path fill="none" stroke="#000000" d="M35.7146,-72.5708C39.9597,-64.0807 45.1536,-53.6929 49.8663,-44.2674"/>
<polygon fill="#000000" stroke="#000000" points="53.024,-45.7782 54.3657,-35.2687 46.763,-42.6477 53.024,-45.7782"/>
</g>
<!-- p0x7fbcfc80e070&#45;&gt;p0x7fbcfc80e190 -->
<g id="edge4" class="edge">
<title>p0x7fbcfc80e070-&gt;p0x7fbcfc80e190</title>
<path fill="none" stroke="#000000" d="M90.2854,-72.5708C86.0403,-64.0807 80.8464,-53.6929 76.1337,-44.2674"/>
<polygon fill="#000000" stroke="#000000" points="79.237,-42.6477 71.6343,-35.2687 72.976,-45.7782 79.237,-42.6477"/>
</g>
<!-- p0x7fbcfd001a30 -->
<g id="node5" class="node">
<title>p0x7fbcfd001a30</title>
<ellipse fill="none" stroke="#000000" cx="153" cy="-162" rx="27" ry="18"/>
<text text-anchor="middle" x="153" y="-157.8" font-family="Times,serif" font-size="14.00" fill="#000000">B1</text>
</g>
<!-- p0x7fbcfd001c70 -->
<g id="node6" class="node">
<title>p0x7fbcfd001c70</title>
<ellipse fill="none" stroke="#000000" cx="207" cy="-90" rx="27" ry="18"/>
<text text-anchor="middle" x="207" y="-85.8" font-family="Times,serif" font-size="14.00" fill="#000000">B3</text>
</g>
<!-- p0x7fbcfd001a30&#45;&gt;p0x7fbcfd001c70 -->
<g id="edge5" class="edge">
<title>p0x7fbcfd001a30-&gt;p0x7fbcfd001c70</title>
<path fill="none" stroke="#000000" d="M165.2534,-145.6621C172.1577,-136.4564 180.9177,-124.7764 188.6285,-114.4953"/>
<polygon fill="#000000" stroke="#000000" points="191.595,-116.3733 194.7951,-106.2733 185.995,-112.1733 191.595,-116.3733"/>
</g>
<!-- p0x7fbcfd001b50 -->
<g id="node7" class="node">
<title>p0x7fbcfd001b50</title>
<ellipse fill="none" stroke="#000000" cx="225" cy="-162" rx="27" ry="18"/>
<text text-anchor="middle" x="225" y="-157.8" font-family="Times,serif" font-size="14.00" fill="#000000">B2</text>
</g>
<!-- p0x7fbcfd001b50&#45;&gt;p0x7fbcfd001c70 -->
<g id="edge6" class="edge">
<title>p0x7fbcfd001b50-&gt;p0x7fbcfd001c70</title>
<path fill="none" stroke="#000000" d="M220.5506,-144.2022C218.5602,-136.2406 216.1668,-126.6671 213.9489,-117.7957"/>
<polygon fill="#000000" stroke="#000000" points="217.2816,-116.6951 211.4606,-107.8425 210.4906,-118.3929 217.2816,-116.6951"/>
</g>
<!-- p0x7fbcfd001d90 -->
<g id="node8" class="node">
<title>p0x7fbcfd001d90</title>
<ellipse fill="none" stroke="#000000" cx="306" cy="-162" rx="27" ry="18"/>
<text text-anchor="middle" x="306" y="-157.8" font-family="Times,serif" font-size="14.00" fill="#000000">B1</text>
</g>
<!-- p0x7fbcfd001fd0 -->
<g id="node9" class="node">
<title>p0x7fbcfd001fd0</title>
<ellipse fill="none" stroke="#000000" cx="315" cy="-90" rx="27" ry="18"/>
<text text-anchor="middle" x="315" y="-85.8" font-family="Times,serif" font-size="14.00" fill="#000000">B3</text>
</g>
<!-- p0x7fbcfd001d90&#45;&gt;p0x7fbcfd001fd0 -->
<g id="edge7" class="edge">
<title>p0x7fbcfd001d90-&gt;p0x7fbcfd001fd0</title>
<path fill="none" stroke="#000000" d="M308.2711,-143.8314C309.2336,-136.131 310.3782,-126.9743 311.4479,-118.4166"/>
<polygon fill="#000000" stroke="#000000" points="314.9309,-118.7702 312.6983,-108.4133 307.9849,-117.9019 314.9309,-118.7702"/>
</g>
<!-- p0x7fbcfd001eb0 -->
<g id="node10" class="node">
<title>p0x7fbcfd001eb0</title>
<ellipse fill="none" stroke="#000000" cx="378" cy="-162" rx="27" ry="18"/>
<text text-anchor="middle" x="378" y="-157.8" font-family="Times,serif" font-size="14.00" fill="#000000">B2</text>
</g>
<!-- p0x7fbcfd001eb0&#45;&gt;p0x7fbcfd001fd0 -->
<g id="edge8" class="edge">
<title>p0x7fbcfd001eb0-&gt;p0x7fbcfd001fd0</title>
<path fill="none" stroke="#000000" d="M364.3299,-146.3771C355.8266,-136.659 344.7387,-123.987 335.2292,-113.1191"/>
<polygon fill="#000000" stroke="#000000" points="337.8625,-110.8135 328.6434,-105.5924 332.5944,-115.423 337.8625,-110.8135"/>
</g>
<!-- p0x7fbcfd0020f0 -->
<g id="node11" class="node">
<title>p0x7fbcfd0020f0</title>
<ellipse fill="none" stroke="#000000" cx="450" cy="-162" rx="27" ry="18"/>
<text text-anchor="middle" x="450" y="-157.8" font-family="Times,serif" font-size="14.00" fill="#000000">B1</text>
</g>
<!-- p0x7fbcfd002330 -->
<g id="node12" class="node">
<title>p0x7fbcfd002330</title>
<ellipse fill="none" stroke="#000000" cx="486" cy="-90" rx="27" ry="18"/>
<text text-anchor="middle" x="486" y="-85.8" font-family="Times,serif" font-size="14.00" fill="#000000">B3</text>
</g>
<!-- p0x7fbcfd0020f0&#45;&gt;p0x7fbcfd002330 -->
<g id="edge9" class="edge">
<title>p0x7fbcfd0020f0-&gt;p0x7fbcfd002330</title>
<path fill="none" stroke="#000000" d="M458.7146,-144.5708C462.9597,-136.0807 468.1536,-125.6929 472.8663,-116.2674"/>
<polygon fill="#000000" stroke="#000000" points="476.024,-117.7782 477.3657,-107.2687 469.763,-114.6477 476.024,-117.7782"/>
</g>
<!-- p0x7fbcfd002210 -->
<g id="node13" class="node">
<title>p0x7fbcfd002210</title>
<ellipse fill="none" stroke="#000000" cx="522" cy="-162" rx="27" ry="18"/>
<text text-anchor="middle" x="522" y="-157.8" font-family="Times,serif" font-size="14.00" fill="#000000">B2</text>
</g>
<!-- p0x7fbcfd002210&#45;&gt;p0x7fbcfd002330 -->
<g id="edge10" class="edge">
<title>p0x7fbcfd002210-&gt;p0x7fbcfd002330</title>
<path fill="none" stroke="#000000" d="M513.2854,-144.5708C509.0403,-136.0807 503.8464,-125.6929 499.1337,-116.2674"/>
<polygon fill="#000000" stroke="#000000" points="502.237,-114.6477 494.6343,-107.2687 495.976,-117.7782 502.237,-114.6477"/>
</g>
<!-- p0x7fbcfd002450 -->
<g id="node14" class="node">
<title>p0x7fbcfd002450</title>
<ellipse fill="none" stroke="#000000" cx="594" cy="-162" rx="27" ry="18"/>
<text text-anchor="middle" x="594" y="-157.8" font-family="Times,serif" font-size="14.00" fill="#000000">B1</text>
</g>
<!-- p0x7fbcfd002690 -->
<g id="node15" class="node">
<title>p0x7fbcfd002690</title>
<ellipse fill="none" stroke="#000000" cx="630" cy="-90" rx="27" ry="18"/>
<text text-anchor="middle" x="630" y="-85.8" font-family="Times,serif" font-size="14.00" fill="#000000">B3</text>
</g>
<!-- p0x7fbcfd002450&#45;&gt;p0x7fbcfd002690 -->
<g id="edge11" class="edge">
<title>p0x7fbcfd002450-&gt;p0x7fbcfd002690</title>
<path fill="none" stroke="#000000" d="M602.7146,-144.5708C606.9597,-136.0807 612.1536,-125.6929 616.8663,-116.2674"/>
<polygon fill="#000000" stroke="#000000" points="620.024,-117.7782 621.3657,-107.2687 613.763,-114.6477 620.024,-117.7782"/>
</g>
<!-- p0x7fbcfd002570 -->
<g id="node16" class="node">
<title>p0x7fbcfd002570</title>
<ellipse fill="none" stroke="#000000" cx="666" cy="-162" rx="27" ry="18"/>
<text text-anchor="middle" x="666" y="-157.8" font-family="Times,serif" font-size="14.00" fill="#000000">B2</text>
</g>
<!-- p0x7fbcfd002570&#45;&gt;p0x7fbcfd002690 -->
<g id="edge12" class="edge">
<title>p0x7fbcfd002570-&gt;p0x7fbcfd002690</title>
<path fill="none" stroke="#000000" d="M657.2854,-144.5708C653.0403,-136.0807 647.8464,-125.6929 643.1337,-116.2674"/>
<polygon fill="#000000" stroke="#000000" points="646.237,-114.6477 638.6343,-107.2687 639.976,-117.7782 646.237,-114.6477"/>
</g>
<!-- p0x7fbcfd0027b0 -->
<g id="node17" class="node">
<title>p0x7fbcfd0027b0</title>
<ellipse fill="none" stroke="#000000" cx="738" cy="-162" rx="27" ry="18"/>
<text text-anchor="middle" x="738" y="-157.8" font-family="Times,serif" font-size="14.00" fill="#000000">B1</text>
</g>
<!-- p0x7fbcfd0029f0 -->
<g id="node18" class="node">
<title>p0x7fbcfd0029f0</title>
<ellipse fill="none" stroke="#000000" cx="774" cy="-90" rx="27" ry="18"/>
<text text-anchor="middle" x="774" y="-85.8" font-family="Times,serif" font-size="14.00" fill="#000000">B3</text>
</g>
<!-- p0x7fbcfd0027b0&#45;&gt;p0x7fbcfd0029f0 -->
<g id="edge13" class="edge">
<title>p0x7fbcfd0027b0-&gt;p0x7fbcfd0029f0</title>
<path fill="none" stroke="#000000" d="M746.7146,-144.5708C750.9597,-136.0807 756.1536,-125.6929 760.8663,-116.2674"/>
<polygon fill="#000000" stroke="#000000" points="764.024,-117.7782 765.3657,-107.2687 757.763,-114.6477 764.024,-117.7782"/>
</g>
<!-- p0x7fbcfd0028d0 -->
<g id="node19" class="node">
<title>p0x7fbcfd0028d0</title>
<ellipse fill="none" stroke="#000000" cx="810" cy="-162" rx="27" ry="18"/>
<text text-anchor="middle" x="810" y="-157.8" font-family="Times,serif" font-size="14.00" fill="#000000">B2</text>
</g>
<!-- p0x7fbcfd0028d0&#45;&gt;p0x7fbcfd0029f0 -->
<g id="edge14" class="edge">
<title>p0x7fbcfd0028d0-&gt;p0x7fbcfd0029f0</title>
<path fill="none" stroke="#000000" d="M801.2854,-144.5708C797.0403,-136.0807 791.8464,-125.6929 787.1337,-116.2674"/>
<polygon fill="#000000" stroke="#000000" points="790.237,-114.6477 782.6343,-107.2687 783.976,-117.7782 790.237,-114.6477"/>
</g>
<!-- p0x7fbcfd002b10 -->
<g id="node20" class="node">
<title>p0x7fbcfd002b10</title>
<ellipse fill="none" stroke="#000000" cx="882" cy="-162" rx="27" ry="18"/>
<text text-anchor="middle" x="882" y="-157.8" font-family="Times,serif" font-size="14.00" fill="#000000">B1</text>
</g>
<!-- p0x7fbcfd002d50 -->
<g id="node21" class="node">
<title>p0x7fbcfd002d50</title>
<ellipse fill="none" stroke="#000000" cx="918" cy="-90" rx="27" ry="18"/>
<text text-anchor="middle" x="918" y="-85.8" font-family="Times,serif" font-size="14.00" fill="#000000">B3</text>
</g>
<!-- p0x7fbcfd002b10&#45;&gt;p0x7fbcfd002d50 -->
<g id="edge15" class="edge">
<title>p0x7fbcfd002b10-&gt;p0x7fbcfd002d50</title>
<path fill="none" stroke="#000000" d="M890.7146,-144.5708C894.9597,-136.0807 900.1536,-125.6929 904.8663,-116.2674"/>
<polygon fill="#000000" stroke="#000000" points="908.024,-117.7782 909.3657,-107.2687 901.763,-114.6477 908.024,-117.7782"/>
</g>
<!-- p0x7fbcfd002c30 -->
<g id="node22" class="node">
<title>p0x7fbcfd002c30</title>
<ellipse fill="none" stroke="#000000" cx="954" cy="-162" rx="27" ry="18"/>
<text text-anchor="middle" x="954" y="-157.8" font-family="Times,serif" font-size="14.00" fill="#000000">B2</text>
</g>
<!-- p0x7fbcfd002c30&#45;&gt;p0x7fbcfd002d50 -->
<g id="edge16" class="edge">
<title>p0x7fbcfd002c30-&gt;p0x7fbcfd002d50</title>
<path fill="none" stroke="#000000" d="M945.2854,-144.5708C941.0403,-136.0807 935.8464,-125.6929 931.1337,-116.2674"/>
<polygon fill="#000000" stroke="#000000" points="934.237,-114.6477 926.6343,-107.2687 927.976,-117.7782 934.237,-114.6477"/>
</g>
<!-- p0x7fbcfd002e70 -->
<g id="node23" class="node">
<title>p0x7fbcfd002e70</title>
<ellipse fill="none" stroke="#000000" cx="1026" cy="-162" rx="27" ry="18"/>
<text text-anchor="middle" x="1026" y="-157.8" font-family="Times,serif" font-size="14.00" fill="#000000">B1</text>
</g>
<!-- p0x7fbcfd0030b0 -->
<g id="node24" class="node">
<title>p0x7fbcfd0030b0</title>
<ellipse fill="none" stroke="#000000" cx="1062" cy="-90" rx="27" ry="18"/>
<text text-anchor="middle" x="1062" y="-85.8" font-family="Times,serif" font-size="14.00" fill="#000000">B3</text>
</g>
<!-- p0x7fbcfd002e70&#45;&gt;p0x7fbcfd0030b0 -->
<g id="edge17" class="edge">
<title>p0x7fbcfd002e70-&gt;p0x7fbcfd0030b0</title>
<path fill="none" stroke="#000000" d="M1034.7146,-144.5708C1038.9597,-136.0807 1044.1536,-125.6929 1048.8663,-116.2674"/>
<polygon fill="#000000" stroke="#000000" points="1052.024,-117.7782 1053.3657,-107.2687 1045.763,-114.6477 1052.024,-117.7782"/>
</g>
<!-- p0x7fbcfd002f90 -->
<g id="node25" class="node">
<title>p0x7fbcfd002f90</title>
<ellipse fill="none" stroke="#000000" cx="1098" cy="-162" rx="27" ry="18"/>
<text text-anchor="middle" x="1098" y="-157.8" font-family="Times,serif" font-size="14.00" fill="#000000">B2</text>
</g>
<!-- p0x7fbcfd002f90&#45;&gt;p0x7fbcfd0030b0 -->
<g id="edge18" class="edge">
<title>p0x7fbcfd002f90-&gt;p0x7fbcfd0030b0</title>
<path fill="none" stroke="#000000" d="M1089.2854,-144.5708C1085.0403,-136.0807 1079.8464,-125.6929 1075.1337,-116.2674"/>
<polygon fill="#000000" stroke="#000000" points="1078.237,-114.6477 1070.6343,-107.2687 1071.976,-117.7782 1078.237,-114.6477"/>
</g>
<!-- p0x7fbcfd0031d0 -->
<g id="node26" class="node">
<title>p0x7fbcfd0031d0</title>
<ellipse fill="none" stroke="#000000" cx="1170" cy="-162" rx="27" ry="18"/>
<text text-anchor="middle" x="1170" y="-157.8" font-family="Times,serif" font-size="14.00" fill="#000000">B1</text>
</g>
<!-- p0x7fbcfd003410 -->
<g id="node27" class="node">
<title>p0x7fbcfd003410</title>
<ellipse fill="none" stroke="#000000" cx="1206" cy="-90" rx="27" ry="18"/>
<text text-anchor="middle" x="1206" y="-85.8" font-family="Times,serif" font-size="14.00" fill="#000000">B3</text>
</g>
<!-- p0x7fbcfd0031d0&#45;&gt;p0x7fbcfd003410 -->
<g id="edge19" class="edge">
<title>p0x7fbcfd0031d0-&gt;p0x7fbcfd003410</title>
<path fill="none" stroke="#000000" d="M1178.7146,-144.5708C1182.9597,-136.0807 1188.1536,-125.6929 1192.8663,-116.2674"/>
<polygon fill="#000000" stroke="#000000" points="1196.024,-117.7782 1197.3657,-107.2687 1189.763,-114.6477 1196.024,-117.7782"/>
</g>
<!-- p0x7fbcfd0032f0 -->
<g id="node28" class="node">
<title>p0x7fbcfd0032f0</title>
<ellipse fill="none" stroke="#000000" cx="1242" cy="-162" rx="27" ry="18"/>
<text text-anchor="middle" x="1242" y="-157.8" font-family="Times,serif" font-size="14.00" fill="#000000">B2</text>
</g>
<!-- p0x7fbcfd0032f0&#45;&gt;p0x7fbcfd003410 -->
<g id="edge20" class="edge">
<title>p0x7fbcfd0032f0-&gt;p0x7fbcfd003410</title>
<path fill="none" stroke="#000000" d="M1233.2854,-144.5708C1229.0403,-136.0807 1223.8464,-125.6929 1219.1337,-116.2674"/>
<polygon fill="#000000" stroke="#000000" points="1222.237,-114.6477 1214.6343,-107.2687 1215.976,-117.7782 1222.237,-114.6477"/>
</g>
<!-- p0x7fbcfd003530 -->
<g id="node29" class="node">
<title>p0x7fbcfd003530</title>
<ellipse fill="none" stroke="#000000" cx="1314" cy="-162" rx="27" ry="18"/>
<text text-anchor="middle" x="1314" y="-157.8" font-family="Times,serif" font-size="14.00" fill="#000000">B1</text>
</g>
<!-- p0x7fbcfd003770 -->
<g id="node30" class="node">
<title>p0x7fbcfd003770</title>
<ellipse fill="none" stroke="#000000" cx="1350" cy="-90" rx="27" ry="18"/>
<text text-anchor="middle" x="1350" y="-85.8" font-family="Times,serif" font-size="14.00" fill="#000000">B3</text>
</g>
<!-- p0x7fbcfd003530&#45;&gt;p0x7fbcfd003770 -->
<g id="edge21" class="edge">
<title>p0x7fbcfd003530-&gt;p0x7fbcfd003770</title>
<path fill="none" stroke="#000000" d="M1322.7146,-144.5708C1326.9597,-136.0807 1332.1536,-125.6929 1336.8663,-116.2674"/>
<polygon fill="#000000" stroke="#000000" points="1340.024,-117.7782 1341.3657,-107.2687 1333.763,-114.6477 1340.024,-117.7782"/>
</g>
<!-- p0x7fbcfd003650 -->
<g id="node31" class="node">
<title>p0x7fbcfd003650</title>
<ellipse fill="none" stroke="#000000" cx="1386" cy="-162" rx="27" ry="18"/>
<text text-anchor="middle" x="1386" y="-157.8" font-family="Times,serif" font-size="14.00" fill="#000000">B2</text>
</g>
<!-- p0x7fbcfd003650&#45;&gt;p0x7fbcfd003770 -->
<g id="edge22" class="edge">
<title>p0x7fbcfd003650-&gt;p0x7fbcfd003770</title>
<path fill="none" stroke="#000000" d="M1377.2854,-144.5708C1373.0403,-136.0807 1367.8464,-125.6929 1363.1337,-116.2674"/>
<polygon fill="#000000" stroke="#000000" points="1366.237,-114.6477 1358.6343,-107.2687 1359.976,-117.7782 1366.237,-114.6477"/>
</g>
<!-- p0x7fbcfd003890 -->
<g id="node32" class="node">
<title>p0x7fbcfd003890</title>
<ellipse fill="none" stroke="#000000" cx="1458" cy="-162" rx="27" ry="18"/>
<text text-anchor="middle" x="1458" y="-157.8" font-family="Times,serif" font-size="14.00" fill="#000000">B1</text>
</g>
<!-- p0x7fbcfd003ad0 -->
<g id="node33" class="node">
<title>p0x7fbcfd003ad0</title>
<ellipse fill="none" stroke="#000000" cx="1494" cy="-90" rx="27" ry="18"/>
<text text-anchor="middle" x="1494" y="-85.8" font-family="Times,serif" font-size="14.00" fill="#000000">B3</text>
</g>
<!-- p0x7fbcfd003890&#45;&gt;p0x7fbcfd003ad0 -->
<g id="edge23" class="edge">
<title>p0x7fbcfd003890-&gt;p0x7fbcfd003ad0</title>
<path fill="none" stroke="#000000" d="M1466.7146,-144.5708C1470.9597,-136.0807 1476.1536,-125.6929 1480.8663,-116.2674"/>
<polygon fill="#000000" stroke="#000000" points="1484.024,-117.7782 1485.3657,-107.2687 1477.763,-114.6477 1484.024,-117.7782"/>
</g>
<!-- p0x7fbcfd0039b0 -->
<g id="node34" class="node">
<title>p0x7fbcfd0039b0</title>
<ellipse fill="none" stroke="#000000" cx="1530" cy="-162" rx="27" ry="18"/>
<text text-anchor="middle" x="1530" y="-157.8" font-family="Times,serif" font-size="14.00" fill="#000000">B2</text>
</g>
<!-- p0x7fbcfd0039b0&#45;&gt;p0x7fbcfd003ad0 -->
<g id="edge24" class="edge">
<title>p0x7fbcfd0039b0-&gt;p0x7fbcfd003ad0</title>
<path fill="none" stroke="#000000" d="M1521.2854,-144.5708C1517.0403,-136.0807 1511.8464,-125.6929 1507.1337,-116.2674"/>
<polygon fill="#000000" stroke="#000000" points="1510.237,-114.6477 1502.6343,-107.2687 1503.976,-117.7782 1510.237,-114.6477"/>
</g>
</g>
</svg>