<?xml version="1.0" encoding="UTF-8" standalone="no"?><!DOCTYPE svg PUBLIC "-//W3C//DTD SVG 1.1//EN" "http://www.w3.org/Graphics/SVG/1.1/DTD/svg11.dtd"><!-- Generated by graphviz version 2.40.1 (20161225.0304)
 --><!-- Title: Taskflow Pages: 1 --><svg xmlns="http://www.w3.org/2000/svg" xmlns:xlink="http://www.w3.org/1999/xlink" width="739pt" height="206pt" viewBox="0.00 0.00 739.07 206.00">
<g id="graph0" class="graph" transform="scale(1 1) rotate(0) translate(4 202)">
<title>Taskflow</title>
<polygon fill="#ffffff" stroke="transparent" points="-4,4 -4,-202 735.0686,-202 735.0686,4 -4,4"/>
<!-- p0x563eef67dc70 -->
<g id="node1" class="node">
<title>p0x563eef67dc70</title>
<ellipse fill="none" stroke="#000000" cx="36.7906" cy="-99" rx="36.5824" ry="18"/>
<text text-anchor="middle" x="36.7906" y="-94.8" font-family="Times,serif" font-size="14.00" fill="#000000">B_0_0</text>
</g>
<!-- p0x563eef67dd78 -->
<g id="node2" class="node">
<title>p0x563eef67dd78</title>
<ellipse fill="none" stroke="#000000" cx="146.3718" cy="-126" rx="36.5824" ry="18"/>
<text text-anchor="middle" x="146.3718" y="-121.8" font-family="Times,serif" font-size="14.00" fill="#000000">B_0_1</text>
</g>
<!-- p0x563eef67dc70&#45;&gt;p0x563eef67dd78 -->
<g id="edge1" class="edge">
<title>p0x563eef67dc70-&gt;p0x563eef67dd78</title>
<path fill="none" stroke="#000000" d="M69.6686,-107.1009C80.1908,-109.6935 92.0039,-112.6041 103.1481,-115.35"/>
<polygon fill="#000000" stroke="#000000" points="102.5914,-118.8174 113.1383,-117.8115 104.2661,-112.0207 102.5914,-118.8174"/>
</g>
<!-- p0x563eef67e090 -->
<g id="node3" class="node">
<title>p0x563eef67e090</title>
<ellipse fill="none" stroke="#000000" cx="146.3718" cy="-72" rx="36.5824" ry="18"/>
<text text-anchor="middle" x="146.3718" y="-67.8" font-family="Times,serif" font-size="14.00" fill="#000000">B_1_0</text>
</g>
<!-- p0x563eef67dc70&#45;&gt;p0x563eef67e090 -->
<g id="edge2" class="edge">
<title>p0x563eef67dc70-&gt;p0x563eef67e090</title>
<path fill="none" stroke="#000000" d="M69.6686,-90.8991C80.1908,-88.3065 92.0039,-85.3959 103.1481,-82.65"/>
<polygon fill="#000000" stroke="#000000" points="104.2661,-85.9793 113.1383,-80.1885 102.5914,-79.1826 104.2661,-85.9793"/>
</g>
<!-- p0x563eef67de80 -->
<g id="node4" class="node">
<title>p0x563eef67de80</title>
<ellipse fill="none" stroke="#000000" cx="255.9531" cy="-153" rx="36.5824" ry="18"/>
<text text-anchor="middle" x="255.9531" y="-148.8" font-family="Times,serif" font-size="14.00" fill="#000000">B_0_2</text>
</g>
<!-- p0x563eef67dd78&#45;&gt;p0x563eef67de80 -->
<g id="edge3" class="edge">
<title>p0x563eef67dd78-&gt;p0x563eef67de80</title>
<path fill="none" stroke="#000000" d="M179.2498,-134.1009C189.772,-136.6935 201.5852,-139.6041 212.7294,-142.35"/>
<polygon fill="#000000" stroke="#000000" points="212.1726,-145.8174 222.7195,-144.8115 213.8473,-139.0207 212.1726,-145.8174"/>
</g>
<!-- p0x563eef67e198 -->
<g id="node5" class="node">
<title>p0x563eef67e198</title>
<ellipse fill="none" stroke="#000000" cx="255.9531" cy="-99" rx="36.5824" ry="18"/>
<text text-anchor="middle" x="255.9531" y="-94.8" font-family="Times,serif" font-size="14.00" fill="#000000">B_1_1</text>
</g>
<!-- p0x563eef67dd78&#45;&gt;p0x563eef67e198 -->
<g id="edge4" class="edge">
<title>p0x563eef67dd78-&gt;p0x563eef67e198</title>
<path fill="none" stroke="#000000" d="M179.2498,-117.8991C189.772,-115.3065 201.5852,-112.3959 212.7294,-109.65"/>
<polygon fill="#000000" stroke="#000000" points="213.8473,-112.9793 222.7195,-107.1885 212.1726,-106.1826 213.8473,-112.9793"/>
</g>
<!-- p0x563eef67e090&#45;&gt;p0x563eef67e198 -->
<g id="edge8" class="edge">
<title>p0x563eef67e090-&gt;p0x563eef67e198</title>
<path fill="none" stroke="#000000" d="M179.2498,-80.1009C189.772,-82.6935 201.5852,-85.6041 212.7294,-88.35"/>
<polygon fill="#000000" stroke="#000000" points="212.1726,-91.8174 222.7195,-90.8115 213.8473,-85.0207 212.1726,-91.8174"/>
</g>
<!-- p0x563eef67e4b0 -->
<g id="node9" class="node">
<title>p0x563eef67e4b0</title>
<ellipse fill="none" stroke="#000000" cx="255.9531" cy="-45" rx="36.5824" ry="18"/>
<text text-anchor="middle" x="255.9531" y="-40.8" font-family="Times,serif" font-size="14.00" fill="#000000">B_2_0</text>
</g>
<!-- p0x563eef67e090&#45;&gt;p0x563eef67e4b0 -->
<g id="edge9" class="edge">
<title>p0x563eef67e090-&gt;p0x563eef67e4b0</title>
<path fill="none" stroke="#000000" d="M179.2498,-63.8991C189.772,-61.3065 201.5852,-58.3959 212.7294,-55.65"/>
<polygon fill="#000000" stroke="#000000" points="213.8473,-58.9793 222.7195,-53.1885 212.1726,-52.1826 213.8473,-58.9793"/>
</g>
<!-- p0x563eef67df88 -->
<g id="node6" class="node">
<title>p0x563eef67df88</title>
<ellipse fill="none" stroke="#000000" cx="365.5343" cy="-180" rx="36.5824" ry="18"/>
<text text-anchor="middle" x="365.5343" y="-175.8" font-family="Times,serif" font-size="14.00" fill="#000000">B_0_3</text>
</g>
<!-- p0x563eef67de80&#45;&gt;p0x563eef67df88 -->
<g id="edge5" class="edge">
<title>p0x563eef67de80-&gt;p0x563eef67df88</title>
<path fill="none" stroke="#000000" d="M288.831,-161.1009C299.3533,-163.6935 311.1664,-166.6041 322.3106,-169.35"/>
<polygon fill="#000000" stroke="#000000" points="321.7538,-172.8174 332.3008,-171.8115 323.4285,-166.0207 321.7538,-172.8174"/>
</g>
<!-- p0x563eef67e2a0 -->
<g id="node7" class="node">
<title>p0x563eef67e2a0</title>
<ellipse fill="none" stroke="#000000" cx="365.5343" cy="-126" rx="36.5824" ry="18"/>
<text text-anchor="middle" x="365.5343" y="-121.8" font-family="Times,serif" font-size="14.00" fill="#000000">B_1_2</text>
</g>
<!-- p0x563eef67de80&#45;&gt;p0x563eef67e2a0 -->
<g id="edge6" class="edge">
<title>p0x563eef67de80-&gt;p0x563eef67e2a0</title>
<path fill="none" stroke="#000000" d="M288.831,-144.8991C299.3533,-142.3065 311.1664,-139.3959 322.3106,-136.65"/>
<polygon fill="#000000" stroke="#000000" points="323.4285,-139.9793 332.3008,-134.1885 321.7538,-133.1826 323.4285,-139.9793"/>
</g>
<!-- p0x563eef67e198&#45;&gt;p0x563eef67e2a0 -->
<g id="edge10" class="edge">
<title>p0x563eef67e198-&gt;p0x563eef67e2a0</title>
<path fill="none" stroke="#000000" d="M288.831,-107.1009C299.3533,-109.6935 311.1664,-112.6041 322.3106,-115.35"/>
<polygon fill="#000000" stroke="#000000" points="321.7538,-118.8174 332.3008,-117.8115 323.4285,-112.0207 321.7538,-118.8174"/>
</g>
<!-- p0x563eef67e5b8 -->
<g id="node10" class="node">
<title>p0x563eef67e5b8</title>
<ellipse fill="none" stroke="#000000" cx="365.5343" cy="-72" rx="36.5824" ry="18"/>
<text text-anchor="middle" x="365.5343" y="-67.8" font-family="Times,serif" font-size="14.00" fill="#000000">B_2_1</text>
</g>
<!-- p0x563eef67e198&#45;&gt;p0x563eef67e5b8 -->
<g id="edge11" class="edge">
<title>p0x563eef67e198-&gt;p0x563eef67e5b8</title>
<path fill="none" stroke="#000000" d="M288.831,-90.8991C299.3533,-88.3065 311.1664,-85.3959 322.3106,-82.65"/>
<polygon fill="#000000" stroke="#000000" points="323.4285,-85.9793 332.3008,-80.1885 321.7538,-79.1826 323.4285,-85.9793"/>
</g>
<!-- p0x563eef67e3a8 -->
<g id="node8" class="node">
<title>p0x563eef67e3a8</title>
<ellipse fill="none" stroke="#000000" cx="475.1155" cy="-153" rx="36.5824" ry="18"/>
<text text-anchor="middle" x="475.1155" y="-148.8" font-family="Times,serif" font-size="14.00" fill="#000000">B_1_3</text>
</g>
<!-- p0x563eef67df88&#45;&gt;p0x563eef67e3a8 -->
<g id="edge7" class="edge">
<title>p0x563eef67df88-&gt;p0x563eef67e3a8</title>
<path fill="none" stroke="#000000" d="M398.4123,-171.8991C408.9345,-169.3065 420.7476,-166.3959 431.8918,-163.65"/>
<polygon fill="#000000" stroke="#000000" points="433.0097,-166.9793 441.882,-161.1885 431.335,-160.1826 433.0097,-166.9793"/>
</g>
<!-- p0x563eef67e2a0&#45;&gt;p0x563eef67e3a8 -->
<g id="edge12" class="edge">
<title>p0x563eef67e2a0-&gt;p0x563eef67e3a8</title>
<path fill="none" stroke="#000000" d="M398.4123,-134.1009C408.9345,-136.6935 420.7476,-139.6041 431.8918,-142.35"/>
<polygon fill="#000000" stroke="#000000" points="431.335,-145.8174 441.882,-144.8115 433.0097,-139.0207 431.335,-145.8174"/>
</g>
<!-- p0x563eef67e6c0 -->
<g id="node11" class="node">
<title>p0x563eef67e6c0</title>
<ellipse fill="none" stroke="#000000" cx="475.1155" cy="-99" rx="36.5824" ry="18"/>
<text text-anchor="middle" x="475.1155" y="-94.8" font-family="Times,serif" font-size="14.00" fill="#000000">B_2_2</text>
</g>
<!-- p0x563eef67e2a0&#45;&gt;p0x563eef67e6c0 -->
<g id="edge13" class="edge">
<title>p0x563eef67e2a0-&gt;p0x563eef67e6c0</title>
<path fill="none" stroke="#000000" d="M398.4123,-117.8991C408.9345,-115.3065 420.7476,-112.3959 431.8918,-109.65"/>
<polygon fill="#000000" stroke="#000000" points="433.0097,-112.9793 441.882,-107.1885 431.335,-106.1826 433.0097,-112.9793"/>
</g>
<!-- p0x563eef67e7c8 -->
<g id="node12" class="node">
<title>p0x563eef67e7c8</title>
<ellipse fill="none" stroke="#000000" cx="584.6968" cy="-126" rx="36.5824" ry="18"/>
<text text-anchor="middle" x="584.6968" y="-121.8" font-family="Times,serif" font-size="14.00" fill="#000000">B_2_3</text>
</g>
<!-- p0x563eef67e3a8&#45;&gt;p0x563eef67e7c8 -->
<g id="edge14" class="edge">
<title>p0x563eef67e3a8-&gt;p0x563eef67e7c8</title>
<path fill="none" stroke="#000000" d="M507.9935,-144.8991C518.5157,-142.3065 530.3288,-139.3959 541.473,-136.65"/>
<polygon fill="#000000" stroke="#000000" points="542.591,-139.9793 551.4632,-134.1885 540.9163,-133.1826 542.591,-139.9793"/>
</g>
<!-- p0x563eef67e4b0&#45;&gt;p0x563eef67e5b8 -->
<g id="edge15" class="edge">
<title>p0x563eef67e4b0-&gt;p0x563eef67e5b8</title>
<path fill="none" stroke="#000000" d="M288.831,-53.1009C299.3533,-55.6935 311.1664,-58.6041 322.3106,-61.35"/>
<polygon fill="#000000" stroke="#000000" points="321.7538,-64.8174 332.3008,-63.8115 323.4285,-58.0207 321.7538,-64.8174"/>
</g>
<!-- p0x563eef67e8d0 -->
<g id="node13" class="node">
<title>p0x563eef67e8d0</title>
<ellipse fill="none" stroke="#000000" cx="365.5343" cy="-18" rx="36.5824" ry="18"/>
<text text-anchor="middle" x="365.5343" y="-13.8" font-family="Times,serif" font-size="14.00" fill="#000000">B_3_0</text>
</g>
<!-- p0x563eef67e4b0&#45;&gt;p0x563eef67e8d0 -->
<g id="edge16" class="edge">
<title>p0x563eef67e4b0-&gt;p0x563eef67e8d0</title>
<path fill="none" stroke="#000000" d="M288.831,-36.8991C299.3533,-34.3065 311.1664,-31.3959 322.3106,-28.65"/>
<polygon fill="#000000" stroke="#000000" points="323.4285,-31.9793 332.3008,-26.1885 321.7538,-25.1826 323.4285,-31.9793"/>
</g>
<!-- p0x563eef67e5b8&#45;&gt;p0x563eef67e6c0 -->
<g id="edge17" class="edge">
<title>p0x563eef67e5b8-&gt;p0x563eef67e6c0</title>
<path fill="none" stroke="#000000" d="M398.4123,-80.1009C408.9345,-82.6935 420.7476,-85.6041 431.8918,-88.35"/>
<polygon fill="#000000" stroke="#000000" points="431.335,-91.8174 441.882,-90.8115 433.0097,-85.0207 431.335,-91.8174"/>
</g>
<!-- p0x563eef67e9d8 -->
<g id="node14" class="node">
<title>p0x563eef67e9d8</title>
<ellipse fill="none" stroke="#000000" cx="475.1155" cy="-45" rx="36.5824" ry="18"/>
<text text-anchor="middle" x="475.1155" y="-40.8" font-family="Times,serif" font-size="14.00" fill="#000000">B_3_1</text>
</g>
<!-- p0x563eef67e5b8&#45;&gt;p0x563eef67e9d8 -->
<g id="edge18" class="edge">
<title>p0x563eef67e5b8-&gt;p0x563eef67e9d8</title>
<path fill="none" stroke="#000000" d="M398.4123,-63.8991C408.9345,-61.3065 420.7476,-58.3959 431.8918,-55.65"/>
<polygon fill="#000000" stroke="#000000" points="433.0097,-58.9793 441.882,-53.1885 431.335,-52.1826 433.0097,-58.9793"/>
</g>
<!-- p0x563eef67e6c0&#45;&gt;p0x563eef67e7c8 -->
<g id="edge19" class="edge">
<title>p0x563eef67e6c0-&gt;p0x563eef67e7c8</title>
<path fill="none" stroke="#000000" d="M507.9935,-107.1009C518.5157,-109.6935 530.3288,-112.6041 541.473,-115.35"/>
<polygon fill="#000000" stroke="#000000" points="540.9163,-118.8174 551.4632,-117.8115 542.591,-112.0207 540.9163,-118.8174"/>
</g>
<!-- p0x563eef67eae0 -->
<g id="node15" class="node">
<title>p0x563eef67eae0</title>
<ellipse fill="none" stroke="#000000" cx="584.6968" cy="-72" rx="36.5824" ry="18"/>
<text text-anchor="middle" x="584.6968" y="-67.8" font-family="Times,serif" font-size="14.00" fill="#000000">B_3_2</text>
</g>
<!-- p0x563eef67e6c0&#45;&gt;p0x563eef67eae0 -->
<g id="edge20" class="edge">
<title>p0x563eef67e6c0-&gt;p0x563eef67eae0</title>
<path fill="none" stroke="#000000" d="M507.9935,-90.8991C518.5157,-88.3065 530.3288,-85.3959 541.473,-82.65"/>
<polygon fill="#000000" stroke="#000000" points="542.591,-85.9793 551.4632,-80.1885 540.9163,-79.1826 542.591,-85.9793"/>
</g>
<!-- p0x563eef67ebe8 -->
<g id="node16" class="node">
<title>p0x563eef67ebe8</title>
<ellipse fill="none" stroke="#000000" cx="694.278" cy="-99" rx="36.5824" ry="18"/>
<text text-anchor="middle" x="694.278" y="-94.8" font-family="Times,serif" font-size="14.00" fill="#000000">B_3_3</text>
</g>
<!-- p0x563eef67e7c8&#45;&gt;p0x563eef67ebe8 -->
<g id="edge21" class="edge">
<title>p0x563eef67e7c8-&gt;p0x563eef67ebe8</title>
<path fill="none" stroke="#000000" d="M617.5747,-117.8991C628.0969,-115.3065 639.9101,-112.3959 651.0543,-109.65"/>
<polygon fill="#000000" stroke="#000000" points="652.1722,-112.9793 661.0445,-107.1885 650.4975,-106.1826 652.1722,-112.9793"/>
</g>
<!-- p0x563eef67e8d0&#45;&gt;p0x563eef67e9d8 -->
<g id="edge22" class="edge">
<title>p0x563eef67e8d0-&gt;p0x563eef67e9d8</title>
<path fill="none" stroke="#000000" d="M398.4123,-26.1009C408.9345,-28.6935 420.7476,-31.6041 431.8918,-34.35"/>
<polygon fill="#000000" stroke="#000000" points="431.335,-37.8174 441.882,-36.8115 433.0097,-31.0207 431.335,-37.8174"/>
</g>
<!-- p0x563eef67e9d8&#45;&gt;p0x563eef67eae0 -->
<g id="edge23" class="edge">
<title>p0x563eef67e9d8-&gt;p0x563eef67eae0</title>
<path fill="none" stroke="#000000" d="M507.9935,-53.1009C518.5157,-55.6935 530.3288,-58.6041 541.473,-61.35"/>
<polygon fill="#000000" stroke="#000000" points="540.9163,-64.8174 551.4632,-63.8115 542.591,-58.0207 540.9163,-64.8174"/>
</g>
<!-- p0x563eef67eae0&#45;&gt;p0x563eef67ebe8 -->
<g id="edge24" class="edge">
<title>p0x563eef67eae0-&gt;p0x563eef67ebe8</title>
<path fill="none" stroke="#000000" d="M617.5747,-80.1009C628.0969,-82.6935 639.9101,-85.6041 651.0543,-88.35"/>
<polygon fill="#000000" stroke="#000000" points="650.4975,-91.8174 661.0445,-90.8115 652.1722,-85.0207 650.4975,-91.8174"/>
</g>
</g>
</svg>