<svg width="970" height="290" xmlns="http://www.w3.org/2000/svg">
<defs>
  <marker id="arr" markerWidth="7" markerHeight="7" refX="6" refY="3.5" orient="auto">
    <path d="M0,0.5 L6,3.5 L0,6.5 Z" fill="#555555"/>
  </marker>
</defs>
  <text x="67" y="51" text-anchor="end" font-family="Helvetica,sans-serif" font-size="13" fill="#222222">Item 0</text>
  <rect x="75" y="28" width="130" height="38" rx="4" fill="#fde8d0" stroke="#999999" stroke-width="1.3"/>
  <text x="140.0" y="51.5" text-anchor="middle" font-family="Helvetica,sans-serif" font-size="13" fill="#222222">Produce</text>
  <rect x="223" y="28" width="115" height="38" rx="4" fill="#fff3cd" stroke="#999999" stroke-width="1.3"/>
  <text x="280.5" y="51.5" text-anchor="middle" font-family="Helvetica,sans-serif" font-size="13" fill="#222222">Validate</text>
  <rect x="356" y="28" width="115" height="38" rx="4" fill="#d4edda" stroke="#999999" stroke-width="1.3"/>
  <text x="413.5" y="51.5" text-anchor="middle" font-family="Helvetica,sans-serif" font-size="13" fill="#222222">Consume</text>
  <line x1="205" y1="47" x2="216" y2="47" stroke="#555555" stroke-width="1.3" marker-end="url(#arr)"/>
  <line x1="338" y1="47" x2="349" y2="47" stroke="#555555" stroke-width="1.3" marker-end="url(#arr)"/>
  <text x="67" y="113" text-anchor="end" font-family="Helvetica,sans-serif" font-size="13" fill="#222222">Item 1</text>
  <rect x="223" y="90" width="130" height="38" rx="4" fill="#fde8d0" stroke="#999999" stroke-width="1.3"/>
  <text x="288.0" y="113.5" text-anchor="middle" font-family="Helvetica,sans-serif" font-size="13" fill="#222222">Produce</text>
  <rect x="371" y="90" width="115" height="38" rx="4" fill="#fff3cd" stroke="#999999" stroke-width="1.3"/>
  <text x="428.5" y="113.5" text-anchor="middle" font-family="Helvetica,sans-serif" font-size="13" fill="#222222">Validate</text>
  <rect x="504" y="90" width="115" height="38" rx="4" fill="#d4edda" stroke="#999999" stroke-width="1.3"/>
  <text x="561.5" y="113.5" text-anchor="middle" font-family="Helvetica,sans-serif" font-size="13" fill="#222222">Consume</text>
  <line x1="353" y1="109" x2="364" y2="109" stroke="#555555" stroke-width="1.3" marker-end="url(#arr)"/>
  <line x1="486" y1="109" x2="497" y2="109" stroke="#555555" stroke-width="1.3" marker-end="url(#arr)"/>
  <text x="67" y="175" text-anchor="end" font-family="Helvetica,sans-serif" font-size="13" fill="#222222">Item 2</text>
  <rect x="371" y="152" width="130" height="38" rx="4" fill="#fde8d0" stroke="#999999" stroke-width="1.3"/>
  <text x="436.0" y="175.5" text-anchor="middle" font-family="Helvetica,sans-serif" font-size="13" fill="#222222">Produce</text>
  <rect x="519" y="152" width="115" height="38" rx="4" fill="#fff3cd" stroke="#999999" stroke-width="1.3"/>
  <text x="576.5" y="175.5" text-anchor="middle" font-family="Helvetica,sans-serif" font-size="13" fill="#222222">Validate</text>
  <rect x="652" y="152" width="115" height="38" rx="4" fill="#d4edda" stroke="#999999" stroke-width="1.3"/>
  <text x="709.5" y="175.5" text-anchor="middle" font-family="Helvetica,sans-serif" font-size="13" fill="#222222">Consume</text>
  <line x1="501" y1="171" x2="512" y2="171" stroke="#555555" stroke-width="1.3" marker-end="url(#arr)"/>
  <line x1="634" y1="171" x2="645" y2="171" stroke="#555555" stroke-width="1.3" marker-end="url(#arr)"/>
  <text x="67" y="237" text-anchor="end" font-family="Helvetica,sans-serif" font-size="13" fill="#222222">Item 3</text>
  <rect x="519" y="214" width="130" height="38" rx="4" fill="#fde8d0" stroke="#999999" stroke-width="1.3"/>
  <text x="584.0" y="237.5" text-anchor="middle" font-family="Helvetica,sans-serif" font-size="13" fill="#222222">Produce</text>
  <rect x="667" y="214" width="115" height="38" rx="4" fill="#fff3cd" stroke="#999999" stroke-width="1.3"/>
  <text x="724.5" y="237.5" text-anchor="middle" font-family="Helvetica,sans-serif" font-size="13" fill="#222222">Validate</text>
  <rect x="800" y="214" width="115" height="38" rx="4" fill="#d4edda" stroke="#999999" stroke-width="1.3"/>
  <text x="857.5" y="237.5" text-anchor="middle" font-family="Helvetica,sans-serif" font-size="13" fill="#222222">Consume</text>
  <line x1="649" y1="233" x2="660" y2="233" stroke="#555555" stroke-width="1.3" marker-end="url(#arr)"/>
  <line x1="782" y1="233" x2="793" y2="233" stroke="#555555" stroke-width="1.3" marker-end="url(#arr)"/>
  <line x1="75" y1="272" x2="945" y2="272" stroke="#aaaaaa" stroke-width="1.3" marker-end="url(#arr)"/>
  <text x="953" y="277" font-family="Helvetica,sans-serif" font-style="italic" font-size="15" fill="#222222">t</text>
</svg>