<?xml version="1.0" encoding="UTF-8" standalone="no"?><!DOCTYPE svg PUBLIC "-//W3C//DTD SVG 1.1//EN" "http://www.w3.org/Graphics/SVG/1.1/DTD/svg11.dtd"><!-- Generated by graphviz version 2.40.1 (20161225.0304)
 --><!-- Title: Taskflow Pages: 1 --><svg xmlns="http://www.w3.org/2000/svg" xmlns:xlink="http://www.w3.org/1999/xlink" width="336pt" height="389pt" viewBox="0.00 0.00 336.00 388.80">
<g id="graph0" class="graph" transform="scale(1 1) rotate(0) translate(4 384.8)">
<title>Taskflow</title>
<polygon fill="#ffffff" stroke="transparent" points="-4,4 -4,-384.8 332,-384.8 332,4 -4,4"/>
<g id="clust1" class="cluster">
<title>cluster_p0x7ffee9223970</title>
<polygon fill="none" stroke="#000000" points="8,-8 8,-372.8 170,-372.8 170,-8 8,-8"/>
<text text-anchor="middle" x="89" y="-356.2" font-family="Times,serif" font-size="14.00" fill="#000000">Taskflow: F2</text>
</g>
<g id="clust2" class="cluster">
<title>cluster_p0x7ffee92238d0</title>
<polygon fill="none" stroke="#000000" points="178,-224 178,-372.8 320,-372.8 320,-224 178,-224"/>
<text text-anchor="middle" x="249" y="-356.2" font-family="Times,serif" font-size="14.00" fill="#000000">Taskflow: F1</text>
</g>
<!-- p0x7f816f402b60 -->
<g id="node1" class="node">
<title>p0x7f816f402b60</title>
<ellipse fill="none" stroke="#000000" cx="125" cy="-322" rx="27" ry="18"/>
<text text-anchor="middle" x="125" y="-317.8" font-family="Times,serif" font-size="14.00" fill="#000000">f2A</text>
</g>
<!-- p0x7f816f402d80 -->
<g id="node2" class="node">
<title>p0x7f816f402d80</title>
<ellipse fill="none" stroke="#000000" cx="89" cy="-250" rx="27" ry="18"/>
<text text-anchor="middle" x="89" y="-245.8" font-family="Times,serif" font-size="14.00" fill="#000000">f2C</text>
</g>
<!-- p0x7f816f402b60&#45;&gt;p0x7f816f402d80 -->
<g id="edge1" class="edge">
<title>p0x7f816f402b60-&gt;p0x7f816f402d80</title>
<path fill="none" stroke="#000000" d="M116.2854,-304.5708C112.0403,-296.0807 106.8464,-285.6929 102.1337,-276.2674"/>
<polygon fill="#000000" stroke="#000000" points="105.237,-274.6477 97.6343,-267.2687 98.976,-277.7782 105.237,-274.6477"/>
</g>
<!-- p0x7f816f402fa0 -->
<g id="node4" class="node">
<title>p0x7f816f402fa0</title>
<polygon fill="none" stroke="#0000ff" points="161.8599,-196 16.1401,-196 16.1401,-160 161.8599,-160 161.8599,-196"/>
<text text-anchor="middle" x="89" y="-173.8" font-family="Times,serif" font-size="14.00" fill="#000000">module [Taskflow: F1]</text>
</g>
<!-- p0x7f816f402d80&#45;&gt;p0x7f816f402fa0 -->
<g id="edge3" class="edge">
<title>p0x7f816f402d80-&gt;p0x7f816f402fa0</title>
<path fill="none" stroke="#000000" d="M89,-231.8314C89,-224.131 89,-214.9743 89,-206.4166"/>
<polygon fill="#000000" stroke="#000000" points="92.5001,-206.4132 89,-196.4133 85.5001,-206.4133 92.5001,-206.4132"/>
</g>
<!-- p0x7f816f402c70 -->
<g id="node3" class="node">
<title>p0x7f816f402c70</title>
<ellipse fill="none" stroke="#000000" cx="53" cy="-322" rx="27" ry="18"/>
<text text-anchor="middle" x="53" y="-317.8" font-family="Times,serif" font-size="14.00" fill="#000000">f2B</text>
</g>
<!-- p0x7f816f402c70&#45;&gt;p0x7f816f402d80 -->
<g id="edge2" class="edge">
<title>p0x7f816f402c70-&gt;p0x7f816f402d80</title>
<path fill="none" stroke="#000000" d="M61.7146,-304.5708C65.9597,-296.0807 71.1536,-285.6929 75.8663,-276.2674"/>
<polygon fill="#000000" stroke="#000000" points="79.024,-277.7782 80.3657,-267.2687 72.763,-274.6477 79.024,-277.7782"/>
</g>
<!-- p0x7f816f402fa1 -->
<g id="node6" class="node">
<title>p0x7f816f402fa1</title>
<polygon fill="none" stroke="#0000ff" points="161.8599,-124 16.1401,-124 16.1401,-88 161.8599,-88 161.8599,-124"/>
<text text-anchor="middle" x="89" y="-101.8" font-family="Times,serif" font-size="14.00" fill="#000000">module [Taskflow: F1]</text>
</g>
<!-- p0x7f816f402fa0&#45;&gt;p0x7f816f402fa1 -->
<g id="edge5" class="edge">
<title>p0x7f816f402fa0-&gt;p0x7f816f402fa1</title>
<path fill="none" stroke="#000000" d="M89,-159.8314C89,-152.131 89,-142.9743 89,-134.4166"/>
<polygon fill="#000000" stroke="#000000" points="92.5001,-134.4132 89,-124.4133 85.5001,-134.4133 92.5001,-134.4132"/>
</g>
<!-- p0x7f816f402e90 -->
<g id="node5" class="node">
<title>p0x7f816f402e90</title>
<ellipse fill="none" stroke="#000000" cx="89" cy="-34" rx="27" ry="18"/>
<text text-anchor="middle" x="89" y="-29.8" font-family="Times,serif" font-size="14.00" fill="#000000">f2D</text>
</g>
<!-- p0x7f816f402fa1&#45;&gt;p0x7f816f402e90 -->
<g id="edge4" class="edge">
<title>p0x7f816f402fa1-&gt;p0x7f816f402e90</title>
<path fill="none" stroke="#000000" d="M89,-87.8314C89,-80.131 89,-70.9743 89,-62.4166"/>
<polygon fill="#000000" stroke="#000000" points="92.5001,-62.4132 89,-52.4133 85.5001,-62.4133 92.5001,-62.4132"/>
</g>
<!-- p0x7f816f402830 -->
<g id="node7" class="node">
<title>p0x7f816f402830</title>
<ellipse fill="none" stroke="#000000" cx="285" cy="-322" rx="27" ry="18"/>
<text text-anchor="middle" x="285" y="-317.8" font-family="Times,serif" font-size="14.00" fill="#000000">f1A</text>
</g>
<!-- p0x7f816f402a50 -->
<g id="node8" class="node">
<title>p0x7f816f402a50</title>
<ellipse fill="none" stroke="#000000" cx="249" cy="-250" rx="27" ry="18"/>
<text text-anchor="middle" x="249" y="-245.8" font-family="Times,serif" font-size="14.00" fill="#000000">f1C</text>
</g>
<!-- p0x7f816f402830&#45;&gt;p0x7f816f402a50 -->
<g id="edge6" class="edge">
<title>p0x7f816f402830-&gt;p0x7f816f402a50</title>
<path fill="none" stroke="#000000" d="M276.2854,-304.5708C272.0403,-296.0807 266.8464,-285.6929 262.1337,-276.2674"/>
<polygon fill="#000000" stroke="#000000" points="265.237,-274.6477 257.6343,-267.2687 258.976,-277.7782 265.237,-274.6477"/>
</g>
<!-- p0x7f816f402940 -->
<g id="node9" class="node">
<title>p0x7f816f402940</title>
<ellipse fill="none" stroke="#000000" cx="213" cy="-322" rx="27" ry="18"/>
<text text-anchor="middle" x="213" y="-317.8" font-family="Times,serif" font-size="14.00" fill="#000000">f1B</text>
</g>
<!-- p0x7f816f402940&#45;&gt;p0x7f816f402a50 -->
<g id="edge7" class="edge">
<title>p0x7f816f402940-&gt;p0x7f816f402a50</title>
<path fill="none" stroke="#000000" d="M221.7146,-304.5708C225.9597,-296.0807 231.1536,-285.6929 235.8663,-276.2674"/>
<polygon fill="#000000" stroke="#000000" points="239.024,-277.7782 240.3657,-267.2687 232.763,-274.6477 239.024,-277.7782"/>
</g>
</g>
</svg>