<?xml version="1.0" encoding="UTF-8" standalone="no"?>
<!DOCTYPE svg PUBLIC "-//W3C//DTD SVG 1.1//EN"
 "http://www.w3.org/Graphics/SVG/1.1/DTD/svg11.dtd">
<!-- Generated by graphviz version 2.40.1 (20161225.0304)
 -->
<!-- Title: Taskflow Pages: 1 -->
<svg width="638pt" height="294pt"
 viewBox="0.00 0.00 637.72 294.00" xmlns="http://www.w3.org/2000/svg" xmlns:xlink="http://www.w3.org/1999/xlink">
<g id="graph0" class="graph" transform="scale(1 1) rotate(0) translate(4 290)">
<title>Taskflow</title>
<polygon fill="#ffffff" stroke="transparent" points="-4,4 -4,-290 633.7196,-290 633.7196,4 -4,4"/>
<g id="clust1" class="cluster">
<title>cluster_p0x7ffee9223970</title>
<polygon fill="none" stroke="#000000" points="8,-8 8,-139 621.7196,-139 621.7196,-8 8,-8"/>
<text text-anchor="middle" x="314.8598" y="-122.4" font-family="Times,serif" font-size="14.00" fill="#000000">Taskflow: F2</text>
</g>
<g id="clust2" class="cluster">
<title>cluster_p0x7ffee92238d0</title>
<polygon fill="none" stroke="#000000" points="8,-147 8,-278 168,-278 168,-147 8,-147"/>
<text text-anchor="middle" x="88" y="-261.4" font-family="Times,serif" font-size="14.00" fill="#000000">Taskflow: F1</text>
</g>
<!-- p0x7f816f402b60 -->
<g id="node1" class="node">
<title>p0x7f816f402b60</title>
<ellipse fill="none" stroke="#000000" cx="43" cy="-88" rx="27" ry="18"/>
<text text-anchor="middle" x="43" y="-83.8" font-family="Times,serif" font-size="14.00" fill="#000000">f2A</text>
</g>
<!-- p0x7f816f402d80 -->
<g id="node2" class="node">
<title>p0x7f816f402d80</title>
<ellipse fill="none" stroke="#000000" cx="133" cy="-61" rx="27" ry="18"/>
<text text-anchor="middle" x="133" y="-56.8" font-family="Times,serif" font-size="14.00" fill="#000000">f2C</text>
</g>
<!-- p0x7f816f402b60&#45;&gt;p0x7f816f402d80 -->
<g id="edge1" class="edge">
<title>p0x7f816f402b60&#45;&gt;p0x7f816f402d80</title>
<path fill="none" stroke="#000000" d="M68.07,-80.479C77.5102,-77.6469 88.4169,-74.3749 98.564,-71.3308"/>
<polygon fill="#000000" stroke="#000000" points="99.803,-74.6133 108.3755,-68.3874 97.7915,-67.9085 99.803,-74.6133"/>
</g>
<!-- p0x7f816f402fa0 -->
<g id="node4" class="node">
<title>p0x7f816f402fa0</title>
<polygon fill="none" stroke="#0000ff" points="341.7898,-79 200.07,-79 196.07,-75 196.07,-43 337.7898,-43 341.7898,-47 341.7898,-79"/>
<polyline fill="none" stroke="#0000ff" points="337.7898,-75 196.07,-75 "/>
<polyline fill="none" stroke="#0000ff" points="337.7898,-75 337.7898,-43 "/>
<polyline fill="none" stroke="#0000ff" points="337.7898,-75 341.7898,-79 "/>
<text text-anchor="middle" x="268.9299" y="-56.8" font-family="Times,serif" font-size="14.00" fill="#000000">module [Taskflow: F1]</text>
</g>
<!-- p0x7f816f402d80&#45;&gt;p0x7f816f402fa0 -->
<g id="edge3" class="edge">
<title>p0x7f816f402d80&#45;&gt;p0x7f816f402fa0</title>
<path fill="none" stroke="#000000" d="M160.1807,-61C167.8618,-61 176.6457,-61 185.8173,-61"/>
<polygon fill="#000000" stroke="#000000" points="185.8878,-64.5001 195.8878,-61 185.8878,-57.5001 185.8878,-64.5001"/>
</g>
<!-- p0x7f816f402c70 -->
<g id="node3" class="node">
<title>p0x7f816f402c70</title>
<ellipse fill="none" stroke="#000000" cx="43" cy="-34" rx="27" ry="18"/>
<text text-anchor="middle" x="43" y="-29.8" font-family="Times,serif" font-size="14.00" fill="#000000">f2B</text>
</g>
<!-- p0x7f816f402c70&#45;&gt;p0x7f816f402d80 -->
<g id="edge2" class="edge">
<title>p0x7f816f402c70&#45;&gt;p0x7f816f402d80</title>
<path fill="none" stroke="#000000" d="M68.07,-41.521C77.5102,-44.3531 88.4169,-47.6251 98.564,-50.6692"/>
<polygon fill="#000000" stroke="#000000" points="97.7915,-54.0915 108.3755,-53.6126 99.803,-47.3867 97.7915,-54.0915"/>
</g>
<!-- p0x7f816f402fa1 -->
<g id="node6" class="node">
<title>p0x7f816f402fa1</title>
<polygon fill="none" stroke="#0000ff" points="523.6496,-79 381.9298,-79 377.9298,-75 377.9298,-43 519.6496,-43 523.6496,-47 523.6496,-79"/>
<polyline fill="none" stroke="#0000ff" points="519.6496,-75 377.9298,-75 "/>
<polyline fill="none" stroke="#0000ff" points="519.6496,-75 519.6496,-43 "/>
<polyline fill="none" stroke="#0000ff" points="519.6496,-75 523.6496,-79 "/>
<text text-anchor="middle" x="450.7897" y="-56.8" font-family="Times,serif" font-size="14.00" fill="#000000">module [Taskflow: F1]</text>
</g>
<!-- p0x7f816f402fa0&#45;&gt;p0x7f816f402fa1 -->
<g id="edge5" class="edge">
<title>p0x7f816f402fa0&#45;&gt;p0x7f816f402fa1</title>
<path fill="none" stroke="#000000" d="M341.8514,-61C350.3744,-61 359.1174,-61 367.7642,-61"/>
<polygon fill="#000000" stroke="#000000" points="367.8519,-64.5001 377.8519,-61 367.8518,-57.5001 367.8519,-64.5001"/>
</g>
<!-- p0x7f816f402e90 -->
<g id="node5" class="node">
<title>p0x7f816f402e90</title>
<ellipse fill="none" stroke="#000000" cx="586.7196" cy="-61" rx="27" ry="18"/>
<text text-anchor="middle" x="586.7196" y="-56.8" font-family="Times,serif" font-size="14.00" fill="#000000">f2D</text>
</g>
<!-- p0x7f816f402fa1&#45;&gt;p0x7f816f402e90 -->
<g id="edge4" class="edge">
<title>p0x7f816f402fa1&#45;&gt;p0x7f816f402e90</title>
<path fill="none" stroke="#000000" d="M523.9272,-61C532.7532,-61 541.4621,-61 549.4541,-61"/>
<polygon fill="#000000" stroke="#000000" points="549.4968,-64.5001 559.4968,-61 549.4968,-57.5001 549.4968,-64.5001"/>
</g>
<!-- p0x7f816f402830 -->
<g id="node7" class="node">
<title>p0x7f816f402830</title>
<ellipse fill="none" stroke="#000000" cx="43" cy="-227" rx="27" ry="18"/>
<text text-anchor="middle" x="43" y="-222.8" font-family="Times,serif" font-size="14.00" fill="#000000">f1A</text>
</g>
<!-- p0x7f816f402a50 -->
<g id="node8" class="node">
<title>p0x7f816f402a50</title>
<ellipse fill="none" stroke="#000000" cx="133" cy="-200" rx="27" ry="18"/>
<text text-anchor="middle" x="133" y="-195.8" font-family="Times,serif" font-size="14.00" fill="#000000">f1C</text>
</g>
<!-- p0x7f816f402830&#45;&gt;p0x7f816f402a50 -->
<g id="edge6" class="edge">
<title>p0x7f816f402830&#45;&gt;p0x7f816f402a50</title>
<path fill="none" stroke="#000000" d="M68.07,-219.479C77.5102,-216.6469 88.4169,-213.3749 98.564,-210.3308"/>
<polygon fill="#000000" stroke="#000000" points="99.803,-213.6133 108.3755,-207.3874 97.7915,-206.9085 99.803,-213.6133"/>
</g>
<!-- p0x7f816f402940 -->
<g id="node9" class="node">
<title>p0x7f816f402940</title>
<ellipse fill="none" stroke="#000000" cx="43" cy="-173" rx="27" ry="18"/>
<text text-anchor="middle" x="43" y="-168.8" font-family="Times,serif" font-size="14.00" fill="#000000">f1B</text>
</g>
<!-- p0x7f816f402940&#45;&gt;p0x7f816f402a50 -->
<g id="edge7" class="edge">
<title>p0x7f816f402940&#45;&gt;p0x7f816f402a50</title>
<path fill="none" stroke="#000000" d="M68.07,-180.521C77.5102,-183.3531 88.4169,-186.6251 98.564,-189.6692"/>
<polygon fill="#000000" stroke="#000000" points="97.7915,-193.0915 108.3755,-192.6126 99.803,-186.3867 97.7915,-193.0915"/>
</g>
</g>
</svg>
