<svg width="660" height="300" xmlns="http://www.w3.org/2000/svg">
<defs>
  <marker id="arr" markerWidth="7" markerHeight="7" refX="6" refY="3.5" orient="auto">
    <path d="M0,0.5 L6,3.5 L0,6.5 Z" fill="#555555"/>
  </marker>
</defs>
  <rect x="30" y="60" width="44" height="44" fill="#f0f0f0" stroke="#888" stroke-width="1.2"/>
  <text x="52" y="86" text-anchor="middle" font-family="Helvetica,sans-serif" font-size="13" fill="#222">1</text>
  <rect x="74" y="60" width="44" height="44" fill="#f0f0f0" stroke="#888" stroke-width="1.2"/>
  <text x="96" y="86" text-anchor="middle" font-family="Helvetica,sans-serif" font-size="13" fill="#222">2</text>
  <rect x="118" y="60" width="44" height="44" fill="#f0f0f0" stroke="#888" stroke-width="1.2"/>
  <text x="140" y="86" text-anchor="middle" font-family="Helvetica,sans-serif" font-size="13" fill="#222">0</text>
  <rect x="162" y="60" width="44" height="44" fill="#f0f0f0" stroke="#888" stroke-width="1.2"/>
  <text x="184" y="86" text-anchor="middle" font-family="Helvetica,sans-serif" font-size="13" fill="#222">1</text>
  <rect x="206" y="60" width="44" height="44" fill="#f0f0f0" stroke="#888" stroke-width="1.2"/>
  <text x="228" y="86" text-anchor="middle" font-family="Helvetica,sans-serif" font-size="13" fill="#222">3</text>
  <rect x="30" y="104" width="44" height="44" fill="#f0f0f0" stroke="#888" stroke-width="1.2"/>
  <text x="52" y="130" text-anchor="middle" font-family="Helvetica,sans-serif" font-size="13" fill="#222">0</text>
  <rect x="74" y="104" width="44" height="44" fill="#fde8d0" stroke="#888" stroke-width="1.2"/>
  <text x="96" y="130" text-anchor="middle" font-family="Helvetica,sans-serif" font-size="13" fill="#222">3</text>
  <rect x="118" y="104" width="44" height="44" fill="#fde8d0" stroke="#888" stroke-width="1.2"/>
  <text x="140" y="130" text-anchor="middle" font-family="Helvetica,sans-serif" font-size="13" fill="#222">1</text>
  <rect x="162" y="104" width="44" height="44" fill="#fde8d0" stroke="#888" stroke-width="1.2"/>
  <text x="184" y="130" text-anchor="middle" font-family="Helvetica,sans-serif" font-size="13" fill="#222">2</text>
  <rect x="206" y="104" width="44" height="44" fill="#f0f0f0" stroke="#888" stroke-width="1.2"/>
  <text x="228" y="130" text-anchor="middle" font-family="Helvetica,sans-serif" font-size="13" fill="#222">1</text>
  <rect x="30" y="148" width="44" height="44" fill="#f0f0f0" stroke="#888" stroke-width="1.2"/>
  <text x="52" y="174" text-anchor="middle" font-family="Helvetica,sans-serif" font-size="13" fill="#222">2</text>
  <rect x="74" y="148" width="44" height="44" fill="#fde8d0" stroke="#888" stroke-width="1.2"/>
  <text x="96" y="174" text-anchor="middle" font-family="Helvetica,sans-serif" font-size="13" fill="#222">1</text>
  <rect x="118" y="148" width="44" height="44" fill="#fde8d0" stroke="#888" stroke-width="1.2"/>
  <text x="140" y="174" text-anchor="middle" font-family="Helvetica,sans-serif" font-size="13" fill="#222">4</text>
  <rect x="162" y="148" width="44" height="44" fill="#fde8d0" stroke="#888" stroke-width="1.2"/>
  <text x="184" y="174" text-anchor="middle" font-family="Helvetica,sans-serif" font-size="13" fill="#222">0</text>
  <rect x="206" y="148" width="44" height="44" fill="#f0f0f0" stroke="#888" stroke-width="1.2"/>
  <text x="228" y="174" text-anchor="middle" font-family="Helvetica,sans-serif" font-size="13" fill="#222">2</text>
  <rect x="30" y="192" width="44" height="44" fill="#f0f0f0" stroke="#888" stroke-width="1.2"/>
  <text x="52" y="218" text-anchor="middle" font-family="Helvetica,sans-serif" font-size="13" fill="#222">1</text>
  <rect x="74" y="192" width="44" height="44" fill="#fde8d0" stroke="#888" stroke-width="1.2"/>
  <text x="96" y="218" text-anchor="middle" font-family="Helvetica,sans-serif" font-size="13" fill="#222">0</text>
  <rect x="118" y="192" width="44" height="44" fill="#fde8d0" stroke="#888" stroke-width="1.2"/>
  <text x="140" y="218" text-anchor="middle" font-family="Helvetica,sans-serif" font-size="13" fill="#222">2</text>
  <rect x="162" y="192" width="44" height="44" fill="#fde8d0" stroke="#888" stroke-width="1.2"/>
  <text x="184" y="218" text-anchor="middle" font-family="Helvetica,sans-serif" font-size="13" fill="#222">3</text>
  <rect x="206" y="192" width="44" height="44" fill="#f0f0f0" stroke="#888" stroke-width="1.2"/>
  <text x="228" y="218" text-anchor="middle" font-family="Helvetica,sans-serif" font-size="13" fill="#222">1</text>
  <rect x="30" y="236" width="44" height="44" fill="#f0f0f0" stroke="#888" stroke-width="1.2"/>
  <text x="52" y="262" text-anchor="middle" font-family="Helvetica,sans-serif" font-size="13" fill="#222">0</text>
  <rect x="74" y="236" width="44" height="44" fill="#f0f0f0" stroke="#888" stroke-width="1.2"/>
  <text x="96" y="262" text-anchor="middle" font-family="Helvetica,sans-serif" font-size="13" fill="#222">2</text>
  <rect x="118" y="236" width="44" height="44" fill="#f0f0f0" stroke="#888" stroke-width="1.2"/>
  <text x="140" y="262" text-anchor="middle" font-family="Helvetica,sans-serif" font-size="13" fill="#222">1</text>
  <rect x="162" y="236" width="44" height="44" fill="#f0f0f0" stroke="#888" stroke-width="1.2"/>
  <text x="184" y="262" text-anchor="middle" font-family="Helvetica,sans-serif" font-size="13" fill="#222">1</text>
  <rect x="206" y="236" width="44" height="44" fill="#f0f0f0" stroke="#888" stroke-width="1.2"/>
  <text x="228" y="262" text-anchor="middle" font-family="Helvetica,sans-serif" font-size="13" fill="#222">0</text>
  <rect x="330" y="60" width="44" height="44" fill="#d4edda" stroke="#888" stroke-width="1.2"/>
  <text x="352" y="86" text-anchor="middle" font-family="Helvetica,sans-serif" font-size="13" fill="#222">1</text>
  <rect x="374" y="60" width="44" height="44" fill="#d4edda" stroke="#888" stroke-width="1.2"/>
  <text x="396" y="86" text-anchor="middle" font-family="Helvetica,sans-serif" font-size="13" fill="#222">2</text>
  <rect x="418" y="60" width="44" height="44" fill="#d4edda" stroke="#888" stroke-width="1.2"/>
  <text x="440" y="86" text-anchor="middle" font-family="Helvetica,sans-serif" font-size="13" fill="#222">1</text>
  <rect x="330" y="104" width="44" height="44" fill="#d4edda" stroke="#888" stroke-width="1.2"/>
  <text x="352" y="130" text-anchor="middle" font-family="Helvetica,sans-serif" font-size="13" fill="#222">2</text>
  <rect x="374" y="104" width="44" height="44" fill="#d4edda" stroke="#888" stroke-width="1.2"/>
  <text x="396" y="130" text-anchor="middle" font-family="Helvetica,sans-serif" font-size="13" fill="#222">4</text>
  <rect x="418" y="104" width="44" height="44" fill="#d4edda" stroke="#888" stroke-width="1.2"/>
  <text x="440" y="130" text-anchor="middle" font-family="Helvetica,sans-serif" font-size="13" fill="#222">2</text>
  <rect x="330" y="148" width="44" height="44" fill="#d4edda" stroke="#888" stroke-width="1.2"/>
  <text x="352" y="174" text-anchor="middle" font-family="Helvetica,sans-serif" font-size="13" fill="#222">1</text>
  <rect x="374" y="148" width="44" height="44" fill="#d4edda" stroke="#888" stroke-width="1.2"/>
  <text x="396" y="174" text-anchor="middle" font-family="Helvetica,sans-serif" font-size="13" fill="#222">2</text>
  <rect x="418" y="148" width="44" height="44" fill="#d4edda" stroke="#888" stroke-width="1.2"/>
  <text x="440" y="174" text-anchor="middle" font-family="Helvetica,sans-serif" font-size="13" fill="#222">1</text>
  <rect x="560" y="126" width="44" height="44" fill="#4472c4" stroke="#888" stroke-width="1.5"/>
  <text x="582" y="152" text-anchor="middle" font-family="Helvetica,sans-serif" font-size="12" fill="white">32/16</text>
  <text x="140" y="50" text-anchor="middle" font-family="Helvetica,sans-serif" font-weight="bold" font-size="12" fill="#444">Input image (5×5)</text>
  <text x="396" y="50" text-anchor="middle" font-family="Helvetica,sans-serif" font-weight="bold" font-size="12" fill="#444">Kernel (3×3)</text>
  <text x="582" y="104" text-anchor="middle" font-family="Helvetica,sans-serif" font-weight="bold" font-size="12" fill="#444">Output pixel (2,2)</text>
  <text x="140" y="298" text-anchor="middle" font-family="Helvetica,sans-serif" font-weight="normal" font-size="12" fill="#444">window centred at (2,2)</text>
  <line x1="210" y1="170" x2="322" y2="126" stroke="#555" stroke-width="1.3" marker-end="url(#arr)"/>
  <line x1="466" y1="126" x2="552" y2="148" stroke="#555" stroke-width="1.3" marker-end="url(#arr)"/>
  <text x="266" y="144" text-anchor="middle" font-family="Helvetica,sans-serif" font-size="13" fill="#555">×</text>
  <text x="510" y="160" text-anchor="middle" font-family="Helvetica,sans-serif" font-size="11" fill="#555">weighted sum</text>
</svg>
