<svg width="420" height="380" xmlns="http://www.w3.org/2000/svg">
  <rect x="60" y="50" width="48" height="48" fill="#fde8d0" stroke="#aaa" stroke-width="1"/>
  <rect x="108" y="50" width="48" height="48" fill="#fde8d0" stroke="#aaa" stroke-width="1"/>
  <rect x="156" y="50" width="48" height="48" fill="#fde8d0" stroke="#aaa" stroke-width="1"/>
  <rect x="204" y="50" width="48" height="48" fill="#cce5ff" stroke="#aaa" stroke-width="1"/>
  <rect x="252" y="50" width="48" height="48" fill="#cce5ff" stroke="#aaa" stroke-width="1"/>
  <rect x="300" y="50" width="48" height="48" fill="#cce5ff" stroke="#aaa" stroke-width="1"/>
  <rect x="60" y="98" width="48" height="48" fill="#fde8d0" stroke="#aaa" stroke-width="1"/>
  <rect x="108" y="98" width="48" height="48" fill="#fde8d0" stroke="#aaa" stroke-width="1"/>
  <rect x="156" y="98" width="48" height="48" fill="#fde8d0" stroke="#aaa" stroke-width="1"/>
  <rect x="204" y="98" width="48" height="48" fill="#cce5ff" stroke="#aaa" stroke-width="1"/>
  <rect x="252" y="98" width="48" height="48" fill="#cce5ff" stroke="#aaa" stroke-width="1"/>
  <rect x="300" y="98" width="48" height="48" fill="#cce5ff" stroke="#aaa" stroke-width="1"/>
  <rect x="60" y="146" width="48" height="48" fill="#fde8d0" stroke="#aaa" stroke-width="1"/>
  <rect x="108" y="146" width="48" height="48" fill="#fde8d0" stroke="#aaa" stroke-width="1"/>
  <rect x="156" y="146" width="48" height="48" fill="#fde8d0" stroke="#aaa" stroke-width="1"/>
  <rect x="204" y="146" width="48" height="48" fill="#cce5ff" stroke="#aaa" stroke-width="1"/>
  <rect x="252" y="146" width="48" height="48" fill="#cce5ff" stroke="#aaa" stroke-width="1"/>
  <rect x="300" y="146" width="48" height="48" fill="#cce5ff" stroke="#aaa" stroke-width="1"/>
  <rect x="60" y="194" width="48" height="48" fill="#d4edda" stroke="#aaa" stroke-width="1"/>
  <rect x="108" y="194" width="48" height="48" fill="#d4edda" stroke="#aaa" stroke-width="1"/>
  <rect x="156" y="194" width="48" height="48" fill="#d4edda" stroke="#aaa" stroke-width="1"/>
  <rect x="204" y="194" width="48" height="48" fill="#fff3cd" stroke="#aaa" stroke-width="1"/>
  <rect x="252" y="194" width="48" height="48" fill="#fff3cd" stroke="#aaa" stroke-width="1"/>
  <rect x="300" y="194" width="48" height="48" fill="#fff3cd" stroke="#aaa" stroke-width="1"/>
  <rect x="60" y="242" width="48" height="48" fill="#d4edda" stroke="#aaa" stroke-width="1"/>
  <rect x="108" y="242" width="48" height="48" fill="#d4edda" stroke="#aaa" stroke-width="1"/>
  <rect x="156" y="242" width="48" height="48" fill="#d4edda" stroke="#aaa" stroke-width="1"/>
  <rect x="204" y="242" width="48" height="48" fill="#fff3cd" stroke="#aaa" stroke-width="1"/>
  <rect x="252" y="242" width="48" height="48" fill="#fff3cd" stroke="#aaa" stroke-width="1"/>
  <rect x="300" y="242" width="48" height="48" fill="#fff3cd" stroke="#aaa" stroke-width="1"/>
  <rect x="60" y="290" width="48" height="48" fill="#d4edda" stroke="#aaa" stroke-width="1"/>
  <rect x="108" y="290" width="48" height="48" fill="#d4edda" stroke="#aaa" stroke-width="1"/>
  <rect x="156" y="290" width="48" height="48" fill="#d4edda" stroke="#aaa" stroke-width="1"/>
  <rect x="204" y="290" width="48" height="48" fill="#fff3cd" stroke="#aaa" stroke-width="1"/>
  <rect x="252" y="290" width="48" height="48" fill="#fff3cd" stroke="#aaa" stroke-width="1"/>
  <rect x="300" y="290" width="48" height="48" fill="#fff3cd" stroke="#aaa" stroke-width="1"/>
  <rect x="60" y="50" width="144" height="144" fill="none" stroke="#333" stroke-width="2.5"/>
  <text x="132" y="126" text-anchor="middle" font-family="Helvetica,sans-serif" font-weight="bold" font-size="12" fill="#333">Worker 0</text>
  <rect x="204" y="50" width="144" height="144" fill="none" stroke="#333" stroke-width="2.5"/>
  <text x="276" y="126" text-anchor="middle" font-family="Helvetica,sans-serif" font-weight="bold" font-size="12" fill="#333">Worker 1</text>
  <rect x="60" y="194" width="144" height="144" fill="none" stroke="#333" stroke-width="2.5"/>
  <text x="132" y="270" text-anchor="middle" font-family="Helvetica,sans-serif" font-weight="bold" font-size="12" fill="#333">Worker 2</text>
  <rect x="204" y="194" width="144" height="144" fill="none" stroke="#333" stroke-width="2.5"/>
  <text x="276" y="270" text-anchor="middle" font-family="Helvetica,sans-serif" font-weight="bold" font-size="12" fill="#333">Worker 3</text>
  <text x="204" y="38" text-anchor="middle" font-family="Helvetica,sans-serif" font-weight="bold" font-size="13" fill="#333">Output image (6×6)</text>
  <text x="84" y="48" text-anchor="middle" font-family="Helvetica,sans-serif" font-size="10" fill="#666">0</text>
  <text x="132" y="48" text-anchor="middle" font-family="Helvetica,sans-serif" font-size="10" fill="#666">1</text>
  <text x="180" y="48" text-anchor="middle" font-family="Helvetica,sans-serif" font-size="10" fill="#666">2</text>
  <text x="228" y="48" text-anchor="middle" font-family="Helvetica,sans-serif" font-size="10" fill="#666">3</text>
  <text x="276" y="48" text-anchor="middle" font-family="Helvetica,sans-serif" font-size="10" fill="#666">4</text>
  <text x="324" y="48" text-anchor="middle" font-family="Helvetica,sans-serif" font-size="10" fill="#666">5</text>
  <text x="50" y="78" text-anchor="end" font-family="Helvetica,sans-serif" font-size="10" fill="#666">0</text>
  <text x="50" y="126" text-anchor="end" font-family="Helvetica,sans-serif" font-size="10" fill="#666">1</text>
  <text x="50" y="174" text-anchor="end" font-family="Helvetica,sans-serif" font-size="10" fill="#666">2</text>
  <text x="50" y="222" text-anchor="end" font-family="Helvetica,sans-serif" font-size="10" fill="#666">3</text>
  <text x="50" y="270" text-anchor="end" font-family="Helvetica,sans-serif" font-size="10" fill="#666">4</text>
  <text x="50" y="318" text-anchor="end" font-family="Helvetica,sans-serif" font-size="10" fill="#666">5</text>
  <text x="204" y="358" text-anchor="middle" font-family="Helvetica,sans-serif" font-size="11" fill="#444">IndexRange&lt;int,2&gt;([0,6)×[0,6)) split into 4 sub-boxes</text>
</svg>