<?xml version="1.0" encoding="UTF-8" standalone="no"?><!DOCTYPE svg PUBLIC "-//W3C//DTD SVG 1.1//EN" "http://www.w3.org/Graphics/SVG/1.1/DTD/svg11.dtd"><!-- Generated by graphviz version 2.40.1 (20161225.0304)
 --><!-- Title: Taskflow Pages: 1 --><svg xmlns="http://www.w3.org/2000/svg" xmlns:xlink="http://www.w3.org/1999/xlink" width="1734pt" height="886pt" viewBox="0.00 0.00 1734.00 886.40">
<g id="graph0" class="graph" transform="scale(1 1) rotate(0) translate(4 882.4)">
<title>Taskflow</title>
<polygon fill="#ffffff" stroke="transparent" points="-4,4 -4,-882.4 1730,-882.4 1730,4 -4,4"/>
<g id="clust1" class="cluster">
<title>cluster_p0x7ffee9134780</title>
<polygon fill="none" stroke="#000000" points="8,-8 8,-870.4 1718,-870.4 1718,-8 8,-8"/>
<text text-anchor="middle" x="863" y="-853.8" font-family="Times,serif" font-size="14.00" fill="#000000">Taskflow: fibonacci</text>
</g>
<g id="clust2" class="cluster">
<title>cluster_p0x7f9c3a80f830</title>
<polygon fill="none" stroke="#0000ff" points="16,-16 16,-837.6 1710,-837.6 1710,-16 16,-16"/>
<text text-anchor="middle" x="863" y="-821" font-family="Times,serif" font-size="14.00" fill="#000000">Subflow: 7</text>
</g>
<g id="clust3" class="cluster">
<title>cluster_p0x7f9c3b800030</title>
<polygon fill="none" stroke="#0000ff" points="662,-88 662,-804.8 1702,-804.8 1702,-88 662,-88"/>
<text text-anchor="middle" x="1182" y="-788.2" font-family="Times,serif" font-size="14.00" fill="#000000">Subflow: 6</text>
</g>
<g id="clust4" class="cluster">
<title>cluster_p0x7f9c3a81fa30</title>
<polygon fill="none" stroke="#0000ff" points="1064,-160 1064,-772 1694,-772 1694,-160 1064,-160"/>
<text text-anchor="middle" x="1379" y="-755.4" font-family="Times,serif" font-size="14.00" fill="#000000">Subflow: 5</text>
</g>
<g id="clust5" class="cluster">
<title>cluster_p0x7f9c3b001e30</title>
<polygon fill="none" stroke="#0000ff" points="1300,-232 1300,-739.2 1686,-739.2 1686,-232 1300,-232"/>
<text text-anchor="middle" x="1493" y="-722.6" font-family="Times,serif" font-size="14.00" fill="#000000">Subflow: 4</text>
</g>
<g id="clust6" class="cluster">
<title>cluster_p0x7f9c3b0024f0</title>
<polygon fill="none" stroke="#0000ff" points="1458,-304 1458,-706.4 1678,-706.4 1678,-304 1458,-304"/>
<text text-anchor="middle" x="1568" y="-689.8" font-family="Times,serif" font-size="14.00" fill="#000000">Subflow: 3</text>
</g>
<g id="clust7" class="cluster">
<title>cluster_p0x7f9c3b002970</title>
<polygon fill="none" stroke="#0000ff" points="1528,-421.6 1528,-673.6 1670,-673.6 1670,-421.6 1528,-421.6"/>
<text text-anchor="middle" x="1599" y="-657" font-family="Times,serif" font-size="14.00" fill="#000000">Subflow: 2</text>
</g>
<g id="clust8" class="cluster">
<title>cluster_p0x7f9c3b002610</title>
<polygon fill="none" stroke="#0000ff" points="1308,-304 1308,-498.4 1450,-498.4 1450,-304 1308,-304"/>
<text text-anchor="middle" x="1379" y="-481.8" font-family="Times,serif" font-size="14.00" fill="#000000">Subflow: 2</text>
</g>
<g id="clust9" class="cluster">
<title>cluster_p0x7f9c3b001f50</title>
<polygon fill="none" stroke="#0000ff" points="1072,-232 1072,-531.2 1292,-531.2 1292,-232 1072,-232"/>
<text text-anchor="middle" x="1182" y="-514.6" font-family="Times,serif" font-size="14.00" fill="#000000">Subflow: 3</text>
</g>
<g id="clust10" class="cluster">
<title>cluster_p0x7f9c3b002070</title>
<polygon fill="none" stroke="#0000ff" points="1142,-304 1142,-498.4 1284,-498.4 1284,-304 1142,-304"/>
<text text-anchor="middle" x="1213" y="-481.8" font-family="Times,serif" font-size="14.00" fill="#000000">Subflow: 2</text>
</g>
<g id="clust11" class="cluster">
<title>cluster_p0x7f9c3a81fb50</title>
<polygon fill="none" stroke="#0000ff" points="670,-160 670,-564 1056,-564 1056,-160 670,-160"/>
<text text-anchor="middle" x="863" y="-547.4" font-family="Times,serif" font-size="14.00" fill="#000000">Subflow: 4</text>
</g>
<g id="clust12" class="cluster">
<title>cluster_p0x7f9c3a81fc70</title>
<polygon fill="none" stroke="#0000ff" points="828,-232 828,-531.2 1048,-531.2 1048,-232 828,-232"/>
<text text-anchor="middle" x="938" y="-514.6" font-family="Times,serif" font-size="14.00" fill="#000000">Subflow: 3</text>
</g>
<g id="clust13" class="cluster">
<title>cluster_p0x7f9c3a8200f0</title>
<polygon fill="none" stroke="#0000ff" points="898,-304 898,-498.4 1040,-498.4 1040,-304 898,-304"/>
<text text-anchor="middle" x="969" y="-481.8" font-family="Times,serif" font-size="14.00" fill="#000000">Subflow: 2</text>
</g>
<g id="clust14" class="cluster">
<title>cluster_p0x7f9c3a81fd90</title>
<polygon fill="none" stroke="#0000ff" points="678,-232 678,-380.8 820,-380.8 820,-232 678,-232"/>
<text text-anchor="middle" x="749" y="-364.2" font-family="Times,serif" font-size="14.00" fill="#000000">Subflow: 2</text>
</g>
<g id="clust15" class="cluster">
<title>cluster_p0x7f9c3b800150</title>
<polygon fill="none" stroke="#0000ff" points="24,-88 24,-596.8 654,-596.8 654,-88 24,-88"/>
<text text-anchor="middle" x="339" y="-580.2" font-family="Times,serif" font-size="14.00" fill="#000000">Subflow: 5</text>
</g>
<g id="clust16" class="cluster">
<title>cluster_p0x7f9c3b800270</title>
<polygon fill="none" stroke="#0000ff" points="260,-160 260,-564 646,-564 646,-160 260,-160"/>
<text text-anchor="middle" x="453" y="-547.4" font-family="Times,serif" font-size="14.00" fill="#000000">Subflow: 4</text>
</g>
<g id="clust17" class="cluster">
<title>cluster_p0x7f9c3b800930</title>
<polygon fill="none" stroke="#0000ff" points="418,-232 418,-531.2 638,-531.2 638,-232 418,-232"/>
<text text-anchor="middle" x="528" y="-514.6" font-family="Times,serif" font-size="14.00" fill="#000000">Subflow: 3</text>
</g>
<g id="clust18" class="cluster">
<title>cluster_p0x7f9c3b800db0</title>
<polygon fill="none" stroke="#0000ff" points="488,-304 488,-498.4 630,-498.4 630,-304 488,-304"/>
<text text-anchor="middle" x="559" y="-481.8" font-family="Times,serif" font-size="14.00" fill="#000000">Subflow: 2</text>
</g>
<g id="clust19" class="cluster">
<title>cluster_p0x7f9c3b800a50</title>
<polygon fill="none" stroke="#0000ff" points="268,-232 268,-380.8 410,-380.8 410,-232 268,-232"/>
<text text-anchor="middle" x="339" y="-364.2" font-family="Times,serif" font-size="14.00" fill="#000000">Subflow: 2</text>
</g>
<g id="clust20" class="cluster">
<title>cluster_p0x7f9c3b800390</title>
<polygon fill="none" stroke="#0000ff" points="32,-160 32,-413.6 252,-413.6 252,-160 32,-160"/>
<text text-anchor="middle" x="142" y="-397" font-family="Times,serif" font-size="14.00" fill="#000000">Subflow: 3</text>
</g>
<g id="clust21" class="cluster">
<title>cluster_p0x7f9c3b8004b0</title>
<polygon fill="none" stroke="#0000ff" points="102,-232 102,-380.8 244,-380.8 244,-232 102,-232"/>
<text text-anchor="middle" x="173" y="-364.2" font-family="Times,serif" font-size="14.00" fill="#000000">Subflow: 2</text>
</g>
<!-- p0x7f9c3a80f830 -->
<g id="node1" class="node">
<title>p0x7f9c3a80f830</title>
<ellipse fill="none" stroke="#000000" cx="619" cy="-42" rx="27" ry="18"/>
<text text-anchor="middle" x="619" y="-37.8" font-family="Times,serif" font-size="14.00" fill="#000000">7</text>
</g>
<!-- p0x7f9c3b800030 -->
<g id="node2" class="node">
<title>p0x7f9c3b800030</title>
<ellipse fill="none" stroke="#000000" cx="824" cy="-114" rx="27" ry="18"/>
<text text-anchor="middle" x="824" y="-109.8" font-family="Times,serif" font-size="14.00" fill="#000000">6</text>
</g>
<!-- p0x7f9c3b800030&#45;&gt;p0x7f9c3a80f830 -->
<g id="edge1" class="edge">
<title>p0x7f9c3b800030-&gt;p0x7f9c3a80f830</title>
<path fill="none" stroke="#000000" d="M800.0827,-105.5998C763.6878,-92.8172 694.2588,-68.4324 652.7467,-53.8525"/>
<polygon fill="#000000" stroke="#000000" points="653.6767,-50.4696 643.0819,-50.458 651.357,-57.0741 653.6767,-50.4696"/>
</g>
<!-- p0x7f9c3a81fa30 -->
<g id="node3" class="node">
<title>p0x7f9c3a81fa30</title>
<ellipse fill="none" stroke="#000000" cx="1143" cy="-186" rx="27" ry="18"/>
<text text-anchor="middle" x="1143" y="-181.8" font-family="Times,serif" font-size="14.00" fill="#000000">5</text>
</g>
<!-- p0x7f9c3a81fa30&#45;&gt;p0x7f9c3b800030 -->
<g id="edge2" class="edge">
<title>p0x7f9c3a81fa30-&gt;p0x7f9c3b800030</title>
<path fill="none" stroke="#000000" d="M1118.8696,-177.6611C1102.4146,-172.1678 1080.0541,-165.0787 1060,-160 990.0258,-142.279 906.9042,-127.5099 860.3236,-119.7903"/>
<polygon fill="#000000" stroke="#000000" points="860.8384,-116.3281 850.4035,-118.1616 859.7043,-123.2356 860.8384,-116.3281"/>
</g>
<!-- p0x7f9c3b001e30 -->
<g id="node4" class="node">
<title>p0x7f9c3b001e30</title>
<ellipse fill="none" stroke="#000000" cx="1379" cy="-258" rx="27" ry="18"/>
<text text-anchor="middle" x="1379" y="-253.8" font-family="Times,serif" font-size="14.00" fill="#000000">4</text>
</g>
<!-- p0x7f9c3b001e30&#45;&gt;p0x7f9c3a81fa30 -->
<g id="edge3" class="edge">
<title>p0x7f9c3b001e30-&gt;p0x7f9c3a81fa30</title>
<path fill="none" stroke="#000000" d="M1354.3267,-250.1894C1337.83,-244.9872 1315.6322,-238.026 1296,-232 1255.3817,-219.5325 1208.5915,-205.5151 1177.5589,-196.2667"/>
<polygon fill="#000000" stroke="#000000" points="1178.2537,-192.8217 1167.6706,-193.3222 1176.2559,-199.5306 1178.2537,-192.8217"/>
</g>
<!-- p0x7f9c3b0024f0 -->
<g id="node5" class="node">
<title>p0x7f9c3b0024f0</title>
<ellipse fill="none" stroke="#000000" cx="1493" cy="-330" rx="27" ry="18"/>
<text text-anchor="middle" x="1493" y="-325.8" font-family="Times,serif" font-size="14.00" fill="#000000">3</text>
</g>
<!-- p0x7f9c3b0024f0&#45;&gt;p0x7f9c3b001e30 -->
<g id="edge4" class="edge">
<title>p0x7f9c3b0024f0-&gt;p0x7f9c3b001e30</title>
<path fill="none" stroke="#000000" d="M1474.0517,-317.1597C1467.7104,-312.9182 1460.5808,-308.2096 1454,-304 1438.9059,-294.3447 1421.8972,-283.8794 1407.8977,-275.3738"/>
<polygon fill="#000000" stroke="#000000" points="1409.5497,-272.2824 1399.183,-270.0956 1405.9233,-278.2699 1409.5497,-272.2824"/>
</g>
<!-- p0x7f9c3b002970 -->
<g id="node6" class="node">
<title>p0x7f9c3b002970</title>
<ellipse fill="none" stroke="#000000" cx="1565" cy="-447.6" rx="27" ry="18"/>
<text text-anchor="middle" x="1565" y="-443.4" font-family="Times,serif" font-size="14.00" fill="#000000">2</text>
</g>
<!-- p0x7f9c3b002970&#45;&gt;p0x7f9c3b0024f0 -->
<g id="edge5" class="edge">
<title>p0x7f9c3b002970-&gt;p0x7f9c3b0024f0</title>
<path fill="none" stroke="#000000" d="M1554.6842,-430.7508C1542.6544,-411.1022 1522.6407,-378.4131 1508.6839,-355.617"/>
<polygon fill="#000000" stroke="#000000" points="1511.5033,-353.5189 1503.2967,-346.818 1505.5333,-357.174 1511.5033,-353.5189"/>
</g>
<!-- p0x7f9c3b002bb0 -->
<g id="node7" class="node">
<title>p0x7f9c3b002bb0</title>
<ellipse fill="none" stroke="#000000" cx="1635" cy="-622.8" rx="27" ry="18"/>
<text text-anchor="middle" x="1635" y="-618.6" font-family="Times,serif" font-size="14.00" fill="#000000">1</text>
</g>
<!-- p0x7f9c3b002bb0&#45;&gt;p0x7f9c3b002970 -->
<g id="edge6" class="edge">
<title>p0x7f9c3b002bb0-&gt;p0x7f9c3b002970</title>
<path fill="none" stroke="#000000" d="M1628.0322,-605.3606C1615.7993,-574.7434 1590.3817,-511.1267 1575.8374,-474.7245"/>
<polygon fill="#000000" stroke="#000000" points="1579.004,-473.2165 1572.0435,-465.2289 1572.5036,-475.8137 1579.004,-473.2165"/>
</g>
<!-- p0x7f9c3b002cd0 -->
<g id="node8" class="node">
<title>p0x7f9c3b002cd0</title>
<ellipse fill="none" stroke="#000000" cx="1563" cy="-622.8" rx="27" ry="18"/>
<text text-anchor="middle" x="1563" y="-618.6" font-family="Times,serif" font-size="14.00" fill="#000000">0</text>
</g>
<!-- p0x7f9c3b002cd0&#45;&gt;p0x7f9c3b002970 -->
<g id="edge7" class="edge">
<title>p0x7f9c3b002cd0-&gt;p0x7f9c3b002970</title>
<path fill="none" stroke="#000000" d="M1563.2065,-604.7104C1563.5538,-574.2854 1564.2576,-512.6383 1564.6727,-476.2672"/>
<polygon fill="#000000" stroke="#000000" points="1568.1772,-475.893 1564.7916,-465.8537 1561.1776,-475.813 1568.1772,-475.893"/>
</g>
<!-- p0x7f9c3b002a90 -->
<g id="node9" class="node">
<title>p0x7f9c3b002a90</title>
<ellipse fill="none" stroke="#000000" cx="1493" cy="-447.6" rx="27" ry="18"/>
<text text-anchor="middle" x="1493" y="-443.4" font-family="Times,serif" font-size="14.00" fill="#000000">1</text>
</g>
<!-- p0x7f9c3b002a90&#45;&gt;p0x7f9c3b0024f0 -->
<g id="edge8" class="edge">
<title>p0x7f9c3b002a90-&gt;p0x7f9c3b0024f0</title>
<path fill="none" stroke="#000000" d="M1493,-429.4827C1493,-410.5466 1493,-380.5692 1493,-358.4666"/>
<polygon fill="#000000" stroke="#000000" points="1496.5001,-358.3316 1493,-348.3316 1489.5001,-358.3317 1496.5001,-358.3316"/>
</g>
<!-- p0x7f9c3b002610 -->
<g id="node10" class="node">
<title>p0x7f9c3b002610</title>
<ellipse fill="none" stroke="#000000" cx="1379" cy="-330" rx="27" ry="18"/>
<text text-anchor="middle" x="1379" y="-325.8" font-family="Times,serif" font-size="14.00" fill="#000000">2</text>
</g>
<!-- p0x7f9c3b002610&#45;&gt;p0x7f9c3b001e30 -->
<g id="edge9" class="edge">
<title>p0x7f9c3b002610-&gt;p0x7f9c3b001e30</title>
<path fill="none" stroke="#000000" d="M1379,-311.8314C1379,-304.131 1379,-294.9743 1379,-286.4166"/>
<polygon fill="#000000" stroke="#000000" points="1382.5001,-286.4132 1379,-276.4133 1375.5001,-286.4133 1382.5001,-286.4132"/>
</g>
<!-- p0x7f9c3b002730 -->
<g id="node11" class="node">
<title>p0x7f9c3b002730</title>
<ellipse fill="none" stroke="#000000" cx="1415" cy="-447.6" rx="27" ry="18"/>
<text text-anchor="middle" x="1415" y="-443.4" font-family="Times,serif" font-size="14.00" fill="#000000">1</text>
</g>
<!-- p0x7f9c3b002730&#45;&gt;p0x7f9c3b002610 -->
<g id="edge10" class="edge">
<title>p0x7f9c3b002730-&gt;p0x7f9c3b002610</title>
<path fill="none" stroke="#000000" d="M1409.5324,-429.7391C1403.6305,-410.4598 1394.1603,-379.5235 1387.3308,-357.2141"/>
<polygon fill="#000000" stroke="#000000" points="1390.675,-356.1812 1384.4011,-347.6437 1383.9816,-358.2302 1390.675,-356.1812"/>
</g>
<!-- p0x7f9c3b002850 -->
<g id="node12" class="node">
<title>p0x7f9c3b002850</title>
<ellipse fill="none" stroke="#000000" cx="1343" cy="-447.6" rx="27" ry="18"/>
<text text-anchor="middle" x="1343" y="-443.4" font-family="Times,serif" font-size="14.00" fill="#000000">0</text>
</g>
<!-- p0x7f9c3b002850&#45;&gt;p0x7f9c3b002610 -->
<g id="edge11" class="edge">
<title>p0x7f9c3b002850-&gt;p0x7f9c3b002610</title>
<path fill="none" stroke="#000000" d="M1348.4676,-429.7391C1354.3695,-410.4598 1363.8397,-379.5235 1370.6692,-357.2141"/>
<polygon fill="#000000" stroke="#000000" points="1374.0184,-358.2302 1373.5989,-347.6437 1367.325,-356.1812 1374.0184,-358.2302"/>
</g>
<!-- p0x7f9c3b001f50 -->
<g id="node13" class="node">
<title>p0x7f9c3b001f50</title>
<ellipse fill="none" stroke="#000000" cx="1143" cy="-258" rx="27" ry="18"/>
<text text-anchor="middle" x="1143" y="-253.8" font-family="Times,serif" font-size="14.00" fill="#000000">3</text>
</g>
<!-- p0x7f9c3b001f50&#45;&gt;p0x7f9c3a81fa30 -->
<g id="edge12" class="edge">
<title>p0x7f9c3b001f50-&gt;p0x7f9c3a81fa30</title>
<path fill="none" stroke="#000000" d="M1143,-239.8314C1143,-232.131 1143,-222.9743 1143,-214.4166"/>
<polygon fill="#000000" stroke="#000000" points="1146.5001,-214.4132 1143,-204.4133 1139.5001,-214.4133 1146.5001,-214.4132"/>
</g>
<!-- p0x7f9c3b002070 -->
<g id="node14" class="node">
<title>p0x7f9c3b002070</title>
<ellipse fill="none" stroke="#000000" cx="1179" cy="-330" rx="27" ry="18"/>
<text text-anchor="middle" x="1179" y="-325.8" font-family="Times,serif" font-size="14.00" fill="#000000">2</text>
</g>
<!-- p0x7f9c3b002070&#45;&gt;p0x7f9c3b001f50 -->
<g id="edge13" class="edge">
<title>p0x7f9c3b002070-&gt;p0x7f9c3b001f50</title>
<path fill="none" stroke="#000000" d="M1170.2854,-312.5708C1166.0403,-304.0807 1160.8464,-293.6929 1156.1337,-284.2674"/>
<polygon fill="#000000" stroke="#000000" points="1159.237,-282.6477 1151.6343,-275.2687 1152.976,-285.7782 1159.237,-282.6477"/>
</g>
<!-- p0x7f9c3b0022b0 -->
<g id="node15" class="node">
<title>p0x7f9c3b0022b0</title>
<ellipse fill="none" stroke="#000000" cx="1249" cy="-447.6" rx="27" ry="18"/>
<text text-anchor="middle" x="1249" y="-443.4" font-family="Times,serif" font-size="14.00" fill="#000000">1</text>
</g>
<!-- p0x7f9c3b0022b0&#45;&gt;p0x7f9c3b002070 -->
<g id="edge14" class="edge">
<title>p0x7f9c3b0022b0-&gt;p0x7f9c3b002070</title>
<path fill="none" stroke="#000000" d="M1238.9707,-430.7508C1227.2751,-411.1022 1207.8173,-378.4131 1194.2482,-355.617"/>
<polygon fill="#000000" stroke="#000000" points="1197.1331,-353.6207 1189.0107,-346.818 1191.118,-357.2011 1197.1331,-353.6207"/>
</g>
<!-- p0x7f9c3b0023d0 -->
<g id="node16" class="node">
<title>p0x7f9c3b0023d0</title>
<ellipse fill="none" stroke="#000000" cx="1177" cy="-447.6" rx="27" ry="18"/>
<text text-anchor="middle" x="1177" y="-443.4" font-family="Times,serif" font-size="14.00" fill="#000000">0</text>
</g>
<!-- p0x7f9c3b0023d0&#45;&gt;p0x7f9c3b002070 -->
<g id="edge15" class="edge">
<title>p0x7f9c3b0023d0-&gt;p0x7f9c3b002070</title>
<path fill="none" stroke="#000000" d="M1177.3081,-429.4827C1177.6302,-410.5466 1178.14,-380.5692 1178.5159,-358.4666"/>
<polygon fill="#000000" stroke="#000000" points="1182.0176,-358.3897 1178.6882,-348.3316 1175.0186,-358.2706 1182.0176,-358.3897"/>
</g>
<!-- p0x7f9c3b002190 -->
<g id="node17" class="node">
<title>p0x7f9c3b002190</title>
<ellipse fill="none" stroke="#000000" cx="1107" cy="-330" rx="27" ry="18"/>
<text text-anchor="middle" x="1107" y="-325.8" font-family="Times,serif" font-size="14.00" fill="#000000">1</text>
</g>
<!-- p0x7f9c3b002190&#45;&gt;p0x7f9c3b001f50 -->
<g id="edge16" class="edge">
<title>p0x7f9c3b002190-&gt;p0x7f9c3b001f50</title>
<path fill="none" stroke="#000000" d="M1115.7146,-312.5708C1119.9597,-304.0807 1125.1536,-293.6929 1129.8663,-284.2674"/>
<polygon fill="#000000" stroke="#000000" points="1133.024,-285.7782 1134.3657,-275.2687 1126.763,-282.6477 1133.024,-285.7782"/>
</g>
<!-- p0x7f9c3a81fb50 -->
<g id="node18" class="node">
<title>p0x7f9c3a81fb50</title>
<ellipse fill="none" stroke="#000000" cx="824" cy="-186" rx="27" ry="18"/>
<text text-anchor="middle" x="824" y="-181.8" font-family="Times,serif" font-size="14.00" fill="#000000">4</text>
</g>
<!-- p0x7f9c3a81fb50&#45;&gt;p0x7f9c3b800030 -->
<g id="edge17" class="edge">
<title>p0x7f9c3a81fb50-&gt;p0x7f9c3b800030</title>
<path fill="none" stroke="#000000" d="M824,-167.8314C824,-160.131 824,-150.9743 824,-142.4166"/>
<polygon fill="#000000" stroke="#000000" points="827.5001,-142.4132 824,-132.4133 820.5001,-142.4133 827.5001,-142.4132"/>
</g>
<!-- p0x7f9c3a81fc70 -->
<g id="node19" class="node">
<title>p0x7f9c3a81fc70</title>
<ellipse fill="none" stroke="#000000" cx="863" cy="-258" rx="27" ry="18"/>
<text text-anchor="middle" x="863" y="-253.8" font-family="Times,serif" font-size="14.00" fill="#000000">3</text>
</g>
<!-- p0x7f9c3a81fc70&#45;&gt;p0x7f9c3a81fb50 -->
<g id="edge18" class="edge">
<title>p0x7f9c3a81fc70-&gt;p0x7f9c3a81fb50</title>
<path fill="none" stroke="#000000" d="M853.7575,-240.937C849.0463,-232.2393 843.2183,-221.4799 837.9722,-211.7948"/>
<polygon fill="#000000" stroke="#000000" points="841.0165,-210.0664 833.1761,-202.9405 834.8615,-213.4005 841.0165,-210.0664"/>
</g>
<!-- p0x7f9c3a8200f0 -->
<g id="node20" class="node">
<title>p0x7f9c3a8200f0</title>
<ellipse fill="none" stroke="#000000" cx="935" cy="-330" rx="27" ry="18"/>
<text text-anchor="middle" x="935" y="-325.8" font-family="Times,serif" font-size="14.00" fill="#000000">2</text>
</g>
<!-- p0x7f9c3a8200f0&#45;&gt;p0x7f9c3a81fc70 -->
<g id="edge19" class="edge">
<title>p0x7f9c3a8200f0-&gt;p0x7f9c3a81fc70</title>
<path fill="none" stroke="#000000" d="M919.7307,-314.7307C909.803,-304.803 896.6847,-291.6847 885.5637,-280.5637"/>
<polygon fill="#000000" stroke="#000000" points="887.7933,-277.8436 878.2473,-273.2473 882.8436,-282.7933 887.7933,-277.8436"/>
</g>
<!-- p0x7f9c3a820330 -->
<g id="node21" class="node">
<title>p0x7f9c3a820330</title>
<ellipse fill="none" stroke="#000000" cx="1005" cy="-447.6" rx="27" ry="18"/>
<text text-anchor="middle" x="1005" y="-443.4" font-family="Times,serif" font-size="14.00" fill="#000000">1</text>
</g>
<!-- p0x7f9c3a820330&#45;&gt;p0x7f9c3a8200f0 -->
<g id="edge20" class="edge">
<title>p0x7f9c3a820330-&gt;p0x7f9c3a8200f0</title>
<path fill="none" stroke="#000000" d="M994.9707,-430.7508C983.2751,-411.1022 963.8173,-378.4131 950.2482,-355.617"/>
<polygon fill="#000000" stroke="#000000" points="953.1331,-353.6207 945.0107,-346.818 947.118,-357.2011 953.1331,-353.6207"/>
</g>
<!-- p0x7f9c3a820450 -->
<g id="node22" class="node">
<title>p0x7f9c3a820450</title>
<ellipse fill="none" stroke="#000000" cx="933" cy="-447.6" rx="27" ry="18"/>
<text text-anchor="middle" x="933" y="-443.4" font-family="Times,serif" font-size="14.00" fill="#000000">0</text>
</g>
<!-- p0x7f9c3a820450&#45;&gt;p0x7f9c3a8200f0 -->
<g id="edge21" class="edge">
<title>p0x7f9c3a820450-&gt;p0x7f9c3a8200f0</title>
<path fill="none" stroke="#000000" d="M933.3081,-429.4827C933.6302,-410.5466 934.14,-380.5692 934.5159,-358.4666"/>
<polygon fill="#000000" stroke="#000000" points="938.0176,-358.3897 934.6882,-348.3316 931.0186,-358.2706 938.0176,-358.3897"/>
</g>
<!-- p0x7f9c3a820210 -->
<g id="node23" class="node">
<title>p0x7f9c3a820210</title>
<ellipse fill="none" stroke="#000000" cx="863" cy="-330" rx="27" ry="18"/>
<text text-anchor="middle" x="863" y="-325.8" font-family="Times,serif" font-size="14.00" fill="#000000">1</text>
</g>
<!-- p0x7f9c3a820210&#45;&gt;p0x7f9c3a81fc70 -->
<g id="edge22" class="edge">
<title>p0x7f9c3a820210-&gt;p0x7f9c3a81fc70</title>
<path fill="none" stroke="#000000" d="M863,-311.8314C863,-304.131 863,-294.9743 863,-286.4166"/>
<polygon fill="#000000" stroke="#000000" points="866.5001,-286.4132 863,-276.4133 859.5001,-286.4133 866.5001,-286.4132"/>
</g>
<!-- p0x7f9c3a81fd90 -->
<g id="node24" class="node">
<title>p0x7f9c3a81fd90</title>
<ellipse fill="none" stroke="#000000" cx="785" cy="-258" rx="27" ry="18"/>
<text text-anchor="middle" x="785" y="-253.8" font-family="Times,serif" font-size="14.00" fill="#000000">2</text>
</g>
<!-- p0x7f9c3a81fd90&#45;&gt;p0x7f9c3a81fb50 -->
<g id="edge23" class="edge">
<title>p0x7f9c3a81fd90-&gt;p0x7f9c3a81fb50</title>
<path fill="none" stroke="#000000" d="M794.2425,-240.937C798.9537,-232.2393 804.7817,-221.4799 810.0278,-211.7948"/>
<polygon fill="#000000" stroke="#000000" points="813.1385,-213.4005 814.8239,-202.9405 806.9835,-210.0664 813.1385,-213.4005"/>
</g>
<!-- p0x7f9c3a81feb0 -->
<g id="node25" class="node">
<title>p0x7f9c3a81feb0</title>
<ellipse fill="none" stroke="#000000" cx="785" cy="-330" rx="27" ry="18"/>
<text text-anchor="middle" x="785" y="-325.8" font-family="Times,serif" font-size="14.00" fill="#000000">1</text>
</g>
<!-- p0x7f9c3a81feb0&#45;&gt;p0x7f9c3a81fd90 -->
<g id="edge24" class="edge">
<title>p0x7f9c3a81feb0-&gt;p0x7f9c3a81fd90</title>
<path fill="none" stroke="#000000" d="M785,-311.8314C785,-304.131 785,-294.9743 785,-286.4166"/>
<polygon fill="#000000" stroke="#000000" points="788.5001,-286.4132 785,-276.4133 781.5001,-286.4133 788.5001,-286.4132"/>
</g>
<!-- p0x7f9c3a81ffd0 -->
<g id="node26" class="node">
<title>p0x7f9c3a81ffd0</title>
<ellipse fill="none" stroke="#000000" cx="713" cy="-330" rx="27" ry="18"/>
<text text-anchor="middle" x="713" y="-325.8" font-family="Times,serif" font-size="14.00" fill="#000000">0</text>
</g>
<!-- p0x7f9c3a81ffd0&#45;&gt;p0x7f9c3a81fd90 -->
<g id="edge25" class="edge">
<title>p0x7f9c3a81ffd0-&gt;p0x7f9c3a81fd90</title>
<path fill="none" stroke="#000000" d="M728.2693,-314.7307C738.197,-304.803 751.3153,-291.6847 762.4363,-280.5637"/>
<polygon fill="#000000" stroke="#000000" points="765.1564,-282.7933 769.7527,-273.2473 760.2067,-277.8436 765.1564,-282.7933"/>
</g>
<!-- p0x7f9c3b800150 -->
<g id="node27" class="node">
<title>p0x7f9c3b800150</title>
<ellipse fill="none" stroke="#000000" cx="414" cy="-114" rx="27" ry="18"/>
<text text-anchor="middle" x="414" y="-109.8" font-family="Times,serif" font-size="14.00" fill="#000000">5</text>
</g>
<!-- p0x7f9c3b800150&#45;&gt;p0x7f9c3a80f830 -->
<g id="edge26" class="edge">
<title>p0x7f9c3b800150-&gt;p0x7f9c3a80f830</title>
<path fill="none" stroke="#000000" d="M437.9173,-105.5998C474.3122,-92.8172 543.7412,-68.4324 585.2533,-53.8525"/>
<polygon fill="#000000" stroke="#000000" points="586.643,-57.0741 594.9181,-50.458 584.3233,-50.4696 586.643,-57.0741"/>
</g>
<!-- p0x7f9c3b800270 -->
<g id="node28" class="node">
<title>p0x7f9c3b800270</title>
<ellipse fill="none" stroke="#000000" cx="414" cy="-186" rx="27" ry="18"/>
<text text-anchor="middle" x="414" y="-181.8" font-family="Times,serif" font-size="14.00" fill="#000000">4</text>
</g>
<!-- p0x7f9c3b800270&#45;&gt;p0x7f9c3b800150 -->
<g id="edge27" class="edge">
<title>p0x7f9c3b800270-&gt;p0x7f9c3b800150</title>
<path fill="none" stroke="#000000" d="M414,-167.8314C414,-160.131 414,-150.9743 414,-142.4166"/>
<polygon fill="#000000" stroke="#000000" points="417.5001,-142.4132 414,-132.4133 410.5001,-142.4133 417.5001,-142.4132"/>
</g>
<!-- p0x7f9c3b800930 -->
<g id="node29" class="node">
<title>p0x7f9c3b800930</title>
<ellipse fill="none" stroke="#000000" cx="453" cy="-258" rx="27" ry="18"/>
<text text-anchor="middle" x="453" y="-253.8" font-family="Times,serif" font-size="14.00" fill="#000000">3</text>
</g>
<!-- p0x7f9c3b800930&#45;&gt;p0x7f9c3b800270 -->
<g id="edge28" class="edge">
<title>p0x7f9c3b800930-&gt;p0x7f9c3b800270</title>
<path fill="none" stroke="#000000" d="M443.7575,-240.937C439.0463,-232.2393 433.2183,-221.4799 427.9722,-211.7948"/>
<polygon fill="#000000" stroke="#000000" points="431.0165,-210.0664 423.1761,-202.9405 424.8615,-213.4005 431.0165,-210.0664"/>
</g>
<!-- p0x7f9c3b800db0 -->
<g id="node30" class="node">
<title>p0x7f9c3b800db0</title>
<ellipse fill="none" stroke="#000000" cx="525" cy="-330" rx="27" ry="18"/>
<text text-anchor="middle" x="525" y="-325.8" font-family="Times,serif" font-size="14.00" fill="#000000">2</text>
</g>
<!-- p0x7f9c3b800db0&#45;&gt;p0x7f9c3b800930 -->
<g id="edge29" class="edge">
<title>p0x7f9c3b800db0-&gt;p0x7f9c3b800930</title>
<path fill="none" stroke="#000000" d="M509.7307,-314.7307C499.803,-304.803 486.6847,-291.6847 475.5637,-280.5637"/>
<polygon fill="#000000" stroke="#000000" points="477.7933,-277.8436 468.2473,-273.2473 472.8436,-282.7933 477.7933,-277.8436"/>
</g>
<!-- p0x7f9c3b800ff0 -->
<g id="node31" class="node">
<title>p0x7f9c3b800ff0</title>
<ellipse fill="none" stroke="#000000" cx="595" cy="-447.6" rx="27" ry="18"/>
<text text-anchor="middle" x="595" y="-443.4" font-family="Times,serif" font-size="14.00" fill="#000000">1</text>
</g>
<!-- p0x7f9c3b800ff0&#45;&gt;p0x7f9c3b800db0 -->
<g id="edge30" class="edge">
<title>p0x7f9c3b800ff0-&gt;p0x7f9c3b800db0</title>
<path fill="none" stroke="#000000" d="M584.9707,-430.7508C573.2751,-411.1022 553.8173,-378.4131 540.2482,-355.617"/>
<polygon fill="#000000" stroke="#000000" points="543.1331,-353.6207 535.0107,-346.818 537.118,-357.2011 543.1331,-353.6207"/>
</g>
<!-- p0x7f9c3b801110 -->
<g id="node32" class="node">
<title>p0x7f9c3b801110</title>
<ellipse fill="none" stroke="#000000" cx="523" cy="-447.6" rx="27" ry="18"/>
<text text-anchor="middle" x="523" y="-443.4" font-family="Times,serif" font-size="14.00" fill="#000000">0</text>
</g>
<!-- p0x7f9c3b801110&#45;&gt;p0x7f9c3b800db0 -->
<g id="edge31" class="edge">
<title>p0x7f9c3b801110-&gt;p0x7f9c3b800db0</title>
<path fill="none" stroke="#000000" d="M523.3081,-429.4827C523.6302,-410.5466 524.14,-380.5692 524.5159,-358.4666"/>
<polygon fill="#000000" stroke="#000000" points="528.0176,-358.3897 524.6882,-348.3316 521.0186,-358.2706 528.0176,-358.3897"/>
</g>
<!-- p0x7f9c3b800ed0 -->
<g id="node33" class="node">
<title>p0x7f9c3b800ed0</title>
<ellipse fill="none" stroke="#000000" cx="453" cy="-330" rx="27" ry="18"/>
<text text-anchor="middle" x="453" y="-325.8" font-family="Times,serif" font-size="14.00" fill="#000000">1</text>
</g>
<!-- p0x7f9c3b800ed0&#45;&gt;p0x7f9c3b800930 -->
<g id="edge32" class="edge">
<title>p0x7f9c3b800ed0-&gt;p0x7f9c3b800930</title>
<path fill="none" stroke="#000000" d="M453,-311.8314C453,-304.131 453,-294.9743 453,-286.4166"/>
<polygon fill="#000000" stroke="#000000" points="456.5001,-286.4132 453,-276.4133 449.5001,-286.4133 456.5001,-286.4132"/>
</g>
<!-- p0x7f9c3b800a50 -->
<g id="node34" class="node">
<title>p0x7f9c3b800a50</title>
<ellipse fill="none" stroke="#000000" cx="375" cy="-258" rx="27" ry="18"/>
<text text-anchor="middle" x="375" y="-253.8" font-family="Times,serif" font-size="14.00" fill="#000000">2</text>
</g>
<!-- p0x7f9c3b800a50&#45;&gt;p0x7f9c3b800270 -->
<g id="edge33" class="edge">
<title>p0x7f9c3b800a50-&gt;p0x7f9c3b800270</title>
<path fill="none" stroke="#000000" d="M384.2425,-240.937C388.9537,-232.2393 394.7817,-221.4799 400.0278,-211.7948"/>
<polygon fill="#000000" stroke="#000000" points="403.1385,-213.4005 404.8239,-202.9405 396.9835,-210.0664 403.1385,-213.4005"/>
</g>
<!-- p0x7f9c3b800b70 -->
<g id="node35" class="node">
<title>p0x7f9c3b800b70</title>
<ellipse fill="none" stroke="#000000" cx="375" cy="-330" rx="27" ry="18"/>
<text text-anchor="middle" x="375" y="-325.8" font-family="Times,serif" font-size="14.00" fill="#000000">1</text>
</g>
<!-- p0x7f9c3b800b70&#45;&gt;p0x7f9c3b800a50 -->
<g id="edge34" class="edge">
<title>p0x7f9c3b800b70-&gt;p0x7f9c3b800a50</title>
<path fill="none" stroke="#000000" d="M375,-311.8314C375,-304.131 375,-294.9743 375,-286.4166"/>
<polygon fill="#000000" stroke="#000000" points="378.5001,-286.4132 375,-276.4133 371.5001,-286.4133 378.5001,-286.4132"/>
</g>
<!-- p0x7f9c3b800c90 -->
<g id="node36" class="node">
<title>p0x7f9c3b800c90</title>
<ellipse fill="none" stroke="#000000" cx="303" cy="-330" rx="27" ry="18"/>
<text text-anchor="middle" x="303" y="-325.8" font-family="Times,serif" font-size="14.00" fill="#000000">0</text>
</g>
<!-- p0x7f9c3b800c90&#45;&gt;p0x7f9c3b800a50 -->
<g id="edge35" class="edge">
<title>p0x7f9c3b800c90-&gt;p0x7f9c3b800a50</title>
<path fill="none" stroke="#000000" d="M318.2693,-314.7307C328.197,-304.803 341.3153,-291.6847 352.4363,-280.5637"/>
<polygon fill="#000000" stroke="#000000" points="355.1564,-282.7933 359.7527,-273.2473 350.2067,-277.8436 355.1564,-282.7933"/>
</g>
<!-- p0x7f9c3b800390 -->
<g id="node37" class="node">
<title>p0x7f9c3b800390</title>
<ellipse fill="none" stroke="#000000" cx="174" cy="-186" rx="27" ry="18"/>
<text text-anchor="middle" x="174" y="-181.8" font-family="Times,serif" font-size="14.00" fill="#000000">3</text>
</g>
<!-- p0x7f9c3b800390&#45;&gt;p0x7f9c3b800150 -->
<g id="edge36" class="edge">
<title>p0x7f9c3b800390-&gt;p0x7f9c3b800150</title>
<path fill="none" stroke="#000000" d="M198.3517,-178.112C214.6394,-172.8773 236.5674,-165.9087 256,-160 298.2997,-147.1384 347.1954,-133.0171 379.2554,-123.859"/>
<polygon fill="#000000" stroke="#000000" points="380.3864,-127.1761 389.0433,-121.0679 378.4668,-120.4445 380.3864,-127.1761"/>
</g>
<!-- p0x7f9c3b8004b0 -->
<g id="node38" class="node">
<title>p0x7f9c3b8004b0</title>
<ellipse fill="none" stroke="#000000" cx="174" cy="-258" rx="27" ry="18"/>
<text text-anchor="middle" x="174" y="-253.8" font-family="Times,serif" font-size="14.00" fill="#000000">2</text>
</g>
<!-- p0x7f9c3b8004b0&#45;&gt;p0x7f9c3b800390 -->
<g id="edge37" class="edge">
<title>p0x7f9c3b8004b0-&gt;p0x7f9c3b800390</title>
<path fill="none" stroke="#000000" d="M174,-239.8314C174,-232.131 174,-222.9743 174,-214.4166"/>
<polygon fill="#000000" stroke="#000000" points="177.5001,-214.4132 174,-204.4133 170.5001,-214.4133 177.5001,-214.4132"/>
</g>
<!-- p0x7f9c3b8006f0 -->
<g id="node39" class="node">
<title>p0x7f9c3b8006f0</title>
<ellipse fill="none" stroke="#000000" cx="209" cy="-330" rx="27" ry="18"/>
<text text-anchor="middle" x="209" y="-325.8" font-family="Times,serif" font-size="14.00" fill="#000000">1</text>
</g>
<!-- p0x7f9c3b8006f0&#45;&gt;p0x7f9c3b8004b0 -->
<g id="edge38" class="edge">
<title>p0x7f9c3b8006f0-&gt;p0x7f9c3b8004b0</title>
<path fill="none" stroke="#000000" d="M200.5275,-312.5708C196.4003,-304.0807 191.3507,-293.6929 186.7689,-284.2674"/>
<polygon fill="#000000" stroke="#000000" points="189.9143,-282.7322 182.3945,-275.2687 183.6187,-285.7926 189.9143,-282.7322"/>
</g>
<!-- p0x7f9c3b800810 -->
<g id="node40" class="node">
<title>p0x7f9c3b800810</title>
<ellipse fill="none" stroke="#000000" cx="137" cy="-330" rx="27" ry="18"/>
<text text-anchor="middle" x="137" y="-325.8" font-family="Times,serif" font-size="14.00" fill="#000000">0</text>
</g>
<!-- p0x7f9c3b800810&#45;&gt;p0x7f9c3b8004b0 -->
<g id="edge39" class="edge">
<title>p0x7f9c3b800810-&gt;p0x7f9c3b8004b0</title>
<path fill="none" stroke="#000000" d="M145.7685,-312.937C150.1279,-304.4537 155.4953,-294.0092 160.3753,-284.513"/>
<polygon fill="#000000" stroke="#000000" points="163.5797,-285.9348 165.0374,-275.4407 157.3537,-282.7352 163.5797,-285.9348"/>
</g>
<!-- p0x7f9c3b8005d0 -->
<g id="node41" class="node">
<title>p0x7f9c3b8005d0</title>
<ellipse fill="none" stroke="#000000" cx="67" cy="-258" rx="27" ry="18"/>
<text text-anchor="middle" x="67" y="-253.8" font-family="Times,serif" font-size="14.00" fill="#000000">1</text>
</g>
<!-- p0x7f9c3b8005d0&#45;&gt;p0x7f9c3b800390 -->
<g id="edge40" class="edge">
<title>p0x7f9c3b8005d0-&gt;p0x7f9c3b800390</title>
<path fill="none" stroke="#000000" d="M83.3559,-243.4818C87.9768,-239.603 93.0873,-235.5153 98,-232 112.7132,-221.4718 129.9001,-210.9337 144.2044,-202.6052"/>
<polygon fill="#000000" stroke="#000000" points="146.207,-205.4912 153.1331,-197.4736 142.7189,-199.4221 146.207,-205.4912"/>
</g>
</g>
</svg>