<?xml version="1.0" encoding="UTF-8" standalone="no"?>
<!DOCTYPE svg PUBLIC "-//W3C//DTD SVG 1.1//EN"
 "http://www.w3.org/Graphics/SVG/1.1/DTD/svg11.dtd">
<!-- Generated by graphviz version 2.40.1 (20161225.0304)
 -->
<!-- Title: Taskflow Pages: 1 -->
<svg width="1054pt" height="173pt"
 viewBox="0.00 0.00 1054.00 172.80" xmlns="http://www.w3.org/2000/svg" xmlns:xlink="http://www.w3.org/1999/xlink">
<g id="graph0" class="graph" transform="scale(1 1) rotate(0) translate(4 168.8)">
<title>Taskflow</title>
<polygon fill="#ffffff" stroke="transparent" points="-4,4 -4,-168.8 1050,-168.8 1050,4 -4,4"/>
<g id="clust1" class="cluster">
<title>cluster_p0x7ffee0bae020</title>
<polygon fill="none" stroke="#000000" points="8,-8 8,-156.8 176,-156.8 176,-8 8,-8"/>
<text text-anchor="middle" x="92" y="-140.2" font-family="Times,serif" font-size="14.00" fill="#000000">Taskflow: F4</text>
</g>
<g id="clust2" class="cluster">
<title>cluster_p0x7ffee0badd80</title>
<polygon fill="none" stroke="#000000" points="184,-8 184,-156.8 496,-156.8 496,-8 184,-8"/>
<text text-anchor="middle" x="340" y="-140.2" font-family="Times,serif" font-size="14.00" fill="#000000">Taskflow: F2</text>
</g>
<g id="clust3" class="cluster">
<title>cluster_p0x7ffee0badce0</title>
<polygon fill="none" stroke="#000000" points="504,-80 504,-156.8 790,-156.8 790,-80 504,-80"/>
<text text-anchor="middle" x="647" y="-140.2" font-family="Times,serif" font-size="14.00" fill="#000000">Taskflow: F1</text>
</g>
<g id="clust4" class="cluster">
<title>cluster_p0x7ffee0bade20</title>
<polygon fill="none" stroke="#000000" points="798,-80 798,-156.8 1038,-156.8 1038,-80 798,-80"/>
<text text-anchor="middle" x="918" y="-140.2" font-family="Times,serif" font-size="14.00" fill="#000000">Taskflow: F3</text>
</g>
<!-- p0x7f9ec5801238 -->
<g id="node1" class="node">
<title>p0x7f9ec5801238</title>
<polygon fill="none" stroke="#0000ff" points="168.3599,-124 19.6401,-124 15.6401,-120 15.6401,-88 164.3599,-88 168.3599,-92 168.3599,-124"/>
<polyline fill="none" stroke="#0000ff" points="164.3599,-120 15.6401,-120 "/>
<polyline fill="none" stroke="#0000ff" points="164.3599,-120 164.3599,-88 "/>
<polyline fill="none" stroke="#0000ff" points="164.3599,-120 168.3599,-124 "/>
<text text-anchor="middle" x="92" y="-101.8" font-family="Times,serif" font-size="14.00" fill="#000000">module3 [Taskflow: F3]</text>
</g>
<!-- p0x7f9ec5801338 -->
<g id="node2" class="node">
<title>p0x7f9ec5801338</title>
<polygon fill="none" stroke="#0000ff" points="168.3599,-52 19.6401,-52 15.6401,-48 15.6401,-16 164.3599,-16 168.3599,-20 168.3599,-52"/>
<polyline fill="none" stroke="#0000ff" points="164.3599,-48 15.6401,-48 "/>
<polyline fill="none" stroke="#0000ff" points="164.3599,-48 164.3599,-16 "/>
<polyline fill="none" stroke="#0000ff" points="164.3599,-48 168.3599,-52 "/>
<text text-anchor="middle" x="92" y="-29.8" font-family="Times,serif" font-size="14.00" fill="#000000">module2 [Taskflow: F2]</text>
</g>
<!-- p0x7f9ec5801238&#45;&gt;p0x7f9ec5801338 -->
<g id="edge1" class="edge">
<title>p0x7f9ec5801238&#45;&gt;p0x7f9ec5801338</title>
<path fill="none" stroke="#000000" d="M92,-87.8314C92,-80.131 92,-70.9743 92,-62.4166"/>
<polygon fill="#000000" stroke="#000000" points="95.5001,-62.4132 92,-52.4133 88.5001,-62.4133 95.5001,-62.4132"/>
</g>
<!-- p0x7f9ec5800a38 -->
<g id="node3" class="node">
<title>p0x7f9ec5800a38</title>
<ellipse fill="none" stroke="#000000" cx="461" cy="-106" rx="27" ry="18"/>
<text text-anchor="middle" x="461" y="-101.8" font-family="Times,serif" font-size="14.00" fill="#000000">f2A</text>
</g>
<!-- p0x7f9ec5801038 -->
<g id="node4" class="node">
<title>p0x7f9ec5801038</title>
<ellipse fill="none" stroke="#000000" cx="389" cy="-34" rx="27" ry="18"/>
<text text-anchor="middle" x="389" y="-29.8" font-family="Times,serif" font-size="14.00" fill="#000000">f2C</text>
</g>
<!-- p0x7f9ec5800a38&#45;&gt;p0x7f9ec5801038 -->
<g id="edge2" class="edge">
<title>p0x7f9ec5800a38&#45;&gt;p0x7f9ec5801038</title>
<path fill="none" stroke="#000000" d="M445.7307,-90.7307C435.803,-80.803 422.6847,-67.6847 411.5637,-56.5637"/>
<polygon fill="#000000" stroke="#000000" points="413.7933,-53.8436 404.2473,-49.2473 408.8436,-58.7933 413.7933,-53.8436"/>
</g>
<!-- p0x7f9ec5801138 -->
<g id="node5" class="node">
<title>p0x7f9ec5801138</title>
<ellipse fill="none" stroke="#000000" cx="389" cy="-106" rx="27" ry="18"/>
<text text-anchor="middle" x="389" y="-101.8" font-family="Times,serif" font-size="14.00" fill="#000000">f2B</text>
</g>
<!-- p0x7f9ec5801138&#45;&gt;p0x7f9ec5801038 -->
<g id="edge3" class="edge">
<title>p0x7f9ec5801138&#45;&gt;p0x7f9ec5801038</title>
<path fill="none" stroke="#000000" d="M389,-87.8314C389,-80.131 389,-70.9743 389,-62.4166"/>
<polygon fill="#000000" stroke="#000000" points="392.5001,-62.4132 389,-52.4133 385.5001,-62.4133 392.5001,-62.4132"/>
</g>
<!-- p0x7f9ec5800f38 -->
<g id="node6" class="node">
<title>p0x7f9ec5800f38</title>
<polygon fill="none" stroke="#0000ff" points="344.3599,-124 195.6401,-124 191.6401,-120 191.6401,-88 340.3599,-88 344.3599,-92 344.3599,-124"/>
<polyline fill="none" stroke="#0000ff" points="340.3599,-120 191.6401,-120 "/>
<polyline fill="none" stroke="#0000ff" points="340.3599,-120 340.3599,-88 "/>
<polyline fill="none" stroke="#0000ff" points="340.3599,-120 344.3599,-124 "/>
<text text-anchor="middle" x="268" y="-101.8" font-family="Times,serif" font-size="14.00" fill="#000000">module1 [Taskflow: F1]</text>
</g>
<!-- p0x7f9ec5800f38&#45;&gt;p0x7f9ec5801038 -->
<g id="edge4" class="edge">
<title>p0x7f9ec5800f38&#45;&gt;p0x7f9ec5801038</title>
<path fill="none" stroke="#000000" d="M298.5334,-87.8314C317.4252,-76.5899 341.5325,-62.2451 360.1101,-51.1907"/>
<polygon fill="#000000" stroke="#000000" points="361.9349,-54.1777 368.7388,-46.0563 358.3553,-48.1621 361.9349,-54.1777"/>
</g>
<!-- p0xa -->
<g id="node7" class="node">
<title>p0xa</title>
<ellipse fill="none" stroke="#000000" cx="755" cy="-106" rx="27" ry="18"/>
<text text-anchor="middle" x="755" y="-101.8" font-family="Times,serif" font-size="14.00" fill="#000000">f1A</text>
</g>
<!-- p0xb -->
<g id="node8" class="node">
<title>p0xb</title>
<ellipse fill="none" stroke="#000000" cx="683" cy="-106" rx="27" ry="18"/>
<text text-anchor="middle" x="683" y="-101.8" font-family="Times,serif" font-size="14.00" fill="#000000">f1B</text>
</g>
<!-- p0xc -->
<g id="node9" class="node">
<title>p0xc</title>
<ellipse fill="none" stroke="#000000" cx="611" cy="-106" rx="27" ry="18"/>
<text text-anchor="middle" x="611" y="-101.8" font-family="Times,serif" font-size="14.00" fill="#000000">f1C</text>
</g>
<!-- p0xd -->
<g id="node10" class="node">
<title>p0xd</title>
<ellipse fill="none" stroke="#000000" cx="539" cy="-106" rx="27" ry="18"/>
<text text-anchor="middle" x="539" y="-101.8" font-family="Times,serif" font-size="14.00" fill="#000000">f1D</text>
</g>
<!-- p0x7f9ec5800e38 -->
<g id="node11" class="node">
<title>p0x7f9ec5800e38</title>
<polygon fill="none" stroke="#0000ff" points="1030.3599,-124 881.6401,-124 877.6401,-120 877.6401,-88 1026.3599,-88 1030.3599,-92 1030.3599,-124"/>
<polyline fill="none" stroke="#0000ff" points="1026.3599,-120 877.6401,-120 "/>
<polyline fill="none" stroke="#0000ff" points="1026.3599,-120 1026.3599,-88 "/>
<polyline fill="none" stroke="#0000ff" points="1026.3599,-120 1030.3599,-124 "/>
<text text-anchor="middle" x="954" y="-101.8" font-family="Times,serif" font-size="14.00" fill="#000000">module2 [Taskflow: F2]</text>
</g>
<!-- p0x7f9ec5800d38 -->
<g id="node12" class="node">
<title>p0x7f9ec5800d38</title>
<ellipse fill="none" stroke="#000000" cx="833" cy="-106" rx="27" ry="18"/>
<text text-anchor="middle" x="833" y="-101.8" font-family="Times,serif" font-size="14.00" fill="#000000">f3A</text>
</g>
</g>
</svg>
