<svg viewBox="0 0 680 300" xmlns="http://www.w3.org/2000/svg" font-family="Helvetica, Arial, sans-serif">

  <rect width="680" height="300" fill="#FAFAFA" rx="8"/>

  <!-- Title -->
  <text x="340" y="26" text-anchor="middle" font-size="15" font-weight="bold" fill="#1a1a1a">tf::IndexRange&lt;int,3&gt;  —  2×3×4,  size() = 24</text>
  <text x="340" y="44" text-anchor="middle" font-size="12" fill="#555">dim0 (depth): 2 slices   ·   dim1 (rows): 3   ·   dim2 (cols): 4</text>

  <!-- Layout:
       Left grid:  row labels at x=32, cells x=55..315 (4 cols × 65px)
       Divider:    x=340 (25px gap after grid ends at 315)
       Right grid: row labels at x=362, cells x=385..645 (4 cols × 65px)
       Right margin: 680-645 = 35px  ✓ matches left margin ~32px
  -->

  <!-- ══════════════ Slice i=0 (blue) ══════════════ -->
  <text x="185" y="72" text-anchor="middle" font-size="13" font-weight="bold" fill="#2874A6">Slice  i=0</text>

  <!-- col headers -->
  <text x="88"  y="90" text-anchor="middle" font-size="11" fill="#555">j=0</text>
  <text x="153" y="90" text-anchor="middle" font-size="11" fill="#555">j=1</text>
  <text x="218" y="90" text-anchor="middle" font-size="11" fill="#555">j=2</text>
  <text x="283" y="90" text-anchor="middle" font-size="11" fill="#555">j=3</text>

  <!-- k=0 -->
  <text x="32" y="115" text-anchor="middle" font-size="11" fill="#555">k=0</text>
  <rect x="55"  y="100" width="65" height="38" fill="#AED6F1" stroke="#2874A6" stroke-width="1.2"/>
  <rect x="120" y="100" width="65" height="38" fill="#AED6F1" stroke="#2874A6" stroke-width="1.2"/>
  <rect x="185" y="100" width="65" height="38" fill="#AED6F1" stroke="#2874A6" stroke-width="1.2"/>
  <rect x="250" y="100" width="65" height="38" fill="#AED6F1" stroke="#2874A6" stroke-width="1.2"/>

  <!-- k=1 -->
  <text x="32" y="153" text-anchor="middle" font-size="11" fill="#555">k=1</text>
  <rect x="55"  y="138" width="65" height="38" fill="#AED6F1" stroke="#2874A6" stroke-width="1.2"/>
  <rect x="120" y="138" width="65" height="38" fill="#AED6F1" stroke="#2874A6" stroke-width="1.2"/>
  <rect x="185" y="138" width="65" height="38" fill="#AED6F1" stroke="#2874A6" stroke-width="1.2"/>
  <rect x="250" y="138" width="65" height="38" fill="#AED6F1" stroke="#2874A6" stroke-width="1.2"/>

  <!-- k=2 -->
  <text x="32" y="191" text-anchor="middle" font-size="11" fill="#555">k=2</text>
  <rect x="55"  y="176" width="65" height="38" fill="#AED6F1" stroke="#2874A6" stroke-width="1.2"/>
  <rect x="120" y="176" width="65" height="38" fill="#AED6F1" stroke="#2874A6" stroke-width="1.2"/>
  <rect x="185" y="176" width="65" height="38" fill="#AED6F1" stroke="#2874A6" stroke-width="1.2"/>
  <rect x="250" y="176" width="65" height="38" fill="#AED6F1" stroke="#2874A6" stroke-width="1.2"/>

  <!-- flat labels slice 0 -->
  <text x="88"  y="123" text-anchor="middle" font-size="11" fill="#1a5276">0</text>
  <text x="153" y="123" text-anchor="middle" font-size="11" fill="#1a5276">1</text>
  <text x="218" y="123" text-anchor="middle" font-size="11" fill="#1a5276">2</text>
  <text x="283" y="123" text-anchor="middle" font-size="11" fill="#1a5276">3</text>
  <text x="88"  y="161" text-anchor="middle" font-size="11" fill="#1a5276">4</text>
  <text x="153" y="161" text-anchor="middle" font-size="11" fill="#1a5276">5</text>
  <text x="218" y="161" text-anchor="middle" font-size="11" fill="#1a5276">6</text>
  <text x="283" y="161" text-anchor="middle" font-size="11" fill="#1a5276">7</text>
  <text x="88"  y="199" text-anchor="middle" font-size="11" fill="#1a5276">8</text>
  <text x="153" y="199" text-anchor="middle" font-size="11" fill="#1a5276">9</text>
  <text x="218" y="199" text-anchor="middle" font-size="11" fill="#1a5276">10</text>
  <text x="283" y="199" text-anchor="middle" font-size="11" fill="#1a5276">11</text>

  <text x="185" y="232" text-anchor="middle" font-size="11" fill="#555">flat 0–11</text>

  <!-- ══════════════ Slice i=1 (green) ══════════════ -->
  <!-- right grid: row labels x=362, cells start x=385, end x=385+4*65=645, right margin=680-645=35 -->
  <text x="515" y="72" text-anchor="middle" font-size="13" font-weight="bold" fill="#1E8449">Slice  i=1</text>

  <!-- col headers -->
  <text x="418" y="90" text-anchor="middle" font-size="11" fill="#555">j=0</text>
  <text x="483" y="90" text-anchor="middle" font-size="11" fill="#555">j=1</text>
  <text x="548" y="90" text-anchor="middle" font-size="11" fill="#555">j=2</text>
  <text x="613" y="90" text-anchor="middle" font-size="11" fill="#555">j=3</text>

  <!-- k=0 -->
  <text x="362" y="115" text-anchor="middle" font-size="11" fill="#555">k=0</text>
  <rect x="385" y="100" width="65" height="38" fill="#A9DFBF" stroke="#1E8449" stroke-width="1.2"/>
  <rect x="450" y="100" width="65" height="38" fill="#A9DFBF" stroke="#1E8449" stroke-width="1.2"/>
  <rect x="515" y="100" width="65" height="38" fill="#A9DFBF" stroke="#1E8449" stroke-width="1.2"/>
  <rect x="580" y="100" width="65" height="38" fill="#A9DFBF" stroke="#1E8449" stroke-width="1.2"/>

  <!-- k=1 -->
  <text x="362" y="153" text-anchor="middle" font-size="11" fill="#555">k=1</text>
  <rect x="385" y="138" width="65" height="38" fill="#A9DFBF" stroke="#1E8449" stroke-width="1.2"/>
  <rect x="450" y="138" width="65" height="38" fill="#A9DFBF" stroke="#1E8449" stroke-width="1.2"/>
  <rect x="515" y="138" width="65" height="38" fill="#A9DFBF" stroke="#1E8449" stroke-width="1.2"/>
  <rect x="580" y="138" width="65" height="38" fill="#A9DFBF" stroke="#1E8449" stroke-width="1.2"/>

  <!-- k=2 -->
  <text x="362" y="191" text-anchor="middle" font-size="11" fill="#555">k=2</text>
  <rect x="385" y="176" width="65" height="38" fill="#A9DFBF" stroke="#1E8449" stroke-width="1.2"/>
  <rect x="450" y="176" width="65" height="38" fill="#A9DFBF" stroke="#1E8449" stroke-width="1.2"/>
  <rect x="515" y="176" width="65" height="38" fill="#A9DFBF" stroke="#1E8449" stroke-width="1.2"/>
  <rect x="580" y="176" width="65" height="38" fill="#A9DFBF" stroke="#1E8449" stroke-width="1.2"/>

  <!-- flat labels slice 1 -->
  <text x="418" y="123" text-anchor="middle" font-size="11" fill="#1E5631">12</text>
  <text x="483" y="123" text-anchor="middle" font-size="11" fill="#1E5631">13</text>
  <text x="548" y="123" text-anchor="middle" font-size="11" fill="#1E5631">14</text>
  <text x="613" y="123" text-anchor="middle" font-size="11" fill="#1E5631">15</text>
  <text x="418" y="161" text-anchor="middle" font-size="11" fill="#1E5631">16</text>
  <text x="483" y="161" text-anchor="middle" font-size="11" fill="#1E5631">17</text>
  <text x="548" y="161" text-anchor="middle" font-size="11" fill="#1E5631">18</text>
  <text x="613" y="161" text-anchor="middle" font-size="11" fill="#1E5631">19</text>
  <text x="418" y="199" text-anchor="middle" font-size="11" fill="#1E5631">20</text>
  <text x="483" y="199" text-anchor="middle" font-size="11" fill="#1E5631">21</text>
  <text x="548" y="199" text-anchor="middle" font-size="11" fill="#1E5631">22</text>
  <text x="613" y="199" text-anchor="middle" font-size="11" fill="#1E5631">23</text>

  <text x="515" y="232" text-anchor="middle" font-size="11" fill="#555">flat 12–23</text>

  <!-- divider: x=340, between right edge of left grid (315) and left edge of right grid (385) -->
  <line x1="340" y1="65" x2="340" y2="240" stroke="#CCCCCC" stroke-width="1.2" stroke-dasharray="5,4"/>
  <text x="340" y="256" text-anchor="middle" font-size="12" fill="#888">dim 0 →</text>

  <!-- bottom note -->
  <rect x="20" y="268" width="640" height="26" rx="5" fill="#EBF5FB" stroke="#2874A6" stroke-width="1"/>
  <text x="340" y="285" text-anchor="middle" font-size="12" fill="#1a5276">Each slice is a valid 3D sub-box: dim0=[i,i+1), dim1=[0,3), dim2=[0,4)  —  flat size = 12</text>

</svg>
