<?xml version="1.0" encoding="UTF-8" standalone="no"?><!DOCTYPE svg PUBLIC "-//W3C//DTD SVG 1.1//EN" "http://www.w3.org/Graphics/SVG/1.1/DTD/svg11.dtd"><!-- Generated by graphviz version 2.40.1 (20161225.0304)
 --><!-- Title: Taskflow Pages: 1 --><svg xmlns="http://www.w3.org/2000/svg" xmlns:xlink="http://www.w3.org/1999/xlink" width="1173pt" height="669pt" viewBox="0.00 0.00 1173.00 669.40">
<g id="graph0" class="graph" transform="scale(1 1) rotate(0) translate(4 665.4)">
<title>Taskflow</title>
<polygon fill="#ffffff" stroke="transparent" points="-4,4 -4,-665.4 1169,-665.4 1169,4 -4,4"/>
<g id="clust1" class="cluster">
<title>cluster_p0x7ffc6d58c690</title>
<polygon fill="none" stroke="#000000" points="8,-8 8,-653.4 1157,-653.4 1157,-8 8,-8"/>
<text text-anchor="middle" x="582.5" y="-636.8" font-family="Times,serif" font-size="14.00" fill="#000000">Taskflow: K-Means</text>
</g>
<g id="clust2" class="cluster">
<title>cluster_p0x1b26640</title>
<polygon fill="none" stroke="#0000ff" points="16,-356.8 16,-620.6 1149,-620.6 1149,-356.8 16,-356.8"/>
<text text-anchor="middle" x="582.5" y="-604" font-family="Times,serif" font-size="14.00" fill="#000000">Subflow: parallel-for</text>
</g>
<!-- p0x1b26420 -->
<g id="node1" class="node">
<title>p0x1b26420</title>
<ellipse fill="none" stroke="#000000" cx="527" cy="-160.8" rx="27" ry="18"/>
<text text-anchor="middle" x="527" y="-156.6" font-family="Times,serif" font-size="14.00" fill="#000000">init</text>
</g>
<!-- p0x1b26530 -->
<g id="node2" class="node">
<title>p0x1b26530</title>
<ellipse fill="none" stroke="#000000" cx="573" cy="-34" rx="45.7887" ry="18"/>
<text text-anchor="middle" x="573" y="-29.8" font-family="Times,serif" font-size="14.00" fill="#000000">clean_up</text>
</g>
<!-- p0x1b26420&#45;&gt;p0x1b26530 -->
<g id="edge1" class="edge">
<title>p0x1b26420-&gt;p0x1b26530</title>
<path fill="none" stroke="#000000" d="M533.3961,-143.169C541.0769,-121.9967 554.0475,-86.2429 563.0426,-61.4478"/>
<polygon fill="#000000" stroke="#000000" points="566.3898,-62.4842 566.5099,-51.89 559.8094,-60.0969 566.3898,-62.4842"/>
</g>
<!-- p0x1b26640 -->
<g id="node3" class="node">
<title>p0x1b26640</title>
<ellipse fill="none" stroke="#000000" cx="597" cy="-382.8" rx="54.4276" ry="18"/>
<text text-anchor="middle" x="597" y="-378.6" font-family="Times,serif" font-size="14.00" fill="#000000">parallel-for</text>
</g>
<!-- p0x1b26530&#45;&gt;p0x1b26640 -->
<g id="edge2" class="edge">
<title>p0x1b26530-&gt;p0x1b26640</title>
<path fill="none" stroke="#000000" d="M573,-52.0365C573,-64.7239 573,-82.1003 573,-97.4 573,-327.3 573,-327.3 573,-327.3 573,-337.1679 576.2358,-347.2719 580.3312,-356.1082"/>
<polygon fill="#000000" stroke="#000000" points="577.2947,-357.856 585,-365.1278 583.5113,-354.6381 577.2947,-357.856"/>
</g>
<!-- p0x1b26750 -->
<g id="node4" class="node">
<title>p0x1b26750</title>
<ellipse fill="none" stroke="#000000" cx="662" cy="-271.8" rx="67.1946" ry="18"/>
<text text-anchor="middle" x="662" y="-267.6" font-family="Times,serif" font-size="14.00" fill="#000000">update_cluster</text>
</g>
<!-- p0x1b26640&#45;&gt;p0x1b26750 -->
<g id="edge3" class="edge">
<title>p0x1b26640-&gt;p0x1b26750</title>
<path fill="none" stroke="#000000" d="M607.4434,-364.9659C617.9621,-347.0032 634.3173,-319.0735 646.3791,-298.4756"/>
<polygon fill="#000000" stroke="#000000" points="649.5496,-299.9878 651.5825,-289.5898 643.509,-296.4505 649.5496,-299.9878"/>
</g>
<!-- p0x1b26860 -->
<g id="node18" class="node">
<title>p0x1b26860</title>
<polygon fill="#7fffd4" stroke="#000000" points="671,-178.8 592.4076,-160.8 671,-142.8 749.5924,-160.8 671,-178.8"/>
<text text-anchor="middle" x="671" y="-156.6" font-family="Times,serif" font-size="14.00" fill="#000000">converged?</text>
</g>
<!-- p0x1b26750&#45;&gt;p0x1b26860 -->
<g id="edge17" class="edge">
<title>p0x1b26750-&gt;p0x1b26860</title>
<path fill="none" stroke="#000000" d="M663.4862,-253.4706C664.9081,-235.9329 667.0732,-209.2306 668.7146,-188.9867"/>
<polygon fill="#000000" stroke="#000000" points="672.2218,-189.0385 669.5415,-178.7883 665.2447,-188.4727 672.2218,-189.0385"/>
</g>
<!-- p0x7f686c000b50 -->
<g id="node5" class="node">
<title>p0x7f686c000b50</title>
<ellipse fill="none" stroke="#000000" cx="1107" cy="-569.8" rx="33.6305" ry="18"/>
<text text-anchor="middle" x="1107" y="-565.6" font-family="Times,serif" font-size="14.00" fill="#000000">pfg_0</text>
</g>
<!-- p0x7f686c000b50&#45;&gt;p0x1b26640 -->
<g id="edge4" class="edge">
<title>p0x7f686c000b50-&gt;p0x1b26640</title>
<path fill="none" stroke="#000000" d="M1094.7929,-552.6845C1088.4468,-542.1355 1082,-528.0382 1082,-514.3 1082,-514.3 1082,-514.3 1082,-438.3 1082,-396.5261 794.3249,-386.1778 662.0857,-383.6276"/>
<polygon fill="#000000" stroke="#000000" points="661.7554,-380.121 651.6929,-383.4371 661.627,-387.1199 661.7554,-380.121"/>
</g>
<!-- p0x7f686c000c60 -->
<g id="node6" class="node">
<title>p0x7f686c000c60</title>
<ellipse fill="none" stroke="#000000" cx="1022" cy="-569.8" rx="33.6305" ry="18"/>
<text text-anchor="middle" x="1022" y="-565.6" font-family="Times,serif" font-size="14.00" fill="#000000">pfg_1</text>
</g>
<!-- p0x7f686c000c60&#45;&gt;p0x1b26640 -->
<g id="edge5" class="edge">
<title>p0x7f686c000c60-&gt;p0x1b26640</title>
<path fill="none" stroke="#000000" d="M994.3925,-559.2318C976.3068,-550.3099 956,-535.559 956,-514.3 956,-514.3 956,-514.3 956,-438.3 956,-408.8128 764.3976,-392.7887 661.1452,-386.2943"/>
<polygon fill="#000000" stroke="#000000" points="661.3311,-382.7992 651.1346,-385.677 660.9002,-389.7859 661.3311,-382.7992"/>
</g>
<!-- p0x7f686c000d70 -->
<g id="node7" class="node">
<title>p0x7f686c000d70</title>
<ellipse fill="none" stroke="#000000" cx="937" cy="-569.8" rx="33.6305" ry="18"/>
<text text-anchor="middle" x="937" y="-565.6" font-family="Times,serif" font-size="14.00" fill="#000000">pfg_2</text>
</g>
<!-- p0x7f686c000d70&#45;&gt;p0x1b26640 -->
<g id="edge6" class="edge">
<title>p0x7f686c000d70-&gt;p0x1b26640</title>
<path fill="none" stroke="#000000" d="M924.7929,-552.6845C918.4468,-542.1355 912,-528.0382 912,-514.3 912,-514.3 912,-514.3 912,-438.3 912,-413.0102 752.4897,-395.6089 660.4858,-387.6754"/>
<polygon fill="#000000" stroke="#000000" points="660.6955,-384.1807 650.4355,-386.8232 660.1039,-391.1557 660.6955,-384.1807"/>
</g>
<!-- p0x7f686c000e80 -->
<g id="node8" class="node">
<title>p0x7f686c000e80</title>
<ellipse fill="none" stroke="#000000" cx="852" cy="-569.8" rx="33.6305" ry="18"/>
<text text-anchor="middle" x="852" y="-565.6" font-family="Times,serif" font-size="14.00" fill="#000000">pfg_3</text>
</g>
<!-- p0x7f686c000e80&#45;&gt;p0x1b26640 -->
<g id="edge7" class="edge">
<title>p0x7f686c000e80-&gt;p0x1b26640</title>
<path fill="none" stroke="#000000" d="M832.9404,-554.9369C822.2335,-544.8063 811,-530.3525 811,-514.3 811,-514.3 811,-514.3 811,-438.3 811,-406.9868 724.0648,-393.0434 661.014,-387.0486"/>
<polygon fill="#000000" stroke="#000000" points="660.9992,-383.5331 650.725,-386.1197 660.3698,-390.5048 660.9992,-383.5331"/>
</g>
<!-- p0x7f686c000f90 -->
<g id="node9" class="node">
<title>p0x7f686c000f90</title>
<ellipse fill="none" stroke="#000000" cx="767" cy="-569.8" rx="33.6305" ry="18"/>
<text text-anchor="middle" x="767" y="-565.6" font-family="Times,serif" font-size="14.00" fill="#000000">pfg_4</text>
</g>
<!-- p0x7f686c000f90&#45;&gt;p0x1b26640 -->
<g id="edge8" class="edge">
<title>p0x7f686c000f90-&gt;p0x1b26640</title>
<path fill="none" stroke="#000000" d="M743.0971,-557.1566C721.8072,-545.0705 694,-526.8772 694,-514.3 694,-514.3 694,-514.3 694,-438.3 694,-416.5114 675.3337,-403.1589 654.3781,-395.0339"/>
<polygon fill="#000000" stroke="#000000" points="655.2423,-391.6291 644.6475,-391.6571 652.9473,-398.2422 655.2423,-391.6291"/>
</g>
<!-- p0x7f686c0010a0 -->
<g id="node10" class="node">
<title>p0x7f686c0010a0</title>
<ellipse fill="none" stroke="#000000" cx="682" cy="-569.8" rx="33.6305" ry="18"/>
<text text-anchor="middle" x="682" y="-565.6" font-family="Times,serif" font-size="14.00" fill="#000000">pfg_5</text>
</g>
<!-- p0x7f686c0010a0&#45;&gt;p0x1b26640 -->
<g id="edge9" class="edge">
<title>p0x7f686c0010a0-&gt;p0x1b26640</title>
<path fill="none" stroke="#000000" d="M666.2732,-553.7655C657.7737,-543.3906 649,-529.0972 649,-514.3 649,-514.3 649,-514.3 649,-438.3 649,-425.2767 641.2809,-414.0501 631.7908,-405.1689"/>
<polygon fill="#000000" stroke="#000000" points="633.8242,-402.3062 623.9139,-398.5597 629.3248,-407.6687 633.8242,-402.3062"/>
</g>
<!-- p0x7f686c0011b0 -->
<g id="node11" class="node">
<title>p0x7f686c0011b0</title>
<ellipse fill="none" stroke="#000000" cx="597" cy="-569.8" rx="33.6305" ry="18"/>
<text text-anchor="middle" x="597" y="-565.6" font-family="Times,serif" font-size="14.00" fill="#000000">pfg_6</text>
</g>
<!-- p0x7f686c0011b0&#45;&gt;p0x1b26640 -->
<g id="edge10" class="edge">
<title>p0x7f686c0011b0-&gt;p0x1b26640</title>
<path fill="none" stroke="#000000" d="M597,-551.3C597,-540.5083 597,-526.6333 597,-514.3 597,-514.3 597,-514.3 597,-438.3 597,-429.5318 597,-419.9843 597,-411.3196"/>
<polygon fill="#000000" stroke="#000000" points="600.5001,-411.3 597,-401.3 593.5001,-411.3 600.5001,-411.3"/>
</g>
<!-- p0x7f686c0012c0 -->
<g id="node12" class="node">
<title>p0x7f686c0012c0</title>
<ellipse fill="none" stroke="#000000" cx="512" cy="-569.8" rx="33.6305" ry="18"/>
<text text-anchor="middle" x="512" y="-565.6" font-family="Times,serif" font-size="14.00" fill="#000000">pfg_7</text>
</g>
<!-- p0x7f686c0012c0&#45;&gt;p0x1b26640 -->
<g id="edge11" class="edge">
<title>p0x7f686c0012c0-&gt;p0x1b26640</title>
<path fill="none" stroke="#000000" d="M527.2502,-553.684C535.4922,-543.2784 544,-528.9814 544,-514.3 544,-514.3 544,-514.3 544,-438.3 544,-425.159 551.8675,-413.9054 561.5401,-405.0355"/>
<polygon fill="#000000" stroke="#000000" points="564.0616,-407.4938 569.5685,-398.4426 559.6191,-402.0841 564.0616,-407.4938"/>
</g>
<!-- p0x7f686c0013d0 -->
<g id="node13" class="node">
<title>p0x7f686c0013d0</title>
<ellipse fill="none" stroke="#000000" cx="427" cy="-569.8" rx="33.6305" ry="18"/>
<text text-anchor="middle" x="427" y="-565.6" font-family="Times,serif" font-size="14.00" fill="#000000">pfg_8</text>
</g>
<!-- p0x7f686c0013d0&#45;&gt;p0x1b26640 -->
<g id="edge12" class="edge">
<title>p0x7f686c0013d0-&gt;p0x1b26640</title>
<path fill="none" stroke="#000000" d="M448.7529,-556.0686C461.4531,-546.206 475,-531.6252 475,-514.3 475,-514.3 475,-514.3 475,-438.3 475,-422.0983 511.099,-407.1007 544.0241,-396.7912"/>
<polygon fill="#000000" stroke="#000000" points="545.0872,-400.1263 553.6439,-393.8786 543.0587,-393.4267 545.0872,-400.1263"/>
</g>
<!-- p0x7f686c0014e0 -->
<g id="node14" class="node">
<title>p0x7f686c0014e0</title>
<ellipse fill="none" stroke="#000000" cx="342" cy="-569.8" rx="33.6305" ry="18"/>
<text text-anchor="middle" x="342" y="-565.6" font-family="Times,serif" font-size="14.00" fill="#000000">pfg_9</text>
</g>
<!-- p0x7f686c0014e0&#45;&gt;p0x1b26640 -->
<g id="edge13" class="edge">
<title>p0x7f686c0014e0-&gt;p0x1b26640</title>
<path fill="none" stroke="#000000" d="M366.7254,-557.3353C381.7271,-547.8414 398,-533.1895 398,-514.3 398,-514.3 398,-514.3 398,-438.3 398,-409.6667 475.4078,-395.1611 533.6671,-388.2987"/>
<polygon fill="#000000" stroke="#000000" points="534.387,-391.7399 543.9331,-387.1438 533.6045,-384.7837 534.387,-391.7399"/>
</g>
<!-- p0x7f686c0015f0 -->
<g id="node15" class="node">
<title>p0x7f686c0015f0</title>
<ellipse fill="none" stroke="#000000" cx="252" cy="-569.8" rx="38.2876" ry="18"/>
<text text-anchor="middle" x="252" y="-565.6" font-family="Times,serif" font-size="14.00" fill="#000000">pfg_10</text>
</g>
<!-- p0x7f686c0015f0&#45;&gt;p0x1b26640 -->
<g id="edge14" class="edge">
<title>p0x7f686c0015f0-&gt;p0x1b26640</title>
<path fill="none" stroke="#000000" d="M281.5451,-558.1625C308.1165,-546.7459 343,-528.9653 343,-514.3 343,-514.3 343,-514.3 343,-438.3 343,-418.685 460.1047,-400.1193 535.2857,-390.2214"/>
<polygon fill="#000000" stroke="#000000" points="536.1329,-393.6409 545.5993,-388.8831 535.232,-386.6991 536.1329,-393.6409"/>
</g>
<!-- p0x7f686c001700 -->
<g id="node16" class="node">
<title>p0x7f686c001700</title>
<ellipse fill="none" stroke="#000000" cx="157" cy="-569.8" rx="38.2876" ry="18"/>
<text text-anchor="middle" x="157" y="-565.6" font-family="Times,serif" font-size="14.00" fill="#000000">pfg_11</text>
</g>
<!-- p0x7f686c001700&#45;&gt;p0x1b26640 -->
<g id="edge15" class="edge">
<title>p0x7f686c001700-&gt;p0x1b26640</title>
<path fill="none" stroke="#000000" d="M187.0006,-558.5296C214.5104,-547.2389 251,-529.414 251,-514.3 251,-514.3 251,-514.3 251,-438.3 251,-410.0309 433.3893,-393.5548 533.3234,-386.649"/>
<polygon fill="#000000" stroke="#000000" points="533.5769,-390.1399 543.3171,-385.9712 533.1032,-383.156 533.5769,-390.1399"/>
</g>
<!-- p0x7f686c001810 -->
<g id="node17" class="node">
<title>p0x7f686c001810</title>
<ellipse fill="none" stroke="#000000" cx="62" cy="-569.8" rx="38.2876" ry="18"/>
<text text-anchor="middle" x="62" y="-565.6" font-family="Times,serif" font-size="14.00" fill="#000000">pfg_12</text>
</g>
<!-- p0x7f686c001810&#45;&gt;p0x1b26640 -->
<g id="edge16" class="edge">
<title>p0x7f686c001810-&gt;p0x1b26640</title>
<path fill="none" stroke="#000000" d="M92.3198,-558.5805C120.1222,-547.3289 157,-529.5333 157,-514.3 157,-514.3 157,-514.3 157,-438.3 157,-400.9399 409.9255,-388.3278 532.2524,-384.4127"/>
<polygon fill="#000000" stroke="#000000" points="532.7192,-387.9 542.6061,-384.0921 532.5025,-380.9034 532.7192,-387.9"/>
</g>
<!-- p0x1b26860&#45;&gt;p0x1b26530 -->
<g id="edge18" class="edge">
<title>p0x1b26860-&gt;p0x1b26530</title>
<path fill="none" stroke="#000000" stroke-dasharray="5,2" d="M658.9833,-145.2518C642.4521,-123.8625 612.4942,-85.1006 592.6702,-59.4508"/>
<polygon fill="#000000" stroke="#000000" points="595.2544,-57.0709 586.3698,-51.2989 589.7157,-61.3516 595.2544,-57.0709"/>
<text text-anchor="middle" x="629.5" y="-93.2" font-family="Times,serif" font-size="14.00" fill="#000000">0</text>
</g>
</g>
</svg>