<?xml version="1.0" encoding="UTF-8" standalone="no"?><!DOCTYPE svg PUBLIC "-//W3C//DTD SVG 1.1//EN" "http://www.w3.org/Graphics/SVG/1.1/DTD/svg11.dtd"><!-- Generated by graphviz version 2.40.1 (20161225.0304)
 --><!-- Title: Taskflow Pages: 1 --><svg xmlns="http://www.w3.org/2000/svg" xmlns:xlink="http://www.w3.org/1999/xlink" width="1178pt" height="795pt" viewBox="0.00 0.00 1178.10 795.00">
<g id="graph0" class="graph" transform="scale(1 1) rotate(0) translate(4 791)">
<title>Taskflow</title>
<polygon fill="#ffffff" stroke="transparent" points="-4,4 -4,-791 1174.1047,-791 1174.1047,4 -4,4"/>
<g id="clust1" class="cluster">
<title>cluster_p0x562f9807b550</title>
<polygon fill="none" stroke="#a020f0" points="256.1315,-450 256.1315,-689 629.4527,-689 629.4527,-450 256.1315,-450"/>
<text text-anchor="middle" x="442.7921" y="-672.4" font-family="Times,serif" font-size="14.00" fill="#000000">cudaFlow: h2d</text>
</g>
<g id="clust2" class="cluster">
<title>cluster_p0x562f9807b440</title>
<polygon fill="none" stroke="#a020f0" points="8,-159 8,-344 790.0123,-344 790.0123,-159 8,-159"/>
<text text-anchor="middle" x="399.0062" y="-327.4" font-family="Times,serif" font-size="14.00" fill="#000000">cudaFlow: update_means</text>
</g>
<g id="clust3" class="cluster">
<title>cluster_p0x562f9807b220</title>
<polygon fill="none" stroke="#a020f0" points="683.2792,-8 683.2792,-139 1087.1047,-139 1087.1047,-8 683.2792,-8"/>
<text text-anchor="middle" x="885.1919" y="-122.4" font-family="Times,serif" font-size="14.00" fill="#000000">cudaFlow: h2d</text>
</g>
<!-- p0x562f9807bcc0 -->
<g id="node1" class="node">
<title>p0x562f9807bcc0</title>
<ellipse fill="none" stroke="#000000" cx="444.7454" cy="-715" rx="55.5966" ry="18"/>
<text text-anchor="middle" x="444.7454" y="-710.8" font-family="Times,serif" font-size="14.00" fill="#000000">allocate_px</text>
</g>
<!-- p0x562f9807b550 -->
<g id="node2" class="node">
<title>p0x562f9807b550</title>
<polygon fill="#00ffff" stroke="#000000" points="621.4527,-548 618.4527,-552 597.4527,-552 594.4527,-548 567.4527,-548 567.4527,-512 621.4527,-512 621.4527,-548"/>
<text text-anchor="middle" x="594.4527" y="-525.8" font-family="Times,serif" font-size="14.00" fill="#000000">h2d</text>
</g>
<!-- p0x562f9807bcc0&#45;&gt;p0x562f9807b550 -->
<g id="edge1" class="edge">
<title>p0x562f9807bcc0-&gt;p0x562f9807b550</title>
<path fill="none" stroke="#000000" d="M486.8361,-703.2112C492.6371,-700.4518 498.2251,-697.0873 502.9774,-693 545.8583,-656.1195 572.7519,-593.901 585.5506,-557.9424"/>
<polygon fill="#000000" stroke="#000000" points="588.9892,-558.7056 588.9306,-548.111 582.3695,-556.4298 588.9892,-558.7056"/>
</g>
<!-- p0x562f9807b440 -->
<g id="node7" class="node">
<title>p0x562f9807b440</title>
<polygon fill="#00ffff" stroke="#000000" points="782.0544,-203 779.0544,-207 758.0544,-207 755.0544,-203 685.886,-203 685.886,-167 782.0544,-167 782.0544,-203"/>
<text text-anchor="middle" x="733.9702" y="-180.8" font-family="Times,serif" font-size="14.00" fill="#000000">update_means</text>
</g>
<!-- p0x562f9807b550&#45;&gt;p0x562f9807b440 -->
<g id="edge8" class="edge">
<title>p0x562f9807b550-&gt;p0x562f9807b440</title>
<path fill="none" stroke="#000000" d="M601.7574,-511.937C624.636,-455.3625 695.0253,-281.3034 722.6634,-212.9596"/>
<polygon fill="#000000" stroke="#000000" points="726.0652,-213.8832 726.5696,-203.3004 719.5757,-211.2588 726.0652,-213.8832"/>
</g>
<!-- p0x562f9807bbb0 -->
<g id="node3" class="node">
<title>p0x562f9807bbb0</title>
<ellipse fill="none" stroke="#000000" cx="444.7454" cy="-424" rx="55.5966" ry="18"/>
<text text-anchor="middle" x="444.7454" y="-419.8" font-family="Times,serif" font-size="14.00" fill="#000000">allocate_py</text>
</g>
<!-- p0x562f9807bbb0&#45;&gt;p0x562f9807b550 -->
<g id="edge2" class="edge">
<title>p0x562f9807bbb0-&gt;p0x562f9807b550</title>
<path fill="none" stroke="#000000" d="M484.5559,-436.7001C490.9149,-439.384 497.2722,-442.4862 502.9774,-446 529.0007,-462.0276 554.2512,-486.0599 571.606,-504.3184"/>
<polygon fill="#000000" stroke="#000000" points="569.1586,-506.8257 578.5397,-511.7497 574.2768,-502.0503 569.1586,-506.8257"/>
</g>
<!-- p0x562f9807baa0 -->
<g id="node4" class="node">
<title>p0x562f9807baa0</title>
<ellipse fill="none" stroke="#000000" cx="444.7454" cy="-370" rx="58.4648" ry="18"/>
<text text-anchor="middle" x="444.7454" y="-365.8" font-family="Times,serif" font-size="14.00" fill="#000000">allocate_mx</text>
</g>
<!-- p0x562f9807baa0&#45;&gt;p0x562f9807b550 -->
<g id="edge3" class="edge">
<title>p0x562f9807baa0-&gt;p0x562f9807b550</title>
<path fill="none" stroke="#000000" d="M482.249,-383.7718C489.5589,-387.4232 496.8471,-391.8236 502.9774,-397 538.1816,-426.7267 565.8979,-473.1291 581.2235,-502.526"/>
<polygon fill="#000000" stroke="#000000" points="578.2849,-504.4689 585.9387,-511.7948 584.524,-501.2949 578.2849,-504.4689"/>
</g>
<!-- p0x562f9807b990 -->
<g id="node5" class="node">
<title>p0x562f9807b990</title>
<ellipse fill="none" stroke="#000000" cx="444.7454" cy="-769" rx="58.4648" ry="18"/>
<text text-anchor="middle" x="444.7454" y="-764.8" font-family="Times,serif" font-size="14.00" fill="#000000">allocate_my</text>
</g>
<!-- p0x562f9807b990&#45;&gt;p0x562f9807b550 -->
<g id="edge4" class="edge">
<title>p0x562f9807b990-&gt;p0x562f9807b550</title>
<path fill="none" stroke="#000000" d="M483.9808,-755.6462C490.9111,-752.0103 497.6137,-747.5094 502.9774,-742 554.6221,-688.9521 579.3609,-602.1014 589.1356,-557.8341"/>
<polygon fill="#000000" stroke="#000000" points="592.5604,-558.5556 591.2041,-548.048 585.7117,-557.108 592.5604,-558.5556"/>
</g>
<!-- p0x562f9807b880 -->
<g id="node6" class="node">
<title>p0x562f9807b880</title>
<ellipse fill="none" stroke="#000000" cx="594.4527" cy="-133" rx="54.4508" ry="18"/>
<text text-anchor="middle" x="594.4527" y="-128.8" font-family="Times,serif" font-size="14.00" fill="#000000">allocate_sx</text>
</g>
<!-- p0x562f9807b880&#45;&gt;p0x562f9807b440 -->
<g id="edge5" class="edge">
<title>p0x562f9807b880-&gt;p0x562f9807b440</title>
<path fill="none" stroke="#000000" d="M630.7451,-146.5266C644.6524,-151.7101 660.8854,-157.7603 676.3052,-163.5075"/>
<polygon fill="#000000" stroke="#000000" points="675.1804,-166.8234 685.7731,-167.0363 677.6251,-160.2642 675.1804,-166.8234"/>
</g>
<!-- p0x562f9807b330 -->
<g id="node14" class="node">
<title>p0x562f9807b330</title>
<polygon fill="#7fffd4" stroke="#000000" points="903.5585,-183 824.9661,-165 903.5585,-147 982.1509,-165 903.5585,-183"/>
<text text-anchor="middle" x="903.5585" y="-160.8" font-family="Times,serif" font-size="14.00" fill="#000000">converged?</text>
</g>
<!-- p0x562f9807b440&#45;&gt;p0x562f9807b330 -->
<g id="edge13" class="edge">
<title>p0x562f9807b440-&gt;p0x562f9807b330</title>
<path fill="none" stroke="#000000" d="M782.3677,-184.7435C790.6058,-184.3943 799.0651,-183.8444 807.0123,-183 822.1657,-181.39 838.506,-178.7102 853.3574,-175.9039"/>
<polygon fill="#000000" stroke="#000000" points="854.2228,-179.3012 863.3684,-173.9524 852.8834,-172.4305 854.2228,-179.3012"/>
</g>
<!-- p0x562f9807b770 -->
<g id="node8" class="node">
<title>p0x562f9807b770</title>
<ellipse fill="none" stroke="#000000" cx="594.4527" cy="-79" rx="54.4508" ry="18"/>
<text text-anchor="middle" x="594.4527" y="-74.8" font-family="Times,serif" font-size="14.00" fill="#000000">allocate_sy</text>
</g>
<!-- p0x562f9807b770&#45;&gt;p0x562f9807b440 -->
<g id="edge6" class="edge">
<title>p0x562f9807b770-&gt;p0x562f9807b440</title>
<path fill="none" stroke="#000000" d="M628.1274,-93.3028C635.2822,-96.9853 642.5845,-101.2638 648.9281,-106 666.9085,-119.4243 666.9715,-127.5868 683.2792,-143 689.3529,-148.7406 696.0928,-154.6285 702.6228,-160.1113"/>
<polygon fill="#000000" stroke="#000000" points="700.7773,-163.1266 710.7157,-166.7978 705.2358,-157.7302 700.7773,-163.1266"/>
</g>
<!-- p0x562f9807b660 -->
<g id="node9" class="node">
<title>p0x562f9807b660</title>
<ellipse fill="none" stroke="#000000" cx="594.4527" cy="-25" rx="50.3567" ry="18"/>
<text text-anchor="middle" x="594.4527" y="-20.8" font-family="Times,serif" font-size="14.00" fill="#000000">allocate_c</text>
</g>
<!-- p0x562f9807b660&#45;&gt;p0x562f9807b440 -->
<g id="edge7" class="edge">
<title>p0x562f9807b660-&gt;p0x562f9807b440</title>
<path fill="none" stroke="#000000" d="M629.9549,-37.7563C636.922,-41.5109 643.6855,-46.2097 648.9281,-52 677.9432,-84.0463 658.1639,-107.8139 683.2792,-143 687.7071,-149.2034 693.2679,-155.025 699.071,-160.2426"/>
<polygon fill="#000000" stroke="#000000" points="697.1471,-163.1982 707.0507,-166.9625 701.6561,-157.8439 697.1471,-163.1982"/>
</g>
<!-- p0x7fbc54000b20 -->
<g id="node10" class="node">
<title>p0x7fbc54000b20</title>
<ellipse fill="none" stroke="#000000" cx="306.8225" cy="-638" rx="40.0147" ry="18"/>
<text text-anchor="middle" x="306.8225" y="-633.8" font-family="Times,serif" font-size="14.00" fill="#000000">h2d_px</text>
</g>
<!-- p0x7fbc54000b20&#45;&gt;p0x562f9807b550 -->
<g id="edge9" class="edge">
<title>p0x7fbc54000b20-&gt;p0x562f9807b550</title>
<path fill="none" stroke="#000000" d="M337.604,-626.4421C391.0331,-606.3804 500.6911,-565.2058 557.8989,-543.7253"/>
<polygon fill="#000000" stroke="#000000" points="559.1484,-546.9948 567.2799,-540.2029 556.6877,-540.4415 559.1484,-546.9948"/>
</g>
<!-- p0x7fbc54000c00 -->
<g id="node11" class="node">
<title>p0x7fbc54000c00</title>
<ellipse fill="none" stroke="#000000" cx="306.8225" cy="-584" rx="40.0147" ry="18"/>
<text text-anchor="middle" x="306.8225" y="-579.8" font-family="Times,serif" font-size="14.00" fill="#000000">h2d_py</text>
</g>
<!-- p0x7fbc54000c00&#45;&gt;p0x562f9807b550 -->
<g id="edge10" class="edge">
<title>p0x7fbc54000c00-&gt;p0x562f9807b550</title>
<path fill="none" stroke="#000000" d="M343.8363,-577.051C398.9995,-566.6946 502.1899,-547.3215 557.3846,-536.9592"/>
<polygon fill="#000000" stroke="#000000" points="558.2501,-540.3579 567.4326,-535.0728 556.9585,-533.4781 558.2501,-540.3579"/>
</g>
<!-- p0x7fbc54000ce0 -->
<g id="node12" class="node">
<title>p0x7fbc54000ce0</title>
<ellipse fill="none" stroke="#000000" cx="306.8225" cy="-530" rx="42.8829" ry="18"/>
<text text-anchor="middle" x="306.8225" y="-525.8" font-family="Times,serif" font-size="14.00" fill="#000000">h2d_mx</text>
</g>
<!-- p0x7fbc54000ce0&#45;&gt;p0x562f9807b550 -->
<g id="edge11" class="edge">
<title>p0x7fbc54000ce0-&gt;p0x562f9807b550</title>
<path fill="none" stroke="#000000" d="M349.5731,-530C405.7642,-530 503.5774,-530 556.9985,-530"/>
<polygon fill="#000000" stroke="#000000" points="557.0654,-533.5001 567.0653,-530 557.0653,-526.5001 557.0654,-533.5001"/>
</g>
<!-- p0x7fbc54000db0 -->
<g id="node13" class="node">
<title>p0x7fbc54000db0</title>
<ellipse fill="none" stroke="#000000" cx="306.8225" cy="-476" rx="42.8829" ry="18"/>
<text text-anchor="middle" x="306.8225" y="-471.8" font-family="Times,serif" font-size="14.00" fill="#000000">h2d_my</text>
</g>
<!-- p0x7fbc54000db0&#45;&gt;p0x562f9807b550 -->
<g id="edge12" class="edge">
<title>p0x7fbc54000db0-&gt;p0x562f9807b550</title>
<path fill="none" stroke="#000000" d="M345.9129,-483.3389C401.4686,-493.769 502.5627,-512.7485 557.1321,-522.9934"/>
<polygon fill="#000000" stroke="#000000" points="556.6044,-526.4554 567.0785,-524.8607 557.8961,-519.5756 556.6044,-526.4554"/>
</g>
<!-- p0x562f9807b330&#45;&gt;p0x562f9807b440 -->
<g id="edge19" class="edge">
<title>p0x562f9807b330-&gt;p0x562f9807b440</title>
<path fill="none" stroke="#000000" stroke-dasharray="5,2" d="M848.4712,-159.5823C832.7323,-159.0944 815.6196,-159.5817 800.0123,-162.2 796.6198,-162.7691 793.1685,-163.492 789.713,-164.3274"/>
<polygon fill="#000000" stroke="#000000" points="788.7517,-160.9616 780.0091,-166.9463 790.5756,-167.7198 788.7517,-160.9616"/>
<text text-anchor="middle" x="803.5123" y="-167.2" font-family="Times,serif" font-size="14.00" fill="#000000">0</text>
</g>
<!-- p0x562f9807b220 -->
<g id="node20" class="node">
<title>p0x562f9807b220</title>
<polygon fill="#00ffff" stroke="#000000" points="1079.1047,-106 1076.1047,-110 1055.1047,-110 1052.1047,-106 1025.1047,-106 1025.1047,-70 1079.1047,-70 1079.1047,-106"/>
<text text-anchor="middle" x="1052.1047" y="-83.8" font-family="Times,serif" font-size="14.00" fill="#000000">h2d</text>
</g>
<!-- p0x562f9807b330&#45;&gt;p0x562f9807b220 -->
<g id="edge20" class="edge">
<title>p0x562f9807b330-&gt;p0x562f9807b220</title>
<path fill="none" stroke="#000000" stroke-dasharray="5,2" d="M945.4695,-156.5198C957.6565,-153.1979 970.7388,-148.7668 982.1047,-143 997.7072,-135.0837 1013.1986,-123.4138 1025.6264,-112.858"/>
<polygon fill="#000000" stroke="#000000" points="1028.0949,-115.349 1033.3212,-106.1329 1023.4883,-110.0783 1028.0949,-115.349"/>
<text text-anchor="middle" x="1003.6047" y="-136.2" font-family="Times,serif" font-size="14.00" fill="#000000">1</text>
</g>
<!-- p0x7fbc540051d0 -->
<g id="node15" class="node">
<title>p0x7fbc540051d0</title>
<ellipse fill="none" stroke="#000000" cx="57.0657" cy="-293" rx="36.5383" ry="18"/>
<text text-anchor="middle" x="57.0657" y="-288.8" font-family="Times,serif" font-size="14.00" fill="#000000">zero_c</text>
</g>
<!-- p0x7fbc540053d0 -->
<g id="node16" class="node">
<title>p0x7fbc540053d0</title>
<polygon fill="#000000" stroke="#ffffff" points="227.1315,-229 177.1315,-229 173.1315,-225 173.1315,-193 223.1315,-193 227.1315,-197 227.1315,-229"/>
<polyline fill="none" stroke="#ffffff" points="223.1315,-225 173.1315,-225 "/>
<polyline fill="none" stroke="#ffffff" points="223.1315,-225 223.1315,-193 "/>
<polyline fill="none" stroke="#ffffff" points="223.1315,-225 227.1315,-229 "/>
<text text-anchor="middle" x="200.1315" y="-206.8" font-family="Times,serif" font-size="14.00" fill="#ffffff">cluster</text>
</g>
<!-- p0x7fbc540051d0&#45;&gt;p0x7fbc540053d0 -->
<g id="edge14" class="edge">
<title>p0x7fbc540051d0-&gt;p0x7fbc540053d0</title>
<path fill="none" stroke="#000000" d="M81.0117,-279.275C103.7105,-266.265 138.1089,-246.5491 164.1149,-231.6434"/>
<polygon fill="#000000" stroke="#000000" points="165.9952,-234.5999 172.9306,-226.5905 162.5142,-228.5267 165.9952,-234.5999"/>
</g>
<!-- p0x7fbc54005470 -->
<g id="node19" class="node">
<title>p0x7fbc54005470</title>
<polygon fill="#000000" stroke="#ffffff" points="490.9378,-216 402.553,-216 398.553,-212 398.553,-180 486.9378,-180 490.9378,-184 490.9378,-216"/>
<polyline fill="none" stroke="#ffffff" points="486.9378,-212 398.553,-212 "/>
<polyline fill="none" stroke="#ffffff" points="486.9378,-212 486.9378,-180 "/>
<polyline fill="none" stroke="#ffffff" points="486.9378,-212 490.9378,-216 "/>
<text text-anchor="middle" x="444.7454" y="-193.8" font-family="Times,serif" font-size="14.00" fill="#ffffff">new_centroid</text>
</g>
<!-- p0x7fbc540053d0&#45;&gt;p0x7fbc54005470 -->
<g id="edge17" class="edge">
<title>p0x7fbc540053d0-&gt;p0x7fbc54005470</title>
<path fill="none" stroke="#000000" d="M227.2441,-209.5591C265.8801,-207.5058 337.6837,-203.6898 388.1943,-201.0054"/>
<polygon fill="#000000" stroke="#000000" points="388.5127,-204.4935 398.3128,-200.4677 388.1411,-197.5034 388.5127,-204.4935"/>
</g>
<!-- p0x7fbc54005270 -->
<g id="node17" class="node">
<title>p0x7fbc54005270</title>
<ellipse fill="none" stroke="#000000" cx="57.0657" cy="-239" rx="41.1316" ry="18"/>
<text text-anchor="middle" x="57.0657" y="-234.8" font-family="Times,serif" font-size="14.00" fill="#000000">zero_sx</text>
</g>
<!-- p0x7fbc54005270&#45;&gt;p0x7fbc540053d0 -->
<g id="edge15" class="edge">
<title>p0x7fbc54005270-&gt;p0x7fbc540053d0</title>
<path fill="none" stroke="#000000" d="M94.6546,-231.6433C115.714,-227.5217 141.8832,-222.4 162.8866,-218.2894"/>
<polygon fill="#000000" stroke="#000000" points="163.5958,-221.717 172.7374,-216.3614 162.2513,-214.8474 163.5958,-221.717"/>
</g>
<!-- p0x7fbc54005330 -->
<g id="node18" class="node">
<title>p0x7fbc54005330</title>
<ellipse fill="none" stroke="#000000" cx="57.0657" cy="-185" rx="41.1316" ry="18"/>
<text text-anchor="middle" x="57.0657" y="-180.8" font-family="Times,serif" font-size="14.00" fill="#000000">zero_sy</text>
</g>
<!-- p0x7fbc54005330&#45;&gt;p0x7fbc540053d0 -->
<g id="edge16" class="edge">
<title>p0x7fbc54005330-&gt;p0x7fbc540053d0</title>
<path fill="none" stroke="#000000" d="M95.0291,-191.8993C115.9909,-195.7087 141.9264,-200.4221 162.7887,-204.2135"/>
<polygon fill="#000000" stroke="#000000" points="162.4152,-207.7029 172.8799,-206.0474 163.6669,-200.8157 162.4152,-207.7029"/>
</g>
<!-- p0x7fbc54005470&#45;&gt;p0x562f9807b440 -->
<g id="edge18" class="edge">
<title>p0x7fbc54005470-&gt;p0x562f9807b440</title>
<path fill="none" stroke="#000000" d="M490.8938,-195.9257C540.9364,-193.6764 620.9369,-190.0806 675.3812,-187.6334"/>
<polygon fill="#000000" stroke="#000000" points="675.7418,-191.1209 685.5745,-187.1753 675.4274,-184.1279 675.7418,-191.1209"/>
</g>
<!-- p0x562f9807b110 -->
<g id="node21" class="node">
<title>p0x562f9807b110</title>
<ellipse fill="none" stroke="#000000" cx="1143.1047" cy="-88" rx="27" ry="18"/>
<text text-anchor="middle" x="1143.1047" y="-83.8" font-family="Times,serif" font-size="14.00" fill="#000000">free</text>
</g>
<!-- p0x562f9807b220&#45;&gt;p0x562f9807b110 -->
<g id="edge21" class="edge">
<title>p0x562f9807b220-&gt;p0x562f9807b110</title>
<path fill="none" stroke="#000000" d="M1079.4077,-88C1087.686,-88 1096.9264,-88 1105.7452,-88"/>
<polygon fill="#000000" stroke="#000000" points="1105.821,-91.5001 1115.8209,-88 1105.8209,-84.5001 1105.821,-91.5001"/>
</g>
<!-- p0x7fbc5400bf40 -->
<g id="node22" class="node">
<title>p0x7fbc5400bf40</title>
<ellipse fill="none" stroke="#000000" cx="733.9702" cy="-88" rx="42.8829" ry="18"/>
<text text-anchor="middle" x="733.9702" y="-83.8" font-family="Times,serif" font-size="14.00" fill="#000000">d2h_mx</text>
</g>
<!-- p0x7fbc5400bf40&#45;&gt;p0x562f9807b220 -->
<g id="edge22" class="edge">
<title>p0x7fbc5400bf40-&gt;p0x562f9807b220</title>
<path fill="none" stroke="#000000" d="M776.8752,-88C839.5942,-88 955.2903,-88 1014.7191,-88"/>
<polygon fill="#000000" stroke="#000000" points="1014.7916,-91.5001 1024.7915,-88 1014.7915,-84.5001 1014.7916,-91.5001"/>
</g>
<!-- p0x7fbc54008020 -->
<g id="node23" class="node">
<title>p0x7fbc54008020</title>
<ellipse fill="none" stroke="#000000" cx="733.9702" cy="-34" rx="42.8829" ry="18"/>
<text text-anchor="middle" x="733.9702" y="-29.8" font-family="Times,serif" font-size="14.00" fill="#000000">d2h_my</text>
</g>
<!-- p0x7fbc54008020&#45;&gt;p0x562f9807b220 -->
<g id="edge23" class="edge">
<title>p0x7fbc54008020-&gt;p0x562f9807b220</title>
<path fill="none" stroke="#000000" d="M773.6189,-40.73C835.6568,-51.2602 954.8051,-71.4844 1015.145,-81.7265"/>
<polygon fill="#000000" stroke="#000000" points="1014.5596,-85.1771 1025.0043,-83.4 1015.7311,-78.2758 1014.5596,-85.1771"/>
</g>
</g>
</svg>