<?xml version="1.0" encoding="UTF-8" standalone="no"?><!DOCTYPE svg PUBLIC "-//W3C//DTD SVG 1.1//EN" "http://www.w3.org/Graphics/SVG/1.1/DTD/svg11.dtd"><!-- Generated by graphviz version 2.40.1 (20161225.0304)
 --><!-- Title: Taskflow Pages: 1 --><svg xmlns="http://www.w3.org/2000/svg" xmlns:xlink="http://www.w3.org/1999/xlink" width="1448pt" height="498pt" viewBox="0.00 0.00 1448.13 497.80">
<g id="graph0" class="graph" transform="scale(1 1) rotate(0) translate(4 493.8)">
<title>Taskflow</title>
<polygon fill="#ffffff" stroke="transparent" points="-4,4 -4,-493.8 1444.1328,-493.8 1444.1328,4 -4,4"/>
<!-- p0x55f65ae0eab0 -->
<g id="node1" class="node">
<title>p0x55f65ae0eab0</title>
<ellipse fill="none" stroke="#000000" cx="1073.5866" cy="-471.8" rx="27" ry="18"/>
<text text-anchor="middle" x="1073.5866" y="-467.6" font-family="Times,serif" font-size="14.00" fill="#000000">init</text>
</g>
<!-- p0x55f65ae0ebc0 -->
<g id="node2" class="node">
<title>p0x55f65ae0ebc0</title>
<ellipse fill="none" stroke="#000000" cx="1073.5866" cy="-398.8" rx="45.7887" ry="18"/>
<text text-anchor="middle" x="1073.5866" y="-394.6" font-family="Times,serif" font-size="14.00" fill="#000000">clean_up</text>
</g>
<!-- p0x55f65ae0eab0&#45;&gt;p0x55f65ae0ebc0 -->
<g id="edge1" class="edge">
<title>p0x55f65ae0eab0-&gt;p0x55f65ae0ebc0</title>
<path fill="none" stroke="#000000" d="M1073.5866,-453.7551C1073.5866,-445.6828 1073.5866,-435.9764 1073.5866,-426.9817"/>
<polygon fill="#000000" stroke="#000000" points="1077.0867,-426.8903 1073.5866,-416.8904 1070.0867,-426.8904 1077.0867,-426.8903"/>
</g>
<!-- p0x55f65ae0ecd0 -->
<g id="node3" class="node">
<title>p0x55f65ae0ecd0</title>
<ellipse fill="none" stroke="#000000" cx="738.5866" cy="-325.8" rx="84.5305" ry="18"/>
<text text-anchor="middle" x="738.5866" y="-321.6" font-family="Times,serif" font-size="14.00" fill="#000000">beg_assign_cluster</text>
</g>
<!-- p0x55f65ae0ebc0&#45;&gt;p0x55f65ae0ecd0 -->
<g id="edge2" class="edge">
<title>p0x55f65ae0ebc0-&gt;p0x55f65ae0ecd0</title>
<path fill="none" stroke="#000000" d="M1033.1777,-389.9945C977.281,-377.814 875.5763,-355.6515 807.538,-340.8252"/>
<polygon fill="#000000" stroke="#000000" points="808.2692,-337.4025 797.7533,-338.693 806.7788,-344.242 808.2692,-337.4025"/>
</g>
<!-- p0x55f65ae0eef0 -->
<g id="node4" class="node">
<title>p0x55f65ae0eef0</title>
<ellipse fill="none" stroke="#000000" cx="48.5866" cy="-252.8" rx="48.6733" ry="18"/>
<text text-anchor="middle" x="48.5866" y="-248.6" font-family="Times,serif" font-size="14.00" fill="#000000">partition0</text>
</g>
<!-- p0x55f65ae0ecd0&#45;&gt;p0x55f65ae0eef0 -->
<g id="edge3" class="edge">
<title>p0x55f65ae0ecd0-&gt;p0x55f65ae0eef0</title>
<path fill="none" stroke="#000000" d="M657.1534,-320.9611C510.8099,-311.8929 208.9706,-291.392 105.5866,-270.8 101.6905,-270.024 97.685,-269.0775 93.69,-268.029"/>
<polygon fill="#000000" stroke="#000000" points="94.424,-264.5995 83.8492,-265.2512 92.5224,-271.3363 94.424,-264.5995"/>
</g>
<!-- p0x55f65ae0f000 -->
<g id="node5" class="node">
<title>p0x55f65ae0f000</title>
<ellipse fill="none" stroke="#000000" cx="163.5866" cy="-252.8" rx="48.6733" ry="18"/>
<text text-anchor="middle" x="163.5866" y="-248.6" font-family="Times,serif" font-size="14.00" fill="#000000">partition1</text>
</g>
<!-- p0x55f65ae0ecd0&#45;&gt;p0x55f65ae0f000 -->
<g id="edge4" class="edge">
<title>p0x55f65ae0ecd0-&gt;p0x55f65ae0f000</title>
<path fill="none" stroke="#000000" d="M655.707,-322.1147C552.7628,-316.3694 372.1892,-302.4527 220.5866,-270.8 216.7533,-269.9997 212.8117,-269.0442 208.8769,-267.9967"/>
<polygon fill="#000000" stroke="#000000" points="209.7518,-264.6068 199.1759,-265.2393 207.8379,-271.3401 209.7518,-264.6068"/>
</g>
<!-- p0x55f65ae0f110 -->
<g id="node6" class="node">
<title>p0x55f65ae0f110</title>
<ellipse fill="none" stroke="#000000" cx="278.5866" cy="-252.8" rx="48.6733" ry="18"/>
<text text-anchor="middle" x="278.5866" y="-248.6" font-family="Times,serif" font-size="14.00" fill="#000000">partition2</text>
</g>
<!-- p0x55f65ae0ecd0&#45;&gt;p0x55f65ae0f110 -->
<g id="edge5" class="edge">
<title>p0x55f65ae0ecd0-&gt;p0x55f65ae0f110</title>
<path fill="none" stroke="#000000" d="M659.873,-319.0577C578.1253,-311.1252 446.8603,-295.7716 335.5866,-270.8 331.7657,-269.9425 327.8328,-268.9468 323.9039,-267.8721"/>
<polygon fill="#000000" stroke="#000000" points="324.7907,-264.4852 314.2121,-265.0721 322.8477,-271.2102 324.7907,-264.4852"/>
</g>
<!-- p0x55f65ae0f220 -->
<g id="node7" class="node">
<title>p0x55f65ae0f220</title>
<ellipse fill="none" stroke="#000000" cx="393.5866" cy="-252.8" rx="48.6733" ry="18"/>
<text text-anchor="middle" x="393.5866" y="-248.6" font-family="Times,serif" font-size="14.00" fill="#000000">partition3</text>
</g>
<!-- p0x55f65ae0ecd0&#45;&gt;p0x55f65ae0f220 -->
<g id="edge6" class="edge">
<title>p0x55f65ae0ecd0-&gt;p0x55f65ae0f220</title>
<path fill="none" stroke="#000000" d="M670.3019,-315.0793C611.6336,-305.3171 524.9894,-289.5835 450.5866,-270.8 447.0052,-269.8959 443.3178,-268.8952 439.6231,-267.8422"/>
<polygon fill="#000000" stroke="#000000" points="440.476,-264.4447 429.8939,-264.9636 438.4899,-271.157 440.476,-264.4447"/>
</g>
<!-- p0x55f65ae0f330 -->
<g id="node8" class="node">
<title>p0x55f65ae0f330</title>
<ellipse fill="none" stroke="#000000" cx="508.5866" cy="-252.8" rx="48.6733" ry="18"/>
<text text-anchor="middle" x="508.5866" y="-248.6" font-family="Times,serif" font-size="14.00" fill="#000000">partition4</text>
</g>
<!-- p0x55f65ae0ecd0&#45;&gt;p0x55f65ae0f330 -->
<g id="edge7" class="edge">
<title>p0x55f65ae0ecd0-&gt;p0x55f65ae0f330</title>
<path fill="none" stroke="#000000" d="M691.4876,-310.8512C651.748,-298.2382 595.1547,-280.276 555.4748,-267.6819"/>
<polygon fill="#000000" stroke="#000000" points="556.362,-264.2915 545.7717,-264.6022 554.2443,-270.9635 556.362,-264.2915"/>
</g>
<!-- p0x55f65ae0f440 -->
<g id="node9" class="node">
<title>p0x55f65ae0f440</title>
<ellipse fill="none" stroke="#000000" cx="623.5866" cy="-252.8" rx="48.6733" ry="18"/>
<text text-anchor="middle" x="623.5866" y="-248.6" font-family="Times,serif" font-size="14.00" fill="#000000">partition5</text>
</g>
<!-- p0x55f65ae0ecd0&#45;&gt;p0x55f65ae0f440 -->
<g id="edge8" class="edge">
<title>p0x55f65ae0ecd0-&gt;p0x55f65ae0f440</title>
<path fill="none" stroke="#000000" d="M711.6242,-308.6847C695.3426,-298.3495 674.4591,-285.093 657.1181,-274.0853"/>
<polygon fill="#000000" stroke="#000000" points="658.7344,-270.9656 648.416,-268.5613 654.9829,-276.8755 658.7344,-270.9656"/>
</g>
<!-- p0x55f65ae0f550 -->
<g id="node10" class="node">
<title>p0x55f65ae0f550</title>
<ellipse fill="none" stroke="#000000" cx="738.5866" cy="-252.8" rx="48.6733" ry="18"/>
<text text-anchor="middle" x="738.5866" y="-248.6" font-family="Times,serif" font-size="14.00" fill="#000000">partition6</text>
</g>
<!-- p0x55f65ae0ecd0&#45;&gt;p0x55f65ae0f550 -->
<g id="edge9" class="edge">
<title>p0x55f65ae0ecd0-&gt;p0x55f65ae0f550</title>
<path fill="none" stroke="#000000" d="M738.5866,-307.7551C738.5866,-299.6828 738.5866,-289.9764 738.5866,-280.9817"/>
<polygon fill="#000000" stroke="#000000" points="742.0867,-280.8903 738.5866,-270.8904 735.0867,-280.8904 742.0867,-280.8903"/>
</g>
<!-- p0x55f65ae0f660 -->
<g id="node11" class="node">
<title>p0x55f65ae0f660</title>
<ellipse fill="none" stroke="#000000" cx="853.5866" cy="-252.8" rx="48.6733" ry="18"/>
<text text-anchor="middle" x="853.5866" y="-248.6" font-family="Times,serif" font-size="14.00" fill="#000000">partition7</text>
</g>
<!-- p0x55f65ae0ecd0&#45;&gt;p0x55f65ae0f660 -->
<g id="edge10" class="edge">
<title>p0x55f65ae0ecd0-&gt;p0x55f65ae0f660</title>
<path fill="none" stroke="#000000" d="M765.549,-308.6847C781.8306,-298.3495 802.714,-285.093 820.055,-274.0853"/>
<polygon fill="#000000" stroke="#000000" points="822.1903,-276.8755 828.7572,-268.5613 818.4388,-270.9656 822.1903,-276.8755"/>
</g>
<!-- p0x55f65ae0f770 -->
<g id="node12" class="node">
<title>p0x55f65ae0f770</title>
<ellipse fill="none" stroke="#000000" cx="968.5866" cy="-252.8" rx="48.6733" ry="18"/>
<text text-anchor="middle" x="968.5866" y="-248.6" font-family="Times,serif" font-size="14.00" fill="#000000">partition8</text>
</g>
<!-- p0x55f65ae0ecd0&#45;&gt;p0x55f65ae0f770 -->
<g id="edge11" class="edge">
<title>p0x55f65ae0ecd0-&gt;p0x55f65ae0f770</title>
<path fill="none" stroke="#000000" d="M785.6855,-310.8512C825.4251,-298.2382 882.0185,-280.276 921.6983,-267.6819"/>
<polygon fill="#000000" stroke="#000000" points="922.9289,-270.9635 931.4015,-264.6022 920.8112,-264.2915 922.9289,-270.9635"/>
</g>
<!-- p0x55f65ae0f880 -->
<g id="node13" class="node">
<title>p0x55f65ae0f880</title>
<ellipse fill="none" stroke="#000000" cx="1083.5866" cy="-252.8" rx="48.6733" ry="18"/>
<text text-anchor="middle" x="1083.5866" y="-248.6" font-family="Times,serif" font-size="14.00" fill="#000000">partition9</text>
</g>
<!-- p0x55f65ae0ecd0&#45;&gt;p0x55f65ae0f880 -->
<g id="edge12" class="edge">
<title>p0x55f65ae0ecd0-&gt;p0x55f65ae0f880</title>
<path fill="none" stroke="#000000" d="M806.8712,-315.0793C865.5395,-305.3171 952.1838,-289.5835 1026.5866,-270.8 1030.168,-269.8959 1033.8553,-268.8952 1037.55,-267.8422"/>
<polygon fill="#000000" stroke="#000000" points="1038.6832,-271.157 1047.2793,-264.9636 1036.6972,-264.4447 1038.6832,-271.157"/>
</g>
<!-- p0x55f65ae0f990 -->
<g id="node14" class="node">
<title>p0x55f65ae0f990</title>
<ellipse fill="none" stroke="#000000" cx="1203.5866" cy="-252.8" rx="53.3302" ry="18"/>
<text text-anchor="middle" x="1203.5866" y="-248.6" font-family="Times,serif" font-size="14.00" fill="#000000">partition10</text>
</g>
<!-- p0x55f65ae0ecd0&#45;&gt;p0x55f65ae0f990 -->
<g id="edge13" class="edge">
<title>p0x55f65ae0ecd0-&gt;p0x55f65ae0f990</title>
<path fill="none" stroke="#000000" d="M816.4272,-318.6039C898.0259,-310.263 1029.6838,-294.5456 1141.5866,-270.8 1145.8969,-269.8854 1150.3454,-268.8272 1154.7882,-267.691"/>
<polygon fill="#000000" stroke="#000000" points="1155.694,-271.0719 1164.4488,-265.105 1153.8838,-264.31 1155.694,-271.0719"/>
</g>
<!-- p0x55f65ae0faa0 -->
<g id="node15" class="node">
<title>p0x55f65ae0faa0</title>
<ellipse fill="none" stroke="#000000" cx="1328.5866" cy="-252.8" rx="53.3302" ry="18"/>
<text text-anchor="middle" x="1328.5866" y="-248.6" font-family="Times,serif" font-size="14.00" fill="#000000">partition11</text>
</g>
<!-- p0x55f65ae0ecd0&#45;&gt;p0x55f65ae0faa0 -->
<g id="edge14" class="edge">
<title>p0x55f65ae0ecd0-&gt;p0x55f65ae0faa0</title>
<path fill="none" stroke="#000000" d="M820.9415,-321.6576C925.2113,-315.3965 1110.0196,-300.9032 1265.5866,-270.8 1270.2283,-269.9018 1275.0234,-268.8208 1279.7997,-267.64"/>
<polygon fill="#000000" stroke="#000000" points="1280.7301,-271.0145 1289.5223,-265.1028 1278.9626,-264.2413 1280.7301,-271.0145"/>
</g>
<!-- p0x55f65ae0ede0 -->
<g id="node16" class="node">
<title>p0x55f65ae0ede0</title>
<ellipse fill="none" stroke="#000000" cx="738.5866" cy="-164" rx="84.5305" ry="18"/>
<text text-anchor="middle" x="738.5866" y="-159.8" font-family="Times,serif" font-size="14.00" fill="#000000">end_assign_cluster</text>
</g>
<!-- p0x55f65ae0eef0&#45;&gt;p0x55f65ae0ede0 -->
<g id="edge16" class="edge">
<title>p0x55f65ae0eef0-&gt;p0x55f65ae0ede0</title>
<path fill="none" stroke="#000000" d="M84.5713,-240.663C91.5004,-238.5462 98.7342,-236.4859 105.5866,-234.8 191.0732,-213.7676 213.2856,-211.3518 300.5866,-200 419.5197,-184.5351 557.5365,-174.4888 646.3591,-169.0376"/>
<polygon fill="#000000" stroke="#000000" points="646.6361,-172.5273 656.4056,-168.4277 646.2119,-165.5401 646.6361,-172.5273"/>
</g>
<!-- p0x55f65ae0f000&#45;&gt;p0x55f65ae0ede0 -->
<g id="edge17" class="edge">
<title>p0x55f65ae0f000-&gt;p0x55f65ae0ede0</title>
<path fill="none" stroke="#000000" d="M199.5666,-240.6437C206.4961,-238.5287 213.7313,-236.474 220.5866,-234.8 368.0015,-198.803 543.7946,-179.6271 648.0304,-170.6542"/>
<polygon fill="#000000" stroke="#000000" points="648.5333,-174.1242 658.2017,-169.7915 647.9417,-167.1493 648.5333,-174.1242"/>
</g>
<!-- p0x55f65ae0f110&#45;&gt;p0x55f65ae0ede0 -->
<g id="edge18" class="edge">
<title>p0x55f65ae0f110-&gt;p0x55f65ae0ede0</title>
<path fill="none" stroke="#000000" d="M314.8942,-240.6377C321.7284,-238.5471 328.8453,-236.5027 335.5866,-234.8 445.1741,-207.1206 574.2185,-186.4981 656.1989,-174.853"/>
<polygon fill="#000000" stroke="#000000" points="656.7926,-178.3041 666.2064,-173.4429 655.8158,-171.3725 656.7926,-178.3041"/>
</g>
<!-- p0x55f65ae0f220&#45;&gt;p0x55f65ae0ede0 -->
<g id="edge19" class="edge">
<title>p0x55f65ae0f220-&gt;p0x55f65ae0ede0</title>
<path fill="none" stroke="#000000" d="M430.2763,-240.8291C437.009,-238.7421 443.9919,-236.6498 450.5866,-234.8 525.335,-213.8336 611.9381,-193.0047 670.5022,-179.4243"/>
<polygon fill="#000000" stroke="#000000" points="671.4222,-182.804 680.377,-177.1416 669.8456,-175.9839 671.4222,-182.804"/>
</g>
<!-- p0x55f65ae0f330&#45;&gt;p0x55f65ae0ede0 -->
<g id="edge20" class="edge">
<title>p0x55f65ae0f330-&gt;p0x55f65ae0ede0</title>
<path fill="none" stroke="#000000" d="M542.5239,-239.6973C580.941,-224.8649 643.9149,-200.5515 688.1024,-183.4913"/>
<polygon fill="#000000" stroke="#000000" points="689.4404,-186.7266 697.5086,-179.8597 686.9191,-180.1964 689.4404,-186.7266"/>
</g>
<!-- p0x55f65ae0f440&#45;&gt;p0x55f65ae0ede0 -->
<g id="edge21" class="edge">
<title>p0x55f65ae0f440-&gt;p0x55f65ae0ede0</title>
<path fill="none" stroke="#000000" d="M644.6793,-236.5127C662.3814,-222.8436 687.9043,-203.1356 707.8749,-187.7147"/>
<polygon fill="#000000" stroke="#000000" points="710.279,-190.2804 716.0549,-181.3984 706.0008,-184.7399 710.279,-190.2804"/>
</g>
<!-- p0x55f65ae0f550&#45;&gt;p0x55f65ae0ede0 -->
<g id="edge22" class="edge">
<title>p0x55f65ae0f550-&gt;p0x55f65ae0ede0</title>
<path fill="none" stroke="#000000" d="M738.5866,-234.4006C738.5866,-222.2949 738.5866,-206.2076 738.5866,-192.4674"/>
<polygon fill="#000000" stroke="#000000" points="742.0867,-192.072 738.5866,-182.072 735.0867,-192.0721 742.0867,-192.072"/>
</g>
<!-- p0x55f65ae0f660&#45;&gt;p0x55f65ae0ede0 -->
<g id="edge23" class="edge">
<title>p0x55f65ae0f660-&gt;p0x55f65ae0ede0</title>
<path fill="none" stroke="#000000" d="M832.4938,-236.5127C814.7917,-222.8436 789.2689,-203.1356 769.2982,-187.7147"/>
<polygon fill="#000000" stroke="#000000" points="771.1724,-184.7399 761.1183,-181.3984 766.8941,-190.2804 771.1724,-184.7399"/>
</g>
<!-- p0x55f65ae0f770&#45;&gt;p0x55f65ae0ede0 -->
<g id="edge24" class="edge">
<title>p0x55f65ae0f770-&gt;p0x55f65ae0ede0</title>
<path fill="none" stroke="#000000" d="M934.6493,-239.6973C896.2321,-224.8649 833.2582,-200.5515 789.0708,-183.4913"/>
<polygon fill="#000000" stroke="#000000" points="790.254,-180.1964 779.6645,-179.8597 787.7327,-186.7266 790.254,-180.1964"/>
</g>
<!-- p0x55f65ae0f880&#45;&gt;p0x55f65ae0ede0 -->
<g id="edge25" class="edge">
<title>p0x55f65ae0f880-&gt;p0x55f65ae0ede0</title>
<path fill="none" stroke="#000000" d="M1046.8968,-240.8291C1040.1642,-238.7421 1033.1812,-236.6498 1026.5866,-234.8 951.8381,-213.8336 865.235,-193.0047 806.671,-179.4243"/>
<polygon fill="#000000" stroke="#000000" points="807.3276,-175.9839 796.7962,-177.1416 805.7509,-182.804 807.3276,-175.9839"/>
</g>
<!-- p0x55f65ae0f990&#45;&gt;p0x55f65ae0ede0 -->
<g id="edge26" class="edge">
<title>p0x55f65ae0f990-&gt;p0x55f65ae0ede0</title>
<path fill="none" stroke="#000000" d="M1164.0651,-240.6318C1156.6342,-238.5417 1148.9014,-236.4991 1141.5866,-234.8 1030.771,-209.0599 900.8872,-187.8169 819.1615,-175.518"/>
<polygon fill="#000000" stroke="#000000" points="819.3527,-172.0077 808.9449,-173.9894 818.3169,-178.9307 819.3527,-172.0077"/>
</g>
<!-- p0x55f65ae0faa0&#45;&gt;p0x55f65ae0ede0 -->
<g id="edge27" class="edge">
<title>p0x55f65ae0faa0-&gt;p0x55f65ae0ede0</title>
<path fill="none" stroke="#000000" d="M1289.1316,-240.666C1281.3725,-238.5244 1273.2591,-236.4542 1265.5866,-234.8 1113.4083,-201.9901 933.0408,-181.6841 827.6558,-171.6456"/>
<polygon fill="#000000" stroke="#000000" points="827.6657,-168.1311 817.3812,-170.6768 827.0085,-175.1002 827.6657,-168.1311"/>
</g>
<!-- p0x55f65ae0fbb0 -->
<g id="node17" class="node">
<title>p0x55f65ae0fbb0</title>
<ellipse fill="none" stroke="#000000" cx="1170.5866" cy="-91" rx="67.1946" ry="18"/>
<text text-anchor="middle" x="1170.5866" y="-86.8" font-family="Times,serif" font-size="14.00" fill="#000000">update_cluster</text>
</g>
<!-- p0x55f65ae0ede0&#45;&gt;p0x55f65ae0fbb0 -->
<g id="edge15" class="edge">
<title>p0x55f65ae0ede0-&gt;p0x55f65ae0fbb0</title>
<path fill="none" stroke="#000000" d="M805.1398,-152.7537C886.1685,-139.0614 1022.2317,-116.0692 1103.5007,-102.3363"/>
<polygon fill="#000000" stroke="#000000" points="1104.3419,-105.7438 1113.619,-100.6265 1103.1755,-98.8417 1104.3419,-105.7438"/>
</g>
<!-- p0x55f65ae0fcc0 -->
<g id="node18" class="node">
<title>p0x55f65ae0fcc0</title>
<polygon fill="#7fffd4" stroke="#000000" points="1361.5866,-36 1282.9942,-18 1361.5866,0 1440.179,-18 1361.5866,-36"/>
<text text-anchor="middle" x="1361.5866" y="-13.8" font-family="Times,serif" font-size="14.00" fill="#000000">converged?</text>
</g>
<!-- p0x55f65ae0fbb0&#45;&gt;p0x55f65ae0fcc0 -->
<g id="edge28" class="edge">
<title>p0x55f65ae0fbb0-&gt;p0x55f65ae0fcc0</title>
<path fill="none" stroke="#000000" d="M1209.2383,-76.2274C1242.2758,-63.6004 1289.5846,-45.5191 1322.6919,-32.8655"/>
<polygon fill="#000000" stroke="#000000" points="1323.9623,-36.127 1332.0537,-29.2874 1321.4631,-29.5883 1323.9623,-36.127"/>
</g>
<!-- p0x55f65ae0fcc0&#45;&gt;p0x55f65ae0ebc0 -->
<g id="edge29" class="edge">
<title>p0x55f65ae0fcc0-&gt;p0x55f65ae0ebc0</title>
<path fill="none" stroke="#000000" stroke-dasharray="5,2" d="M1378.3746,-32.4072C1392.2165,-45.9691 1409.5866,-67.6415 1409.5866,-91 1409.5866,-325.8 1409.5866,-325.8 1409.5866,-325.8 1409.5866,-354.2738 1222.9459,-380.8542 1127.8727,-392.547"/>
<polygon fill="#000000" stroke="#000000" points="1127.3624,-389.0832 1117.8582,-393.7652 1128.2077,-396.0319 1127.3624,-389.0832"/>
<text text-anchor="middle" x="1413.0866" y="-204.2" font-family="Times,serif" font-size="14.00" fill="#000000">0</text>
</g>
</g>
</svg>