<?xml version="1.0" encoding="UTF-8" standalone="no"?><!DOCTYPE svg PUBLIC "-//W3C//DTD SVG 1.1//EN" "http://www.w3.org/Graphics/SVG/1.1/DTD/svg11.dtd"><!-- Generated by graphviz version 2.40.1 (20161225.0304)
 --><!-- Title: Taskflow Pages: 1 --><svg xmlns="http://www.w3.org/2000/svg" xmlns:xlink="http://www.w3.org/1999/xlink" width="766pt" height="188pt" viewBox="0.00 0.00 765.93 188.00">
<g id="graph0" class="graph" transform="scale(1 1) rotate(0) translate(4 184)">
<title>Taskflow</title>
<polygon fill="#ffffff" stroke="transparent" points="-4,4 -4,-184 761.9312,-184 761.9312,4 -4,4"/>
<!-- p0x563dc6ae1020 -->
<g id="node1" class="node">
<title>p0x563dc6ae1020</title>
<ellipse fill="none" stroke="#000000" cx="378.4656" cy="-162" rx="27" ry="18"/>
<text text-anchor="middle" x="378.4656" y="-157.8" font-family="Times,serif" font-size="14.00" fill="#000000">S</text>
</g>
<!-- p0x563dc6ae1460 -->
<g id="node2" class="node">
<title>p0x563dc6ae1460</title>
<ellipse fill="none" stroke="#000000" cx="39.4656" cy="-90" rx="39.4312" ry="18"/>
<text text-anchor="middle" x="39.4656" y="-85.8" font-family="Times,serif" font-size="14.00" fill="#000000">chunk1</text>
</g>
<!-- p0x563dc6ae1020&#45;&gt;p0x563dc6ae1460 -->
<g id="edge1" class="edge">
<title>p0x563dc6ae1020-&gt;p0x563dc6ae1460</title>
<path fill="none" stroke="#000000" d="M351.7374,-158.5551C300.2047,-151.5777 183.7757,-134.1801 88.4656,-108 85.3195,-107.1358 82.0893,-106.1587 78.8608,-105.1176"/>
<polygon fill="#000000" stroke="#000000" points="79.8608,-101.7608 69.2663,-101.8508 77.6045,-108.3873 79.8608,-101.7608"/>
</g>
<!-- p0x563dc6ae1570 -->
<g id="node3" class="node">
<title>p0x563dc6ae1570</title>
<ellipse fill="none" stroke="#000000" cx="136.4656" cy="-90" rx="39.4312" ry="18"/>
<text text-anchor="middle" x="136.4656" y="-85.8" font-family="Times,serif" font-size="14.00" fill="#000000">chunk2</text>
</g>
<!-- p0x563dc6ae1020&#45;&gt;p0x563dc6ae1570 -->
<g id="edge2" class="edge">
<title>p0x563dc6ae1020-&gt;p0x563dc6ae1570</title>
<path fill="none" stroke="#000000" d="M352.9836,-155.5584C315.872,-146.0218 244.8969,-127.1969 185.4656,-108 182.5415,-107.0555 179.5324,-106.0454 176.5122,-105.0037"/>
<polygon fill="#000000" stroke="#000000" points="177.5126,-101.6452 166.9178,-101.6104 175.1785,-108.2446 177.5126,-101.6452"/>
</g>
<!-- p0x563dc6ae1680 -->
<g id="node4" class="node">
<title>p0x563dc6ae1680</title>
<ellipse fill="none" stroke="#000000" cx="233.4656" cy="-90" rx="39.4312" ry="18"/>
<text text-anchor="middle" x="233.4656" y="-85.8" font-family="Times,serif" font-size="14.00" fill="#000000">chunk3</text>
</g>
<!-- p0x563dc6ae1020&#45;&gt;p0x563dc6ae1680 -->
<g id="edge3" class="edge">
<title>p0x563dc6ae1020-&gt;p0x563dc6ae1680</title>
<path fill="none" stroke="#000000" d="M356.7576,-151.2209C333.7186,-139.7808 296.9276,-121.5122 269.5238,-107.9048"/>
<polygon fill="#000000" stroke="#000000" points="270.7734,-104.6176 260.2602,-103.3049 267.6602,-110.8872 270.7734,-104.6176"/>
</g>
<!-- p0x563dc6ae1790 -->
<g id="node5" class="node">
<title>p0x563dc6ae1790</title>
<ellipse fill="none" stroke="#000000" cx="330.4656" cy="-90" rx="39.4312" ry="18"/>
<text text-anchor="middle" x="330.4656" y="-85.8" font-family="Times,serif" font-size="14.00" fill="#000000">chunk4</text>
</g>
<!-- p0x563dc6ae1020&#45;&gt;p0x563dc6ae1790 -->
<g id="edge4" class="edge">
<title>p0x563dc6ae1020-&gt;p0x563dc6ae1790</title>
<path fill="none" stroke="#000000" d="M367.3328,-145.3008C361.5654,-136.6496 354.3904,-125.8873 347.9071,-116.1623"/>
<polygon fill="#000000" stroke="#000000" points="350.6669,-113.9922 342.2077,-107.6132 344.8426,-117.8752 350.6669,-113.9922"/>
</g>
<!-- p0x563dc6ae18a0 -->
<g id="node6" class="node">
<title>p0x563dc6ae18a0</title>
<ellipse fill="none" stroke="#000000" cx="427.4656" cy="-90" rx="39.4312" ry="18"/>
<text text-anchor="middle" x="427.4656" y="-85.8" font-family="Times,serif" font-size="14.00" fill="#000000">chunk5</text>
</g>
<!-- p0x563dc6ae1020&#45;&gt;p0x563dc6ae18a0 -->
<g id="edge5" class="edge">
<title>p0x563dc6ae1020-&gt;p0x563dc6ae18a0</title>
<path fill="none" stroke="#000000" d="M389.8303,-145.3008C395.7179,-136.6496 403.0423,-125.8873 409.6607,-116.1623"/>
<polygon fill="#000000" stroke="#000000" points="412.7461,-117.8495 415.4788,-107.6132 406.9591,-113.9111 412.7461,-117.8495"/>
</g>
<!-- p0x563dc6ae19b0 -->
<g id="node7" class="node">
<title>p0x563dc6ae19b0</title>
<ellipse fill="none" stroke="#000000" cx="524.4656" cy="-90" rx="39.4312" ry="18"/>
<text text-anchor="middle" x="524.4656" y="-85.8" font-family="Times,serif" font-size="14.00" fill="#000000">chunk6</text>
</g>
<!-- p0x563dc6ae1020&#45;&gt;p0x563dc6ae19b0 -->
<g id="edge6" class="edge">
<title>p0x563dc6ae1020-&gt;p0x563dc6ae19b0</title>
<path fill="none" stroke="#000000" d="M400.3233,-151.2209C423.5211,-139.7808 460.5659,-121.5122 488.1587,-107.9048"/>
<polygon fill="#000000" stroke="#000000" points="490.0655,-110.8669 497.4862,-103.3049 486.9694,-104.5888 490.0655,-110.8669"/>
</g>
<!-- p0x563dc6ae1ac0 -->
<g id="node8" class="node">
<title>p0x563dc6ae1ac0</title>
<ellipse fill="none" stroke="#000000" cx="621.4656" cy="-90" rx="39.4312" ry="18"/>
<text text-anchor="middle" x="621.4656" y="-85.8" font-family="Times,serif" font-size="14.00" fill="#000000">chunk7</text>
</g>
<!-- p0x563dc6ae1020&#45;&gt;p0x563dc6ae1ac0 -->
<g id="edge7" class="edge">
<title>p0x563dc6ae1020-&gt;p0x563dc6ae1ac0</title>
<path fill="none" stroke="#000000" d="M403.7712,-155.6517C440.9916,-146.1578 512.5694,-127.3028 572.4656,-108 575.3903,-107.0574 578.3998,-106.0488 581.4204,-105.0081"/>
<polygon fill="#000000" stroke="#000000" points="582.7534,-108.2493 591.0154,-101.6168 580.4206,-101.6494 582.7534,-108.2493"/>
</g>
<!-- p0x563dc6ae1bd0 -->
<g id="node9" class="node">
<title>p0x563dc6ae1bd0</title>
<ellipse fill="none" stroke="#000000" cx="718.4656" cy="-90" rx="39.4312" ry="18"/>
<text text-anchor="middle" x="718.4656" y="-85.8" font-family="Times,serif" font-size="14.00" fill="#000000">chunk8</text>
</g>
<!-- p0x563dc6ae1020&#45;&gt;p0x563dc6ae1bd0 -->
<g id="edge8" class="edge">
<title>p0x563dc6ae1020-&gt;p0x563dc6ae1bd0</title>
<path fill="none" stroke="#000000" d="M405.2865,-158.5656C456.9978,-151.6061 573.8297,-134.2377 669.4656,-108 672.6119,-107.1368 675.8423,-106.1604 679.071,-105.1198"/>
<polygon fill="#000000" stroke="#000000" points="680.3269,-108.3895 688.6657,-101.8538 678.0712,-101.7629 680.3269,-108.3895"/>
</g>
<!-- p0x563dc6ae0f10 -->
<g id="node10" class="node">
<title>p0x563dc6ae0f10</title>
<ellipse fill="none" stroke="#000000" cx="378.4656" cy="-18" rx="27" ry="18"/>
<text text-anchor="middle" x="378.4656" y="-13.8" font-family="Times,serif" font-size="14.00" fill="#000000">T</text>
</g>
<!-- p0x563dc6ae1460&#45;&gt;p0x563dc6ae0f10 -->
<g id="edge9" class="edge">
<title>p0x563dc6ae1460-&gt;p0x563dc6ae0f10</title>
<path fill="none" stroke="#000000" d="M69.2663,-78.1492C75.5447,-75.9083 82.1735,-73.7283 88.4656,-72 178.005,-47.4051 286.1833,-30.5612 341.6823,-22.8265"/>
<polygon fill="#000000" stroke="#000000" points="342.3069,-26.2736 351.7374,-21.4449 341.354,-19.3388 342.3069,-26.2736"/>
</g>
<!-- p0x563dc6ae1570&#45;&gt;p0x563dc6ae0f10 -->
<g id="edge10" class="edge">
<title>p0x563dc6ae1570-&gt;p0x563dc6ae0f10</title>
<path fill="none" stroke="#000000" d="M166.9178,-78.3896C173.0297,-76.1793 179.4288,-73.95 185.4656,-72 240.0217,-54.3779 304.3053,-37.0692 343.1921,-26.9711"/>
<polygon fill="#000000" stroke="#000000" points="344.1769,-30.3317 352.9836,-24.4416 342.426,-23.5542 344.1769,-30.3317"/>
</g>
<!-- p0x563dc6ae1680&#45;&gt;p0x563dc6ae0f10 -->
<g id="edge11" class="edge">
<title>p0x563dc6ae1680-&gt;p0x563dc6ae0f10</title>
<path fill="none" stroke="#000000" d="M260.3992,-76.6261C285.0537,-64.3838 321.5309,-46.271 347.4057,-33.4228"/>
<polygon fill="#000000" stroke="#000000" points="349.0174,-36.5304 356.4173,-28.9481 345.9041,-30.2607 349.0174,-36.5304"/>
</g>
<!-- p0x563dc6ae1790&#45;&gt;p0x563dc6ae0f10 -->
<g id="edge12" class="edge">
<title>p0x563dc6ae1790-&gt;p0x563dc6ae0f10</title>
<path fill="none" stroke="#000000" d="M342.085,-72.5708C347.948,-63.7763 355.1685,-52.9457 361.6271,-43.2577"/>
<polygon fill="#000000" stroke="#000000" points="364.6488,-45.0349 367.2836,-34.7729 358.8244,-41.152 364.6488,-45.0349"/>
</g>
<!-- p0x563dc6ae18a0&#45;&gt;p0x563dc6ae0f10 -->
<g id="edge13" class="edge">
<title>p0x563dc6ae18a0-&gt;p0x563dc6ae0f10</title>
<path fill="none" stroke="#000000" d="M415.6041,-72.5708C409.6189,-63.7763 402.2481,-52.9457 395.6548,-43.2577"/>
<polygon fill="#000000" stroke="#000000" points="398.4003,-41.0709 389.8805,-34.7729 392.6133,-45.0093 398.4003,-41.0709"/>
</g>
<!-- p0x563dc6ae19b0&#45;&gt;p0x563dc6ae0f10 -->
<g id="edge14" class="edge">
<title>p0x563dc6ae19b0-&gt;p0x563dc6ae0f10</title>
<path fill="none" stroke="#000000" d="M497.3463,-76.6261C472.3748,-64.3114 435.3578,-46.0564 409.2783,-33.1953"/>
<polygon fill="#000000" stroke="#000000" points="410.7242,-30.0059 400.2074,-28.722 407.6281,-36.284 410.7242,-30.0059"/>
</g>
<!-- p0x563dc6ae1ac0&#45;&gt;p0x563dc6ae0f10 -->
<g id="edge15" class="edge">
<title>p0x563dc6ae1ac0-&gt;p0x563dc6ae0f10</title>
<path fill="none" stroke="#000000" d="M591.0154,-78.3832C584.9034,-76.1735 578.5037,-73.9459 572.4656,-72 517.4827,-54.2806 452.6562,-36.9386 413.5991,-26.8687"/>
<polygon fill="#000000" stroke="#000000" points="414.3272,-23.4423 403.7712,-24.3483 412.5882,-30.2228 414.3272,-23.4423"/>
</g>
<!-- p0x563dc6ae1bd0&#45;&gt;p0x563dc6ae0f10 -->
<g id="edge16" class="edge">
<title>p0x563dc6ae1bd0-&gt;p0x563dc6ae0f10</title>
<path fill="none" stroke="#000000" d="M688.6657,-78.1462C682.3873,-75.9055 675.7583,-73.7264 669.4656,-72 579.6201,-47.3509 471.0677,-30.5296 415.3764,-22.8127"/>
<polygon fill="#000000" stroke="#000000" points="415.6682,-19.3201 405.2865,-21.4344 414.7207,-26.2557 415.6682,-19.3201"/>
</g>
</g>
</svg>