<?xml version="1.0" encoding="UTF-8" standalone="no"?><!DOCTYPE svg PUBLIC "-//W3C//DTD SVG 1.1//EN" "http://www.w3.org/Graphics/SVG/1.1/DTD/svg11.dtd"><!-- Generated by graphviz version 2.40.1 (20161225.0304)
 --><!-- Title: Taskflow Pages: 1 --><svg xmlns="http://www.w3.org/2000/svg" xmlns:xlink="http://www.w3.org/1999/xlink" width="410pt" height="229pt" viewBox="0.00 0.00 409.97 229.00">
<g id="graph0" class="graph" transform="scale(1 1) rotate(0) translate(4 225)">
<title>Taskflow</title>
<polygon fill="#ffffff" stroke="transparent" points="-4,4 -4,-225 405.9731,-225 405.9731,4 -4,4"/>
<g id="clust1" class="cluster">
<title>cluster_p0x7ffeeca03810</title>
<polygon fill="none" stroke="#000000" points="8,-8 8,-213 393.9731,-213 393.9731,-8 8,-8"/>
<text text-anchor="middle" x="200.9865" y="-196.4" font-family="Times,serif" font-size="14.00" fill="#000000">Taskflow</text>
</g>
<g id="clust2" class="cluster">
<title>cluster_p0x7fbc40c02830</title>
<polygon fill="none" stroke="#0000ff" points="16,-16 16,-180 385.9731,-180 385.9731,-16 16,-16"/>
<text text-anchor="middle" x="200.9865" y="-163.4" font-family="Times,serif" font-size="14.00" fill="#000000">Subflow: A</text>
</g>
<g id="clust3" class="cluster">
<title>cluster_p0x7fbc40d00240</title>
<polygon fill="none" stroke="#0000ff" points="24,-70 24,-147 295.9731,-147 295.9731,-70 24,-70"/>
<text text-anchor="middle" x="159.9865" y="-130.4" font-family="Times,serif" font-size="14.00" fill="#000000">Subflow: A2</text>
</g>
<!-- p0x7fbc40c02830 -->
<g id="node1" class="node">
<title>p0x7fbc40c02830</title>
<ellipse fill="none" stroke="#000000" cx="350.9731" cy="-96" rx="27" ry="18"/>
<text text-anchor="middle" x="350.9731" y="-91.8" font-family="Times,serif" font-size="14.00" fill="#000000">A</text>
</g>
<!-- p0x7fbc40d00120 -->
<g id="node2" class="node">
<title>p0x7fbc40d00120</title>
<ellipse fill="none" stroke="#000000" cx="165.4798" cy="-42" rx="27" ry="18"/>
<text text-anchor="middle" x="165.4798" y="-37.8" font-family="Times,serif" font-size="14.00" fill="#000000">A1</text>
</g>
<!-- p0x7fbc40d00240 -->
<g id="node3" class="node">
<title>p0x7fbc40d00240</title>
<ellipse fill="none" stroke="#000000" cx="260.9731" cy="-96" rx="27" ry="18"/>
<text text-anchor="middle" x="260.9731" y="-91.8" font-family="Times,serif" font-size="14.00" fill="#000000">A2</text>
</g>
<!-- p0x7fbc40d00120&#45;&gt;p0x7fbc40d00240 -->
<g id="edge1" class="edge">
<title>p0x7fbc40d00120-&gt;p0x7fbc40d00240</title>
<path fill="none" stroke="#000000" d="M186.2004,-53.7172C199.4649,-61.218 216.8786,-71.0652 231.5636,-79.3694"/>
<polygon fill="#000000" stroke="#000000" points="229.8654,-82.4299 240.2929,-84.3057 233.3111,-76.3367 229.8654,-82.4299"/>
</g>
<!-- p0x7fbc40d00240&#45;&gt;p0x7fbc40c02830 -->
<g id="edge2" class="edge">
<title>p0x7fbc40d00240-&gt;p0x7fbc40c02830</title>
<path fill="none" stroke="#000000" d="M287.9761,-96C296.0008,-96 304.9396,-96 313.5039,-96"/>
<polygon fill="#000000" stroke="#000000" points="313.6782,-99.5001 323.6781,-96 313.6781,-92.5001 313.6782,-99.5001"/>
</g>
<!-- p0x7fbc40d00360 -->
<g id="node4" class="node">
<title>p0x7fbc40d00360</title>
<ellipse fill="none" stroke="#000000" cx="64.4933" cy="-96" rx="32.4865" ry="18"/>
<text text-anchor="middle" x="64.4933" y="-91.8" font-family="Times,serif" font-size="14.00" fill="#000000">A2_1</text>
</g>
<!-- p0x7fbc40d00470 -->
<g id="node5" class="node">
<title>p0x7fbc40d00470</title>
<ellipse fill="none" stroke="#000000" cx="165.4798" cy="-96" rx="32.4865" ry="18"/>
<text text-anchor="middle" x="165.4798" y="-91.8" font-family="Times,serif" font-size="14.00" fill="#000000">A2_2</text>
</g>
<!-- p0x7fbc40d00360&#45;&gt;p0x7fbc40d00470 -->
<g id="edge3" class="edge">
<title>p0x7fbc40d00360-&gt;p0x7fbc40d00470</title>
<path fill="none" stroke="#000000" d="M97.0019,-96C105.1184,-96 113.948,-96 122.4851,-96"/>
<polygon fill="#000000" stroke="#000000" points="122.6859,-99.5001 132.6858,-96 122.6858,-92.5001 122.6859,-99.5001"/>
</g>
<!-- p0x7fbc40d00470&#45;&gt;p0x7fbc40d00240 -->
<g id="edge4" class="edge">
<title>p0x7fbc40d00470-&gt;p0x7fbc40d00240</title>
<path fill="none" stroke="#000000" d="M198.0761,-96C206.3732,-96 215.3512,-96 223.8553,-96"/>
<polygon fill="#000000" stroke="#000000" points="223.9158,-99.5001 233.9158,-96 223.9158,-92.5001 223.9158,-99.5001"/>
</g>
</g>
</svg>