<?xml version="1.0" encoding="UTF-8" standalone="no"?><!DOCTYPE svg PUBLIC "-//W3C//DTD SVG 1.1//EN" "http://www.w3.org/Graphics/SVG/1.1/DTD/svg11.dtd"><!-- Generated by graphviz version 2.40.1 (20161225.0304)
 --><!-- Title: Taskflow Pages: 1 --><svg xmlns="http://www.w3.org/2000/svg" xmlns:xlink="http://www.w3.org/1999/xlink" width="3271pt" height="289pt" viewBox="0.00 0.00 3270.74 289.00">
<g id="graph0" class="graph" transform="scale(1 1) rotate(0) translate(4 285)">
<title>Taskflow</title>
<polygon fill="#ffffff" stroke="transparent" points="-4,4 -4,-285 3266.7449,-285 3266.7449,4 -4,4"/>
<!-- [A33] bprop_tau2015_clk -->
<g id="node1" class="node">
<title>[A33] bprop_tau2015_clk</title>
<ellipse fill="#000000" stroke="#000000" cx="3151.139" cy="-167" rx="111.7118" ry="18"/>
<text text-anchor="middle" x="3151.139" y="-162.8" font-family="Times,serif" font-size="14.00" fill="#ffffff">[A33] bprop_tau2015_clk</text>
</g>
<!-- [A32] bprop_f1:CLK -->
<g id="node2" class="node">
<title>[A32] bprop_f1:CLK</title>
<ellipse fill="#000000" stroke="#000000" cx="2909.6295" cy="-167" rx="93.8075" ry="18"/>
<text text-anchor="middle" x="2909.6295" y="-162.8" font-family="Times,serif" font-size="14.00" fill="#ffffff">[A32] bprop_f1:CLK</text>
</g>
<!-- [A32] bprop_f1:CLK&#45;&gt;[A33] bprop_tau2015_clk -->
<g id="edge1" class="edge">
<title>[A32] bprop_f1:CLK-&gt;[A33] bprop_tau2015_clk</title>
<path fill="none" stroke="#000000" d="M3003.6949,-167C3012.0721,-167 3020.6296,-167 3029.1951,-167"/>
<polygon fill="#000000" stroke="#000000" points="3029.2437,-170.5001 3039.2436,-167 3029.2436,-163.5001 3029.2437,-170.5001"/>
</g>
<!-- [A31] bprop_f1:Q -->
<g id="node3" class="node">
<title>[A31] bprop_f1:Q</title>
<ellipse fill="#000000" stroke="#000000" cx="2696.548" cy="-126" rx="81.6282" ry="18"/>
<text text-anchor="middle" x="2696.548" y="-121.8" font-family="Times,serif" font-size="14.00" fill="#ffffff">[A31] bprop_f1:Q</text>
</g>
<!-- [A31] bprop_f1:Q&#45;&gt;[A32] bprop_f1:CLK -->
<g id="edge2" class="edge">
<title>[A31] bprop_f1:Q-&gt;[A32] bprop_f1:CLK</title>
<path fill="none" stroke="#000000" d="M2770.4756,-133.7641C2796.4644,-138.2898 2825.3185,-143.9515 2849.9835,-149.3917"/>
<polygon fill="#000000" stroke="#000000" points="2849.3974,-152.8471 2859.9214,-151.6241 2850.9317,-146.0173 2849.3974,-152.8471"/>
</g>
<!-- [A31] bprop_f1:Q&#45;&gt;[A32] bprop_f1:CLK -->
<g id="edge3" class="edge">
<title>[A31] bprop_f1:Q-&gt;[A32] bprop_f1:CLK</title>
<path fill="none" stroke="#000000" d="M2743.5734,-140.7581C2765.5373,-145.8454 2792.4699,-151.3541 2818.202,-156.0973"/>
<polygon fill="#000000" stroke="#000000" points="2817.9071,-159.6009 2828.3714,-157.9429 2819.1571,-152.7134 2817.9071,-159.6009"/>
</g>
<!-- [A30] bprop_u4:B -->
<g id="node4" class="node">
<title>[A30] bprop_u4:B</title>
<ellipse fill="#000000" stroke="#000000" cx="2494.1925" cy="-126" rx="82.7935" ry="18"/>
<text text-anchor="middle" x="2494.1925" y="-121.8" font-family="Times,serif" font-size="14.00" fill="#ffffff">[A30] bprop_u4:B</text>
</g>
<!-- [A30] bprop_u4:B&#45;&gt;[A31] bprop_f1:Q -->
<g id="edge4" class="edge">
<title>[A30] bprop_u4:B-&gt;[A31] bprop_f1:Q</title>
<path fill="none" stroke="#000000" d="M2577.0821,-126C2586.1225,-126 2595.3645,-126 2604.5061,-126"/>
<polygon fill="#000000" stroke="#000000" points="2604.7687,-129.5001 2614.7686,-126 2604.7686,-122.5001 2604.7687,-129.5001"/>
</g>
<!-- [A29] bprop_u2:A -->
<g id="node5" class="node">
<title>[A29] bprop_u2:A</title>
<ellipse fill="#000000" stroke="#000000" cx="2494.1925" cy="-18" rx="83.3559" ry="18"/>
<text text-anchor="middle" x="2494.1925" y="-13.8" font-family="Times,serif" font-size="14.00" fill="#ffffff">[A29] bprop_u2:A</text>
</g>
<!-- [A29] bprop_u2:A&#45;&gt;[A31] bprop_f1:Q -->
<g id="edge5" class="edge">
<title>[A29] bprop_u2:A-&gt;[A31] bprop_f1:Q</title>
<path fill="none" stroke="#000000" d="M2551.7374,-31.0508C2560.8372,-34.6559 2569.7462,-39.2242 2577.3703,-45 2600.3619,-62.418 2590.3787,-81.582 2613.3703,-99 2618.453,-102.8506 2624.1068,-106.1644 2630.0075,-109.014"/>
<polygon fill="#000000" stroke="#000000" points="2628.8708,-112.3364 2639.4366,-113.1202 2631.6657,-105.9186 2628.8708,-112.3364"/>
</g>
<!-- [A28] bprop_u2:Y -->
<g id="node6" class="node">
<title>[A28] bprop_u2:Y</title>
<ellipse fill="#000000" stroke="#000000" cx="2291.837" cy="-18" rx="83.3559" ry="18"/>
<text text-anchor="middle" x="2291.837" y="-13.8" font-family="Times,serif" font-size="14.00" fill="#ffffff">[A28] bprop_u2:Y</text>
</g>
<!-- [A28] bprop_u2:Y&#45;&gt;[A29] bprop_u2:A -->
<g id="edge6" class="edge">
<title>[A28] bprop_u2:Y-&gt;[A29] bprop_u2:A</title>
<path fill="none" stroke="#000000" d="M2369.4942,-11.4148C2381.5976,-11.2424 2394.1764,-11.2052 2406.4844,-11.3035"/>
<polygon fill="#000000" stroke="#000000" points="2406.7047,-14.806 2416.7431,-11.4178 2406.7828,-7.8065 2406.7047,-14.806"/>
</g>
<!-- [A28] bprop_u2:Y&#45;&gt;[A29] bprop_u2:A -->
<g id="edge7" class="edge">
<title>[A28] bprop_u2:Y-&gt;[A29] bprop_u2:A</title>
<path fill="none" stroke="#000000" d="M2369.4942,-24.5852C2381.5976,-24.7576 2394.1764,-24.7948 2406.4844,-24.6965"/>
<polygon fill="#000000" stroke="#000000" points="2406.7828,-28.1935 2416.7431,-24.5822 2406.7047,-21.194 2406.7828,-28.1935"/>
</g>
<!-- [A27] bprop_u3:A -->
<g id="node7" class="node">
<title>[A27] bprop_u3:A</title>
<ellipse fill="#000000" stroke="#000000" cx="2089.4815" cy="-18" rx="83.3559" ry="18"/>
<text text-anchor="middle" x="2089.4815" y="-13.8" font-family="Times,serif" font-size="14.00" fill="#ffffff">[A27] bprop_u3:A</text>
</g>
<!-- [A27] bprop_u3:A&#45;&gt;[A28] bprop_u2:Y -->
<g id="edge8" class="edge">
<title>[A27] bprop_u3:A-&gt;[A28] bprop_u2:Y</title>
<path fill="none" stroke="#000000" d="M2172.6633,-18C2181.2034,-18 2189.9203,-18 2198.5599,-18"/>
<polygon fill="#000000" stroke="#000000" points="2198.6513,-21.5001 2208.6513,-18 2198.6513,-14.5001 2198.6513,-21.5001"/>
</g>
<!-- [A26] bprop_u3:Y -->
<g id="node8" class="node">
<title>[A26] bprop_u3:Y</title>
<ellipse fill="#000000" stroke="#000000" cx="1887.126" cy="-18" rx="83.3559" ry="18"/>
<text text-anchor="middle" x="1887.126" y="-13.8" font-family="Times,serif" font-size="14.00" fill="#ffffff">[A26] bprop_u3:Y</text>
</g>
<!-- [A26] bprop_u3:Y&#45;&gt;[A27] bprop_u3:A -->
<g id="edge9" class="edge">
<title>[A26] bprop_u3:Y-&gt;[A27] bprop_u3:A</title>
<path fill="none" stroke="#000000" d="M1964.7832,-11.4148C1976.8866,-11.2424 1989.4654,-11.2052 2001.7734,-11.3035"/>
<polygon fill="#000000" stroke="#000000" points="2001.9937,-14.806 2012.0321,-11.4178 2002.0718,-7.8065 2001.9937,-14.806"/>
</g>
<!-- [A26] bprop_u3:Y&#45;&gt;[A27] bprop_u3:A -->
<g id="edge10" class="edge">
<title>[A26] bprop_u3:Y-&gt;[A27] bprop_u3:A</title>
<path fill="none" stroke="#000000" d="M1964.7832,-24.5852C1976.8866,-24.7576 1989.4654,-24.7948 2001.7734,-24.6965"/>
<polygon fill="#000000" stroke="#000000" points="2002.0718,-28.1935 2012.0321,-24.5822 2001.9937,-21.194 2002.0718,-28.1935"/>
</g>
<!-- [A25] bprop_out -->
<g id="node9" class="node">
<title>[A25] bprop_out</title>
<ellipse fill="#000000" stroke="#000000" cx="1691.7419" cy="-18" rx="76.4134" ry="18"/>
<text text-anchor="middle" x="1691.7419" y="-13.8" font-family="Times,serif" font-size="14.00" fill="#ffffff">[A25] bprop_out</text>
</g>
<!-- [A25] bprop_out&#45;&gt;[A26] bprop_u3:Y -->
<g id="edge11" class="edge">
<title>[A25] bprop_out-&gt;[A26] bprop_u3:Y</title>
<path fill="none" stroke="#000000" d="M1768.1219,-18C1776.5071,-18 1785.1125,-18 1793.6743,-18"/>
<polygon fill="#000000" stroke="#000000" points="1793.6894,-21.5001 1803.6894,-18 1793.6894,-14.5001 1793.6894,-21.5001"/>
</g>
<!-- [A24] bprop_inp2 -->
<g id="node10" class="node">
<title>[A24] bprop_inp2</title>
<ellipse fill="#000000" stroke="#000000" cx="3151.139" cy="-99" rx="81.0698" ry="18"/>
<text text-anchor="middle" x="3151.139" y="-94.8" font-family="Times,serif" font-size="14.00" fill="#ffffff">[A24] bprop_inp2</text>
</g>
<!-- [A23] bprop_u1:B -->
<g id="node11" class="node">
<title>[A23] bprop_u1:B</title>
<ellipse fill="#000000" stroke="#000000" cx="2909.6295" cy="-99" rx="82.7935" ry="18"/>
<text text-anchor="middle" x="2909.6295" y="-94.8" font-family="Times,serif" font-size="14.00" fill="#ffffff">[A23] bprop_u1:B</text>
</g>
<!-- [A23] bprop_u1:B&#45;&gt;[A24] bprop_inp2 -->
<g id="edge12" class="edge">
<title>[A23] bprop_u1:B-&gt;[A24] bprop_inp2</title>
<path fill="none" stroke="#000000" d="M2992.4055,-99C3014.0749,-99 3037.5609,-99 3059.6556,-99"/>
<polygon fill="#000000" stroke="#000000" points="3059.6978,-102.5001 3069.6978,-99 3059.6978,-95.5001 3059.6978,-102.5001"/>
</g>
<!-- [A22] bprop_inp1 -->
<g id="node12" class="node">
<title>[A22] bprop_inp1</title>
<ellipse fill="#000000" stroke="#000000" cx="3151.139" cy="-45" rx="81.0698" ry="18"/>
<text text-anchor="middle" x="3151.139" y="-40.8" font-family="Times,serif" font-size="14.00" fill="#ffffff">[A22] bprop_inp1</text>
</g>
<!-- [A21] bprop_u1:A -->
<g id="node13" class="node">
<title>[A21] bprop_u1:A</title>
<ellipse fill="#000000" stroke="#000000" cx="2909.6295" cy="-45" rx="83.3559" ry="18"/>
<text text-anchor="middle" x="2909.6295" y="-40.8" font-family="Times,serif" font-size="14.00" fill="#ffffff">[A21] bprop_u1:A</text>
</g>
<!-- [A21] bprop_u1:A&#45;&gt;[A22] bprop_inp1 -->
<g id="edge13" class="edge">
<title>[A21] bprop_u1:A-&gt;[A22] bprop_inp1</title>
<path fill="none" stroke="#000000" d="M2993.0815,-45C3014.5033,-45 3037.6617,-45 3059.4738,-45"/>
<polygon fill="#000000" stroke="#000000" points="3059.7235,-48.5001 3069.7234,-45 3059.7234,-41.5001 3059.7235,-48.5001"/>
</g>
<!-- [A20] bprop_u1:Y -->
<g id="node14" class="node">
<title>[A20] bprop_u1:Y</title>
<ellipse fill="#000000" stroke="#000000" cx="2696.548" cy="-72" rx="83.3559" ry="18"/>
<text text-anchor="middle" x="2696.548" y="-67.8" font-family="Times,serif" font-size="14.00" fill="#ffffff">[A20] bprop_u1:Y</text>
</g>
<!-- [A20] bprop_u1:Y&#45;&gt;[A23] bprop_u1:B -->
<g id="edge15" class="edge">
<title>[A20] bprop_u1:Y-&gt;[A23] bprop_u1:B</title>
<path fill="none" stroke="#000000" d="M2778.017,-75.7421C2799.5228,-78.1723 2822.4735,-81.1714 2843.0872,-84.2602"/>
<polygon fill="#000000" stroke="#000000" points="2842.5872,-87.7244 2853.0024,-85.7816 2843.6489,-80.8054 2842.5872,-87.7244"/>
</g>
<!-- [A20] bprop_u1:Y&#45;&gt;[A23] bprop_u1:B -->
<g id="edge17" class="edge">
<title>[A20] bprop_u1:Y-&gt;[A23] bprop_u1:B</title>
<path fill="none" stroke="#000000" d="M2753.0905,-85.2051C2773.0843,-88.3505 2796.1163,-91.485 2818.2563,-94.1107"/>
<polygon fill="#000000" stroke="#000000" points="2818.0156,-97.6062 2828.3518,-95.2796 2818.8207,-90.6526 2818.0156,-97.6062"/>
</g>
<!-- [A20] bprop_u1:Y&#45;&gt;[A21] bprop_u1:A -->
<g id="edge14" class="edge">
<title>[A20] bprop_u1:Y-&gt;[A21] bprop_u1:A</title>
<path fill="none" stroke="#000000" d="M2753.0905,-58.7949C2772.9774,-55.6664 2795.8701,-52.5485 2817.901,-49.9314"/>
<polygon fill="#000000" stroke="#000000" points="2818.4187,-53.3949 2827.9488,-48.766 2817.6121,-46.4416 2818.4187,-53.3949"/>
</g>
<!-- [A20] bprop_u1:Y&#45;&gt;[A21] bprop_u1:A -->
<g id="edge16" class="edge">
<title>[A20] bprop_u1:Y-&gt;[A21] bprop_u1:A</title>
<path fill="none" stroke="#000000" d="M2778.017,-68.2579C2799.5228,-65.8277 2822.4735,-62.8286 2843.0872,-59.7398"/>
<polygon fill="#000000" stroke="#000000" points="2843.6489,-63.1946 2853.0024,-58.2184 2842.5872,-56.2756 2843.6489,-63.1946"/>
</g>
<!-- [A19] bprop_u4:A -->
<g id="node15" class="node">
<title>[A19] bprop_u4:A</title>
<ellipse fill="#000000" stroke="#000000" cx="2494.1925" cy="-72" rx="83.3559" ry="18"/>
<text text-anchor="middle" x="2494.1925" y="-67.8" font-family="Times,serif" font-size="14.00" fill="#ffffff">[A19] bprop_u4:A</text>
</g>
<!-- [A19] bprop_u4:A&#45;&gt;[A20] bprop_u1:Y -->
<g id="edge18" class="edge">
<title>[A19] bprop_u4:A-&gt;[A20] bprop_u1:Y</title>
<path fill="none" stroke="#000000" d="M2577.3742,-72C2585.9144,-72 2594.6313,-72 2603.2709,-72"/>
<polygon fill="#000000" stroke="#000000" points="2603.3623,-75.5001 2613.3623,-72 2603.3622,-68.5001 2603.3623,-75.5001"/>
</g>
<!-- [A18] bprop_u4:Y -->
<g id="node16" class="node">
<title>[A18] bprop_u4:Y</title>
<ellipse fill="#000000" stroke="#000000" cx="2291.837" cy="-126" rx="83.3559" ry="18"/>
<text text-anchor="middle" x="2291.837" y="-121.8" font-family="Times,serif" font-size="14.00" fill="#ffffff">[A18] bprop_u4:Y</text>
</g>
<!-- [A18] bprop_u4:Y&#45;&gt;[A30] bprop_u4:B -->
<g id="edge20" class="edge">
<title>[A18] bprop_u4:Y-&gt;[A30] bprop_u4:B</title>
<path fill="none" stroke="#000000" d="M2369.4942,-119.4148C2381.6847,-119.2411 2394.3574,-119.2047 2406.75,-119.3056"/>
<polygon fill="#000000" stroke="#000000" points="2407.0382,-122.809 2417.0772,-119.4226 2407.1175,-115.8094 2407.0382,-122.809"/>
</g>
<!-- [A18] bprop_u4:Y&#45;&gt;[A30] bprop_u4:B -->
<g id="edge22" class="edge">
<title>[A18] bprop_u4:Y-&gt;[A30] bprop_u4:B</title>
<path fill="none" stroke="#000000" d="M2369.4942,-132.5852C2381.6847,-132.7589 2394.3574,-132.7953 2406.75,-132.6944"/>
<polygon fill="#000000" stroke="#000000" points="2407.1175,-136.1906 2417.0772,-132.5774 2407.0382,-129.191 2407.1175,-136.1906"/>
</g>
<!-- [A18] bprop_u4:Y&#45;&gt;[A19] bprop_u4:A -->
<g id="edge19" class="edge">
<title>[A18] bprop_u4:Y-&gt;[A19] bprop_u4:A</title>
<path fill="none" stroke="#000000" d="M2331.3336,-109.9791C2356.1343,-102.1828 2388.9306,-93.073 2418.5892,-85.6207"/>
<polygon fill="#000000" stroke="#000000" points="2419.6469,-88.9645 2428.511,-83.1612 2417.9626,-82.1702 2419.6469,-88.9645"/>
</g>
<!-- [A18] bprop_u4:Y&#45;&gt;[A19] bprop_u4:A -->
<g id="edge21" class="edge">
<title>[A18] bprop_u4:Y-&gt;[A19] bprop_u4:A</title>
<path fill="none" stroke="#000000" d="M2357.536,-114.8345C2386.0862,-107.8573 2418.9518,-98.9229 2445.2967,-90.9232"/>
<polygon fill="#000000" stroke="#000000" points="2446.5307,-94.2052 2455.0517,-87.909 2444.4642,-87.5172 2446.5307,-94.2052"/>
</g>
<!-- [A17] bprop_f1:D -->
<g id="node17" class="node">
<title>[A17] bprop_f1:D</title>
<ellipse fill="#000000" stroke="#000000" cx="2089.4815" cy="-181" rx="81.6282" ry="18"/>
<text text-anchor="middle" x="2089.4815" y="-176.8" font-family="Times,serif" font-size="14.00" fill="#ffffff">[A17] bprop_f1:D</text>
</g>
<!-- [A17] bprop_f1:D&#45;&gt;[A32] bprop_f1:CLK -->
<g id="edge23" class="edge">
<title>[A17] bprop_f1:D-&gt;[A32] bprop_f1:CLK</title>
<path fill="none" stroke="#000000" d="M2167.3784,-175.5078C2316.0092,-169.6955 2640.0589,-163.998 2806.4736,-164.1003"/>
<polygon fill="#000000" stroke="#000000" points="2806.7112,-167.6006 2816.716,-164.1145 2806.7209,-160.6006 2806.7112,-167.6006"/>
</g>
<!-- [A17] bprop_f1:D&#45;&gt;[A32] bprop_f1:CLK -->
<g id="edge24" class="edge">
<title>[A17] bprop_f1:D-&gt;[A32] bprop_f1:CLK</title>
<path fill="none" stroke="#000000" d="M2170.365,-183.8467C2321.574,-184.5049 2646.5885,-179.0764 2810.6223,-173.276"/>
<polygon fill="#000000" stroke="#000000" points="2810.8438,-176.7704 2820.7107,-172.9112 2810.5908,-169.7749 2810.8438,-176.7704"/>
</g>
<!-- [A17] bprop_f1:D&#45;&gt;[A18] bprop_u4:Y -->
<g id="edge25" class="edge">
<title>[A17] bprop_f1:D-&gt;[A18] bprop_u4:Y</title>
<path fill="none" stroke="#000000" d="M2141.0679,-166.9789C2168.197,-159.6052 2201.6458,-150.5139 2230.1398,-142.7692"/>
<polygon fill="#000000" stroke="#000000" points="2231.2615,-146.0914 2239.9933,-140.0911 2229.4254,-139.3365 2231.2615,-146.0914"/>
</g>
<!-- [A16] fprop_f1:D -->
<g id="node18" class="node">
<title>[A16] fprop_f1:D</title>
<ellipse fill="none" stroke="#000000" cx="1134.5854" cy="-181" rx="79.9008" ry="18"/>
<text text-anchor="middle" x="1134.5854" y="-176.8" font-family="Times,serif" font-size="14.00" fill="#000000">[A16] fprop_f1:D</text>
</g>
<!-- [A16] fprop_f1:D&#45;&gt;[A17] bprop_f1:D -->
<g id="edge26" class="edge">
<title>[A16] fprop_f1:D-&gt;[A17] bprop_f1:D</title>
<path fill="none" stroke="#000000" d="M1214.7266,-181C1290.6901,-181 1407.9956,-181 1509.7712,-181 1509.7712,-181 1509.7712,-181 1691.7419,-181 1796.5347,-181 1916.8581,-181 1997.4721,-181"/>
<polygon fill="#000000" stroke="#000000" points="1997.5935,-184.5001 2007.5934,-181 1997.5934,-177.5001 1997.5935,-184.5001"/>
</g>
<!-- [A15] fprop_u4:Y -->
<g id="node19" class="node">
<title>[A15] fprop_u4:Y</title>
<ellipse fill="none" stroke="#000000" cx="937.0709" cy="-126" rx="81.6282" ry="18"/>
<text text-anchor="middle" x="937.0709" y="-121.8" font-family="Times,serif" font-size="14.00" fill="#000000">[A15] fprop_u4:Y</text>
</g>
<!-- [A15] fprop_u4:Y&#45;&gt;[A16] fprop_f1:D -->
<g id="edge27" class="edge">
<title>[A15] fprop_u4:Y-&gt;[A16] fprop_f1:D</title>
<path fill="none" stroke="#000000" d="M987.9358,-140.1639C1014.3018,-147.5058 1046.6771,-156.521 1074.2952,-164.2116"/>
<polygon fill="#000000" stroke="#000000" points="1073.6627,-167.6685 1084.2351,-166.9794 1075.5405,-160.9251 1073.6627,-167.6685"/>
</g>
<!-- [A14] fprop_u4:A -->
<g id="node20" class="node">
<title>[A14] fprop_u4:A</title>
<ellipse fill="none" stroke="#000000" cx="737.9428" cy="-126" rx="81.6282" ry="18"/>
<text text-anchor="middle" x="737.9428" y="-121.8" font-family="Times,serif" font-size="14.00" fill="#000000">[A14] fprop_u4:A</text>
</g>
<!-- [A14] fprop_u4:A&#45;&gt;[A15] fprop_u4:Y -->
<g id="edge28" class="edge">
<title>[A14] fprop_u4:A-&gt;[A15] fprop_u4:Y</title>
<path fill="none" stroke="#000000" d="M814.0769,-119.4189C826.0857,-119.2428 838.5765,-119.2044 850.7955,-119.3037"/>
<polygon fill="#000000" stroke="#000000" points="850.9398,-122.8055 860.979,-119.4196 851.0195,-115.8059 850.9398,-122.8055"/>
</g>
<!-- [A14] fprop_u4:A&#45;&gt;[A15] fprop_u4:Y -->
<g id="edge29" class="edge">
<title>[A14] fprop_u4:A-&gt;[A15] fprop_u4:Y</title>
<path fill="none" stroke="#000000" d="M814.0769,-132.5811C826.0857,-132.7572 838.5765,-132.7956 850.7955,-132.6963"/>
<polygon fill="#000000" stroke="#000000" points="851.0195,-136.1941 860.979,-132.5804 850.9398,-129.1945 851.0195,-136.1941"/>
</g>
<!-- [A13] fprop_u1:Y -->
<g id="node21" class="node">
<title>[A13] fprop_u1:Y</title>
<ellipse fill="none" stroke="#000000" cx="538.8146" cy="-236" rx="81.6282" ry="18"/>
<text text-anchor="middle" x="538.8146" y="-231.8" font-family="Times,serif" font-size="14.00" fill="#000000">[A13] fprop_u1:Y</text>
</g>
<!-- [A13] fprop_u1:Y&#45;&gt;[A14] fprop_u4:A -->
<g id="edge30" class="edge">
<title>[A13] fprop_u1:Y-&gt;[A14] fprop_u4:A</title>
<path fill="none" stroke="#000000" d="M569.492,-219.0536C604.089,-199.9419 660.4523,-168.8064 698.3458,-147.8737"/>
<polygon fill="#000000" stroke="#000000" points="700.4965,-150.6842 707.5573,-142.7852 697.1117,-144.5569 700.4965,-150.6842"/>
</g>
<!-- [A12] fprop_u1:A -->
<g id="node22" class="node">
<title>[A12] fprop_u1:A</title>
<ellipse fill="none" stroke="#000000" cx="333.789" cy="-263" rx="81.6282" ry="18"/>
<text text-anchor="middle" x="333.789" y="-258.8" font-family="Times,serif" font-size="14.00" fill="#000000">[A12] fprop_u1:A</text>
</g>
<!-- [A12] fprop_u1:A&#45;&gt;[A13] fprop_u1:Y -->
<g id="edge31" class="edge">
<title>[A12] fprop_u1:A-&gt;[A13] fprop_u1:Y</title>
<path fill="none" stroke="#000000" d="M389.0018,-249.6631C407.4504,-246.6598 428.5166,-243.6727 448.9073,-241.1355"/>
<polygon fill="#000000" stroke="#000000" points="449.3436,-244.6084 458.8486,-239.9281 448.4995,-237.6594 449.3436,-244.6084"/>
</g>
<!-- [A12] fprop_u1:A&#45;&gt;[A13] fprop_u1:Y -->
<g id="edge32" class="edge">
<title>[A12] fprop_u1:A-&gt;[A13] fprop_u1:Y</title>
<path fill="none" stroke="#000000" d="M413.6443,-259.0851C433.4684,-256.7386 454.4824,-253.8835 473.516,-250.9373"/>
<polygon fill="#000000" stroke="#000000" points="474.2401,-254.3663 483.5681,-249.3424 473.1431,-247.4528 474.2401,-254.3663"/>
</g>
<!-- [A11] fprop_inp1 -->
<g id="node23" class="node">
<title>[A11] fprop_inp1</title>
<ellipse fill="none" stroke="#000000" cx="105.1637" cy="-263" rx="79.3425" ry="18"/>
<text text-anchor="middle" x="105.1637" y="-258.8" font-family="Times,serif" font-size="14.00" fill="#000000">[A11] fprop_inp1</text>
</g>
<!-- [A11] fprop_inp1&#45;&gt;[A12] fprop_u1:A -->
<g id="edge33" class="edge">
<title>[A11] fprop_inp1-&gt;[A12] fprop_u1:A</title>
<path fill="none" stroke="#000000" d="M184.8048,-263C203.2658,-263 223.0594,-263 241.9946,-263"/>
<polygon fill="#000000" stroke="#000000" points="242.1081,-266.5001 252.1081,-263 242.108,-259.5001 242.1081,-266.5001"/>
</g>
<!-- [A10] fprop_u1:B -->
<g id="node24" class="node">
<title>[A10] fprop_u1:B</title>
<ellipse fill="none" stroke="#000000" cx="333.789" cy="-209" rx="81.0659" ry="18"/>
<text text-anchor="middle" x="333.789" y="-204.8" font-family="Times,serif" font-size="14.00" fill="#000000">[A10] fprop_u1:B</text>
</g>
<!-- [A10] fprop_u1:B&#45;&gt;[A13] fprop_u1:Y -->
<g id="edge34" class="edge">
<title>[A10] fprop_u1:B-&gt;[A13] fprop_u1:Y</title>
<path fill="none" stroke="#000000" d="M413.0573,-212.8456C433.0204,-215.2012 454.2249,-218.078 473.4217,-221.0481"/>
<polygon fill="#000000" stroke="#000000" points="473.1337,-224.5461 483.5586,-222.6561 474.2304,-217.6326 473.1337,-224.5461"/>
</g>
<!-- [A10] fprop_u1:B&#45;&gt;[A13] fprop_u1:Y -->
<g id="edge35" class="edge">
<title>[A10] fprop_u1:B-&gt;[A13] fprop_u1:Y</title>
<path fill="none" stroke="#000000" d="M388.7321,-222.293C407.2843,-225.3175 428.5073,-228.3277 449.0381,-230.8807"/>
<polygon fill="#000000" stroke="#000000" points="448.6976,-234.365 459.0465,-232.0954 449.541,-227.416 448.6976,-234.365"/>
</g>
<!-- [A9] fprop_inp2 -->
<g id="node25" class="node">
<title>[A9] fprop_inp2</title>
<ellipse fill="none" stroke="#000000" cx="105.1637" cy="-209" rx="74.6856" ry="18"/>
<text text-anchor="middle" x="105.1637" y="-204.8" font-family="Times,serif" font-size="14.00" fill="#000000">[A9] fprop_inp2</text>
</g>
<!-- [A9] fprop_inp2&#45;&gt;[A10] fprop_u1:B -->
<g id="edge36" class="edge">
<title>[A9] fprop_inp2-&gt;[A10] fprop_u1:B</title>
<path fill="none" stroke="#000000" d="M180.0242,-209C199.945,-209 221.6878,-209 242.3857,-209"/>
<polygon fill="#000000" stroke="#000000" points="242.45,-212.5001 252.4499,-209 242.4499,-205.5001 242.45,-212.5001"/>
</g>
<!-- [A8] fprop_out -->
<g id="node26" class="node">
<title>[A8] fprop_out</title>
<ellipse fill="none" stroke="#000000" cx="1509.7712" cy="-18" rx="69.5293" ry="18"/>
<text text-anchor="middle" x="1509.7712" y="-13.8" font-family="Times,serif" font-size="14.00" fill="#000000">[A8] fprop_out</text>
</g>
<!-- [A8] fprop_out&#45;&gt;[A25] bprop_out -->
<g id="edge37" class="edge">
<title>[A8] fprop_out-&gt;[A25] bprop_out</title>
<path fill="none" stroke="#000000" d="M1579.6054,-18C1588.034,-18 1596.7189,-18 1605.3485,-18"/>
<polygon fill="#000000" stroke="#000000" points="1605.435,-21.5001 1615.435,-18 1605.435,-14.5001 1605.435,-21.5001"/>
</g>
<!-- [A7] fprop_u3:Y -->
<g id="node27" class="node">
<title>[A7] fprop_u3:Y</title>
<ellipse fill="none" stroke="#000000" cx="1327.2714" cy="-18" rx="76.9719" ry="18"/>
<text text-anchor="middle" x="1327.2714" y="-13.8" font-family="Times,serif" font-size="14.00" fill="#000000">[A7] fprop_u3:Y</text>
</g>
<!-- [A7] fprop_u3:Y&#45;&gt;[A8] fprop_out -->
<g id="edge38" class="edge">
<title>[A7] fprop_u3:Y-&gt;[A8] fprop_out</title>
<path fill="none" stroke="#000000" d="M1404.1388,-18C1412.5879,-18 1421.2058,-18 1429.6928,-18"/>
<polygon fill="#000000" stroke="#000000" points="1429.9601,-21.5001 1439.9601,-18 1429.96,-14.5001 1429.9601,-21.5001"/>
</g>
<!-- [A6] fprop_u3:A -->
<g id="node28" class="node">
<title>[A6] fprop_u3:A</title>
<ellipse fill="none" stroke="#000000" cx="1134.5854" cy="-18" rx="76.9719" ry="18"/>
<text text-anchor="middle" x="1134.5854" y="-13.8" font-family="Times,serif" font-size="14.00" fill="#000000">[A6] fprop_u3:A</text>
</g>
<!-- [A6] fprop_u3:A&#45;&gt;[A7] fprop_u3:Y -->
<g id="edge39" class="edge">
<title>[A6] fprop_u3:A-&gt;[A7] fprop_u3:Y</title>
<path fill="none" stroke="#000000" d="M1206.3345,-11.4494C1219.0833,-11.2385 1232.4478,-11.1949 1245.451,-11.3186"/>
<polygon fill="#000000" stroke="#000000" points="1245.7383,-14.8226 1255.7832,-11.4537 1245.8299,-7.8232 1245.7383,-14.8226"/>
</g>
<!-- [A6] fprop_u3:A&#45;&gt;[A7] fprop_u3:Y -->
<g id="edge40" class="edge">
<title>[A6] fprop_u3:A-&gt;[A7] fprop_u3:Y</title>
<path fill="none" stroke="#000000" d="M1206.3345,-24.5506C1219.0833,-24.7615 1232.4478,-24.8051 1245.451,-24.6814"/>
<polygon fill="#000000" stroke="#000000" points="1245.8299,-28.1768 1255.7832,-24.5463 1245.7383,-21.1774 1245.8299,-28.1768"/>
</g>
<!-- [A5] fprop_u2:Y -->
<g id="node29" class="node">
<title>[A5] fprop_u2:Y</title>
<ellipse fill="none" stroke="#000000" cx="937.0709" cy="-18" rx="76.9719" ry="18"/>
<text text-anchor="middle" x="937.0709" y="-13.8" font-family="Times,serif" font-size="14.00" fill="#000000">[A5] fprop_u2:Y</text>
</g>
<!-- [A5] fprop_u2:Y&#45;&gt;[A6] fprop_u3:A -->
<g id="edge41" class="edge">
<title>[A5] fprop_u2:Y-&gt;[A6] fprop_u3:A</title>
<path fill="none" stroke="#000000" d="M1014.0007,-18C1024.9476,-18 1036.2711,-18 1047.3961,-18"/>
<polygon fill="#000000" stroke="#000000" points="1047.5406,-21.5001 1057.5406,-18 1047.5406,-14.5001 1047.5406,-21.5001"/>
</g>
<!-- [A4] fprop_u2:A -->
<g id="node30" class="node">
<title>[A4] fprop_u2:A</title>
<ellipse fill="none" stroke="#000000" cx="737.9428" cy="-18" rx="76.9719" ry="18"/>
<text text-anchor="middle" x="737.9428" y="-13.8" font-family="Times,serif" font-size="14.00" fill="#000000">[A4] fprop_u2:A</text>
</g>
<!-- [A4] fprop_u2:A&#45;&gt;[A5] fprop_u2:Y -->
<g id="edge42" class="edge">
<title>[A4] fprop_u2:A-&gt;[A5] fprop_u2:Y</title>
<path fill="none" stroke="#000000" d="M809.5513,-11.4923C824.3181,-11.23 839.9777,-11.1807 855.0802,-11.3443"/>
<polygon fill="#000000" stroke="#000000" points="855.3801,-14.8489 865.4289,-11.4917 855.4798,-7.8496 855.3801,-14.8489"/>
</g>
<!-- [A4] fprop_u2:A&#45;&gt;[A5] fprop_u2:Y -->
<g id="edge43" class="edge">
<title>[A4] fprop_u2:A-&gt;[A5] fprop_u2:Y</title>
<path fill="none" stroke="#000000" d="M809.5513,-24.5077C824.3181,-24.77 839.9777,-24.8193 855.0802,-24.6557"/>
<polygon fill="#000000" stroke="#000000" points="855.4798,-28.1504 865.4289,-24.5083 855.3801,-21.1511 855.4798,-28.1504"/>
</g>
<!-- [A3] fprop_u4:B -->
<g id="node31" class="node">
<title>[A3] fprop_u4:B</title>
<ellipse fill="none" stroke="#000000" cx="737.9428" cy="-72" rx="76.4095" ry="18"/>
<text text-anchor="middle" x="737.9428" y="-67.8" font-family="Times,serif" font-size="14.00" fill="#000000">[A3] fprop_u4:B</text>
</g>
<!-- [A3] fprop_u4:B&#45;&gt;[A15] fprop_u4:Y -->
<g id="edge44" class="edge">
<title>[A3] fprop_u4:B-&gt;[A15] fprop_u4:Y</title>
<path fill="none" stroke="#000000" d="M800.1291,-82.5557C828.6639,-89.5876 861.9903,-98.7654 888.6219,-106.9741"/>
<polygon fill="#000000" stroke="#000000" points="887.8877,-110.4119 898.4769,-110.0662 889.9833,-103.733 887.8877,-110.4119"/>
</g>
<!-- [A3] fprop_u4:B&#45;&gt;[A15] fprop_u4:Y -->
<g id="edge45" class="edge">
<title>[A3] fprop_u4:B-&gt;[A15] fprop_u4:Y</title>
<path fill="none" stroke="#000000" d="M775.866,-87.7189C800.4003,-95.588 833.1675,-104.8468 862.7512,-112.3991"/>
<polygon fill="#000000" stroke="#000000" points="862.0934,-115.8427 872.6453,-114.8905 863.8027,-109.0546 862.0934,-115.8427"/>
</g>
<!-- [A2] fprop_f1:Q -->
<g id="node32" class="node">
<title>[A2] fprop_f1:Q</title>
<ellipse fill="none" stroke="#000000" cx="538.8146" cy="-99" rx="75.244" ry="18"/>
<text text-anchor="middle" x="538.8146" y="-94.8" font-family="Times,serif" font-size="14.00" fill="#000000">[A2] fprop_f1:Q</text>
</g>
<!-- [A2] fprop_f1:Q&#45;&gt;[A4] fprop_u2:A -->
<g id="edge47" class="edge">
<title>[A2] fprop_f1:Q-&gt;[A4] fprop_u2:A</title>
<path fill="none" stroke="#000000" d="M571.5834,-82.7612C594.9349,-71.4833 627.2251,-56.4799 656.3787,-45 664.5466,-41.7837 673.2697,-38.6192 681.861,-35.6528"/>
<polygon fill="#000000" stroke="#000000" points="683.1216,-38.9212 691.4683,-32.3955 680.8739,-32.2918 683.1216,-38.9212"/>
</g>
<!-- [A2] fprop_f1:Q&#45;&gt;[A3] fprop_u4:B -->
<g id="edge46" class="edge">
<title>[A2] fprop_f1:Q-&gt;[A3] fprop_u4:B</title>
<path fill="none" stroke="#000000" d="M604.2924,-90.1218C622.645,-87.6333 642.7549,-84.9066 661.6755,-82.3412"/>
<polygon fill="#000000" stroke="#000000" points="662.3056,-85.7878 671.7446,-80.9759 661.365,-78.8513 662.3056,-85.7878"/>
</g>
<!-- [A1] fprop_f1:CLK -->
<g id="node33" class="node">
<title>[A1] fprop_f1:CLK</title>
<ellipse fill="none" stroke="#000000" cx="333.789" cy="-100" rx="87.4232" ry="18"/>
<text text-anchor="middle" x="333.789" y="-95.8" font-family="Times,serif" font-size="14.00" fill="#000000">[A1] fprop_f1:CLK</text>
</g>
<!-- [A1] fprop_f1:CLK&#45;&gt;[A16] fprop_f1:D -->
<g id="edge50" class="edge">
<title>[A1] fprop_f1:CLK-&gt;[A16] fprop_f1:D</title>
<path fill="none" stroke="#000000" d="M411.3378,-108.407C426.5234,-111.3502 442.3574,-114.4256 457.2506,-117 668.9169,-153.5877 922.1132,-165.9524 1050.702,-173.2803"/>
<polygon fill="#000000" stroke="#000000" points="1050.6872,-176.7851 1060.8716,-173.8649 1051.089,-169.7966 1050.6872,-176.7851"/>
</g>
<!-- [A1] fprop_f1:CLK&#45;&gt;[A16] fprop_f1:D -->
<g id="edge51" class="edge">
<title>[A1] fprop_f1:CLK-&gt;[A16] fprop_f1:D</title>
<path fill="none" stroke="#000000" d="M371.2036,-116.3143C395.6141,-123.0598 428.2196,-129.9818 457.2506,-135 666.3701,-171.1474 916.0262,-183.6513 1046.0066,-184.7691"/>
<polygon fill="#000000" stroke="#000000" points="1046.2779,-188.2708 1056.3002,-184.8351 1046.3229,-181.271 1046.2779,-188.2708"/>
</g>
<!-- [A1] fprop_f1:CLK&#45;&gt;[A2] fprop_f1:Q -->
<g id="edge48" class="edge">
<title>[A1] fprop_f1:CLK-&gt;[A2] fprop_f1:Q</title>
<path fill="none" stroke="#000000" d="M414.5262,-92.9934C428.7734,-92.7419 443.6089,-92.6686 457.862,-92.7793"/>
<polygon fill="#000000" stroke="#000000" points="458.0827,-96.2819 468.1208,-92.8925 458.16,-89.2823 458.0827,-96.2819"/>
</g>
<!-- [A1] fprop_f1:CLK&#45;&gt;[A2] fprop_f1:Q -->
<g id="edge49" class="edge">
<title>[A1] fprop_f1:CLK-&gt;[A2] fprop_f1:Q</title>
<path fill="none" stroke="#000000" d="M415.9994,-106.23C430.1636,-106.329 444.8665,-106.2474 458.9671,-105.9906"/>
<polygon fill="#000000" stroke="#000000" points="459.1892,-109.4868 469.1117,-105.7728 459.0389,-102.4884 459.1892,-109.4868"/>
</g>
<!-- [A0] fprop_tau2015_clk -->
<g id="node34" class="node">
<title>[A0] fprop_tau2015_clk</title>
<ellipse fill="none" stroke="#000000" cx="105.1637" cy="-100" rx="105.3277" ry="18"/>
<text text-anchor="middle" x="105.1637" y="-95.8" font-family="Times,serif" font-size="14.00" fill="#000000">[A0] fprop_tau2015_clk</text>
</g>
<!-- [A0] fprop_tau2015_clk&#45;&gt;[A1] fprop_f1:CLK -->
<g id="edge52" class="edge">
<title>[A0] fprop_tau2015_clk-&gt;[A1] fprop_f1:CLK</title>
<path fill="none" stroke="#000000" d="M210.4424,-100C218.9408,-100 227.5062,-100 235.9491,-100"/>
<polygon fill="#000000" stroke="#000000" points="236.1742,-103.5001 246.1741,-100 236.1741,-96.5001 236.1742,-103.5001"/>
</g>
</g>
</svg>