<?xml version="1.0" encoding="UTF-8" standalone="no"?><!DOCTYPE svg PUBLIC "-//W3C//DTD SVG 1.1//EN" "http://www.w3.org/Graphics/SVG/1.1/DTD/svg11.dtd"><!-- Generated by graphviz version 2.40.1 (20161225.0304)
 --><!-- Title: Taskflow Pages: 1 --><svg xmlns="http://www.w3.org/2000/svg" xmlns:xlink="http://www.w3.org/1999/xlink" width="275pt" height="98pt" viewBox="0.00 0.00 274.72 98.00">
<g id="graph0" class="graph" transform="scale(1 1) rotate(0) translate(4 94)">
<title>Taskflow</title>
<polygon fill="#ffffff" stroke="transparent" points="-4,4 -4,-94 270.7155,-94 270.7155,4 -4,4"/>
<!-- p0x7f2870401a50 -->
<g id="node1" class="node">
<title>p0x7f2870401a50</title>
<ellipse fill="none" stroke="#000000" cx="35.1789" cy="-72" rx="35.3587" ry="18"/>
<text text-anchor="middle" x="35.1789" y="-67.8" font-family="Times,serif" font-size="14.00" fill="#000000">h2d_x</text>
</g>
<!-- p0x7f2870402bc0 -->
<g id="node2" class="node">
<title>p0x7f2870402bc0</title>
<polygon fill="#000000" stroke="#ffffff" points="160.3577,-63 110.3577,-63 106.3577,-59 106.3577,-27 156.3577,-27 160.3577,-31 160.3577,-63"/>
<polyline fill="none" stroke="#ffffff" points="156.3577,-59 106.3577,-59 "/>
<polyline fill="none" stroke="#ffffff" points="156.3577,-59 156.3577,-27 "/>
<polyline fill="none" stroke="#ffffff" points="156.3577,-59 160.3577,-63 "/>
<text text-anchor="middle" x="133.3577" y="-40.8" font-family="Times,serif" font-size="14.00" fill="#ffffff">saxpy</text>
</g>
<!-- p0x7f2870401a50&#45;&gt;p0x7f2870402bc0 -->
<g id="edge1" class="edge">
<title>p0x7f2870401a50-&gt;p0x7f2870402bc0</title>
<path fill="none" stroke="#000000" d="M66.2433,-63.457C75.8498,-60.8152 86.5258,-57.8792 96.4853,-55.1402"/>
<polygon fill="#000000" stroke="#000000" points="97.4259,-58.5116 106.1398,-52.4851 95.5697,-51.7621 97.4259,-58.5116"/>
</g>
<!-- p0x7f2870402310 -->
<g id="node4" class="node">
<title>p0x7f2870402310</title>
<ellipse fill="none" stroke="#000000" cx="231.5366" cy="-72" rx="35.3587" ry="18"/>
<text text-anchor="middle" x="231.5366" y="-67.8" font-family="Times,serif" font-size="14.00" fill="#000000">d2h_x</text>
</g>
<!-- p0x7f2870402bc0&#45;&gt;p0x7f2870402310 -->
<g id="edge3" class="edge">
<title>p0x7f2870402bc0-&gt;p0x7f2870402310</title>
<path fill="none" stroke="#000000" d="M160.4454,-52.4493C169.7255,-55.0014 180.3281,-57.9172 190.4624,-60.7043"/>
<polygon fill="#000000" stroke="#000000" points="189.8041,-64.1531 200.3742,-63.4301 191.6603,-57.4037 189.8041,-64.1531"/>
</g>
<!-- p0x7f2870402780 -->
<g id="node5" class="node">
<title>p0x7f2870402780</title>
<ellipse fill="none" stroke="#000000" cx="231.5366" cy="-18" rx="35.3587" ry="18"/>
<text text-anchor="middle" x="231.5366" y="-13.8" font-family="Times,serif" font-size="14.00" fill="#000000">d2h_y</text>
</g>
<!-- p0x7f2870402bc0&#45;&gt;p0x7f2870402780 -->
<g id="edge4" class="edge">
<title>p0x7f2870402bc0-&gt;p0x7f2870402780</title>
<path fill="none" stroke="#000000" d="M160.4454,-37.5507C169.7255,-34.9986 180.3281,-32.0828 190.4624,-29.2957"/>
<polygon fill="#000000" stroke="#000000" points="191.6603,-32.5963 200.3742,-26.5699 189.8041,-25.8469 191.6603,-32.5963"/>
</g>
<!-- p0x7f2870401eb0 -->
<g id="node3" class="node">
<title>p0x7f2870401eb0</title>
<ellipse fill="none" stroke="#000000" cx="35.1789" cy="-18" rx="35.3587" ry="18"/>
<text text-anchor="middle" x="35.1789" y="-13.8" font-family="Times,serif" font-size="14.00" fill="#000000">h2d_y</text>
</g>
<!-- p0x7f2870401eb0&#45;&gt;p0x7f2870402bc0 -->
<g id="edge2" class="edge">
<title>p0x7f2870401eb0-&gt;p0x7f2870402bc0</title>
<path fill="none" stroke="#000000" d="M66.2433,-26.543C75.8498,-29.1848 86.5258,-32.1208 96.4853,-34.8598"/>
<polygon fill="#000000" stroke="#000000" points="95.5697,-38.2379 106.1398,-37.5149 97.4259,-31.4884 95.5697,-38.2379"/>
</g>
</g>
</svg>