<?xml version="1.0" encoding="UTF-8" standalone="no"?><!DOCTYPE svg PUBLIC "-//W3C//DTD SVG 1.1//EN" "http://www.w3.org/Graphics/SVG/1.1/DTD/svg11.dtd"><!-- Generated by graphviz version 2.40.1 (20161225.0304)
 --><!-- Title: Taskflow Pages: 1 --><svg xmlns="http://www.w3.org/2000/svg" xmlns:xlink="http://www.w3.org/1999/xlink" width="242pt" height="98pt" viewBox="0.00 0.00 242.00 98.00">
<g id="graph0" class="graph" transform="scale(1 1) rotate(0) translate(4 94)">
<title>Taskflow</title>
<polygon fill="#ffffff" stroke="transparent" points="-4,4 -4,-94 238,-94 238,4 -4,4"/>
<!-- A -->
<g id="node1" class="node">
<title>A</title>
<ellipse fill="none" stroke="#000000" cx="27" cy="-45" rx="27" ry="18"/>
<text text-anchor="middle" x="27" y="-40.8" font-family="Times,serif" font-size="14.00" fill="#000000">A</text>
</g>
<!-- B -->
<g id="node2" class="node">
<title>B</title>
<ellipse fill="none" stroke="#000000" cx="117" cy="-72" rx="27" ry="18"/>
<text text-anchor="middle" x="117" y="-67.8" font-family="Times,serif" font-size="14.00" fill="#000000">B</text>
</g>
<!-- A&#45;&gt;B -->
<g id="edge1" class="edge">
<title>A-&gt;B</title>
<path fill="none" stroke="#000000" d="M52.07,-52.521C61.5102,-55.3531 72.4169,-58.6251 82.564,-61.6692"/>
<polygon fill="#000000" stroke="#000000" points="81.7915,-65.0915 92.3755,-64.6126 83.803,-58.3867 81.7915,-65.0915"/>
</g>
<!-- C -->
<g id="node3" class="node">
<title>C</title>
<ellipse fill="none" stroke="#000000" cx="117" cy="-18" rx="27" ry="18"/>
<text text-anchor="middle" x="117" y="-13.8" font-family="Times,serif" font-size="14.00" fill="#000000">C</text>
</g>
<!-- A&#45;&gt;C -->
<g id="edge2" class="edge">
<title>A-&gt;C</title>
<path fill="none" stroke="#000000" d="M52.07,-37.479C61.5102,-34.6469 72.4169,-31.3749 82.564,-28.3308"/>
<polygon fill="#000000" stroke="#000000" points="83.803,-31.6133 92.3755,-25.3874 81.7915,-24.9085 83.803,-31.6133"/>
</g>
<!-- D -->
<g id="node4" class="node">
<title>D</title>
<ellipse fill="none" stroke="#000000" cx="207" cy="-45" rx="27" ry="18"/>
<text text-anchor="middle" x="207" y="-40.8" font-family="Times,serif" font-size="14.00" fill="#000000">D</text>
</g>
<!-- B&#45;&gt;D -->
<g id="edge3" class="edge">
<title>B-&gt;D</title>
<path fill="none" stroke="#000000" d="M142.07,-64.479C151.5102,-61.6469 162.4169,-58.3749 172.564,-55.3308"/>
<polygon fill="#000000" stroke="#000000" points="173.803,-58.6133 182.3755,-52.3874 171.7915,-51.9085 173.803,-58.6133"/>
</g>
<!-- C&#45;&gt;D -->
<g id="edge4" class="edge">
<title>C-&gt;D</title>
<path fill="none" stroke="#000000" d="M142.07,-25.521C151.5102,-28.3531 162.4169,-31.6251 172.564,-34.6692"/>
<polygon fill="#000000" stroke="#000000" points="171.7915,-38.0915 182.3755,-37.6126 173.803,-31.3867 171.7915,-38.0915"/>
</g>
</g>
</svg>