<?xml version="1.0" encoding="UTF-8" standalone="no"?><!DOCTYPE svg PUBLIC "-//W3C//DTD SVG 1.1//EN" "http://www.w3.org/Graphics/SVG/1.1/DTD/svg11.dtd"><!-- Generated by graphviz version 2.40.1 (20161225.0304)
 --><!-- Title: Taskflow Pages: 1 --><svg xmlns="http://www.w3.org/2000/svg" xmlns:xlink="http://www.w3.org/1999/xlink" width="692pt" height="156pt" viewBox="0.00 0.00 692.00 156.00">
<g id="graph0" class="graph" transform="scale(1 1) rotate(0) translate(4 152)">
<title>Taskflow</title>
<polygon fill="#ffffff" stroke="transparent" points="-4,4 -4,-152 688,-152 688,4 -4,4"/>
<!-- T -->
<g id="node1" class="node">
<title>T</title>
<ellipse fill="none" stroke="#000000" cx="657" cy="-65" rx="27" ry="18"/>
<text text-anchor="middle" x="657" y="-60.8" font-family="Times,serif" font-size="14.00" fill="#000000">T</text>
</g>
<!-- Z -->
<g id="node2" class="node">
<title>Z</title>
<ellipse fill="none" stroke="#000000" cx="567" cy="-65" rx="27" ry="18"/>
<text text-anchor="middle" x="567" y="-60.8" font-family="Times,serif" font-size="14.00" fill="#000000">Z</text>
</g>
<!-- Z&#45;&gt;T -->
<g id="edge1" class="edge">
<title>Z-&gt;T</title>
<path fill="none" stroke="#000000" d="M594.003,-65C602.0277,-65 610.9665,-65 619.5309,-65"/>
<polygon fill="#000000" stroke="#000000" points="619.7051,-68.5001 629.705,-65 619.705,-61.5001 619.7051,-68.5001"/>
</g>
<!-- Y -->
<g id="node3" class="node">
<title>Y</title>
<ellipse fill="none" stroke="#000000" cx="477" cy="-65" rx="27" ry="18"/>
<text text-anchor="middle" x="477" y="-60.8" font-family="Times,serif" font-size="14.00" fill="#000000">Y</text>
</g>
<!-- Y&#45;&gt;Z -->
<g id="edge2" class="edge">
<title>Y-&gt;Z</title>
<path fill="none" stroke="#000000" d="M504.003,-65C512.0277,-65 520.9665,-65 529.5309,-65"/>
<polygon fill="#000000" stroke="#000000" points="529.7051,-68.5001 539.705,-65 529.705,-61.5001 529.7051,-68.5001"/>
</g>
<!-- X -->
<g id="node4" class="node">
<title>X</title>
<ellipse fill="none" stroke="#000000" cx="387" cy="-65" rx="27" ry="18"/>
<text text-anchor="middle" x="387" y="-60.8" font-family="Times,serif" font-size="14.00" fill="#000000">X</text>
</g>
<!-- X&#45;&gt;Y -->
<g id="edge3" class="edge">
<title>X-&gt;Y</title>
<path fill="none" stroke="#000000" d="M414.003,-65C422.0277,-65 430.9665,-65 439.5309,-65"/>
<polygon fill="#000000" stroke="#000000" points="439.7051,-68.5001 449.705,-65 439.705,-61.5001 439.7051,-68.5001"/>
</g>
<!-- S -->
<g id="node5" class="node">
<title>S</title>
<ellipse fill="none" stroke="#000000" cx="27" cy="-76" rx="27" ry="18"/>
<text text-anchor="middle" x="27" y="-71.8" font-family="Times,serif" font-size="14.00" fill="#000000">S</text>
</g>
<!-- D -->
<g id="node6" class="node">
<title>D</title>
<ellipse fill="none" stroke="#000000" cx="117" cy="-130" rx="27" ry="18"/>
<text text-anchor="middle" x="117" y="-125.8" font-family="Times,serif" font-size="14.00" fill="#000000">D</text>
</g>
<!-- S&#45;&gt;D -->
<g id="edge4" class="edge">
<title>S-&gt;D</title>
<path fill="none" stroke="#000000" d="M47.4224,-88.2534C59.3897,-95.4338 74.7024,-104.6215 87.9143,-112.5486"/>
<polygon fill="#000000" stroke="#000000" points="86.2827,-115.6513 96.6584,-117.7951 89.8842,-109.6488 86.2827,-115.6513"/>
</g>
<!-- A -->
<g id="node7" class="node">
<title>A</title>
<ellipse fill="none" stroke="#000000" cx="117" cy="-76" rx="27" ry="18"/>
<text text-anchor="middle" x="117" y="-71.8" font-family="Times,serif" font-size="14.00" fill="#000000">A</text>
</g>
<!-- S&#45;&gt;A -->
<g id="edge5" class="edge">
<title>S-&gt;A</title>
<path fill="none" stroke="#000000" d="M54.003,-76C62.0277,-76 70.9665,-76 79.5309,-76"/>
<polygon fill="#000000" stroke="#000000" points="79.7051,-79.5001 89.705,-76 79.705,-72.5001 79.7051,-79.5001"/>
</g>
<!-- E -->
<g id="node8" class="node">
<title>E</title>
<ellipse fill="none" stroke="#000000" cx="207" cy="-30" rx="27" ry="18"/>
<text text-anchor="middle" x="207" y="-25.8" font-family="Times,serif" font-size="14.00" fill="#000000">E</text>
</g>
<!-- S&#45;&gt;E -->
<g id="edge6" class="edge">
<title>S-&gt;E</title>
<path fill="none" stroke="#000000" d="M48.6749,-65.1531C60.6074,-59.5829 75.8311,-53.1195 90,-49 116.218,-41.3774 146.6873,-36.5524 169.9587,-33.6727"/>
<polygon fill="#000000" stroke="#000000" points="170.5789,-37.124 180.1033,-32.4834 169.7638,-30.1716 170.5789,-37.124"/>
</g>
<!-- D&#45;&gt;T -->
<g id="edge10" class="edge">
<title>D-&gt;T</title>
<path fill="none" stroke="#000000" d="M144.1403,-130C179.376,-130 242.7813,-130 297,-130 297,-130 297,-130 477,-130 533.0323,-130 593.3556,-101.7916 627.9997,-82.5404"/>
<polygon fill="#000000" stroke="#000000" points="630.1067,-85.3684 637.0652,-77.379 626.6432,-79.2852 630.1067,-85.3684"/>
</g>
<!-- B -->
<g id="node10" class="node">
<title>B</title>
<ellipse fill="none" stroke="#000000" cx="207" cy="-84" rx="27" ry="18"/>
<text text-anchor="middle" x="207" y="-79.8" font-family="Times,serif" font-size="14.00" fill="#000000">B</text>
</g>
<!-- D&#45;&gt;B -->
<g id="edge9" class="edge">
<title>D-&gt;B</title>
<path fill="none" stroke="#000000" d="M138.7865,-118.8647C150.0625,-113.1014 164.0163,-105.9694 176.3599,-99.6605"/>
<polygon fill="#000000" stroke="#000000" points="178.1027,-102.7005 185.4141,-95.0328 174.9169,-96.4674 178.1027,-102.7005"/>
</g>
<!-- A&#45;&gt;B -->
<g id="edge14" class="edge">
<title>A-&gt;B</title>
<path fill="none" stroke="#000000" d="M144.003,-78.4003C152.1903,-79.128 161.3292,-79.9404 170.051,-80.7156"/>
<polygon fill="#000000" stroke="#000000" points="169.7454,-84.2022 180.0161,-81.6014 170.3653,-77.2297 169.7454,-84.2022"/>
</g>
<!-- E&#45;&gt;T -->
<g id="edge8" class="edge">
<title>E-&gt;T</title>
<path fill="none" stroke="#000000" d="M232.1178,-23.1174C266.7081,-14.2604 331.0829,0 387,0 387,0 387,0 477,0 533.0323,0 593.3556,-28.2084 627.9997,-47.4596"/>
<polygon fill="#000000" stroke="#000000" points="626.6432,-50.7148 637.0652,-52.621 630.1067,-44.6316 626.6432,-50.7148"/>
</g>
<!-- C -->
<g id="node9" class="node">
<title>C</title>
<ellipse fill="none" stroke="#000000" cx="297" cy="-46" rx="27" ry="18"/>
<text text-anchor="middle" x="297" y="-41.8" font-family="Times,serif" font-size="14.00" fill="#000000">C</text>
</g>
<!-- E&#45;&gt;C -->
<g id="edge7" class="edge">
<title>E-&gt;C</title>
<path fill="none" stroke="#000000" d="M233.5162,-34.714C242.0303,-36.2276 251.6129,-37.9312 260.7029,-39.5472"/>
<polygon fill="#000000" stroke="#000000" points="260.2151,-43.0153 270.6733,-41.3197 261.4404,-36.1233 260.2151,-43.0153"/>
</g>
<!-- C&#45;&gt;X -->
<g id="edge11" class="edge">
<title>C-&gt;X</title>
<path fill="none" stroke="#000000" d="M323.0317,-51.4956C331.8005,-53.3468 341.7454,-55.4463 351.1362,-57.4287"/>
<polygon fill="#000000" stroke="#000000" points="350.5194,-60.8756 361.0268,-59.5168 351.9654,-54.0266 350.5194,-60.8756"/>
</g>
<!-- B&#45;&gt;X -->
<g id="edge13" class="edge">
<title>B-&gt;X</title>
<path fill="none" stroke="#000000" d="M233.9784,-81.7147C257.7087,-79.6446 293.1764,-76.4051 324,-73 332.4921,-72.0619 341.6157,-70.9587 350.2103,-69.8763"/>
<polygon fill="#000000" stroke="#000000" points="350.8785,-73.3194 360.3536,-68.5788 349.9903,-66.376 350.8785,-73.3194"/>
</g>
<!-- B&#45;&gt;C -->
<g id="edge12" class="edge">
<title>B-&gt;C</title>
<path fill="none" stroke="#000000" d="M230.1772,-74.2141C240.6752,-69.7816 253.2638,-64.4664 264.67,-59.6504"/>
<polygon fill="#000000" stroke="#000000" points="266.0502,-62.8669 273.9013,-55.7528 263.3274,-56.4182 266.0502,-62.8669"/>
</g>
</g>
</svg>