<?xml version="1.0" encoding="UTF-8" standalone="no"?><!DOCTYPE svg PUBLIC "-//W3C//DTD SVG 1.1//EN" "http://www.w3.org/Graphics/SVG/1.1/DTD/svg11.dtd"><!-- Generated by graphviz version 2.40.1 (20161225.0304)
 --><!-- Title: Taskflow Pages: 1 --><svg xmlns="http://www.w3.org/2000/svg" xmlns:xlink="http://www.w3.org/1999/xlink" width="348pt" height="192pt" viewBox="0.00 0.00 348.00 192.00">
<g id="graph0" class="graph" transform="scale(1 1) rotate(0) translate(4 188)">
<title>Taskflow</title>
<polygon fill="#ffffff" stroke="transparent" points="-4,4 -4,-188 344,-188 344,4 -4,4"/>
<g id="clust1" class="cluster">
<title>cluster_p0x7f9866c01b70</title>
<polygon fill="none" stroke="#0000ff" points="8,-45 8,-176 258,-176 258,-45 8,-45"/>
<text text-anchor="middle" x="133" y="-159.4" font-family="Times,serif" font-size="14.00" fill="#000000">Subflow: B</text>
</g>
<!-- p0x7f9866c01820 -->
<g id="node1" class="node">
<title>p0x7f9866c01820</title>
<ellipse fill="none" stroke="#000000" cx="133" cy="-18" rx="27" ry="18"/>
<text text-anchor="middle" x="133" y="-13.8" font-family="Times,serif" font-size="14.00" fill="#000000">A</text>
</g>
<!-- p0x7f9866c01b70 -->
<g id="node2" class="node">
<title>p0x7f9866c01b70</title>
<ellipse fill="none" stroke="#000000" cx="223" cy="-72" rx="27" ry="18"/>
<text text-anchor="middle" x="223" y="-67.8" font-family="Times,serif" font-size="14.00" fill="#000000">B</text>
</g>
<!-- p0x7f9866c01820&#45;&gt;p0x7f9866c01b70 -->
<g id="edge1" class="edge">
<title>p0x7f9866c01820-&gt;p0x7f9866c01b70</title>
<path fill="none" stroke="#000000" d="M153.4224,-30.2534C165.3897,-37.4338 180.7024,-46.6215 193.9143,-54.5486"/>
<polygon fill="#000000" stroke="#000000" points="192.2827,-57.6513 202.6584,-59.7951 195.8842,-51.6488 192.2827,-57.6513"/>
</g>
<!-- p0x7f9866c01930 -->
<g id="node3" class="node">
<title>p0x7f9866c01930</title>
<ellipse fill="none" stroke="#000000" cx="223" cy="-18" rx="27" ry="18"/>
<text text-anchor="middle" x="223" y="-13.8" font-family="Times,serif" font-size="14.00" fill="#000000">C</text>
</g>
<!-- p0x7f9866c01820&#45;&gt;p0x7f9866c01930 -->
<g id="edge2" class="edge">
<title>p0x7f9866c01820-&gt;p0x7f9866c01930</title>
<path fill="none" stroke="#000000" d="M160.003,-18C168.0277,-18 176.9665,-18 185.5309,-18"/>
<polygon fill="#000000" stroke="#000000" points="185.7051,-21.5001 195.705,-18 185.705,-14.5001 185.7051,-21.5001"/>
</g>
<!-- p0x7f9866c01a40 -->
<g id="node4" class="node">
<title>p0x7f9866c01a40</title>
<ellipse fill="none" stroke="#000000" cx="313" cy="-45" rx="27" ry="18"/>
<text text-anchor="middle" x="313" y="-40.8" font-family="Times,serif" font-size="14.00" fill="#000000">D</text>
</g>
<!-- p0x7f9866c01b70&#45;&gt;p0x7f9866c01a40 -->
<g id="edge4" class="edge">
<title>p0x7f9866c01b70-&gt;p0x7f9866c01a40</title>
<path fill="none" stroke="#000000" d="M248.07,-64.479C257.5102,-61.6469 268.4169,-58.3749 278.564,-55.3308"/>
<polygon fill="#000000" stroke="#000000" points="279.803,-58.6133 288.3755,-52.3874 277.7915,-51.9085 279.803,-58.6133"/>
</g>
<!-- p0x7f9866c01930&#45;&gt;p0x7f9866c01a40 -->
<g id="edge3" class="edge">
<title>p0x7f9866c01930-&gt;p0x7f9866c01a40</title>
<path fill="none" stroke="#000000" d="M248.07,-25.521C257.5102,-28.3531 268.4169,-31.6251 278.564,-34.6692"/>
<polygon fill="#000000" stroke="#000000" points="277.7915,-38.0915 288.3755,-37.6126 279.803,-31.3867 277.7915,-38.0915"/>
</g>
<!-- p0x7f9866d01880 -->
<g id="node5" class="node">
<title>p0x7f9866d01880</title>
<ellipse fill="none" stroke="#000000" cx="43" cy="-125" rx="27" ry="18"/>
<text text-anchor="middle" x="43" y="-120.8" font-family="Times,serif" font-size="14.00" fill="#000000">B1</text>
</g>
<!-- p0x7f9866d01ac0 -->
<g id="node6" class="node">
<title>p0x7f9866d01ac0</title>
<ellipse fill="none" stroke="#000000" cx="133" cy="-72" rx="27" ry="18"/>
<text text-anchor="middle" x="133" y="-67.8" font-family="Times,serif" font-size="14.00" fill="#000000">B3</text>
</g>
<!-- p0x7f9866d01880&#45;&gt;p0x7f9866d01ac0 -->
<g id="edge5" class="edge">
<title>p0x7f9866d01880-&gt;p0x7f9866d01ac0</title>
<path fill="none" stroke="#000000" d="M63.4224,-112.9735C75.3897,-105.926 90.7024,-96.9086 103.9143,-89.1282"/>
<polygon fill="#000000" stroke="#000000" points="105.8176,-92.0693 112.6584,-83.9789 102.2655,-86.0374 105.8176,-92.0693"/>
</g>
<!-- p0x7f9866d01ac0&#45;&gt;p0x7f9866c01b70 -->
<g id="edge7" class="edge">
<title>p0x7f9866d01ac0-&gt;p0x7f9866c01b70</title>
<path fill="none" stroke="#000000" d="M160.003,-72C168.0277,-72 176.9665,-72 185.5309,-72"/>
<polygon fill="#000000" stroke="#000000" points="185.7051,-75.5001 195.705,-72 185.705,-68.5001 185.7051,-75.5001"/>
</g>
<!-- p0x7f9866d019a0 -->
<g id="node7" class="node">
<title>p0x7f9866d019a0</title>
<ellipse fill="none" stroke="#000000" cx="43" cy="-71" rx="27" ry="18"/>
<text text-anchor="middle" x="43" y="-66.8" font-family="Times,serif" font-size="14.00" fill="#000000">B2</text>
</g>
<!-- p0x7f9866d019a0&#45;&gt;p0x7f9866d01ac0 -->
<g id="edge6" class="edge">
<title>p0x7f9866d019a0-&gt;p0x7f9866d01ac0</title>
<path fill="none" stroke="#000000" d="M70.003,-71.3C78.0277,-71.3892 86.9665,-71.4885 95.5309,-71.5837"/>
<polygon fill="#000000" stroke="#000000" points="95.6667,-75.0853 105.705,-71.6967 95.7446,-68.0857 95.6667,-75.0853"/>
</g>
</g>
</svg>