<svg data-v-fde0c5aa="" xmlns="http://www.w3.org/2000/svg" viewBox="0 0 300 300" class="iconLeftSlogan"><!----><defs data-v-fde0c5aa=""><!----></defs><rect data-v-fde0c5aa="" fill="transparent" x="0" y="0" width="300px" height="300px" class="logo-background-square"></rect><defs data-v-fde0c5aa=""><!----></defs><g data-v-fde0c5aa="" id="9c28714d-4ce4-4502-a88d-abe64ef17d89" fill="#000000" transform="matrix(1.8811070877445368,0,0,1.8811070877445368,95.77701301027973,120.53994667497297)"><path d="M4.30 14.11L4.30 14.11Q3.21 14.11 2.38 13.69L2.38 13.69L2.38 13.69Q1.55 13.26 1.11 12.49L1.11 12.49L1.11 12.49Q0.66 11.72 0.66 10.71L0.66 10.71L0.66 7.48L0.66 7.48Q0.66 6.47 1.11 5.70L1.11 5.70L1.11 5.70Q1.55 4.93 2.38 4.51L2.38 4.51L2.38 4.51Q3.21 4.09 4.30 4.09L4.30 4.09L4.30 4.09Q5.38 4.09 6.20 4.49L6.20 4.49L6.20 4.49Q7.01 4.89 7.47 5.62L7.47 5.62L7.47 5.62Q7.92 6.36 7.92 7.32L7.92 7.32L7.92 7.32Q7.92 7.45 7.70 7.48L7.70 7.48L6.20 7.57L6.15 7.57L6.15 7.57Q5.95 7.57 5.95 7.50L5.95 7.50L5.95 7.42L5.95 7.42Q5.95 6.68 5.50 6.23L5.50 6.23L5.50 6.23Q5.04 5.78 4.30 5.78L4.30 5.78L4.30 5.78Q3.54 5.78 3.09 6.23L3.09 6.23L3.09 6.23Q2.63 6.68 2.63 7.42L2.63 7.42L2.63 10.79L2.63 10.79Q2.63 11.52 3.09 11.97L3.09 11.97L3.09 11.97Q3.54 12.42 4.30 12.42L4.30 12.42L4.30 12.42Q5.04 12.42 5.50 11.97L5.50 11.97L5.50 11.97Q5.95 11.52 5.95 10.79L5.95 10.79L5.95 10.79Q5.95 10.72 6.01 10.68L6.01 10.68L6.01 10.68Q6.08 10.63 6.19 10.64L6.19 10.64L7.69 10.71L7.69 10.71Q7.92 10.74 7.92 10.78L7.92 10.78L7.92 10.85L7.92 10.85Q7.92 11.82 7.47 12.56L7.47 12.56L7.47 12.56Q7.01 13.30 6.20 13.71L6.20 13.71L6.20 13.71Q5.38 14.11 4.30 14.11L4.30 14.11ZM15.68 8.75L15.68 8.75Q15.92 9.42 15.92 10.43L15.92 10.43L15.92 10.43Q15.92 11.47 15.65 12.17L15.65 12.17L15.65 12.17Q15.34 13.06 14.64 13.59L14.64 13.59L14.64 13.59Q13.93 14.13 12.98 14.13L12.98 14.13L12.98 14.13Q11.94 14.13 11.38 13.44L11.38 13.44L11.38 13.44Q11.35 13.40 11.32 13.41L11.32 13.41L11.32 13.41Q11.28 13.43 11.28 13.48L11.28 13.48L11.28 16.37L11.28 16.37Q11.28 16.60 11.05 16.60L11.05 16.60L9.55 16.60L9.55 16.60Q9.31 16.60 9.31 16.37L9.31 16.37L9.31 7.04L9.31 7.04Q9.31 6.80 9.55 6.80L9.55 6.80L11.05 6.80L11.05 6.80Q11.28 6.80 11.28 7.04L11.28 7.04L11.28 7.42L11.28 7.42Q11.28 7.48 11.32 7.48L11.32 7.48L11.32 7.48Q11.35 7.49 11.38 7.45L11.38 7.45L11.38 7.45Q11.96 6.69 12.98 6.69L12.98 6.69L12.98 6.69Q13.93 6.69 14.67 7.26L14.67 7.26L14.67 7.26Q15.40 7.83 15.68 8.75L15.68 8.75ZM13.51 11.86L13.51 11.86Q13.85 11.30 13.85 10.39L13.85 10.39L13.85 10.39Q13.85 9.56 13.55 9.02L13.55 9.02L13.55 9.02Q13.22 8.41 12.53 8.41L12.53 8.41L12.53 8.41Q11.91 8.41 11.58 9.02L11.58 9.02L11.58 9.02Q11.30 9.53 11.30 10.40L11.30 10.40L11.30 10.40Q11.30 11.31 11.59 11.84L11.59 11.84L11.59 11.84Q11.94 12.39 12.53 12.39L12.53 12.39L12.53 12.39Q13.17 12.39 13.51 11.86L13.51 11.86ZM23.51 8.75L23.51 8.75Q23.74 9.42 23.74 10.43L23.74 10.43L23.74 10.43Q23.74 11.47 23.48 12.17L23.48 12.17L23.48 12.17Q23.17 13.06 22.46 13.59L22.46 13.59L22.46 13.59Q21.76 14.13 20.80 14.13L20.80 14.13L20.80 14.13Q19.77 14.13 19.21 13.44L19.21 13.44L19.21 13.44Q19.18 13.40 19.14 13.41L19.14 13.41L19.14 13.41Q19.11 13.43 19.11 13.48L19.11 13.48L19.11 16.37L19.11 16.37Q19.11 16.60 18.87 16.60L18.87 16.60L17.37 16.60L17.37 16.60Q17.14 16.60 17.14 16.37L17.14 16.37L17.14 7.04L17.14 7.04Q17.14 6.80 17.37 6.80L17.37 6.80L18.87 6.80L18.87 6.80Q19.11 6.80 19.11 7.04L19.11 7.04L19.11 7.42L19.11 7.42Q19.11 7.48 19.14 7.48L19.14 7.48L19.14 7.48Q19.18 7.49 19.21 7.45L19.21 7.45L19.21 7.45Q19.78 6.69 20.80 6.69L20.80 6.69L20.80 6.69Q21.76 6.69 22.49 7.26L22.49 7.26L22.49 7.26Q23.23 7.83 23.51 8.75L23.51 8.75ZM21.34 11.86L21.34 11.86Q21.67 11.30 21.67 10.39L21.67 10.39L21.67 10.39Q21.67 9.56 21.38 9.02L21.38 9.02L21.38 9.02Q21.04 8.41 20.36 8.41L20.36 8.41L20.36 8.41Q19.74 8.41 19.40 9.02L19.40 9.02L19.40 9.02Q19.12 9.53 19.12 10.40L19.12 10.40L19.12 10.40Q19.12 11.31 19.42 11.84L19.42 11.84L19.42 11.84Q19.77 12.39 20.36 12.39L20.36 12.39L20.36 12.39Q21 12.39 21.34 11.86L21.34 11.86ZM24.81 10.71L24.81 10.71Q24.57 10.71 24.57 10.47L24.57 10.47L24.57 9.25L24.57 9.25Q24.57 9.02 24.81 9.02L24.81 9.02L29.25 9.02L29.25 9.02Q29.48 9.02 29.48 9.25L29.48 9.25L29.48 10.47L29.48 10.47Q29.48 10.71 29.25 10.71L29.25 10.71L24.81 10.71ZM37.44 4.20L37.44 4.20Q37.67 4.20 37.67 4.44L37.67 4.44L37.67 5.67L37.67 5.67Q37.67 5.91 37.44 5.91L37.44 5.91L35.01 5.91L35.01 5.91Q34.93 5.91 34.93 5.99L34.93 5.99L34.93 13.76L34.93 13.76Q34.93 14 34.69 14L34.69 14L33.19 14L33.19 14Q32.96 14 32.96 13.76L32.96 13.76L32.96 5.99L32.96 5.99Q32.96 5.91 32.87 5.91L32.87 5.91L30.52 5.91L30.52 5.91Q30.28 5.91 30.28 5.67L30.28 5.67L30.28 4.44L30.28 4.44Q30.28 4.20 30.52 4.20L30.52 4.20L37.44 4.20ZM41.69 6.69L41.69 6.69Q42.60 6.69 43.32 7.01L43.32 7.01L43.32 7.01Q44.03 7.32 44.43 7.87L44.43 7.87L44.43 7.87Q44.83 8.41 44.83 9.09L44.83 9.09L44.83 13.76L44.83 13.76Q44.83 14 44.59 14L44.59 14L43.09 14L43.09 14Q42.85 14 42.85 13.76L42.85 13.76L42.85 13.43L42.85 13.43Q42.85 13.37 42.83 13.36L42.83 13.36L42.83 13.36Q42.80 13.36 42.76 13.40L42.76 13.40L42.76 13.40Q42.11 14.11 40.84 14.11L40.84 14.11L40.84 14.11Q39.76 14.11 39.10 13.58L39.10 13.58L39.10 13.58Q38.44 13.05 38.44 12.01L38.44 12.01L38.44 12.01Q38.44 10.93 39.20 10.34L39.20 10.34L39.20 10.34Q39.96 9.74 41.36 9.74L41.36 9.74L42.77 9.74L42.77 9.74Q42.85 9.74 42.85 9.66L42.85 9.66L42.85 9.37L42.85 9.37Q42.85 8.90 42.57 8.64L42.57 8.64L42.57 8.64Q42.28 8.39 41.73 8.39L41.73 8.39L41.73 8.39Q41.31 8.39 41.04 8.53L41.04 8.53L41.04 8.53Q40.77 8.67 40.67 8.92L40.67 8.92L40.67 8.92Q40.59 9.11 40.39 9.10L40.39 9.10L38.84 8.90L38.84 8.90Q38.72 8.89 38.66 8.84L38.66 8.84L38.66 8.84Q38.60 8.79 38.61 8.71L38.61 8.71L38.61 8.71Q38.68 8.13 39.09 7.67L39.09 7.67L39.09 7.67Q39.51 7.21 40.19 6.95L40.19 6.95L40.19 6.95Q40.87 6.69 41.69 6.69L41.69 6.69ZM41.41 12.64L41.41 12.64Q42.01 12.64 42.43 12.32L42.43 12.32L42.43 12.32Q42.85 12.00 42.85 11.49L42.85 11.49L42.85 11.00L42.85 11.00Q42.85 10.92 42.77 10.92L42.77 10.92L41.78 10.92L41.78 10.92Q41.15 10.92 40.78 11.16L40.78 11.16L40.78 11.16Q40.42 11.40 40.42 11.83L40.42 11.83L40.42 11.83Q40.42 12.21 40.69 12.43L40.69 12.43L40.69 12.43Q40.96 12.64 41.41 12.64L41.41 12.64ZM49.07 14.10L49.07 14.10Q48.13 14.10 47.43 13.83L47.43 13.83L47.43 13.83Q46.73 13.57 46.35 13.09L46.35 13.09L46.35 13.09Q45.98 12.61 45.98 12.01L45.98 12.01L45.98 11.94L45.98 11.94Q45.98 11.70 46.21 11.70L46.21 11.70L47.63 11.70L47.63 11.70Q47.87 11.70 47.87 11.79L47.87 11.79L47.87 11.89L47.87 11.89Q47.87 12.19 48.20 12.41L48.20 12.41L48.20 12.41Q48.54 12.63 49.06 12.63L49.06 12.63L49.06 12.63Q49.53 12.63 49.83 12.45L49.83 12.45L49.83 12.45Q50.12 12.26 50.12 11.97L50.12 11.97L50.12 11.97Q50.12 11.72 49.87 11.59L49.87 11.59L49.87 11.59Q49.62 11.47 49.04 11.33L49.04 11.33L49.04 11.33Q48.36 11.14 48.02 11.00L48.02 11.00L48.02 11.00Q47.11 10.70 46.58 10.25L46.58 10.25L46.58 10.25Q46.05 9.80 46.05 8.96L46.05 8.96L46.05 8.96Q46.05 7.92 46.86 7.31L46.86 7.31L46.86 7.31Q47.67 6.71 48.99 6.71L48.99 6.71L48.99 6.71Q49.88 6.71 50.56 6.99L50.56 6.99L50.56 6.99Q51.24 7.28 51.61 7.80L51.61 7.80L51.61 7.80Q51.98 8.32 51.98 8.97L51.98 8.97L51.98 8.97Q51.98 9.04 51.92 9.09L51.92 9.09L51.92 9.09Q51.86 9.14 51.74 9.14L51.74 9.14L50.37 9.14L50.37 9.14Q50.13 9.14 50.13 9.06L50.13 9.06L50.13 8.97L50.13 8.97Q50.13 8.67 49.83 8.46L49.83 8.46L49.83 8.46Q49.52 8.25 49 8.25L49 8.25L49 8.25Q48.54 8.25 48.24 8.41L48.24 8.41L48.24 8.41Q47.94 8.58 47.94 8.88L47.94 8.88L47.94 8.88Q47.94 9.16 48.22 9.30L48.22 9.30L48.22 9.30Q48.51 9.44 49.17 9.59L49.17 9.59L49.17 9.59Q49.57 9.67 49.95 9.80L49.95 9.80L49.95 9.80Q50.96 10.09 51.53 10.56L51.53 10.56L51.53 10.56Q52.11 11.02 52.11 11.90L52.11 11.90L52.11 11.90Q52.11 12.94 51.28 13.52L51.28 13.52L51.28 13.52Q50.46 14.10 49.07 14.10L49.07 14.10ZM53.48 14L53.48 14Q53.24 14 53.24 13.76L53.24 13.76L53.24 4.44L53.24 4.44Q53.24 4.20 53.48 4.20L53.48 4.20L54.98 4.20L54.98 4.20Q55.22 4.20 55.22 4.44L55.22 4.44L55.22 9.06L55.22 9.06Q55.22 9.11 55.25 9.12L55.25 9.12L55.25 9.12Q55.29 9.13 55.31 9.09L55.31 9.09L57.18 6.94L57.18 6.94Q57.32 6.80 57.47 6.80L57.47 6.80L59.16 6.80L59.16 6.80Q59.26 6.80 59.32 6.84L59.32 6.84L59.32 6.84Q59.37 6.87 59.37 6.94L59.37 6.94L59.37 6.94Q59.37 7.03 59.32 7.10L59.32 7.10L57.60 9.25L57.60 9.25Q57.55 9.30 57.58 9.37L57.58 9.37L59.64 13.72L59.67 13.83L59.67 13.83Q59.67 14 59.46 14L59.46 14L57.88 14L57.88 14Q57.68 14 57.60 13.82L57.60 13.82L56.24 10.61L56.24 10.61Q56.20 10.53 56.13 10.60L56.13 10.60L55.26 11.70L55.26 11.70Q55.22 11.76 55.22 11.80L55.22 11.80L55.22 13.76L55.22 13.76Q55.22 14 54.98 14L54.98 14L53.48 14ZM64.74 6.79L64.74 6.79Q64.97 6.79 64.97 7.03L64.97 7.03L64.97 8.22L64.97 8.22Q64.97 8.46 64.74 8.46L64.74 8.46L63.46 8.46L63.46 8.46Q63.38 8.46 63.38 8.54L63.38 8.54L63.38 13.76L63.38 13.76Q63.38 14 63.14 14L63.14 14L61.64 14L61.64 14Q61.40 14 61.40 13.76L61.40 13.76L61.40 8.54L61.40 8.54Q61.40 8.46 61.32 8.46L61.32 8.46L60.58 8.46L60.58 8.46Q60.34 8.46 60.34 8.22L60.34 8.22L60.34 7.03L60.34 7.03Q60.34 6.79 60.58 6.79L60.58 6.79L61.32 6.79L61.32 6.79Q61.40 6.79 61.40 6.71L61.40 6.71L61.40 6.41L61.40 6.41Q61.40 5.54 61.67 5.06L61.67 5.06L61.67 5.06Q61.94 4.58 62.53 4.38L62.53 4.38L62.53 4.38Q63.13 4.17 64.18 4.20L64.18 4.20L64.64 4.20L64.64 4.20Q64.88 4.20 64.88 4.44L64.88 4.44L64.88 5.43L64.88 5.43Q64.88 5.67 64.64 5.67L64.64 5.67L64.25 5.67L64.25 5.67Q63.76 5.68 63.57 5.87L63.57 5.87L63.57 5.87Q63.38 6.06 63.38 6.57L63.38 6.57L63.38 6.71L63.38 6.71Q63.38 6.79 63.46 6.79L63.46 6.79L64.74 6.79ZM66.39 14L66.39 14Q66.15 14 66.15 13.76L66.15 13.76L66.15 4.44L66.15 4.44Q66.15 4.20 66.39 4.20L66.39 4.20L67.89 4.20L67.89 4.20Q68.12 4.20 68.12 4.44L68.12 4.44L68.12 13.76L68.12 13.76Q68.12 14 67.89 14L67.89 14L66.39 14ZM72.80 14.11L72.80 14.11Q71.61 14.11 70.77 13.50L70.77 13.50L70.77 13.50Q69.93 12.88 69.62 11.82L69.62 11.82L69.62 11.82Q69.43 11.16 69.43 10.39L69.43 10.39L69.43 10.39Q69.43 9.53 69.64 8.90L69.64 8.90L69.64 8.90Q69.96 7.87 70.79 7.28L70.79 7.28L70.79 7.28Q71.62 6.69 72.81 6.69L72.81 6.69L72.81 6.69Q73.96 6.69 74.78 7.28L74.78 7.28L74.78 7.28Q75.60 7.87 75.92 8.89L75.92 8.89L75.92 8.89Q76.13 9.53 76.13 10.36L76.13 10.36L76.13 10.36Q76.13 11.09 75.95 11.77L75.95 11.77L75.95 11.77Q75.63 12.87 74.80 13.49L74.80 13.49L74.80 13.49Q73.96 14.11 72.80 14.11L72.80 14.11ZM72.80 12.42L72.80 12.42Q73.25 12.42 73.57 12.14L73.57 12.14L73.57 12.14Q73.89 11.86 74.03 11.37L74.03 11.37L74.03 11.37Q74.14 10.99 74.14 10.39L74.14 10.39L74.14 10.39Q74.14 9.80 74.03 9.39L74.03 9.39L74.03 9.39Q73.89 8.92 73.57 8.65L73.57 8.65L73.57 8.65Q73.25 8.39 72.77 8.39L72.77 8.39L72.77 8.39Q72.31 8.39 71.99 8.65L71.99 8.65L71.99 8.65Q71.67 8.92 71.53 9.39L71.53 9.39L71.53 9.39Q71.41 9.80 71.41 10.39L71.41 10.39L71.41 10.39Q71.41 10.96 71.53 11.37L71.53 11.37L71.53 11.37Q71.67 11.86 72.00 12.14L72.00 12.14L72.00 12.14Q72.32 12.42 72.80 12.42L72.80 12.42ZM79.27 14L79.27 14Q79.07 14 79.00 13.80L79.00 13.80L77.03 7.07L77.03 7.07Q77.01 7.04 77.01 6.99L77.01 6.99L77.01 6.99Q77.01 6.80 77.22 6.80L77.22 6.80L78.76 6.80L78.76 6.80Q78.99 6.80 79.03 7.01L79.03 7.01L80.00 11.16L80.00 11.16Q80.01 11.21 80.05 11.21L80.05 11.21L80.05 11.21Q80.09 11.21 80.11 11.16L80.11 11.16L81.14 7.01L81.14 7.01Q81.19 6.80 81.41 6.80L81.41 6.80L82.78 6.80L82.78 6.80Q83.01 6.80 83.05 7.01L83.05 7.01L84.11 11.17L84.11 11.17Q84.13 11.23 84.17 11.23L84.17 11.23L84.17 11.23Q84.21 11.23 84.22 11.17L84.22 11.17L85.29 7.01L85.29 7.01Q85.33 6.80 85.55 6.80L85.55 6.80L87.09 6.82L87.09 6.82Q87.22 6.82 87.27 6.89L87.27 6.89L87.27 6.89Q87.32 6.97 87.29 7.08L87.29 7.08L85.29 13.80L85.29 13.80Q85.22 14 85.02 14L85.02 14L83.45 14L83.45 14Q83.26 14 83.19 13.80L83.19 13.80L82.14 10.14L82.14 10.14Q82.11 10.08 82.08 10.08L82.08 10.08L82.08 10.08Q82.04 10.08 82.03 10.14L82.03 10.14L81.10 13.79L81.10 13.79Q81.06 14 80.84 14L80.84 14L79.27 14Z"></path></g><defs data-v-fde0c5aa=""><linearGradient data-v-fde0c5aa="" gradientTransform="rotate(25)" id="b3f46b0a-3952-4c82-aeed-acdd8529460f" x1="0%" y1="0%" x2="100%" y2="0%"><stop data-v-fde0c5aa="" offset="0%" stop-color="#20484F" stop-opacity="1"></stop><stop data-v-fde0c5aa="" offset="100%" stop-color="#4E9BAB" stop-opacity="1"></stop></linearGradient></defs><g data-v-fde0c5aa="" id="bbe6320d-55f6-496c-9b0d-05fd939dd7ae" stroke="none" fill="url(#b3f46b0a-3952-4c82-aeed-acdd8529460f)" transform="matrix(0.5059603172148965,0,0,0.5059603172148965,36.20580426831591,124.19627811079681)"><path clip-rule="evenodd" d="M82.743 28.662c-5.281 0-9.699-3.506-11.181-8.302l-4.053.9-1.102-4.573 4.707-1.045C71.75 9.751 76.68 5.148 82.742 5.148c6.494 0 11.757 5.264 11.757 11.757s-5.262 11.757-11.756 11.757zm0-18.81a7.054 7.054 0 1 0 0 14.109 7.054 7.054 0 0 0 0-14.109zm4.703 65.837c0 11.688-9.475 21.162-21.162 21.162-11.688 0-21.163-9.475-21.163-21.162a21.09 21.09 0 0 1 6.147-14.907l-6.562-7.344 3.45-3.196 6.789 7.599a21.046 21.046 0 0 1 11.339-3.313c11.688-.001 21.162 9.473 21.162 21.161zm-21.162-16.46c-9.091 0-16.46 7.369-16.46 16.46s7.369 16.459 16.46 16.459 16.459-7.368 16.459-16.459-7.368-16.46-16.459-16.46zM51.941 19.902l9.876-2.194 1.103 4.573-9.876 2.193-1.103-4.572zm-11.522 8.76c0 3.549-1.148 6.814-3.059 9.503l7.661 8.572-3.45 3.198-7.491-8.382c-2.799 2.202-6.285 3.569-10.122 3.569-9.091 0-16.459-7.369-16.459-16.459s7.369-16.459 16.459-16.459c6.987 0 12.921 4.371 15.309 10.515l8.082-1.796 1.102 4.573-8.17 1.815c.039.452.138.887.138 1.351zm-16.46-11.791c-6.512 0-11.792 5.279-11.792 11.791s5.28 11.792 11.792 11.792 11.792-5.28 11.792-11.792-5.279-11.791-11.792-11.791z"></path></g><defs data-v-fde0c5aa=""><!----></defs><g data-v-fde0c5aa="" id="ac8651ae-6dba-4fe6-acd4-1fe7c4cfb7d9" fill="#000000" transform="matrix(0.4560580308624695,0,0,0.4560580308624695,96.86348400540089,159.1713548274144)"><path d="M3.75 14.40L0.34 14.40L0.38 14.11L1.46 13.90L1.46 6.51L0.35 6.36L0.41 6.12L0.41 6.12Q0.58 6.09 1.03 6.02L1.03 6.02L1.03 6.02Q1.48 5.94 1.71 5.91L1.71 5.91L1.71 5.91Q1.93 5.88 2.34 5.84L2.34 5.84L2.34 5.84Q2.75 5.81 3.17 5.81L3.17 5.81L3.17 5.81Q3.86 5.81 4.45 5.96L4.45 5.96L4.45 5.96Q5.04 6.10 5.50 6.40L5.50 6.40L5.50 6.40Q5.96 6.69 6.22 7.18L6.22 7.18L6.22 7.18Q6.48 7.66 6.48 8.29L6.48 8.29L6.48 8.29Q6.48 8.90 6.20 9.43L6.20 9.43L6.20 9.43Q5.92 9.97 5.46 10.33L5.46 10.33L5.46 10.33Q5.00 10.69 4.40 10.90L4.40 10.90L4.40 10.90Q3.79 11.10 3.16 11.10L3.16 11.10L3.16 11.10Q2.88 11.10 2.82 11.09L2.82 11.09L2.75 10.80L3.12 10.78L3.12 10.78Q3.78 10.75 4.28 10.55L4.28 10.55L4.28 10.55Q4.77 10.36 5.06 10.03L5.06 10.03L5.06 10.03Q5.35 9.70 5.49 9.30L5.49 9.30L5.49 9.30Q5.63 8.90 5.63 8.43L5.63 8.43L5.63 8.43Q5.63 7.98 5.47 7.57L5.47 7.57L5.47 7.57Q5.30 7.16 4.98 6.83L4.98 6.83L4.98 6.83Q4.66 6.50 4.13 6.31L4.13 6.31L4.13 6.31Q3.61 6.11 2.96 6.11L2.96 6.11L2.21 6.15L2.21 13.95L3.81 14.08L3.75 14.40ZM18.23 6.98L16.86 10.75L19.55 10.75L18.23 6.98ZM16.91 14.40L14.18 14.40L14.22 14.11L15.19 13.90L18.18 5.82L18.55 5.73L21.38 13.95L22.29 14.08L22.23 14.39L19.43 14.39L19.50 14.10L20.63 13.90L19.68 11.13L16.73 11.13L15.72 13.95L16.97 14.08L16.91 14.40ZM31.79 6.18L31.79 10.11L33.35 10.11L33.35 10.11Q34.03 9.86 34.49 9.28L34.49 9.28L34.49 9.28Q34.95 8.70 34.95 8.02L34.95 8.02L34.95 8.02Q34.95 7.11 34.33 6.63L34.33 6.63L34.33 6.63Q33.71 6.15 32.62 6.15L32.62 6.15L31.79 6.18ZM33.17 14.40L29.98 14.40L30.02 14.11L31.09 13.90L31.09 6.51L30.00 6.37L30.06 6.13L30.06 6.13Q31.88 5.83 32.96 5.83L32.96 5.83L32.96 5.83Q33.73 5.83 34.34 6.05L34.34 6.05L34.34 6.05Q34.95 6.27 35.32 6.73L35.32 6.73L35.32 6.73Q35.70 7.19 35.70 7.83L35.70 7.83L35.70 7.83Q35.70 8.57 35.27 9.14L35.27 9.14L35.27 9.14Q34.84 9.72 33.81 10.23L33.81 10.23L33.81 10.23L35.13 12.19L35.13 12.19Q35.84 13.23 36.19 13.58L36.19 13.58L36.19 13.58Q36.53 13.92 36.91 14.05L36.91 14.05L37.24 14.16L37.20 14.42L37.20 14.42Q36.91 14.52 36.57 14.52L36.57 14.52L36.57 14.52Q36.28 14.52 36.03 14.40L36.03 14.40L36.03 14.40Q35.77 14.28 35.53 14.01L35.53 14.01L35.53 14.01Q35.29 13.75 35.10 13.48L35.10 13.48L35.10 13.48Q34.92 13.22 34.64 12.77L34.64 12.77L33.26 10.49L31.79 10.49L31.79 13.95L33.24 14.08L33.17 14.40ZM48.99 6.98L47.63 10.75L50.31 10.75L48.99 6.98ZM47.67 14.40L44.95 14.40L44.98 14.11L45.95 13.90L48.95 5.82L49.31 5.73L52.14 13.95L53.05 14.08L52.99 14.39L50.20 14.39L50.26 14.10L51.39 13.90L50.44 11.13L47.49 11.13L46.48 13.95L47.74 14.08L47.67 14.40ZM66.90 14.40L60.75 14.40L60.79 14.11L61.94 13.90L61.94 6.34L60.76 6.17L60.79 5.90L63.90 5.90L63.88 6.17L62.67 6.32L62.67 14.03L66.29 14.03L66.82 12.09L67.12 12.14L66.90 14.40ZM81.01 14.40L74.85 14.40L74.89 14.11L76.04 13.90L76.04 6.34L74.87 6.17L74.89 5.90L78.00 5.90L77.98 6.17L76.77 6.32L76.77 14.03L80.40 14.03L80.92 12.09L81.22 12.14L81.01 14.40ZM90.17 6.36L88.94 6.18L88.99 5.89L95.18 5.89L94.97 8.07L94.66 8.03L94.53 6.24L90.88 6.24L90.88 9.89L93.17 9.89L93.42 8.94L93.79 8.89L93.56 11.55L93.21 11.61L93.11 10.26L90.88 10.26L90.88 14.03L94.72 14.03L95.22 12.19L95.50 12.26L95.30 14.40L88.96 14.40L89.00 14.11L90.17 13.90L90.17 6.36ZM109.38 14.40L103.23 14.40L103.26 14.11L104.42 13.90L104.42 6.34L103.24 6.17L103.27 5.90L106.38 5.90L106.35 6.17L105.15 6.32L105.15 14.03L108.77 14.03L109.30 12.09L109.60 12.14L109.38 14.40ZM127.29 8.09L127.22 5.89L134.29 5.89L134.05 8.16L133.70 8.12L133.59 6.24L131.05 6.24L131.05 13.90L132.26 14.08L132.19 14.40L129.09 14.40L129.12 14.11L130.32 13.90L130.32 6.24L127.89 6.24L127.65 8.15L127.29 8.09ZM146.06 6.98L144.69 10.75L147.38 10.75L146.06 6.98ZM144.74 14.40L142.01 14.40L142.04 14.11L143.01 13.90L146.01 5.82L146.37 5.73L149.21 13.95L150.11 14.08L150.06 14.39L147.26 14.39L147.32 14.10L148.46 13.90L147.51 11.13L144.55 11.13L143.54 13.95L144.80 14.08L144.74 14.40ZM157.81 13.60L157.81 13.60L158.01 11.66L158.34 11.71L158.53 13.21L158.53 13.21Q158.76 13.64 159.29 13.89L159.29 13.89L159.29 13.89Q159.82 14.14 160.42 14.14L160.42 14.14L160.42 14.14Q161.10 14.14 161.58 13.74L161.58 13.74L161.58 13.74Q162.06 13.33 162.06 12.61L162.06 12.61L162.06 12.61Q162.06 12.20 161.84 11.83L161.84 11.83L161.84 11.83Q161.63 11.46 161.28 11.18L161.28 11.18L161.28 11.18Q160.94 10.90 160.52 10.63L160.52 10.63L160.52 10.63Q160.10 10.36 159.68 10.07L159.68 10.07L159.68 10.07Q159.26 9.79 158.92 9.48L158.92 9.48L158.92 9.48Q158.57 9.17 158.36 8.75L158.36 8.75L158.36 8.75Q158.14 8.33 158.14 7.84L158.14 7.84L158.14 7.84Q158.14 6.88 158.84 6.29L158.84 6.29L158.84 6.29Q159.53 5.71 160.41 5.71L160.41 5.71L160.41 5.71Q161 5.71 161.54 5.90L161.54 5.90L161.54 5.90Q162.08 6.09 162.41 6.46L162.41 6.46L162.18 8.58L161.87 8.53L161.68 6.87L161.68 6.87Q161.50 6.54 161.08 6.32L161.08 6.32L161.08 6.32Q160.67 6.10 160.23 6.10L160.23 6.10L160.23 6.10Q159.64 6.10 159.23 6.48L159.23 6.48L159.23 6.48Q158.81 6.87 158.81 7.52L158.81 7.52L158.81 7.52Q158.81 7.96 159.03 8.35L159.03 8.35L159.03 8.35Q159.26 8.74 159.61 9.03L159.61 9.03L159.61 9.03Q159.96 9.32 160.38 9.61L160.38 9.61L160.38 9.61Q160.81 9.89 161.24 10.17L161.24 10.17L161.24 10.17Q161.66 10.45 162.02 10.75L162.02 10.75L162.02 10.75Q162.37 11.05 162.59 11.45L162.59 11.45L162.59 11.45Q162.81 11.85 162.81 12.29L162.81 12.29L162.81 12.29Q162.81 13.28 162.06 13.93L162.06 13.93L162.06 13.93Q161.31 14.57 160.06 14.57L160.06 14.57L160.06 14.57Q159.35 14.57 158.75 14.30L158.75 14.30L158.75 14.30Q158.15 14.03 157.81 13.60ZM172.82 10.27L172.81 10.17L172.81 10.17Q173.45 9.47 173.81 9.04L173.81 9.04L176.07 6.33L174.89 6.16L174.92 5.89L177.70 5.89L177.68 6.16L176.63 6.32L173.52 10.10L175.31 12.20L175.31 12.20Q176.10 13.13 176.60 13.54L176.60 13.54L176.60 13.54Q177.11 13.94 177.69 14.03L177.69 14.03L178.06 14.08L177.97 14.38L177.97 14.38Q177.97 14.38 177.84 14.42L177.84 14.42L177.84 14.42Q177.71 14.46 177.66 14.48L177.66 14.48L177.66 14.48Q177.61 14.50 177.54 14.52L177.54 14.52L177.54 14.52Q177.47 14.53 177.40 14.54L177.40 14.54L177.40 14.54Q177.33 14.55 177.25 14.55L177.25 14.55L177.25 14.55Q176.92 14.55 176.62 14.43L176.62 14.43L176.62 14.43Q176.33 14.31 176.01 14.03L176.01 14.03L176.01 14.03Q175.70 13.75 175.48 13.51L175.48 13.51L175.48 13.51Q175.27 13.28 174.89 12.82L174.89 12.82L172.82 10.27ZM171.70 6.33L170.52 6.16L170.55 5.89L173.62 5.89L173.60 6.16L172.44 6.32L172.44 13.95L173.71 14.08L173.63 14.40L170.58 14.40L170.63 14.11L171.70 13.90L171.70 6.33ZM199.09 14.40L195.68 14.40L195.71 14.11L196.79 13.90L196.79 6.51L195.69 6.36L195.75 6.12L195.75 6.12Q195.92 6.09 196.37 6.02L196.37 6.02L196.37 6.02Q196.81 5.94 197.04 5.91L197.04 5.91L197.04 5.91Q197.27 5.88 197.68 5.84L197.68 5.84L197.68 5.84Q198.09 5.81 198.51 5.81L198.51 5.81L198.51 5.81Q199.20 5.81 199.79 5.96L199.79 5.96L199.79 5.96Q200.38 6.10 200.84 6.40L200.84 6.40L200.84 6.40Q201.30 6.69 201.56 7.18L201.56 7.18L201.56 7.18Q201.82 7.66 201.82 8.29L201.82 8.29L201.82 8.29Q201.82 8.90 201.54 9.43L201.54 9.43L201.54 9.43Q201.26 9.97 200.80 10.33L200.80 10.33L200.80 10.33Q200.33 10.69 199.73 10.90L199.73 10.90L199.73 10.90Q199.13 11.10 198.50 11.10L198.50 11.10L198.50 11.10Q198.22 11.10 198.15 11.09L198.15 11.09L198.08 10.80L198.45 10.78L198.45 10.78Q199.12 10.75 199.61 10.55L199.61 10.55L199.61 10.55Q200.11 10.36 200.40 10.03L200.40 10.03L200.40 10.03Q200.69 9.70 200.83 9.30L200.83 9.30L200.83 9.30Q200.97 8.90 200.97 8.43L200.97 8.43L200.97 8.43Q200.97 7.98 200.80 7.57L200.80 7.57L200.80 7.57Q200.63 7.16 200.31 6.83L200.31 6.83L200.31 6.83Q199.99 6.50 199.47 6.31L199.47 6.31L199.47 6.31Q198.95 6.11 198.30 6.11L198.30 6.11L197.54 6.15L197.54 13.95L199.14 14.08L199.09 14.40ZM211.33 6.18L211.33 10.11L212.88 10.11L212.88 10.11Q213.56 9.86 214.02 9.28L214.02 9.28L214.02 9.28Q214.48 8.70 214.48 8.02L214.48 8.02L214.48 8.02Q214.48 7.11 213.86 6.63L213.86 6.63L213.86 6.63Q213.24 6.15 212.15 6.15L212.15 6.15L211.33 6.18ZM212.70 14.40L209.51 14.40L209.56 14.11L210.62 13.90L210.62 6.51L209.53 6.37L209.59 6.13L209.59 6.13Q211.42 5.83 212.50 5.83L212.50 5.83L212.50 5.83Q213.26 5.83 213.87 6.05L213.87 6.05L213.87 6.05Q214.48 6.27 214.85 6.73L214.85 6.73L214.85 6.73Q215.23 7.19 215.23 7.83L215.23 7.83L215.23 7.83Q215.23 8.57 214.80 9.14L214.80 9.14L214.80 9.14Q214.38 9.72 213.34 10.23L213.34 10.23L213.34 10.23L214.66 12.19L214.66 12.19Q215.37 13.23 215.72 13.58L215.72 13.58L215.72 13.58Q216.06 13.92 216.45 14.05L216.45 14.05L216.77 14.16L216.73 14.42L216.73 14.42Q216.44 14.52 216.10 14.52L216.10 14.52L216.10 14.52Q215.81 14.52 215.56 14.40L215.56 14.40L215.56 14.40Q215.30 14.28 215.06 14.01L215.06 14.01L215.06 14.01Q214.82 13.75 214.63 13.48L214.63 13.48L214.63 13.48Q214.45 13.22 214.18 12.77L214.18 12.77L212.79 10.49L211.33 10.49L211.33 13.95L212.77 14.08L212.70 14.40ZM225.24 9.75L225.24 9.75L225.24 9.75Q225.24 11.03 225.61 12.01L225.61 12.01L225.61 12.01Q225.97 13.00 226.69 13.57L226.69 13.57L226.69 13.57Q227.40 14.14 228.38 14.14L228.38 14.14L228.38 14.14Q228.96 14.14 229.45 13.92L229.45 13.92L229.45 13.92Q229.94 13.70 230.29 13.33L230.29 13.33L230.29 13.33Q230.63 12.96 230.87 12.49L230.87 12.49L230.87 12.49Q231.12 12.01 231.23 11.50L231.23 11.50L231.23 11.50Q231.35 10.99 231.35 10.48L231.35 10.48L231.35 10.48Q231.35 8.50 230.50 7.29L230.50 7.29L230.50 7.29Q229.65 6.07 228.20 6.07L228.20 6.07L228.20 6.07Q227.62 6.07 227.12 6.28L227.12 6.28L227.12 6.28Q226.63 6.49 226.29 6.85L226.29 6.85L226.29 6.85Q225.95 7.21 225.71 7.69L225.71 7.69L225.71 7.69Q225.47 8.16 225.36 8.69L225.36 8.69L225.36 8.69Q225.24 9.21 225.24 9.75ZM224.49 10.16L224.49 10.16L224.49 10.16Q224.49 8.16 225.59 6.92L225.59 6.92L225.59 6.92Q226.69 5.69 228.53 5.69L228.53 5.69L228.53 5.69Q229.66 5.69 230.48 6.27L230.48 6.27L230.48 6.27Q231.29 6.86 231.69 7.84L231.69 7.84L231.69 7.84Q232.09 8.83 232.09 10.11L232.09 10.11L232.09 10.11Q232.09 10.75 231.94 11.38L231.94 11.38L231.94 11.38Q231.79 12.00 231.46 12.58L231.46 12.58L231.46 12.58Q231.14 13.17 230.68 13.61L230.68 13.61L230.68 13.61Q230.21 14.05 229.54 14.32L229.54 14.32L229.54 14.32Q228.86 14.58 228.05 14.58L228.05 14.58L228.05 14.58Q227.00 14.58 226.18 13.98L226.18 13.98L226.18 13.98Q225.35 13.37 224.92 12.37L224.92 12.37L224.92 12.37Q224.49 11.37 224.49 10.16ZM239.84 10.27L239.84 10.27L239.84 10.27Q239.84 9.64 240.01 9.00L240.01 9.00L240.01 9.00Q240.18 8.36 240.53 7.78L240.53 7.78L240.53 7.78Q240.88 7.21 241.36 6.75L241.36 6.75L241.36 6.75Q241.83 6.30 242.50 6.04L242.50 6.04L242.50 6.04Q243.17 5.77 243.93 5.77L243.93 5.77L243.93 5.77Q244.67 5.77 245.37 5.94L245.37 5.94L245.37 5.94Q246.07 6.11 246.54 6.47L246.54 6.47L246.34 8.64L246.03 8.61L245.82 6.99L245.82 6.99Q245.55 6.65 245.01 6.41L245.01 6.41L245.01 6.41Q244.46 6.17 243.70 6.17L243.70 6.17L243.70 6.17Q242.29 6.17 241.46 7.27L241.46 7.27L241.46 7.27Q240.62 8.37 240.62 10.07L240.62 10.07L240.62 10.07Q240.62 10.69 240.73 11.25L240.73 11.25L240.73 11.25Q240.84 11.81 241.09 12.34L241.09 12.34L241.09 12.34Q241.34 12.87 241.72 13.25L241.72 13.25L241.72 13.25Q242.10 13.63 242.69 13.86L242.69 13.86L242.69 13.86Q243.28 14.09 244.01 14.09L244.01 14.09L244.01 14.09Q245.07 14.09 245.79 13.59L245.79 13.59L245.80 11.03L244.15 10.86L244.19 10.60L247.47 10.60L247.43 10.86L246.51 11.01L246.51 13.86L246.51 13.86Q245.86 14.25 245.12 14.39L245.12 14.39L245.12 14.39Q244.38 14.53 243.30 14.53L243.30 14.53L243.30 14.53Q242.59 14.53 241.96 14.23L241.96 14.23L241.96 14.23Q241.33 13.93 240.86 13.39L240.86 13.39L240.86 13.39Q240.39 12.85 240.12 12.04L240.12 12.04L240.12 12.04Q239.84 11.23 239.84 10.27ZM256.96 6.18L256.96 10.11L258.51 10.11L258.51 10.11Q259.20 9.86 259.66 9.28L259.66 9.28L259.66 9.28Q260.11 8.70 260.11 8.02L260.11 8.02L260.11 8.02Q260.11 7.11 259.50 6.63L259.50 6.63L259.50 6.63Q258.88 6.15 257.79 6.15L257.79 6.15L256.96 6.18ZM258.34 14.40L255.14 14.40L255.19 14.11L256.26 13.90L256.26 6.51L255.17 6.37L255.23 6.13L255.23 6.13Q257.05 5.83 258.13 5.83L258.13 5.83L258.13 5.83Q258.90 5.83 259.51 6.05L259.51 6.05L259.51 6.05Q260.11 6.27 260.49 6.73L260.49 6.73L260.49 6.73Q260.87 7.19 260.87 7.83L260.87 7.83L260.87 7.83Q260.87 8.57 260.44 9.14L260.44 9.14L260.44 9.14Q260.01 9.72 258.98 10.23L258.98 10.23L258.98 10.23L260.30 12.19L260.30 12.19Q261.01 13.23 261.35 13.58L261.35 13.58L261.35 13.58Q261.70 13.92 262.08 14.05L262.08 14.05L262.41 14.16L262.37 14.42L262.37 14.42Q262.08 14.52 261.73 14.52L261.73 14.52L261.73 14.52Q261.45 14.52 261.19 14.40L261.19 14.40L261.19 14.40Q260.94 14.28 260.70 14.01L260.70 14.01L260.70 14.01Q260.46 13.75 260.27 13.48L260.27 13.48L260.27 13.48Q260.09 13.22 259.81 12.77L259.81 12.77L258.43 10.49L256.96 10.49L256.96 13.95L258.41 14.08L258.34 14.40ZM274.16 6.98L272.79 10.75L275.48 10.75L274.16 6.98ZM272.84 14.40L270.12 14.40L270.15 14.11L271.12 13.90L274.11 5.82L274.48 5.73L277.31 13.95L278.22 14.08L278.16 14.39L275.37 14.39L275.43 14.10L276.56 13.90L275.61 11.13L272.66 11.13L271.65 13.95L272.90 14.08L272.84 14.40ZM288.71 14.40L285.88 14.40L285.91 14.17L287.05 13.96L287.62 6.36L286.36 6.14L286.41 5.89L288.59 5.89L289.08 7.18L291.22 12.84L293.67 6.88L294.09 5.89L296.32 5.89L296.28 6.14L295.11 6.34L295.48 14.01L296.71 14.12L296.70 14.40L293.54 14.40L293.58 14.17L294.75 13.96L294.36 6.41L291.18 13.99L290.84 14.05L288.05 6.53L287.51 14.01L288.75 14.12L288.71 14.40ZM307.21 14.40L304.38 14.40L304.42 14.17L305.56 13.96L306.13 6.36L304.87 6.14L304.92 5.89L307.10 5.89L307.58 7.18L309.73 12.84L312.18 6.88L312.59 5.89L314.82 5.89L314.79 6.14L313.61 6.34L313.99 14.01L315.22 14.12L315.21 14.40L312.05 14.40L312.09 14.17L313.26 13.96L312.87 6.41L309.69 13.99L309.35 14.05L306.56 6.53L306.02 14.01L307.25 14.12L307.21 14.40ZM324.08 6.33L322.90 6.16L322.94 5.89L326.06 5.89L326.01 6.16L324.82 6.32L324.82 13.95L326.14 14.08L326.07 14.40L322.96 14.40L323.00 14.11L324.08 13.90L324.08 6.33ZM335.09 6.36L333.83 6.14L333.88 5.89L335.95 5.89L340.68 13.17L340.68 6.33L339.42 6.16L339.47 5.89L342.36 5.89L342.31 6.16L341.17 6.32L341.17 14.44L340.81 14.52L335.60 6.65L335.60 13.95L336.85 14.08L336.79 14.40L333.91 14.40L333.95 14.11L335.09 13.90L335.09 6.36ZM350.08 10.27L350.08 10.27L350.08 10.27Q350.08 9.64 350.25 9.00L350.25 9.00L350.25 9.00Q350.42 8.36 350.77 7.78L350.77 7.78L350.77 7.78Q351.11 7.21 351.59 6.75L351.59 6.75L351.59 6.75Q352.07 6.30 352.74 6.04L352.74 6.04L352.74 6.04Q353.40 5.77 354.16 5.77L354.16 5.77L354.16 5.77Q354.90 5.77 355.61 5.94L355.61 5.94L355.61 5.94Q356.31 6.11 356.78 6.47L356.78 6.47L356.58 8.64L356.27 8.61L356.06 6.99L356.06 6.99Q355.79 6.65 355.24 6.41L355.24 6.41L355.24 6.41Q354.70 6.17 353.94 6.17L353.94 6.17L353.94 6.17Q352.53 6.17 351.69 7.27L351.69 7.27L351.69 7.27Q350.85 8.37 350.85 10.07L350.85 10.07L350.85 10.07Q350.85 10.69 350.96 11.25L350.96 11.25L350.96 11.25Q351.07 11.81 351.33 12.34L351.33 12.34L351.33 12.34Q351.58 12.87 351.96 13.25L351.96 13.25L351.96 13.25Q352.34 13.63 352.93 13.86L352.93 13.86L352.93 13.86Q353.51 14.09 354.25 14.09L354.25 14.09L354.25 14.09Q355.30 14.09 356.02 13.59L356.02 13.59L356.04 11.03L354.39 10.86L354.43 10.60L357.71 10.60L357.66 10.86L356.75 11.01L356.75 13.86L356.75 13.86Q356.10 14.25 355.36 14.39L355.36 14.39L355.36 14.39Q354.62 14.53 353.53 14.53L353.53 14.53L353.53 14.53Q352.83 14.53 352.20 14.23L352.20 14.23L352.20 14.23Q351.57 13.93 351.10 13.39L351.10 13.39L351.10 13.39Q350.63 12.85 350.35 12.04L350.35 12.04L350.35 12.04Q350.08 11.23 350.08 10.27Z"></path></g></svg>