<?xml version="1.0" encoding="UTF-8" standalone="no"?><!DOCTYPE svg PUBLIC "-//W3C//DTD SVG 1.1//EN" "http://www.w3.org/Graphics/SVG/1.1/DTD/svg11.dtd"><!-- Generated by graphviz version 2.40.1 (20161225.0304)
 --><!-- Title: Taskflow Pages: 1 --><svg xmlns="http://www.w3.org/2000/svg" xmlns:xlink="http://www.w3.org/1999/xlink" width="1188pt" height="204pt" viewBox="0.00 0.00 1187.88 204.00">
<g id="graph0" class="graph" transform="scale(1 1) rotate(0) translate(4 200)">
<title>Taskflow</title>
<polygon fill="#ffffff" stroke="transparent" points="-4,4 -4,-200 1183.8766,-200 1183.8766,4 -4,4"/>
<g id="clust1" class="cluster">
<title>cluster_p0x7ffc2daeebe0</title>
<polygon fill="none" stroke="transparent" points="8,-8 8,-188 1171.8766,-188 1171.8766,-8 8,-8"/>
</g>
<!-- p0x1676c20 -->
<g id="node1" class="node">
<title>p0x1676c20</title>
<ellipse fill="none" stroke="#000000" cx="493.6255" cy="-34" rx="27" ry="18"/>
<text text-anchor="middle" x="493.6255" y="-29.8" font-family="Times,serif" font-size="14.00" fill="#000000">H</text>
</g>
<!-- I -->
<g id="node11" class="node">
<title>I</title>
<ellipse fill="none" stroke="#000000" cx="651.4383" cy="-34" rx="27" ry="18"/>
<text text-anchor="middle" x="651.4383" y="-29.8" font-family="Times,serif" font-size="14.00" fill="#000000">I</text>
</g>
<!-- p0x1676c20&#45;&gt;I -->
<g id="edge11" class="edge">
<title>p0x1676c20-&gt;I</title>
<path fill="none" stroke="#000000" d="M520.7545,-34C546.5771,-34 585.6453,-34 614.3408,-34"/>
<polygon fill="#000000" stroke="#000000" points="614.3998,-37.5001 624.3997,-34 614.3997,-30.5001 614.3998,-37.5001"/>
</g>
<!-- p0x1676d50 -->
<g id="node2" class="node">
<title>p0x1676d50</title>
<ellipse fill="none" stroke="#000000" cx="493.6255" cy="-88" rx="27" ry="18"/>
<text text-anchor="middle" x="493.6255" y="-83.8" font-family="Times,serif" font-size="14.00" fill="#000000">G</text>
</g>
<!-- p0x1676e80 -->
<g id="node3" class="node">
<title>p0x1676e80</title>
<ellipse fill="none" stroke="#000000" cx="172" cy="-79" rx="27" ry="18"/>
<text text-anchor="middle" x="172" y="-74.8" font-family="Times,serif" font-size="14.00" fill="#000000">F</text>
</g>
<!-- p0x1677700 -->
<g id="node4" class="node">
<title>p0x1677700</title>
<polygon fill="#7fffd4" stroke="#000000" points="329.8128,-97 274.1866,-79 329.8128,-61 385.4389,-79 329.8128,-97"/>
<text text-anchor="middle" x="329.8128" y="-74.8" font-family="Times,serif" font-size="14.00" fill="#000000">cond_2</text>
</g>
<!-- p0x1676e80&#45;&gt;p0x1677700 -->
<g id="edge1" class="edge">
<title>p0x1676e80-&gt;p0x1677700</title>
<path fill="none" stroke="#000000" d="M199.129,-79C216.9354,-79 241.0403,-79 263.6992,-79"/>
<polygon fill="#000000" stroke="#000000" points="263.9805,-82.5001 273.9804,-79 263.9804,-75.5001 263.9805,-82.5001"/>
</g>
<!-- p0x1677700&#45;&gt;p0x1676c20 -->
<g id="edge10" class="edge">
<title>p0x1677700-&gt;p0x1676c20</title>
<path fill="none" stroke="#000000" stroke-dasharray="5,2" d="M360.2408,-70.6413C388.1335,-62.9791 429.4206,-51.6373 458.6599,-43.6052"/>
<polygon fill="#000000" stroke="#000000" points="459.7423,-46.9376 468.458,-40.9136 457.8881,-40.1876 459.7423,-46.9376"/>
<text text-anchor="middle" x="426.1255" y="-57.2" font-family="Times,serif" font-size="14.00" fill="#000000">1</text>
</g>
<!-- p0x1677700&#45;&gt;p0x1676d50 -->
<g id="edge9" class="edge">
<title>p0x1677700-&gt;p0x1676d50</title>
<path fill="none" stroke="#000000" stroke-dasharray="5,2" d="M377.6346,-81.6274C402.6942,-83.0042 432.9349,-84.6656 456.2547,-85.9468"/>
<polygon fill="#000000" stroke="#000000" points="456.2618,-89.4524 466.4388,-86.5063 456.6458,-82.4629 456.2618,-89.4524"/>
<text text-anchor="middle" x="426.1255" y="-88.2" font-family="Times,serif" font-size="14.00" fill="#000000">0</text>
</g>
<!-- p0x1676fc0 -->
<g id="node5" class="node">
<title>p0x1676fc0</title>
<ellipse fill="none" stroke="#000000" cx="844.0638" cy="-139" rx="27" ry="18"/>
<text text-anchor="middle" x="844.0638" y="-134.8" font-family="Times,serif" font-size="14.00" fill="#000000">E</text>
</g>
<!-- K -->
<g id="node13" class="node">
<title>K</title>
<ellipse fill="none" stroke="#000000" cx="1007.8766" cy="-139" rx="27" ry="18"/>
<text text-anchor="middle" x="1007.8766" y="-134.8" font-family="Times,serif" font-size="14.00" fill="#000000">K</text>
</g>
<!-- p0x1676fc0&#45;&gt;K -->
<g id="edge13" class="edge">
<title>p0x1676fc0-&gt;K</title>
<path fill="none" stroke="#000000" d="M871.1142,-139C898.2649,-139 940.2989,-139 970.6008,-139"/>
<polygon fill="#000000" stroke="#000000" points="970.7861,-142.5001 980.7861,-139 970.786,-135.5001 970.7861,-142.5001"/>
</g>
<!-- p0x16770d0 -->
<g id="node6" class="node">
<title>p0x16770d0</title>
<ellipse fill="none" stroke="#000000" cx="493.6255" cy="-162" rx="27" ry="18"/>
<text text-anchor="middle" x="493.6255" y="-157.8" font-family="Times,serif" font-size="14.00" fill="#000000">D</text>
</g>
<!-- p0x1677560 -->
<g id="node7" class="node">
<title>p0x1677560</title>
<polygon fill="#7fffd4" stroke="#000000" points="651.4383,-157 595.8121,-139 651.4383,-121 707.0645,-139 651.4383,-157"/>
<text text-anchor="middle" x="651.4383" y="-134.8" font-family="Times,serif" font-size="14.00" fill="#000000">cond_1</text>
</g>
<!-- p0x16770d0&#45;&gt;p0x1677560 -->
<g id="edge2" class="edge">
<title>p0x16770d0-&gt;p0x1677560</title>
<path fill="none" stroke="#000000" d="M520.0398,-158.1503C542.5255,-154.8732 575.4194,-150.0792 602.6696,-146.1077"/>
<polygon fill="#000000" stroke="#000000" points="603.4131,-149.5364 612.8038,-144.6307 602.4035,-142.6095 603.4131,-149.5364"/>
</g>
<!-- p0x1677560&#45;&gt;p0x1676fc0 -->
<g id="edge8" class="edge">
<title>p0x1677560-&gt;p0x1676fc0</title>
<path fill="none" stroke="#000000" stroke-dasharray="5,2" d="M707.1536,-139C739.0759,-139 778.2813,-139 806.5451,-139"/>
<polygon fill="#000000" stroke="#000000" points="806.8038,-142.5001 816.8038,-139 806.8038,-135.5001 806.8038,-142.5001"/>
<text text-anchor="middle" x="747.7511" y="-143.2" font-family="Times,serif" font-size="14.00" fill="#000000">1</text>
</g>
<!-- p0x1677340 -->
<g id="node9" class="node">
<title>p0x1677340</title>
<ellipse fill="none" stroke="#000000" cx="172" cy="-133" rx="27" ry="18"/>
<text text-anchor="middle" x="172" y="-128.8" font-family="Times,serif" font-size="14.00" fill="#000000">B</text>
</g>
<!-- p0x1677560&#45;&gt;p0x1677340 -->
<g id="edge7" class="edge">
<title>p0x1677560-&gt;p0x1677340</title>
<path fill="none" stroke="#000000" stroke-dasharray="5,2" d="M601.1294,-137.1696C576.8129,-136.3595 547.2049,-135.4825 520.6255,-135 407.3561,-132.9436 273.355,-132.8251 209.4877,-132.91"/>
<polygon fill="#000000" stroke="#000000" points="209.1195,-129.4105 199.1251,-132.9265 209.1306,-136.4105 209.1195,-129.4105"/>
<text text-anchor="middle" x="426.1255" y="-137.2" font-family="Times,serif" font-size="14.00" fill="#000000">0</text>
</g>
<!-- p0x1677230 -->
<g id="node8" class="node">
<title>p0x1677230</title>
<ellipse fill="none" stroke="#000000" cx="329.8128" cy="-162" rx="27" ry="18"/>
<text text-anchor="middle" x="329.8128" y="-157.8" font-family="Times,serif" font-size="14.00" fill="#000000">C</text>
</g>
<!-- p0x1677230&#45;&gt;p0x16770d0 -->
<g id="edge3" class="edge">
<title>p0x1677230-&gt;p0x16770d0</title>
<path fill="none" stroke="#000000" d="M356.8631,-162C384.0138,-162 426.0479,-162 456.3498,-162"/>
<polygon fill="#000000" stroke="#000000" points="456.535,-165.5001 466.535,-162 456.535,-158.5001 456.535,-165.5001"/>
</g>
<!-- p0x1677340&#45;&gt;p0x1677230 -->
<g id="edge4" class="edge">
<title>p0x1677340-&gt;p0x1677230</title>
<path fill="none" stroke="#000000" d="M198.0596,-137.7888C224.1016,-142.5743 264.3569,-149.9717 293.5192,-155.3306"/>
<polygon fill="#000000" stroke="#000000" points="293.2466,-158.839 303.7145,-157.2041 294.5118,-151.9543 293.2466,-158.839"/>
</g>
<!-- p0x1677450 -->
<g id="node10" class="node">
<title>p0x1677450</title>
<ellipse fill="none" stroke="#000000" cx="43" cy="-105" rx="27" ry="18"/>
<text text-anchor="middle" x="43" y="-100.8" font-family="Times,serif" font-size="14.00" fill="#000000">A</text>
</g>
<!-- p0x1677450&#45;&gt;p0x1676e80 -->
<g id="edge6" class="edge">
<title>p0x1677450-&gt;p0x1676e80</title>
<path fill="none" stroke="#000000" d="M69.1051,-99.7385C88.3387,-95.862 114.7339,-90.542 135.9745,-86.2609"/>
<polygon fill="#000000" stroke="#000000" points="136.8224,-89.6605 145.9337,-84.2537 135.4393,-82.7985 136.8224,-89.6605"/>
</g>
<!-- p0x1677450&#45;&gt;p0x1677340 -->
<g id="edge5" class="edge">
<title>p0x1677450-&gt;p0x1677340</title>
<path fill="none" stroke="#000000" d="M68.795,-110.5989C88.1302,-114.7957 114.8289,-120.5908 136.2266,-125.2352"/>
<polygon fill="#000000" stroke="#000000" points="135.7348,-128.7099 146.2497,-127.4108 137.2197,-121.8692 135.7348,-128.7099"/>
</g>
<!-- J -->
<g id="node12" class="node">
<title>J</title>
<polygon fill="#7fffd4" stroke="#000000" points="844.0638,-52 788.4377,-34 844.0638,-16 899.69,-34 844.0638,-52"/>
<text text-anchor="middle" x="844.0638" y="-29.8" font-family="Times,serif" font-size="14.00" fill="#000000">cond_3</text>
</g>
<!-- I&#45;&gt;J -->
<g id="edge12" class="edge">
<title>I-&gt;J</title>
<path fill="none" stroke="#000000" d="M678.6283,-34C704.2857,-34 743.7758,-34 777.7392,-34"/>
<polygon fill="#000000" stroke="#000000" points="778.0807,-37.5001 788.0807,-34 778.0807,-30.5001 778.0807,-37.5001"/>
</g>
<!-- J&#45;&gt;J -->
<g id="edge14" class="edge">
<title>J-&gt;J</title>
<path fill="none" stroke="#000000" stroke-dasharray="5,2" d="M831.8284,-48.4167C827.5557,-59.166 831.6342,-70 844.0638,-70 852.415,-70 856.9964,-65.1094 857.8078,-58.6397"/>
<polygon fill="#000000" stroke="#000000" points="861.2217,-57.7986 856.2993,-48.4167 854.2967,-58.8205 861.2217,-57.7986"/>
<text text-anchor="middle" x="844.0638" y="-74.2" font-family="Times,serif" font-size="14.00" fill="#000000">0</text>
</g>
<!-- L -->
<g id="node14" class="node">
<title>L</title>
<ellipse fill="none" stroke="#000000" cx="1007.8766" cy="-34" rx="27" ry="18"/>
<text text-anchor="middle" x="1007.8766" y="-29.8" font-family="Times,serif" font-size="14.00" fill="#000000">L</text>
</g>
<!-- J&#45;&gt;L -->
<g id="edge15" class="edge">
<title>J-&gt;L</title>
<path fill="none" stroke="#000000" stroke-dasharray="5,2" d="M899.9807,-34C923.292,-34 949.7367,-34 970.6113,-34"/>
<polygon fill="#000000" stroke="#000000" points="970.6726,-37.5001 980.6726,-34 970.6725,-30.5001 970.6726,-37.5001"/>
<text text-anchor="middle" x="940.3766" y="-38.2" font-family="Times,serif" font-size="14.00" fill="#000000">1</text>
</g>
<!-- M -->
<g id="node15" class="node">
<title>M</title>
<ellipse fill="none" stroke="#000000" cx="1136.8766" cy="-34" rx="27" ry="18"/>
<text text-anchor="middle" x="1136.8766" y="-29.8" font-family="Times,serif" font-size="14.00" fill="#000000">M</text>
</g>
<!-- L&#45;&gt;M -->
<g id="edge16" class="edge">
<title>L-&gt;M</title>
<path fill="none" stroke="#000000" d="M1034.9192,-34C1053.7536,-34 1079.109,-34 1099.8224,-34"/>
<polygon fill="#000000" stroke="#000000" points="1099.8696,-37.5001 1109.8696,-34 1099.8696,-30.5001 1099.8696,-37.5001"/>
</g>
</g>
</svg>