<?xml version="1.0" encoding="UTF-8" standalone="no"?><!DOCTYPE svg PUBLIC "-//W3C//DTD SVG 1.1//EN" "http://www.w3.org/Graphics/SVG/1.1/DTD/svg11.dtd"><!-- Generated by graphviz version 2.40.1 (20161225.0304)
 --><!-- Title: Topology Pages: 1 --><svg xmlns="http://www.w3.org/2000/svg" xmlns:xlink="http://www.w3.org/1999/xlink" width="684pt" height="162pt" viewBox="0.00 0.00 684.00 162.00">
<g id="graph0" class="graph" transform="scale(1 1) rotate(0) translate(4 158)">
<title>Topology</title>
<polygon fill="#ffffff" stroke="transparent" points="-4,4 -4,-158 680,-158 680,4 -4,4"/>
<g id="clust1" class="cluster">
<title>cluster_B</title>
<polygon fill="none" stroke="#0000ff" points="8,-69 8,-146 336,-146 336,-69 8,-69"/>
<text text-anchor="middle" x="172" y="-129.4" font-family="Times,serif" font-size="14.00" fill="#000000">Subflow_B</text>
</g>
<!-- D -->
<g id="node1" class="node">
<title>D</title>
<ellipse fill="none" stroke="#000000" cx="389.5" cy="-41" rx="25.5" ry="18"/>
<text text-anchor="middle" x="389.5" y="-36.8" font-family="Times,serif" font-size="14.00" fill="#000000">D</text>
</g>
<!-- X -->
<g id="node9" class="node">
<title>X</title>
<ellipse fill="none" stroke="#000000" cx="476.5" cy="-49" rx="25.5" ry="18"/>
<text text-anchor="middle" x="476.5" y="-44.8" font-family="Times,serif" font-size="14.00" fill="#000000">X</text>
</g>
<!-- D&#45;&gt;X -->
<g id="edge9" class="edge">
<title>D-&gt;X</title>
<path fill="none" stroke="#000000" d="M415.1323,-43.357C423.1856,-44.0975 432.2279,-44.929 440.8453,-45.7214"/>
<polygon fill="#000000" stroke="#000000" points="440.7724,-49.2294 451.0509,-46.6599 441.4134,-42.2588 440.7724,-49.2294"/>
</g>
<!-- C -->
<g id="node2" class="node">
<title>C</title>
<ellipse fill="none" stroke="#000000" cx="215.5" cy="-41" rx="25.5" ry="18"/>
<text text-anchor="middle" x="215.5" y="-36.8" font-family="Times,serif" font-size="14.00" fill="#000000">C</text>
</g>
<!-- B -->
<g id="node3" class="node">
<title>B</title>
<ellipse fill="none" stroke="#000000" cx="302.5" cy="-95" rx="25.5" ry="18"/>
<text text-anchor="middle" x="302.5" y="-90.8" font-family="Times,serif" font-size="14.00" fill="#000000">B</text>
</g>
<!-- C&#45;&gt;B -->
<g id="edge1" class="edge">
<title>C-&gt;B</title>
<path fill="none" stroke="#000000" d="M234.8081,-52.9844C246.5222,-60.2552 261.6682,-69.6562 274.6623,-77.7215"/>
<polygon fill="#000000" stroke="#000000" points="272.9037,-80.7492 283.2459,-83.0492 276.5952,-74.8017 272.9037,-80.7492"/>
</g>
<!-- B&#45;&gt;D -->
<g id="edge2" class="edge">
<title>B-&gt;D</title>
<path fill="none" stroke="#000000" d="M321.8081,-83.0156C333.5222,-75.7448 348.6682,-66.3438 361.6623,-58.2785"/>
<polygon fill="#000000" stroke="#000000" points="363.5952,-61.1983 370.2459,-52.9508 359.9037,-55.2508 363.5952,-61.1983"/>
</g>
<!-- E -->
<g id="node8" class="node">
<title>E</title>
<ellipse fill="none" stroke="#000000" cx="389.5" cy="-95" rx="25.5" ry="18"/>
<text text-anchor="middle" x="389.5" y="-90.8" font-family="Times,serif" font-size="14.00" fill="#000000">E</text>
</g>
<!-- B&#45;&gt;E -->
<g id="edge8" class="edge">
<title>B-&gt;E</title>
<path fill="none" stroke="#000000" d="M328.1323,-95C336.1144,-95 345.0679,-95 353.6164,-95"/>
<polygon fill="#000000" stroke="#000000" points="353.7503,-98.5001 363.7503,-95 353.7502,-91.5001 353.7503,-98.5001"/>
</g>
<!-- B3 -->
<g id="node4" class="node">
<title>B3</title>
<ellipse fill="none" stroke="#000000" cx="215.5" cy="-95" rx="25.5" ry="18"/>
<text text-anchor="middle" x="215.5" y="-90.8" font-family="Times,serif" font-size="14.00" fill="#000000">B3</text>
</g>
<!-- B3&#45;&gt;B -->
<g id="edge3" class="edge">
<title>B3-&gt;B</title>
<path fill="none" stroke="#000000" d="M241.1323,-95C249.1144,-95 258.0679,-95 266.6164,-95"/>
<polygon fill="#000000" stroke="#000000" points="266.7503,-98.5001 276.7503,-95 266.7502,-91.5001 266.7503,-98.5001"/>
</g>
<!-- B2 -->
<g id="node5" class="node">
<title>B2</title>
<ellipse fill="none" stroke="#000000" cx="128.5" cy="-95" rx="25.5" ry="18"/>
<text text-anchor="middle" x="128.5" y="-90.8" font-family="Times,serif" font-size="14.00" fill="#000000">B2</text>
</g>
<!-- B2&#45;&gt;B3 -->
<g id="edge4" class="edge">
<title>B2-&gt;B3</title>
<path fill="none" stroke="#000000" d="M154.1323,-95C162.1144,-95 171.0679,-95 179.6164,-95"/>
<polygon fill="#000000" stroke="#000000" points="179.7503,-98.5001 189.7503,-95 179.7502,-91.5001 179.7503,-98.5001"/>
</g>
<!-- B1 -->
<g id="node6" class="node">
<title>B1</title>
<ellipse fill="none" stroke="#000000" cx="41.5" cy="-95" rx="25.5" ry="18"/>
<text text-anchor="middle" x="41.5" y="-90.8" font-family="Times,serif" font-size="14.00" fill="#000000">B1</text>
</g>
<!-- B1&#45;&gt;B2 -->
<g id="edge5" class="edge">
<title>B1-&gt;B2</title>
<path fill="none" stroke="#000000" d="M67.1323,-95C75.1144,-95 84.0679,-95 92.6164,-95"/>
<polygon fill="#000000" stroke="#000000" points="92.7503,-98.5001 102.7503,-95 92.7502,-91.5001 92.7503,-98.5001"/>
</g>
<!-- A -->
<g id="node7" class="node">
<title>A</title>
<ellipse fill="none" stroke="#000000" cx="128.5" cy="-18" rx="25.5" ry="18"/>
<text text-anchor="middle" x="128.5" y="-13.8" font-family="Times,serif" font-size="14.00" fill="#000000">A</text>
</g>
<!-- A&#45;&gt;D -->
<g id="edge7" class="edge">
<title>A-&gt;D</title>
<path fill="none" stroke="#000000" d="M153.9154,-15.975C164.9909,-15.1888 178.1297,-14.3856 190,-14 212.6547,-13.264 218.4249,-11.9644 241,-14 280.5706,-17.5681 325.3604,-26.381 355.3058,-32.9743"/>
<polygon fill="#000000" stroke="#000000" points="354.7226,-36.4303 365.2459,-35.2016 356.2532,-29.5997 354.7226,-36.4303"/>
</g>
<!-- A&#45;&gt;C -->
<g id="edge6" class="edge">
<title>A-&gt;C</title>
<path fill="none" stroke="#000000" d="M152.7344,-24.4068C161.6902,-26.7744 172.0114,-29.503 181.6639,-32.0548"/>
<polygon fill="#000000" stroke="#000000" points="180.8332,-35.4554 191.3956,-34.6276 182.6223,-28.6879 180.8332,-35.4554"/>
</g>
<!-- E&#45;&gt;X -->
<g id="edge10" class="edge">
<title>E-&gt;X</title>
<path fill="none" stroke="#000000" d="M410.1178,-84.0986C421.1692,-78.2553 434.9753,-70.9556 447.1302,-64.5289"/>
<polygon fill="#000000" stroke="#000000" points="448.8258,-67.5915 456.0302,-59.8231 445.5539,-61.4032 448.8258,-67.5915"/>
</g>
<!-- Z -->
<g id="node11" class="node">
<title>Z</title>
<ellipse fill="none" stroke="#000000" cx="650.5" cy="-72" rx="25.5" ry="18"/>
<text text-anchor="middle" x="650.5" y="-67.8" font-family="Times,serif" font-size="14.00" fill="#000000">Z</text>
</g>
<!-- E&#45;&gt;Z -->
<g id="edge13" class="edge">
<title>E-&gt;Z</title>
<path fill="none" stroke="#000000" d="M415.001,-92.7528C461.7796,-88.6305 561.398,-79.8519 614.85,-75.1416"/>
<polygon fill="#000000" stroke="#000000" points="615.2414,-78.6207 624.8955,-74.2563 614.6268,-71.6478 615.2414,-78.6207"/>
</g>
<!-- Y -->
<g id="node10" class="node">
<title>Y</title>
<ellipse fill="none" stroke="#000000" cx="563.5" cy="-49" rx="25.5" ry="18"/>
<text text-anchor="middle" x="563.5" y="-44.8" font-family="Times,serif" font-size="14.00" fill="#000000">Y</text>
</g>
<!-- X&#45;&gt;Y -->
<g id="edge11" class="edge">
<title>X-&gt;Y</title>
<path fill="none" stroke="#000000" d="M502.1323,-49C510.1144,-49 519.0679,-49 527.6164,-49"/>
<polygon fill="#000000" stroke="#000000" points="527.7503,-52.5001 537.7503,-49 527.7502,-45.5001 527.7503,-52.5001"/>
</g>
<!-- Y&#45;&gt;Z -->
<g id="edge12" class="edge">
<title>Y-&gt;Z</title>
<path fill="none" stroke="#000000" d="M587.7344,-55.4068C596.6902,-57.7744 607.0114,-60.503 616.6639,-63.0548"/>
<polygon fill="#000000" stroke="#000000" points="615.8332,-66.4554 626.3956,-65.6276 617.6223,-59.6879 615.8332,-66.4554"/>
</g>
</g>
</svg>