<svg data-v-423bf9ae="" xmlns="http://www.w3.org/2000/svg" viewBox="0 0 56.92289030628481 60" class="icon"><!----><!----><!----><!----><g data-v-423bf9ae="" id="fe4f336d-df27-430d-b19a-268de85848a8" transform="matrix(0.6542861528516323,0,0,0.6542861528516323,-4.90649127009879,-3.3682640064598672)" stroke="none" fill="white"><path clip-rule="evenodd" d="M82.743 28.662c-5.281 0-9.699-3.506-11.181-8.302l-4.053.9-1.102-4.573 4.707-1.045C71.75 9.751 76.68 5.148 82.742 5.148c6.494 0 11.757 5.264 11.757 11.757s-5.262 11.757-11.756 11.757zm0-18.81a7.054 7.054 0 1 0 0 14.109 7.054 7.054 0 0 0 0-14.109zm4.703 65.837c0 11.688-9.475 21.162-21.162 21.162-11.688 0-21.163-9.475-21.163-21.162a21.09 21.09 0 0 1 6.147-14.907l-6.562-7.344 3.45-3.196 6.789 7.599a21.046 21.046 0 0 1 11.339-3.313c11.688-.001 21.162 9.473 21.162 21.161zm-21.162-16.46c-9.091 0-16.46 7.369-16.46 16.46s7.369 16.459 16.46 16.459 16.459-7.368 16.459-16.459-7.368-16.46-16.459-16.46zM51.941 19.902l9.876-2.194 1.103 4.573-9.876 2.193-1.103-4.572zm-11.522 8.76c0 3.549-1.148 6.814-3.059 9.503l7.661 8.572-3.45 3.198-7.491-8.382c-2.799 2.202-6.285 3.569-10.122 3.569-9.091 0-16.459-7.369-16.459-16.459s7.369-16.459 16.459-16.459c6.987 0 12.921 4.371 15.309 10.515l8.082-1.796 1.102 4.573-8.17 1.815c.039.452.138.887.138 1.351zm-16.46-11.791c-6.512 0-11.792 5.279-11.792 11.791s5.28 11.792 11.792 11.792 11.792-5.28 11.792-11.792-5.279-11.791-11.792-11.791z"></path></g><!----></svg>