<?xml version="1.0" encoding="UTF-8" standalone="no"?>
<!DOCTYPE svg PUBLIC "-//W3C//DTD SVG 1.1//EN"
 "http://www.w3.org/Graphics/SVG/1.1/DTD/svg11.dtd">
<!-- Generated by graphviz version 2.43.0 (0)
 -->
<!-- Title: tf::DynamicPartitioner&lt; C &gt; Pages: 1 -->
<svg width="277pt" height="201pt"
 viewBox="0.00 0.00 277.00 201.00" xmlns="http://www.w3.org/2000/svg" xmlns:xlink="http://www.w3.org/1999/xlink">
<g id="graph0" class="graph" transform="scale(1 1) rotate(0) translate(4 197)">
<title>tf::DynamicPartitioner&lt; C &gt;</title>
<!-- Node1 -->
<g id="Node000001" class="node">
<title>Node1</title>
<g id="a_Node000001"><a xlink:title="class to create a dynamic partitioner for scheduling parallel algorithms">
<polygon fill="#999999" stroke="#666666" points="242,-26 0,-26 0,0 242,0 242,-26"/>
<text text-anchor="middle" x="121" y="-9.2" font-family="SourceSansPro" font-size="16.00">tf::DynamicPartitioner&lt; C &gt;</text>
</a>
</g>
</g>
<!-- Node2 -->
<g id="Node000002" class="node">
<title>Node2</title>
<g id="a_Node000002"><a xlink:href="classtf_1_1PartitionerBase.html" target="_top" xlink:title=" ">
<polygon fill="white" stroke="#666666" points="242,-107 0,-107 0,-63 242,-63 242,-107"/>
<text text-anchor="start" x="8" y="-90.2" font-family="SourceSansPro" font-size="16.00">tf::PartitionerBase</text>
<text text-anchor="middle" x="121" y="-72.2" font-family="SourceSansPro" font-size="16.00">&lt; DefaultClosureWrapper &gt;</text>
</a>
</g>
</g>
<!-- Node2&#45;&gt;Node1 -->
<g id="edge1_Node000001_Node000002" class="edge">
<title>Node2&#45;&gt;Node1</title>
<g id="a_edge1_Node000001_Node000002"><a xlink:title=" ">
<path fill="none" stroke="#63b8ff" d="M121,-52.94C121,-43.41 121,-33.48 121,-26.03"/>
<polygon fill="#63b8ff" stroke="#63b8ff" points="117.5,-53 121,-63 124.5,-53 117.5,-53"/>
</a>
</g>
</g>
<!-- Node3 -->
<g id="Node000003" class="node">
<title>Node3</title>
<g id="a_Node000003"><a xlink:href="classtf_1_1DefaultClosureWrapper.html" target="_top" xlink:title="class to create a default closure wrapper">
<polygon fill="white" stroke="#666666" points="234,-193 8,-193 8,-167 234,-167 234,-193"/>
<text text-anchor="middle" x="121" y="-176.2" font-family="SourceSansPro" font-size="16.00">tf::DefaultClosureWrapper</text>
</a>
</g>
</g>
<!-- Node3&#45;&gt;Node2 -->
<g id="edge2_Node000002_Node000003" class="edge">
<title>Node3&#45;&gt;Node2</title>
<g id="a_edge2_Node000002_Node000003"><a xlink:title=" ">
<path fill="none" stroke="#9a32cd" stroke-dasharray="5,2" d="M121,-156.84C121,-141.75 121,-121.9 121,-107.05"/>
<polygon fill="#9a32cd" stroke="#9a32cd" points="117.5,-156.84 121,-166.84 124.5,-156.84 117.5,-156.84"/>
</a>
</g>
<text text-anchor="start" x="124" y="-133.2" font-family="SourceSansPro" font-size="16.00" fill="grey">_closure_wrapper</text>
</g>
</g>
</svg>
