<?xml version="1.0" encoding="UTF-8" standalone="no"?>
<!DOCTYPE svg PUBLIC "-//W3C//DTD SVG 1.1//EN"
 "http://www.w3.org/Graphics/SVG/1.1/DTD/svg11.dtd">
<!-- Generated by graphviz version 2.43.0 (0)
 -->
<!-- Title: tf::SmallVector&lt; T, N &gt; Pages: 1 -->
<svg width="288pt" height="318pt"
 viewBox="0.00 0.00 288.00 318.00" xmlns="http://www.w3.org/2000/svg" xmlns:xlink="http://www.w3.org/1999/xlink">
<g id="graph0" class="graph" transform="scale(1 1) rotate(0) translate(4 314)">
<title>tf::SmallVector&lt; T, N &gt;</title>
<!-- Node1 -->
<g id="Node000001" class="node">
<title>Node1</title>
<g id="a_Node000001"><a xlink:title="class to define a vector optimized for small array">
<polygon fill="#999999" stroke="#666666" points="242,-26 38,-26 38,0 242,0 242,-26"/>
<text text-anchor="middle" x="140" y="-9.2" font-family="SourceSansPro" font-size="16.00">tf::SmallVector&lt; T, N &gt;</text>
</a>
</g>
</g>
<!-- Node2 -->
<g id="Node000002" class="node">
<title>Node2</title>
<g id="a_Node000002"><a xlink:title=" ">
<polygon fill="white" stroke="#bfbfbf" points="248.5,-88 31.5,-88 31.5,-62 248.5,-62 248.5,-88"/>
<text text-anchor="middle" x="140" y="-71.2" font-family="SourceSansPro" font-size="16.00">tf::SmallVectorImpl&lt; T &gt;</text>
</a>
</g>
</g>
<!-- Node2&#45;&gt;Node1 -->
<g id="edge1_Node000001_Node000002" class="edge">
<title>Node2&#45;&gt;Node1</title>
<g id="a_edge1_Node000001_Node000002"><a xlink:title=" ">
<path fill="none" stroke="#63b8ff" d="M140,-51.63C140,-42.99 140,-33.44 140,-26.12"/>
<polygon fill="#63b8ff" stroke="#63b8ff" points="136.5,-51.86 140,-61.86 143.5,-51.86 136.5,-51.86"/>
</a>
</g>
</g>
<!-- Node3 -->
<g id="Node000003" class="node">
<title>Node3</title>
<g id="a_Node000003"><a xlink:title=" ">
<polygon fill="white" stroke="#bfbfbf" points="263,-168 17,-168 17,-124 263,-124 263,-168"/>
<text text-anchor="start" x="25" y="-151.2" font-family="SourceSansPro" font-size="16.00">tf::SmallVectorTemplateBase</text>
<text text-anchor="middle" x="140" y="-133.2" font-family="SourceSansPro" font-size="16.00">&lt; T, isPodLike &gt;</text>
</a>
</g>
</g>
<!-- Node3&#45;&gt;Node2 -->
<g id="edge2_Node000002_Node000003" class="edge">
<title>Node3&#45;&gt;Node2</title>
<g id="a_edge2_Node000002_Node000003"><a xlink:title=" ">
<path fill="none" stroke="#63b8ff" d="M140,-113.89C140,-104.76 140,-95.31 140,-88.13"/>
<polygon fill="#63b8ff" stroke="#63b8ff" points="136.5,-113.92 140,-123.92 143.5,-113.92 136.5,-113.92"/>
</a>
</g>
</g>
<!-- Node4 -->
<g id="Node000004" class="node">
<title>Node4</title>
<g id="a_Node000004"><a xlink:title=" ">
<polygon fill="white" stroke="#bfbfbf" points="280,-248 0,-248 0,-204 280,-204 280,-248"/>
<text text-anchor="start" x="8" y="-231.2" font-family="SourceSansPro" font-size="16.00">tf::SmallVectorTemplateCommon</text>
<text text-anchor="middle" x="140" y="-213.2" font-family="SourceSansPro" font-size="16.00">&lt; T, typename &gt;</text>
</a>
</g>
</g>
<!-- Node4&#45;&gt;Node3 -->
<g id="edge3_Node000003_Node000004" class="edge">
<title>Node4&#45;&gt;Node3</title>
<g id="a_edge3_Node000003_Node000004"><a xlink:title=" ">
<path fill="none" stroke="#63b8ff" d="M140,-193.57C140,-184.98 140,-175.88 140,-168.02"/>
<polygon fill="#63b8ff" stroke="#63b8ff" points="136.5,-193.69 140,-203.69 143.5,-193.69 136.5,-193.69"/>
</a>
</g>
</g>
<!-- Node5 -->
<g id="Node000005" class="node">
<title>Node5</title>
<g id="a_Node000005"><a xlink:title=" ">
<polygon fill="white" stroke="#bfbfbf" points="226.5,-310 53.5,-310 53.5,-284 226.5,-284 226.5,-310"/>
<text text-anchor="middle" x="140" y="-293.2" font-family="SourceSansPro" font-size="16.00">tf::SmallVectorBase</text>
</a>
</g>
</g>
<!-- Node5&#45;&gt;Node4 -->
<g id="edge4_Node000004_Node000005" class="edge">
<title>Node5&#45;&gt;Node4</title>
<g id="a_edge4_Node000004_Node000005"><a xlink:title=" ">
<path fill="none" stroke="#63b8ff" d="M140,-273.92C140,-265.65 140,-256.26 140,-248.08"/>
<polygon fill="#63b8ff" stroke="#63b8ff" points="136.5,-273.98 140,-283.98 143.5,-273.98 136.5,-273.98"/>
</a>
</g>
</g>
</g>
</svg>
