<?xml version="1.0" encoding="UTF-8" standalone="no"?>
<!DOCTYPE svg PUBLIC "-//W3C//DTD SVG 1.1//EN"
 "http://www.w3.org/Graphics/SVG/1.1/DTD/svg11.dtd">
<!-- Generated by graphviz version 2.43.0 (0)
 -->
<!-- Title: tf::FlowBuilder Pages: 1 -->
<svg width="232pt" height="96pt"
 viewBox="0.00 0.00 232.00 96.00" xmlns="http://www.w3.org/2000/svg" xmlns:xlink="http://www.w3.org/1999/xlink">
<g id="graph0" class="graph" transform="scale(1 1) rotate(0) translate(4 92)">
<title>tf::FlowBuilder</title>
<!-- Node1 -->
<g id="Node000001" class="node">
<title>Node1</title>
<g id="a_Node000001"><a xlink:title="class to build a task dependency graph">
<polygon fill="#999999" stroke="#666666" points="177,-88 45,-88 45,-62 177,-62 177,-88"/>
<text text-anchor="middle" x="111" y="-71.2" font-family="SourceSansPro" font-size="16.00">tf::FlowBuilder</text>
</a>
</g>
</g>
<!-- Node2 -->
<g id="Node000002" class="node">
<title>Node2</title>
<g id="a_Node000002"><a xlink:href="classtf_1_1Subflow.html" target="_top" xlink:title="class to construct a subflow graph from the execution of a dynamic task">
<polygon fill="white" stroke="#666666" points="102,-26 0,-26 0,0 102,0 102,-26"/>
<text text-anchor="middle" x="51" y="-9.2" font-family="SourceSansPro" font-size="16.00">tf::Subflow</text>
</a>
</g>
</g>
<!-- Node1&#45;&gt;Node2 -->
<g id="edge1_Node000001_Node000002" class="edge">
<title>Node1&#45;&gt;Node2</title>
<g id="a_edge1_Node000001_Node000002"><a xlink:title=" ">
<path fill="none" stroke="#63b8ff" d="M91.75,-54.75C82.35,-45.35 71.33,-34.33 63.12,-26.12"/>
<polygon fill="#63b8ff" stroke="#63b8ff" points="89.31,-57.26 98.86,-61.86 94.26,-52.31 89.31,-57.26"/>
</a>
</g>
</g>
<!-- Node3 -->
<g id="Node000003" class="node">
<title>Node3</title>
<g id="a_Node000003"><a xlink:href="classtf_1_1Taskflow.html" target="_top" xlink:title="class to create a taskflow object">
<polygon fill="white" stroke="#666666" points="224,-26 120,-26 120,0 224,0 224,-26"/>
<text text-anchor="middle" x="172" y="-9.2" font-family="SourceSansPro" font-size="16.00">tf::Taskflow</text>
</a>
</g>
</g>
<!-- Node1&#45;&gt;Node3 -->
<g id="edge2_Node000001_Node000003" class="edge">
<title>Node1&#45;&gt;Node3</title>
<g id="a_edge2_Node000001_Node000003"><a xlink:title=" ">
<path fill="none" stroke="#63b8ff" d="M130.57,-54.75C140.12,-45.35 151.33,-34.33 159.67,-26.12"/>
<polygon fill="#63b8ff" stroke="#63b8ff" points="128.02,-52.35 123.34,-61.86 132.93,-57.34 128.02,-52.35"/>
</a>
</g>
</g>
</g>
</svg>
