<?xml version="1.0" encoding="UTF-8" standalone="no"?>
<!DOCTYPE svg PUBLIC "-//W3C//DTD SVG 1.1//EN"
 "http://www.w3.org/Graphics/SVG/1.1/DTD/svg11.dtd">
<!-- Generated by graphviz version 12.2.1 (20241206.2353)
 -->
<!-- Title: tf::Subflow Pages: 1 -->
<svg width="126pt" height="177pt"
 viewBox="0.00 0.00 126.00 177.00" xmlns="http://www.w3.org/2000/svg" xmlns:xlink="http://www.w3.org/1999/xlink">
<g id="graph0" class="graph" transform="scale(1 1) rotate(0) translate(4 173)">
<title>tf::Subflow</title>
<!-- Node1 -->
<g id="Node000001" class="node">
<title>Node1</title>
<g id="a_Node000001"><a xlink:title="class to construct a subflow graph from the execution of a dynamic task">
<polygon fill="#999999" stroke="#666666" points="104.5,-24.5 13.5,-24.5 13.5,0 104.5,0 104.5,-24.5"/>
<text text-anchor="middle" x="59" y="-5.3" font-family="SourceSansPro" font-size="16.00">tf::Subflow</text>
</a>
</g>
</g>
<!-- Node2 -->
<g id="Node000002" class="node">
<title>Node2</title>
<g id="a_Node000002"><a xlink:href="classtf_1_1FlowBuilder.html" target="_top" xlink:title="class to build a task dependency graph">
<polygon fill="white" stroke="#666666" points="118,-86 0,-86 0,-61.5 118,-61.5 118,-86"/>
<text text-anchor="middle" x="59" y="-66.8" font-family="SourceSansPro" font-size="16.00">tf::FlowBuilder</text>
</a>
</g>
</g>
<!-- Node2&#45;&gt;Node1 -->
<g id="edge1_Node000001_Node000002" class="edge">
<title>Node2&#45;&gt;Node1</title>
<g id="a_edge1_Node000001_Node000002"><a xlink:title=" ">
<path fill="none" stroke="#63b8ff" d="M59,-49.94C59,-41.31 59,-31.84 59,-24.69"/>
<polygon fill="#63b8ff" stroke="#63b8ff" points="55.5,-49.76 59,-59.76 62.5,-49.76 55.5,-49.76"/>
</a>
</g>
</g>
<!-- Node3 -->
<g id="Node000003" class="node">
<title>Node3</title>
<g id="a_Node000003"><a xlink:href="classtf_1_1Graph.html" target="_top" xlink:title="class to create a graph object">
<polygon fill="white" stroke="#666666" points="98.5,-169 19.5,-169 19.5,-144.5 98.5,-144.5 98.5,-169"/>
<text text-anchor="middle" x="59" y="-149.8" font-family="SourceSansPro" font-size="16.00">tf::Graph</text>
</a>
</g>
</g>
<!-- Node3&#45;&gt;Node2 -->
<g id="edge2_Node000002_Node000003" class="edge">
<title>Node3&#45;&gt;Node2</title>
<g id="a_edge2_Node000002_Node000003"><a xlink:title=" ">
<path fill="none" stroke="#9a32cd" stroke-dasharray="5,2" d="M59,-133.07C59,-117.86 59,-98.48 59,-86.33"/>
<polygon fill="#9a32cd" stroke="#9a32cd" points="55.5,-132.63 59,-142.63 62.5,-132.63 55.5,-132.63"/>
</a>
</g>
<text text-anchor="start" x="62" y="-108.3" font-family="SourceSansPro" font-size="16.00" fill="grey">_graph</text>
</g>
</g>
</svg>
