<?xml version="1.0" encoding="UTF-8" standalone="no"?>
<!DOCTYPE svg PUBLIC "-//W3C//DTD SVG 1.1//EN"
 "http://www.w3.org/Graphics/SVG/1.1/DTD/svg11.dtd">
<!-- Generated by graphviz version 12.2.1 (20241206.2353)
 -->
<!-- Title: tf::SmallVector&lt; T, N &gt; Pages: 1 -->
<svg width="260pt" height="308pt"
 viewBox="0.00 0.00 259.50 307.50" xmlns="http://www.w3.org/2000/svg" xmlns:xlink="http://www.w3.org/1999/xlink">
<g id="graph0" class="graph" transform="scale(1 1) rotate(0) translate(4 303.5)">
<title>tf::SmallVector&lt; T, N &gt;</title>
<!-- Node1 -->
<g id="Node000001" class="node">
<title>Node1</title>
<g id="a_Node000001"><a xlink:title="class to define a vector optimized for small array">
<polygon fill="#999999" stroke="#666666" points="213.62,-24.5 37.88,-24.5 37.88,0 213.62,0 213.62,-24.5"/>
<text text-anchor="middle" x="125.75" y="-5.3" font-family="SourceSansPro" font-size="16.00">tf::SmallVector&lt; T, N &gt;</text>
</a>
</g>
</g>
<!-- Node2 -->
<g id="Node000002" class="node">
<title>Node2</title>
<g id="a_Node000002"><a xlink:title=" ">
<polygon fill="white" stroke="#bfbfbf" points="219.62,-85 31.88,-85 31.88,-60.5 219.62,-60.5 219.62,-85"/>
<text text-anchor="middle" x="125.75" y="-65.8" font-family="SourceSansPro" font-size="16.00">tf::SmallVectorImpl&lt; T &gt;</text>
</a>
</g>
</g>
<!-- Node2&#45;&gt;Node1 -->
<g id="edge1_Node000001_Node000002" class="edge">
<title>Node2&#45;&gt;Node1</title>
<g id="a_edge1_Node000001_Node000002"><a xlink:title=" ">
<path fill="none" stroke="#63b8ff" d="M125.75,-48.92C125.75,-40.66 125.75,-31.67 125.75,-24.78"/>
<polygon fill="#63b8ff" stroke="#63b8ff" points="122.25,-48.68 125.75,-58.68 129.25,-48.68 122.25,-48.68"/>
</a>
</g>
</g>
<!-- Node3 -->
<g id="Node000003" class="node">
<title>Node3</title>
<g id="a_Node000003"><a xlink:title=" ">
<polygon fill="white" stroke="#bfbfbf" points="237.25,-162 14.25,-162 14.25,-121 237.25,-121 237.25,-162"/>
<text text-anchor="start" x="22.25" y="-142.8" font-family="SourceSansPro" font-size="16.00">tf::SmallVectorTemplateBase</text>
<text text-anchor="middle" x="125.75" y="-126.3" font-family="SourceSansPro" font-size="16.00">&lt; T, isPodLike &gt;</text>
</a>
</g>
</g>
<!-- Node3&#45;&gt;Node2 -->
<g id="edge2_Node000002_Node000003" class="edge">
<title>Node3&#45;&gt;Node2</title>
<g id="a_edge2_Node000002_Node000003"><a xlink:title=" ">
<path fill="none" stroke="#63b8ff" d="M125.75,-109.46C125.75,-100.86 125.75,-92.06 125.75,-85.35"/>
<polygon fill="#63b8ff" stroke="#63b8ff" points="122.25,-109.32 125.75,-119.32 129.25,-109.32 122.25,-109.32"/>
</a>
</g>
</g>
<!-- Node4 -->
<g id="Node000004" class="node">
<title>Node4</title>
<g id="a_Node000004"><a xlink:title=" ">
<polygon fill="white" stroke="#bfbfbf" points="251.5,-239 0,-239 0,-198 251.5,-198 251.5,-239"/>
<text text-anchor="start" x="8" y="-219.8" font-family="SourceSansPro" font-size="16.00">tf::SmallVectorTemplateCommon</text>
<text text-anchor="middle" x="125.75" y="-203.3" font-family="SourceSansPro" font-size="16.00">&lt; T, typename &gt;</text>
</a>
</g>
</g>
<!-- Node4&#45;&gt;Node3 -->
<g id="edge3_Node000003_Node000004" class="edge">
<title>Node4&#45;&gt;Node3</title>
<g id="a_edge3_Node000003_Node000004"><a xlink:title=" ">
<path fill="none" stroke="#63b8ff" d="M125.75,-186.36C125.75,-178.24 125.75,-169.7 125.75,-162.33"/>
<polygon fill="#63b8ff" stroke="#63b8ff" points="122.25,-186.28 125.75,-196.28 129.25,-186.28 122.25,-186.28"/>
</a>
</g>
</g>
<!-- Node5 -->
<g id="Node000005" class="node">
<title>Node5</title>
<g id="a_Node000005"><a xlink:title=" ">
<polygon fill="white" stroke="#bfbfbf" points="204.25,-299.5 47.25,-299.5 47.25,-275 204.25,-275 204.25,-299.5"/>
<text text-anchor="middle" x="125.75" y="-280.3" font-family="SourceSansPro" font-size="16.00">tf::SmallVectorBase</text>
</a>
</g>
</g>
<!-- Node5&#45;&gt;Node4 -->
<g id="edge4_Node000004_Node000005" class="edge">
<title>Node5&#45;&gt;Node4</title>
<g id="a_edge4_Node000004_Node000005"><a xlink:title=" ">
<path fill="none" stroke="#63b8ff" d="M125.75,-263.35C125.75,-255.55 125.75,-246.9 125.75,-239.36"/>
<polygon fill="#63b8ff" stroke="#63b8ff" points="122.25,-263.11 125.75,-273.11 129.25,-263.11 122.25,-263.11"/>
</a>
</g>
</g>
</g>
</svg>
