<?xml version="1.0" encoding="UTF-8" standalone="no"?>
<!DOCTYPE svg PUBLIC "-//W3C//DTD SVG 1.1//EN"
 "http://www.w3.org/Graphics/SVG/1.1/DTD/svg11.dtd">
<!-- Generated by graphviz version 12.2.1 (20241206.2353)
 -->
<!-- Title: tf::FlowBuilder Pages: 1 -->
<svg width="214pt" height="93pt"
 viewBox="0.00 0.00 213.62 93.00" xmlns="http://www.w3.org/2000/svg" xmlns:xlink="http://www.w3.org/1999/xlink">
<g id="graph0" class="graph" transform="scale(1 1) rotate(0) translate(4 89)">
<title>tf::FlowBuilder</title>
<!-- Node1 -->
<g id="Node000001" class="node">
<title>Node1</title>
<g id="a_Node000001"><a xlink:title="class to build a task dependency graph">
<polygon fill="#999999" stroke="#666666" points="160.5,-85 42.5,-85 42.5,-60.5 160.5,-60.5 160.5,-85"/>
<text text-anchor="middle" x="101.5" y="-65.8" font-family="SourceSansPro" font-size="16.00">tf::FlowBuilder</text>
</a>
</g>
</g>
<!-- Node2 -->
<g id="Node000002" class="node">
<title>Node2</title>
<g id="a_Node000002"><a xlink:href="classtf_1_1Subflow.html" target="_top" xlink:title="class to construct a subflow graph from the execution of a dynamic task">
<polygon fill="white" stroke="#666666" points="91,-24.5 0,-24.5 0,0 91,0 91,-24.5"/>
<text text-anchor="middle" x="45.5" y="-5.3" font-family="SourceSansPro" font-size="16.00">tf::Subflow</text>
</a>
</g>
</g>
<!-- Node1&#45;&gt;Node2 -->
<g id="edge1_Node000001_Node000002" class="edge">
<title>Node1&#45;&gt;Node2</title>
<g id="a_edge1_Node000001_Node000002"><a xlink:title=" ">
<path fill="none" stroke="#63b8ff" d="M82.65,-52.05C73.97,-42.99 63.98,-32.55 56.54,-24.78"/>
<polygon fill="#63b8ff" stroke="#63b8ff" points="79.95,-54.3 89.39,-59.1 85,-49.45 79.95,-54.3"/>
</a>
</g>
</g>
<!-- Node3 -->
<g id="Node000003" class="node">
<title>Node3</title>
<g id="a_Node000003"><a xlink:href="classtf_1_1Taskflow.html" target="_top" xlink:title="class to create a taskflow object">
<polygon fill="white" stroke="#666666" points="205.62,-24.5 109.38,-24.5 109.38,0 205.62,0 205.62,-24.5"/>
<text text-anchor="middle" x="157.5" y="-5.3" font-family="SourceSansPro" font-size="16.00">tf::Taskflow</text>
</a>
</g>
</g>
<!-- Node1&#45;&gt;Node3 -->
<g id="edge2_Node000001_Node000003" class="edge">
<title>Node1&#45;&gt;Node3</title>
<g id="a_edge2_Node000001_Node000003"><a xlink:title=" ">
<path fill="none" stroke="#63b8ff" d="M120.35,-52.05C129.03,-42.99 139.02,-32.55 146.46,-24.78"/>
<polygon fill="#63b8ff" stroke="#63b8ff" points="118,-49.45 113.61,-59.1 123.05,-54.3 118,-49.45"/>
</a>
</g>
</g>
</g>
</svg>
