<?xml version="1.0" encoding="UTF-8" standalone="no"?>
<!DOCTYPE svg PUBLIC "-//W3C//DTD SVG 1.1//EN"
 "http://www.w3.org/Graphics/SVG/1.1/DTD/svg11.dtd">
<!-- Generated by graphviz version 2.43.0 (0)
 -->
<!-- Title: tf::Taskflow Pages: 1 -->
<svg width="140pt" height="183pt"
 viewBox="0.00 0.00 140.00 183.00" xmlns="http://www.w3.org/2000/svg" xmlns:xlink="http://www.w3.org/1999/xlink">
<g id="graph0" class="graph" transform="scale(1 1) rotate(0) translate(4 179)">
<title>tf::Taskflow</title>
<!-- Node1 -->
<g id="Node000001" class="node">
<title>Node1</title>
<g id="a_Node000001"><a xlink:title="class to create a taskflow object">
<polygon fill="#999999" stroke="#666666" points="118,-26 14,-26 14,0 118,0 118,-26"/>
<text text-anchor="middle" x="66" y="-9.2" font-family="SourceSansPro" font-size="16.00">tf::Taskflow</text>
</a>
</g>
</g>
<!-- Node2 -->
<g id="Node000002" class="node">
<title>Node2</title>
<g id="a_Node000002"><a xlink:href="classtf_1_1FlowBuilder.html" target="_top" xlink:title="class to build a task dependency graph">
<polygon fill="white" stroke="#666666" points="132,-89 0,-89 0,-63 132,-63 132,-89"/>
<text text-anchor="middle" x="66" y="-72.2" font-family="SourceSansPro" font-size="16.00">tf::FlowBuilder</text>
</a>
</g>
</g>
<!-- Node2&#45;&gt;Node1 -->
<g id="edge1_Node000001_Node000002" class="edge">
<title>Node2&#45;&gt;Node1</title>
<g id="a_edge1_Node000001_Node000002"><a xlink:title=" ">
<path fill="none" stroke="#63b8ff" d="M66,-52.69C66,-43.68 66,-33.62 66,-26.03"/>
<polygon fill="#63b8ff" stroke="#63b8ff" points="62.5,-52.95 66,-62.95 69.5,-52.95 62.5,-52.95"/>
</a>
</g>
</g>
<!-- Node3 -->
<g id="Node000003" class="node">
<title>Node3</title>
<g id="a_Node000003"><a xlink:href="classtf_1_1Graph.html" target="_top" xlink:title="class to create a graph object">
<polygon fill="white" stroke="#666666" points="110.5,-175 21.5,-175 21.5,-149 110.5,-149 110.5,-175"/>
<text text-anchor="middle" x="66" y="-158.2" font-family="SourceSansPro" font-size="16.00">tf::Graph</text>
</a>
</g>
</g>
<!-- Node3&#45;&gt;Node2 -->
<g id="edge2_Node000002_Node000003" class="edge">
<title>Node3&#45;&gt;Node2</title>
<g id="a_edge2_Node000002_Node000003"><a xlink:title=" ">
<path fill="none" stroke="#9a32cd" stroke-dasharray="5,2" d="M66,-138.87C66,-122.91 66,-101.98 66,-89.01"/>
<polygon fill="#9a32cd" stroke="#9a32cd" points="62.5,-138.96 66,-148.96 69.5,-138.96 62.5,-138.96"/>
</a>
</g>
<text text-anchor="start" x="69.5" y="-115.2" font-family="SourceSansPro" font-size="16.00" fill="grey">_graph</text>
</g>
</g>
</svg>
