<?xml version="1.0" encoding="UTF-8" standalone="no"?>
<!DOCTYPE svg PUBLIC "-//W3C//DTD SVG 1.1//EN"
 "http://www.w3.org/Graphics/SVG/1.1/DTD/svg11.dtd">
<!-- Generated by graphviz version 12.2.1 (20241206.2353)
 -->
<!-- Title: tf::DynamicPartitioner&lt; C &gt; Pages: 1 -->
<svg width="246pt" height="188pt"
 viewBox="0.00 0.00 246.25 187.50" xmlns="http://www.w3.org/2000/svg" xmlns:xlink="http://www.w3.org/1999/xlink">
<g id="graph0" class="graph" transform="scale(1 1) rotate(0) translate(4 183.5)">
<title>tf::DynamicPartitioner&lt; C &gt;</title>
<!-- Node1 -->
<g id="Node000001" class="node">
<title>Node1</title>
<g id="a_Node000001"><a xlink:title="class to create a dynamic partitioner for scheduling parallel algorithms">
<polygon fill="#999999" stroke="#666666" points="209.88,-24.5 1.12,-24.5 1.12,0 209.88,0 209.88,-24.5"/>
<text text-anchor="middle" x="105.5" y="-5.3" font-family="SourceSansPro" font-size="16.00">tf::DynamicPartitioner&lt; C &gt;</text>
</a>
</g>
</g>
<!-- Node2 -->
<g id="Node000002" class="node">
<title>Node2</title>
<g id="a_Node000002"><a xlink:href="classtf_1_1PartitionerBase.html" target="_top" xlink:title=" ">
<polygon fill="white" stroke="#666666" points="211,-102.5 0,-102.5 0,-61.5 211,-61.5 211,-102.5"/>
<text text-anchor="start" x="8" y="-83.3" font-family="SourceSansPro" font-size="16.00">tf::PartitionerBase</text>
<text text-anchor="middle" x="105.5" y="-66.8" font-family="SourceSansPro" font-size="16.00">&lt; DefaultClosureWrapper &gt;</text>
</a>
</g>
</g>
<!-- Node2&#45;&gt;Node1 -->
<g id="edge1_Node000001_Node000002" class="edge">
<title>Node2&#45;&gt;Node1</title>
<g id="a_edge1_Node000001_Node000002"><a xlink:title=" ">
<path fill="none" stroke="#63b8ff" d="M105.5,-49.64C105.5,-40.7 105.5,-31.53 105.5,-24.63"/>
<polygon fill="#63b8ff" stroke="#63b8ff" points="102,-49.53 105.5,-59.53 109,-49.53 102,-49.53"/>
</a>
</g>
</g>
<!-- Node3 -->
<g id="Node000003" class="node">
<title>Node3</title>
<g id="a_Node000003"><a xlink:href="classtf_1_1DefaultClosureWrapper.html" target="_top" xlink:title="class to create a default closure wrapper">
<polygon fill="white" stroke="#666666" points="206.5,-179.5 4.5,-179.5 4.5,-155 206.5,-155 206.5,-179.5"/>
<text text-anchor="middle" x="105.5" y="-160.3" font-family="SourceSansPro" font-size="16.00">tf::DefaultClosureWrapper</text>
</a>
</g>
</g>
<!-- Node3&#45;&gt;Node2 -->
<g id="edge2_Node000002_Node000003" class="edge">
<title>Node3&#45;&gt;Node2</title>
<g id="a_edge2_Node000002_Node000003"><a xlink:title=" ">
<path fill="none" stroke="#9a32cd" stroke-dasharray="5,2" d="M105.5,-143.19C105.5,-130.5 105.5,-114.92 105.5,-102.8"/>
<polygon fill="#9a32cd" stroke="#9a32cd" points="102,-143.16 105.5,-153.16 109,-143.16 102,-143.16"/>
</a>
</g>
<text text-anchor="middle" x="171.88" y="-121.8" font-family="SourceSansPro" font-size="16.00" fill="grey"> _closure_wrapper</text>
</g>
</g>
</svg>
