<?xml version="1.0" encoding="UTF-8" standalone="no"?>
<!DOCTYPE svg PUBLIC "-//W3C//DTD SVG 1.1//EN"
 "http://www.w3.org/Graphics/SVG/1.1/DTD/svg11.dtd">
<!-- Generated by graphviz version 12.2.1 (20241206.2353)
 -->
<!-- Title: tf::ObserverInterface Pages: 1 -->
<svg width="334pt" height="93pt"
 viewBox="0.00 0.00 333.62 93.00" xmlns="http://www.w3.org/2000/svg" xmlns:xlink="http://www.w3.org/1999/xlink">
<g id="graph0" class="graph" transform="scale(1 1) rotate(0) translate(4 89)">
<title>tf::ObserverInterface</title>
<!-- Node1 -->
<g id="Node000001" class="node">
<title>Node1</title>
<g id="a_Node000001"><a xlink:title="class to derive an executor observer">
<polygon fill="#999999" stroke="#666666" points="246.75,-85 83,-85 83,-60.5 246.75,-60.5 246.75,-85"/>
<text text-anchor="middle" x="164.88" y="-65.8" font-family="SourceSansPro" font-size="16.00">tf::ObserverInterface</text>
</a>
</g>
</g>
<!-- Node2 -->
<g id="Node000002" class="node">
<title>Node2</title>
<g id="a_Node000002"><a xlink:href="classtf_1_1ChromeObserver.html" target="_top" xlink:title="class to create an observer based on Chrome tracing format">
<polygon fill="white" stroke="#666666" points="157.75,-24.5 0,-24.5 0,0 157.75,0 157.75,-24.5"/>
<text text-anchor="middle" x="78.88" y="-5.3" font-family="SourceSansPro" font-size="16.00">tf::ChromeObserver</text>
</a>
</g>
</g>
<!-- Node1&#45;&gt;Node2 -->
<g id="edge1_Node000001_Node000002" class="edge">
<title>Node1&#45;&gt;Node2</title>
<g id="a_edge1_Node000001_Node000002"><a xlink:title=" ">
<path fill="none" stroke="#63b8ff" d="M138.44,-53.76C124.67,-44.4 108.24,-33.23 96.12,-24.98"/>
<polygon fill="#63b8ff" stroke="#63b8ff" points="136.4,-56.61 146.63,-59.34 140.33,-50.82 136.4,-56.61"/>
</a>
</g>
</g>
<!-- Node3 -->
<g id="Node000003" class="node">
<title>Node3</title>
<g id="a_Node000003"><a xlink:href="classtf_1_1TFProfObserver.html" target="_top" xlink:title="class to create an observer based on the built&#45;in taskflow profiler format">
<polygon fill="white" stroke="#666666" points="325.62,-24.5 176.12,-24.5 176.12,0 325.62,0 325.62,-24.5"/>
<text text-anchor="middle" x="250.88" y="-5.3" font-family="SourceSansPro" font-size="16.00">tf::TFProfObserver</text>
</a>
</g>
</g>
<!-- Node1&#45;&gt;Node3 -->
<g id="edge2_Node000001_Node000003" class="edge">
<title>Node1&#45;&gt;Node3</title>
<g id="a_edge2_Node000001_Node000003"><a xlink:title=" ">
<path fill="none" stroke="#63b8ff" d="M191.31,-53.76C205.08,-44.4 221.51,-33.23 233.63,-24.98"/>
<polygon fill="#63b8ff" stroke="#63b8ff" points="189.42,-50.82 183.12,-59.34 193.35,-56.61 189.42,-50.82"/>
</a>
</g>
</g>
</g>
</svg>
