<?xml version="1.0" encoding="UTF-8" standalone="no"?>
<!DOCTYPE svg PUBLIC "-//W3C//DTD SVG 1.1//EN"
 "http://www.w3.org/Graphics/SVG/1.1/DTD/svg11.dtd">
<!-- Generated by graphviz version 2.40.1 (20161225.0304)
 -->
<!-- Title: Taskflow Pages: 1 -->
<svg width="500pt" height="317pt"
 viewBox="0.00 0.00 500.00 316.80" xmlns="http://www.w3.org/2000/svg" xmlns:xlink="http://www.w3.org/1999/xlink">
<g id="graph0" class="graph" transform="scale(1 1) rotate(0) translate(4 312.8)">
<title>Taskflow</title>
<polygon fill="#ffffff" stroke="transparent" points="-4,4 -4,-312.8 496,-312.8 496,4 -4,4"/>
<g id="clust1" class="cluster">
<title>cluster_p0x7ffee9223970</title>
<polygon fill="none" stroke="#000000" points="8,-8 8,-300.8 334,-300.8 334,-8 8,-8"/>
<text text-anchor="middle" x="171" y="-284.2" font-family="Times,serif" font-size="14.00" fill="#000000">Taskflow: F2</text>
</g>
<g id="clust2" class="cluster">
<title>cluster_p0x7ffee92238d0</title>
<polygon fill="none" stroke="#000000" points="342,-152 342,-300.8 484,-300.8 484,-152 342,-152"/>
<text text-anchor="middle" x="413" y="-284.2" font-family="Times,serif" font-size="14.00" fill="#000000">Taskflow: F1</text>
</g>
<!-- p0x7f816f402b60 -->
<g id="node1" class="node">
<title>p0x7f816f402b60</title>
<ellipse fill="none" stroke="#000000" cx="138" cy="-250" rx="27" ry="18"/>
<text text-anchor="middle" x="138" y="-245.8" font-family="Times,serif" font-size="14.00" fill="#000000">f2A</text>
</g>
<!-- p0x7f816f402d80 -->
<g id="node2" class="node">
<title>p0x7f816f402d80</title>
<ellipse fill="none" stroke="#000000" cx="113" cy="-178" rx="27" ry="18"/>
<text text-anchor="middle" x="113" y="-173.8" font-family="Times,serif" font-size="14.00" fill="#000000">f2C</text>
</g>
<!-- p0x7f816f402b60&#45;&gt;p0x7f816f402d80 -->
<g id="edge1" class="edge">
<title>p0x7f816f402b60&#45;&gt;p0x7f816f402d80</title>
<path fill="none" stroke="#000000" d="M131.8202,-232.2022C129.0047,-224.0936 125.6087,-214.3129 122.4809,-205.3049"/>
<polygon fill="#000000" stroke="#000000" points="125.6952,-203.8917 119.1087,-195.593 119.0825,-206.1878 125.6952,-203.8917"/>
</g>
<!-- p0x7f816f402fa0 -->
<g id="node4" class="node">
<title>p0x7f816f402fa0</title>
<polygon fill="none" stroke="#0000ff" points="161.8599,-124 20.1401,-124 16.1401,-120 16.1401,-88 157.8599,-88 161.8599,-92 161.8599,-124"/>
<polyline fill="none" stroke="#0000ff" points="157.8599,-120 16.1401,-120 "/>
<polyline fill="none" stroke="#0000ff" points="157.8599,-120 157.8599,-88 "/>
<polyline fill="none" stroke="#0000ff" points="157.8599,-120 161.8599,-124 "/>
<text text-anchor="middle" x="89" y="-101.8" font-family="Times,serif" font-size="14.00" fill="#000000">module [Taskflow: F1]</text>
</g>
<!-- p0x7f816f402d80&#45;&gt;p0x7f816f402fa0 -->
<g id="edge3" class="edge">
<title>p0x7f816f402d80&#45;&gt;p0x7f816f402fa0</title>
<path fill="none" stroke="#000000" d="M107.0674,-160.2022C104.4049,-152.2146 101.2015,-142.6045 98.2362,-133.7087"/>
<polygon fill="#000000" stroke="#000000" points="101.5138,-132.4731 95.031,-124.0931 94.873,-134.6868 101.5138,-132.4731"/>
</g>
<!-- p0x7f816f402fa1 -->
<g id="node6" class="node">
<title>p0x7f816f402fa1</title>
<polygon fill="none" stroke="#0000ff" points="325.8599,-124 184.1401,-124 180.1401,-120 180.1401,-88 321.8599,-88 325.8599,-92 325.8599,-124"/>
<polyline fill="none" stroke="#0000ff" points="321.8599,-120 180.1401,-120 "/>
<polyline fill="none" stroke="#0000ff" points="321.8599,-120 321.8599,-88 "/>
<polyline fill="none" stroke="#0000ff" points="321.8599,-120 325.8599,-124 "/>
<text text-anchor="middle" x="253" y="-101.8" font-family="Times,serif" font-size="14.00" fill="#000000">module [Taskflow: F1]</text>
</g>
<!-- p0x7f816f402d80&#45;&gt;p0x7f816f402fa1 -->
<g id="edge6" class="edge">
<title>p0x7f816f402d80&#45;&gt;p0x7f816f402fa1</title>
<path fill="none" stroke="#000000" d="M134.5682,-166.9078C154.2238,-156.7992 183.8723,-141.5514 208.5865,-128.8412"/>
<polygon fill="#000000" stroke="#000000" points="210.4936,-131.7962 217.7858,-124.1102 207.2921,-125.5712 210.4936,-131.7962"/>
</g>
<!-- p0x7f816f402c70 -->
<g id="node3" class="node">
<title>p0x7f816f402c70</title>
<ellipse fill="none" stroke="#000000" cx="66" cy="-250" rx="27" ry="18"/>
<text text-anchor="middle" x="66" y="-245.8" font-family="Times,serif" font-size="14.00" fill="#000000">f2B</text>
</g>
<!-- p0x7f816f402c70&#45;&gt;p0x7f816f402d80 -->
<g id="edge2" class="edge">
<title>p0x7f816f402c70&#45;&gt;p0x7f816f402d80</title>
<path fill="none" stroke="#000000" d="M76.9009,-233.3008C82.7736,-224.3043 90.1366,-213.0247 96.6787,-203.0029"/>
<polygon fill="#000000" stroke="#000000" points="99.6228,-204.8957 102.1582,-194.6087 93.7611,-201.0693 99.6228,-204.8957"/>
</g>
<!-- p0x7f816f402e90 -->
<g id="node5" class="node">
<title>p0x7f816f402e90</title>
<ellipse fill="none" stroke="#000000" cx="171" cy="-34" rx="27" ry="18"/>
<text text-anchor="middle" x="171" y="-29.8" font-family="Times,serif" font-size="14.00" fill="#000000">f2D</text>
</g>
<!-- p0x7f816f402fa0&#45;&gt;p0x7f816f402e90 -->
<g id="edge5" class="edge">
<title>p0x7f816f402fa0&#45;&gt;p0x7f816f402e90</title>
<path fill="none" stroke="#000000" d="M109.6921,-87.8314C120.9484,-77.9478 134.9369,-65.6652 146.7085,-55.3291"/>
<polygon fill="#000000" stroke="#000000" points="149.238,-57.7659 154.4431,-48.5378 144.6193,-52.5058 149.238,-57.7659"/>
</g>
<!-- p0x7f816f402fa1&#45;&gt;p0x7f816f402e90 -->
<g id="edge4" class="edge">
<title>p0x7f816f402fa1&#45;&gt;p0x7f816f402e90</title>
<path fill="none" stroke="#000000" d="M232.3079,-87.8314C221.0516,-77.9478 207.0631,-65.6652 195.2915,-55.3291"/>
<polygon fill="#000000" stroke="#000000" points="197.3807,-52.5058 187.5569,-48.5378 192.762,-57.7659 197.3807,-52.5058"/>
</g>
<!-- p0x7f816f402830 -->
<g id="node7" class="node">
<title>p0x7f816f402830</title>
<ellipse fill="none" stroke="#000000" cx="449" cy="-250" rx="27" ry="18"/>
<text text-anchor="middle" x="449" y="-245.8" font-family="Times,serif" font-size="14.00" fill="#000000">f1A</text>
</g>
<!-- p0x7f816f402a50 -->
<g id="node8" class="node">
<title>p0x7f816f402a50</title>
<ellipse fill="none" stroke="#000000" cx="413" cy="-178" rx="27" ry="18"/>
<text text-anchor="middle" x="413" y="-173.8" font-family="Times,serif" font-size="14.00" fill="#000000">f1C</text>
</g>
<!-- p0x7f816f402830&#45;&gt;p0x7f816f402a50 -->
<g id="edge7" class="edge">
<title>p0x7f816f402830&#45;&gt;p0x7f816f402a50</title>
<path fill="none" stroke="#000000" d="M440.2854,-232.5708C436.0403,-224.0807 430.8464,-213.6929 426.1337,-204.2674"/>
<polygon fill="#000000" stroke="#000000" points="429.237,-202.6477 421.6343,-195.2687 422.976,-205.7782 429.237,-202.6477"/>
</g>
<!-- p0x7f816f402940 -->
<g id="node9" class="node">
<title>p0x7f816f402940</title>
<ellipse fill="none" stroke="#000000" cx="377" cy="-250" rx="27" ry="18"/>
<text text-anchor="middle" x="377" y="-245.8" font-family="Times,serif" font-size="14.00" fill="#000000">f1B</text>
</g>
<!-- p0x7f816f402940&#45;&gt;p0x7f816f402a50 -->
<g id="edge8" class="edge">
<title>p0x7f816f402940&#45;&gt;p0x7f816f402a50</title>
<path fill="none" stroke="#000000" d="M385.7146,-232.5708C389.9597,-224.0807 395.1536,-213.6929 399.8663,-204.2674"/>
<polygon fill="#000000" stroke="#000000" points="403.024,-205.7782 404.3657,-195.2687 396.763,-202.6477 403.024,-205.7782"/>
</g>
</g>
</svg>

