<?xml version="1.0" encoding="UTF-8" standalone="no"?>
<!DOCTYPE svg PUBLIC "-//W3C//DTD SVG 1.1//EN"
 "http://www.w3.org/Graphics/SVG/1.1/DTD/svg11.dtd">
<!-- Generated by graphviz version 12.2.1 (20241206.2353)
 -->
<!-- Title: ParallelScan Pages: 1 -->
<svg width="514pt" height="285pt"
 viewBox="0.00 0.00 514.36 285.05" xmlns="http://www.w3.org/2000/svg" xmlns:xlink="http://www.w3.org/1999/xlink">
<g id="graph0" class="graph" transform="scale(1 1) rotate(0) translate(4 281.05)">
<title>ParallelScan</title>
<polygon fill="white" stroke="none" points="-4,4 -4,-281.05 510.36,-281.05 510.36,4 -4,4"/>
<g id="clust4" class="cluster">
<title>cluster_legend</title>
<polygon fill="#f8f8f8" stroke="#aaaaaa" points="392.36,-8 392.36,-269.05 498.36,-269.05 498.36,-8 392.36,-8"/>
<text text-anchor="middle" x="445.36" y="-255.55" font-family="Helvetica,sans-Serif" font-size="10.00">Legend</text>
</g>
<!-- sp1 -->
<!-- sp2 -->
<!-- sp1&#45;&gt;sp2 -->
<!-- sp3 -->
<!-- sp2&#45;&gt;sp3 -->
<!-- lbl_in -->
<g id="node4" class="node">
<title>lbl_in</title>
<polygon fill="white" stroke="none" points="107.76,-243.8 42.96,-243.8 42.96,-218.6 107.76,-218.6 107.76,-243.8"/>
<text text-anchor="middle" x="75.36" y="-227.32" font-family="Helvetica Bold" font-size="10.00">input</text>
</g>
<!-- i0 -->
<g id="node5" class="node">
<title>i0</title>
<polygon fill="#fde8d0" stroke="black" points="142.48,-243.8 112.24,-243.8 112.24,-218.6 142.48,-218.6 142.48,-243.8"/>
<text text-anchor="middle" x="127.36" y="-227.5" font-family="Courier New" font-size="11.00">1</text>
</g>
<!-- lbl_in&#45;&gt;i0 -->
<!-- i1 -->
<g id="node6" class="node">
<title>i1</title>
<polygon fill="#fde8d0" stroke="black" points="176.48,-243.8 146.24,-243.8 146.24,-218.6 176.48,-218.6 176.48,-243.8"/>
<text text-anchor="middle" x="161.36" y="-227.5" font-family="Courier New" font-size="11.00">2</text>
</g>
<!-- i0&#45;&gt;i1 -->
<!-- o0 -->
<g id="node13" class="node">
<title>o0</title>
<polygon fill="#d4edda" stroke="black" points="122.48,-176.35 92.24,-176.35 92.24,-151.15 122.48,-151.15 122.48,-176.35"/>
<text text-anchor="middle" x="107.36" y="-160.05" font-family="Courier New" font-size="11.00">1</text>
</g>
<!-- i0&#45;&gt;o0 -->
<g id="edge24" class="edge">
<title>i0&#45;&gt;o0</title>
<path fill="none" stroke="#2a7a2a" d="M123.69,-218.2C120.82,-208.78 116.75,-195.49 113.4,-184.52"/>
<polygon fill="#2a7a2a" stroke="#2a7a2a" points="115.84,-184.1 111.45,-178.13 111.15,-185.54 115.84,-184.1"/>
</g>
<!-- e1 -->
<g id="node22" class="node">
<title>e1</title>
<polygon fill="#cce5ff" stroke="black" points="144.48,-106.65 114.24,-106.65 114.24,-81.45 144.48,-81.45 144.48,-106.65"/>
<text text-anchor="middle" x="129.36" y="-90.35" font-family="Courier New" font-size="11.00">1</text>
</g>
<!-- i0&#45;&gt;e1 -->
<g id="edge31" class="edge">
<title>i0&#45;&gt;e1</title>
<path fill="none" stroke="#1a5fa8" stroke-dasharray="5,2" d="M127.54,-218.21C127.88,-195.01 128.64,-143.76 129.06,-115.23"/>
<polygon fill="#1a5fa8" stroke="#1a5fa8" points="131.51,-115.37 129.16,-108.34 126.61,-115.3 131.51,-115.37"/>
</g>
<!-- i2 -->
<g id="node7" class="node">
<title>i2</title>
<polygon fill="#fde8d0" stroke="black" points="220.48,-243.8 190.24,-243.8 190.24,-218.6 220.48,-218.6 220.48,-243.8"/>
<text text-anchor="middle" x="205.36" y="-227.5" font-family="Courier New" font-size="11.00">3</text>
</g>
<!-- i1&#45;&gt;i2 -->
<!-- o1 -->
<g id="node14" class="node">
<title>o1</title>
<polygon fill="#d4edda" stroke="black" points="176.48,-176.35 146.24,-176.35 146.24,-151.15 176.48,-151.15 176.48,-176.35"/>
<text text-anchor="middle" x="161.36" y="-160.05" font-family="Courier New" font-size="11.00">3</text>
</g>
<!-- i1&#45;&gt;o1 -->
<g id="edge25" class="edge">
<title>i1&#45;&gt;o1</title>
<path fill="none" stroke="#2a7a2a" d="M161.36,-218.2C161.36,-208.97 161.36,-196.01 161.36,-185.16"/>
<polygon fill="#2a7a2a" stroke="#2a7a2a" points="163.81,-185.19 161.36,-178.19 158.91,-185.19 163.81,-185.19"/>
</g>
<!-- e2 -->
<g id="node23" class="node">
<title>e2</title>
<polygon fill="#cce5ff" stroke="black" points="178.48,-106.65 148.24,-106.65 148.24,-81.45 178.48,-81.45 178.48,-106.65"/>
<text text-anchor="middle" x="163.36" y="-90.35" font-family="Courier New" font-size="11.00">3</text>
</g>
<!-- i1&#45;&gt;e2 -->
<g id="edge32" class="edge">
<title>i1&#45;&gt;e2</title>
<path fill="none" stroke="#1a5fa8" stroke-dasharray="5,2" d="M156.79,-218.11C153.14,-207.79 148.33,-192.45 146.36,-178.6 144.5,-165.53 144.35,-161.95 146.36,-148.9 148.16,-137.24 152.02,-124.65 155.61,-114.57"/>
<polygon fill="#1a5fa8" stroke="#1a5fa8" points="157.84,-115.61 157.98,-108.2 153.24,-113.9 157.84,-115.61"/>
</g>
<!-- i3 -->
<g id="node8" class="node">
<title>i3</title>
<polygon fill="#fde8d0" stroke="black" points="259.48,-243.8 229.24,-243.8 229.24,-218.6 259.48,-218.6 259.48,-243.8"/>
<text text-anchor="middle" x="244.36" y="-227.5" font-family="Courier New" font-size="11.00">4</text>
</g>
<!-- i2&#45;&gt;i3 -->
<!-- o2 -->
<g id="node15" class="node">
<title>o2</title>
<polygon fill="#d4edda" stroke="black" points="210.48,-176.35 180.24,-176.35 180.24,-151.15 210.48,-151.15 210.48,-176.35"/>
<text text-anchor="middle" x="195.36" y="-160.05" font-family="Courier New" font-size="11.00">6</text>
</g>
<!-- i2&#45;&gt;o2 -->
<g id="edge26" class="edge">
<title>i2&#45;&gt;o2</title>
<path fill="none" stroke="#2a7a2a" d="M203.53,-218.2C202.1,-208.88 200.1,-195.75 198.43,-184.84"/>
<polygon fill="#2a7a2a" stroke="#2a7a2a" points="200.89,-184.72 197.41,-178.17 196.05,-185.46 200.89,-184.72"/>
</g>
<!-- e3 -->
<g id="node24" class="node">
<title>e3</title>
<polygon fill="#cce5ff" stroke="black" points="220.48,-106.65 190.24,-106.65 190.24,-81.45 220.48,-81.45 220.48,-106.65"/>
<text text-anchor="middle" x="205.36" y="-90.35" font-family="Courier New" font-size="11.00">6</text>
</g>
<!-- i2&#45;&gt;e3 -->
<g id="edge33" class="edge">
<title>i2&#45;&gt;e3</title>
<path fill="none" stroke="#1a5fa8" stroke-dasharray="5,2" d="M206.84,-218.34C208.06,-207.89 209.7,-192.26 210.36,-178.6 211,-165.42 210.97,-162.09 210.36,-148.9 209.84,-137.73 208.72,-125.3 207.68,-115.19"/>
<polygon fill="#1a5fa8" stroke="#1a5fa8" points="210.14,-115.21 206.95,-108.51 205.27,-115.73 210.14,-115.21"/>
</g>
<!-- i4 -->
<g id="node9" class="node">
<title>i4</title>
<polygon fill="#fde8d0" stroke="black" points="300.48,-243.8 270.24,-243.8 270.24,-218.6 300.48,-218.6 300.48,-243.8"/>
<text text-anchor="middle" x="285.36" y="-227.5" font-family="Courier New" font-size="11.00">&#45;2</text>
</g>
<!-- i3&#45;&gt;i4 -->
<!-- o3 -->
<g id="node16" class="node">
<title>o3</title>
<polygon fill="#d4edda" stroke="black" points="264.48,-176.35 234.24,-176.35 234.24,-151.15 264.48,-151.15 264.48,-176.35"/>
<text text-anchor="middle" x="249.36" y="-160.05" font-family="Courier New" font-size="11.00">10</text>
</g>
<!-- i3&#45;&gt;o3 -->
<g id="edge27" class="edge">
<title>i3&#45;&gt;o3</title>
<path fill="none" stroke="#2a7a2a" d="M245.28,-218.2C245.98,-208.97 246.97,-196.01 247.8,-185.16"/>
<polygon fill="#2a7a2a" stroke="#2a7a2a" points="250.24,-185.35 248.33,-178.19 245.36,-184.98 250.24,-185.35"/>
</g>
<!-- e4 -->
<g id="node25" class="node">
<title>e4</title>
<polygon fill="#cce5ff" stroke="black" points="254.48,-106.65 224.24,-106.65 224.24,-81.45 254.48,-81.45 254.48,-106.65"/>
<text text-anchor="middle" x="239.36" y="-90.35" font-family="Courier New" font-size="11.00">10</text>
</g>
<!-- i3&#45;&gt;e4 -->
<g id="edge34" class="edge">
<title>i3&#45;&gt;e4</title>
<path fill="none" stroke="#1a5fa8" stroke-dasharray="5,2" d="M241.41,-218.41C238.96,-208.01 235.69,-192.41 234.36,-178.6 232.28,-156.92 234.35,-131.99 236.42,-115.04"/>
<polygon fill="#1a5fa8" stroke="#1a5fa8" points="238.8,-115.73 237.29,-108.47 233.94,-115.09 238.8,-115.73"/>
</g>
<!-- i5 -->
<g id="node10" class="node">
<title>i5</title>
<polygon fill="#fde8d0" stroke="black" points="344.48,-243.8 314.24,-243.8 314.24,-218.6 344.48,-218.6 344.48,-243.8"/>
<text text-anchor="middle" x="329.36" y="-227.5" font-family="Courier New" font-size="11.00">1</text>
</g>
<!-- i4&#45;&gt;i5 -->
<!-- o4 -->
<g id="node17" class="node">
<title>o4</title>
<polygon fill="#d4edda" stroke="black" points="298.48,-176.35 268.24,-176.35 268.24,-151.15 298.48,-151.15 298.48,-176.35"/>
<text text-anchor="middle" x="283.36" y="-160.05" font-family="Courier New" font-size="11.00">8</text>
</g>
<!-- i4&#45;&gt;o4 -->
<g id="edge28" class="edge">
<title>i4&#45;&gt;o4</title>
<path fill="none" stroke="#2a7a2a" d="M284.99,-218.2C284.71,-208.97 284.32,-196.01 283.98,-185.16"/>
<polygon fill="#2a7a2a" stroke="#2a7a2a" points="286.43,-185.11 283.77,-178.19 281.54,-185.26 286.43,-185.11"/>
</g>
<!-- e5 -->
<g id="node26" class="node">
<title>e5</title>
<polygon fill="#cce5ff" stroke="black" points="296.48,-106.65 266.24,-106.65 266.24,-81.45 296.48,-81.45 296.48,-106.65"/>
<text text-anchor="middle" x="281.36" y="-90.35" font-family="Courier New" font-size="11.00">8</text>
</g>
<!-- i4&#45;&gt;e5 -->
<g id="edge35" class="edge">
<title>i4&#45;&gt;e5</title>
<path fill="none" stroke="#1a5fa8" stroke-dasharray="5,2" d="M289.59,-218.36C294.7,-202.54 302.17,-173.62 298.36,-148.9 296.56,-137.24 292.7,-124.65 289.11,-114.57"/>
<polygon fill="#1a5fa8" stroke="#1a5fa8" points="291.48,-113.9 286.74,-108.2 286.88,-115.61 291.48,-113.9"/>
</g>
<!-- i6 -->
<g id="node11" class="node">
<title>i6</title>
<polygon fill="#fde8d0" stroke="black" points="383.48,-243.8 353.24,-243.8 353.24,-218.6 383.48,-218.6 383.48,-243.8"/>
<text text-anchor="middle" x="368.36" y="-227.5" font-family="Courier New" font-size="11.00">8</text>
</g>
<!-- i5&#45;&gt;i6 -->
<!-- o5 -->
<g id="node18" class="node">
<title>o5</title>
<polygon fill="#d4edda" stroke="black" points="352.48,-176.35 322.24,-176.35 322.24,-151.15 352.48,-151.15 352.48,-176.35"/>
<text text-anchor="middle" x="337.36" y="-160.05" font-family="Courier New" font-size="11.00">9</text>
</g>
<!-- i5&#45;&gt;o5 -->
<g id="edge29" class="edge">
<title>i5&#45;&gt;o5</title>
<path fill="none" stroke="#2a7a2a" d="M330.83,-218.2C331.97,-208.88 333.57,-195.75 334.9,-184.84"/>
<polygon fill="#2a7a2a" stroke="#2a7a2a" points="337.3,-185.43 335.72,-178.18 332.44,-184.83 337.3,-185.43"/>
</g>
<!-- e6 -->
<g id="node27" class="node">
<title>e6</title>
<polygon fill="#cce5ff" stroke="black" points="330.48,-106.65 300.24,-106.65 300.24,-81.45 330.48,-81.45 330.48,-106.65"/>
<text text-anchor="middle" x="315.36" y="-90.35" font-family="Courier New" font-size="11.00">9</text>
</g>
<!-- i5&#45;&gt;e6 -->
<g id="edge36" class="edge">
<title>i5&#45;&gt;e6</title>
<path fill="none" stroke="#1a5fa8" stroke-dasharray="5,2" d="M327.57,-218.33C326.04,-207.89 323.86,-192.26 322.36,-178.6 319.98,-156.91 317.99,-131.98 316.75,-115.04"/>
<polygon fill="#1a5fa8" stroke="#1a5fa8" points="319.22,-115.28 316.27,-108.48 314.33,-115.63 319.22,-115.28"/>
</g>
<!-- o6 -->
<g id="node19" class="node">
<title>o6</title>
<polygon fill="#d4edda" stroke="black" points="386.48,-176.35 356.24,-176.35 356.24,-151.15 386.48,-151.15 386.48,-176.35"/>
<text text-anchor="middle" x="371.36" y="-160.05" font-family="Courier New" font-size="11.00">17</text>
</g>
<!-- i6&#45;&gt;o6 -->
<g id="edge30" class="edge">
<title>i6&#45;&gt;o6</title>
<path fill="none" stroke="#2a7a2a" d="M368.91,-218.2C369.33,-208.97 369.93,-196.01 370.42,-185.16"/>
<polygon fill="#2a7a2a" stroke="#2a7a2a" points="372.87,-185.3 370.74,-178.19 367.98,-185.07 372.87,-185.3"/>
</g>
<!-- lbl_inc -->
<g id="node12" class="node">
<title>lbl_inc</title>
<polygon fill="white" stroke="none" points="87.76,-178.6 22.96,-178.6 22.96,-148.9 87.76,-148.9 87.76,-178.6"/>
<text text-anchor="middle" x="55.36" y="-165.5" font-family="Helvetica Bold" font-size="10.00">inclusive</text>
<text text-anchor="middle" x="55.36" y="-154.25" font-family="Helvetica Bold" font-size="10.00">scan</text>
</g>
<!-- lbl_inc&#45;&gt;o0 -->
<!-- o0&#45;&gt;o1 -->
<!-- o1&#45;&gt;o2 -->
<!-- o2&#45;&gt;o3 -->
<!-- o3&#45;&gt;o4 -->
<!-- o4&#45;&gt;o5 -->
<!-- o5&#45;&gt;o6 -->
<!-- lbl_exc -->
<g id="node20" class="node">
<title>lbl_exc</title>
<polygon fill="white" stroke="none" points="76.06,-108.9 4.66,-108.9 4.66,-79.2 76.06,-79.2 76.06,-108.9"/>
<text text-anchor="middle" x="40.36" y="-95.8" font-family="Helvetica Bold" font-size="10.00">exclusive</text>
<text text-anchor="middle" x="40.36" y="-84.55" font-family="Helvetica Bold" font-size="10.00">scan (init=0)</text>
</g>
<!-- e0 -->
<g id="node21" class="node">
<title>e0</title>
<polygon fill="#cce5ff" stroke="black" points="110.48,-106.65 80.24,-106.65 80.24,-81.45 110.48,-81.45 110.48,-106.65"/>
<text text-anchor="middle" x="95.36" y="-90.35" font-family="Courier New" font-size="11.00">0</text>
</g>
<!-- lbl_exc&#45;&gt;e0 -->
<!-- e0&#45;&gt;e1 -->
<!-- e1&#45;&gt;e2 -->
<!-- e2&#45;&gt;e3 -->
<!-- e3&#45;&gt;e4 -->
<!-- e4&#45;&gt;e5 -->
<!-- e5&#45;&gt;e6 -->
<!-- leg_in -->
<g id="node28" class="node">
<title>leg_in</title>
<polygon fill="#fde8d0" stroke="black" points="492.16,-243.8 398.56,-243.8 398.56,-218.6 492.16,-218.6 492.16,-243.8"/>
<text text-anchor="middle" x="445.36" y="-227.52" font-family="Helvetica,sans-Serif" font-size="9.00">input element</text>
</g>
<!-- leg_inc -->
<g id="node29" class="node">
<title>leg_inc</title>
<polygon fill="#d4edda" stroke="black" points="492.16,-176.35 398.56,-176.35 398.56,-151.15 492.16,-151.15 492.16,-176.35"/>
<text text-anchor="middle" x="445.36" y="-160.07" font-family="Helvetica,sans-Serif" font-size="9.00">inclusive output</text>
</g>
<!-- leg_in&#45;&gt;leg_inc -->
<!-- leg_exc -->
<g id="node30" class="node">
<title>leg_exc</title>
<polygon fill="#cce5ff" stroke="black" points="492.16,-106.65 398.56,-106.65 398.56,-81.45 492.16,-81.45 492.16,-106.65"/>
<text text-anchor="middle" x="445.36" y="-90.38" font-family="Helvetica,sans-Serif" font-size="9.00">exclusive output</text>
</g>
<!-- leg_inc&#45;&gt;leg_exc -->
<!-- leg_arr -->
<g id="node31" class="node">
<title>leg_arr</title>
<polygon fill="white" stroke="none" points="479.94,-39.2 410.79,-39.2 410.79,-14 479.94,-14 479.94,-39.2"/>
<text text-anchor="middle" x="445.36" y="-22.93" font-family="Helvetica,sans-Serif" font-size="9.00">contributes to</text>
</g>
<!-- leg_exc&#45;&gt;leg_arr -->
</g>
</svg>
