<?xml version="1.0" encoding="UTF-8" standalone="no"?>
<!DOCTYPE svg PUBLIC "-//W3C//DTD SVG 1.1//EN"
 "http://www.w3.org/Graphics/SVG/1.1/DTD/svg11.dtd">
<!-- Generated by graphviz version 12.2.1 (20241206.2353)
 -->
<!-- Title: Taskflow Pages: 1 -->
<svg width="449pt" height="139pt"
 viewBox="0.00 0.00 448.73 139.00" xmlns="http://www.w3.org/2000/svg" xmlns:xlink="http://www.w3.org/1999/xlink">
<g id="graph0" class="graph" transform="scale(1 1) rotate(0) translate(4 135)">
<title>Taskflow</title>
<polygon fill="white" stroke="none" points="-4,4 -4,-135 444.73,-135 444.73,4 -4,4"/>
<!-- p0x7fdba4000030 -->
<g id="node1" class="node">
<title>p0x7fdba4000030</title>
<ellipse fill="none" stroke="black" cx="27" cy="-59" rx="27" ry="18"/>
<text text-anchor="middle" x="27" y="-53.95" font-family="Times,serif" font-size="14.00">init</text>
</g>
<!-- p0x7fdba4000140 -->
<g id="node2" class="node">
<title>p0x7fdba4000140</title>
<polygon fill="aquamarine" stroke="black" points="157.11,-77 91,-59 157.11,-41 223.22,-59 157.11,-77"/>
<text text-anchor="middle" x="157.11" y="-53.95" font-family="Times,serif" font-size="14.00">while i&lt;5</text>
</g>
<!-- p0x7fdba4000030&#45;&gt;p0x7fdba4000140 -->
<g id="edge1" class="edge">
<title>p0x7fdba4000030&#45;&gt;p0x7fdba4000140</title>
<path fill="none" stroke="black" d="M54.23,-59C61.36,-59 69.46,-59 77.9,-59"/>
<polygon fill="black" stroke="black" points="77.64,-62.5 87.64,-59 77.64,-55.5 77.64,-62.5"/>
</g>
<!-- p0x7fdba4000470 -->
<g id="node3" class="node">
<title>p0x7fdba4000470</title>
<ellipse fill="none" stroke="black" cx="294.8" cy="-113" rx="28.83" ry="18"/>
<text text-anchor="middle" x="294.8" y="-107.95" font-family="Times,serif" font-size="14.00">done</text>
</g>
<!-- p0x7fdba4000140&#45;&gt;p0x7fdba4000470 -->
<g id="edge2" class="edge">
<title>p0x7fdba4000140&#45;&gt;p0x7fdba4000470</title>
<path fill="none" stroke="black" stroke-dasharray="5,2" d="M185.24,-69.8C206.51,-78.26 236.25,-90.1 259.22,-99.24"/>
<polygon fill="black" stroke="black" points="257.9,-102.48 268.48,-102.93 260.49,-95.98 257.9,-102.48"/>
<text text-anchor="middle" x="244.59" y="-97.19" font-family="Times,serif" font-size="14.00">1</text>
</g>
<!-- p0x7fdba4000250 -->
<g id="node4" class="node">
<title>p0x7fdba4000250</title>
<ellipse fill="none" stroke="black" cx="294.8" cy="-59" rx="27" ry="18"/>
<text text-anchor="middle" x="294.8" y="-53.95" font-family="Times,serif" font-size="14.00">i++</text>
</g>
<!-- p0x7fdba4000140&#45;&gt;p0x7fdba4000250 -->
<g id="edge3" class="edge">
<title>p0x7fdba4000140&#45;&gt;p0x7fdba4000250</title>
<path fill="none" stroke="black" stroke-dasharray="5,2" d="M224.76,-59C235.53,-59 246.34,-59 256.1,-59"/>
<polygon fill="black" stroke="black" points="255.9,-62.5 265.9,-59 255.9,-55.5 255.9,-62.5"/>
<text text-anchor="middle" x="244.59" y="-62.2" font-family="Times,serif" font-size="14.00">0</text>
</g>
<!-- p0x7fdba4000360 -->
<g id="node5" class="node">
<title>p0x7fdba4000360</title>
<polygon fill="aquamarine" stroke="black" points="400.68,-36 360.63,-18 400.68,0 440.73,-18 400.68,-36"/>
<text text-anchor="middle" x="400.68" y="-12.95" font-family="Times,serif" font-size="14.00">back</text>
</g>
<!-- p0x7fdba4000250&#45;&gt;p0x7fdba4000360 -->
<g id="edge4" class="edge">
<title>p0x7fdba4000250&#45;&gt;p0x7fdba4000360</title>
<path fill="none" stroke="black" d="M318.59,-50C333.06,-44.29 351.97,-36.83 367.9,-30.54"/>
<polygon fill="black" stroke="black" points="368.93,-33.9 376.94,-26.97 366.36,-27.39 368.93,-33.9"/>
</g>
<!-- p0x7fdba4000360&#45;&gt;p0x7fdba4000140 -->
<g id="edge5" class="edge">
<title>p0x7fdba4000360&#45;&gt;p0x7fdba4000140</title>
<path fill="none" stroke="black" stroke-dasharray="5,2" d="M362.94,-16.55C350.46,-16.12 336.44,-15.71 323.63,-15.5 298,-15.08 291.12,-10.62 265.97,-15.5 239.63,-20.61 211.59,-32.13 190.69,-42.03"/>
<polygon fill="black" stroke="black" points="189.28,-38.83 181.83,-46.36 192.35,-45.12 189.28,-38.83"/>
<text text-anchor="middle" x="294.8" y="-18.7" font-family="Times,serif" font-size="14.00">0</text>
</g>
</g>
</svg>
