<?xml version="1.0" encoding="UTF-8" standalone="no"?>
<!DOCTYPE svg PUBLIC "-//W3C//DTD SVG 1.1//EN"
 "http://www.w3.org/Graphics/SVG/1.1/DTD/svg11.dtd">
<!-- Generated by graphviz version 12.2.1 (20241206.2353)
 -->
<!-- Title: PERT Pages: 1 -->
<svg width="702pt" height="161pt"
 viewBox="0.00 0.00 702.15 160.70" xmlns="http://www.w3.org/2000/svg" xmlns:xlink="http://www.w3.org/1999/xlink">
<g id="graph0" class="graph" transform="scale(1 1) rotate(0) translate(4 156.7)">
<title>PERT</title>
<polygon fill="white" stroke="none" points="-4,4 -4,-156.7 698.15,-156.7 698.15,4 -4,4"/>
<!-- A -->
<g id="node1" class="node">
<title>A</title>
<polygon fill="#cce5ff" stroke="black" points="82.65,-57.7 0,-57.7 0,-31 82.65,-31 82.65,-57.7"/>
<text text-anchor="middle" x="41.33" y="-45.55" font-family="Helvetica,sans-Serif" font-size="9.00">A: Requirements</text>
<text text-anchor="middle" x="41.33" y="-35.8" font-family="Helvetica,sans-Serif" font-size="9.00">(3 d)</text>
</g>
<!-- B -->
<g id="node2" class="node">
<title>B</title>
<polygon fill="#d4edda" stroke="black" points="206.3,-89.7 132.65,-89.7 132.65,-63 206.3,-63 206.3,-89.7"/>
<text text-anchor="middle" x="169.48" y="-77.55" font-family="Helvetica,sans-Serif" font-size="9.00">B: Architecture</text>
<text text-anchor="middle" x="169.48" y="-67.8" font-family="Helvetica,sans-Serif" font-size="9.00">(2 d)</text>
</g>
<!-- A&#45;&gt;B -->
<g id="edge1" class="edge">
<title>A&#45;&gt;B</title>
<path fill="none" stroke="#555555" d="M82.93,-54.65C96.43,-58.07 111.5,-61.9 125.19,-65.37"/>
<polygon fill="#555555" stroke="#555555" points="124.4,-67.34 130.74,-66.78 125.44,-63.27 124.4,-67.34"/>
</g>
<!-- C -->
<g id="node3" class="node">
<title>C</title>
<polygon fill="#d4edda" stroke="black" points="206.3,-26.7 132.65,-26.7 132.65,0 206.3,0 206.3,-26.7"/>
<text text-anchor="middle" x="169.48" y="-14.55" font-family="Helvetica,sans-Serif" font-size="9.00">C: UI Mockups</text>
<text text-anchor="middle" x="169.48" y="-4.8" font-family="Helvetica,sans-Serif" font-size="9.00">(2 d)</text>
</g>
<!-- A&#45;&gt;C -->
<g id="edge2" class="edge">
<title>A&#45;&gt;C</title>
<path fill="none" stroke="#555555" d="M82.93,-34.37C96.43,-31.05 111.5,-27.35 125.19,-23.99"/>
<polygon fill="#555555" stroke="#555555" points="125.41,-26.1 130.73,-22.62 124.41,-22.02 125.41,-26.1"/>
</g>
<!-- D -->
<g id="node4" class="node">
<title>D</title>
<polygon fill="#fff3cd" stroke="black" points="334.45,-152.7 256.3,-152.7 256.3,-126 334.45,-126 334.45,-152.7"/>
<text text-anchor="middle" x="295.38" y="-140.55" font-family="Helvetica,sans-Serif" font-size="9.00">D: Backend API</text>
<text text-anchor="middle" x="295.38" y="-130.8" font-family="Helvetica,sans-Serif" font-size="9.00">(3 d)</text>
</g>
<!-- B&#45;&gt;D -->
<g id="edge3" class="edge">
<title>B&#45;&gt;D</title>
<path fill="none" stroke="#555555" d="M197.67,-90.18C216.23,-99.61 240.94,-112.18 260.74,-122.25"/>
<polygon fill="#555555" stroke="#555555" points="259.6,-124.02 265.9,-124.87 261.5,-120.28 259.6,-124.02"/>
</g>
<!-- F -->
<g id="node6" class="node">
<title>F</title>
<polygon fill="#fff3cd" stroke="black" points="327.32,-89.7 263.43,-89.7 263.43,-63 327.32,-63 327.32,-89.7"/>
<text text-anchor="middle" x="295.38" y="-77.55" font-family="Helvetica,sans-Serif" font-size="9.00">F: Database</text>
<text text-anchor="middle" x="295.38" y="-67.8" font-family="Helvetica,sans-Serif" font-size="9.00">(2 d)</text>
</g>
<!-- B&#45;&gt;F -->
<g id="edge4" class="edge">
<title>B&#45;&gt;F</title>
<path fill="none" stroke="#555555" d="M206.65,-76.35C221.99,-76.35 239.91,-76.35 255.53,-76.35"/>
<polygon fill="#555555" stroke="#555555" points="255.48,-78.45 261.48,-76.35 255.48,-74.25 255.48,-78.45"/>
</g>
<!-- E -->
<g id="node5" class="node">
<title>E</title>
<polygon fill="#fff3cd" stroke="black" points="326.2,-26.7 264.55,-26.7 264.55,0 326.2,0 326.2,-26.7"/>
<text text-anchor="middle" x="295.38" y="-14.55" font-family="Helvetica,sans-Serif" font-size="9.00">E: Frontend</text>
<text text-anchor="middle" x="295.38" y="-4.8" font-family="Helvetica,sans-Serif" font-size="9.00">(4 d)</text>
</g>
<!-- C&#45;&gt;E -->
<g id="edge5" class="edge">
<title>C&#45;&gt;E</title>
<path fill="none" stroke="#555555" d="M206.65,-13.35C222.5,-13.35 241.1,-13.35 257.08,-13.35"/>
<polygon fill="#555555" stroke="#555555" points="256.71,-15.45 262.71,-13.35 256.71,-11.25 256.71,-15.45"/>
</g>
<!-- G -->
<g id="node7" class="node">
<title>G</title>
<polygon fill="#fde8d0" stroke="black" points="453.6,-89.7 384.45,-89.7 384.45,-63 453.6,-63 453.6,-89.7"/>
<text text-anchor="middle" x="419.02" y="-77.55" font-family="Helvetica,sans-Serif" font-size="9.00">G: Integration</text>
<text text-anchor="middle" x="419.02" y="-67.8" font-family="Helvetica,sans-Serif" font-size="9.00">(2 d)</text>
</g>
<!-- D&#45;&gt;G -->
<g id="edge6" class="edge">
<title>D&#45;&gt;G</title>
<path fill="none" stroke="#555555" d="M323.07,-125.52C341.22,-116.13 365.35,-103.63 384.75,-93.58"/>
<polygon fill="#555555" stroke="#555555" points="385.68,-95.46 390.05,-90.84 383.75,-91.73 385.68,-95.46"/>
</g>
<!-- E&#45;&gt;G -->
<g id="edge7" class="edge">
<title>E&#45;&gt;G</title>
<path fill="none" stroke="#555555" d="M323.07,-27.18C341.22,-36.57 365.35,-49.07 384.75,-59.12"/>
<polygon fill="#555555" stroke="#555555" points="383.75,-60.97 390.05,-61.86 385.68,-57.24 383.75,-60.97"/>
</g>
<!-- F&#45;&gt;G -->
<g id="edge8" class="edge">
<title>F&#45;&gt;G</title>
<path fill="none" stroke="#555555" d="M327.7,-76.35C342.72,-76.35 360.9,-76.35 377.01,-76.35"/>
<polygon fill="#555555" stroke="#555555" points="376.73,-78.45 382.73,-76.35 376.73,-74.25 376.73,-78.45"/>
</g>
<!-- H -->
<g id="node8" class="node">
<title>H</title>
<polygon fill="#fde8d0" stroke="black" points="573.5,-89.7 503.6,-89.7 503.6,-63 573.5,-63 573.5,-89.7"/>
<text text-anchor="middle" x="538.55" y="-77.55" font-family="Helvetica,sans-Serif" font-size="9.00">H: QA Testing</text>
<text text-anchor="middle" x="538.55" y="-67.8" font-family="Helvetica,sans-Serif" font-size="9.00">(3 d)</text>
</g>
<!-- G&#45;&gt;H -->
<g id="edge9" class="edge">
<title>G&#45;&gt;H</title>
<path fill="none" stroke="#555555" d="M454.02,-76.35C467.06,-76.35 482.09,-76.35 495.78,-76.35"/>
<polygon fill="#555555" stroke="#555555" points="495.71,-78.45 501.71,-76.35 495.71,-74.25 495.71,-78.45"/>
</g>
<!-- I -->
<g id="node9" class="node">
<title>I</title>
<polygon fill="#f8d7da" stroke="black" points="694.15,-89.7 623.5,-89.7 623.5,-63 694.15,-63 694.15,-89.7"/>
<text text-anchor="middle" x="658.82" y="-77.55" font-family="Helvetica,sans-Serif" font-size="9.00">I: Deployment</text>
<text text-anchor="middle" x="658.82" y="-67.8" font-family="Helvetica,sans-Serif" font-size="9.00">(1 d)</text>
</g>
<!-- H&#45;&gt;I -->
<g id="edge10" class="edge">
<title>H&#45;&gt;I</title>
<path fill="none" stroke="#555555" d="M573.76,-76.35C586.88,-76.35 602.01,-76.35 615.79,-76.35"/>
<polygon fill="#555555" stroke="#555555" points="615.77,-78.45 621.77,-76.35 615.77,-74.25 615.77,-78.45"/>
</g>
</g>
</svg>
