<?xml version="1.0" encoding="UTF-8" standalone="no"?>
<!DOCTYPE svg PUBLIC "-//W3C//DTD SVG 1.1//EN"
 "http://www.w3.org/Graphics/SVG/1.1/DTD/svg11.dtd">
<!-- Generated by graphviz version 12.2.1 (20241206.2353)
 -->
<!-- Title: G Pages: 1 -->
<svg width="175pt" height="188pt"
 viewBox="0.00 0.00 175.00 188.00" xmlns="http://www.w3.org/2000/svg" xmlns:xlink="http://www.w3.org/1999/xlink">
<g id="graph0" class="graph" transform="scale(1 1) rotate(0) translate(4 184)">
<title>G</title>
<polygon fill="white" stroke="none" points="-4,4 -4,-184 171,-184 171,4 -4,4"/>
<!-- A -->
<g id="node1" class="node">
<title>A</title>
<ellipse fill="none" stroke="black" cx="68" cy="-162" rx="27" ry="18"/>
<text text-anchor="middle" x="68" y="-156.95" font-family="Times,serif" font-size="14.00">A</text>
</g>
<!-- B -->
<g id="node2" class="node">
<title>B</title>
<ellipse fill="none" stroke="black" cx="68" cy="-90" rx="27" ry="18"/>
<text text-anchor="middle" x="68" y="-84.95" font-family="Times,serif" font-size="14.00">B</text>
</g>
<!-- A&#45;&gt;B -->
<g id="edge1" class="edge">
<title>A&#45;&gt;B</title>
<path fill="none" stroke="black" d="M68,-143.7C68,-136.41 68,-127.73 68,-119.54"/>
<polygon fill="black" stroke="black" points="71.5,-119.62 68,-109.62 64.5,-119.62 71.5,-119.62"/>
</g>
<!-- C -->
<g id="node3" class="node">
<title>C</title>
<ellipse fill="none" stroke="black" cx="140" cy="-90" rx="27" ry="18"/>
<text text-anchor="middle" x="140" y="-84.95" font-family="Times,serif" font-size="14.00">C</text>
</g>
<!-- A&#45;&gt;C -->
<g id="edge2" class="edge">
<title>A&#45;&gt;C</title>
<path fill="none" stroke="black" d="M82.92,-146.5C92.77,-136.92 105.86,-124.19 117.03,-113.34"/>
<polygon fill="black" stroke="black" points="119.29,-116.02 124.02,-106.54 114.41,-111 119.29,-116.02"/>
</g>
<!-- E -->
<g id="node4" class="node">
<title>E</title>
<ellipse fill="none" stroke="black" cx="27" cy="-18" rx="27" ry="18"/>
<text text-anchor="middle" x="27" y="-12.95" font-family="Times,serif" font-size="14.00">E</text>
</g>
<!-- A&#45;&gt;E -->
<g id="edge3" class="edge">
<title>A&#45;&gt;E</title>
<path fill="none" stroke="black" d="M54.52,-145.98C46.42,-135.98 36.78,-122.12 32,-108 25.43,-88.59 24.32,-65.44 24.78,-47.62"/>
<polygon fill="black" stroke="black" points="28.27,-47.9 25.23,-37.75 21.28,-47.58 28.27,-47.9"/>
</g>
<!-- B&#45;&gt;E -->
<g id="edge5" class="edge">
<title>B&#45;&gt;E</title>
<path fill="none" stroke="black" d="M58.49,-72.76C53.63,-64.46 47.59,-54.15 42.11,-44.79"/>
<polygon fill="black" stroke="black" points="45.3,-43.31 37.22,-36.45 39.26,-46.85 45.3,-43.31"/>
</g>
<!-- D -->
<g id="node5" class="node">
<title>D</title>
<ellipse fill="none" stroke="black" cx="126" cy="-18" rx="27" ry="18"/>
<text text-anchor="middle" x="126" y="-12.95" font-family="Times,serif" font-size="14.00">D</text>
</g>
<!-- B&#45;&gt;D -->
<g id="edge4" class="edge">
<title>B&#45;&gt;D</title>
<path fill="none" stroke="black" d="M80.59,-73.81C88.11,-64.73 97.83,-53 106.35,-42.72"/>
<polygon fill="black" stroke="black" points="108.79,-45.26 112.47,-35.32 103.4,-40.79 108.79,-45.26"/>
</g>
<!-- C&#45;&gt;D -->
<g id="edge6" class="edge">
<title>C&#45;&gt;D</title>
<path fill="none" stroke="black" d="M136.54,-71.7C135.06,-64.32 133.3,-55.52 131.65,-47.25"/>
<polygon fill="black" stroke="black" points="135.11,-46.71 129.72,-37.59 128.25,-48.08 135.11,-46.71"/>
</g>
</g>
</svg>
