<?xml version="1.0" encoding="UTF-8" standalone="no"?>
<!DOCTYPE svg PUBLIC "-//W3C//DTD SVG 1.1//EN"
 "http://www.w3.org/Graphics/SVG/1.1/DTD/svg11.dtd">
<!-- Generated by graphviz version 2.43.0 (0)
 -->
<!-- Title: Taskflow Pages: 1 -->
<svg width="364pt" height="387pt"
 viewBox="0.00 0.00 364.00 387.00" xmlns="http://www.w3.org/2000/svg" xmlns:xlink="http://www.w3.org/1999/xlink">
<g id="graph0" class="graph" transform="scale(1 1) rotate(0) translate(4 383)">
<title>Taskflow</title>
<polygon fill="white" stroke="transparent" points="-4,4 -4,-383 360,-383 360,4 -4,4"/>
<g id="clust1" class="cluster">
<title>cluster_p0x7ffee9223970</title>
<polygon fill="none" stroke="black" points="8,-8 8,-371 198,-371 198,-8 8,-8"/>
<text text-anchor="middle" x="103" y="-355.8" font-family="Times,serif" font-size="14.00">Taskflow: F2</text>
</g>
<g id="clust2" class="cluster">
<title>cluster_p0x7ffee92238d0</title>
<polygon fill="none" stroke="black" points="206,-224 206,-371 348,-371 348,-224 206,-224"/>
<text text-anchor="middle" x="277" y="-355.8" font-family="Times,serif" font-size="14.00">Taskflow: F1</text>
</g>
<!-- p0x7f816f402b60 -->
<g id="node1" class="node">
<title>p0x7f816f402b60</title>
<ellipse fill="none" stroke="black" cx="139" cy="-322" rx="27" ry="18"/>
<text text-anchor="middle" x="139" y="-318.3" font-family="Times,serif" font-size="14.00">f2A</text>
</g>
<!-- p0x7f816f402d80 -->
<g id="node2" class="node">
<title>p0x7f816f402d80</title>
<ellipse fill="none" stroke="black" cx="103" cy="-250" rx="27" ry="18"/>
<text text-anchor="middle" x="103" y="-246.3" font-family="Times,serif" font-size="14.00">f2C</text>
</g>
<!-- p0x7f816f402b60&#45;&gt;p0x7f816f402d80 -->
<g id="edge1" class="edge">
<title>p0x7f816f402b60&#45;&gt;p0x7f816f402d80</title>
<path fill="none" stroke="black" d="M130.65,-304.76C126.29,-296.28 120.85,-285.71 115.96,-276.2"/>
<polygon fill="black" stroke="black" points="118.99,-274.44 111.3,-267.15 112.77,-277.64 118.99,-274.44"/>
</g>
<!-- p0x7f816f402fa0 -->
<g id="node4" class="node">
<title>p0x7f816f402fa0</title>
<polygon fill="none" stroke="blue" points="189.5,-196 20.5,-196 16.5,-192 16.5,-160 185.5,-160 189.5,-164 189.5,-196"/>
<polyline fill="none" stroke="blue" points="185.5,-192 16.5,-192 "/>
<polyline fill="none" stroke="blue" points="185.5,-192 185.5,-160 "/>
<polyline fill="none" stroke="blue" points="185.5,-192 189.5,-196 "/>
<text text-anchor="middle" x="103" y="-174.3" font-family="Times,serif" font-size="14.00">module [Taskflow: F1]</text>
</g>
<!-- p0x7f816f402d80&#45;&gt;p0x7f816f402fa0 -->
<g id="edge3" class="edge">
<title>p0x7f816f402d80&#45;&gt;p0x7f816f402fa0</title>
<path fill="none" stroke="black" d="M103,-231.7C103,-223.98 103,-214.71 103,-206.11"/>
<polygon fill="black" stroke="black" points="106.5,-206.1 103,-196.1 99.5,-206.1 106.5,-206.1"/>
</g>
<!-- p0x7f816f402c70 -->
<g id="node3" class="node">
<title>p0x7f816f402c70</title>
<ellipse fill="none" stroke="black" cx="67" cy="-322" rx="27" ry="18"/>
<text text-anchor="middle" x="67" y="-318.3" font-family="Times,serif" font-size="14.00">f2B</text>
</g>
<!-- p0x7f816f402c70&#45;&gt;p0x7f816f402d80 -->
<g id="edge2" class="edge">
<title>p0x7f816f402c70&#45;&gt;p0x7f816f402d80</title>
<path fill="none" stroke="black" d="M75.35,-304.76C79.71,-296.28 85.15,-285.71 90.04,-276.2"/>
<polygon fill="black" stroke="black" points="93.23,-277.64 94.7,-267.15 87.01,-274.44 93.23,-277.64"/>
</g>
<!-- p0x7f816f402fa1 -->
<g id="node6" class="node">
<title>p0x7f816f402fa1</title>
<polygon fill="none" stroke="blue" points="189.5,-124 20.5,-124 16.5,-120 16.5,-88 185.5,-88 189.5,-92 189.5,-124"/>
<polyline fill="none" stroke="blue" points="185.5,-120 16.5,-120 "/>
<polyline fill="none" stroke="blue" points="185.5,-120 185.5,-88 "/>
<polyline fill="none" stroke="blue" points="185.5,-120 189.5,-124 "/>
<text text-anchor="middle" x="103" y="-102.3" font-family="Times,serif" font-size="14.00">module [Taskflow: F1]</text>
</g>
<!-- p0x7f816f402fa0&#45;&gt;p0x7f816f402fa1 -->
<g id="edge5" class="edge">
<title>p0x7f816f402fa0&#45;&gt;p0x7f816f402fa1</title>
<path fill="none" stroke="black" d="M103,-159.7C103,-151.98 103,-142.71 103,-134.11"/>
<polygon fill="black" stroke="black" points="106.5,-134.1 103,-124.1 99.5,-134.1 106.5,-134.1"/>
</g>
<!-- p0x7f816f402e90 -->
<g id="node5" class="node">
<title>p0x7f816f402e90</title>
<ellipse fill="none" stroke="black" cx="103" cy="-34" rx="27.1" ry="18"/>
<text text-anchor="middle" x="103" y="-30.3" font-family="Times,serif" font-size="14.00">f2D</text>
</g>
<!-- p0x7f816f402fa1&#45;&gt;p0x7f816f402e90 -->
<g id="edge4" class="edge">
<title>p0x7f816f402fa1&#45;&gt;p0x7f816f402e90</title>
<path fill="none" stroke="black" d="M103,-87.7C103,-79.98 103,-70.71 103,-62.11"/>
<polygon fill="black" stroke="black" points="106.5,-62.1 103,-52.1 99.5,-62.1 106.5,-62.1"/>
</g>
<!-- p0x7f816f402830 -->
<g id="node7" class="node">
<title>p0x7f816f402830</title>
<ellipse fill="none" stroke="black" cx="313" cy="-322" rx="27" ry="18"/>
<text text-anchor="middle" x="313" y="-318.3" font-family="Times,serif" font-size="14.00">f1A</text>
</g>
<!-- p0x7f816f402a50 -->
<g id="node8" class="node">
<title>p0x7f816f402a50</title>
<ellipse fill="none" stroke="black" cx="277" cy="-250" rx="27" ry="18"/>
<text text-anchor="middle" x="277" y="-246.3" font-family="Times,serif" font-size="14.00">f1C</text>
</g>
<!-- p0x7f816f402830&#45;&gt;p0x7f816f402a50 -->
<g id="edge6" class="edge">
<title>p0x7f816f402830&#45;&gt;p0x7f816f402a50</title>
<path fill="none" stroke="black" d="M304.65,-304.76C300.29,-296.28 294.85,-285.71 289.96,-276.2"/>
<polygon fill="black" stroke="black" points="292.99,-274.44 285.3,-267.15 286.77,-277.64 292.99,-274.44"/>
</g>
<!-- p0x7f816f402940 -->
<g id="node9" class="node">
<title>p0x7f816f402940</title>
<ellipse fill="none" stroke="black" cx="241" cy="-322" rx="27" ry="18"/>
<text text-anchor="middle" x="241" y="-318.3" font-family="Times,serif" font-size="14.00">f1B</text>
</g>
<!-- p0x7f816f402940&#45;&gt;p0x7f816f402a50 -->
<g id="edge7" class="edge">
<title>p0x7f816f402940&#45;&gt;p0x7f816f402a50</title>
<path fill="none" stroke="black" d="M249.35,-304.76C253.71,-296.28 259.15,-285.71 264.04,-276.2"/>
<polygon fill="black" stroke="black" points="267.23,-277.64 268.7,-267.15 261.01,-274.44 267.23,-277.64"/>
</g>
</g>
</svg>
