<?xml version="1.0" encoding="UTF-8" standalone="no"?>
<!DOCTYPE svg PUBLIC "-//W3C//DTD SVG 1.1//EN"
 "http://www.w3.org/Graphics/SVG/1.1/DTD/svg11.dtd">
<!-- Generated by graphviz version 12.2.1 (20241206.2353)
 -->
<!-- Title: IndexRange1D Pages: 1 -->
<svg width="459pt" height="51pt"
 viewBox="0.00 0.00 459.00 51.20" xmlns="http://www.w3.org/2000/svg" xmlns:xlink="http://www.w3.org/1999/xlink">
<g id="graph0" class="graph" transform="scale(1 1) rotate(0) translate(4 47.2)">
<title>IndexRange1D</title>
<polygon fill="white" stroke="none" points="-4,4 -4,-47.2 455,-47.2 455,4 -4,4"/>
<!-- e0 -->
<g id="node1" class="node">
<title>e0</title>
<ellipse fill="#aed6f1" stroke="black" cx="21.6" cy="-21.6" rx="21.6" ry="21.6"/>
<text text-anchor="middle" x="21.6" y="-16.57" font-family="Helvetica,sans-Serif" font-size="12.00">2</text>
</g>
<!-- e1 -->
<g id="node2" class="node">
<title>e1</title>
<ellipse fill="#aed6f1" stroke="black" cx="130.8" cy="-21.6" rx="21.6" ry="21.6"/>
<text text-anchor="middle" x="130.8" y="-16.57" font-family="Helvetica,sans-Serif" font-size="12.00">5</text>
</g>
<!-- e0&#45;&gt;e1 -->
<g id="edge1" class="edge">
<title>e0&#45;&gt;e1</title>
<path fill="none" stroke="black" stroke-width="1.5" d="M43.52,-21.6C58.65,-21.6 79.39,-21.6 96.74,-21.6"/>
<polygon fill="black" stroke="black" stroke-width="1.5" points="96.66,-25.1 106.66,-21.6 96.66,-18.1 96.66,-25.1"/>
<text text-anchor="middle" x="76.2" y="-24.8" font-family="Times,serif" font-size="14.00"> &#160;+3 &#160;</text>
</g>
<!-- e2 -->
<g id="node3" class="node">
<title>e2</title>
<ellipse fill="#aed6f1" stroke="black" cx="240" cy="-21.6" rx="21.6" ry="21.6"/>
<text text-anchor="middle" x="240" y="-16.57" font-family="Helvetica,sans-Serif" font-size="12.00">8</text>
</g>
<!-- e1&#45;&gt;e2 -->
<g id="edge2" class="edge">
<title>e1&#45;&gt;e2</title>
<path fill="none" stroke="black" stroke-width="1.5" d="M152.72,-21.6C167.85,-21.6 188.59,-21.6 205.94,-21.6"/>
<polygon fill="black" stroke="black" stroke-width="1.5" points="205.86,-25.1 215.86,-21.6 205.86,-18.1 205.86,-25.1"/>
<text text-anchor="middle" x="185.4" y="-24.8" font-family="Times,serif" font-size="14.00"> &#160;+3 &#160;</text>
</g>
<!-- e3 -->
<g id="node4" class="node">
<title>e3</title>
<ellipse fill="#aed6f1" stroke="black" cx="349.2" cy="-21.6" rx="21.6" ry="21.6"/>
<text text-anchor="middle" x="349.2" y="-16.57" font-family="Helvetica,sans-Serif" font-size="12.00">11</text>
</g>
<!-- e2&#45;&gt;e3 -->
<g id="edge3" class="edge">
<title>e2&#45;&gt;e3</title>
<path fill="none" stroke="black" stroke-width="1.5" d="M261.92,-21.6C277.05,-21.6 297.79,-21.6 315.14,-21.6"/>
<polygon fill="black" stroke="black" stroke-width="1.5" points="315.06,-25.1 325.06,-21.6 315.06,-18.1 315.06,-25.1"/>
<text text-anchor="middle" x="294.6" y="-24.8" font-family="Times,serif" font-size="14.00"> &#160;+3 &#160;</text>
</g>
<!-- end -->
<g id="node5" class="node">
<title>end</title>
<text text-anchor="middle" x="429.4" y="-22.95" font-family="Helvetica,sans-Serif" font-size="12.00">14</text>
<text text-anchor="middle" x="429.4" y="-10.2" font-family="Helvetica,sans-Serif" font-size="12.00">(end)</text>
</g>
<!-- e3&#45;&gt;end -->
<g id="edge4" class="edge">
<title>e3&#45;&gt;end</title>
<path fill="none" stroke="black" stroke-width="1.5" stroke-dasharray="5,2" d="M371.16,-21.6C382.56,-21.6 396.6,-21.6 407.93,-21.6"/>
</g>
</g>
</svg>
