<?xml version="1.0" encoding="UTF-8" standalone="no"?>
<!DOCTYPE svg PUBLIC "-//W3C//DTD SVG 1.1//EN"
 "http://www.w3.org/Graphics/SVG/1.1/DTD/svg11.dtd">
<!-- Generated by graphviz version 2.43.0 (0)
 -->
<!-- Title: Taskflow Pages: 1 -->
<svg width="980pt" height="273pt"
 viewBox="0.00 0.00 980.00 273.00" xmlns="http://www.w3.org/2000/svg" xmlns:xlink="http://www.w3.org/1999/xlink">
<g id="graph0" class="graph" transform="scale(1 1) rotate(0) translate(4 269)">
<title>Taskflow</title>
<polygon fill="white" stroke="transparent" points="-4,4 -4,-269 976,-269 976,4 -4,4"/>
<g id="clust1" class="cluster">
<title>cluster_error1</title>
<polygon fill="none" stroke="black" points="8,-95 8,-257 190,-257 190,-95 8,-95"/>
<text text-anchor="middle" x="99" y="-241.8" font-family="Times,serif" font-size="14.00">error1: no source tasks</text>
</g>
<g id="clust2" class="cluster">
<title>cluster_fix1</title>
<polygon fill="none" stroke="black" points="198,-8 198,-257 348,-257 348,-8 198,-8"/>
<text text-anchor="middle" x="273" y="-241.8" font-family="Times,serif" font-size="14.00">fix1: adds a source</text>
</g>
<g id="clust3" class="cluster">
<title>cluster_error2</title>
<polygon fill="none" stroke="black" points="356,-95 356,-257 498,-257 498,-95 356,-95"/>
<text text-anchor="middle" x="427" y="-241.8" font-family="Times,serif" font-size="14.00">error2: race on D</text>
</g>
<g id="clust4" class="cluster">
<title>cluster_fix2</title>
<polygon fill="none" stroke="black" points="506,-8 506,-257 742,-257 742,-8 506,-8"/>
<text text-anchor="middle" x="624" y="-241.8" font-family="Times,serif" font-size="14.00">fix2: adds an auxiliary task</text>
</g>
<g id="clust5" class="cluster">
<title>cluster_risky</title>
<polygon fill="none" stroke="black" points="750,-95 750,-257 964,-257 964,-95 750,-95"/>
<text text-anchor="middle" x="857" y="-241.8" font-family="Times,serif" font-size="14.00">risky: X might be raced</text>
</g>
<!-- e1A -->
<g id="node1" class="node">
<title>e1A</title>
<polygon fill="aquamarine" stroke="black" points="59,-226 32,-208 59,-190 86,-208 59,-226"/>
<text text-anchor="middle" x="59" y="-204.3" font-family="Times,serif" font-size="14.00">A</text>
</g>
<!-- e1A&#45;&gt;e1A -->
<g id="edge1" class="edge">
<title>e1A&#45;&gt;e1A</title>
<path fill="none" stroke="black" stroke-dasharray="5,2" d="M76.08,-214.77C89.82,-217.47 104,-215.22 104,-208 104,-202.59 96.02,-199.96 86.24,-200.13"/>
<polygon fill="black" stroke="black" points="85.65,-196.68 76.08,-201.23 86.4,-203.64 85.65,-196.68"/>
<text text-anchor="middle" x="109" y="-204.3" font-family="Times,serif" font-size="14.00">0</text>
</g>
<!-- e1B -->
<g id="node2" class="node">
<title>e1B</title>
<ellipse fill="none" stroke="black" cx="51" cy="-121" rx="27" ry="18"/>
<text text-anchor="middle" x="51" y="-117.3" font-family="Times,serif" font-size="14.00">B</text>
</g>
<!-- e1A&#45;&gt;e1B -->
<g id="edge2" class="edge">
<title>e1A&#45;&gt;e1B</title>
<path fill="none" stroke="black" stroke-dasharray="5,2" d="M57.46,-190.61C56.36,-178.96 54.86,-163.04 53.59,-149.47"/>
<polygon fill="black" stroke="black" points="57.04,-148.84 52.62,-139.21 50.07,-149.5 57.04,-148.84"/>
<text text-anchor="middle" x="60" y="-160.8" font-family="Times,serif" font-size="14.00">1</text>
</g>
<!-- e1C -->
<g id="node3" class="node">
<title>e1C</title>
<ellipse fill="none" stroke="black" cx="123" cy="-121" rx="27" ry="18"/>
<text text-anchor="middle" x="123" y="-117.3" font-family="Times,serif" font-size="14.00">C</text>
</g>
<!-- e1A&#45;&gt;e1C -->
<g id="edge3" class="edge">
<title>e1A&#45;&gt;e1C</title>
<path fill="none" stroke="black" stroke-dasharray="5,2" d="M67.63,-195.54C77.28,-182.73 93.15,-161.64 105.44,-145.33"/>
<polygon fill="black" stroke="black" points="108.26,-147.39 111.48,-137.3 102.67,-143.18 108.26,-147.39"/>
<text text-anchor="middle" x="99" y="-160.8" font-family="Times,serif" font-size="14.00">2</text>
</g>
<!-- f1S -->
<g id="node4" class="node">
<title>f1S</title>
<ellipse fill="none" stroke="black" cx="249" cy="-208" rx="27" ry="18"/>
<text text-anchor="middle" x="249" y="-204.3" font-family="Times,serif" font-size="14.00">S</text>
</g>
<!-- f1A -->
<g id="node5" class="node">
<title>f1A</title>
<polygon fill="aquamarine" stroke="black" points="249,-139 222,-121 249,-103 276,-121 249,-139"/>
<text text-anchor="middle" x="249" y="-117.3" font-family="Times,serif" font-size="14.00">A</text>
</g>
<!-- f1S&#45;&gt;f1A -->
<g id="edge4" class="edge">
<title>f1S&#45;&gt;f1A</title>
<path fill="none" stroke="black" d="M249,-189.8C249,-178.16 249,-162.55 249,-149.24"/>
<polygon fill="black" stroke="black" points="252.5,-149.18 249,-139.18 245.5,-149.18 252.5,-149.18"/>
</g>
<!-- f1A&#45;&gt;f1A -->
<g id="edge5" class="edge">
<title>f1A&#45;&gt;f1A</title>
<path fill="none" stroke="black" stroke-dasharray="5,2" d="M266.08,-127.77C279.82,-130.47 294,-128.22 294,-121 294,-115.59 286.02,-112.96 276.24,-113.13"/>
<polygon fill="black" stroke="black" points="275.65,-109.68 266.08,-114.23 276.4,-116.64 275.65,-109.68"/>
<text text-anchor="middle" x="299" y="-117.3" font-family="Times,serif" font-size="14.00">0</text>
</g>
<!-- f1B -->
<g id="node6" class="node">
<title>f1B</title>
<ellipse fill="none" stroke="black" cx="237" cy="-34" rx="27" ry="18"/>
<text text-anchor="middle" x="237" y="-30.3" font-family="Times,serif" font-size="14.00">B</text>
</g>
<!-- f1A&#45;&gt;f1B -->
<g id="edge6" class="edge">
<title>f1A&#45;&gt;f1B</title>
<path fill="none" stroke="black" stroke-dasharray="5,2" d="M246.8,-104.41C245.13,-92.57 242.79,-76 240.81,-62.02"/>
<polygon fill="black" stroke="black" points="244.26,-61.36 239.39,-51.95 237.33,-62.34 244.26,-61.36"/>
<text text-anchor="middle" x="248" y="-73.8" font-family="Times,serif" font-size="14.00">1</text>
</g>
<!-- f1C -->
<g id="node7" class="node">
<title>f1C</title>
<ellipse fill="none" stroke="black" cx="309" cy="-34" rx="27" ry="18"/>
<text text-anchor="middle" x="309" y="-30.3" font-family="Times,serif" font-size="14.00">C</text>
</g>
<!-- f1A&#45;&gt;f1C -->
<g id="edge7" class="edge">
<title>f1A&#45;&gt;f1C</title>
<path fill="none" stroke="black" stroke-dasharray="5,2" d="M257.34,-108.18C266.25,-95.56 280.62,-75.2 291.95,-59.16"/>
<polygon fill="black" stroke="black" points="294.97,-60.95 297.87,-50.76 289.25,-56.92 294.97,-60.95"/>
<text text-anchor="middle" x="287" y="-73.8" font-family="Times,serif" font-size="14.00">2</text>
</g>
<!-- e2C -->
<g id="node8" class="node">
<title>e2C</title>
<polygon fill="aquamarine" stroke="black" points="463,-226 436,-208 463,-190 490,-208 463,-226"/>
<text text-anchor="middle" x="463" y="-204.3" font-family="Times,serif" font-size="14.00">C</text>
</g>
<!-- e2D -->
<g id="node9" class="node">
<title>e2D</title>
<ellipse fill="none" stroke="black" cx="391" cy="-121" rx="27" ry="18"/>
<text text-anchor="middle" x="391" y="-117.3" font-family="Times,serif" font-size="14.00">D</text>
</g>
<!-- e2C&#45;&gt;e2D -->
<g id="edge9" class="edge">
<title>e2C&#45;&gt;e2D</title>
<path fill="none" stroke="black" stroke-dasharray="5,2" d="M453.59,-195.89C442.65,-182.97 424.3,-161.32 410.29,-144.78"/>
<polygon fill="black" stroke="black" points="412.95,-142.5 403.82,-137.13 407.61,-147.02 412.95,-142.5"/>
<text text-anchor="middle" x="436" y="-160.8" font-family="Times,serif" font-size="14.00">0</text>
</g>
<!-- e2F -->
<g id="node10" class="node">
<title>e2F</title>
<ellipse fill="none" stroke="black" cx="463" cy="-121" rx="27" ry="18"/>
<text text-anchor="middle" x="463" y="-117.3" font-family="Times,serif" font-size="14.00">F</text>
</g>
<!-- e2C&#45;&gt;e2F -->
<g id="edge10" class="edge">
<title>e2C&#45;&gt;e2F</title>
<path fill="none" stroke="black" stroke-dasharray="5,2" d="M463,-189.8C463,-178.16 463,-162.55 463,-149.24"/>
<polygon fill="black" stroke="black" points="466.5,-149.18 463,-139.18 459.5,-149.18 466.5,-149.18"/>
<text text-anchor="middle" x="468" y="-160.8" font-family="Times,serif" font-size="14.00">1</text>
</g>
<!-- e2E -->
<g id="node11" class="node">
<title>e2E</title>
<ellipse fill="none" stroke="black" cx="391" cy="-208" rx="27" ry="18"/>
<text text-anchor="middle" x="391" y="-204.3" font-family="Times,serif" font-size="14.00">E</text>
</g>
<!-- e2E&#45;&gt;e2D -->
<g id="edge8" class="edge">
<title>e2E&#45;&gt;e2D</title>
<path fill="none" stroke="black" d="M391,-189.8C391,-178.16 391,-162.55 391,-149.24"/>
<polygon fill="black" stroke="black" points="394.5,-149.18 391,-139.18 387.5,-149.18 394.5,-149.18"/>
</g>
<!-- f2C -->
<g id="node12" class="node">
<title>f2C</title>
<polygon fill="aquamarine" stroke="black" points="652,-226 625,-208 652,-190 679,-208 652,-226"/>
<text text-anchor="middle" x="652" y="-204.3" font-family="Times,serif" font-size="14.00">C</text>
</g>
<!-- f2Daux -->
<g id="node14" class="node">
<title>f2Daux</title>
<ellipse fill="none" stroke="black" cx="624" cy="-121" rx="37.89" ry="18"/>
<text text-anchor="middle" x="624" y="-117.3" font-family="Times,serif" font-size="14.00">D&#45;aux</text>
</g>
<!-- f2C&#45;&gt;f2Daux -->
<g id="edge12" class="edge">
<title>f2C&#45;&gt;f2Daux</title>
<path fill="none" stroke="black" stroke-dasharray="5,2" d="M647.38,-192.96C643.41,-180.93 637.6,-163.27 632.76,-148.58"/>
<polygon fill="black" stroke="black" points="636.05,-147.39 629.6,-138.99 629.4,-149.58 636.05,-147.39"/>
<text text-anchor="middle" x="644" y="-160.8" font-family="Times,serif" font-size="14.00">0</text>
</g>
<!-- f2F -->
<g id="node15" class="node">
<title>f2F</title>
<ellipse fill="none" stroke="black" cx="707" cy="-121" rx="27" ry="18"/>
<text text-anchor="middle" x="707" y="-117.3" font-family="Times,serif" font-size="14.00">F</text>
</g>
<!-- f2C&#45;&gt;f2F -->
<g id="edge13" class="edge">
<title>f2C&#45;&gt;f2F</title>
<path fill="none" stroke="black" stroke-dasharray="5,2" d="M659.88,-194.82C667.97,-182.31 680.8,-162.49 691.03,-146.68"/>
<polygon fill="black" stroke="black" points="694.2,-148.22 696.7,-137.92 688.33,-144.42 694.2,-148.22"/>
<text text-anchor="middle" x="687" y="-160.8" font-family="Times,serif" font-size="14.00">1</text>
</g>
<!-- f2D -->
<g id="node13" class="node">
<title>f2D</title>
<ellipse fill="none" stroke="black" cx="583" cy="-34" rx="27" ry="18"/>
<text text-anchor="middle" x="583" y="-30.3" font-family="Times,serif" font-size="14.00">D</text>
</g>
<!-- f2Daux&#45;&gt;f2D -->
<g id="edge14" class="edge">
<title>f2Daux&#45;&gt;f2D</title>
<path fill="none" stroke="black" d="M615.9,-103.21C610.02,-91.02 601.96,-74.32 595.3,-60.49"/>
<polygon fill="black" stroke="black" points="598.44,-58.96 590.94,-51.47 592.14,-62 598.44,-58.96"/>
</g>
<!-- f2E -->
<g id="node16" class="node">
<title>f2E</title>
<ellipse fill="none" stroke="black" cx="541" cy="-121" rx="27" ry="18"/>
<text text-anchor="middle" x="541" y="-117.3" font-family="Times,serif" font-size="14.00">E</text>
</g>
<!-- f2E&#45;&gt;f2D -->
<g id="edge11" class="edge">
<title>f2E&#45;&gt;f2D</title>
<path fill="none" stroke="black" d="M549.1,-103.61C555.14,-91.38 563.51,-74.44 570.42,-60.46"/>
<polygon fill="black" stroke="black" points="573.63,-61.85 574.93,-51.34 567.36,-58.75 573.63,-61.85"/>
</g>
<!-- rP -->
<g id="node17" class="node">
<title>rP</title>
<polygon fill="aquamarine" stroke="black" points="882,-226 855,-208 882,-190 909,-208 882,-226"/>
<text text-anchor="middle" x="882" y="-204.3" font-family="Times,serif" font-size="14.00">P</text>
</g>
<!-- rQ -->
<g id="node19" class="node">
<title>rQ</title>
<ellipse fill="none" stroke="black" cx="929" cy="-121" rx="27" ry="18"/>
<text text-anchor="middle" x="929" y="-117.3" font-family="Times,serif" font-size="14.00">Q</text>
</g>
<!-- rP&#45;&gt;rQ -->
<g id="edge18" class="edge">
<title>rP&#45;&gt;rQ</title>
<path fill="none" stroke="black" stroke-dasharray="5,2" d="M888.94,-194.46C895.79,-182.07 906.46,-162.76 915.07,-147.2"/>
<polygon fill="black" stroke="black" points="918.33,-148.53 920.11,-138.08 912.21,-145.14 918.33,-148.53"/>
<text text-anchor="middle" x="913" y="-160.8" font-family="Times,serif" font-size="14.00">0</text>
</g>
<!-- rX -->
<g id="node20" class="node">
<title>rX</title>
<ellipse fill="none" stroke="black" cx="857" cy="-121" rx="27" ry="18"/>
<text text-anchor="middle" x="857" y="-117.3" font-family="Times,serif" font-size="14.00">X</text>
</g>
<!-- rP&#45;&gt;rX -->
<g id="edge15" class="edge">
<title>rP&#45;&gt;rX</title>
<path fill="none" stroke="black" stroke-dasharray="5,2" d="M877.76,-192.58C874.24,-180.61 869.14,-163.27 864.87,-148.77"/>
<polygon fill="black" stroke="black" points="868.13,-147.44 861.95,-138.83 861.41,-149.41 868.13,-147.44"/>
<text text-anchor="middle" x="875" y="-160.8" font-family="Times,serif" font-size="14.00">1</text>
</g>
<!-- rM -->
<g id="node18" class="node">
<title>rM</title>
<polygon fill="aquamarine" stroke="black" points="801,-226 772.51,-208 801,-190 829.49,-208 801,-226"/>
<text text-anchor="middle" x="801" y="-204.3" font-family="Times,serif" font-size="14.00">M</text>
</g>
<!-- rM&#45;&gt;rX -->
<g id="edge16" class="edge">
<title>rM&#45;&gt;rX</title>
<path fill="none" stroke="black" stroke-dasharray="5,2" d="M809.02,-194.82C817.27,-182.31 830.33,-162.49 840.74,-146.68"/>
<polygon fill="black" stroke="black" points="843.93,-148.2 846.51,-137.92 838.08,-144.35 843.93,-148.2"/>
<text text-anchor="middle" x="837" y="-160.8" font-family="Times,serif" font-size="14.00">0</text>
</g>
<!-- rN -->
<g id="node21" class="node">
<title>rN</title>
<ellipse fill="none" stroke="black" cx="785" cy="-121" rx="27" ry="18"/>
<text text-anchor="middle" x="785" y="-117.3" font-family="Times,serif" font-size="14.00">N</text>
</g>
<!-- rM&#45;&gt;rN -->
<g id="edge17" class="edge">
<title>rM&#45;&gt;rN</title>
<path fill="none" stroke="black" stroke-dasharray="5,2" d="M798.14,-191.8C795.92,-180.01 792.78,-163.34 790.13,-149.26"/>
<polygon fill="black" stroke="black" points="793.51,-148.29 788.22,-139.11 786.63,-149.58 793.51,-148.29"/>
<text text-anchor="middle" x="798" y="-160.8" font-family="Times,serif" font-size="14.00">1</text>
</g>
</g>
</svg>
