<?xml version="1.0" encoding="UTF-8" standalone="no"?>
<!DOCTYPE svg PUBLIC "-//W3C//DTD SVG 1.1//EN"
 "http://www.w3.org/Graphics/SVG/1.1/DTD/svg11.dtd">
<!-- Generated by graphviz version 12.2.1 (20241206.2353)
 -->
<!-- Title: GC Pages: 1 -->
<svg width="199pt" height="207pt"
 viewBox="0.00 0.00 199.47 207.47" xmlns="http://www.w3.org/2000/svg" xmlns:xlink="http://www.w3.org/1999/xlink">
<g id="graph0" class="graph" transform="scale(1 1) rotate(0) translate(4 203.47)">
<title>GC</title>
<polygon fill="white" stroke="none" points="-4,4 -4,-203.47 195.47,-203.47 195.47,4 -4,4"/>
<!-- 0 -->
<g id="node1" class="node">
<title>0</title>
<ellipse fill="white" stroke="black" cx="114.09" cy="-18" rx="18" ry="18"/>
<text text-anchor="middle" x="114.09" y="-12.97" font-family="Helvetica,sans-Serif" font-size="12.00">0</text>
</g>
<!-- 1 -->
<g id="node2" class="node">
<title>1</title>
<ellipse fill="white" stroke="black" cx="18" cy="-49.22" rx="18" ry="18"/>
<text text-anchor="middle" x="18" y="-44.2" font-family="Helvetica,sans-Serif" font-size="12.00">1</text>
</g>
<!-- 0&#45;&#45;1 -->
<g id="edge1" class="edge">
<title>0&#45;&#45;1</title>
<path fill="none" stroke="#555555" stroke-width="1.5" d="M96.91,-23.58C79.53,-29.23 52.8,-37.91 35.35,-43.58"/>
</g>
<!-- 2 -->
<g id="node3" class="node">
<title>2</title>
<ellipse fill="white" stroke="black" cx="18" cy="-150.25" rx="18" ry="18"/>
<text text-anchor="middle" x="18" y="-145.23" font-family="Helvetica,sans-Serif" font-size="12.00">2</text>
</g>
<!-- 0&#45;&#45;2 -->
<g id="edge2" class="edge">
<title>0&#45;&#45;2</title>
<path fill="none" stroke="#555555" stroke-width="1.5" d="M103.25,-32.91C84.7,-58.45 47.07,-110.24 28.65,-135.6"/>
</g>
<!-- 4 -->
<g id="node5" class="node">
<title>4</title>
<ellipse fill="white" stroke="black" cx="173.47" cy="-99.74" rx="18" ry="18"/>
<text text-anchor="middle" x="173.47" y="-94.71" font-family="Helvetica,sans-Serif" font-size="12.00">4</text>
</g>
<!-- 0&#45;&#45;4 -->
<g id="edge3" class="edge">
<title>0&#45;&#45;4</title>
<path fill="none" stroke="#555555" stroke-width="1.5" d="M124.7,-32.61C135.45,-47.4 151.97,-70.14 162.75,-84.98"/>
</g>
<!-- 1&#45;&#45;2 -->
<g id="edge4" class="edge">
<title>1&#45;&#45;2</title>
<path fill="none" stroke="#555555" stroke-width="1.5" d="M18,-67.28C18,-85.56 18,-113.66 18,-132.01"/>
</g>
<!-- 3 -->
<g id="node4" class="node">
<title>3</title>
<ellipse fill="white" stroke="black" cx="114.09" cy="-181.47" rx="18" ry="18"/>
<text text-anchor="middle" x="114.09" y="-176.45" font-family="Helvetica,sans-Serif" font-size="12.00">3</text>
</g>
<!-- 2&#45;&#45;3 -->
<g id="edge5" class="edge">
<title>2&#45;&#45;3</title>
<path fill="none" stroke="#555555" stroke-width="1.5" d="M35.18,-155.84C52.56,-161.48 79.29,-170.17 96.73,-175.84"/>
</g>
<!-- 3&#45;&#45;4 -->
<g id="edge6" class="edge">
<title>3&#45;&#45;4</title>
<path fill="none" stroke="#555555" stroke-width="1.5" d="M124.7,-166.86C135.45,-152.08 151.97,-129.34 162.75,-114.5"/>
</g>
</g>
</svg>
