<?xml version="1.0" encoding="UTF-8" standalone="no"?>
<!DOCTYPE svg PUBLIC "-//W3C//DTD SVG 1.1//EN"
 "http://www.w3.org/Graphics/SVG/1.1/DTD/svg11.dtd">
<!-- Generated by graphviz version 12.2.1 (20241206.2353)
 -->
<!-- Title: BFS Pages: 1 -->
<svg width="301pt" height="48pt"
 viewBox="0.00 0.00 301.33 47.57" xmlns="http://www.w3.org/2000/svg" xmlns:xlink="http://www.w3.org/1999/xlink">
<g id="graph0" class="graph" transform="scale(1 1) rotate(0) translate(4 43.57)">
<title>BFS</title>
<polygon fill="white" stroke="none" points="-4,4 -4,-43.57 297.33,-43.57 297.33,4 -4,4"/>
<!-- init -->
<g id="node1" class="node">
<title>init</title>
<ellipse fill="none" stroke="black" cx="27" cy="-21.57" rx="27" ry="18"/>
<text text-anchor="middle" x="27" y="-16.52" font-family="Times,serif" font-size="14.00">init</text>
</g>
<!-- sweep -->
<g id="node2" class="node">
<title>sweep</title>
<ellipse fill="none" stroke="black" cx="124.95" cy="-21.57" rx="33.95" ry="18"/>
<text text-anchor="middle" x="124.95" y="-16.52" font-family="Times,serif" font-size="14.00">sweep</text>
</g>
<!-- init&#45;&gt;sweep -->
<g id="edge1" class="edge">
<title>init&#45;&gt;sweep</title>
<path fill="none" stroke="black" d="M54.47,-21.57C62.18,-21.57 70.81,-21.57 79.31,-21.57"/>
<polygon fill="black" stroke="black" points="79.19,-25.07 89.19,-21.57 79.19,-18.07 79.19,-25.07"/>
</g>
<!-- check -->
<g id="node3" class="node">
<title>check</title>
<polygon fill="aquamarine" stroke="black" points="247.49,-39.57 201.65,-21.57 247.49,-3.57 293.33,-21.57 247.49,-39.57"/>
<text text-anchor="middle" x="247.49" y="-16.52" font-family="Times,serif" font-size="14.00">check</text>
</g>
<!-- sweep&#45;&gt;check -->
<g id="edge2" class="edge">
<title>sweep&#45;&gt;check</title>
<path fill="none" stroke="black" d="M159.21,-21.57C168.52,-21.57 178.93,-21.57 189.21,-21.57"/>
<polygon fill="black" stroke="black" points="189.2,-25.07 199.2,-21.57 189.2,-18.07 189.2,-25.07"/>
</g>
<!-- check&#45;&gt;sweep -->
<g id="edge3" class="edge">
<title>check&#45;&gt;sweep</title>
<path fill="none" stroke="black" stroke-dasharray="5,2" d="M227.83,-10.97C213.95,-4.35 194.46,2.33 176.9,-1.07 171.81,-2.06 166.59,-3.55 161.52,-5.28"/>
<polygon fill="black" stroke="black" points="160.28,-2.01 152.18,-8.84 162.77,-8.55 160.28,-2.01"/>
<text text-anchor="middle" x="180.27" y="-4.27" font-family="Times,serif" font-size="14.00">0</text>
</g>
</g>
</svg>
