<?xml version="1.0" encoding="UTF-8" standalone="no"?>
<!DOCTYPE svg PUBLIC "-//W3C//DTD SVG 1.1//EN"
 "http://www.w3.org/Graphics/SVG/1.1/DTD/svg11.dtd">
<!-- Generated by graphviz version 2.43.0 (0)
 -->
<!-- Title: Taskflow Pages: 1 -->
<svg width="487pt" height="152pt"
 viewBox="0.00 0.00 486.89 152.00" xmlns="http://www.w3.org/2000/svg" xmlns:xlink="http://www.w3.org/1999/xlink">
<g id="graph0" class="graph" transform="scale(1 1) rotate(0) translate(4 148)">
<title>Taskflow</title>
<polygon fill="white" stroke="transparent" points="-4,4 -4,-148 482.89,-148 482.89,4 -4,4"/>
<!-- p0x7f96d3000030 -->
<g id="node1" class="node">
<title>p0x7f96d3000030</title>
<ellipse fill="none" stroke="black" cx="41.6" cy="-72" rx="41.69" ry="18"/>
<text text-anchor="middle" x="41.6" y="-68.3" font-family="Times,serif" font-size="14.00">source</text>
</g>
<!-- p0x7f96d3000140 -->
<g id="node2" class="node">
<title>p0x7f96d3000140</title>
<polygon fill="aquamarine" stroke="black" points="178.1,-90 120.29,-72 178.1,-54 235.91,-72 178.1,-90"/>
<text text-anchor="middle" x="178.1" y="-68.3" font-family="Times,serif" font-size="14.00">switch</text>
</g>
<!-- p0x7f96d3000030&#45;&gt;p0x7f96d3000140 -->
<g id="edge1" class="edge">
<title>p0x7f96d3000030&#45;&gt;p0x7f96d3000140</title>
<path fill="none" stroke="black" d="M83.32,-72C91.74,-72 100.83,-72 109.92,-72"/>
<polygon fill="black" stroke="black" points="110.14,-75.5 120.14,-72 110.14,-68.5 110.14,-75.5"/>
</g>
<!-- p0x7f96d3000250 -->
<g id="node3" class="node">
<title>p0x7f96d3000250</title>
<ellipse fill="none" stroke="black" cx="322.3" cy="-126" rx="40.09" ry="18"/>
<text text-anchor="middle" x="322.3" y="-122.3" font-family="Times,serif" font-size="14.00">case 1</text>
</g>
<!-- p0x7f96d3000140&#45;&gt;p0x7f96d3000250 -->
<g id="edge2" class="edge">
<title>p0x7f96d3000140&#45;&gt;p0x7f96d3000250</title>
<path fill="none" stroke="black" stroke-dasharray="5,2" d="M204.85,-81.78C226.26,-89.91 257.09,-101.61 281.64,-110.94"/>
<polygon fill="black" stroke="black" points="280.46,-114.24 291.05,-114.51 282.95,-107.69 280.46,-114.24"/>
<text text-anchor="middle" x="259.01" y="-106.8" font-family="Times,serif" font-size="14.00">0</text>
</g>
<!-- p0x7f96d3000360 -->
<g id="node4" class="node">
<title>p0x7f96d3000360</title>
<ellipse fill="none" stroke="black" cx="322.3" cy="-72" rx="40.09" ry="18"/>
<text text-anchor="middle" x="322.3" y="-68.3" font-family="Times,serif" font-size="14.00">case 2</text>
</g>
<!-- p0x7f96d3000140&#45;&gt;p0x7f96d3000360 -->
<g id="edge3" class="edge">
<title>p0x7f96d3000140&#45;&gt;p0x7f96d3000360</title>
<path fill="none" stroke="black" stroke-dasharray="5,2" d="M236.12,-72C247.83,-72 260.08,-72 271.51,-72"/>
<polygon fill="black" stroke="black" points="271.75,-75.5 281.75,-72 271.75,-68.5 271.75,-75.5"/>
<text text-anchor="middle" x="259.01" y="-75.8" font-family="Times,serif" font-size="14.00">1</text>
</g>
<!-- p0x7f96d3000470 -->
<g id="node5" class="node">
<title>p0x7f96d3000470</title>
<ellipse fill="none" stroke="black" cx="322.3" cy="-18" rx="40.09" ry="18"/>
<text text-anchor="middle" x="322.3" y="-14.3" font-family="Times,serif" font-size="14.00">case 3</text>
</g>
<!-- p0x7f96d3000140&#45;&gt;p0x7f96d3000470 -->
<g id="edge4" class="edge">
<title>p0x7f96d3000140&#45;&gt;p0x7f96d3000470</title>
<path fill="none" stroke="black" stroke-dasharray="5,2" d="M204.85,-62.22C226.26,-54.09 257.09,-42.39 281.64,-33.06"/>
<polygon fill="black" stroke="black" points="282.95,-36.31 291.05,-29.49 280.46,-29.76 282.95,-36.31"/>
<text text-anchor="middle" x="259.01" y="-46.8" font-family="Times,serif" font-size="14.00">2</text>
</g>
<!-- p0x7f96d3000580 -->
<g id="node6" class="node">
<title>p0x7f96d3000580</title>
<ellipse fill="none" stroke="black" cx="439.25" cy="-72" rx="39.79" ry="18"/>
<text text-anchor="middle" x="439.25" y="-68.3" font-family="Times,serif" font-size="14.00">target</text>
</g>
<!-- p0x7f96d3000250&#45;&gt;p0x7f96d3000580 -->
<g id="edge5" class="edge">
<title>p0x7f96d3000250&#45;&gt;p0x7f96d3000580</title>
<path fill="none" stroke="black" d="M350.83,-113.07C366.05,-105.92 385.14,-96.95 401.6,-89.22"/>
<polygon fill="black" stroke="black" points="403.38,-92.25 410.94,-84.83 400.4,-85.91 403.38,-92.25"/>
</g>
<!-- p0x7f96d3000360&#45;&gt;p0x7f96d3000580 -->
<g id="edge6" class="edge">
<title>p0x7f96d3000360&#45;&gt;p0x7f96d3000580</title>
<path fill="none" stroke="black" d="M362.86,-72C371.35,-72 380.43,-72 389.23,-72"/>
<polygon fill="black" stroke="black" points="389.39,-75.5 399.39,-72 389.39,-68.5 389.39,-75.5"/>
</g>
<!-- p0x7f96d3000470&#45;&gt;p0x7f96d3000580 -->
<g id="edge7" class="edge">
<title>p0x7f96d3000470&#45;&gt;p0x7f96d3000580</title>
<path fill="none" stroke="black" d="M350.83,-30.93C366.05,-38.08 385.14,-47.05 401.6,-54.78"/>
<polygon fill="black" stroke="black" points="400.4,-58.09 410.94,-59.17 403.38,-51.75 400.4,-58.09"/>
</g>
</g>
</svg>
