<?xml version="1.0" encoding="UTF-8" standalone="no"?>
<!DOCTYPE svg PUBLIC "-//W3C//DTD SVG 1.1//EN"
 "http://www.w3.org/Graphics/SVG/1.1/DTD/svg11.dtd">
<!-- Generated by graphviz version 12.2.1 (20241206.2353)
 -->
<!-- Title: TaskflowPERT Pages: 1 -->
<svg width="567pt" height="140pt"
 viewBox="0.00 0.00 567.00 140.16" xmlns="http://www.w3.org/2000/svg" xmlns:xlink="http://www.w3.org/1999/xlink">
<g id="graph0" class="graph" transform="scale(1 1) rotate(0) translate(4 136.16)">
<title>TaskflowPERT</title>
<polygon fill="white" stroke="none" points="-4,4 -4,-136.16 563,-136.16 563,4 -4,4"/>
<!-- A -->
<g id="node1" class="node">
<title>A</title>
<polygon fill="#cce5ff" stroke="black" points="54,-48.16 0,-48.16 0,-28 54,-28 54,-48.16"/>
<text text-anchor="middle" x="27" y="-34.41" font-family="Helvetica,sans-Serif" font-size="9.00">A</text>
</g>
<!-- B -->
<g id="node2" class="node">
<title>B</title>
<polygon fill="#d4edda" stroke="black" points="155,-76.16 101,-76.16 101,-56 155,-56 155,-76.16"/>
<text text-anchor="middle" x="128" y="-62.41" font-family="Helvetica,sans-Serif" font-size="9.00">B</text>
</g>
<!-- A&#45;&gt;B -->
<g id="edge1" class="edge">
<title>A&#45;&gt;B</title>
<path fill="none" stroke="#555555" d="M54.27,-45.51C66.47,-48.96 81.09,-53.1 94.02,-56.75"/>
<polygon fill="#555555" stroke="#555555" points="93.33,-58.56 99.15,-58.2 94.38,-54.85 93.33,-58.56"/>
</g>
<!-- C -->
<g id="node3" class="node">
<title>C</title>
<polygon fill="#d4edda" stroke="black" points="155,-20.16 101,-20.16 101,0 155,0 155,-20.16"/>
<text text-anchor="middle" x="128" y="-6.4" font-family="Helvetica,sans-Serif" font-size="9.00">C</text>
</g>
<!-- A&#45;&gt;C -->
<g id="edge2" class="edge">
<title>A&#45;&gt;C</title>
<path fill="none" stroke="#555555" d="M54.27,-30.65C66.47,-27.2 81.09,-23.06 94.02,-19.41"/>
<polygon fill="#555555" stroke="#555555" points="94.38,-21.31 99.15,-17.96 93.33,-17.6 94.38,-21.31"/>
</g>
<!-- D -->
<g id="node4" class="node">
<title>D</title>
<polygon fill="#fff3cd" stroke="black" points="256,-132.16 202,-132.16 202,-112 256,-112 256,-132.16"/>
<text text-anchor="middle" x="229" y="-118.41" font-family="Helvetica,sans-Serif" font-size="9.00">D</text>
</g>
<!-- B&#45;&gt;D -->
<g id="edge3" class="edge">
<title>B&#45;&gt;D</title>
<path fill="none" stroke="#555555" d="M147.62,-76.61C163.38,-85.53 186.11,-98.38 203.37,-108.15"/>
<polygon fill="#555555" stroke="#555555" points="202.41,-109.82 208.14,-110.85 204.31,-106.47 202.41,-109.82"/>
</g>
<!-- F -->
<g id="node6" class="node">
<title>F</title>
<polygon fill="#fff3cd" stroke="black" points="256,-76.16 202,-76.16 202,-56 256,-56 256,-76.16"/>
<text text-anchor="middle" x="229" y="-62.41" font-family="Helvetica,sans-Serif" font-size="9.00">F</text>
</g>
<!-- B&#45;&gt;F -->
<g id="edge4" class="edge">
<title>B&#45;&gt;F</title>
<path fill="none" stroke="#555555" d="M155.27,-66.08C167.35,-66.08 181.83,-66.08 194.67,-66.08"/>
<polygon fill="#555555" stroke="#555555" points="194.59,-68.01 200.09,-66.08 194.59,-64.16 194.59,-68.01"/>
</g>
<!-- E -->
<g id="node5" class="node">
<title>E</title>
<polygon fill="#fff3cd" stroke="black" points="256,-20.16 202,-20.16 202,0 256,0 256,-20.16"/>
<text text-anchor="middle" x="229" y="-6.4" font-family="Helvetica,sans-Serif" font-size="9.00">E</text>
</g>
<!-- C&#45;&gt;E -->
<g id="edge5" class="edge">
<title>C&#45;&gt;E</title>
<path fill="none" stroke="#555555" d="M155.27,-10.08C167.35,-10.08 181.83,-10.08 194.67,-10.08"/>
<polygon fill="#555555" stroke="#555555" points="194.59,-12.01 200.09,-10.08 194.59,-8.16 194.59,-12.01"/>
</g>
<!-- G -->
<g id="node7" class="node">
<title>G</title>
<polygon fill="#fde8d0" stroke="black" points="357,-76.16 303,-76.16 303,-56 357,-56 357,-76.16"/>
<text text-anchor="middle" x="330" y="-62.41" font-family="Helvetica,sans-Serif" font-size="9.00">G</text>
</g>
<!-- D&#45;&gt;G -->
<g id="edge6" class="edge">
<title>D&#45;&gt;G</title>
<path fill="none" stroke="#555555" d="M248.62,-111.55C264.38,-102.63 287.11,-89.78 304.37,-80.01"/>
<polygon fill="#555555" stroke="#555555" points="305.31,-81.69 309.14,-77.31 303.41,-78.34 305.31,-81.69"/>
</g>
<!-- E&#45;&gt;G -->
<g id="edge7" class="edge">
<title>E&#45;&gt;G</title>
<path fill="none" stroke="#555555" d="M248.62,-20.61C264.38,-29.53 287.11,-42.38 304.37,-52.15"/>
<polygon fill="#555555" stroke="#555555" points="303.41,-53.82 309.14,-54.85 305.31,-50.47 303.41,-53.82"/>
</g>
<!-- F&#45;&gt;G -->
<g id="edge8" class="edge">
<title>F&#45;&gt;G</title>
<path fill="none" stroke="#555555" d="M256.27,-66.08C268.35,-66.08 282.83,-66.08 295.67,-66.08"/>
<polygon fill="#555555" stroke="#555555" points="295.59,-68.01 301.09,-66.08 295.59,-64.16 295.59,-68.01"/>
</g>
<!-- H -->
<g id="node8" class="node">
<title>H</title>
<polygon fill="#fde8d0" stroke="black" points="458,-76.16 404,-76.16 404,-56 458,-56 458,-76.16"/>
<text text-anchor="middle" x="431" y="-62.41" font-family="Helvetica,sans-Serif" font-size="9.00">H</text>
</g>
<!-- G&#45;&gt;H -->
<g id="edge9" class="edge">
<title>G&#45;&gt;H</title>
<path fill="none" stroke="#555555" d="M357.27,-66.08C369.35,-66.08 383.83,-66.08 396.67,-66.08"/>
<polygon fill="#555555" stroke="#555555" points="396.59,-68.01 402.09,-66.08 396.59,-64.16 396.59,-68.01"/>
</g>
<!-- I -->
<g id="node9" class="node">
<title>I</title>
<polygon fill="#f8d7da" stroke="black" points="559,-76.16 505,-76.16 505,-56 559,-56 559,-76.16"/>
<text text-anchor="middle" x="532" y="-62.41" font-family="Helvetica,sans-Serif" font-size="9.00">I</text>
</g>
<!-- H&#45;&gt;I -->
<g id="edge10" class="edge">
<title>H&#45;&gt;I</title>
<path fill="none" stroke="#555555" d="M458.27,-66.08C470.35,-66.08 484.83,-66.08 497.67,-66.08"/>
<polygon fill="#555555" stroke="#555555" points="497.59,-68.01 503.09,-66.08 497.59,-64.16 497.59,-68.01"/>
</g>
</g>
</svg>
