<?xml version="1.0" encoding="UTF-8" standalone="no"?>
<!DOCTYPE svg PUBLIC "-//W3C//DTD SVG 1.1//EN"
 "http://www.w3.org/Graphics/SVG/1.1/DTD/svg11.dtd">
<!-- Generated by graphviz version 12.2.1 (20241206.2353)
 -->
<!-- Title: Taskflow Pages: 1 -->
<svg width="725pt" height="749pt"
 viewBox="0.00 0.00 725.26 749.00" xmlns="http://www.w3.org/2000/svg" xmlns:xlink="http://www.w3.org/1999/xlink">
<g id="graph0" class="graph" transform="scale(1 1) rotate(0) translate(4 745)">
<title>Taskflow</title>
<polygon fill="white" stroke="none" points="-4,4 -4,-745 721.26,-745 721.26,4 -4,4"/>
<g id="clust1" class="cluster">
<title>cluster_p0x1dcb6e0</title>
<polygon fill="none" stroke="blue" points="8,-8 8,-733 239.79,-733 239.79,-8 8,-8"/>
<text text-anchor="middle" x="123.9" y="-715.7" font-family="Times,serif" font-size="14.00">Subflow: parallel&#45;for</text>
</g>
<!-- p0x1dcb4c0 -->
<g id="node1" class="node">
<title>p0x1dcb4c0</title>
<ellipse fill="none" stroke="black" cx="510.63" cy="-421" rx="27" ry="18"/>
<text text-anchor="middle" x="510.63" y="-415.95" font-family="Times,serif" font-size="14.00">init</text>
</g>
<!-- p0x1dcb5d0 -->
<g id="node2" class="node">
<title>p0x1dcb5d0</title>
<ellipse fill="none" stroke="black" cx="673.08" cy="-375" rx="44.19" ry="18"/>
<text text-anchor="middle" x="673.08" y="-369.95" font-family="Times,serif" font-size="14.00">clean_up</text>
</g>
<!-- p0x1dcb4c0&#45;&gt;p0x1dcb5d0 -->
<g id="edge1" class="edge">
<title>p0x1dcb4c0&#45;&gt;p0x1dcb5d0</title>
<path fill="none" stroke="black" d="M535.99,-414.01C559.63,-407.24 596.1,-396.78 625.33,-388.4"/>
<polygon fill="black" stroke="black" points="626.04,-391.84 634.69,-385.72 624.11,-385.11 626.04,-391.84"/>
</g>
<!-- p0x1dcb6e0 -->
<g id="node3" class="node">
<title>p0x1dcb6e0</title>
<ellipse fill="none" stroke="black" cx="179.42" cy="-358" rx="52.38" ry="18"/>
<text text-anchor="middle" x="179.42" y="-352.95" font-family="Times,serif" font-size="14.00">parallel&#45;for</text>
</g>
<!-- p0x1dcb5d0&#45;&gt;p0x1dcb6e0 -->
<g id="edge2" class="edge">
<title>p0x1dcb5d0&#45;&gt;p0x1dcb6e0</title>
<path fill="none" stroke="black" d="M628.81,-373.5C541.55,-370.49 344.17,-363.66 242.91,-360.16"/>
<polygon fill="black" stroke="black" points="243.27,-356.67 233.15,-359.82 243.03,-363.67 243.27,-356.67"/>
</g>
<!-- p0x1dcb7f0 -->
<g id="node4" class="node">
<title>p0x1dcb7f0</title>
<ellipse fill="none" stroke="black" cx="333.45" cy="-329" rx="64.66" ry="18"/>
<text text-anchor="middle" x="333.45" y="-323.95" font-family="Times,serif" font-size="14.00">update_cluster</text>
</g>
<!-- p0x1dcb6e0&#45;&gt;p0x1dcb7f0 -->
<g id="edge3" class="edge">
<title>p0x1dcb6e0&#45;&gt;p0x1dcb7f0</title>
<path fill="none" stroke="black" d="M226.03,-349.3C239.21,-346.78 253.86,-343.99 267.96,-341.3"/>
<polygon fill="black" stroke="black" points="268.46,-344.77 277.62,-339.46 267.15,-337.89 268.46,-344.77"/>
</g>
<!-- p0x1dcb900 -->
<g id="node18" class="node">
<title>p0x1dcb900</title>
<polygon fill="aquamarine" stroke="black" points="510.63,-347 435.11,-329 510.63,-311 586.14,-329 510.63,-347"/>
<text text-anchor="middle" x="510.63" y="-323.95" font-family="Times,serif" font-size="14.00">converged?</text>
</g>
<!-- p0x1dcb7f0&#45;&gt;p0x1dcb900 -->
<g id="edge17" class="edge">
<title>p0x1dcb7f0&#45;&gt;p0x1dcb900</title>
<path fill="none" stroke="black" d="M398.19,-329C405.9,-329 413.88,-329 421.86,-329"/>
<polygon fill="black" stroke="black" points="421.61,-332.5 431.61,-329 421.61,-325.5 421.61,-332.5"/>
</g>
<!-- p0x7fd610000b50 -->
<g id="node5" class="node">
<title>p0x7fd610000b50</title>
<ellipse fill="none" stroke="black" cx="53.02" cy="-34" rx="32.41" ry="18"/>
<text text-anchor="middle" x="53.02" y="-28.95" font-family="Times,serif" font-size="14.00">pfg_0</text>
</g>
<!-- p0x7fd610000b50&#45;&gt;p0x1dcb6e0 -->
<g id="edge4" class="edge">
<title>p0x7fd610000b50&#45;&gt;p0x1dcb6e0</title>
<path fill="none" stroke="black" d="M75.87,-46.89C81.12,-50.85 86.29,-55.61 90.04,-61 149.34,-146.13 169.45,-271.54 175.76,-328.24"/>
<polygon fill="black" stroke="black" points="172.27,-328.48 176.78,-338.06 179.23,-327.75 172.27,-328.48"/>
</g>
<!-- p0x7fd610000c60 -->
<g id="node6" class="node">
<title>p0x7fd610000c60</title>
<ellipse fill="none" stroke="black" cx="53.02" cy="-88" rx="32.41" ry="18"/>
<text text-anchor="middle" x="53.02" y="-82.95" font-family="Times,serif" font-size="14.00">pfg_1</text>
</g>
<!-- p0x7fd610000c60&#45;&gt;p0x1dcb6e0 -->
<g id="edge5" class="edge">
<title>p0x7fd610000c60&#45;&gt;p0x1dcb6e0</title>
<path fill="none" stroke="black" d="M75.66,-101.05C80.91,-105.01 86.13,-109.73 90.04,-115 139.84,-182.14 163.95,-280.18 173.4,-328.64"/>
<polygon fill="black" stroke="black" points="169.94,-329.17 175.21,-338.36 176.82,-327.89 169.94,-329.17"/>
</g>
<!-- p0x7fd610000d70 -->
<g id="node7" class="node">
<title>p0x7fd610000d70</title>
<ellipse fill="none" stroke="black" cx="53.02" cy="-142" rx="32.41" ry="18"/>
<text text-anchor="middle" x="53.02" y="-136.95" font-family="Times,serif" font-size="14.00">pfg_2</text>
</g>
<!-- p0x7fd610000d70&#45;&gt;p0x1dcb6e0 -->
<g id="edge6" class="edge">
<title>p0x7fd610000d70&#45;&gt;p0x1dcb6e0</title>
<path fill="none" stroke="black" d="M75.34,-155.29C80.6,-159.25 85.9,-163.91 90.04,-169 130.29,-218.53 157,-289.41 169.74,-328.79"/>
<polygon fill="black" stroke="black" points="166.38,-329.77 172.72,-338.26 173.06,-327.67 166.38,-329.77"/>
</g>
<!-- p0x7fd610000e80 -->
<g id="node8" class="node">
<title>p0x7fd610000e80</title>
<ellipse fill="none" stroke="black" cx="53.02" cy="-196" rx="32.41" ry="18"/>
<text text-anchor="middle" x="53.02" y="-190.95" font-family="Times,serif" font-size="14.00">pfg_3</text>
</g>
<!-- p0x7fd610000e80&#45;&gt;p0x1dcb6e0 -->
<g id="edge7" class="edge">
<title>p0x7fd610000e80&#45;&gt;p0x1dcb6e0</title>
<path fill="none" stroke="black" d="M74.87,-209.7C80.13,-213.66 85.55,-218.21 90.04,-223 121.11,-256.11 148.27,-301.42 164.01,-330.2"/>
<polygon fill="black" stroke="black" points="160.74,-331.52 168.56,-338.67 166.91,-328.2 160.74,-331.52"/>
</g>
<!-- p0x7fd610000f90 -->
<g id="node9" class="node">
<title>p0x7fd610000f90</title>
<ellipse fill="none" stroke="black" cx="53.02" cy="-250" rx="32.41" ry="18"/>
<text text-anchor="middle" x="53.02" y="-244.95" font-family="Times,serif" font-size="14.00">pfg_4</text>
</g>
<!-- p0x7fd610000f90&#45;&gt;p0x1dcb6e0 -->
<g id="edge8" class="edge">
<title>p0x7fd610000f90&#45;&gt;p0x1dcb6e0</title>
<path fill="none" stroke="black" d="M73.73,-264.23C79.11,-268.25 84.87,-272.71 90.04,-277 111.93,-295.16 135.63,-317.01 152.97,-333.44"/>
<polygon fill="black" stroke="black" points="150.19,-335.62 159.84,-339.98 155.01,-330.55 150.19,-335.62"/>
</g>
<!-- p0x7fd6100010a0 -->
<g id="node10" class="node">
<title>p0x7fd6100010a0</title>
<ellipse fill="none" stroke="black" cx="53.02" cy="-304" rx="32.41" ry="18"/>
<text text-anchor="middle" x="53.02" y="-298.95" font-family="Times,serif" font-size="14.00">pfg_5</text>
</g>
<!-- p0x7fd6100010a0&#45;&gt;p0x1dcb6e0 -->
<g id="edge9" class="edge">
<title>p0x7fd6100010a0&#45;&gt;p0x1dcb6e0</title>
<path fill="none" stroke="black" d="M79.19,-314.93C95.29,-321.92 116.59,-331.16 135.33,-339.3"/>
<polygon fill="black" stroke="black" points="133.76,-342.43 144.33,-343.2 136.55,-336.01 133.76,-342.43"/>
</g>
<!-- p0x7fd6100011b0 -->
<g id="node11" class="node">
<title>p0x7fd6100011b0</title>
<ellipse fill="none" stroke="black" cx="53.02" cy="-358" rx="32.41" ry="18"/>
<text text-anchor="middle" x="53.02" y="-352.95" font-family="Times,serif" font-size="14.00">pfg_6</text>
</g>
<!-- p0x7fd6100011b0&#45;&gt;p0x1dcb6e0 -->
<g id="edge10" class="edge">
<title>p0x7fd6100011b0&#45;&gt;p0x1dcb6e0</title>
<path fill="none" stroke="black" d="M85.73,-358C94.93,-358 105.31,-358 115.71,-358"/>
<polygon fill="black" stroke="black" points="115.43,-361.5 125.43,-358 115.43,-354.5 115.43,-361.5"/>
</g>
<!-- p0x7fd6100012c0 -->
<g id="node12" class="node">
<title>p0x7fd6100012c0</title>
<ellipse fill="none" stroke="black" cx="53.02" cy="-412" rx="32.41" ry="18"/>
<text text-anchor="middle" x="53.02" y="-406.95" font-family="Times,serif" font-size="14.00">pfg_7</text>
</g>
<!-- p0x7fd6100012c0&#45;&gt;p0x1dcb6e0 -->
<g id="edge11" class="edge">
<title>p0x7fd6100012c0&#45;&gt;p0x1dcb6e0</title>
<path fill="none" stroke="black" d="M79.19,-401.07C95.29,-394.08 116.59,-384.84 135.33,-376.7"/>
<polygon fill="black" stroke="black" points="136.55,-379.99 144.33,-372.8 133.76,-373.57 136.55,-379.99"/>
</g>
<!-- p0x7fd6100013d0 -->
<g id="node13" class="node">
<title>p0x7fd6100013d0</title>
<ellipse fill="none" stroke="black" cx="53.02" cy="-466" rx="32.41" ry="18"/>
<text text-anchor="middle" x="53.02" y="-460.95" font-family="Times,serif" font-size="14.00">pfg_8</text>
</g>
<!-- p0x7fd6100013d0&#45;&gt;p0x1dcb6e0 -->
<g id="edge12" class="edge">
<title>p0x7fd6100013d0&#45;&gt;p0x1dcb6e0</title>
<path fill="none" stroke="black" d="M73.73,-451.77C79.11,-447.75 84.87,-443.29 90.04,-439 111.93,-420.84 135.63,-398.99 152.97,-382.56"/>
<polygon fill="black" stroke="black" points="155.01,-385.45 159.84,-376.02 150.19,-380.38 155.01,-385.45"/>
</g>
<!-- p0x7fd6100014e0 -->
<g id="node14" class="node">
<title>p0x7fd6100014e0</title>
<ellipse fill="none" stroke="black" cx="53.02" cy="-520" rx="32.41" ry="18"/>
<text text-anchor="middle" x="53.02" y="-514.95" font-family="Times,serif" font-size="14.00">pfg_9</text>
</g>
<!-- p0x7fd6100014e0&#45;&gt;p0x1dcb6e0 -->
<g id="edge13" class="edge">
<title>p0x7fd6100014e0&#45;&gt;p0x1dcb6e0</title>
<path fill="none" stroke="black" d="M74.87,-506.3C80.13,-502.34 85.55,-497.79 90.04,-493 121.11,-459.89 148.27,-414.58 164.01,-385.8"/>
<polygon fill="black" stroke="black" points="166.91,-387.8 168.56,-377.33 160.74,-384.48 166.91,-387.8"/>
</g>
<!-- p0x7fd6100015f0 -->
<g id="node15" class="node">
<title>p0x7fd6100015f0</title>
<ellipse fill="none" stroke="black" cx="53.02" cy="-574" rx="37.02" ry="18"/>
<text text-anchor="middle" x="53.02" y="-568.95" font-family="Times,serif" font-size="14.00">pfg_10</text>
</g>
<!-- p0x7fd6100015f0&#45;&gt;p0x1dcb6e0 -->
<g id="edge14" class="edge">
<title>p0x7fd6100015f0&#45;&gt;p0x1dcb6e0</title>
<path fill="none" stroke="black" d="M76.47,-559.85C81.35,-556.08 86.2,-551.73 90.04,-547 130.29,-497.47 157,-426.59 169.74,-387.21"/>
<polygon fill="black" stroke="black" points="173.06,-388.33 172.72,-377.74 166.38,-386.23 173.06,-388.33"/>
</g>
<!-- p0x7fd610001700 -->
<g id="node16" class="node">
<title>p0x7fd610001700</title>
<ellipse fill="none" stroke="black" cx="53.02" cy="-628" rx="37.02" ry="18"/>
<text text-anchor="middle" x="53.02" y="-622.95" font-family="Times,serif" font-size="14.00">pfg_11</text>
</g>
<!-- p0x7fd610001700&#45;&gt;p0x1dcb6e0 -->
<g id="edge15" class="edge">
<title>p0x7fd610001700&#45;&gt;p0x1dcb6e0</title>
<path fill="none" stroke="black" d="M76.78,-614.09C81.65,-610.32 86.41,-605.9 90.04,-601 139.84,-533.86 163.95,-435.82 173.4,-387.36"/>
<polygon fill="black" stroke="black" points="176.82,-388.11 175.21,-377.64 169.94,-386.83 176.82,-388.11"/>
</g>
<!-- p0x7fd610001810 -->
<g id="node17" class="node">
<title>p0x7fd610001810</title>
<ellipse fill="none" stroke="black" cx="53.02" cy="-682" rx="37.02" ry="18"/>
<text text-anchor="middle" x="53.02" y="-676.95" font-family="Times,serif" font-size="14.00">pfg_12</text>
</g>
<!-- p0x7fd610001810&#45;&gt;p0x1dcb6e0 -->
<g id="edge16" class="edge">
<title>p0x7fd610001810&#45;&gt;p0x1dcb6e0</title>
<path fill="none" stroke="black" d="M77.37,-667.95C82.09,-664.23 86.65,-659.87 90.04,-655 149.34,-569.87 169.45,-444.46 175.76,-387.76"/>
<polygon fill="black" stroke="black" points="179.23,-388.25 176.78,-377.94 172.27,-387.52 179.23,-388.25"/>
</g>
<!-- p0x1dcb900&#45;&gt;p0x1dcb5d0 -->
<g id="edge18" class="edge">
<title>p0x1dcb900&#45;&gt;p0x1dcb5d0</title>
<path fill="none" stroke="black" stroke-dasharray="5,2" d="M565.65,-334.36C580.52,-336.66 596.52,-339.92 610.89,-344.5 619.48,-347.24 628.36,-351.04 636.59,-355.02"/>
<polygon fill="black" stroke="black" points="634.77,-358.02 645.27,-359.42 637.94,-351.78 634.77,-358.02"/>
<text text-anchor="middle" x="607.52" y="-347.7" font-family="Times,serif" font-size="14.00">0</text>
</g>
</g>
</svg>
