<?xml version="1.0" encoding="UTF-8" standalone="no"?>
<!DOCTYPE svg PUBLIC "-//W3C//DTD SVG 1.1//EN"
 "http://www.w3.org/Graphics/SVG/1.1/DTD/svg11.dtd">
<!-- Generated by graphviz version 12.2.1 (20241206.2353)
 -->
<!-- Title: Taskflow Pages: 1 -->
<svg width="672pt" height="1268pt"
 viewBox="0.00 0.00 672.00 1268.00" xmlns="http://www.w3.org/2000/svg" xmlns:xlink="http://www.w3.org/1999/xlink">
<g id="graph0" class="graph" transform="scale(1 1) rotate(0) translate(4 1264)">
<title>Taskflow</title>
<polygon fill="white" stroke="none" points="-4,4 -4,-1264 668,-1264 668,4 -4,4"/>
<!-- p0x7f95e780b0d0 -->
<g id="node1" class="node">
<title>p0x7f95e780b0d0</title>
<ellipse fill="none" stroke="black" cx="245" cy="-1242" rx="27" ry="18"/>
<text text-anchor="middle" x="245" y="-1236.95" font-family="Times,serif" font-size="14.00">0</text>
</g>
<!-- p0x7f95e780ac50 -->
<g id="node2" class="node">
<title>p0x7f95e780ac50</title>
<ellipse fill="none" stroke="black" cx="233" cy="-1170" rx="27" ry="18"/>
<text text-anchor="middle" x="233" y="-1164.95" font-family="Times,serif" font-size="14.00">4</text>
</g>
<!-- p0x7f95e780b0d0&#45;&gt;p0x7f95e780ac50 -->
<g id="edge1" class="edge">
<title>p0x7f95e780b0d0&#45;&gt;p0x7f95e780ac50</title>
<path fill="none" stroke="black" d="M242.03,-1223.7C240.77,-1216.32 239.26,-1207.52 237.84,-1199.25"/>
<polygon fill="black" stroke="black" points="241.33,-1198.86 236.19,-1189.6 234.43,-1200.04 241.33,-1198.86"/>
</g>
<!-- p0x7f95e780ab30 -->
<g id="node3" class="node">
<title>p0x7f95e780ab30</title>
<ellipse fill="none" stroke="black" cx="419" cy="-1170" rx="27" ry="18"/>
<text text-anchor="middle" x="419" y="-1164.95" font-family="Times,serif" font-size="14.00">5</text>
</g>
<!-- p0x7f95e780b0d0&#45;&gt;p0x7f95e780ab30 -->
<g id="edge2" class="edge">
<title>p0x7f95e780b0d0&#45;&gt;p0x7f95e780ab30</title>
<path fill="none" stroke="black" d="M267.75,-1231.85C297.84,-1219.74 351.1,-1198.32 385.72,-1184.39"/>
<polygon fill="black" stroke="black" points="386.87,-1187.7 394.84,-1180.72 384.26,-1181.2 386.87,-1187.7"/>
</g>
<!-- p0x7f95e780a8f0 -->
<g id="node4" class="node">
<title>p0x7f95e780a8f0</title>
<ellipse fill="none" stroke="black" cx="326" cy="-1098" rx="27" ry="18"/>
<text text-anchor="middle" x="326" y="-1092.95" font-family="Times,serif" font-size="14.00">7</text>
</g>
<!-- p0x7f95e780b0d0&#45;&gt;p0x7f95e780a8f0 -->
<g id="edge3" class="edge">
<title>p0x7f95e780b0d0&#45;&gt;p0x7f95e780a8f0</title>
<path fill="none" stroke="black" d="M254.29,-1224.71C268.21,-1200.32 294.6,-1154.05 311.19,-1124.97"/>
<polygon fill="black" stroke="black" points="314.15,-1126.83 316.07,-1116.41 308.07,-1123.37 314.15,-1126.83"/>
</g>
<!-- p0x7f95e780a7d0 -->
<g id="node5" class="node">
<title>p0x7f95e780a7d0</title>
<ellipse fill="none" stroke="black" cx="157" cy="-1026" rx="27" ry="18"/>
<text text-anchor="middle" x="157" y="-1020.95" font-family="Times,serif" font-size="14.00">8</text>
</g>
<!-- p0x7f95e780b0d0&#45;&gt;p0x7f95e780a7d0 -->
<g id="edge4" class="edge">
<title>p0x7f95e780b0d0&#45;&gt;p0x7f95e780a7d0</title>
<path fill="none" stroke="black" d="M221.63,-1232.7C202.48,-1224.53 176.55,-1210.05 164,-1188 140.36,-1146.46 145.15,-1088.65 150.96,-1054.8"/>
<polygon fill="black" stroke="black" points="154.32,-1055.85 152.73,-1045.37 147.45,-1054.55 154.32,-1055.85"/>
</g>
<!-- p0x7f95e780ac50&#45;&gt;p0x7f95e780a8f0 -->
<g id="edge18" class="edge">
<title>p0x7f95e780ac50&#45;&gt;p0x7f95e780a8f0</title>
<path fill="none" stroke="black" d="M250.49,-1155.83C264.39,-1145.37 284.05,-1130.58 299.82,-1118.7"/>
<polygon fill="black" stroke="black" points="301.49,-1121.83 307.38,-1113.02 297.28,-1116.24 301.49,-1121.83"/>
</g>
<!-- p0x7f95e780ac50&#45;&gt;p0x7f95e780a7d0 -->
<g id="edge19" class="edge">
<title>p0x7f95e780ac50&#45;&gt;p0x7f95e780a7d0</title>
<path fill="none" stroke="black" d="M226.18,-1152.22C218.57,-1134.05 205.56,-1104.38 192,-1080 186.84,-1070.72 180.61,-1060.92 174.84,-1052.31"/>
<polygon fill="black" stroke="black" points="177.76,-1050.38 169.23,-1044.09 171.98,-1054.32 177.76,-1050.38"/>
</g>
<!-- p0x7f95e780aa10 -->
<g id="node7" class="node">
<title>p0x7f95e780aa10</title>
<ellipse fill="none" stroke="black" cx="512" cy="-1098" rx="27" ry="18"/>
<text text-anchor="middle" x="512" y="-1092.95" font-family="Times,serif" font-size="14.00">6</text>
</g>
<!-- p0x7f95e780ac50&#45;&gt;p0x7f95e780aa10 -->
<g id="edge17" class="edge">
<title>p0x7f95e780ac50&#45;&gt;p0x7f95e780aa10</title>
<path fill="none" stroke="black" d="M257.76,-1162.79C307.17,-1150.39 418.19,-1122.54 475.79,-1108.09"/>
<polygon fill="black" stroke="black" points="476.58,-1111.5 485.43,-1105.67 474.88,-1104.71 476.58,-1111.5"/>
</g>
<!-- p0x7f95e780a6b0 -->
<g id="node8" class="node">
<title>p0x7f95e780a6b0</title>
<ellipse fill="none" stroke="black" cx="364" cy="-1026" rx="27" ry="18"/>
<text text-anchor="middle" x="364" y="-1020.95" font-family="Times,serif" font-size="14.00">9</text>
</g>
<!-- p0x7f95e780ac50&#45;&gt;p0x7f95e780a6b0 -->
<g id="edge20" class="edge">
<title>p0x7f95e780ac50&#45;&gt;p0x7f95e780a6b0</title>
<path fill="none" stroke="black" d="M241.05,-1152.61C250.86,-1133.7 268.78,-1102.36 290,-1080 303,-1066.31 319.97,-1053.86 334.39,-1044.47"/>
<polygon fill="black" stroke="black" points="336.01,-1047.59 342.6,-1039.29 332.27,-1041.67 336.01,-1047.59"/>
</g>
<!-- p0x7f95e780ab30&#45;&gt;p0x7f95e780a8f0 -->
<g id="edge21" class="edge">
<title>p0x7f95e780ab30&#45;&gt;p0x7f95e780a8f0</title>
<path fill="none" stroke="black" d="M401.51,-1155.83C387.61,-1145.37 367.95,-1130.58 352.18,-1118.7"/>
<polygon fill="black" stroke="black" points="354.72,-1116.24 344.62,-1113.02 350.51,-1121.83 354.72,-1116.24"/>
</g>
<!-- p0x7f95e780ab30&#45;&gt;p0x7f95e780a6b0 -->
<g id="edge22" class="edge">
<title>p0x7f95e780ab30&#45;&gt;p0x7f95e780a6b0</title>
<path fill="none" stroke="black" d="M412.47,-1152.15C403.13,-1128.03 385.83,-1083.36 374.62,-1054.43"/>
<polygon fill="black" stroke="black" points="377.94,-1053.3 371.06,-1045.24 371.41,-1055.83 377.94,-1053.3"/>
</g>
<!-- p0x7f95e780a470 -->
<g id="node11" class="node">
<title>p0x7f95e780a470</title>
<ellipse fill="none" stroke="black" cx="419" cy="-954" rx="27" ry="18"/>
<text text-anchor="middle" x="419" y="-948.95" font-family="Times,serif" font-size="14.00">11</text>
</g>
<!-- p0x7f95e780ab30&#45;&gt;p0x7f95e780a470 -->
<g id="edge23" class="edge">
<title>p0x7f95e780ab30&#45;&gt;p0x7f95e780a470</title>
<path fill="none" stroke="black" d="M419,-1151.85C419,-1115.14 419,-1028.66 419,-983.53"/>
<polygon fill="black" stroke="black" points="422.5,-983.75 419,-973.75 415.5,-983.75 422.5,-983.75"/>
</g>
<!-- p0x7f95e780a110 -->
<g id="node12" class="node">
<title>p0x7f95e780a110</title>
<ellipse fill="none" stroke="black" cx="453" cy="-738" rx="27" ry="18"/>
<text text-anchor="middle" x="453" y="-732.95" font-family="Times,serif" font-size="14.00">14</text>
</g>
<!-- p0x7f95e780ab30&#45;&gt;p0x7f95e780a110 -->
<g id="edge24" class="edge">
<title>p0x7f95e780ab30&#45;&gt;p0x7f95e780a110</title>
<path fill="none" stroke="black" d="M445.69,-1166.16C509.18,-1157.76 664,-1127.05 664,-1027 664,-1027 664,-1027 664,-881 664,-833.3 641.99,-820.86 604,-792 563.71,-761.39 543.54,-773.31 496,-756 492.78,-754.83 489.45,-753.58 486.12,-752.3"/>
<polygon fill="black" stroke="black" points="487.67,-749.15 477.08,-748.78 485.13,-755.67 487.67,-749.15"/>
</g>
<!-- p0x7f95e780a8f0&#45;&gt;p0x7f95e780a7d0 -->
<g id="edge29" class="edge">
<title>p0x7f95e780a8f0&#45;&gt;p0x7f95e780a7d0</title>
<path fill="none" stroke="black" d="M303.34,-1087.62C277.76,-1077.03 234.89,-1059.28 198,-1044 195.38,-1042.92 192.67,-1041.79 189.95,-1040.66"/>
<polygon fill="black" stroke="black" points="191.53,-1037.53 180.95,-1036.93 188.85,-1044 191.53,-1037.53"/>
</g>
<!-- p0x7f95e780a8f0&#45;&gt;p0x7f95e780a6b0 -->
<g id="edge30" class="edge">
<title>p0x7f95e780a8f0&#45;&gt;p0x7f95e780a6b0</title>
<path fill="none" stroke="black" d="M334.81,-1080.76C339.27,-1072.55 344.8,-1062.37 349.84,-1053.09"/>
<polygon fill="black" stroke="black" points="352.82,-1054.94 354.51,-1044.48 346.67,-1051.6 352.82,-1054.94"/>
</g>
<!-- p0x7f95e780a590 -->
<g id="node13" class="node">
<title>p0x7f95e780a590</title>
<ellipse fill="none" stroke="black" cx="512" cy="-1026" rx="27" ry="18"/>
<text text-anchor="middle" x="512" y="-1020.95" font-family="Times,serif" font-size="14.00">10</text>
</g>
<!-- p0x7f95e780a8f0&#45;&gt;p0x7f95e780a590 -->
<g id="edge31" class="edge">
<title>p0x7f95e780a8f0&#45;&gt;p0x7f95e780a590</title>
<path fill="none" stroke="black" d="M349.18,-1088.28C381.71,-1076.03 441.09,-1053.68 478.45,-1039.63"/>
<polygon fill="black" stroke="black" points="479.28,-1043.05 487.4,-1036.26 476.81,-1036.5 479.28,-1043.05"/>
</g>
<!-- p0x7f95e780a230 -->
<g id="node15" class="node">
<title>p0x7f95e780a230</title>
<ellipse fill="none" stroke="black" cx="267" cy="-810" rx="27" ry="18"/>
<text text-anchor="middle" x="267" y="-804.95" font-family="Times,serif" font-size="14.00">13</text>
</g>
<!-- p0x7f95e780a8f0&#45;&gt;p0x7f95e780a230 -->
<g id="edge32" class="edge">
<title>p0x7f95e780a8f0&#45;&gt;p0x7f95e780a230</title>
<path fill="none" stroke="black" d="M311.31,-1082.38C281.77,-1051.82 216.06,-977.52 193,-900 188.44,-884.66 185.69,-878.23 193,-864 201.77,-846.94 218.86,-834.14 234.41,-825.4"/>
<polygon fill="black" stroke="black" points="235.72,-828.66 242.97,-820.93 232.48,-822.46 235.72,-828.66"/>
</g>
<!-- p0x7f95e780a7d0&#45;&gt;p0x7f95e780a470 -->
<g id="edge33" class="edge">
<title>p0x7f95e780a7d0&#45;&gt;p0x7f95e780a470</title>
<path fill="none" stroke="black" d="M181.65,-1018.41C228.17,-1005.99 329.08,-979.02 383.13,-964.58"/>
<polygon fill="black" stroke="black" points="384.01,-967.97 392.76,-962.01 382.2,-961.21 384.01,-967.97"/>
</g>
<!-- p0x7f95e780a7d0&#45;&gt;p0x7f95e780a110 -->
<g id="edge36" class="edge">
<title>p0x7f95e780a7d0&#45;&gt;p0x7f95e780a110</title>
<path fill="none" stroke="black" d="M171.68,-1010.82C219.61,-964.5 371.8,-817.45 430.03,-761.19"/>
<polygon fill="black" stroke="black" points="432.38,-763.79 437.14,-754.32 427.52,-758.75 432.38,-763.79"/>
</g>
<!-- p0x7f95e780a350 -->
<g id="node14" class="node">
<title>p0x7f95e780a350</title>
<ellipse fill="none" stroke="black" cx="229" cy="-882" rx="27" ry="18"/>
<text text-anchor="middle" x="229" y="-876.95" font-family="Times,serif" font-size="14.00">12</text>
</g>
<!-- p0x7f95e780a7d0&#45;&gt;p0x7f95e780a350 -->
<g id="edge34" class="edge">
<title>p0x7f95e780a7d0&#45;&gt;p0x7f95e780a350</title>
<path fill="none" stroke="black" d="M165.4,-1008.43C177.7,-984.17 200.75,-938.71 215.46,-909.7"/>
<polygon fill="black" stroke="black" points="218.57,-911.31 219.97,-900.81 212.32,-908.15 218.57,-911.31"/>
</g>
<!-- p0x7f95e780a7d0&#45;&gt;p0x7f95e780a230 -->
<g id="edge35" class="edge">
<title>p0x7f95e780a7d0&#45;&gt;p0x7f95e780a230</title>
<path fill="none" stroke="black" d="M151.95,-1007.86C143.82,-976.53 131.42,-909.1 160,-864 175.42,-839.66 205.64,-826.13 230.04,-818.84"/>
<polygon fill="black" stroke="black" points="230.92,-822.23 239.65,-816.23 229.08,-815.47 230.92,-822.23"/>
</g>
<!-- p0x7f95e780afb0 -->
<g id="node6" class="node">
<title>p0x7f95e780afb0</title>
<ellipse fill="none" stroke="black" cx="483" cy="-1242" rx="27" ry="18"/>
<text text-anchor="middle" x="483" y="-1236.95" font-family="Times,serif" font-size="14.00">1</text>
</g>
<!-- p0x7f95e780afb0&#45;&gt;p0x7f95e780ab30 -->
<g id="edge5" class="edge">
<title>p0x7f95e780afb0&#45;&gt;p0x7f95e780ab30</title>
<path fill="none" stroke="black" d="M469.43,-1226.15C460.94,-1216.87 449.83,-1204.73 440.2,-1194.19"/>
<polygon fill="black" stroke="black" points="442.91,-1191.96 433.57,-1186.94 437.74,-1196.68 442.91,-1191.96"/>
</g>
<!-- p0x7f95e780afb0&#45;&gt;p0x7f95e780a8f0 -->
<g id="edge7" class="edge">
<title>p0x7f95e780afb0&#45;&gt;p0x7f95e780a8f0</title>
<path fill="none" stroke="black" d="M481.87,-1223.79C479.71,-1204.11 473.41,-1172.04 455,-1152 430.93,-1125.79 391.97,-1112.2 363.16,-1105.39"/>
<polygon fill="black" stroke="black" points="364.27,-1102.05 353.76,-1103.34 362.78,-1108.89 364.27,-1102.05"/>
</g>
<!-- p0x7f95e780afb0&#45;&gt;p0x7f95e780aa10 -->
<g id="edge6" class="edge">
<title>p0x7f95e780afb0&#45;&gt;p0x7f95e780aa10</title>
<path fill="none" stroke="black" d="M506.61,-1232.83C525.92,-1224.75 551.93,-1210.32 564,-1188 571.61,-1173.93 570.05,-1166.81 564,-1152 558.81,-1139.3 548.95,-1128 539.2,-1119.13"/>
<polygon fill="black" stroke="black" points="541.46,-1116.46 531.57,-1112.68 536.94,-1121.81 541.46,-1116.46"/>
</g>
<!-- p0x7f95e780afb0&#45;&gt;p0x7f95e780a6b0 -->
<g id="edge8" class="edge">
<title>p0x7f95e780afb0&#45;&gt;p0x7f95e780a6b0</title>
<path fill="none" stroke="black" d="M508.21,-1235.19C531.69,-1228.29 565.35,-1214.25 581,-1188 606.7,-1144.89 586.04,-1112.74 548,-1080 525.99,-1061.06 448.34,-1043.29 401.23,-1033.91"/>
<polygon fill="black" stroke="black" points="401.94,-1030.48 391.45,-1032 400.59,-1037.35 401.94,-1030.48"/>
</g>
<!-- p0x7f95e780aa10&#45;&gt;p0x7f95e780a6b0 -->
<g id="edge25" class="edge">
<title>p0x7f95e780aa10&#45;&gt;p0x7f95e780a6b0</title>
<path fill="none" stroke="black" d="M490.48,-1086.82C465.6,-1075.05 424.41,-1055.57 395.82,-1042.05"/>
<polygon fill="black" stroke="black" points="397.45,-1038.95 386.91,-1037.84 394.46,-1045.28 397.45,-1038.95"/>
</g>
<!-- p0x7f95e780aa10&#45;&gt;p0x7f95e780a110 -->
<g id="edge28" class="edge">
<title>p0x7f95e780aa10&#45;&gt;p0x7f95e780a110</title>
<path fill="none" stroke="black" d="M531.34,-1085.19C563.86,-1063.67 626,-1014.75 626,-955 626,-955 626,-955 626,-881 626,-810.38 538.8,-768.46 488.21,-750.08"/>
<polygon fill="black" stroke="black" points="489.44,-746.81 478.85,-746.81 487.14,-753.41 489.44,-746.81"/>
</g>
<!-- p0x7f95e780aa10&#45;&gt;p0x7f95e780a590 -->
<g id="edge26" class="edge">
<title>p0x7f95e780aa10&#45;&gt;p0x7f95e780a590</title>
<path fill="none" stroke="black" d="M512,-1079.7C512,-1072.41 512,-1063.73 512,-1055.54"/>
<polygon fill="black" stroke="black" points="515.5,-1055.62 512,-1045.62 508.5,-1055.62 515.5,-1055.62"/>
</g>
<!-- p0x7f95e780aa10&#45;&gt;p0x7f95e780a350 -->
<g id="edge27" class="edge">
<title>p0x7f95e780aa10&#45;&gt;p0x7f95e780a350</title>
<path fill="none" stroke="black" d="M484.97,-1094.75C446.85,-1090.43 376.54,-1078.13 328,-1044 280.69,-1010.73 251.59,-946.95 238.06,-910.44"/>
<polygon fill="black" stroke="black" points="241.52,-909.72 234.86,-901.48 234.93,-912.07 241.52,-909.72"/>
</g>
<!-- p0x7f95e780a6b0&#45;&gt;p0x7f95e780a470 -->
<g id="edge37" class="edge">
<title>p0x7f95e780a6b0&#45;&gt;p0x7f95e780a470</title>
<path fill="none" stroke="black" d="M376.21,-1009.46C383.11,-1000.67 391.91,-989.48 399.73,-979.53"/>
<polygon fill="black" stroke="black" points="402.47,-981.71 405.89,-971.68 396.96,-977.38 402.47,-981.71"/>
</g>
<!-- p0x7f95e780a6b0&#45;&gt;p0x7f95e780a110 -->
<g id="edge40" class="edge">
<title>p0x7f95e780a6b0&#45;&gt;p0x7f95e780a110</title>
<path fill="none" stroke="black" d="M388.68,-1018.21C410.43,-1010.78 440.79,-996.52 455,-972 492.78,-906.8 474.52,-813.11 461.77,-766.92"/>
<polygon fill="black" stroke="black" points="465.17,-766.08 459.03,-757.44 458.44,-768.02 465.17,-766.08"/>
</g>
<!-- p0x7f95e780a6b0&#45;&gt;p0x7f95e780a350 -->
<g id="edge38" class="edge">
<title>p0x7f95e780a6b0&#45;&gt;p0x7f95e780a350</title>
<path fill="none" stroke="black" d="M350.06,-1010.34C326.52,-985.57 278.71,-935.28 250.73,-905.85"/>
<polygon fill="black" stroke="black" points="253.54,-903.73 244.11,-898.89 248.46,-908.55 253.54,-903.73"/>
</g>
<!-- p0x7f95e780a6b0&#45;&gt;p0x7f95e780a230 -->
<g id="edge39" class="edge">
<title>p0x7f95e780a6b0&#45;&gt;p0x7f95e780a230</title>
<path fill="none" stroke="black" d="M356.55,-1008.56C339.9,-971.84 299.56,-882.84 279.2,-837.91"/>
<polygon fill="black" stroke="black" points="282.42,-836.53 275.1,-828.87 276.04,-839.42 282.42,-836.53"/>
</g>
<!-- p0x7f95e780ae90 -->
<g id="node9" class="node">
<title>p0x7f95e780ae90</title>
<ellipse fill="none" stroke="black" cx="336" cy="-1242" rx="27" ry="18"/>
<text text-anchor="middle" x="336" y="-1236.95" font-family="Times,serif" font-size="14.00">2</text>
</g>
<!-- p0x7f95e780ae90&#45;&gt;p0x7f95e780ab30 -->
<g id="edge9" class="edge">
<title>p0x7f95e780ae90&#45;&gt;p0x7f95e780ab30</title>
<path fill="none" stroke="black" d="M352.4,-1227.17C364.22,-1217.2 380.4,-1203.56 393.85,-1192.21"/>
<polygon fill="black" stroke="black" points="396.09,-1194.9 401.48,-1185.78 391.58,-1189.55 396.09,-1194.9"/>
</g>
<!-- p0x7f95e780ae90&#45;&gt;p0x7f95e780a8f0 -->
<g id="edge11" class="edge">
<title>p0x7f95e780ae90&#45;&gt;p0x7f95e780a8f0</title>
<path fill="none" stroke="black" d="M334.77,-1223.59C333.09,-1199.61 330.02,-1156.14 328,-1127.42"/>
<polygon fill="black" stroke="black" points="331.51,-1127.35 327.31,-1117.62 324.52,-1127.84 331.51,-1127.35"/>
</g>
<!-- p0x7f95e780ae90&#45;&gt;p0x7f95e780a7d0 -->
<g id="edge12" class="edge">
<title>p0x7f95e780ae90&#45;&gt;p0x7f95e780a7d0</title>
<path fill="none" stroke="black" d="M311.99,-1233.19C274.36,-1220.77 204.94,-1196.96 197,-1188 179.74,-1168.52 166.91,-1096.3 160.86,-1055.52"/>
<polygon fill="black" stroke="black" points="164.34,-1055.1 159.45,-1045.7 157.41,-1056.09 164.34,-1055.1"/>
</g>
<!-- p0x7f95e780ae90&#45;&gt;p0x7f95e780aa10 -->
<g id="edge10" class="edge">
<title>p0x7f95e780ae90&#45;&gt;p0x7f95e780aa10</title>
<path fill="none" stroke="black" d="M358.1,-1231.1C363.31,-1228.77 368.85,-1226.3 374,-1224 409.98,-1207.96 425.12,-1213.67 455,-1188 474.76,-1171.03 490.13,-1145.52 499.9,-1126.16"/>
<polygon fill="black" stroke="black" points="503.02,-1127.74 504.22,-1117.21 496.72,-1124.7 503.02,-1127.74"/>
</g>
<!-- p0x7f95e780ad70 -->
<g id="node10" class="node">
<title>p0x7f95e780ad70</title>
<ellipse fill="none" stroke="black" cx="410" cy="-1242" rx="27" ry="18"/>
<text text-anchor="middle" x="410" y="-1236.95" font-family="Times,serif" font-size="14.00">3</text>
</g>
<!-- p0x7f95e780ad70&#45;&gt;p0x7f95e780ac50 -->
<g id="edge13" class="edge">
<title>p0x7f95e780ad70&#45;&gt;p0x7f95e780ac50</title>
<path fill="none" stroke="black" d="M388.39,-1231.08C383.06,-1228.7 377.34,-1226.21 372,-1224 336.4,-1209.26 295.08,-1193.7 266.8,-1183.28"/>
<polygon fill="black" stroke="black" points="268.29,-1180.1 257.7,-1179.94 265.88,-1186.67 268.29,-1180.1"/>
</g>
<!-- p0x7f95e780ad70&#45;&gt;p0x7f95e780ab30 -->
<g id="edge14" class="edge">
<title>p0x7f95e780ad70&#45;&gt;p0x7f95e780ab30</title>
<path fill="none" stroke="black" d="M412.22,-1223.7C413.17,-1216.32 414.3,-1207.52 415.37,-1199.25"/>
<polygon fill="black" stroke="black" points="418.8,-1199.97 416.61,-1189.61 411.86,-1199.08 418.8,-1199.97"/>
</g>
<!-- p0x7f95e780ad70&#45;&gt;p0x7f95e780a8f0 -->
<g id="edge16" class="edge">
<title>p0x7f95e780ad70&#45;&gt;p0x7f95e780a8f0</title>
<path fill="none" stroke="black" d="M400.36,-1224.71C385.93,-1200.32 358.57,-1154.05 341.36,-1124.97"/>
<polygon fill="black" stroke="black" points="344.4,-1123.23 336.29,-1116.4 338.37,-1126.79 344.4,-1123.23"/>
</g>
<!-- p0x7f95e780ad70&#45;&gt;p0x7f95e780aa10 -->
<g id="edge15" class="edge">
<title>p0x7f95e780ad70&#45;&gt;p0x7f95e780aa10</title>
<path fill="none" stroke="black" d="M431.91,-1230.92C436.87,-1228.64 442.11,-1226.24 447,-1224 482.09,-1207.95 505.13,-1220.45 526,-1188 537.83,-1169.61 532.57,-1144.77 525.35,-1126"/>
<polygon fill="black" stroke="black" points="528.6,-1124.7 521.46,-1116.88 522.16,-1127.45 528.6,-1124.7"/>
</g>
<!-- p0x7f95e780a470&#45;&gt;p0x7f95e780a110 -->
<g id="edge47" class="edge">
<title>p0x7f95e780a470&#45;&gt;p0x7f95e780a110</title>
<path fill="none" stroke="black" d="M421.72,-935.85C427.56,-899.14 441.3,-812.66 448.47,-767.53"/>
<polygon fill="black" stroke="black" points="451.91,-768.15 450.02,-757.73 445,-767.05 451.91,-768.15"/>
</g>
<!-- p0x7f95e780a470&#45;&gt;p0x7f95e780a350 -->
<g id="edge45" class="edge">
<title>p0x7f95e780a470&#45;&gt;p0x7f95e780a350</title>
<path fill="none" stroke="black" d="M395.7,-944.42C362.42,-932.16 301.07,-909.55 262.8,-895.45"/>
<polygon fill="black" stroke="black" points="264.2,-892.24 253.61,-892.07 261.78,-898.81 264.2,-892.24"/>
</g>
<!-- p0x7f95e780a470&#45;&gt;p0x7f95e780a230 -->
<g id="edge46" class="edge">
<title>p0x7f95e780a470&#45;&gt;p0x7f95e780a230</title>
<path fill="none" stroke="black" d="M403.87,-938.87C377.24,-913.99 321.83,-862.22 290.29,-832.76"/>
<polygon fill="black" stroke="black" points="292.87,-830.38 283.17,-826.11 288.09,-835.49 292.87,-830.38"/>
</g>
<!-- p0x7f95e7809ed0 -->
<g id="node16" class="node">
<title>p0x7f95e7809ed0</title>
<ellipse fill="none" stroke="black" cx="450" cy="-666" rx="27" ry="18"/>
<text text-anchor="middle" x="450" y="-660.95" font-family="Times,serif" font-size="14.00">16</text>
</g>
<!-- p0x7f95e780a470&#45;&gt;p0x7f95e7809ed0 -->
<g id="edge48" class="edge">
<title>p0x7f95e780a470&#45;&gt;p0x7f95e7809ed0</title>
<path fill="none" stroke="black" d="M415.62,-935.89C408.56,-896.74 394.71,-797.98 417,-720 419.87,-709.96 425.25,-699.98 430.85,-691.42"/>
<polygon fill="black" stroke="black" points="433.63,-693.56 436.51,-683.36 427.9,-689.53 433.63,-693.56"/>
</g>
<!-- p0x7f95e780a110&#45;&gt;p0x7f95e7809ed0 -->
<g id="edge57" class="edge">
<title>p0x7f95e780a110&#45;&gt;p0x7f95e7809ed0</title>
<path fill="none" stroke="black" d="M452.26,-719.7C451.95,-712.41 451.57,-703.73 451.22,-695.54"/>
<polygon fill="black" stroke="black" points="454.72,-695.46 450.8,-685.62 447.73,-695.76 454.72,-695.46"/>
</g>
<!-- p0x7f95e7809db0 -->
<g id="node17" class="node">
<title>p0x7f95e7809db0</title>
<ellipse fill="none" stroke="black" cx="210" cy="-594" rx="27" ry="18"/>
<text text-anchor="middle" x="210" y="-588.95" font-family="Times,serif" font-size="14.00">17</text>
</g>
<!-- p0x7f95e780a110&#45;&gt;p0x7f95e7809db0 -->
<g id="edge58" class="edge">
<title>p0x7f95e780a110&#45;&gt;p0x7f95e7809db0</title>
<path fill="none" stroke="black" d="M430.6,-727.62C407.61,-717.72 371.07,-701.19 341,-684 303.33,-662.46 262.31,-633.65 236.39,-614.72"/>
<polygon fill="black" stroke="black" points="238.59,-611.99 228.46,-608.88 234.44,-617.63 238.59,-611.99"/>
</g>
<!-- p0x7f95e7809810 -->
<g id="node19" class="node">
<title>p0x7f95e7809810</title>
<ellipse fill="none" stroke="black" cx="469" cy="-378" rx="27" ry="18"/>
<text text-anchor="middle" x="469" y="-372.95" font-family="Times,serif" font-size="14.00">22</text>
</g>
<!-- p0x7f95e780a110&#45;&gt;p0x7f95e7809810 -->
<g id="edge60" class="edge">
<title>p0x7f95e780a110&#45;&gt;p0x7f95e7809810</title>
<path fill="none" stroke="black" d="M474.83,-727.05C492.42,-718.05 516.67,-703.25 532,-684 558.37,-650.87 566,-637.34 566,-595 566,-595 566,-595 566,-521 566,-480.03 565.24,-465.74 542,-432 531.39,-416.59 514.79,-404.03 500.1,-395"/>
<polygon fill="black" stroke="black" points="502.04,-392.09 491.64,-390.09 498.53,-398.14 502.04,-392.09"/>
</g>
<!-- p0x7f95e7809930 -->
<g id="node21" class="node">
<title>p0x7f95e7809930</title>
<ellipse fill="none" stroke="black" cx="55" cy="-378" rx="27" ry="18"/>
<text text-anchor="middle" x="55" y="-372.95" font-family="Times,serif" font-size="14.00">21</text>
</g>
<!-- p0x7f95e780a110&#45;&gt;p0x7f95e7809930 -->
<g id="edge59" class="edge">
<title>p0x7f95e780a110&#45;&gt;p0x7f95e7809930</title>
<path fill="none" stroke="black" d="M426.87,-732.67C371.92,-722.18 243.71,-690.29 174,-612 117.47,-548.52 80,-453.34 63.93,-406.73"/>
<polygon fill="black" stroke="black" points="67.3,-405.76 60.79,-397.4 60.66,-408 67.3,-405.76"/>
</g>
<!-- p0x7f95e780a590&#45;&gt;p0x7f95e780a470 -->
<g id="edge41" class="edge">
<title>p0x7f95e780a590&#45;&gt;p0x7f95e780a470</title>
<path fill="none" stroke="black" d="M494.51,-1011.83C480.61,-1001.37 460.95,-986.58 445.18,-974.7"/>
<polygon fill="black" stroke="black" points="447.72,-972.24 437.62,-969.02 443.51,-977.83 447.72,-972.24"/>
</g>
<!-- p0x7f95e780a590&#45;&gt;p0x7f95e780a110 -->
<g id="edge42" class="edge">
<title>p0x7f95e780a590&#45;&gt;p0x7f95e780a110</title>
<path fill="none" stroke="black" d="M518.46,-1008.3C532.82,-968.35 563.27,-865.11 526,-792 517.36,-775.06 500.5,-762.27 485.16,-753.5"/>
<polygon fill="black" stroke="black" points="487.2,-750.62 476.73,-749.02 483.92,-756.8 487.2,-750.62"/>
</g>
<!-- p0x7f95e780a590&#45;&gt;p0x7f95e7809ed0 -->
<g id="edge43" class="edge">
<title>p0x7f95e780a590&#45;&gt;p0x7f95e7809ed0</title>
<path fill="none" stroke="black" d="M525.15,-1009.86C533.13,-999.81 542.74,-985.95 548,-972 576.22,-897.14 577.4,-865.59 546,-792 528.77,-751.61 495.41,-712.73 472.92,-689.35"/>
<polygon fill="black" stroke="black" points="475.45,-686.93 465.95,-682.25 470.46,-691.84 475.45,-686.93"/>
</g>
<!-- p0x7f95e780a590&#45;&gt;p0x7f95e7809db0 -->
<g id="edge44" class="edge">
<title>p0x7f95e780a590&#45;&gt;p0x7f95e7809db0</title>
<path fill="none" stroke="black" d="M502.16,-1009.08C490.99,-991.14 472.11,-961.2 455,-936 373.12,-815.37 269.65,-675.1 228.29,-619.5"/>
<polygon fill="black" stroke="black" points="231.22,-617.57 222.44,-611.64 225.6,-621.75 231.22,-617.57"/>
</g>
<!-- p0x7f95e780a350&#45;&gt;p0x7f95e780a230 -->
<g id="edge49" class="edge">
<title>p0x7f95e780a350&#45;&gt;p0x7f95e780a230</title>
<path fill="none" stroke="black" d="M237.81,-864.76C242.27,-856.55 247.8,-846.37 252.84,-837.09"/>
<polygon fill="black" stroke="black" points="255.82,-838.94 257.51,-828.48 249.67,-835.6 255.82,-838.94"/>
</g>
<!-- p0x7f95e780a350&#45;&gt;p0x7f95e7809db0 -->
<g id="edge50" class="edge">
<title>p0x7f95e780a350&#45;&gt;p0x7f95e7809db0</title>
<path fill="none" stroke="black" d="M225.92,-863.8C219.35,-825.27 204.71,-729.03 207,-648 207.22,-640.05 207.64,-631.43 208.09,-623.5"/>
<polygon fill="black" stroke="black" points="211.57,-623.88 208.69,-613.69 204.59,-623.45 211.57,-623.88"/>
</g>
<!-- p0x7f95e7809a50 -->
<g id="node18" class="node">
<title>p0x7f95e7809a50</title>
<ellipse fill="none" stroke="black" cx="169" cy="-450" rx="27" ry="18"/>
<text text-anchor="middle" x="169" y="-444.95" font-family="Times,serif" font-size="14.00">20</text>
</g>
<!-- p0x7f95e780a350&#45;&gt;p0x7f95e7809a50 -->
<g id="edge51" class="edge">
<title>p0x7f95e780a350&#45;&gt;p0x7f95e7809a50</title>
<path fill="none" stroke="black" d="M204.44,-873.73C156.48,-857.84 55,-815.23 55,-739 55,-739 55,-739 55,-593 55,-538.62 106.47,-493.2 140.24,-469.26"/>
<polygon fill="black" stroke="black" points="142.14,-472.2 148.41,-463.67 138.18,-466.43 142.14,-472.2"/>
</g>
<!-- p0x7f95e780a350&#45;&gt;p0x7f95e7809810 -->
<g id="edge52" class="edge">
<title>p0x7f95e780a350&#45;&gt;p0x7f95e7809810</title>
<path fill="none" stroke="black" d="M247.77,-868.61C263.05,-858.27 284.96,-842.89 303,-828 356.83,-783.58 360.18,-760.53 417,-720 445.16,-699.91 467.97,-713.52 486,-684 540.32,-595.09 501.25,-463.01 480.14,-406.39"/>
<polygon fill="black" stroke="black" points="483.47,-405.29 476.62,-397.21 476.94,-407.8 483.47,-405.29"/>
</g>
<!-- p0x7f95e780a230&#45;&gt;p0x7f95e780a110 -->
<g id="edge53" class="edge">
<title>p0x7f95e780a230&#45;&gt;p0x7f95e780a110</title>
<path fill="none" stroke="black" d="M290.18,-800.28C322.71,-788.03 382.09,-765.68 419.45,-751.63"/>
<polygon fill="black" stroke="black" points="420.28,-755.05 428.4,-748.26 417.81,-748.5 420.28,-755.05"/>
</g>
<!-- p0x7f95e780a230&#45;&gt;p0x7f95e7809ed0 -->
<g id="edge54" class="edge">
<title>p0x7f95e780a230&#45;&gt;p0x7f95e7809ed0</title>
<path fill="none" stroke="black" d="M278.1,-793.23C292.19,-774.06 318.05,-741.61 346,-720 358.12,-710.63 392.19,-693.85 418.06,-681.67"/>
<polygon fill="black" stroke="black" points="419.26,-684.97 426.84,-677.57 416.3,-678.63 419.26,-684.97"/>
</g>
<!-- p0x7f95e780a230&#45;&gt;p0x7f95e7809db0 -->
<g id="edge55" class="edge">
<title>p0x7f95e780a230&#45;&gt;p0x7f95e7809db0</title>
<path fill="none" stroke="black" d="M254.27,-793.78C246.55,-783.7 237.2,-769.83 232,-756 215.36,-711.75 211.08,-656.44 210.1,-623.51"/>
<polygon fill="black" stroke="black" points="213.61,-623.5 209.91,-613.57 206.61,-623.64 213.61,-623.5"/>
</g>
<!-- p0x7f95e7809c90 -->
<g id="node20" class="node">
<title>p0x7f95e7809c90</title>
<ellipse fill="none" stroke="black" cx="283" cy="-594" rx="27" ry="18"/>
<text text-anchor="middle" x="283" y="-588.95" font-family="Times,serif" font-size="14.00">18</text>
</g>
<!-- p0x7f95e780a230&#45;&gt;p0x7f95e7809c90 -->
<g id="edge56" class="edge">
<title>p0x7f95e780a230&#45;&gt;p0x7f95e7809c90</title>
<path fill="none" stroke="black" d="M268.28,-791.85C271.03,-755.14 277.49,-668.66 280.87,-623.53"/>
<polygon fill="black" stroke="black" points="284.34,-623.97 281.6,-613.74 277.36,-623.45 284.34,-623.97"/>
</g>
<!-- p0x7f95e7809ed0&#45;&gt;p0x7f95e7809db0 -->
<g id="edge65" class="edge">
<title>p0x7f95e7809ed0&#45;&gt;p0x7f95e7809db0</title>
<path fill="none" stroke="black" d="M428.8,-654.3C423.71,-652.01 418.23,-649.75 413,-648 341.39,-624.1 318.61,-635.9 247,-612 245.2,-611.4 243.37,-610.74 241.54,-610.04"/>
<polygon fill="black" stroke="black" points="243.17,-606.92 232.6,-606.28 240.46,-613.38 243.17,-606.92"/>
</g>
<!-- p0x7f95e7809ed0&#45;&gt;p0x7f95e7809810 -->
<g id="edge67" class="edge">
<title>p0x7f95e7809ed0&#45;&gt;p0x7f95e7809810</title>
<path fill="none" stroke="black" d="M456.43,-648.1C460,-637.82 464.1,-624.35 466,-612 477.25,-539.09 473.99,-451.83 471.19,-407.65"/>
<polygon fill="black" stroke="black" points="474.7,-407.63 470.53,-397.89 467.71,-408.11 474.7,-407.63"/>
</g>
<!-- p0x7f95e7809b70 -->
<g id="node23" class="node">
<title>p0x7f95e7809b70</title>
<ellipse fill="none" stroke="black" cx="338" cy="-522" rx="27" ry="18"/>
<text text-anchor="middle" x="338" y="-516.95" font-family="Times,serif" font-size="14.00">19</text>
</g>
<!-- p0x7f95e7809ed0&#45;&gt;p0x7f95e7809b70 -->
<g id="edge66" class="edge">
<title>p0x7f95e7809ed0&#45;&gt;p0x7f95e7809b70</title>
<path fill="none" stroke="black" d="M437.8,-649.53C418.36,-624.89 380.2,-576.5 357.11,-547.23"/>
<polygon fill="black" stroke="black" points="360.06,-545.32 351.12,-539.64 354.57,-549.66 360.06,-545.32"/>
</g>
<!-- p0x7f95e78096f0 -->
<g id="node24" class="node">
<title>p0x7f95e78096f0</title>
<ellipse fill="none" stroke="black" cx="198" cy="-306" rx="27" ry="18"/>
<text text-anchor="middle" x="198" y="-300.95" font-family="Times,serif" font-size="14.00">23</text>
</g>
<!-- p0x7f95e7809ed0&#45;&gt;p0x7f95e78096f0 -->
<g id="edge68" class="edge">
<title>p0x7f95e7809ed0&#45;&gt;p0x7f95e78096f0</title>
<path fill="none" stroke="black" d="M442.26,-648.6C433.83,-630.74 419.96,-601.34 408,-576 392.89,-544 392.72,-534.03 374,-504 330.66,-434.5 315.7,-419.1 259,-360 248.04,-348.58 234.89,-336.93 223.61,-327.47"/>
<polygon fill="black" stroke="black" points="226.15,-325.03 216.21,-321.36 221.7,-330.43 226.15,-325.03"/>
</g>
<!-- p0x7f95e7809db0&#45;&gt;p0x7f95e7809a50 -->
<g id="edge70" class="edge">
<title>p0x7f95e7809db0&#45;&gt;p0x7f95e7809a50</title>
<path fill="none" stroke="black" d="M205.05,-575.87C198.13,-551.88 185.46,-507.99 177.13,-479.16"/>
<polygon fill="black" stroke="black" points="180.52,-478.28 174.38,-469.64 173.79,-480.22 180.52,-478.28"/>
</g>
<!-- p0x7f95e7809db0&#45;&gt;p0x7f95e7809b70 -->
<g id="edge69" class="edge">
<title>p0x7f95e7809db0&#45;&gt;p0x7f95e7809b70</title>
<path fill="none" stroke="black" d="M230.57,-581.75C251.37,-570.37 283.78,-552.65 307.56,-539.65"/>
<polygon fill="black" stroke="black" points="309.06,-542.81 316.16,-534.95 305.7,-536.67 309.06,-542.81"/>
</g>
<!-- p0x7f95e7809db0&#45;&gt;p0x7f95e78096f0 -->
<g id="edge71" class="edge">
<title>p0x7f95e7809db0&#45;&gt;p0x7f95e78096f0</title>
<path fill="none" stroke="black" d="M196.98,-578.16C178.49,-556.01 145.5,-512.14 133,-468 118.7,-417.54 153.87,-361.29 177.87,-330.44"/>
<polygon fill="black" stroke="black" points="180.39,-332.88 183.94,-322.89 174.94,-328.49 180.39,-332.88"/>
</g>
<!-- p0x7f95e7809150 -->
<g id="node25" class="node">
<title>p0x7f95e7809150</title>
<ellipse fill="none" stroke="black" cx="198" cy="-90" rx="27" ry="18"/>
<text text-anchor="middle" x="198" y="-84.95" font-family="Times,serif" font-size="14.00">28</text>
</g>
<!-- p0x7f95e7809db0&#45;&gt;p0x7f95e7809150 -->
<g id="edge72" class="edge">
<title>p0x7f95e7809db0&#45;&gt;p0x7f95e7809150</title>
<path fill="none" stroke="black" d="M187.92,-583.43C134.01,-558.39 0,-485.45 0,-379 0,-379 0,-379 0,-305 0,-208.23 110.42,-136.65 166.34,-106.6"/>
<polygon fill="black" stroke="black" points="167.86,-109.76 175.09,-102.02 164.61,-103.56 167.86,-109.76"/>
</g>
<!-- p0x7f95e7809a50&#45;&gt;p0x7f95e7809810 -->
<g id="edge82" class="edge">
<title>p0x7f95e7809a50&#45;&gt;p0x7f95e7809810</title>
<path fill="none" stroke="black" d="M194.32,-443.09C247.54,-430.68 371.15,-401.83 432.75,-387.46"/>
<polygon fill="black" stroke="black" points="433.44,-390.89 442.38,-385.21 431.85,-384.08 433.44,-390.89"/>
</g>
<!-- p0x7f95e7809a50&#45;&gt;p0x7f95e7809930 -->
<g id="edge81" class="edge">
<title>p0x7f95e7809a50&#45;&gt;p0x7f95e7809930</title>
<path fill="none" stroke="black" d="M149.66,-437.13C131.73,-426.11 104.79,-409.57 84.23,-396.95"/>
<polygon fill="black" stroke="black" points="86.08,-393.97 75.72,-391.72 82.41,-399.94 86.08,-393.97"/>
</g>
<!-- p0x7f95e7809a50&#45;&gt;p0x7f95e78096f0 -->
<g id="edge83" class="edge">
<title>p0x7f95e7809a50&#45;&gt;p0x7f95e78096f0</title>
<path fill="none" stroke="black" d="M167.46,-431.64C166.34,-413.48 165.93,-384.3 172,-360 174.31,-350.77 178.36,-341.27 182.59,-332.9"/>
<polygon fill="black" stroke="black" points="185.53,-334.81 187.2,-324.35 179.37,-331.49 185.53,-334.81"/>
</g>
<!-- p0x7f95e78095d0 -->
<g id="node26" class="node">
<title>p0x7f95e78095d0</title>
<ellipse fill="none" stroke="black" cx="272" cy="-306" rx="27" ry="18"/>
<text text-anchor="middle" x="272" y="-300.95" font-family="Times,serif" font-size="14.00">24</text>
</g>
<!-- p0x7f95e7809a50&#45;&gt;p0x7f95e78095d0 -->
<g id="edge84" class="edge">
<title>p0x7f95e7809a50&#45;&gt;p0x7f95e78095d0</title>
<path fill="none" stroke="black" d="M180.42,-433.26C198.2,-408.74 232.69,-361.2 253.89,-331.96"/>
<polygon fill="black" stroke="black" points="256.61,-334.18 259.64,-324.03 250.94,-330.07 256.61,-334.18"/>
</g>
<!-- p0x7f95e7809810&#45;&gt;p0x7f95e78096f0 -->
<g id="edge89" class="edge">
<title>p0x7f95e7809810&#45;&gt;p0x7f95e78096f0</title>
<path fill="none" stroke="black" d="M447.18,-366.97C441.06,-364.43 434.35,-361.89 428,-360 344.79,-335.24 318.87,-349.91 236,-324 234.02,-323.38 232,-322.68 229.98,-321.94"/>
<polygon fill="black" stroke="black" points="231.34,-318.72 220.76,-318.18 228.7,-325.2 231.34,-318.72"/>
</g>
<!-- p0x7f95e7809810&#45;&gt;p0x7f95e7809150 -->
<g id="edge92" class="edge">
<title>p0x7f95e7809810&#45;&gt;p0x7f95e7809150</title>
<path fill="none" stroke="black" d="M463.85,-359.99C449.74,-316.49 406.18,-200.63 327,-144 298.57,-123.66 261.18,-109.41 233.97,-100.84"/>
<polygon fill="black" stroke="black" points="235.03,-97.51 224.44,-97.96 233,-104.21 235.03,-97.51"/>
</g>
<!-- p0x7f95e7809810&#45;&gt;p0x7f95e78095d0 -->
<g id="edge90" class="edge">
<title>p0x7f95e7809810&#45;&gt;p0x7f95e78095d0</title>
<path fill="none" stroke="black" d="M446.55,-367.38C440.55,-364.9 434.06,-362.28 428,-360 386.88,-344.51 338.93,-328.52 307.16,-318.21"/>
<polygon fill="black" stroke="black" points="308.26,-314.89 297.67,-315.15 306.11,-321.55 308.26,-314.89"/>
</g>
<!-- p0x7f95e7809390 -->
<g id="node27" class="node">
<title>p0x7f95e7809390</title>
<ellipse fill="none" stroke="black" cx="272" cy="-234" rx="27" ry="18"/>
<text text-anchor="middle" x="272" y="-228.95" font-family="Times,serif" font-size="14.00">26</text>
</g>
<!-- p0x7f95e7809810&#45;&gt;p0x7f95e7809390 -->
<g id="edge91" class="edge">
<title>p0x7f95e7809810&#45;&gt;p0x7f95e7809390</title>
<path fill="none" stroke="black" d="M452.21,-363.68C429.71,-345.96 388.41,-313.87 352,-288 335.18,-276.05 315.9,-263.25 300.49,-253.23"/>
<polygon fill="black" stroke="black" points="302.55,-250.4 292.26,-247.9 298.75,-256.27 302.55,-250.4"/>
</g>
<!-- p0x7f95e7809c90&#45;&gt;p0x7f95e7809930 -->
<g id="edge74" class="edge">
<title>p0x7f95e7809c90&#45;&gt;p0x7f95e7809930</title>
<path fill="none" stroke="black" d="M264.53,-580.54C249.48,-570.16 227.88,-554.75 210,-540 173.86,-510.18 165.59,-501.66 133,-468 112.34,-446.66 90.14,-421.04 74.72,-402.78"/>
<polygon fill="black" stroke="black" points="77.62,-400.78 68.51,-395.37 72.25,-405.28 77.62,-400.78"/>
</g>
<!-- p0x7f95e7809c90&#45;&gt;p0x7f95e7809b70 -->
<g id="edge73" class="edge">
<title>p0x7f95e7809c90&#45;&gt;p0x7f95e7809b70</title>
<path fill="none" stroke="black" d="M295.21,-577.46C302.11,-568.67 310.91,-557.48 318.73,-547.53"/>
<polygon fill="black" stroke="black" points="321.47,-549.71 324.89,-539.68 315.96,-545.38 321.47,-549.71"/>
</g>
<!-- p0x7f95e7809c90&#45;&gt;p0x7f95e78096f0 -->
<g id="edge75" class="edge">
<title>p0x7f95e7809c90&#45;&gt;p0x7f95e78096f0</title>
<path fill="none" stroke="black" d="M277.94,-575.97C263.79,-528.38 223.76,-393.67 206.31,-334.95"/>
<polygon fill="black" stroke="black" points="209.67,-333.98 203.47,-325.4 202.96,-335.98 209.67,-333.98"/>
</g>
<!-- p0x7f95e7809c90&#45;&gt;p0x7f95e78095d0 -->
<g id="edge76" class="edge">
<title>p0x7f95e7809c90&#45;&gt;p0x7f95e78095d0</title>
<path fill="none" stroke="black" d="M282.33,-575.54C280.49,-527.76 275.37,-394.51 273.1,-335.61"/>
<polygon fill="black" stroke="black" points="276.6,-335.6 272.72,-325.74 269.61,-335.87 276.6,-335.6"/>
</g>
<!-- p0x7f95e7809930&#45;&gt;p0x7f95e78095d0 -->
<g id="edge85" class="edge">
<title>p0x7f95e7809930&#45;&gt;p0x7f95e78095d0</title>
<path fill="none" stroke="black" d="M79.95,-370.74C114.86,-361.72 180.04,-343.96 234,-324 235.95,-323.28 237.94,-322.51 239.94,-321.7"/>
<polygon fill="black" stroke="black" points="241.27,-324.94 249.11,-317.8 238.54,-318.49 241.27,-324.94"/>
</g>
<!-- p0x7f95e7809930&#45;&gt;p0x7f95e7809390 -->
<g id="edge87" class="edge">
<title>p0x7f95e7809930&#45;&gt;p0x7f95e7809390</title>
<path fill="none" stroke="black" d="M69.68,-362.78C89.49,-344.06 126.43,-310.87 162,-288 186.52,-272.24 216.43,-258.12 238.87,-248.42"/>
<polygon fill="black" stroke="black" points="240,-251.75 247.84,-244.62 237.26,-245.3 240,-251.75"/>
</g>
<!-- p0x7f95e78094b0 -->
<g id="node29" class="node">
<title>p0x7f95e78094b0</title>
<ellipse fill="none" stroke="black" cx="143" cy="-162" rx="27" ry="18"/>
<text text-anchor="middle" x="143" y="-156.95" font-family="Times,serif" font-size="14.00">25</text>
</g>
<!-- p0x7f95e7809930&#45;&gt;p0x7f95e78094b0 -->
<g id="edge86" class="edge">
<title>p0x7f95e7809930&#45;&gt;p0x7f95e78094b0</title>
<path fill="none" stroke="black" d="M61.91,-360.21C77.07,-323.33 113.4,-234.98 131.85,-190.12"/>
<polygon fill="black" stroke="black" points="134.99,-191.69 135.55,-181.11 128.51,-189.03 134.99,-191.69"/>
</g>
<!-- p0x7f95e7809030 -->
<g id="node30" class="node">
<title>p0x7f95e7809030</title>
<ellipse fill="none" stroke="black" cx="143" cy="-18" rx="27" ry="18"/>
<text text-anchor="middle" x="143" y="-12.95" font-family="Times,serif" font-size="14.00">29</text>
</g>
<!-- p0x7f95e7809930&#45;&gt;p0x7f95e7809030 -->
<g id="edge88" class="edge">
<title>p0x7f95e7809930&#45;&gt;p0x7f95e7809030</title>
<path fill="none" stroke="black" d="M51.64,-360.03C46.69,-333.48 38,-280.44 38,-235 38,-235 38,-235 38,-161 38,-108.76 84.51,-63.16 115.62,-38.5"/>
<polygon fill="black" stroke="black" points="117.7,-41.31 123.51,-32.45 113.44,-35.76 117.7,-41.31"/>
</g>
<!-- p0x7f95e7809ff0 -->
<g id="node22" class="node">
<title>p0x7f95e7809ff0</title>
<ellipse fill="none" stroke="black" cx="377" cy="-666" rx="27" ry="18"/>
<text text-anchor="middle" x="377" y="-660.95" font-family="Times,serif" font-size="14.00">15</text>
</g>
<!-- p0x7f95e7809ff0&#45;&gt;p0x7f95e7809db0 -->
<g id="edge61" class="edge">
<title>p0x7f95e7809ff0&#45;&gt;p0x7f95e7809db0</title>
<path fill="none" stroke="black" d="M354.46,-655.61C348.46,-653.13 341.99,-650.45 336,-648 296.51,-631.83 286.17,-628.91 247,-612 245.46,-611.33 243.88,-610.65 242.3,-609.95"/>
<polygon fill="black" stroke="black" points="243.77,-606.77 233.22,-605.86 240.9,-613.15 243.77,-606.77"/>
</g>
<!-- p0x7f95e7809ff0&#45;&gt;p0x7f95e7809810 -->
<g id="edge64" class="edge">
<title>p0x7f95e7809ff0&#45;&gt;p0x7f95e7809810</title>
<path fill="none" stroke="black" d="M382.48,-647.97C397.82,-600.28 441.3,-465.11 460.13,-406.58"/>
<polygon fill="black" stroke="black" points="463.36,-407.98 463.09,-397.39 456.69,-405.83 463.36,-407.98"/>
</g>
<!-- p0x7f95e7809ff0&#45;&gt;p0x7f95e7809c90 -->
<g id="edge62" class="edge">
<title>p0x7f95e7809ff0&#45;&gt;p0x7f95e7809c90</title>
<path fill="none" stroke="black" d="M359.32,-651.83C345.27,-641.37 325.4,-626.58 309.46,-614.7"/>
<polygon fill="black" stroke="black" points="311.93,-612.18 301.82,-609.01 307.75,-617.79 311.93,-612.18"/>
</g>
<!-- p0x7f95e7809ff0&#45;&gt;p0x7f95e7809b70 -->
<g id="edge63" class="edge">
<title>p0x7f95e7809ff0&#45;&gt;p0x7f95e7809b70</title>
<path fill="none" stroke="black" d="M372.08,-647.83C369.13,-637.46 365.31,-623.98 362,-612 356.36,-591.6 350.14,-568.52 345.45,-550.98"/>
<polygon fill="black" stroke="black" points="348.89,-550.3 342.93,-541.54 342.13,-552.11 348.89,-550.3"/>
</g>
<!-- p0x7f95e7809b70&#45;&gt;p0x7f95e7809a50 -->
<g id="edge77" class="edge">
<title>p0x7f95e7809b70&#45;&gt;p0x7f95e7809a50</title>
<path fill="none" stroke="black" d="M315.56,-511.7C286.39,-499.62 235.24,-478.44 201.74,-464.56"/>
<polygon fill="black" stroke="black" points="203.51,-461.51 192.93,-460.91 200.83,-467.97 203.51,-461.51"/>
</g>
<!-- p0x7f95e7809b70&#45;&gt;p0x7f95e78096f0 -->
<g id="edge78" class="edge">
<title>p0x7f95e7809b70&#45;&gt;p0x7f95e78096f0</title>
<path fill="none" stroke="black" d="M327.48,-504.92C303.35,-468.03 243.87,-377.12 214.69,-332.51"/>
<polygon fill="black" stroke="black" points="217.69,-330.7 209.28,-324.25 211.83,-334.53 217.69,-330.7"/>
</g>
<!-- p0x7f95e7809b70&#45;&gt;p0x7f95e7809390 -->
<g id="edge79" class="edge">
<title>p0x7f95e7809b70&#45;&gt;p0x7f95e7809390</title>
<path fill="none" stroke="black" d="M338.47,-503.68C338.97,-464.08 336.99,-364.46 308,-288 304.16,-277.87 298.04,-267.78 291.92,-259.17"/>
<polygon fill="black" stroke="black" points="294.85,-257.24 286.04,-251.35 289.25,-261.45 294.85,-257.24"/>
</g>
<!-- p0x7f95e7809270 -->
<g id="node28" class="node">
<title>p0x7f95e7809270</title>
<ellipse fill="none" stroke="black" cx="291" cy="-162" rx="27" ry="18"/>
<text text-anchor="middle" x="291" y="-156.95" font-family="Times,serif" font-size="14.00">27</text>
</g>
<!-- p0x7f95e7809b70&#45;&gt;p0x7f95e7809270 -->
<g id="edge80" class="edge">
<title>p0x7f95e7809b70&#45;&gt;p0x7f95e7809270</title>
<path fill="none" stroke="black" d="M345.51,-504.34C356.58,-478.2 376,-425.7 376,-379 376,-379 376,-379 376,-305 376,-256.99 339.78,-211.15 314.63,-185.11"/>
<polygon fill="black" stroke="black" points="317.2,-182.73 307.66,-178.13 312.25,-187.68 317.2,-182.73"/>
</g>
<!-- p0x7f95e78096f0&#45;&gt;p0x7f95e7809150 -->
<g id="edge95" class="edge">
<title>p0x7f95e78096f0&#45;&gt;p0x7f95e7809150</title>
<path fill="none" stroke="black" d="M198,-287.85C198,-251.14 198,-164.66 198,-119.53"/>
<polygon fill="black" stroke="black" points="201.5,-119.75 198,-109.75 194.5,-119.75 201.5,-119.75"/>
</g>
<!-- p0x7f95e78096f0&#45;&gt;p0x7f95e7809390 -->
<g id="edge94" class="edge">
<title>p0x7f95e78096f0&#45;&gt;p0x7f95e7809390</title>
<path fill="none" stroke="black" d="M212.98,-290.83C223.24,-281.13 237.06,-268.06 248.74,-257"/>
<polygon fill="black" stroke="black" points="250.83,-259.84 255.69,-250.42 246.02,-254.75 250.83,-259.84"/>
</g>
<!-- p0x7f95e78096f0&#45;&gt;p0x7f95e78094b0 -->
<g id="edge93" class="edge">
<title>p0x7f95e78096f0&#45;&gt;p0x7f95e78094b0</title>
<path fill="none" stroke="black" d="M191.47,-288.15C182.13,-264.03 164.83,-219.36 153.62,-190.43"/>
<polygon fill="black" stroke="black" points="156.94,-189.3 150.06,-181.24 150.41,-191.83 156.94,-189.3"/>
</g>
<!-- p0x7f95e7809150&#45;&gt;p0x7f95e7809030 -->
<g id="edge102" class="edge">
<title>p0x7f95e7809150&#45;&gt;p0x7f95e7809030</title>
<path fill="none" stroke="black" d="M185.79,-73.46C178.89,-64.67 170.09,-53.48 162.27,-43.53"/>
<polygon fill="black" stroke="black" points="165.04,-41.38 156.11,-35.68 159.53,-45.71 165.04,-41.38"/>
</g>
<!-- p0x7f95e78095d0&#45;&gt;p0x7f95e7809390 -->
<g id="edge96" class="edge">
<title>p0x7f95e78095d0&#45;&gt;p0x7f95e7809390</title>
<path fill="none" stroke="black" d="M272,-287.7C272,-280.41 272,-271.73 272,-263.54"/>
<polygon fill="black" stroke="black" points="275.5,-263.62 272,-253.62 268.5,-263.62 275.5,-263.62"/>
</g>
<!-- p0x7f95e7809390&#45;&gt;p0x7f95e7809150 -->
<g id="edge100" class="edge">
<title>p0x7f95e7809390&#45;&gt;p0x7f95e7809150</title>
<path fill="none" stroke="black" d="M263.51,-216.71C250.87,-192.45 226.95,-146.55 211.77,-117.43"/>
<polygon fill="black" stroke="black" points="215.04,-116.13 207.32,-108.88 208.83,-119.36 215.04,-116.13"/>
</g>
<!-- p0x7f95e7809390&#45;&gt;p0x7f95e7809270 -->
<g id="edge99" class="edge">
<title>p0x7f95e7809390&#45;&gt;p0x7f95e7809270</title>
<path fill="none" stroke="black" d="M276.6,-216.05C278.65,-208.49 281.13,-199.37 283.44,-190.85"/>
<polygon fill="black" stroke="black" points="286.8,-191.82 286.05,-181.25 280.05,-189.98 286.8,-191.82"/>
</g>
<!-- p0x7f95e7809270&#45;&gt;p0x7f95e7809150 -->
<g id="edge101" class="edge">
<title>p0x7f95e7809270&#45;&gt;p0x7f95e7809150</title>
<path fill="none" stroke="black" d="M273.51,-147.83C259.61,-137.37 239.95,-122.58 224.18,-110.7"/>
<polygon fill="black" stroke="black" points="226.72,-108.24 216.62,-105.02 222.51,-113.83 226.72,-108.24"/>
</g>
<!-- p0x7f95e78094b0&#45;&gt;p0x7f95e7809150 -->
<g id="edge97" class="edge">
<title>p0x7f95e78094b0&#45;&gt;p0x7f95e7809150</title>
<path fill="none" stroke="black" d="M155.21,-145.46C162.11,-136.67 170.91,-125.48 178.73,-115.53"/>
<polygon fill="black" stroke="black" points="181.47,-117.71 184.89,-107.68 175.96,-113.38 181.47,-117.71"/>
</g>
<!-- p0x7f95e78094b0&#45;&gt;p0x7f95e7809030 -->
<g id="edge98" class="edge">
<title>p0x7f95e78094b0&#45;&gt;p0x7f95e7809030</title>
<path fill="none" stroke="black" d="M143,-143.59C143,-119.61 143,-76.14 143,-47.42"/>
<polygon fill="black" stroke="black" points="146.5,-47.62 143,-37.62 139.5,-47.62 146.5,-47.62"/>
</g>
</g>
</svg>
