<?xml version="1.0" encoding="UTF-8" standalone="no"?>
<!DOCTYPE svg PUBLIC "-//W3C//DTD SVG 1.1//EN"
 "http://www.w3.org/Graphics/SVG/1.1/DTD/svg11.dtd">
<!-- Generated by graphviz version 2.43.0 (0)
 -->
<!-- Title: Taskflow Pages: 1 -->
<svg width="206pt" height="131pt"
 viewBox="0.00 0.00 206.00 131.00" xmlns="http://www.w3.org/2000/svg" xmlns:xlink="http://www.w3.org/1999/xlink">
<g id="graph0" class="graph" transform="scale(1 1) rotate(0) translate(4 127)">
<title>Taskflow</title>
<polygon fill="white" stroke="transparent" points="-4,4 -4,-127 202,-127 202,4 -4,4"/>
<!-- p0x7bc400014030 -->
<g id="node1" class="node">
<title>p0x7bc400014030</title>
<polygon fill="aquamarine" stroke="black" points="99,-123 72,-105 99,-87 126,-105 99,-123"/>
<text text-anchor="middle" x="99" y="-101.3" font-family="Times,serif" font-size="14.00">A</text>
</g>
<!-- p0x7bc400014118 -->
<g id="node2" class="node">
<title>p0x7bc400014118</title>
<ellipse fill="none" stroke="black" cx="27" cy="-18" rx="27" ry="18"/>
<text text-anchor="middle" x="27" y="-14.3" font-family="Times,serif" font-size="14.00">B</text>
</g>
<!-- p0x7bc400014030&#45;&gt;p0x7bc400014118 -->
<g id="edge1" class="edge">
<title>p0x7bc400014030&#45;&gt;p0x7bc400014118</title>
<path fill="none" stroke="black" stroke-dasharray="5,2" d="M89.59,-92.89C78.65,-79.97 60.3,-58.32 46.29,-41.78"/>
<polygon fill="black" stroke="black" points="48.95,-39.5 39.82,-34.13 43.61,-44.02 48.95,-39.5"/>
<text text-anchor="middle" x="73" y="-57.8" font-family="Times,serif" font-size="14.00">0</text>
</g>
<!-- p0x7bc400014200 -->
<g id="node3" class="node">
<title>p0x7bc400014200</title>
<ellipse fill="none" stroke="black" cx="99" cy="-18" rx="27" ry="18"/>
<text text-anchor="middle" x="99" y="-14.3" font-family="Times,serif" font-size="14.00">C</text>
</g>
<!-- p0x7bc400014030&#45;&gt;p0x7bc400014200 -->
<g id="edge2" class="edge">
<title>p0x7bc400014030&#45;&gt;p0x7bc400014200</title>
<path fill="none" stroke="black" stroke-dasharray="5,2" d="M99,-86.8C99,-75.16 99,-59.55 99,-46.24"/>
<polygon fill="black" stroke="black" points="102.5,-46.18 99,-36.18 95.5,-46.18 102.5,-46.18"/>
<text text-anchor="middle" x="104" y="-57.8" font-family="Times,serif" font-size="14.00">1</text>
</g>
<!-- p0x7bc4000142e8 -->
<g id="node4" class="node">
<title>p0x7bc4000142e8</title>
<ellipse fill="none" stroke="black" cx="171" cy="-18" rx="27" ry="18"/>
<text text-anchor="middle" x="171" y="-14.3" font-family="Times,serif" font-size="14.00">D</text>
</g>
<!-- p0x7bc400014030&#45;&gt;p0x7bc4000142e8 -->
<g id="edge3" class="edge">
<title>p0x7bc400014030&#45;&gt;p0x7bc4000142e8</title>
<path fill="none" stroke="black" stroke-dasharray="5,2" d="M108.41,-92.89C119.35,-79.97 137.7,-58.32 151.71,-41.78"/>
<polygon fill="black" stroke="black" points="154.39,-44.02 158.18,-34.13 149.05,-39.5 154.39,-44.02"/>
<text text-anchor="middle" x="144" y="-57.8" font-family="Times,serif" font-size="14.00">2</text>
</g>
</g>
</svg>
