<?xml version="1.0" encoding="UTF-8" standalone="no"?>
<!DOCTYPE svg PUBLIC "-//W3C//DTD SVG 1.1//EN"
 "http://www.w3.org/Graphics/SVG/1.1/DTD/svg11.dtd">
<!-- Generated by graphviz version 2.43.0 (0)
 -->
<!-- Title: Taskflow Pages: 1 -->
<svg width="876pt" height="186pt"
 viewBox="0.00 0.00 876.00 186.00" xmlns="http://www.w3.org/2000/svg" xmlns:xlink="http://www.w3.org/1999/xlink">
<g id="graph0" class="graph" transform="scale(1 1) rotate(0) translate(4 182)">
<title>Taskflow</title>
<polygon fill="white" stroke="transparent" points="-4,4 -4,-182 872,-182 872,4 -4,4"/>
<g id="clust1" class="cluster">
<title>cluster_p0x7ffcc76abe80</title>
<polygon fill="none" stroke="black" points="8,-8 8,-170 134,-170 134,-8 8,-8"/>
<text text-anchor="middle" x="71" y="-154.8" font-family="Times,serif" font-size="14.00">Taskflow</text>
</g>
<g id="clust2" class="cluster">
<title>cluster_p0x7ffcc76abd30</title>
<polygon fill="none" stroke="black" points="142,-8 142,-170 860,-170 860,-8 142,-8"/>
<text text-anchor="middle" x="501" y="-154.8" font-family="Times,serif" font-size="14.00">m1</text>
</g>
<!-- p0x8e9a68 -->
<g id="node1" class="node">
<title>p0x8e9a68</title>
<ellipse fill="none" stroke="black" cx="71" cy="-121" rx="53.89" ry="18"/>
<text text-anchor="middle" x="71" y="-117.3" font-family="Times,serif" font-size="14.00">init pipes</text>
</g>
<!-- p0x8e9980 -->
<g id="node2" class="node">
<title>p0x8e9980</title>
<polygon fill="none" stroke="blue" points="126.5,-52 19.5,-52 15.5,-48 15.5,-16 122.5,-16 126.5,-20 126.5,-52"/>
<polyline fill="none" stroke="blue" points="122.5,-48 15.5,-48 "/>
<polyline fill="none" stroke="blue" points="122.5,-48 122.5,-16 "/>
<polyline fill="none" stroke="blue" points="122.5,-48 126.5,-52 "/>
<text text-anchor="middle" x="71" y="-30.3" font-family="Times,serif" font-size="14.00">pipeline [m1]</text>
</g>
<!-- p0x8e9a68&#45;&gt;p0x8e9980 -->
<g id="edge1" class="edge">
<title>p0x8e9a68&#45;&gt;p0x8e9980</title>
<path fill="none" stroke="black" d="M71,-102.8C71,-91.16 71,-75.55 71,-62.24"/>
<polygon fill="black" stroke="black" points="74.5,-62.18 71,-52.18 67.5,-62.18 74.5,-62.18"/>
</g>
<!-- p0x8ea460 -->
<g id="node3" class="node">
<title>p0x8ea460</title>
<polygon fill="aquamarine" stroke="black" points="501,-139 455.08,-121 501,-103 546.92,-121 501,-139"/>
<text text-anchor="middle" x="501" y="-117.3" font-family="Times,serif" font-size="14.00">cond</text>
</g>
<!-- p0x8ea378 -->
<g id="node4" class="node">
<title>p0x8ea378</title>
<polygon fill="none" stroke="black" points="204,-52 150,-52 150,-48 146,-48 146,-44 150,-44 150,-24 146,-24 146,-20 150,-20 150,-16 204,-16 204,-52"/>
<polyline fill="none" stroke="black" points="150,-48 154,-48 154,-44 150,-44 "/>
<polyline fill="none" stroke="black" points="150,-24 154,-24 154,-20 150,-20 "/>
<text text-anchor="middle" x="177" y="-30.3" font-family="Times,serif" font-size="14.00">rt&#45;0</text>
</g>
<!-- p0x8ea460&#45;&gt;p0x8ea378 -->
<g id="edge2" class="edge">
<title>p0x8ea460&#45;&gt;p0x8ea378</title>
<path fill="none" stroke="black" stroke-dasharray="5,2" d="M469.06,-115.34C416.77,-107.11 309.88,-87.71 213.88,-52.04"/>
<polygon fill="black" stroke="black" points="214.92,-48.69 204.33,-48.42 212.45,-55.24 214.92,-48.69"/>
<text text-anchor="middle" x="318" y="-73.8" font-family="Times,serif" font-size="14.00">0</text>
</g>
<!-- p0x8ea290 -->
<g id="node5" class="node">
<title>p0x8ea290</title>
<polygon fill="none" stroke="black" points="276,-52 222,-52 222,-48 218,-48 218,-44 222,-44 222,-24 218,-24 218,-20 222,-20 222,-16 276,-16 276,-52"/>
<polyline fill="none" stroke="black" points="222,-48 226,-48 226,-44 222,-44 "/>
<polyline fill="none" stroke="black" points="222,-24 226,-24 226,-20 222,-20 "/>
<text text-anchor="middle" x="249" y="-30.3" font-family="Times,serif" font-size="14.00">rt&#45;1</text>
</g>
<!-- p0x8ea460&#45;&gt;p0x8ea290 -->
<g id="edge3" class="edge">
<title>p0x8ea460&#45;&gt;p0x8ea290</title>
<path fill="none" stroke="black" stroke-dasharray="5,2" d="M474.94,-113.21C435.57,-102.66 358.57,-80.85 285.7,-52.06"/>
<polygon fill="black" stroke="black" points="286.96,-48.79 276.37,-48.33 284.36,-55.29 286.96,-48.79"/>
<text text-anchor="middle" x="377" y="-73.8" font-family="Times,serif" font-size="14.00">1</text>
</g>
<!-- p0x8ea1a8 -->
<g id="node6" class="node">
<title>p0x8ea1a8</title>
<polygon fill="none" stroke="black" points="348,-52 294,-52 294,-48 290,-48 290,-44 294,-44 294,-24 290,-24 290,-20 294,-20 294,-16 348,-16 348,-52"/>
<polyline fill="none" stroke="black" points="294,-48 298,-48 298,-44 294,-44 "/>
<polyline fill="none" stroke="black" points="294,-24 298,-24 298,-20 294,-20 "/>
<text text-anchor="middle" x="321" y="-30.3" font-family="Times,serif" font-size="14.00">rt&#45;2</text>
</g>
<!-- p0x8ea460&#45;&gt;p0x8ea1a8 -->
<g id="edge4" class="edge">
<title>p0x8ea460&#45;&gt;p0x8ea1a8</title>
<path fill="none" stroke="black" stroke-dasharray="5,2" d="M480.93,-110.68C465.81,-103.66 444.59,-93.76 426,-85 403.14,-74.22 377.53,-62.03 357.33,-52.38"/>
<polygon fill="black" stroke="black" points="358.7,-49.16 348.17,-48.01 355.68,-55.48 358.7,-49.16"/>
<text text-anchor="middle" x="431" y="-73.8" font-family="Times,serif" font-size="14.00">2</text>
</g>
<!-- p0x8ea0c0 -->
<g id="node7" class="node">
<title>p0x8ea0c0</title>
<polygon fill="none" stroke="black" points="420,-52 366,-52 366,-48 362,-48 362,-44 366,-44 366,-24 362,-24 362,-20 366,-20 366,-16 420,-16 420,-52"/>
<polyline fill="none" stroke="black" points="366,-48 370,-48 370,-44 366,-44 "/>
<polyline fill="none" stroke="black" points="366,-24 370,-24 370,-20 366,-20 "/>
<text text-anchor="middle" x="393" y="-30.3" font-family="Times,serif" font-size="14.00">rt&#45;3</text>
</g>
<!-- p0x8ea460&#45;&gt;p0x8ea0c0 -->
<g id="edge5" class="edge">
<title>p0x8ea460&#45;&gt;p0x8ea0c0</title>
<path fill="none" stroke="black" stroke-dasharray="5,2" d="M486.43,-108.54C470.17,-95.73 443.41,-74.67 422.69,-58.36"/>
<polygon fill="black" stroke="black" points="424.81,-55.58 414.79,-52.15 420.48,-61.08 424.81,-55.58"/>
<text text-anchor="middle" x="458" y="-73.8" font-family="Times,serif" font-size="14.00">3</text>
</g>
<!-- p0x8e9fd8 -->
<g id="node8" class="node">
<title>p0x8e9fd8</title>
<polygon fill="none" stroke="black" points="492,-52 438,-52 438,-48 434,-48 434,-44 438,-44 438,-24 434,-24 434,-20 438,-20 438,-16 492,-16 492,-52"/>
<polyline fill="none" stroke="black" points="438,-48 442,-48 442,-44 438,-44 "/>
<polyline fill="none" stroke="black" points="438,-24 442,-24 442,-20 438,-20 "/>
<text text-anchor="middle" x="465" y="-30.3" font-family="Times,serif" font-size="14.00">rt&#45;4</text>
</g>
<!-- p0x8ea460&#45;&gt;p0x8e9fd8 -->
<g id="edge6" class="edge">
<title>p0x8ea460&#45;&gt;p0x8e9fd8</title>
<path fill="none" stroke="black" stroke-dasharray="5,2" d="M494.73,-105.19C489.66,-93.21 482.38,-76.03 476.29,-61.67"/>
<polygon fill="black" stroke="black" points="479.44,-60.11 472.31,-52.27 472.99,-62.84 479.44,-60.11"/>
<text text-anchor="middle" x="490" y="-73.8" font-family="Times,serif" font-size="14.00">4</text>
</g>
<!-- p0x8e9ef0 -->
<g id="node9" class="node">
<title>p0x8e9ef0</title>
<polygon fill="none" stroke="black" points="564,-52 510,-52 510,-48 506,-48 506,-44 510,-44 510,-24 506,-24 506,-20 510,-20 510,-16 564,-16 564,-52"/>
<polyline fill="none" stroke="black" points="510,-48 514,-48 514,-44 510,-44 "/>
<polyline fill="none" stroke="black" points="510,-24 514,-24 514,-20 510,-20 "/>
<text text-anchor="middle" x="537" y="-30.3" font-family="Times,serif" font-size="14.00">rt&#45;5</text>
</g>
<!-- p0x8ea460&#45;&gt;p0x8e9ef0 -->
<g id="edge7" class="edge">
<title>p0x8ea460&#45;&gt;p0x8e9ef0</title>
<path fill="none" stroke="black" stroke-dasharray="5,2" d="M507.27,-105.19C512.34,-93.21 519.62,-76.03 525.71,-61.67"/>
<polygon fill="black" stroke="black" points="529.01,-62.84 529.69,-52.27 522.56,-60.11 529.01,-62.84"/>
<text text-anchor="middle" x="526" y="-73.8" font-family="Times,serif" font-size="14.00">5</text>
</g>
<!-- p0x8e9e08 -->
<g id="node10" class="node">
<title>p0x8e9e08</title>
<polygon fill="none" stroke="black" points="636,-52 582,-52 582,-48 578,-48 578,-44 582,-44 582,-24 578,-24 578,-20 582,-20 582,-16 636,-16 636,-52"/>
<polyline fill="none" stroke="black" points="582,-48 586,-48 586,-44 582,-44 "/>
<polyline fill="none" stroke="black" points="582,-24 586,-24 586,-20 582,-20 "/>
<text text-anchor="middle" x="609" y="-30.3" font-family="Times,serif" font-size="14.00">rt&#45;6</text>
</g>
<!-- p0x8ea460&#45;&gt;p0x8e9e08 -->
<g id="edge8" class="edge">
<title>p0x8ea460&#45;&gt;p0x8e9e08</title>
<path fill="none" stroke="black" stroke-dasharray="5,2" d="M515.57,-108.54C531.83,-95.73 558.59,-74.67 579.31,-58.36"/>
<polygon fill="black" stroke="black" points="581.52,-61.08 587.21,-52.15 577.19,-55.58 581.52,-61.08"/>
<text text-anchor="middle" x="566" y="-73.8" font-family="Times,serif" font-size="14.00">6</text>
</g>
<!-- p0x8e9d20 -->
<g id="node11" class="node">
<title>p0x8e9d20</title>
<polygon fill="none" stroke="black" points="708,-52 654,-52 654,-48 650,-48 650,-44 654,-44 654,-24 650,-24 650,-20 654,-20 654,-16 708,-16 708,-52"/>
<polyline fill="none" stroke="black" points="654,-48 658,-48 658,-44 654,-44 "/>
<polyline fill="none" stroke="black" points="654,-24 658,-24 658,-20 654,-20 "/>
<text text-anchor="middle" x="681" y="-30.3" font-family="Times,serif" font-size="14.00">rt&#45;7</text>
</g>
<!-- p0x8ea460&#45;&gt;p0x8e9d20 -->
<g id="edge9" class="edge">
<title>p0x8ea460&#45;&gt;p0x8e9d20</title>
<path fill="none" stroke="black" stroke-dasharray="5,2" d="M520.95,-110.58C550.7,-96.53 607.16,-69.87 644.44,-52.27"/>
<polygon fill="black" stroke="black" points="646.39,-55.21 653.94,-47.78 643.4,-48.88 646.39,-55.21"/>
<text text-anchor="middle" x="606" y="-73.8" font-family="Times,serif" font-size="14.00">7</text>
</g>
<!-- p0x8e9c38 -->
<g id="node12" class="node">
<title>p0x8e9c38</title>
<polygon fill="none" stroke="black" points="780,-52 726,-52 726,-48 722,-48 722,-44 726,-44 726,-24 722,-24 722,-20 726,-20 726,-16 780,-16 780,-52"/>
<polyline fill="none" stroke="black" points="726,-48 730,-48 730,-44 726,-44 "/>
<polyline fill="none" stroke="black" points="726,-24 730,-24 730,-20 726,-20 "/>
<text text-anchor="middle" x="753" y="-30.3" font-family="Times,serif" font-size="14.00">rt&#45;8</text>
</g>
<!-- p0x8ea460&#45;&gt;p0x8e9c38 -->
<g id="edge10" class="edge">
<title>p0x8ea460&#45;&gt;p0x8e9c38</title>
<path fill="none" stroke="black" stroke-dasharray="5,2" d="M527.02,-113.12C566.35,-102.44 643.28,-80.46 716.3,-52.04"/>
<polygon fill="black" stroke="black" points="717.62,-55.28 725.64,-48.36 715.06,-48.77 717.62,-55.28"/>
<text text-anchor="middle" x="669" y="-73.8" font-family="Times,serif" font-size="14.00">8</text>
</g>
<!-- p0x8e9b50 -->
<g id="node13" class="node">
<title>p0x8e9b50</title>
<polygon fill="none" stroke="black" points="852,-52 798,-52 798,-48 794,-48 794,-44 798,-44 798,-24 794,-24 794,-20 798,-20 798,-16 852,-16 852,-52"/>
<polyline fill="none" stroke="black" points="798,-48 802,-48 802,-44 798,-44 "/>
<polyline fill="none" stroke="black" points="798,-24 802,-24 802,-20 798,-20 "/>
<text text-anchor="middle" x="825" y="-30.3" font-family="Times,serif" font-size="14.00">rt&#45;9</text>
</g>
<!-- p0x8ea460&#45;&gt;p0x8e9b50 -->
<g id="edge11" class="edge">
<title>p0x8ea460&#45;&gt;p0x8e9b50</title>
<path fill="none" stroke="black" stroke-dasharray="5,2" d="M532.93,-115.32C585.21,-107.05 692.08,-87.61 788.11,-52.04"/>
<polygon fill="black" stroke="black" points="789.55,-55.24 797.67,-48.43 787.08,-48.69 789.55,-55.24"/>
<text text-anchor="middle" x="740" y="-73.8" font-family="Times,serif" font-size="14.00">9</text>
</g>
</g>
</svg>
