<?xml version="1.0" encoding="UTF-8" standalone="no"?>
<!DOCTYPE svg PUBLIC "-//W3C//DTD SVG 1.1//EN"
 "http://www.w3.org/Graphics/SVG/1.1/DTD/svg11.dtd">
<!-- Generated by graphviz version 2.43.0 (0)
 -->
<!-- Title: Taskflow Pages: 1 -->
<svg width="756pt" height="186pt"
 viewBox="0.00 0.00 756.00 186.00" xmlns="http://www.w3.org/2000/svg" xmlns:xlink="http://www.w3.org/1999/xlink">
<g id="graph0" class="graph" transform="scale(1 1) rotate(0) translate(4 182)">
<title>Taskflow</title>
<polygon fill="white" stroke="transparent" points="-4,4 -4,-182 752,-182 752,4 -4,4"/>
<g id="clust1" class="cluster">
<title>cluster_p0x7ffeaf4d98d8</title>
<polygon fill="none" stroke="black" points="8,-8 8,-170 152,-170 152,-8 8,-8"/>
<text text-anchor="middle" x="80" y="-154.8" font-family="Times,serif" font-size="14.00">Taskflow</text>
</g>
<g id="clust2" class="cluster">
<title>cluster_p0x7ffeaf4d9510</title>
<polygon fill="none" stroke="black" points="160,-8 160,-170 446,-170 446,-8 160,-8"/>
<text text-anchor="middle" x="303" y="-154.8" font-family="Times,serif" font-size="14.00">m2</text>
</g>
<g id="clust3" class="cluster">
<title>cluster_p0x7ffeaf4d95b0</title>
<polygon fill="none" stroke="black" points="454,-8 454,-170 740,-170 740,-8 454,-8"/>
<text text-anchor="middle" x="597" y="-154.8" font-family="Times,serif" font-size="14.00">m1</text>
</g>
<!-- p0x1da4f10 -->
<g id="node1" class="node">
<title>p0x1da4f10</title>
<polygon fill="none" stroke="blue" points="143.5,-139 20.5,-139 16.5,-135 16.5,-103 139.5,-103 143.5,-107 143.5,-139"/>
<polyline fill="none" stroke="blue" points="139.5,-135 16.5,-135 "/>
<polyline fill="none" stroke="blue" points="139.5,-135 139.5,-103 "/>
<polyline fill="none" stroke="blue" points="139.5,-135 143.5,-139 "/>
<text text-anchor="middle" x="80" y="-117.3" font-family="Times,serif" font-size="14.00">pipeline_1 [m1]</text>
</g>
<!-- p0x1da4ff8 -->
<g id="node2" class="node">
<title>p0x1da4ff8</title>
<polygon fill="none" stroke="blue" points="143.5,-52 20.5,-52 16.5,-48 16.5,-16 139.5,-16 143.5,-20 143.5,-52"/>
<polyline fill="none" stroke="blue" points="139.5,-48 16.5,-48 "/>
<polyline fill="none" stroke="blue" points="139.5,-48 139.5,-16 "/>
<polyline fill="none" stroke="blue" points="139.5,-48 143.5,-52 "/>
<text text-anchor="middle" x="80" y="-30.3" font-family="Times,serif" font-size="14.00">pipeline_2 [m2]</text>
</g>
<!-- p0x1da4f10&#45;&gt;p0x1da4ff8 -->
<g id="edge1" class="edge">
<title>p0x1da4f10&#45;&gt;p0x1da4ff8</title>
<path fill="none" stroke="black" d="M80,-102.8C80,-91.16 80,-75.55 80,-62.24"/>
<polygon fill="black" stroke="black" points="83.5,-62.18 80,-52.18 76.5,-62.18 83.5,-62.18"/>
</g>
<!-- p0x1da4a88 -->
<g id="node3" class="node">
<title>p0x1da4a88</title>
<polygon fill="aquamarine" stroke="black" points="303,-139 257.08,-121 303,-103 348.92,-121 303,-139"/>
<text text-anchor="middle" x="303" y="-117.3" font-family="Times,serif" font-size="14.00">cond</text>
</g>
<!-- p0x1da4b70 -->
<g id="node4" class="node">
<title>p0x1da4b70</title>
<polygon fill="none" stroke="black" points="222,-52 168,-52 168,-48 164,-48 164,-44 168,-44 168,-24 164,-24 164,-20 168,-20 168,-16 222,-16 222,-52"/>
<polyline fill="none" stroke="black" points="168,-48 172,-48 172,-44 168,-44 "/>
<polyline fill="none" stroke="black" points="168,-24 172,-24 172,-20 168,-20 "/>
<text text-anchor="middle" x="195" y="-30.3" font-family="Times,serif" font-size="14.00">rt&#45;0</text>
</g>
<!-- p0x1da4a88&#45;&gt;p0x1da4b70 -->
<g id="edge2" class="edge">
<title>p0x1da4a88&#45;&gt;p0x1da4b70</title>
<path fill="none" stroke="black" stroke-dasharray="5,2" d="M288.43,-108.54C272.17,-95.73 245.41,-74.67 224.69,-58.36"/>
<polygon fill="black" stroke="black" points="226.81,-55.58 216.79,-52.15 222.48,-61.08 226.81,-55.58"/>
<text text-anchor="middle" x="260" y="-73.8" font-family="Times,serif" font-size="14.00">0</text>
</g>
<!-- p0x1da4c58 -->
<g id="node5" class="node">
<title>p0x1da4c58</title>
<polygon fill="none" stroke="black" points="294,-52 240,-52 240,-48 236,-48 236,-44 240,-44 240,-24 236,-24 236,-20 240,-20 240,-16 294,-16 294,-52"/>
<polyline fill="none" stroke="black" points="240,-48 244,-48 244,-44 240,-44 "/>
<polyline fill="none" stroke="black" points="240,-24 244,-24 244,-20 240,-20 "/>
<text text-anchor="middle" x="267" y="-30.3" font-family="Times,serif" font-size="14.00">rt&#45;1</text>
</g>
<!-- p0x1da4a88&#45;&gt;p0x1da4c58 -->
<g id="edge3" class="edge">
<title>p0x1da4a88&#45;&gt;p0x1da4c58</title>
<path fill="none" stroke="black" stroke-dasharray="5,2" d="M296.73,-105.19C291.66,-93.21 284.38,-76.03 278.29,-61.67"/>
<polygon fill="black" stroke="black" points="281.44,-60.11 274.31,-52.27 274.99,-62.84 281.44,-60.11"/>
<text text-anchor="middle" x="292" y="-73.8" font-family="Times,serif" font-size="14.00">1</text>
</g>
<!-- p0x1da4d40 -->
<g id="node6" class="node">
<title>p0x1da4d40</title>
<polygon fill="none" stroke="black" points="366,-52 312,-52 312,-48 308,-48 308,-44 312,-44 312,-24 308,-24 308,-20 312,-20 312,-16 366,-16 366,-52"/>
<polyline fill="none" stroke="black" points="312,-48 316,-48 316,-44 312,-44 "/>
<polyline fill="none" stroke="black" points="312,-24 316,-24 316,-20 312,-20 "/>
<text text-anchor="middle" x="339" y="-30.3" font-family="Times,serif" font-size="14.00">rt&#45;2</text>
</g>
<!-- p0x1da4a88&#45;&gt;p0x1da4d40 -->
<g id="edge4" class="edge">
<title>p0x1da4a88&#45;&gt;p0x1da4d40</title>
<path fill="none" stroke="black" stroke-dasharray="5,2" d="M309.27,-105.19C314.34,-93.21 321.62,-76.03 327.71,-61.67"/>
<polygon fill="black" stroke="black" points="331.01,-62.84 331.69,-52.27 324.56,-60.11 331.01,-62.84"/>
<text text-anchor="middle" x="328" y="-73.8" font-family="Times,serif" font-size="14.00">2</text>
</g>
<!-- p0x1da4e28 -->
<g id="node7" class="node">
<title>p0x1da4e28</title>
<polygon fill="none" stroke="black" points="438,-52 384,-52 384,-48 380,-48 380,-44 384,-44 384,-24 380,-24 380,-20 384,-20 384,-16 438,-16 438,-52"/>
<polyline fill="none" stroke="black" points="384,-48 388,-48 388,-44 384,-44 "/>
<polyline fill="none" stroke="black" points="384,-24 388,-24 388,-20 384,-20 "/>
<text text-anchor="middle" x="411" y="-30.3" font-family="Times,serif" font-size="14.00">rt&#45;3</text>
</g>
<!-- p0x1da4a88&#45;&gt;p0x1da4e28 -->
<g id="edge5" class="edge">
<title>p0x1da4a88&#45;&gt;p0x1da4e28</title>
<path fill="none" stroke="black" stroke-dasharray="5,2" d="M317.57,-108.54C333.83,-95.73 360.59,-74.67 381.31,-58.36"/>
<polygon fill="black" stroke="black" points="383.52,-61.08 389.21,-52.15 379.19,-55.58 383.52,-61.08"/>
<text text-anchor="middle" x="368" y="-73.8" font-family="Times,serif" font-size="14.00">3</text>
</g>
<!-- p0x1da4600 -->
<g id="node8" class="node">
<title>p0x1da4600</title>
<polygon fill="aquamarine" stroke="black" points="597,-139 551.08,-121 597,-103 642.92,-121 597,-139"/>
<text text-anchor="middle" x="597" y="-117.3" font-family="Times,serif" font-size="14.00">cond</text>
</g>
<!-- p0x1da46e8 -->
<g id="node9" class="node">
<title>p0x1da46e8</title>
<polygon fill="none" stroke="black" points="516,-52 462,-52 462,-48 458,-48 458,-44 462,-44 462,-24 458,-24 458,-20 462,-20 462,-16 516,-16 516,-52"/>
<polyline fill="none" stroke="black" points="462,-48 466,-48 466,-44 462,-44 "/>
<polyline fill="none" stroke="black" points="462,-24 466,-24 466,-20 462,-20 "/>
<text text-anchor="middle" x="489" y="-30.3" font-family="Times,serif" font-size="14.00">rt&#45;0</text>
</g>
<!-- p0x1da4600&#45;&gt;p0x1da46e8 -->
<g id="edge6" class="edge">
<title>p0x1da4600&#45;&gt;p0x1da46e8</title>
<path fill="none" stroke="black" stroke-dasharray="5,2" d="M582.43,-108.54C566.17,-95.73 539.41,-74.67 518.69,-58.36"/>
<polygon fill="black" stroke="black" points="520.81,-55.58 510.79,-52.15 516.48,-61.08 520.81,-55.58"/>
<text text-anchor="middle" x="554" y="-73.8" font-family="Times,serif" font-size="14.00">0</text>
</g>
<!-- p0x1da47d0 -->
<g id="node10" class="node">
<title>p0x1da47d0</title>
<polygon fill="none" stroke="black" points="588,-52 534,-52 534,-48 530,-48 530,-44 534,-44 534,-24 530,-24 530,-20 534,-20 534,-16 588,-16 588,-52"/>
<polyline fill="none" stroke="black" points="534,-48 538,-48 538,-44 534,-44 "/>
<polyline fill="none" stroke="black" points="534,-24 538,-24 538,-20 534,-20 "/>
<text text-anchor="middle" x="561" y="-30.3" font-family="Times,serif" font-size="14.00">rt&#45;1</text>
</g>
<!-- p0x1da4600&#45;&gt;p0x1da47d0 -->
<g id="edge7" class="edge">
<title>p0x1da4600&#45;&gt;p0x1da47d0</title>
<path fill="none" stroke="black" stroke-dasharray="5,2" d="M590.73,-105.19C585.66,-93.21 578.38,-76.03 572.29,-61.67"/>
<polygon fill="black" stroke="black" points="575.44,-60.11 568.31,-52.27 568.99,-62.84 575.44,-60.11"/>
<text text-anchor="middle" x="586" y="-73.8" font-family="Times,serif" font-size="14.00">1</text>
</g>
<!-- p0x1da48b8 -->
<g id="node11" class="node">
<title>p0x1da48b8</title>
<polygon fill="none" stroke="black" points="660,-52 606,-52 606,-48 602,-48 602,-44 606,-44 606,-24 602,-24 602,-20 606,-20 606,-16 660,-16 660,-52"/>
<polyline fill="none" stroke="black" points="606,-48 610,-48 610,-44 606,-44 "/>
<polyline fill="none" stroke="black" points="606,-24 610,-24 610,-20 606,-20 "/>
<text text-anchor="middle" x="633" y="-30.3" font-family="Times,serif" font-size="14.00">rt&#45;2</text>
</g>
<!-- p0x1da4600&#45;&gt;p0x1da48b8 -->
<g id="edge8" class="edge">
<title>p0x1da4600&#45;&gt;p0x1da48b8</title>
<path fill="none" stroke="black" stroke-dasharray="5,2" d="M603.27,-105.19C608.34,-93.21 615.62,-76.03 621.71,-61.67"/>
<polygon fill="black" stroke="black" points="625.01,-62.84 625.69,-52.27 618.56,-60.11 625.01,-62.84"/>
<text text-anchor="middle" x="622" y="-73.8" font-family="Times,serif" font-size="14.00">2</text>
</g>
<!-- p0x1da49a0 -->
<g id="node12" class="node">
<title>p0x1da49a0</title>
<polygon fill="none" stroke="black" points="732,-52 678,-52 678,-48 674,-48 674,-44 678,-44 678,-24 674,-24 674,-20 678,-20 678,-16 732,-16 732,-52"/>
<polyline fill="none" stroke="black" points="678,-48 682,-48 682,-44 678,-44 "/>
<polyline fill="none" stroke="black" points="678,-24 682,-24 682,-20 678,-20 "/>
<text text-anchor="middle" x="705" y="-30.3" font-family="Times,serif" font-size="14.00">rt&#45;3</text>
</g>
<!-- p0x1da4600&#45;&gt;p0x1da49a0 -->
<g id="edge9" class="edge">
<title>p0x1da4600&#45;&gt;p0x1da49a0</title>
<path fill="none" stroke="black" stroke-dasharray="5,2" d="M611.57,-108.54C627.83,-95.73 654.59,-74.67 675.31,-58.36"/>
<polygon fill="black" stroke="black" points="677.52,-61.08 683.21,-52.15 673.19,-55.58 677.52,-61.08"/>
<text text-anchor="middle" x="662" y="-73.8" font-family="Times,serif" font-size="14.00">3</text>
</g>
</g>
</svg>
