<?xml version="1.0" encoding="UTF-8" standalone="no"?>
<!DOCTYPE svg PUBLIC "-//W3C//DTD SVG 1.1//EN"
 "http://www.w3.org/Graphics/SVG/1.1/DTD/svg11.dtd">
<!-- Generated by graphviz version 12.2.1 (20241206.2353)
 -->
<!-- Title: ProcessException Pages: 1 -->
<svg width="628pt" height="530pt"
 viewBox="0.00 0.00 627.62 530.00" xmlns="http://www.w3.org/2000/svg" xmlns:xlink="http://www.w3.org/1999/xlink">
<g id="graph0" class="graph" transform="scale(1 1) rotate(0) translate(4 526)">
<title>ProcessException</title>
<polygon fill="white" stroke="none" points="-4,4 -4,-526 623.62,-526 623.62,4 -4,4"/>
<!-- start -->
<g id="node1" class="node">
<title>start</title>
<polygon fill="none" stroke="black" points="208.75,-522 53.25,-522 53.25,-486 208.75,-486 208.75,-522"/>
<text text-anchor="middle" x="131" y="-498.95" font-family="Times,serif" font-size="14.00">Exception thrown by task</text>
</g>
<!-- mark -->
<g id="node2" class="node">
<title>mark</title>
<polygon fill="none" stroke="black" points="262,-449 0,-449 0,-408 262,-408 262,-449"/>
<text text-anchor="middle" x="131" y="-431.7" font-family="Times,serif" font-size="14.00">Traverse to the root to find exception catcher</text>
<text text-anchor="middle" x="131" y="-415.2" font-family="Times,serif" font-size="14.00">(explicit &amp; implicit anchors)</text>
</g>
<!-- start&#45;&gt;mark -->
<g id="edge1" class="edge">
<title>start&#45;&gt;mark</title>
<path fill="none" stroke="black" d="M131,-485.58C131,-478.2 131,-469.35 131,-460.9"/>
<polygon fill="black" stroke="black" points="134.5,-460.9 131,-450.9 127.5,-460.9 134.5,-460.9"/>
</g>
<!-- explicit -->
<g id="node3" class="node">
<title>explicit</title>
<polygon fill="none" stroke="black" points="201.25,-371 60.75,-371 60.75,-330 201.25,-330 201.25,-371"/>
<text text-anchor="middle" x="131" y="-353.7" font-family="Times,serif" font-size="14.00">Explicit anchor found?</text>
<text text-anchor="middle" x="131" y="-337.2" font-family="Times,serif" font-size="14.00">(blocking context)</text>
</g>
<!-- mark&#45;&gt;explicit -->
<g id="edge2" class="edge">
<title>mark&#45;&gt;explicit</title>
<path fill="none" stroke="black" d="M131,-407.53C131,-399.94 131,-391.1 131,-382.71"/>
<polygon fill="black" stroke="black" points="134.5,-382.85 131,-372.85 127.5,-382.85 134.5,-382.85"/>
</g>
<!-- explicit_catch -->
<g id="node4" class="node">
<title>explicit_catch</title>
<polygon fill="none" stroke="black" points="210.88,-277.5 11.12,-277.5 11.12,-220 210.88,-220 210.88,-277.5"/>
<text text-anchor="middle" x="111" y="-260.2" font-family="Times,serif" font-size="14.00">Store exception in explicit anchor</text>
<text text-anchor="middle" x="111" y="-243.7" font-family="Times,serif" font-size="14.00">(first exception wins)</text>
<text text-anchor="middle" x="111" y="-227.2" font-family="Times,serif" font-size="14.00">→ Scenario 1</text>
</g>
<!-- explicit&#45;&gt;explicit_catch -->
<g id="edge3" class="edge">
<title>explicit&#45;&gt;explicit_catch</title>
<path fill="none" stroke="black" d="M127.05,-329.79C124.7,-318.05 121.63,-302.75 118.8,-288.66"/>
<polygon fill="black" stroke="black" points="122.3,-288.33 116.91,-279.21 115.44,-289.7 122.3,-288.33"/>
<text text-anchor="middle" x="132.38" y="-298.7" font-family="Times,serif" font-size="14.00">yes</text>
</g>
<!-- topology -->
<g id="node5" class="node">
<title>topology</title>
<polygon fill="none" stroke="black" points="381.25,-269.25 228.75,-269.25 228.75,-228.25 381.25,-228.25 381.25,-269.25"/>
<text text-anchor="middle" x="305" y="-251.95" font-family="Times,serif" font-size="14.00">Shared state found?</text>
<text text-anchor="middle" x="305" y="-235.45" font-family="Times,serif" font-size="14.00">(e.g., promise, topology)</text>
</g>
<!-- explicit&#45;&gt;topology -->
<g id="edge4" class="edge">
<title>explicit&#45;&gt;topology</title>
<path fill="none" stroke="black" d="M165.79,-329.55C193.06,-313.92 231.18,-292.07 260.64,-275.18"/>
<polygon fill="black" stroke="black" points="262.02,-278.42 268.95,-270.41 258.54,-272.35 262.02,-278.42"/>
<text text-anchor="middle" x="229.97" y="-298.7" font-family="Times,serif" font-size="14.00">no</text>
</g>
<!-- topology_catch -->
<g id="node6" class="node">
<title>topology_catch</title>
<polygon fill="none" stroke="black" points="343.38,-167.5 140.62,-167.5 140.62,-110 343.38,-110 343.38,-167.5"/>
<text text-anchor="middle" x="242" y="-150.2" font-family="Times,serif" font-size="14.00">Store exception in the shared state</text>
<text text-anchor="middle" x="242" y="-133.7" font-family="Times,serif" font-size="14.00">(first exception wins)</text>
<text text-anchor="middle" x="242" y="-117.2" font-family="Times,serif" font-size="14.00">→ Scenario 2</text>
</g>
<!-- topology&#45;&gt;topology_catch -->
<g id="edge5" class="edge">
<title>topology&#45;&gt;topology_catch</title>
<path fill="none" stroke="black" d="M293.44,-227.94C285.25,-213.89 273.99,-194.6 264.1,-177.63"/>
<polygon fill="black" stroke="black" points="267.29,-176.16 259.23,-169.28 261.24,-179.68 267.29,-176.16"/>
<text text-anchor="middle" x="286.27" y="-188.7" font-family="Times,serif" font-size="14.00">yes</text>
</g>
<!-- implicit -->
<g id="node7" class="node">
<title>implicit</title>
<polygon fill="none" stroke="black" points="546.75,-159.25 361.25,-159.25 361.25,-118.25 546.75,-118.25 546.75,-159.25"/>
<text text-anchor="middle" x="454" y="-141.95" font-family="Times,serif" font-size="14.00">Implicit anchor found?</text>
<text text-anchor="middle" x="454" y="-125.45" font-family="Times,serif" font-size="14.00">(e.g., task group, runtime task)</text>
</g>
<!-- topology&#45;&gt;implicit -->
<g id="edge6" class="edge">
<title>topology&#45;&gt;implicit</title>
<path fill="none" stroke="black" d="M332.33,-227.94C356.2,-210.64 391.04,-185.38 417.33,-166.33"/>
<polygon fill="black" stroke="black" points="419.32,-169.21 425.37,-160.5 415.22,-163.54 419.32,-169.21"/>
<text text-anchor="middle" x="395.17" y="-188.7" font-family="Times,serif" font-size="14.00">no</text>
</g>
<!-- implicit_catch -->
<g id="node8" class="node">
<title>implicit_catch</title>
<polygon fill="none" stroke="black" points="460,-57.5 258,-57.5 258,0 460,0 460,-57.5"/>
<text text-anchor="middle" x="359" y="-40.2" font-family="Times,serif" font-size="14.00">Store exception in implicit anchor</text>
<text text-anchor="middle" x="359" y="-23.7" font-family="Times,serif" font-size="14.00">(first exception wins)</text>
<text text-anchor="middle" x="359" y="-7.2" font-family="Times,serif" font-size="14.00">→ Scenario 3</text>
</g>
<!-- implicit&#45;&gt;implicit_catch -->
<g id="edge7" class="edge">
<title>implicit&#45;&gt;implicit_catch</title>
<path fill="none" stroke="black" d="M436.58,-117.94C423.87,-103.5 406.29,-83.51 391.07,-66.21"/>
<polygon fill="black" stroke="black" points="394.06,-64.31 384.83,-59.11 388.8,-68.93 394.06,-64.31"/>
<text text-anchor="middle" x="421.19" y="-78.7" font-family="Times,serif" font-size="14.00">yes</text>
</g>
<!-- silent -->
<g id="node9" class="node">
<title>silent</title>
<polygon fill="none" stroke="black" points="619.62,-49.25 478.38,-49.25 478.38,-8.25 619.62,-8.25 619.62,-49.25"/>
<text text-anchor="middle" x="549" y="-31.95" font-family="Times,serif" font-size="14.00">Store exception locally</text>
<text text-anchor="middle" x="549" y="-15.45" font-family="Times,serif" font-size="14.00">(no exception report)</text>
</g>
<!-- implicit&#45;&gt;silent -->
<g id="edge8" class="edge">
<title>implicit&#45;&gt;silent</title>
<path fill="none" stroke="black" d="M471.42,-117.94C486.22,-101.12 507.63,-76.78 524.22,-57.92"/>
<polygon fill="black" stroke="black" points="526.71,-60.39 530.69,-50.57 521.45,-55.77 526.71,-60.39"/>
<text text-anchor="middle" x="513.94" y="-78.7" font-family="Times,serif" font-size="14.00">no</text>
</g>
</g>
</svg>
