<?xml version="1.0" encoding="UTF-8" standalone="no"?>
<!DOCTYPE svg PUBLIC "-//W3C//DTD SVG 1.1//EN"
 "http://www.w3.org/Graphics/SVG/1.1/DTD/svg11.dtd">
<!-- Generated by graphviz version 12.2.1 (20241206.2353)
 -->
<!-- Title: Cholesky Pages: 1 -->
<svg width="506pt" height="390pt"
 viewBox="0.00 0.00 506.00 390.25" xmlns="http://www.w3.org/2000/svg" xmlns:xlink="http://www.w3.org/1999/xlink">
<g id="graph0" class="graph" transform="scale(1 1) rotate(0) translate(4 386.25)">
<title>Cholesky</title>
<polygon fill="white" stroke="none" points="-4,4 -4,-386.25 502,-386.25 502,4 -4,4"/>
<!-- potrf_0 -->
<g id="node1" class="node">
<title>potrf_0</title>
<polygon fill="#fde8d0" stroke="black" points="64,-357.12 10,-357.12 10,-336.96 64,-336.96 64,-357.12"/>
<text text-anchor="middle" x="37" y="-343.37" font-family="Helvetica,sans-Serif" font-size="9.00">potrf(0,0)</text>
</g>
<!-- trsm_0_1 -->
<g id="node2" class="node">
<title>trsm_0_1</title>
<polygon fill="#cce5ff" stroke="black" points="230,-357.12 176,-357.12 176,-336.96 230,-336.96 230,-357.12"/>
<text text-anchor="middle" x="203" y="-343.37" font-family="Helvetica,sans-Serif" font-size="9.00">trsm(1,0)</text>
</g>
<!-- potrf_0&#45;&gt;trsm_0_1 -->
<g id="edge1" class="edge">
<title>potrf_0&#45;&gt;trsm_0_1</title>
<path fill="none" stroke="#555555" d="M52.74,-357.52C63.44,-364 78.21,-371.71 92.5,-375.12 116.28,-380.79 123.72,-380.79 147.5,-375.12 159.33,-372.3 171.49,-366.52 181.41,-360.94"/>
<polygon fill="#555555" stroke="#555555" points="182.18,-362.72 185.96,-358.28 180.24,-359.39 182.18,-362.72"/>
</g>
<!-- trsm_0_2 -->
<g id="node3" class="node">
<title>trsm_0_2</title>
<polygon fill="#cce5ff" stroke="black" points="147,-357.12 93,-357.12 93,-336.96 147,-336.96 147,-357.12"/>
<text text-anchor="middle" x="120" y="-343.37" font-family="Helvetica,sans-Serif" font-size="9.00">trsm(2,0)</text>
</g>
<!-- potrf_0&#45;&gt;trsm_0_2 -->
<g id="edge2" class="edge">
<title>potrf_0&#45;&gt;trsm_0_2</title>
<path fill="none" stroke="#555555" d="M64.23,-347.04C71.46,-347.04 78.69,-347.04 85.92,-347.04"/>
<polygon fill="#555555" stroke="#555555" points="85.54,-348.97 91.04,-347.04 85.54,-345.12 85.54,-348.97"/>
</g>
<!-- trsm_0_3 -->
<g id="node4" class="node">
<title>trsm_0_3</title>
<polygon fill="#cce5ff" stroke="black" points="364,-357.12 310,-357.12 310,-336.96 364,-336.96 364,-357.12"/>
<text text-anchor="middle" x="337" y="-343.37" font-family="Helvetica,sans-Serif" font-size="9.00">trsm(3,0)</text>
</g>
<!-- potrf_0&#45;&gt;trsm_0_3 -->
<g id="edge3" class="edge">
<title>potrf_0&#45;&gt;trsm_0_3</title>
<path fill="none" stroke="#555555" d="M52.74,-357.52C63.44,-364 78.21,-371.71 92.5,-375.12 166.53,-392.78 255.91,-372.27 303.44,-358.16"/>
<polygon fill="#555555" stroke="#555555" points="303.71,-360.09 308.41,-356.65 302.59,-356.4 303.71,-360.09"/>
</g>
<!-- syrk_0_1 -->
<g id="node5" class="node">
<title>syrk_0_1</title>
<polygon fill="#d4edda" stroke="black" points="230,-300.96 176,-300.96 176,-280.8 230,-280.8 230,-300.96"/>
<text text-anchor="middle" x="203" y="-287.2" font-family="Helvetica,sans-Serif" font-size="9.00">syrk(1,0)</text>
</g>
<!-- trsm_0_1&#45;&gt;syrk_0_1 -->
<g id="edge4" class="edge">
<title>trsm_0_1&#45;&gt;syrk_0_1</title>
<path fill="none" stroke="#555555" d="M203,-336.61C203,-328.76 203,-317.42 203,-308.12"/>
<polygon fill="#555555" stroke="#555555" points="204.93,-308.22 203,-302.72 201.08,-308.22 204.93,-308.22"/>
</g>
<!-- gemm_0_2_1 -->
<g id="node8" class="node">
<title>gemm_0_2_1</title>
<polygon fill="#fff3cd" stroke="black" points="146.63,-300.96 83.36,-300.96 83.36,-280.8 146.63,-280.8 146.63,-300.96"/>
<text text-anchor="middle" x="115" y="-287.2" font-family="Helvetica,sans-Serif" font-size="9.00">gemm(2,1,0)</text>
</g>
<!-- trsm_0_1&#45;&gt;gemm_0_2_1 -->
<g id="edge8" class="edge">
<title>trsm_0_1&#45;&gt;gemm_0_2_1</title>
<path fill="none" stroke="#555555" d="M187.67,-336.61C173.37,-327.81 151.92,-314.6 136.03,-304.82"/>
<polygon fill="#555555" stroke="#555555" points="137.43,-303.42 131.74,-302.18 135.41,-306.7 137.43,-303.42"/>
</g>
<!-- gemm_0_3_1 -->
<g id="node9" class="node">
<title>gemm_0_3_1</title>
<polygon fill="#fff3cd" stroke="black" points="414.63,-300.96 351.37,-300.96 351.37,-280.8 414.63,-280.8 414.63,-300.96"/>
<text text-anchor="middle" x="383" y="-287.2" font-family="Helvetica,sans-Serif" font-size="9.00">gemm(3,1,0)</text>
</g>
<!-- trsm_0_1&#45;&gt;gemm_0_3_1 -->
<g id="edge10" class="edge">
<title>trsm_0_1&#45;&gt;gemm_0_3_1</title>
<path fill="none" stroke="#555555" d="M230.34,-337.81C260.86,-328.63 310.46,-313.71 344.8,-303.37"/>
<polygon fill="#555555" stroke="#555555" points="345.3,-305.23 350.01,-301.81 344.19,-301.55 345.3,-305.23"/>
</g>
<!-- syrk_0_2 -->
<g id="node6" class="node">
<title>syrk_0_2</title>
<polygon fill="#d4edda" stroke="black" points="54,-300.96 0,-300.96 0,-280.8 54,-280.8 54,-300.96"/>
<text text-anchor="middle" x="27" y="-287.2" font-family="Helvetica,sans-Serif" font-size="9.00">syrk(2,0)</text>
</g>
<!-- trsm_0_2&#45;&gt;syrk_0_2 -->
<g id="edge5" class="edge">
<title>trsm_0_2&#45;&gt;syrk_0_2</title>
<path fill="none" stroke="#555555" d="M103.8,-336.61C88.69,-327.81 66.02,-314.6 49.22,-304.82"/>
<polygon fill="#555555" stroke="#555555" points="50.36,-303.25 44.63,-302.15 48.42,-306.58 50.36,-303.25"/>
</g>
<!-- trsm_0_2&#45;&gt;gemm_0_2_1 -->
<g id="edge7" class="edge">
<title>trsm_0_2&#45;&gt;gemm_0_2_1</title>
<path fill="none" stroke="#555555" d="M119.13,-336.61C118.4,-328.76 117.36,-317.42 116.5,-308.12"/>
<polygon fill="#555555" stroke="#555555" points="118.42,-308.01 116,-302.71 114.59,-308.37 118.42,-308.01"/>
</g>
<!-- gemm_0_3_2 -->
<g id="node10" class="node">
<title>gemm_0_3_2</title>
<polygon fill="#fff3cd" stroke="black" points="322.63,-300.96 259.37,-300.96 259.37,-280.8 322.63,-280.8 322.63,-300.96"/>
<text text-anchor="middle" x="291" y="-287.2" font-family="Helvetica,sans-Serif" font-size="9.00">gemm(3,2,0)</text>
</g>
<!-- trsm_0_2&#45;&gt;gemm_0_3_2 -->
<g id="edge12" class="edge">
<title>trsm_0_2&#45;&gt;gemm_0_3_2</title>
<path fill="none" stroke="#555555" d="M147.47,-337.34C176.47,-328.15 222.33,-313.63 254.39,-303.48"/>
<polygon fill="#555555" stroke="#555555" points="254.9,-305.33 259.56,-301.84 253.74,-301.66 254.9,-305.33"/>
</g>
<!-- syrk_0_3 -->
<g id="node7" class="node">
<title>syrk_0_3</title>
<polygon fill="#d4edda" stroke="black" points="498,-300.96 444,-300.96 444,-280.8 498,-280.8 498,-300.96"/>
<text text-anchor="middle" x="471" y="-287.2" font-family="Helvetica,sans-Serif" font-size="9.00">syrk(3,0)</text>
</g>
<!-- trsm_0_3&#45;&gt;syrk_0_3 -->
<g id="edge6" class="edge">
<title>trsm_0_3&#45;&gt;syrk_0_3</title>
<path fill="none" stroke="#555555" d="M360.65,-336.48C383.13,-327.39 417.03,-313.69 441.32,-303.88"/>
<polygon fill="#555555" stroke="#555555" points="441.81,-305.76 446.19,-301.91 440.36,-302.19 441.81,-305.76"/>
</g>
<!-- trsm_0_3&#45;&gt;gemm_0_3_1 -->
<g id="edge9" class="edge">
<title>trsm_0_3&#45;&gt;gemm_0_3_1</title>
<path fill="none" stroke="#555555" d="M345.01,-336.61C352.07,-328.3 362.46,-316.06 370.59,-306.49"/>
<polygon fill="#555555" stroke="#555555" points="372.01,-307.8 374.1,-302.36 369.07,-305.31 372.01,-307.8"/>
</g>
<!-- trsm_0_3&#45;&gt;gemm_0_3_2 -->
<g id="edge11" class="edge">
<title>trsm_0_3&#45;&gt;gemm_0_3_2</title>
<path fill="none" stroke="#555555" d="M328.99,-336.61C321.93,-328.3 311.54,-316.06 303.41,-306.49"/>
<polygon fill="#555555" stroke="#555555" points="304.93,-305.31 299.9,-302.36 301.99,-307.8 304.93,-305.31"/>
</g>
<!-- potrf_1 -->
<g id="node11" class="node">
<title>potrf_1</title>
<polygon fill="#fde8d0" stroke="black" points="232,-244.8 178,-244.8 178,-224.64 232,-224.64 232,-244.8"/>
<text text-anchor="middle" x="205" y="-231.04" font-family="Helvetica,sans-Serif" font-size="9.00">potrf(1,1)</text>
</g>
<!-- syrk_0_1&#45;&gt;potrf_1 -->
<g id="edge13" class="edge">
<title>syrk_0_1&#45;&gt;potrf_1</title>
<path fill="none" stroke="#555555" d="M203.35,-280.45C203.64,-272.6 204.06,-261.26 204.4,-251.96"/>
<polygon fill="#555555" stroke="#555555" points="206.32,-252.13 204.6,-246.56 202.47,-251.98 206.32,-252.13"/>
</g>
<!-- potrf_2 -->
<g id="node17" class="node">
<title>potrf_2</title>
<polygon fill="#fde8d0" stroke="black" points="149,-132.48 95,-132.48 95,-112.32 149,-112.32 149,-132.48"/>
<text text-anchor="middle" x="122" y="-118.73" font-family="Helvetica,sans-Serif" font-size="9.00">potrf(2,2)</text>
</g>
<!-- syrk_0_2&#45;&gt;potrf_2 -->
<g id="edge14" class="edge">
<title>syrk_0_2&#45;&gt;potrf_2</title>
<path fill="none" stroke="#555555" d="M29.88,-280.51C36.61,-259.4 54.76,-206.93 80,-168.48 87.39,-157.22 97.67,-146.14 106.2,-137.78"/>
<polygon fill="#555555" stroke="#555555" points="107.52,-139.18 110.16,-133.99 104.86,-136.4 107.52,-139.18"/>
</g>
<!-- potrf_3 -->
<g id="node20" class="node">
<title>potrf_3</title>
<polygon fill="#fde8d0" stroke="black" points="387,-20.16 333,-20.16 333,0 387,0 387,-20.16"/>
<text text-anchor="middle" x="360" y="-6.41" font-family="Helvetica,sans-Serif" font-size="9.00">potrf(3,3)</text>
</g>
<!-- syrk_0_3&#45;&gt;potrf_3 -->
<g id="edge15" class="edge">
<title>syrk_0_3&#45;&gt;potrf_3</title>
<path fill="none" stroke="#555555" d="M468.28,-280.53C463.02,-261.63 452,-217.46 452,-179.56 452,-179.56 452,-179.56 452,-121.4 452,-77.86 409.21,-42.4 382,-24.25"/>
<polygon fill="#555555" stroke="#555555" points="383.38,-22.85 377.72,-21.46 381.28,-26.08 383.38,-22.85"/>
</g>
<!-- trsm_1_2 -->
<g id="node12" class="node">
<title>trsm_1_2</title>
<polygon fill="#cce5ff" stroke="black" points="149,-244.8 95,-244.8 95,-224.64 149,-224.64 149,-244.8"/>
<text text-anchor="middle" x="122" y="-231.04" font-family="Helvetica,sans-Serif" font-size="9.00">trsm(2,1)</text>
</g>
<!-- gemm_0_2_1&#45;&gt;trsm_1_2 -->
<g id="edge16" class="edge">
<title>gemm_0_2_1&#45;&gt;trsm_1_2</title>
<path fill="none" stroke="#555555" d="M116.22,-280.45C117.23,-272.6 118.7,-261.26 119.9,-251.96"/>
<polygon fill="#555555" stroke="#555555" points="121.8,-252.25 120.6,-246.55 117.99,-251.75 121.8,-252.25"/>
</g>
<!-- trsm_1_3 -->
<g id="node13" class="node">
<title>trsm_1_3</title>
<polygon fill="#cce5ff" stroke="black" points="387,-244.8 333,-244.8 333,-224.64 387,-224.64 387,-244.8"/>
<text text-anchor="middle" x="360" y="-231.04" font-family="Helvetica,sans-Serif" font-size="9.00">trsm(3,1)</text>
</g>
<!-- gemm_0_3_1&#45;&gt;trsm_1_3 -->
<g id="edge17" class="edge">
<title>gemm_0_3_1&#45;&gt;trsm_1_3</title>
<path fill="none" stroke="#555555" d="M378.99,-280.45C375.6,-272.45 370.65,-260.81 366.66,-251.41"/>
<polygon fill="#555555" stroke="#555555" points="368.47,-250.75 364.55,-246.44 364.93,-252.25 368.47,-250.75"/>
</g>
<!-- trsm_2_3 -->
<g id="node18" class="node">
<title>trsm_2_3</title>
<polygon fill="#cce5ff" stroke="black" points="259,-132.48 205,-132.48 205,-112.32 259,-112.32 259,-132.48"/>
<text text-anchor="middle" x="232" y="-118.73" font-family="Helvetica,sans-Serif" font-size="9.00">trsm(3,2)</text>
</g>
<!-- gemm_0_3_2&#45;&gt;trsm_2_3 -->
<g id="edge18" class="edge">
<title>gemm_0_3_2&#45;&gt;trsm_2_3</title>
<path fill="none" stroke="#555555" d="M289.45,-280.45C285.83,-259.64 275.84,-208.45 259,-168.48 254.55,-157.93 247.98,-146.88 242.43,-138.37"/>
<polygon fill="#555555" stroke="#555555" points="244.11,-137.42 239.45,-133.92 240.91,-139.56 244.11,-137.42"/>
</g>
<!-- potrf_1&#45;&gt;trsm_1_2 -->
<g id="edge19" class="edge">
<title>potrf_1&#45;&gt;trsm_1_2</title>
<path fill="none" stroke="#555555" d="M177.55,-234.72C170.33,-234.72 163.1,-234.72 155.87,-234.72"/>
<polygon fill="#555555" stroke="#555555" points="156.25,-232.8 150.75,-234.72 156.25,-236.65 156.25,-232.8"/>
</g>
<!-- potrf_1&#45;&gt;trsm_1_3 -->
<g id="edge20" class="edge">
<title>potrf_1&#45;&gt;trsm_1_3</title>
<path fill="none" stroke="#555555" d="M232.25,-234.72C263.46,-234.72 294.68,-234.72 325.89,-234.72"/>
<polygon fill="#555555" stroke="#555555" points="325.54,-236.65 331.04,-234.72 325.54,-232.8 325.54,-236.65"/>
</g>
<!-- syrk_1_2 -->
<g id="node14" class="node">
<title>syrk_1_2</title>
<polygon fill="#d4edda" stroke="black" points="149,-188.64 95,-188.64 95,-168.48 149,-168.48 149,-188.64"/>
<text text-anchor="middle" x="122" y="-174.88" font-family="Helvetica,sans-Serif" font-size="9.00">syrk(2,1)</text>
</g>
<!-- trsm_1_2&#45;&gt;syrk_1_2 -->
<g id="edge21" class="edge">
<title>trsm_1_2&#45;&gt;syrk_1_2</title>
<path fill="none" stroke="#555555" d="M122,-224.29C122,-216.44 122,-205.1 122,-195.8"/>
<polygon fill="#555555" stroke="#555555" points="123.93,-195.9 122,-190.4 120.08,-195.9 123.93,-195.9"/>
</g>
<!-- gemm_1_3_2 -->
<g id="node16" class="node">
<title>gemm_1_3_2</title>
<polygon fill="#fff3cd" stroke="black" points="244.63,-188.64 181.37,-188.64 181.37,-168.48 244.63,-168.48 244.63,-188.64"/>
<text text-anchor="middle" x="213" y="-174.88" font-family="Helvetica,sans-Serif" font-size="9.00">gemm(3,2,1)</text>
</g>
<!-- trsm_1_2&#45;&gt;gemm_1_3_2 -->
<g id="edge24" class="edge">
<title>trsm_1_2&#45;&gt;gemm_1_3_2</title>
<path fill="none" stroke="#555555" d="M137.85,-224.29C152.64,-215.49 174.82,-202.28 191.25,-192.5"/>
<polygon fill="#555555" stroke="#555555" points="191.98,-194.31 195.72,-189.84 190.01,-191 191.98,-194.31"/>
</g>
<!-- syrk_1_3 -->
<g id="node15" class="node">
<title>syrk_1_3</title>
<polygon fill="#d4edda" stroke="black" points="387,-188.64 333,-188.64 333,-168.48 387,-168.48 387,-188.64"/>
<text text-anchor="middle" x="360" y="-174.88" font-family="Helvetica,sans-Serif" font-size="9.00">syrk(3,1)</text>
</g>
<!-- trsm_1_3&#45;&gt;syrk_1_3 -->
<g id="edge22" class="edge">
<title>trsm_1_3&#45;&gt;syrk_1_3</title>
<path fill="none" stroke="#555555" d="M360,-224.29C360,-216.44 360,-205.1 360,-195.8"/>
<polygon fill="#555555" stroke="#555555" points="361.93,-195.9 360,-190.4 358.08,-195.9 361.93,-195.9"/>
</g>
<!-- trsm_1_3&#45;&gt;gemm_1_3_2 -->
<g id="edge23" class="edge">
<title>trsm_1_3&#45;&gt;gemm_1_3_2</title>
<path fill="none" stroke="#555555" d="M334.06,-224.16C309.29,-215.04 271.89,-201.26 245.22,-191.43"/>
<polygon fill="#555555" stroke="#555555" points="245.93,-189.64 240.1,-189.55 244.6,-193.25 245.93,-189.64"/>
</g>
<!-- syrk_1_2&#45;&gt;potrf_2 -->
<g id="edge25" class="edge">
<title>syrk_1_2&#45;&gt;potrf_2</title>
<path fill="none" stroke="#555555" d="M122,-168.13C122,-160.28 122,-148.94 122,-139.64"/>
<polygon fill="#555555" stroke="#555555" points="123.93,-139.74 122,-134.24 120.08,-139.74 123.93,-139.74"/>
</g>
<!-- syrk_1_3&#45;&gt;potrf_3 -->
<g id="edge26" class="edge">
<title>syrk_1_3&#45;&gt;potrf_3</title>
<path fill="none" stroke="#555555" d="M360,-168.13C360,-140.89 360,-61.82 360,-27.41"/>
<polygon fill="#555555" stroke="#555555" points="361.93,-27.42 360,-21.92 358.08,-27.42 361.93,-27.42"/>
</g>
<!-- gemm_1_3_2&#45;&gt;trsm_2_3 -->
<g id="edge27" class="edge">
<title>gemm_1_3_2&#45;&gt;trsm_2_3</title>
<path fill="none" stroke="#555555" d="M216.31,-168.13C219.12,-160.13 223.2,-148.49 226.5,-139.09"/>
<polygon fill="#555555" stroke="#555555" points="228.22,-139.98 228.23,-134.15 224.59,-138.71 228.22,-139.98"/>
</g>
<!-- potrf_2&#45;&gt;trsm_2_3 -->
<g id="edge28" class="edge">
<title>potrf_2&#45;&gt;trsm_2_3</title>
<path fill="none" stroke="#555555" d="M149.5,-122.4C165.57,-122.4 181.65,-122.4 197.72,-122.4"/>
<polygon fill="#555555" stroke="#555555" points="197.59,-124.33 203.09,-122.4 197.59,-120.48 197.59,-124.33"/>
</g>
<!-- syrk_2_3 -->
<g id="node19" class="node">
<title>syrk_2_3</title>
<polygon fill="#d4edda" stroke="black" points="278,-76.32 224,-76.32 224,-56.16 278,-56.16 278,-76.32"/>
<text text-anchor="middle" x="251" y="-62.57" font-family="Helvetica,sans-Serif" font-size="9.00">syrk(3,2)</text>
</g>
<!-- trsm_2_3&#45;&gt;syrk_2_3 -->
<g id="edge29" class="edge">
<title>trsm_2_3&#45;&gt;syrk_2_3</title>
<path fill="none" stroke="#555555" d="M235.31,-111.97C238.12,-103.97 242.2,-92.33 245.5,-82.93"/>
<polygon fill="#555555" stroke="#555555" points="247.22,-83.82 247.23,-77.99 243.59,-82.55 247.22,-83.82"/>
</g>
<!-- syrk_2_3&#45;&gt;potrf_3 -->
<g id="edge30" class="edge">
<title>syrk_2_3&#45;&gt;potrf_3</title>
<path fill="none" stroke="#555555" d="M270.24,-55.68C288.21,-46.75 315.16,-33.36 334.84,-23.58"/>
<polygon fill="#555555" stroke="#555555" points="335.53,-25.39 339.6,-21.22 333.82,-21.94 335.53,-25.39"/>
</g>
</g>
</svg>
