<?xml version="1.0" encoding="UTF-8" standalone="no"?>
<!DOCTYPE svg PUBLIC "-//W3C//DTD SVG 1.1//EN"
 "http://www.w3.org/Graphics/SVG/1.1/DTD/svg11.dtd">
<!-- Generated by graphviz version 12.2.1 (20241206.2353)
 -->
<!-- Title: Taskflow Pages: 1 -->
<svg width="1365pt" height="694pt"
 viewBox="0.00 0.00 1364.68 693.68" xmlns="http://www.w3.org/2000/svg" xmlns:xlink="http://www.w3.org/1999/xlink">
<g id="graph0" class="graph" transform="scale(1 1) rotate(0) translate(4 689.68)">
<title>Taskflow</title>
<polygon fill="white" stroke="none" points="-4,4 -4,-689.68 1360.68,-689.68 1360.68,4 -4,4"/>
<g id="clust1" class="cluster">
<title>cluster_p0x55f824e16950</title>
<polygon fill="none" stroke="purple" points="510.53,-370 510.53,-555 832.19,-555 832.19,-370 510.53,-370"/>
<text text-anchor="middle" x="671.36" y="-537.7" font-family="Times,serif" font-size="14.00">cudaFlow: h2d_constant</text>
</g>
<g id="clust2" class="cluster">
<title>cluster_p0x55f824e16ea0</title>
<polygon fill="none" stroke="purple" points="486.48,-131 486.48,-316 827.69,-316 827.69,-131 486.48,-131"/>
<text text-anchor="middle" x="657.08" y="-298.7" font-family="Times,serif" font-size="14.00">cudaFlow: [0]mis_h2d</text>
</g>
<g id="clust3" class="cluster">
<title>cluster_p0x55f824e170c0</title>
<polygon fill="none" stroke="purple" points="8,-391 8,-522 443.83,-522 443.83,-391 8,-391"/>
<text text-anchor="middle" x="225.91" y="-504.7" font-family="Times,serif" font-size="14.00">cudaFlow: [0]mis_loop_k</text>
</g>
<g id="clust4" class="cluster">
<title>cluster_p0x55f824e173f0</title>
<polygon fill="none" stroke="purple" points="694.22,-46 694.22,-123 1031.1,-123 1031.1,-46 694.22,-46"/>
<text text-anchor="middle" x="862.66" y="-105.7" font-family="Times,serif" font-size="14.00">cudaFlow: [0]mis_loop_end</text>
</g>
<!-- p0x55f824e15da0 -->
<g id="node1" class="node">
<title>p0x55f824e15da0</title>
<ellipse fill="none" stroke="black" cx="575.51" cy="-635" rx="66.71" ry="18"/>
<text text-anchor="middle" x="575.51" y="-629.95" font-family="Times,serif" font-size="14.00">new_net_mask</text>
</g>
<!-- p0x55f824e16950 -->
<g id="node2" class="node">
<title>p0x55f824e16950</title>
<polygon fill="cyan" stroke="black" points="824.19,-511 821.19,-515 800.19,-515 797.19,-511 736.19,-511 736.19,-475 824.19,-475 824.19,-511"/>
<text text-anchor="middle" x="780.19" y="-487.95" font-family="Times,serif" font-size="14.00">h2d_constant</text>
</g>
<!-- p0x55f824e15da0&#45;&gt;p0x55f824e16950 -->
<g id="edge1" class="edge">
<title>p0x55f824e15da0&#45;&gt;p0x55f824e16950</title>
<path fill="none" stroke="black" d="M626.97,-623.12C638.65,-619.24 650.71,-614.27 661.16,-608 700.22,-584.56 736.35,-545.79 758.08,-519.83"/>
<polygon fill="black" stroke="black" points="760.55,-522.34 764.19,-512.39 755.14,-517.9 760.55,-522.34"/>
</g>
<!-- p0x55f824e16fb0 -->
<g id="node4" class="node">
<title>p0x55f824e16fb0</title>
<ellipse fill="none" stroke="black" cx="968.6" cy="-425" rx="63.63" ry="18"/>
<text text-anchor="middle" x="968.6" y="-419.95" font-family="Times,serif" font-size="14.00">mis_loop_beg</text>
</g>
<!-- p0x55f824e16950&#45;&gt;p0x55f824e16fb0 -->
<g id="edge3" class="edge">
<title>p0x55f824e16950&#45;&gt;p0x55f824e16fb0</title>
<path fill="none" stroke="black" d="M824.42,-477.23C852.27,-467.07 888.57,-453.83 917.65,-443.22"/>
<polygon fill="black" stroke="black" points="918.8,-446.53 926.99,-439.82 916.4,-439.95 918.8,-446.53"/>
</g>
<!-- p0x55f824e160d0 -->
<g id="node3" class="node">
<title>p0x55f824e160d0</title>
<ellipse fill="none" stroke="black" cx="575.51" cy="-581" rx="58.52" ry="18"/>
<text text-anchor="middle" x="575.51" y="-575.95" font-family="Times,serif" font-size="14.00">new_pin2net</text>
</g>
<!-- p0x55f824e160d0&#45;&gt;p0x55f824e16950 -->
<g id="edge2" class="edge">
<title>p0x55f824e160d0&#45;&gt;p0x55f824e16950</title>
<path fill="none" stroke="black" d="M624.66,-570.76C636.77,-567.57 649.6,-563.64 661.16,-559 689.24,-547.71 718.97,-531.06 741.57,-517.3"/>
<polygon fill="black" stroke="black" points="743.15,-520.44 749.82,-512.21 739.47,-514.48 743.15,-520.44"/>
</g>
<!-- p0x55f824e170c0 -->
<g id="node16" class="node">
<title>p0x55f824e170c0</title>
<polygon fill="cyan" stroke="black" points="435.83,-462 432.83,-466 411.83,-466 408.83,-462 339.58,-462 339.58,-426 435.83,-426 435.83,-462"/>
<text text-anchor="middle" x="387.7" y="-438.95" font-family="Times,serif" font-size="14.00">[0]mis_loop_k</text>
</g>
<!-- p0x55f824e16fb0&#45;&gt;p0x55f824e170c0 -->
<g id="edge15" class="edge">
<title>p0x55f824e16fb0&#45;&gt;p0x55f824e170c0</title>
<path fill="none" stroke="black" d="M956.98,-443.08C939.92,-470.89 904.03,-524.57 862.22,-559 784.71,-622.83 758.76,-638.45 661.16,-662 585.69,-680.21 551.65,-704.19 486.48,-662 421.32,-619.81 399.17,-522.81 391.98,-473.68"/>
<polygon fill="black" stroke="black" points="395.45,-473.23 390.65,-463.78 388.51,-474.15 395.45,-473.23"/>
</g>
<!-- p0x7f4ad8000e70 -->
<g id="node5" class="node">
<title>p0x7f4ad8000e70</title>
<ellipse fill="none" stroke="black" cx="575.51" cy="-504" rx="56.98" ry="18"/>
<text text-anchor="middle" x="575.51" y="-498.95" font-family="Times,serif" font-size="14.00">h2d_pin2net</text>
</g>
<!-- p0x7f4ad8000e70&#45;&gt;p0x55f824e16950 -->
<g id="edge4" class="edge">
<title>p0x7f4ad8000e70&#45;&gt;p0x55f824e16950</title>
<path fill="none" stroke="black" d="M632.16,-500.98C660.9,-499.42 695.83,-497.52 724.44,-495.97"/>
<polygon fill="black" stroke="black" points="724.56,-499.47 734.36,-495.43 724.18,-492.48 724.56,-499.47"/>
</g>
<!-- p0x7f4ad8000f30 -->
<g id="node6" class="node">
<title>p0x7f4ad8000f30</title>
<ellipse fill="none" stroke="black" cx="575.51" cy="-396" rx="53.4" ry="18"/>
<text text-anchor="middle" x="575.51" y="-390.95" font-family="Times,serif" font-size="14.00">h2d_fv2pin</text>
</g>
<!-- p0x7f4ad8000f30&#45;&gt;p0x55f824e16950 -->
<g id="edge5" class="edge">
<title>p0x7f4ad8000f30&#45;&gt;p0x55f824e16950</title>
<path fill="none" stroke="black" d="M618.11,-407.22C632.05,-411.51 647.51,-416.87 661.16,-423 689.74,-435.84 720.12,-453.96 742.89,-468.55"/>
<polygon fill="black" stroke="black" points="740.91,-471.44 751.2,-473.95 744.72,-465.57 740.91,-471.44"/>
</g>
<!-- p0x7f4ad8001140 -->
<g id="node7" class="node">
<title>p0x7f4ad8001140</title>
<ellipse fill="none" stroke="black" cx="575.51" cy="-450" rx="50.33" ry="18"/>
<text text-anchor="middle" x="575.51" y="-444.95" font-family="Times,serif" font-size="14.00">h2d_pin2v</text>
</g>
<!-- p0x7f4ad8001140&#45;&gt;p0x55f824e16950 -->
<g id="edge6" class="edge">
<title>p0x7f4ad8001140&#45;&gt;p0x55f824e16950</title>
<path fill="none" stroke="black" d="M619.5,-459.12C650.29,-465.65 692,-474.5 725.06,-481.52"/>
<polygon fill="black" stroke="black" points="723.93,-484.85 734.44,-483.51 725.38,-478.01 723.93,-484.85"/>
</g>
<!-- p0x55f824e16a60 -->
<g id="node8" class="node">
<title>p0x55f824e16a60</title>
<ellipse fill="none" stroke="black" cx="70.42" cy="-103" rx="65.17" ry="18"/>
<text text-anchor="middle" x="70.42" y="-97.95" font-family="Times,serif" font-size="14.00">[0]shuffle_beg</text>
</g>
<!-- p0x55f824e16b70 -->
<g id="node9" class="node">
<title>p0x55f824e16b70</title>
<ellipse fill="none" stroke="black" cx="229.06" cy="-103" rx="56.47" ry="18"/>
<text text-anchor="middle" x="229.06" y="-97.95" font-family="Times,serif" font-size="14.00">[0]shuffle_k</text>
</g>
<!-- p0x55f824e16a60&#45;&gt;p0x55f824e16b70 -->
<g id="edge7" class="edge">
<title>p0x55f824e16a60&#45;&gt;p0x55f824e16b70</title>
<path fill="none" stroke="black" d="M136.04,-103C144.17,-103 152.51,-103 160.68,-103"/>
<polygon fill="black" stroke="black" points="160.58,-106.5 170.58,-103 160.58,-99.5 160.58,-106.5"/>
</g>
<!-- p0x55f824e16c80 -->
<g id="node10" class="node">
<title>p0x55f824e16c80</title>
<ellipse fill="none" stroke="black" cx="387.7" cy="-103" rx="65.17" ry="18"/>
<text text-anchor="middle" x="387.7" y="-97.95" font-family="Times,serif" font-size="14.00">[0]shuffle_end</text>
</g>
<!-- p0x55f824e16b70&#45;&gt;p0x55f824e16c80 -->
<g id="edge8" class="edge">
<title>p0x55f824e16b70&#45;&gt;p0x55f824e16c80</title>
<path fill="none" stroke="black" d="M285.73,-103C293.83,-103 302.28,-103 310.7,-103"/>
<polygon fill="black" stroke="black" points="310.61,-106.5 320.61,-103 310.61,-99.5 310.61,-106.5"/>
</g>
<!-- p0x55f824e16d90 -->
<g id="node11" class="node">
<title>p0x55f824e16d90</title>
<ellipse fill="none" stroke="black" cx="575.51" cy="-103" rx="85.64" ry="18"/>
<text text-anchor="middle" x="575.51" y="-97.95" font-family="Times,serif" font-size="14.00">[0]mis_parallel_beg</text>
</g>
<!-- p0x55f824e16c80&#45;&gt;p0x55f824e16d90 -->
<g id="edge9" class="edge">
<title>p0x55f824e16c80&#45;&gt;p0x55f824e16d90</title>
<path fill="none" stroke="black" d="M453.17,-103C461.24,-103 469.63,-103 478.05,-103"/>
<polygon fill="black" stroke="black" points="478.03,-106.5 488.03,-103 478.03,-99.5 478.03,-106.5"/>
</g>
<!-- p0x55f824e16ea0 -->
<g id="node12" class="node">
<title>p0x55f824e16ea0</title>
<polygon fill="cyan" stroke="black" points="819.69,-229 816.69,-233 795.69,-233 792.69,-229 740.69,-229 740.69,-193 819.69,-193 819.69,-229"/>
<text text-anchor="middle" x="780.19" y="-205.95" font-family="Times,serif" font-size="14.00">[0]mis_h2d</text>
</g>
<!-- p0x55f824e16d90&#45;&gt;p0x55f824e16ea0 -->
<g id="edge10" class="edge">
<title>p0x55f824e16d90&#45;&gt;p0x55f824e16ea0</title>
<path fill="none" stroke="black" d="M633.96,-116.4C643.25,-119.38 652.62,-122.9 661.16,-127 693.64,-142.59 726.73,-167.04 749.58,-185.55"/>
<polygon fill="black" stroke="black" points="747.3,-188.2 757.24,-191.86 751.75,-182.8 747.3,-188.2"/>
</g>
<!-- p0x55f824e16ea0&#45;&gt;p0x55f824e16fb0 -->
<g id="edge11" class="edge">
<title>p0x55f824e16ea0&#45;&gt;p0x55f824e16fb0</title>
<path fill="none" stroke="black" d="M808.96,-229.38C831.65,-245.27 863.66,-269.76 886.97,-296 914.84,-327.38 939.18,-369.51 953.63,-396.95"/>
<polygon fill="black" stroke="black" points="950.45,-398.42 958.16,-405.7 956.67,-395.21 950.45,-398.42"/>
</g>
<!-- p0x7f4ad8004530 -->
<g id="node13" class="node">
<title>p0x7f4ad8004530</title>
<ellipse fill="none" stroke="black" cx="575.51" cy="-265" rx="81.04" ry="18"/>
<text text-anchor="middle" x="575.51" y="-259.95" font-family="Times,serif" font-size="14.00">[0]h2d_ordered_vs</text>
</g>
<!-- p0x7f4ad8004530&#45;&gt;p0x55f824e16ea0 -->
<g id="edge12" class="edge">
<title>p0x7f4ad8004530&#45;&gt;p0x55f824e16ea0</title>
<path fill="none" stroke="black" d="M628.71,-251.09C659.73,-242.83 698.86,-232.4 729.45,-224.25"/>
<polygon fill="black" stroke="black" points="730.07,-227.71 738.83,-221.75 728.27,-220.94 730.07,-227.71"/>
</g>
<!-- p0x7f4ad8006d10 -->
<g id="node14" class="node">
<title>p0x7f4ad8006d10</title>
<ellipse fill="none" stroke="black" cx="575.51" cy="-157" rx="77.97" ry="18"/>
<text text-anchor="middle" x="575.51" y="-151.95" font-family="Times,serif" font-size="14.00">[0]h2d_dependent</text>
</g>
<!-- p0x7f4ad8006d10&#45;&gt;p0x55f824e16ea0 -->
<g id="edge13" class="edge">
<title>p0x7f4ad8006d10&#45;&gt;p0x55f824e16ea0</title>
<path fill="none" stroke="black" d="M627.92,-170.7C659.04,-178.99 698.55,-189.51 729.38,-197.73"/>
<polygon fill="black" stroke="black" points="728.29,-201.06 738.85,-200.25 730.09,-194.3 728.29,-201.06"/>
</g>
<!-- p0x7f4ad8006df0 -->
<g id="node15" class="node">
<title>p0x7f4ad8006df0</title>
<ellipse fill="none" stroke="black" cx="575.51" cy="-211" rx="69.78" ry="18"/>
<text text-anchor="middle" x="575.51" y="-205.95" font-family="Times,serif" font-size="14.00">[0]h2d_selected</text>
</g>
<!-- p0x7f4ad8006df0&#45;&gt;p0x55f824e16ea0 -->
<g id="edge14" class="edge">
<title>p0x7f4ad8006df0&#45;&gt;p0x55f824e16ea0</title>
<path fill="none" stroke="black" d="M645.7,-211C673.02,-211 703.82,-211 728.95,-211"/>
<polygon fill="black" stroke="black" points="728.91,-214.5 738.91,-211 728.91,-207.5 728.91,-214.5"/>
</g>
<!-- p0x55f824e171d0 -->
<g id="node17" class="node">
<title>p0x55f824e171d0</title>
<ellipse fill="none" stroke="black" cx="575.51" cy="-342" rx="85.64" ry="18"/>
<text text-anchor="middle" x="575.51" y="-336.95" font-family="Times,serif" font-size="14.00">[0]mis_loop_update</text>
</g>
<!-- p0x55f824e170c0&#45;&gt;p0x55f824e171d0 -->
<g id="edge16" class="edge">
<title>p0x55f824e170c0&#45;&gt;p0x55f824e171d0</title>
<path fill="none" stroke="black" d="M406.92,-425.62C425.43,-407.93 455.69,-381.63 486.48,-366 491.86,-363.27 497.6,-360.81 503.46,-358.62"/>
<polygon fill="black" stroke="black" points="504.35,-362.01 512.66,-355.44 502.07,-355.4 504.35,-362.01"/>
</g>
<!-- p0x55f824e172e0 -->
<g id="node21" class="node">
<title>p0x55f824e172e0</title>
<polygon fill="aquamarine" stroke="black" points="780.19,-360 698.16,-342 780.19,-324 862.22,-342 780.19,-360"/>
<text text-anchor="middle" x="780.19" y="-336.95" font-family="Times,serif" font-size="14.00">[0]mis_cond</text>
</g>
<!-- p0x55f824e171d0&#45;&gt;p0x55f824e172e0 -->
<g id="edge20" class="edge">
<title>p0x55f824e171d0&#45;&gt;p0x55f824e172e0</title>
<path fill="none" stroke="black" d="M661.59,-342C669.23,-342 677,-342 684.71,-342"/>
<polygon fill="black" stroke="black" points="684.44,-345.5 694.44,-342 684.44,-338.5 684.44,-345.5"/>
</g>
<!-- p0x7f4ad8007e00 -->
<g id="node18" class="node">
<title>p0x7f4ad8007e00</title>
<ellipse fill="none" stroke="black" cx="70.42" cy="-417" rx="54.42" ry="18"/>
<text text-anchor="middle" x="70.42" y="-411.95" font-family="Times,serif" font-size="14.00">[0]h2d_size</text>
</g>
<!-- p0x7f4ad8007d00 -->
<g id="node19" class="node">
<title>p0x7f4ad8007d00</title>
<polygon fill="black" stroke="white" points="261.81,-435 200.31,-435 196.31,-431 196.31,-399 257.81,-399 261.81,-403 261.81,-435"/>
<polyline fill="none" stroke="white" points="257.81,-431 196.31,-431"/>
<polyline fill="none" stroke="white" points="257.81,-431 257.81,-399"/>
<polyline fill="none" stroke="white" points="257.81,-431 261.81,-435"/>
<text text-anchor="middle" x="229.06" y="-411.95" font-family="Times,serif" font-size="14.00" fill="white">[0]mis_k</text>
</g>
<!-- p0x7f4ad8007e00&#45;&gt;p0x7f4ad8007d00 -->
<g id="edge17" class="edge">
<title>p0x7f4ad8007e00&#45;&gt;p0x7f4ad8007d00</title>
<path fill="none" stroke="black" d="M125.33,-417C144.73,-417 166.35,-417 184.74,-417"/>
<polygon fill="black" stroke="black" points="184.49,-420.5 194.49,-417 184.49,-413.5 184.49,-420.5"/>
</g>
<!-- p0x7f4ad8007d00&#45;&gt;p0x55f824e170c0 -->
<g id="edge18" class="edge">
<title>p0x7f4ad8007d00&#45;&gt;p0x55f824e170c0</title>
<path fill="none" stroke="black" d="M262.14,-422.53C281.13,-425.8 305.77,-430.05 328.11,-433.9"/>
<polygon fill="black" stroke="black" points="327.27,-437.31 337.71,-435.56 328.45,-430.41 327.27,-437.31"/>
</g>
<!-- p0x7f4ad8007b80 -->
<g id="node20" class="node">
<title>p0x7f4ad8007b80</title>
<ellipse fill="none" stroke="black" cx="229.06" cy="-471" rx="54.42" ry="18"/>
<text text-anchor="middle" x="229.06" y="-465.95" font-family="Times,serif" font-size="14.00">[0]d2h_size</text>
</g>
<!-- p0x7f4ad8007b80&#45;&gt;p0x55f824e170c0 -->
<g id="edge19" class="edge">
<title>p0x7f4ad8007b80&#45;&gt;p0x55f824e170c0</title>
<path fill="none" stroke="black" d="M277.91,-462.75C293.7,-460.03 311.45,-456.97 327.96,-454.13"/>
<polygon fill="black" stroke="black" points="328.39,-457.6 337.65,-452.45 327.21,-450.7 328.39,-457.6"/>
</g>
<!-- p0x55f824e172e0&#45;&gt;p0x55f824e16fb0 -->
<g id="edge21" class="edge">
<title>p0x55f824e172e0&#45;&gt;p0x55f824e16fb0</title>
<path fill="none" stroke="black" stroke-dasharray="5,2" d="M820.14,-351.64C833.69,-355.49 848.84,-360.35 862.22,-366 886.35,-376.18 912.02,-390.47 931.98,-402.44"/>
<polygon fill="black" stroke="black" points="929.92,-405.28 940.28,-407.49 933.56,-399.3 929.92,-405.28"/>
<text text-anchor="middle" x="883.59" y="-380.31" font-family="Times,serif" font-size="14.00">0</text>
</g>
<!-- p0x55f824e173f0 -->
<g id="node22" class="node">
<title>p0x55f824e173f0</title>
<polygon fill="cyan" stroke="black" points="1023.1,-90 1020.1,-94 999.1,-94 996.1,-90 914.1,-90 914.1,-54 1023.1,-54 1023.1,-90"/>
<text text-anchor="middle" x="968.6" y="-66.95" font-family="Times,serif" font-size="14.00">[0]mis_loop_end</text>
</g>
<!-- p0x55f824e172e0&#45;&gt;p0x55f824e173f0 -->
<g id="edge22" class="edge">
<title>p0x55f824e172e0&#45;&gt;p0x55f824e173f0</title>
<path fill="none" stroke="black" stroke-dasharray="5,2" d="M833.49,-335.2C843.89,-331.92 854.09,-327.09 862.22,-320 929.12,-261.67 954.74,-153.59 963.52,-101.53"/>
<polygon fill="black" stroke="black" points="966.94,-102.36 965.04,-91.93 960.02,-101.26 966.94,-102.36"/>
<text text-anchor="middle" x="883.59" y="-302.71" font-family="Times,serif" font-size="14.00">1</text>
</g>
<!-- p0x55f824e1aa20 -->
<g id="node23" class="node">
<title>p0x55f824e1aa20</title>
<ellipse fill="none" stroke="black" cx="1118.54" cy="-72" rx="49.3" ry="18"/>
<text text-anchor="middle" x="1118.54" y="-66.95" font-family="Times,serif" font-size="14.00">[0]hpwl_k</text>
</g>
<!-- p0x55f824e173f0&#45;&gt;p0x55f824e1aa20 -->
<g id="edge23" class="edge">
<title>p0x55f824e173f0&#45;&gt;p0x55f824e1aa20</title>
<path fill="none" stroke="black" d="M1023.43,-72C1034.47,-72 1046.15,-72 1057.4,-72"/>
<polygon fill="black" stroke="black" points="1057.39,-75.5 1067.39,-72 1057.39,-68.5 1057.39,-75.5"/>
</g>
<!-- p0x55f824e1ab30 -->
<g id="node25" class="node">
<title>p0x55f824e1ab30</title>
<ellipse fill="none" stroke="black" cx="1280.77" cy="-126" rx="62.61" ry="18"/>
<text text-anchor="middle" x="1280.77" y="-120.95" font-family="Times,serif" font-size="14.00">del_net_mask</text>
</g>
<!-- p0x55f824e1aa20&#45;&gt;p0x55f824e1ab30 -->
<g id="edge25" class="edge">
<title>p0x55f824e1aa20&#45;&gt;p0x55f824e1ab30</title>
<path fill="none" stroke="black" d="M1155.5,-84.12C1176.94,-91.35 1204.52,-100.64 1228.25,-108.64"/>
<polygon fill="black" stroke="black" points="1226.82,-111.85 1237.41,-111.73 1229.05,-105.21 1226.82,-111.85"/>
</g>
<!-- p0x55f824e1ac40 -->
<g id="node26" class="node">
<title>p0x55f824e1ac40</title>
<ellipse fill="none" stroke="black" cx="1280.77" cy="-72" rx="57.49" ry="18"/>
<text text-anchor="middle" x="1280.77" y="-66.95" font-family="Times,serif" font-size="14.00">del_fnet2pin</text>
</g>
<!-- p0x55f824e1aa20&#45;&gt;p0x55f824e1ac40 -->
<g id="edge26" class="edge">
<title>p0x55f824e1aa20&#45;&gt;p0x55f824e1ac40</title>
<path fill="none" stroke="black" d="M1168.05,-72C1181.85,-72 1197.14,-72 1211.86,-72"/>
<polygon fill="black" stroke="black" points="1211.46,-75.5 1221.46,-72 1211.46,-68.5 1211.46,-75.5"/>
</g>
<!-- p0x55f824e1ad50 -->
<g id="node27" class="node">
<title>p0x55f824e1ad50</title>
<ellipse fill="none" stroke="black" cx="1280.77" cy="-18" rx="75.92" ry="18"/>
<text text-anchor="middle" x="1280.77" y="-12.95" font-family="Times,serif" font-size="14.00">del_fnet2pin_ofst</text>
</g>
<!-- p0x55f824e1aa20&#45;&gt;p0x55f824e1ad50 -->
<g id="edge27" class="edge">
<title>p0x55f824e1aa20&#45;&gt;p0x55f824e1ad50</title>
<path fill="none" stroke="black" d="M1155.5,-59.88C1175.97,-52.98 1202.03,-44.2 1225,-36.46"/>
<polygon fill="black" stroke="black" points="1225.85,-39.86 1234.21,-33.35 1223.61,-33.23 1225.85,-39.86"/>
</g>
<!-- p0x7f4ad8008470 -->
<g id="node24" class="node">
<title>p0x7f4ad8008470</title>
<ellipse fill="none" stroke="black" cx="780.19" cy="-72" rx="77.97" ry="18"/>
<text text-anchor="middle" x="780.19" y="-66.95" font-family="Times,serif" font-size="14.00">p0x7f4ad8008470</text>
</g>
<!-- p0x7f4ad8008470&#45;&gt;p0x55f824e173f0 -->
<g id="edge24" class="edge">
<title>p0x7f4ad8008470&#45;&gt;p0x55f824e173f0</title>
<path fill="none" stroke="black" d="M858.63,-72C873.23,-72 888.36,-72 902.54,-72"/>
<polygon fill="black" stroke="black" points="902.16,-75.5 912.16,-72 902.16,-68.5 902.16,-75.5"/>
</g>
</g>
</svg>
