<?xml version="1.0" encoding="UTF-8" standalone="no"?>
<!DOCTYPE svg PUBLIC "-//W3C//DTD SVG 1.1//EN"
 "http://www.w3.org/Graphics/SVG/1.1/DTD/svg11.dtd">
<!-- Generated by graphviz version 2.43.0 (0)
 -->
<!-- Title: Taskflow Pages: 1 -->
<svg width="314pt" height="348pt"
 viewBox="0.00 0.00 314.00 348.00" xmlns="http://www.w3.org/2000/svg" xmlns:xlink="http://www.w3.org/1999/xlink">
<g id="graph0" class="graph" transform="scale(1 1) rotate(0) translate(4 344)">
<title>Taskflow</title>
<polygon fill="white" stroke="transparent" points="-4,4 -4,-344 310,-344 310,4 -4,4"/>
<g id="clust4" class="cluster">
<title>cluster0</title>
<polygon fill="none" stroke="black" stroke-dasharray="5,2" points="8,-257 8,-332 298,-332 298,-257 8,-257"/>
<text text-anchor="middle" x="153" y="-316.8" font-family="Times,serif" font-size="14.00">line 0</text>
</g>
<g id="clust5" class="cluster">
<title>cluster1</title>
<polygon fill="none" stroke="black" stroke-dasharray="5,2" points="8,-174 8,-249 298,-249 298,-174 8,-174"/>
<text text-anchor="middle" x="153" y="-233.8" font-family="Times,serif" font-size="14.00">line 1</text>
</g>
<g id="clust6" class="cluster">
<title>cluster2</title>
<polygon fill="none" stroke="black" stroke-dasharray="5,2" points="8,-91 8,-166 298,-166 298,-91 8,-91"/>
<text text-anchor="middle" x="153" y="-150.8" font-family="Times,serif" font-size="14.00">line 2</text>
</g>
<g id="clust7" class="cluster">
<title>cluster3</title>
<polygon fill="none" stroke="black" stroke-dasharray="5,2" points="8,-8 8,-83 298,-83 298,-8 8,-8"/>
<text text-anchor="middle" x="153" y="-67.8" font-family="Times,serif" font-size="14.00">line 3</text>
</g>
<!-- p00 -->
<g id="node1" class="node">
<title>p00</title>
<ellipse fill="none" stroke="black" cx="56" cy="-283" rx="39.79" ry="18"/>
<text text-anchor="middle" x="56" y="-279.3" font-family="Times,serif" font-size="14.00">pipe&#45;0</text>
</g>
<!-- p10 -->
<g id="node2" class="node">
<title>p10</title>
<ellipse fill="none" stroke="black" cx="56" cy="-200" rx="39.79" ry="18"/>
<text text-anchor="middle" x="56" y="-196.3" font-family="Times,serif" font-size="14.00">pipe&#45;0</text>
</g>
<!-- p00&#45;&gt;p10 -->
<g id="edge9" class="edge">
<title>p00&#45;&gt;p10</title>
<path fill="none" stroke="black" d="M56,-264.82C56,-254.19 56,-240.31 56,-228.2"/>
<polygon fill="black" stroke="black" points="59.5,-228.15 56,-218.15 52.5,-228.15 59.5,-228.15"/>
</g>
<!-- p01 -->
<g id="node5" class="node">
<title>p01</title>
<ellipse fill="none" stroke="black" cx="153" cy="-283" rx="39.79" ry="18"/>
<text text-anchor="middle" x="153" y="-279.3" font-family="Times,serif" font-size="14.00">pipe&#45;1</text>
</g>
<!-- p00&#45;&gt;p01 -->
<g id="edge1" class="edge">
<title>p00&#45;&gt;p01</title>
<path fill="none" stroke="black" d="M95.79,-283C98.24,-283 100.69,-283 103.14,-283"/>
<polygon fill="black" stroke="black" points="103.22,-286.5 113.22,-283 103.22,-279.5 103.22,-286.5"/>
</g>
<!-- p20 -->
<g id="node3" class="node">
<title>p20</title>
<ellipse fill="none" stroke="black" cx="56" cy="-117" rx="39.79" ry="18"/>
<text text-anchor="middle" x="56" y="-113.3" font-family="Times,serif" font-size="14.00">pipe&#45;0</text>
</g>
<!-- p10&#45;&gt;p20 -->
<g id="edge11" class="edge">
<title>p10&#45;&gt;p20</title>
<path fill="none" stroke="black" d="M56,-181.82C56,-171.19 56,-157.31 56,-145.2"/>
<polygon fill="black" stroke="black" points="59.5,-145.15 56,-135.15 52.5,-145.15 59.5,-145.15"/>
</g>
<!-- p11 -->
<g id="node6" class="node">
<title>p11</title>
<ellipse fill="none" stroke="black" cx="153" cy="-200" rx="39.79" ry="18"/>
<text text-anchor="middle" x="153" y="-196.3" font-family="Times,serif" font-size="14.00">pipe&#45;1</text>
</g>
<!-- p10&#45;&gt;p11 -->
<g id="edge3" class="edge">
<title>p10&#45;&gt;p11</title>
<path fill="none" stroke="black" d="M95.79,-200C98.24,-200 100.69,-200 103.14,-200"/>
<polygon fill="black" stroke="black" points="103.22,-203.5 113.22,-200 103.22,-196.5 103.22,-203.5"/>
</g>
<!-- p30 -->
<g id="node4" class="node">
<title>p30</title>
<ellipse fill="none" stroke="black" cx="56" cy="-34" rx="39.79" ry="18"/>
<text text-anchor="middle" x="56" y="-30.3" font-family="Times,serif" font-size="14.00">pipe&#45;0</text>
</g>
<!-- p20&#45;&gt;p30 -->
<g id="edge13" class="edge">
<title>p20&#45;&gt;p30</title>
<path fill="none" stroke="black" d="M56,-98.82C56,-88.19 56,-74.31 56,-62.2"/>
<polygon fill="black" stroke="black" points="59.5,-62.15 56,-52.15 52.5,-62.15 59.5,-62.15"/>
</g>
<!-- p21 -->
<g id="node7" class="node">
<title>p21</title>
<ellipse fill="none" stroke="black" cx="153" cy="-117" rx="39.79" ry="18"/>
<text text-anchor="middle" x="153" y="-113.3" font-family="Times,serif" font-size="14.00">pipe&#45;1</text>
</g>
<!-- p20&#45;&gt;p21 -->
<g id="edge5" class="edge">
<title>p20&#45;&gt;p21</title>
<path fill="none" stroke="black" d="M95.79,-117C98.24,-117 100.69,-117 103.14,-117"/>
<polygon fill="black" stroke="black" points="103.22,-120.5 113.22,-117 103.22,-113.5 103.22,-120.5"/>
</g>
<!-- p31 -->
<g id="node8" class="node">
<title>p31</title>
<ellipse fill="none" stroke="black" cx="153" cy="-34" rx="39.79" ry="18"/>
<text text-anchor="middle" x="153" y="-30.3" font-family="Times,serif" font-size="14.00">pipe&#45;1</text>
</g>
<!-- p30&#45;&gt;p31 -->
<g id="edge7" class="edge">
<title>p30&#45;&gt;p31</title>
<path fill="none" stroke="black" d="M95.79,-34C98.24,-34 100.69,-34 103.14,-34"/>
<polygon fill="black" stroke="black" points="103.22,-37.5 113.22,-34 103.22,-30.5 103.22,-37.5"/>
</g>
<!-- p02 -->
<g id="node9" class="node">
<title>p02</title>
<ellipse fill="none" stroke="black" cx="250" cy="-283" rx="39.79" ry="18"/>
<text text-anchor="middle" x="250" y="-279.3" font-family="Times,serif" font-size="14.00">pipe&#45;2</text>
</g>
<!-- p01&#45;&gt;p02 -->
<g id="edge2" class="edge">
<title>p01&#45;&gt;p02</title>
<path fill="none" stroke="black" d="M192.79,-283C195.24,-283 197.69,-283 200.14,-283"/>
<polygon fill="black" stroke="black" points="200.22,-286.5 210.22,-283 200.22,-279.5 200.22,-286.5"/>
</g>
<!-- p12 -->
<g id="node10" class="node">
<title>p12</title>
<ellipse fill="none" stroke="black" cx="250" cy="-200" rx="39.79" ry="18"/>
<text text-anchor="middle" x="250" y="-196.3" font-family="Times,serif" font-size="14.00">pipe&#45;2</text>
</g>
<!-- p11&#45;&gt;p12 -->
<g id="edge4" class="edge">
<title>p11&#45;&gt;p12</title>
<path fill="none" stroke="black" d="M192.79,-200C195.24,-200 197.69,-200 200.14,-200"/>
<polygon fill="black" stroke="black" points="200.22,-203.5 210.22,-200 200.22,-196.5 200.22,-203.5"/>
</g>
<!-- p22 -->
<g id="node11" class="node">
<title>p22</title>
<ellipse fill="none" stroke="black" cx="250" cy="-117" rx="39.79" ry="18"/>
<text text-anchor="middle" x="250" y="-113.3" font-family="Times,serif" font-size="14.00">pipe&#45;2</text>
</g>
<!-- p21&#45;&gt;p22 -->
<g id="edge6" class="edge">
<title>p21&#45;&gt;p22</title>
<path fill="none" stroke="black" d="M192.79,-117C195.24,-117 197.69,-117 200.14,-117"/>
<polygon fill="black" stroke="black" points="200.22,-120.5 210.22,-117 200.22,-113.5 200.22,-120.5"/>
</g>
<!-- p32 -->
<g id="node12" class="node">
<title>p32</title>
<ellipse fill="none" stroke="black" cx="250" cy="-34" rx="39.79" ry="18"/>
<text text-anchor="middle" x="250" y="-30.3" font-family="Times,serif" font-size="14.00">pipe&#45;2</text>
</g>
<!-- p31&#45;&gt;p32 -->
<g id="edge8" class="edge">
<title>p31&#45;&gt;p32</title>
<path fill="none" stroke="black" d="M192.79,-34C195.24,-34 197.69,-34 200.14,-34"/>
<polygon fill="black" stroke="black" points="200.22,-37.5 210.22,-34 200.22,-30.5 200.22,-37.5"/>
</g>
<!-- p02&#45;&gt;p12 -->
<g id="edge10" class="edge">
<title>p02&#45;&gt;p12</title>
<path fill="none" stroke="black" d="M250,-264.82C250,-254.19 250,-240.31 250,-228.2"/>
<polygon fill="black" stroke="black" points="253.5,-228.15 250,-218.15 246.5,-228.15 253.5,-228.15"/>
</g>
<!-- p12&#45;&gt;p22 -->
<g id="edge12" class="edge">
<title>p12&#45;&gt;p22</title>
<path fill="none" stroke="black" d="M250,-181.82C250,-171.19 250,-157.31 250,-145.2"/>
<polygon fill="black" stroke="black" points="253.5,-145.15 250,-135.15 246.5,-145.15 253.5,-145.15"/>
</g>
<!-- p22&#45;&gt;p32 -->
<g id="edge14" class="edge">
<title>p22&#45;&gt;p32</title>
<path fill="none" stroke="black" d="M250,-98.82C250,-88.19 250,-74.31 250,-62.2"/>
<polygon fill="black" stroke="black" points="253.5,-62.15 250,-52.15 246.5,-62.15 253.5,-62.15"/>
</g>
</g>
</svg>
