<?xml version="1.0" encoding="UTF-8" standalone="no"?>
<!DOCTYPE svg PUBLIC "-//W3C//DTD SVG 1.1//EN"
 "http://www.w3.org/Graphics/SVG/1.1/DTD/svg11.dtd">
<!-- Generated by graphviz version 12.2.1 (20241206.2353)
 -->
<!-- Title: SpecCorrect Pages: 1 -->
<svg width="748pt" height="113pt"
 viewBox="0.00 0.00 747.90 113.02" xmlns="http://www.w3.org/2000/svg" xmlns:xlink="http://www.w3.org/1999/xlink">
<g id="graph0" class="graph" transform="scale(1 1) rotate(0) translate(4 109.02)">
<title>SpecCorrect</title>
<polygon fill="white" stroke="none" points="-4,4 -4,-109.02 743.9,-109.02 743.9,4 -4,4"/>
<!-- prepare -->
<g id="node1" class="node">
<title>prepare</title>
<polygon fill="#cce5ff" stroke="black" points="54,-61.59 0,-61.59 0,-41.43 54,-41.43 54,-61.59"/>
<text text-anchor="middle" x="27" y="-47.84" font-family="Helvetica,sans-Serif" font-size="9.00">prepare</text>
</g>
<!-- speculate -->
<g id="node2" class="node">
<title>speculate</title>
<polygon fill="aquamarine" stroke="black" points="175.15,-67.02 121,-51.51 175.15,-36 229.3,-51.51 175.15,-67.02"/>
<text text-anchor="middle" x="175.15" y="-47.84" font-family="Helvetica,sans-Serif" font-size="9.00">speculate</text>
</g>
<!-- prepare&#45;&gt;speculate -->
<g id="edge1" class="edge">
<title>prepare&#45;&gt;speculate</title>
<path fill="none" stroke="#555555" d="M54.47,-51.51C70.58,-51.51 91.89,-51.51 112.06,-51.51"/>
<polygon fill="#555555" stroke="#555555" points="111.91,-53.61 117.91,-51.51 111.91,-49.41 111.91,-53.61"/>
</g>
<!-- fast -->
<g id="node3" class="node">
<title>fast</title>
<polygon fill="aquamarine" stroke="black" points="393.7,-105.02 328.3,-89.51 393.7,-74 459.1,-89.51 393.7,-105.02"/>
<text text-anchor="middle" x="393.7" y="-85.84" font-family="Helvetica,sans-Serif" font-size="9.00">fast_handler</text>
</g>
<!-- speculate&#45;&gt;fast -->
<g id="edge2" class="edge">
<title>speculate&#45;&gt;fast</title>
<path fill="none" stroke="#555555" stroke-dasharray="5,2" d="M209.99,-57.45C247.02,-63.95 306.57,-74.4 347.56,-81.59"/>
<polygon fill="#555555" stroke="#555555" points="346.97,-83.62 353.24,-82.59 347.69,-79.48 346.97,-83.62"/>
<text text-anchor="middle" x="276.55" y="-71.91" font-family="Helvetica,sans-Serif" font-size="8.00" fill="#555555">0 (hit)</text>
</g>
<!-- slow -->
<g id="node4" class="node">
<title>slow</title>
<polygon fill="aquamarine" stroke="black" points="393.7,-31.02 323.8,-15.51 393.7,0 463.6,-15.51 393.7,-31.02"/>
<text text-anchor="middle" x="393.7" y="-11.83" font-family="Helvetica,sans-Serif" font-size="9.00">slow_fallback</text>
</g>
<!-- speculate&#45;&gt;slow -->
<g id="edge3" class="edge">
<title>speculate&#45;&gt;slow</title>
<path fill="none" stroke="#555555" stroke-dasharray="5,2" d="M199.54,-42.54C216.65,-36.38 240.58,-28.6 262.3,-24.51 281.18,-20.95 301.84,-18.76 321.04,-17.42"/>
<polygon fill="#555555" stroke="#555555" points="320.95,-19.53 326.8,-17.05 320.68,-15.34 320.95,-19.53"/>
<text text-anchor="middle" x="276.55" y="-25.91" font-family="Helvetica,sans-Serif" font-size="8.00" fill="#555555">1 (miss)</text>
</g>
<!-- merge -->
<g id="node5" class="node">
<title>merge</title>
<polygon fill="aquamarine" stroke="black" points="574.75,-67.02 534.1,-51.51 574.75,-36 615.4,-51.51 574.75,-67.02"/>
<text text-anchor="middle" x="574.75" y="-47.84" font-family="Helvetica,sans-Serif" font-size="9.00">merge</text>
</g>
<!-- fast&#45;&gt;merge -->
<g id="edge4" class="edge">
<title>fast&#45;&gt;merge</title>
<path fill="none" stroke="#555555" stroke-dasharray="5,2" d="M429.65,-82.09C461.68,-75.29 508.79,-65.3 540.33,-58.6"/>
<polygon fill="#555555" stroke="#555555" points="540.69,-60.67 546.12,-57.37 539.82,-56.56 540.69,-60.67"/>
<text text-anchor="middle" x="498.85" y="-68.51" font-family="Helvetica,sans-Serif" font-size="8.00" fill="#555555">0</text>
</g>
<!-- slow&#45;&gt;merge -->
<g id="edge5" class="edge">
<title>slow&#45;&gt;merge</title>
<path fill="none" stroke="#555555" stroke-dasharray="5,2" d="M455.34,-17.78C470.41,-19.13 486.45,-21.23 501.1,-24.51 517.31,-28.14 534.79,-34.55 548.54,-40.21"/>
<polygon fill="#555555" stroke="#555555" points="547.62,-42.1 553.96,-42.5 549.25,-38.23 547.62,-42.1"/>
<text text-anchor="middle" x="498.85" y="-25.91" font-family="Helvetica,sans-Serif" font-size="8.00" fill="#555555">0</text>
</g>
<!-- done -->
<g id="node6" class="node">
<title>done</title>
<polygon fill="#d4edda" stroke="black" stroke-width="2" points="739.9,-61.59 685.9,-61.59 685.9,-41.43 739.9,-41.43 739.9,-61.59"/>
<text text-anchor="middle" x="712.9" y="-47.84" font-family="Helvetica,sans-Serif" font-size="9.00">done</text>
</g>
<!-- merge&#45;&gt;done -->
<g id="edge6" class="edge">
<title>merge&#45;&gt;done</title>
<path fill="none" stroke="#555555" stroke-dasharray="5,2" d="M616.6,-51.51C636.24,-51.51 659.5,-51.51 678.12,-51.51"/>
<polygon fill="#555555" stroke="#555555" points="677.76,-53.61 683.76,-51.51 677.76,-49.41 677.76,-53.61"/>
<text text-anchor="middle" x="650.65" y="-52.91" font-family="Helvetica,sans-Serif" font-size="8.00" fill="#555555">0</text>
</g>
</g>
</svg>
