<?xml version="1.0" encoding="UTF-8" standalone="no"?>
<!DOCTYPE svg PUBLIC "-//W3C//DTD SVG 1.1//EN"
 "http://www.w3.org/Graphics/SVG/1.1/DTD/svg11.dtd">
<!-- Generated by graphviz version 12.2.1 (20241206.2353)
 -->
<!-- Title: ExclusiveScan Pages: 1 -->
<svg width="373pt" height="106pt"
 viewBox="0.00 0.00 373.48 105.90" xmlns="http://www.w3.org/2000/svg" xmlns:xlink="http://www.w3.org/1999/xlink">
<g id="graph0" class="graph" transform="scale(1 1) rotate(0) translate(4 101.9)">
<title>ExclusiveScan</title>
<polygon fill="white" stroke="none" points="-4,4 -4,-101.9 369.48,-101.9 369.48,4 -4,4"/>
<!-- sp1 -->
<!-- sp2 -->
<!-- sp1&#45;&gt;sp2 -->
<!-- lbl_in -->
<g id="node3" class="node">
<title>lbl_in</title>
<polygon fill="white" stroke="none" points="126.76,-97.9 61.96,-97.9 61.96,-72.7 126.76,-72.7 126.76,-97.9"/>
<text text-anchor="middle" x="94.36" y="-80.28" font-family="Helvetica Bold" font-size="12.00">input</text>
</g>
<!-- i0 -->
<g id="node4" class="node">
<title>i0</title>
<polygon fill="#fde8d0" stroke="black" points="161.48,-97.9 131.24,-97.9 131.24,-72.7 161.48,-72.7 161.48,-97.9"/>
<text text-anchor="middle" x="146.36" y="-81.03" font-family="Courier New" font-size="12.00">1</text>
</g>
<!-- lbl_in&#45;&gt;i0 -->
<!-- i1 -->
<g id="node5" class="node">
<title>i1</title>
<polygon fill="#fde8d0" stroke="black" points="195.48,-97.9 165.24,-97.9 165.24,-72.7 195.48,-72.7 195.48,-97.9"/>
<text text-anchor="middle" x="180.36" y="-81.03" font-family="Courier New" font-size="12.00">2</text>
</g>
<!-- i0&#45;&gt;i1 -->
<!-- e1 -->
<g id="node13" class="node">
<title>e1</title>
<polygon fill="#cce5ff" stroke="black" points="161.48,-28.95 131.24,-28.95 131.24,-3.75 161.48,-3.75 161.48,-28.95"/>
<text text-anchor="middle" x="146.36" y="-12.08" font-family="Courier New" font-size="12.00">1</text>
</g>
<!-- i0&#45;&gt;e1 -->
<g id="edge17" class="edge">
<title>i0&#45;&gt;e1</title>
<path fill="none" stroke="#1a5fa8" stroke-dasharray="5,2" d="M146.36,-72.33C146.36,-62.72 146.36,-48.99 146.36,-37.66"/>
<polygon fill="#1a5fa8" stroke="#1a5fa8" points="148.81,-37.73 146.36,-30.73 143.91,-37.73 148.81,-37.73"/>
</g>
<!-- i2 -->
<g id="node6" class="node">
<title>i2</title>
<polygon fill="#fde8d0" stroke="black" points="229.48,-97.9 199.24,-97.9 199.24,-72.7 229.48,-72.7 229.48,-97.9"/>
<text text-anchor="middle" x="214.36" y="-81.03" font-family="Courier New" font-size="12.00">3</text>
</g>
<!-- i1&#45;&gt;i2 -->
<!-- e2 -->
<g id="node14" class="node">
<title>e2</title>
<polygon fill="#cce5ff" stroke="black" points="195.48,-28.95 165.24,-28.95 165.24,-3.75 195.48,-3.75 195.48,-28.95"/>
<text text-anchor="middle" x="180.36" y="-12.08" font-family="Courier New" font-size="12.00">3</text>
</g>
<!-- i1&#45;&gt;e2 -->
<g id="edge18" class="edge">
<title>i1&#45;&gt;e2</title>
<path fill="none" stroke="#1a5fa8" stroke-dasharray="5,2" d="M180.36,-72.33C180.36,-62.72 180.36,-48.99 180.36,-37.66"/>
<polygon fill="#1a5fa8" stroke="#1a5fa8" points="182.81,-37.73 180.36,-30.73 177.91,-37.73 182.81,-37.73"/>
</g>
<!-- i3 -->
<g id="node7" class="node">
<title>i3</title>
<polygon fill="#fde8d0" stroke="black" points="263.48,-97.9 233.24,-97.9 233.24,-72.7 263.48,-72.7 263.48,-97.9"/>
<text text-anchor="middle" x="248.36" y="-81.03" font-family="Courier New" font-size="12.00">4</text>
</g>
<!-- i2&#45;&gt;i3 -->
<!-- e3 -->
<g id="node15" class="node">
<title>e3</title>
<polygon fill="#cce5ff" stroke="black" points="229.48,-28.95 199.24,-28.95 199.24,-3.75 229.48,-3.75 229.48,-28.95"/>
<text text-anchor="middle" x="214.36" y="-12.08" font-family="Courier New" font-size="12.00">6</text>
</g>
<!-- i2&#45;&gt;e3 -->
<g id="edge19" class="edge">
<title>i2&#45;&gt;e3</title>
<path fill="none" stroke="#1a5fa8" stroke-dasharray="5,2" d="M214.36,-72.33C214.36,-62.72 214.36,-48.99 214.36,-37.66"/>
<polygon fill="#1a5fa8" stroke="#1a5fa8" points="216.81,-37.73 214.36,-30.73 211.91,-37.73 216.81,-37.73"/>
</g>
<!-- i4 -->
<g id="node8" class="node">
<title>i4</title>
<polygon fill="#fde8d0" stroke="black" points="297.48,-97.9 267.24,-97.9 267.24,-72.7 297.48,-72.7 297.48,-97.9"/>
<text text-anchor="middle" x="282.36" y="-81.03" font-family="Courier New" font-size="12.00">&#45;2</text>
</g>
<!-- i3&#45;&gt;i4 -->
<!-- e4 -->
<g id="node16" class="node">
<title>e4</title>
<polygon fill="#cce5ff" stroke="black" points="263.48,-28.95 233.24,-28.95 233.24,-3.75 263.48,-3.75 263.48,-28.95"/>
<text text-anchor="middle" x="248.36" y="-12.08" font-family="Courier New" font-size="12.00">10</text>
</g>
<!-- i3&#45;&gt;e4 -->
<g id="edge20" class="edge">
<title>i3&#45;&gt;e4</title>
<path fill="none" stroke="#1a5fa8" stroke-dasharray="5,2" d="M248.36,-72.33C248.36,-62.72 248.36,-48.99 248.36,-37.66"/>
<polygon fill="#1a5fa8" stroke="#1a5fa8" points="250.81,-37.73 248.36,-30.73 245.91,-37.73 250.81,-37.73"/>
</g>
<!-- i5 -->
<g id="node9" class="node">
<title>i5</title>
<polygon fill="#fde8d0" stroke="black" points="331.48,-97.9 301.24,-97.9 301.24,-72.7 331.48,-72.7 331.48,-97.9"/>
<text text-anchor="middle" x="316.36" y="-81.03" font-family="Courier New" font-size="12.00">1</text>
</g>
<!-- i4&#45;&gt;i5 -->
<!-- e5 -->
<g id="node17" class="node">
<title>e5</title>
<polygon fill="#cce5ff" stroke="black" points="297.48,-28.95 267.24,-28.95 267.24,-3.75 297.48,-3.75 297.48,-28.95"/>
<text text-anchor="middle" x="282.36" y="-12.08" font-family="Courier New" font-size="12.00">8</text>
</g>
<!-- i4&#45;&gt;e5 -->
<g id="edge21" class="edge">
<title>i4&#45;&gt;e5</title>
<path fill="none" stroke="#1a5fa8" stroke-dasharray="5,2" d="M282.36,-72.33C282.36,-62.72 282.36,-48.99 282.36,-37.66"/>
<polygon fill="#1a5fa8" stroke="#1a5fa8" points="284.81,-37.73 282.36,-30.73 279.91,-37.73 284.81,-37.73"/>
</g>
<!-- i6 -->
<g id="node10" class="node">
<title>i6</title>
<polygon fill="#fde8d0" stroke="black" points="365.48,-97.9 335.24,-97.9 335.24,-72.7 365.48,-72.7 365.48,-97.9"/>
<text text-anchor="middle" x="350.36" y="-81.03" font-family="Courier New" font-size="12.00">8</text>
</g>
<!-- i5&#45;&gt;i6 -->
<!-- e6 -->
<g id="node18" class="node">
<title>e6</title>
<polygon fill="#cce5ff" stroke="black" points="331.48,-28.95 301.24,-28.95 301.24,-3.75 331.48,-3.75 331.48,-28.95"/>
<text text-anchor="middle" x="316.36" y="-12.08" font-family="Courier New" font-size="12.00">9</text>
</g>
<!-- i5&#45;&gt;e6 -->
<g id="edge22" class="edge">
<title>i5&#45;&gt;e6</title>
<path fill="none" stroke="#1a5fa8" stroke-dasharray="5,2" d="M316.36,-72.33C316.36,-62.72 316.36,-48.99 316.36,-37.66"/>
<polygon fill="#1a5fa8" stroke="#1a5fa8" points="318.81,-37.73 316.36,-30.73 313.91,-37.73 318.81,-37.73"/>
</g>
<!-- lbl_out -->
<g id="node11" class="node">
<title>lbl_out</title>
<polygon fill="white" stroke="none" points="91.06,-32.7 7.66,-32.7 7.66,0 91.06,0 91.06,-32.7"/>
<text text-anchor="middle" x="49.36" y="-17.7" font-family="Helvetica Bold" font-size="12.00">exclusive</text>
<text text-anchor="middle" x="49.36" y="-4.95" font-family="Helvetica Bold" font-size="12.00">scan (init=0)</text>
</g>
<!-- e0 -->
<g id="node12" class="node">
<title>e0</title>
<polygon fill="#cce5ff" stroke="black" points="125.48,-28.95 95.24,-28.95 95.24,-3.75 125.48,-3.75 125.48,-28.95"/>
<text text-anchor="middle" x="110.36" y="-12.08" font-family="Courier New" font-size="12.00">0</text>
</g>
<!-- lbl_out&#45;&gt;e0 -->
<!-- e0&#45;&gt;e1 -->
<!-- e1&#45;&gt;e2 -->
<!-- e2&#45;&gt;e3 -->
<!-- e3&#45;&gt;e4 -->
<!-- e4&#45;&gt;e5 -->
<!-- e5&#45;&gt;e6 -->
<!-- init0 -->
<g id="node19" class="node">
<title>init0</title>
<polygon fill="white" stroke="none" points="58.36,-97.9 4.36,-97.9 4.36,-72.7 58.36,-72.7 58.36,-97.9"/>
<text text-anchor="middle" x="31.36" y="-80.28" font-family="Helvetica,sans-Serif" font-size="12.00">init=0</text>
</g>
<!-- init0&#45;&gt;e0 -->
<g id="edge16" class="edge">
<title>init0&#45;&gt;e0</title>
<path fill="none" stroke="#1a5fa8" stroke-dasharray="5,2" d="M44.76,-72.94C57.13,-62.46 75.68,-46.74 89.9,-34.69"/>
<polygon fill="#1a5fa8" stroke="#1a5fa8" points="91.18,-36.82 94.94,-30.42 88.01,-33.08 91.18,-36.82"/>
</g>
</g>
</svg>
