<?xml version="1.0" encoding="UTF-8" standalone="no"?>
<!DOCTYPE svg PUBLIC "-//W3C//DTD SVG 1.1//EN"
 "http://www.w3.org/Graphics/SVG/1.1/DTD/svg11.dtd">
<!-- Generated by graphviz version 2.43.0 (0)
 -->
<!-- Title: UnboundedWSQ Pages: 1 -->
<svg width="450pt" height="318pt"
 viewBox="0.00 0.00 450.35 317.74" xmlns="http://www.w3.org/2000/svg" xmlns:xlink="http://www.w3.org/1999/xlink">
<g id="graph0" class="graph" transform="scale(1 1) rotate(0) translate(4 313.74)">
<title>UnboundedWSQ</title>
<polygon fill="white" stroke="transparent" points="-4,4 -4,-313.74 446.35,-313.74 446.35,4 -4,4"/>
<!-- Owner -->
<g id="node1" class="node">
<title>Owner</title>
<polygon fill="none" stroke="black" points="178.85,-309.74 71.85,-309.74 71.85,-271.74 178.85,-271.74 178.85,-309.74"/>
<text text-anchor="middle" x="125.35" y="-294.54" font-family="Arial" font-size="14.00"> Owner Thread</text>
<text text-anchor="middle" x="125.35" y="-279.54" font-family="Arial" font-size="14.00">(single) </text>
</g>
<!-- Push -->
<g id="node4" class="node">
<title>Push</title>
<ellipse fill="none" stroke="black" cx="64.35" cy="-207.87" rx="64.19" ry="26.74"/>
<text text-anchor="middle" x="64.35" y="-211.67" font-family="Arial" font-size="14.00"> push()</text>
<text text-anchor="middle" x="64.35" y="-196.67" font-family="Arial" font-size="14.00">bulk_push() </text>
</g>
<!-- Owner&#45;&gt;Push -->
<g id="edge1" class="edge">
<title>Owner&#45;&gt;Push</title>
<path fill="none" stroke="black" d="M111.5,-271.39C104.97,-262.72 96.96,-252.11 89.41,-242.1"/>
<polygon fill="black" stroke="black" points="92.04,-239.77 83.22,-233.89 86.45,-243.98 92.04,-239.77"/>
</g>
<!-- Pop -->
<g id="node5" class="node">
<title>Pop</title>
<ellipse fill="none" stroke="black" cx="184.35" cy="-207.87" rx="36.29" ry="18"/>
<text text-anchor="middle" x="184.35" y="-204.17" font-family="Arial" font-size="14.00"> pop() </text>
</g>
<!-- Owner&#45;&gt;Pop -->
<g id="edge2" class="edge">
<title>Owner&#45;&gt;Pop</title>
<path fill="none" stroke="black" d="M138.73,-271.39C146.94,-260.14 157.55,-245.6 166.47,-233.37"/>
<polygon fill="black" stroke="black" points="169.54,-235.1 172.61,-224.96 163.89,-230.97 169.54,-235.1"/>
</g>
<!-- Thieves -->
<g id="node2" class="node">
<title>Thieves</title>
<polygon fill="none" stroke="black" points="393.35,-309.74 289.35,-309.74 289.35,-271.74 393.35,-271.74 393.35,-309.74"/>
<text text-anchor="middle" x="341.35" y="-294.54" font-family="Arial" font-size="14.00"> Thief Threads</text>
<text text-anchor="middle" x="341.35" y="-279.54" font-family="Arial" font-size="14.00">(multiple) </text>
</g>
<!-- Steal -->
<g id="node6" class="node">
<title>Steal</title>
<ellipse fill="none" stroke="black" cx="341.35" cy="-207.87" rx="40.09" ry="18"/>
<text text-anchor="middle" x="341.35" y="-204.17" font-family="Arial" font-size="14.00"> steal() </text>
</g>
<!-- Thieves&#45;&gt;Steal -->
<g id="edge5" class="edge">
<title>Thieves&#45;&gt;Steal</title>
<path fill="none" stroke="black" d="M341.35,-271.39C341.35,-260.97 341.35,-247.73 341.35,-236.12"/>
<polygon fill="black" stroke="black" points="344.85,-236.04 341.35,-226.04 337.85,-236.04 344.85,-236.04"/>
</g>
<!-- Queue -->
<g id="node3" class="node">
<title>Queue</title>
<polygon fill="none" stroke="black" points="119.85,-0.5 119.85,-114.5 254.85,-114.5 254.85,-0.5 119.85,-0.5"/>
<text text-anchor="middle" x="187.35" y="-99.3" font-family="Arial" font-size="14.00">Head (Top)</text>
<text text-anchor="middle" x="187.35" y="-84.3" font-family="Arial" font-size="14.00">steal index</text>
<polyline fill="none" stroke="black" points="119.85,-76.5 254.85,-76.5 "/>
<text text-anchor="middle" x="187.35" y="-61.3" font-family="Arial" font-size="14.00">Dynamic Buffer</text>
<text text-anchor="middle" x="187.35" y="-46.3" font-family="Arial" font-size="14.00">(resizes as needed)</text>
<polyline fill="none" stroke="black" points="119.85,-38.5 254.85,-38.5 "/>
<text text-anchor="middle" x="187.35" y="-23.3" font-family="Arial" font-size="14.00">Tail (Bottom)</text>
<text text-anchor="middle" x="187.35" y="-8.3" font-family="Arial" font-size="14.00">push / pop index</text>
</g>
<!-- Push&#45;&gt;Queue -->
<g id="edge3" class="edge">
<title>Push&#45;&gt;Queue:tail</title>
<path fill="none" stroke="black" d="M60.92,-180.82C55.88,-132.15 52.39,-31.34 108.08,-20.46"/>
<polygon fill="black" stroke="black" points="108.72,-23.91 118.35,-19.5 108.06,-16.94 108.72,-23.91"/>
<text text-anchor="middle" x="110.35" y="-151.8" font-family="Arial" font-size="14.00"> insert at bottom</text>
<text text-anchor="middle" x="110.35" y="-136.8" font-family="Arial" font-size="14.00">(grow if needed) </text>
</g>
<!-- Pop&#45;&gt;Queue -->
<g id="edge4" class="edge">
<title>Pop&#45;&gt;Queue:tail</title>
<path fill="none" stroke="black" d="M180.1,-189.92C177.06,-173.52 175.49,-148.86 188.35,-133 207.76,-109.05 236.46,-139.37 255.35,-115 279.02,-84.47 295.59,-30.4 266.37,-20.93"/>
<polygon fill="black" stroke="black" points="266.74,-17.45 256.35,-19.5 265.75,-24.38 266.74,-17.45"/>
<text text-anchor="middle" x="253.85" y="-144.3" font-family="Arial" font-size="14.00"> remove from bottom </text>
</g>
<!-- Steal&#45;&gt;Queue -->
<g id="edge6" class="edge">
<title>Steal&#45;&gt;Queue:head</title>
<path fill="none" stroke="black" d="M339.81,-189.71C337.61,-173.6 332.26,-149.58 319.35,-133 301.59,-110.2 291.41,-98.35 266.61,-95.96"/>
<polygon fill="black" stroke="black" points="266.49,-92.45 256.35,-95.5 266.18,-99.44 266.49,-92.45"/>
<text text-anchor="middle" x="388.35" y="-144.3" font-family="Arial" font-size="14.00"> remove from top </text>
</g>
</g>
</svg>
