<?xml version="1.0" encoding="UTF-8" standalone="no"?>
<!DOCTYPE svg PUBLIC "-//W3C//DTD SVG 1.1//EN"
 "http://www.w3.org/Graphics/SVG/1.1/DTD/svg11.dtd">
<!-- Generated by graphviz version 12.2.1 (20241206.2353)
 -->
<!-- Title: Taskflow Pages: 1 -->
<svg width="334pt" height="262pt"
 viewBox="0.00 0.00 334.00 262.00" xmlns="http://www.w3.org/2000/svg" xmlns:xlink="http://www.w3.org/1999/xlink">
<g id="graph0" class="graph" transform="scale(1 1) rotate(0) translate(4 258)">
<title>Taskflow</title>
<polygon fill="white" stroke="none" points="-4,4 -4,-258 330,-258 330,4 -4,4"/>
<g id="clust1" class="cluster">
<title>cluster_p0x7ffd7418c200</title>
<polygon fill="none" stroke="black" points="8,-8 8,-246 168,-246 168,-8 8,-8"/>
<text text-anchor="middle" x="88" y="-228.7" font-family="Times,serif" font-size="14.00">Text Processing Pipeline</text>
</g>
<g id="clust2" class="cluster">
<title>cluster_p0x7ffd7418c110</title>
<polygon fill="none" stroke="black" points="176,-81 176,-246 318,-246 318,-81 176,-81"/>
<text text-anchor="middle" x="247" y="-228.7" font-family="Times,serif" font-size="14.00">m1</text>
</g>
<!-- p0x7bc4000142e8 -->
<g id="node1" class="node">
<title>p0x7bc4000142e8</title>
<ellipse fill="none" stroke="black" cx="88" cy="-195.5" rx="70.8" ry="18"/>
<text text-anchor="middle" x="88" y="-190.45" font-family="Times,serif" font-size="14.00">starting pipeline</text>
</g>
<!-- p0x7bc4000143d0 -->
<g id="node2" class="node">
<title>p0x7bc4000143d0</title>
<polygon fill="none" stroke="blue" points="133.12,-125 46.88,-125 42.88,-121 42.88,-89 129.12,-89 133.12,-93 133.12,-125"/>
<polyline fill="none" stroke="blue" points="129.12,-121 42.88,-121"/>
<polyline fill="none" stroke="blue" points="129.12,-121 129.12,-89"/>
<polyline fill="none" stroke="blue" points="129.12,-121 133.12,-125"/>
<text text-anchor="middle" x="88" y="-101.95" font-family="Times,serif" font-size="14.00">pipeline [m1]</text>
</g>
<!-- p0x7bc4000142e8&#45;&gt;p0x7bc4000143d0 -->
<g id="edge1" class="edge">
<title>p0x7bc4000142e8&#45;&gt;p0x7bc4000143d0</title>
<path fill="none" stroke="black" d="M88,-177.41C88,-165.76 88,-150.05 88,-136.52"/>
<polygon fill="black" stroke="black" points="91.5,-136.86 88,-126.86 84.5,-136.86 91.5,-136.86"/>
</g>
<!-- p0x7bc4000144b8 -->
<g id="node3" class="node">
<title>p0x7bc4000144b8</title>
<ellipse fill="none" stroke="black" cx="88" cy="-34" rx="71.82" ry="18"/>
<text text-anchor="middle" x="88" y="-28.95" font-family="Times,serif" font-size="14.00">pipeline stopped</text>
</g>
<!-- p0x7bc4000143d0&#45;&gt;p0x7bc4000144b8 -->
<g id="edge2" class="edge">
<title>p0x7bc4000143d0&#45;&gt;p0x7bc4000144b8</title>
<path fill="none" stroke="black" d="M88,-88.81C88,-81.23 88,-72.1 88,-63.54"/>
<polygon fill="black" stroke="black" points="91.5,-63.54 88,-53.54 84.5,-63.54 91.5,-63.54"/>
</g>
<!-- p0x7bc400014030 -->
<g id="node4" class="node">
<title>p0x7bc400014030</title>
<polygon fill="aquamarine" stroke="black" points="233,-213.5 192.23,-195.5 233,-177.5 273.77,-195.5 233,-213.5"/>
<text text-anchor="middle" x="233" y="-190.45" font-family="Times,serif" font-size="14.00">cond</text>
</g>
<!-- p0x7bc400014118 -->
<g id="node5" class="node">
<title>p0x7bc400014118</title>
<polygon fill="none" stroke="black" points="238,-125 184,-125 184,-121 180,-121 180,-117 184,-117 184,-97 180,-97 180,-93 184,-93 184,-89 238,-89 238,-125"/>
<polyline fill="none" stroke="black" points="184,-121 188,-121 188,-117 184,-117"/>
<polyline fill="none" stroke="black" points="184,-97 188,-97 188,-93 184,-93"/>
<text text-anchor="middle" x="211" y="-101.95" font-family="Times,serif" font-size="14.00">rt&#45;0</text>
</g>
<!-- p0x7bc400014030&#45;&gt;p0x7bc400014118 -->
<g id="edge3" class="edge">
<title>p0x7bc400014030&#45;&gt;p0x7bc400014118</title>
<path fill="none" stroke="black" stroke-dasharray="5,2" d="M229.07,-179.04C226.04,-167.15 221.79,-150.41 218.16,-136.16"/>
<polygon fill="black" stroke="black" points="221.66,-135.71 215.8,-126.88 214.87,-137.43 221.66,-135.71"/>
<text text-anchor="middle" x="227.35" y="-146.2" font-family="Times,serif" font-size="14.00">0</text>
</g>
<!-- p0x7bc400014200 -->
<g id="node6" class="node">
<title>p0x7bc400014200</title>
<polygon fill="none" stroke="black" points="310,-125 256,-125 256,-121 252,-121 252,-117 256,-117 256,-97 252,-97 252,-93 256,-93 256,-89 310,-89 310,-125"/>
<polyline fill="none" stroke="black" points="256,-121 260,-121 260,-117 256,-117"/>
<polyline fill="none" stroke="black" points="256,-97 260,-97 260,-93 256,-93"/>
<text text-anchor="middle" x="283" y="-101.95" font-family="Times,serif" font-size="14.00">rt&#45;1</text>
</g>
<!-- p0x7bc400014030&#45;&gt;p0x7bc400014200 -->
<g id="edge4" class="edge">
<title>p0x7bc400014030&#45;&gt;p0x7bc400014200</title>
<path fill="none" stroke="black" stroke-dasharray="5,2" d="M241.03,-180.6C248.08,-168.42 258.52,-150.35 267.23,-135.29"/>
<polygon fill="black" stroke="black" points="270.18,-137.17 272.16,-126.76 264.12,-133.66 270.18,-137.17"/>
<text text-anchor="middle" x="265.85" y="-146.2" font-family="Times,serif" font-size="14.00">1</text>
</g>
</g>
</svg>
