<?xml version="1.0" encoding="UTF-8" standalone="no"?>
<!DOCTYPE svg PUBLIC "-//W3C//DTD SVG 1.1//EN"
 "http://www.w3.org/Graphics/SVG/1.1/DTD/svg11.dtd">
<!-- Generated by graphviz version 12.2.1 (20241206.2353)
 -->
<!-- Title: ParallelSort Pages: 1 -->
<svg width="516pt" height="375pt"
 viewBox="0.00 0.00 516.14 375.20" xmlns="http://www.w3.org/2000/svg" xmlns:xlink="http://www.w3.org/1999/xlink">
<g id="graph0" class="graph" transform="scale(1 1) rotate(0) translate(4 371.2)">
<title>ParallelSort</title>
<polygon fill="white" stroke="none" points="-4,4 -4,-371.2 512.14,-371.2 512.14,4 -4,4"/>
<g id="clust5" class="cluster">
<title>cluster_legend</title>
<polygon fill="#f8f8f8" stroke="#aaaaaa" points="366.14,-187.6 366.14,-359.2 500.14,-359.2 500.14,-187.6 366.14,-187.6"/>
</g>
<!-- input -->
<g id="node1" class="node">
<title>input</title>
<g id="a_node1"><a xlink:title="input range">
<polygon fill="#cce5ff" stroke="black" points="276.78,-351.2 79.5,-351.2 79.5,-326 276.78,-326 276.78,-351.2"/>
<text text-anchor="middle" x="178.14" y="-334.32" font-family="Courier New" font-size="12.00">[3, 1, 4, 1, 5, 9, 2, 6]</text>
</a>
</g>
</g>
<!-- l1a -->
<g id="node2" class="node">
<title>l1a</title>
<polygon fill="#cce5ff" stroke="black" points="163.78,-286 56.5,-286 56.5,-260.8 163.78,-260.8 163.78,-286"/>
<text text-anchor="middle" x="110.14" y="-269.12" font-family="Courier New" font-size="12.00">[3, 1, 4, 1]</text>
</g>
<!-- input&#45;&gt;l1a -->
<g id="edge1" class="edge">
<title>input&#45;&gt;l1a</title>
<path fill="none" stroke="#555555" stroke-dasharray="5,2" d="M165.35,-325.71C155.09,-316.18 140.55,-302.66 128.96,-291.89"/>
<polygon fill="#555555" stroke="#555555" points="130.78,-290.24 123.98,-287.26 127.44,-293.82 130.78,-290.24"/>
</g>
<!-- l1b -->
<g id="node3" class="node">
<title>l1b</title>
<polygon fill="#cce5ff" stroke="black" points="299.78,-286 192.5,-286 192.5,-260.8 299.78,-260.8 299.78,-286"/>
<text text-anchor="middle" x="246.14" y="-269.12" font-family="Courier New" font-size="12.00">[5, 9, 2, 6]</text>
</g>
<!-- input&#45;&gt;l1b -->
<g id="edge2" class="edge">
<title>input&#45;&gt;l1b</title>
<path fill="none" stroke="#555555" stroke-dasharray="5,2" d="M190.93,-325.71C201.19,-316.18 215.73,-302.66 227.32,-291.89"/>
<polygon fill="#555555" stroke="#555555" points="228.84,-293.82 232.3,-287.26 225.5,-290.24 228.84,-293.82"/>
</g>
<!-- l2a -->
<g id="node4" class="node">
<title>l2a</title>
<polygon fill="#cce5ff" stroke="black" points="62.28,-220.8 0,-220.8 0,-195.6 62.28,-195.6 62.28,-220.8"/>
<text text-anchor="middle" x="31.14" y="-203.92" font-family="Courier New" font-size="12.00">[3, 1]</text>
</g>
<!-- l1a&#45;&gt;l2a -->
<g id="edge3" class="edge">
<title>l1a&#45;&gt;l2a</title>
<path fill="none" stroke="#555555" stroke-dasharray="5,2" d="M95.28,-260.51C83.22,-250.86 66.06,-237.13 52.52,-226.3"/>
<polygon fill="#555555" stroke="#555555" points="54.38,-224.65 47.38,-222.19 51.32,-228.48 54.38,-224.65"/>
</g>
<!-- l2b -->
<g id="node5" class="node">
<title>l2b</title>
<polygon fill="#cce5ff" stroke="black" points="153.28,-220.8 91,-220.8 91,-195.6 153.28,-195.6 153.28,-220.8"/>
<text text-anchor="middle" x="122.14" y="-203.92" font-family="Courier New" font-size="12.00">[4, 1]</text>
</g>
<!-- l1a&#45;&gt;l2b -->
<g id="edge4" class="edge">
<title>l1a&#45;&gt;l2b</title>
<path fill="none" stroke="#555555" stroke-dasharray="5,2" d="M112.4,-260.51C114.07,-251.69 116.4,-239.44 118.36,-229.13"/>
<polygon fill="#555555" stroke="#555555" points="120.71,-229.86 119.61,-222.52 115.9,-228.94 120.71,-229.86"/>
</g>
<!-- l2c -->
<g id="node6" class="node">
<title>l2c</title>
<polygon fill="#cce5ff" stroke="black" points="266.28,-220.8 204,-220.8 204,-195.6 266.28,-195.6 266.28,-220.8"/>
<text text-anchor="middle" x="235.14" y="-203.92" font-family="Courier New" font-size="12.00">[5, 9]</text>
</g>
<!-- l1b&#45;&gt;l2c -->
<g id="edge5" class="edge">
<title>l1b&#45;&gt;l2c</title>
<path fill="none" stroke="#555555" stroke-dasharray="5,2" d="M244.07,-260.51C242.53,-251.69 240.4,-239.44 238.61,-229.13"/>
<polygon fill="#555555" stroke="#555555" points="241.07,-229 237.46,-222.53 236.25,-229.84 241.07,-229"/>
</g>
<!-- l2d -->
<g id="node7" class="node">
<title>l2d</title>
<polygon fill="#cce5ff" stroke="black" points="357.28,-220.8 295,-220.8 295,-195.6 357.28,-195.6 357.28,-220.8"/>
<text text-anchor="middle" x="326.14" y="-203.92" font-family="Courier New" font-size="12.00">[2, 6]</text>
</g>
<!-- l1b&#45;&gt;l2d -->
<g id="edge6" class="edge">
<title>l1b&#45;&gt;l2d</title>
<path fill="none" stroke="#555555" stroke-dasharray="5,2" d="M261.19,-260.51C273.4,-250.86 290.78,-237.13 304.49,-226.3"/>
<polygon fill="#555555" stroke="#555555" points="305.73,-228.45 309.7,-222.19 302.69,-224.6 305.73,-228.45"/>
</g>
<!-- l3a -->
<g id="node8" class="node">
<title>l3a</title>
<polygon fill="#d4edda" stroke="black" points="62.28,-155.6 0,-155.6 0,-130.4 62.28,-130.4 62.28,-155.6"/>
<text text-anchor="middle" x="31.14" y="-138.72" font-family="Courier New" font-size="12.00">[1, 3]</text>
</g>
<!-- l2a&#45;&gt;l3a -->
<g id="edge7" class="edge">
<title>l2a&#45;&gt;l3a</title>
<path fill="none" stroke="#2a7a2a" d="M31.14,-195.31C31.14,-186.57 31.14,-174.49 31.14,-164.24"/>
<polygon fill="#2a7a2a" stroke="#2a7a2a" points="33.59,-164.35 31.14,-157.35 28.69,-164.35 33.59,-164.35"/>
</g>
<!-- l3b -->
<g id="node9" class="node">
<title>l3b</title>
<polygon fill="#d4edda" stroke="black" points="153.28,-155.6 91,-155.6 91,-130.4 153.28,-130.4 153.28,-155.6"/>
<text text-anchor="middle" x="122.14" y="-138.72" font-family="Courier New" font-size="12.00">[1, 4]</text>
</g>
<!-- l2b&#45;&gt;l3b -->
<g id="edge8" class="edge">
<title>l2b&#45;&gt;l3b</title>
<path fill="none" stroke="#2a7a2a" d="M122.14,-195.31C122.14,-186.57 122.14,-174.49 122.14,-164.24"/>
<polygon fill="#2a7a2a" stroke="#2a7a2a" points="124.59,-164.35 122.14,-157.35 119.69,-164.35 124.59,-164.35"/>
</g>
<!-- l3c -->
<g id="node10" class="node">
<title>l3c</title>
<polygon fill="#d4edda" stroke="black" points="266.28,-155.6 204,-155.6 204,-130.4 266.28,-130.4 266.28,-155.6"/>
<text text-anchor="middle" x="235.14" y="-138.72" font-family="Courier New" font-size="12.00">[5, 9]</text>
</g>
<!-- l2c&#45;&gt;l3c -->
<g id="edge9" class="edge">
<title>l2c&#45;&gt;l3c</title>
<path fill="none" stroke="#2a7a2a" d="M235.14,-195.31C235.14,-186.57 235.14,-174.49 235.14,-164.24"/>
<polygon fill="#2a7a2a" stroke="#2a7a2a" points="237.59,-164.35 235.14,-157.35 232.69,-164.35 237.59,-164.35"/>
</g>
<!-- l3d -->
<g id="node11" class="node">
<title>l3d</title>
<polygon fill="#d4edda" stroke="black" points="357.28,-155.6 295,-155.6 295,-130.4 357.28,-130.4 357.28,-155.6"/>
<text text-anchor="middle" x="326.14" y="-138.72" font-family="Courier New" font-size="12.00">[2, 6]</text>
</g>
<!-- l2d&#45;&gt;l3d -->
<g id="edge10" class="edge">
<title>l2d&#45;&gt;l3d</title>
<path fill="none" stroke="#2a7a2a" d="M326.14,-195.31C326.14,-186.57 326.14,-174.49 326.14,-164.24"/>
<polygon fill="#2a7a2a" stroke="#2a7a2a" points="328.59,-164.35 326.14,-157.35 323.69,-164.35 328.59,-164.35"/>
</g>
<!-- l4a -->
<g id="node12" class="node">
<title>l4a</title>
<polygon fill="#ffe8c0" stroke="black" points="163.78,-90.4 56.5,-90.4 56.5,-65.2 163.78,-65.2 163.78,-90.4"/>
<text text-anchor="middle" x="110.14" y="-73.53" font-family="Courier New" font-size="12.00">[1, 1, 3, 4]</text>
</g>
<!-- l3a&#45;&gt;l4a -->
<g id="edge11" class="edge">
<title>l3a&#45;&gt;l4a</title>
<path fill="none" stroke="#b85c00" d="M46,-130.11C58.06,-120.46 75.22,-106.73 88.76,-95.9"/>
<polygon fill="#b85c00" stroke="#b85c00" points="89.96,-98.08 93.9,-91.79 86.9,-94.25 89.96,-98.08"/>
</g>
<!-- l3b&#45;&gt;l4a -->
<g id="edge12" class="edge">
<title>l3b&#45;&gt;l4a</title>
<path fill="none" stroke="#b85c00" d="M119.88,-130.11C118.21,-121.29 115.88,-109.04 113.92,-98.73"/>
<polygon fill="#b85c00" stroke="#b85c00" points="116.38,-98.54 112.67,-92.12 111.57,-99.46 116.38,-98.54"/>
</g>
<!-- l4b -->
<g id="node13" class="node">
<title>l4b</title>
<polygon fill="#ffe8c0" stroke="black" points="299.78,-90.4 192.5,-90.4 192.5,-65.2 299.78,-65.2 299.78,-90.4"/>
<text text-anchor="middle" x="246.14" y="-73.53" font-family="Courier New" font-size="12.00">[2, 5, 6, 9]</text>
</g>
<!-- l3c&#45;&gt;l4b -->
<g id="edge13" class="edge">
<title>l3c&#45;&gt;l4b</title>
<path fill="none" stroke="#b85c00" d="M237.21,-130.11C238.75,-121.29 240.88,-109.04 242.67,-98.73"/>
<polygon fill="#b85c00" stroke="#b85c00" points="245.03,-99.44 243.82,-92.13 240.21,-98.6 245.03,-99.44"/>
</g>
<!-- l3d&#45;&gt;l4b -->
<g id="edge14" class="edge">
<title>l3d&#45;&gt;l4b</title>
<path fill="none" stroke="#b85c00" d="M311.09,-130.11C298.88,-120.46 281.5,-106.73 267.79,-95.9"/>
<polygon fill="#b85c00" stroke="#b85c00" points="269.59,-94.2 262.58,-91.79 266.55,-98.05 269.59,-94.2"/>
</g>
<!-- output -->
<g id="node14" class="node">
<title>output</title>
<polygon fill="#ffe8c0" stroke="black" stroke-width="2" points="276.78,-25.2 79.5,-25.2 79.5,0 276.78,0 276.78,-25.2"/>
<text text-anchor="middle" x="178.14" y="-8.33" font-family="Courier New" font-size="12.00">[1, 1, 2, 3, 4, 5, 6, 9]</text>
</g>
<!-- l4a&#45;&gt;output -->
<g id="edge15" class="edge">
<title>l4a&#45;&gt;output</title>
<path fill="none" stroke="#b85c00" d="M122.93,-64.91C133.19,-55.38 147.73,-41.86 159.32,-31.09"/>
<polygon fill="#b85c00" stroke="#b85c00" points="160.84,-33.02 164.3,-26.46 157.5,-29.44 160.84,-33.02"/>
</g>
<!-- l4b&#45;&gt;output -->
<g id="edge16" class="edge">
<title>l4b&#45;&gt;output</title>
<path fill="none" stroke="#b85c00" d="M233.35,-64.91C223.09,-55.38 208.55,-41.86 196.96,-31.09"/>
<polygon fill="#b85c00" stroke="#b85c00" points="198.78,-29.44 191.98,-26.46 195.44,-33.02 198.78,-29.44"/>
</g>
<!-- leg_unsorted -->
<g id="node15" class="node">
<title>leg_unsorted</title>
<polygon fill="#cce5ff" stroke="black" points="491.65,-351.2 374.62,-351.2 374.62,-326 491.65,-326 491.65,-351.2"/>
<text text-anchor="middle" x="433.14" y="-333.57" font-family="Helvetica,sans-Serif" font-size="12.00">unsorted subrange</text>
</g>
<!-- leg_sorted -->
<g id="node16" class="node">
<title>leg_sorted</title>
<polygon fill="#d4edda" stroke="black" points="484.9,-286 381.38,-286 381.38,-260.8 484.9,-260.8 484.9,-286"/>
<text text-anchor="middle" x="433.14" y="-268.38" font-family="Helvetica,sans-Serif" font-size="12.00">sorted subrange</text>
</g>
<!-- leg_unsorted&#45;&gt;leg_sorted -->
<!-- leg_merged -->
<g id="node17" class="node">
<title>leg_merged</title>
<polygon fill="#ffe8c0" stroke="black" points="479.94,-220.8 386.34,-220.8 386.34,-195.6 479.94,-195.6 479.94,-220.8"/>
<text text-anchor="middle" x="433.14" y="-203.17" font-family="Helvetica,sans-Serif" font-size="12.00">merged result</text>
</g>
<!-- leg_sorted&#45;&gt;leg_merged -->
</g>
</svg>
