<?xml version="1.0" encoding="UTF-8" standalone="no"?>
<!DOCTYPE svg PUBLIC "-//W3C//DTD SVG 1.1//EN"
 "http://www.w3.org/Graphics/SVG/1.1/DTD/svg11.dtd">
<!-- Generated by graphviz version 12.2.1 (20241206.2353)
 -->
<!-- Title: ObjectPoolFlow Pages: 1 -->
<svg width="304pt" height="559pt"
 viewBox="0.00 0.00 304.38 558.50" xmlns="http://www.w3.org/2000/svg" xmlns:xlink="http://www.w3.org/1999/xlink">
<g id="graph0" class="graph" transform="scale(1 1) rotate(0) translate(4 554.5)">
<title>ObjectPoolFlow</title>
<polygon fill="white" stroke="none" points="-4,4 -4,-554.5 300.38,-554.5 300.38,4 -4,4"/>
<!-- animate -->
<g id="node1" class="node">
<title>animate</title>
<polygon fill="white" stroke="black" points="164.38,-550.5 95.88,-550.5 95.88,-514.5 164.38,-514.5 164.38,-550.5"/>
<text text-anchor="middle" x="130.12" y="-527.45" font-family="Times,serif" font-size="14.00">animate()</text>
</g>
<!-- getshard -->
<g id="node2" class="node">
<title>getshard</title>
<polygon fill="white" stroke="black" points="174.88,-477.5 85.38,-477.5 85.38,-436.5 174.88,-436.5 174.88,-477.5"/>
<text text-anchor="middle" x="130.12" y="-460.2" font-family="Times,serif" font-size="14.00">Get shard</text>
<text text-anchor="middle" x="130.12" y="-443.7" font-family="Times,serif" font-size="14.00">(thread&#45;local)</text>
</g>
<!-- animate&#45;&gt;getshard -->
<g id="edge1" class="edge">
<title>animate&#45;&gt;getshard</title>
<path fill="none" stroke="black" d="M130.12,-514.08C130.12,-506.7 130.12,-497.85 130.12,-489.4"/>
<polygon fill="black" stroke="black" points="133.63,-489.4 130.13,-479.4 126.63,-489.4 133.63,-489.4"/>
</g>
<!-- popfree -->
<g id="node3" class="node">
<title>popfree</title>
<polygon fill="white" stroke="black" points="179.75,-399.5 80.5,-399.5 80.5,-358.5 179.75,-358.5 179.75,-399.5"/>
<text text-anchor="middle" x="130.12" y="-382.2" font-family="Times,serif" font-size="14.00">pop_free()</text>
<text text-anchor="middle" x="130.12" y="-365.7" font-family="Times,serif" font-size="14.00">Lock&#45;free CAS</text>
</g>
<!-- getshard&#45;&gt;popfree -->
<g id="edge2" class="edge">
<title>getshard&#45;&gt;popfree</title>
<path fill="none" stroke="black" d="M130.12,-436.03C130.12,-428.44 130.12,-419.6 130.12,-411.21"/>
<polygon fill="black" stroke="black" points="133.63,-411.35 130.13,-401.35 126.63,-411.35 133.63,-411.35"/>
</g>
<!-- found -->
<g id="node4" class="node">
<title>found</title>
<polygon fill="white" stroke="black" points="130.12,-321.5 55.63,-280.5 130.12,-239.5 204.62,-280.5 130.12,-321.5"/>
<text text-anchor="middle" x="130.12" y="-283.7" font-family="Times,serif" font-size="14.00">Found in</text>
<text text-anchor="middle" x="130.12" y="-267.2" font-family="Times,serif" font-size="14.00">free stack?</text>
</g>
<!-- popfree&#45;&gt;found -->
<g id="edge3" class="edge">
<title>popfree&#45;&gt;found</title>
<path fill="none" stroke="black" d="M130.12,-358.01C130.12,-350.63 130.12,-341.89 130.12,-333.01"/>
<polygon fill="black" stroke="black" points="133.63,-333.29 130.13,-323.29 126.63,-333.29 133.63,-333.29"/>
</g>
<!-- backup -->
<g id="node5" class="node">
<title>backup</title>
<polygon fill="white" stroke="black" points="150.25,-187 0,-187 0,-151 150.25,-151 150.25,-187"/>
<text text-anchor="middle" x="75.12" y="-163.95" font-family="Times,serif" font-size="14.00">allocate_from_backing()</text>
</g>
<!-- found&#45;&gt;backup -->
<g id="edge5" class="edge">
<title>found&#45;&gt;backup</title>
<path fill="none" stroke="black" d="M114.22,-247.83C106.17,-231.82 96.51,-212.58 88.81,-197.24"/>
<polygon fill="black" stroke="black" points="92.12,-196.05 84.51,-188.68 85.87,-199.19 92.12,-196.05"/>
<text text-anchor="middle" x="110.73" y="-208.2" font-family="Times,serif" font-size="14.00">NO</text>
</g>
<!-- construct -->
<g id="node6" class="node">
<title>construct</title>
<polygon fill="white" stroke="black" points="164.38,-114 95.88,-114 95.88,-73 164.38,-73 164.38,-114"/>
<text text-anchor="middle" x="130.12" y="-96.7" font-family="Times,serif" font-size="14.00">Construct</text>
<text text-anchor="middle" x="130.12" y="-80.2" font-family="Times,serif" font-size="14.00">object</text>
</g>
<!-- found&#45;&gt;construct -->
<g id="edge4" class="edge">
<title>found&#45;&gt;construct</title>
<path fill="none" stroke="black" d="M145.61,-247.49C156.21,-221.45 167.05,-183.79 159.12,-151 156.92,-141.88 152.98,-132.58 148.7,-124.23"/>
<polygon fill="black" stroke="black" points="151.82,-122.64 143.93,-115.57 145.69,-126.02 151.82,-122.64"/>
<text text-anchor="middle" x="174.6" y="-163.95" font-family="Times,serif" font-size="14.00">YES</text>
</g>
<!-- backup&#45;&gt;construct -->
<g id="edge6" class="edge">
<title>backup&#45;&gt;construct</title>
<path fill="none" stroke="black" d="M88.16,-150.58C94.19,-142.52 101.53,-132.71 108.37,-123.57"/>
<polygon fill="black" stroke="black" points="111.15,-125.71 114.33,-115.6 105.54,-121.51 111.15,-125.71"/>
</g>
<!-- use -->
<g id="node7" class="node">
<title>use</title>
<polygon fill="white" stroke="black" points="167,-36 93.25,-36 93.25,0 167,0 167,-36"/>
<text text-anchor="middle" x="130.12" y="-12.95" font-family="Times,serif" font-size="14.00">Use object</text>
</g>
<!-- construct&#45;&gt;use -->
<g id="edge7" class="edge">
<title>construct&#45;&gt;use</title>
<path fill="none" stroke="black" d="M130.12,-72.8C130.12,-65.06 130.12,-56.01 130.12,-47.57"/>
<polygon fill="black" stroke="black" points="133.63,-47.76 130.13,-37.76 126.63,-47.76 133.63,-47.76"/>
</g>
<!-- recycle -->
<g id="node8" class="node">
<title>recycle</title>
<polygon fill="white" stroke="black" points="287.75,-550.5 206.5,-550.5 206.5,-514.5 287.75,-514.5 287.75,-550.5"/>
<text text-anchor="middle" x="247.12" y="-527.45" font-family="Times,serif" font-size="14.00">recycle(obj)</text>
</g>
<!-- destroy -->
<g id="node9" class="node">
<title>destroy</title>
<polygon fill="white" stroke="black" points="276.5,-477.5 217.75,-477.5 217.75,-436.5 276.5,-436.5 276.5,-477.5"/>
<text text-anchor="middle" x="247.12" y="-460.2" font-family="Times,serif" font-size="14.00">Destroy</text>
<text text-anchor="middle" x="247.12" y="-443.7" font-family="Times,serif" font-size="14.00">object</text>
</g>
<!-- recycle&#45;&gt;destroy -->
<g id="edge8" class="edge">
<title>recycle&#45;&gt;destroy</title>
<path fill="none" stroke="black" d="M247.12,-514.08C247.12,-506.7 247.12,-497.85 247.12,-489.4"/>
<polygon fill="black" stroke="black" points="250.63,-489.4 247.13,-479.4 243.63,-489.4 250.63,-489.4"/>
</g>
<!-- pushfree -->
<g id="node10" class="node">
<title>pushfree</title>
<polygon fill="white" stroke="black" points="296.38,-399.5 197.88,-399.5 197.88,-358.5 296.38,-358.5 296.38,-399.5"/>
<text text-anchor="middle" x="247.12" y="-382.2" font-family="Times,serif" font-size="14.00">push_free()</text>
<text text-anchor="middle" x="247.12" y="-365.7" font-family="Times,serif" font-size="14.00">Lock&#45;free push</text>
</g>
<!-- destroy&#45;&gt;pushfree -->
<g id="edge9" class="edge">
<title>destroy&#45;&gt;pushfree</title>
<path fill="none" stroke="black" d="M247.12,-436.03C247.12,-428.44 247.12,-419.6 247.12,-411.21"/>
<polygon fill="black" stroke="black" points="250.63,-411.35 247.13,-401.35 243.63,-411.35 250.63,-411.35"/>
</g>
</g>
</svg>
