<?xml version="1.0" encoding="UTF-8" standalone="no"?>
<!DOCTYPE svg PUBLIC "-//W3C//DTD SVG 1.1//EN"
 "http://www.w3.org/Graphics/SVG/1.1/DTD/svg11.dtd">
<!-- Generated by graphviz version 12.2.1 (20241206.2353)
 -->
<!-- Title: Partitioners Pages: 1 -->
<svg width="531pt" height="354pt"
 viewBox="0.00 0.00 531.00 354.00" xmlns="http://www.w3.org/2000/svg" xmlns:xlink="http://www.w3.org/1999/xlink">
<g id="graph0" class="graph" transform="scale(1 1) rotate(0) translate(4 350)">
<title>Partitioners</title>
<polygon fill="white" stroke="none" points="-4,4 -4,-350 527,-350 527,4 -4,4"/>
<g id="clust1" class="cluster">
<title>cluster_s0</title>
<polygon fill="#f0f0f0" stroke="#999999" points="8,-266 8,-338 489,-338 489,-266 8,-266"/>
<text text-anchor="middle" x="124.38" y="-323.55" font-family="Helvetica,sans-Serif" font-size="11.00">StaticPartitioner &#160;(with default chunk size = 0)</text>
</g>
<g id="clust3" class="cluster">
<title>cluster_sc</title>
<polygon fill="#f0f0f0" stroke="#999999" points="8,-180 8,-252 405,-252 405,-180 8,-180"/>
<text text-anchor="middle" x="95.5" y="-237.55" font-family="Helvetica,sans-Serif" font-size="11.00">StaticPartitioner &#160;(chunk size &gt; 0)</text>
</g>
<g id="clust5" class="cluster">
<title>cluster_dc</title>
<polygon fill="#f0f0f0" stroke="#999999" points="8,-94 8,-166 408,-166 408,-94 8,-94"/>
<text text-anchor="middle" x="61.75" y="-151.55" font-family="Helvetica,sans-Serif" font-size="11.00">DynamicPartitioner</text>
</g>
<g id="clust7" class="cluster">
<title>cluster_gc</title>
<polygon fill="#f0f0f0" stroke="#999999" points="8,-8 8,-80 515,-80 515,-8 8,-8"/>
<text text-anchor="middle" x="58" y="-65.55" font-family="Helvetica,sans-Serif" font-size="11.00">GuidedPartitioner</text>
</g>
<!-- spine1 -->
<!-- spine2 -->
<!-- spine1&#45;&gt;spine2 -->
<!-- spine3 -->
<!-- spine2&#45;&gt;spine3 -->
<!-- spine4 -->
<!-- spine3&#45;&gt;spine4 -->
<!-- s0w1 -->
<g id="node5" class="node">
<title>s0w1</title>
<polygon fill="#ffffff" stroke="black" points="132.6,-310 17.4,-310 17.4,-274 132.6,-274 132.6,-310"/>
<text text-anchor="middle" x="75" y="-286.98" font-family="Helvetica,sans-Serif" font-size="12.00">Worker 1</text>
</g>
<!-- s0w2 -->
<g id="node6" class="node">
<title>s0w2</title>
<polygon fill="#bbbbbb" stroke="black" points="248.6,-310 133.4,-310 133.4,-274 248.6,-274 248.6,-310"/>
<text text-anchor="middle" x="191" y="-286.98" font-family="Helvetica,sans-Serif" font-size="12.00">Worker 2</text>
</g>
<!-- s0w1&#45;&gt;s0w2 -->
<!-- s0w3 -->
<g id="node7" class="node">
<title>s0w3</title>
<polygon fill="#888888" stroke="black" points="364.6,-310 249.4,-310 249.4,-274 364.6,-274 364.6,-310"/>
<text text-anchor="middle" x="307" y="-286.98" font-family="Helvetica,sans-Serif" font-size="12.00">Worker 3</text>
</g>
<!-- s0w2&#45;&gt;s0w3 -->
<!-- s0w4 -->
<g id="node8" class="node">
<title>s0w4</title>
<polygon fill="#555555" stroke="black" points="480.6,-310 365.4,-310 365.4,-274 480.6,-274 480.6,-310"/>
<text text-anchor="middle" x="423" y="-286.98" font-family="Helvetica,sans-Serif" font-size="12.00" fill="#ffffff">Worker 4</text>
</g>
<!-- s0w3&#45;&gt;s0w4 -->
<!-- sc1 -->
<g id="node9" class="node">
<title>sc1</title>
<polygon fill="#ffffff" stroke="black" points="54.72,-224 17.28,-224 17.28,-188 54.72,-188 54.72,-224"/>
<text text-anchor="middle" x="36" y="-200.97" font-family="Helvetica,sans-Serif" font-size="12.00">W1</text>
</g>
<!-- sc2 -->
<g id="node10" class="node">
<title>sc2</title>
<polygon fill="#bbbbbb" stroke="black" points="92.72,-224 55.28,-224 55.28,-188 92.72,-188 92.72,-224"/>
<text text-anchor="middle" x="74" y="-200.97" font-family="Helvetica,sans-Serif" font-size="12.00">W2</text>
</g>
<!-- sc1&#45;&gt;sc2 -->
<!-- sc3 -->
<g id="node11" class="node">
<title>sc3</title>
<polygon fill="#888888" stroke="black" points="130.72,-224 93.28,-224 93.28,-188 130.72,-188 130.72,-224"/>
<text text-anchor="middle" x="112" y="-200.97" font-family="Helvetica,sans-Serif" font-size="12.00">W3</text>
</g>
<!-- sc2&#45;&gt;sc3 -->
<!-- sc4 -->
<g id="node12" class="node">
<title>sc4</title>
<polygon fill="#555555" stroke="black" points="168.72,-224 131.28,-224 131.28,-188 168.72,-188 168.72,-224"/>
<text text-anchor="middle" x="150" y="-200.97" font-family="Helvetica,sans-Serif" font-size="12.00" fill="#ffffff">W4</text>
</g>
<!-- sc3&#45;&gt;sc4 -->
<!-- sc5 -->
<g id="node13" class="node">
<title>sc5</title>
<polygon fill="#ffffff" stroke="black" points="206.72,-224 169.28,-224 169.28,-188 206.72,-188 206.72,-224"/>
<text text-anchor="middle" x="188" y="-200.97" font-family="Helvetica,sans-Serif" font-size="12.00">W1</text>
</g>
<!-- sc4&#45;&gt;sc5 -->
<!-- sc6 -->
<g id="node14" class="node">
<title>sc6</title>
<polygon fill="#bbbbbb" stroke="black" points="244.72,-224 207.28,-224 207.28,-188 244.72,-188 244.72,-224"/>
<text text-anchor="middle" x="226" y="-200.97" font-family="Helvetica,sans-Serif" font-size="12.00">W2</text>
</g>
<!-- sc5&#45;&gt;sc6 -->
<!-- sc7 -->
<g id="node15" class="node">
<title>sc7</title>
<polygon fill="#888888" stroke="black" points="282.72,-224 245.28,-224 245.28,-188 282.72,-188 282.72,-224"/>
<text text-anchor="middle" x="264" y="-200.97" font-family="Helvetica,sans-Serif" font-size="12.00">W3</text>
</g>
<!-- sc6&#45;&gt;sc7 -->
<!-- sc8 -->
<g id="node16" class="node">
<title>sc8</title>
<polygon fill="#555555" stroke="black" points="320.72,-224 283.28,-224 283.28,-188 320.72,-188 320.72,-224"/>
<text text-anchor="middle" x="302" y="-200.97" font-family="Helvetica,sans-Serif" font-size="12.00" fill="#ffffff">W4</text>
</g>
<!-- sc7&#45;&gt;sc8 -->
<!-- sc9 -->
<g id="node17" class="node">
<title>sc9</title>
<polygon fill="#ffffff" stroke="black" points="358.72,-224 321.28,-224 321.28,-188 358.72,-188 358.72,-224"/>
<text text-anchor="middle" x="340" y="-200.97" font-family="Helvetica,sans-Serif" font-size="12.00">W1</text>
</g>
<!-- sc8&#45;&gt;sc9 -->
<!-- sc10 -->
<g id="node18" class="node">
<title>sc10</title>
<polygon fill="#bbbbbb" stroke="black" points="396.72,-224 359.28,-224 359.28,-188 396.72,-188 396.72,-224"/>
<text text-anchor="middle" x="378" y="-200.97" font-family="Helvetica,sans-Serif" font-size="12.00">W2</text>
</g>
<!-- sc9&#45;&gt;sc10 -->
<!-- dc1 -->
<g id="node19" class="node">
<title>dc1</title>
<polygon fill="#ffffff" stroke="black" points="64.4,-138 17.6,-138 17.6,-102 64.4,-102 64.4,-138"/>
<text text-anchor="middle" x="41" y="-114.97" font-family="Helvetica,sans-Serif" font-size="12.00">W1</text>
</g>
<!-- dc2 -->
<g id="node20" class="node">
<title>dc2</title>
<polygon fill="#bbbbbb" stroke="black" points="112.4,-138 65.6,-138 65.6,-102 112.4,-102 112.4,-138"/>
<text text-anchor="middle" x="89" y="-114.97" font-family="Helvetica,sans-Serif" font-size="12.00">W2</text>
</g>
<!-- dc1&#45;&gt;dc2 -->
<!-- dc3 -->
<g id="node21" class="node">
<title>dc3</title>
<polygon fill="#888888" stroke="black" points="160.4,-138 113.6,-138 113.6,-102 160.4,-102 160.4,-138"/>
<text text-anchor="middle" x="137" y="-114.97" font-family="Helvetica,sans-Serif" font-size="12.00">W3</text>
</g>
<!-- dc2&#45;&gt;dc3 -->
<!-- dc4 -->
<g id="node22" class="node">
<title>dc4</title>
<polygon fill="#555555" stroke="black" points="208.4,-138 161.6,-138 161.6,-102 208.4,-102 208.4,-138"/>
<text text-anchor="middle" x="185" y="-114.97" font-family="Helvetica,sans-Serif" font-size="12.00" fill="#ffffff">W4</text>
</g>
<!-- dc3&#45;&gt;dc4 -->
<!-- dc5 -->
<g id="node23" class="node">
<title>dc5</title>
<polygon fill="#bbbbbb" stroke="black" points="256.4,-138 209.6,-138 209.6,-102 256.4,-102 256.4,-138"/>
<text text-anchor="middle" x="233" y="-114.97" font-family="Helvetica,sans-Serif" font-size="12.00">W2</text>
</g>
<!-- dc4&#45;&gt;dc5 -->
<!-- dc6 -->
<g id="node24" class="node">
<title>dc6</title>
<polygon fill="#888888" stroke="black" points="304.4,-138 257.6,-138 257.6,-102 304.4,-102 304.4,-138"/>
<text text-anchor="middle" x="281" y="-114.97" font-family="Helvetica,sans-Serif" font-size="12.00">W3</text>
</g>
<!-- dc5&#45;&gt;dc6 -->
<!-- dc7 -->
<g id="node25" class="node">
<title>dc7</title>
<polygon fill="#ffffff" stroke="black" points="352.4,-138 305.6,-138 305.6,-102 352.4,-102 352.4,-138"/>
<text text-anchor="middle" x="329" y="-114.97" font-family="Helvetica,sans-Serif" font-size="12.00">W1</text>
</g>
<!-- dc6&#45;&gt;dc7 -->
<!-- dc8 -->
<g id="node26" class="node">
<title>dc8</title>
<polygon fill="#555555" stroke="black" points="400.4,-138 353.6,-138 353.6,-102 400.4,-102 400.4,-138"/>
<text text-anchor="middle" x="377" y="-114.97" font-family="Helvetica,sans-Serif" font-size="12.00" fill="#ffffff">W4</text>
</g>
<!-- dc7&#45;&gt;dc8 -->
<!-- gc1 -->
<g id="node27" class="node">
<title>gc1</title>
<polygon fill="#ffffff" stroke="black" points="114.6,-52 17.4,-52 17.4,-16 114.6,-16 114.6,-52"/>
<text text-anchor="middle" x="66" y="-28.98" font-family="Helvetica,sans-Serif" font-size="12.00">Worker 1</text>
</g>
<!-- gc2 -->
<g id="node28" class="node">
<title>gc2</title>
<polygon fill="#bbbbbb" stroke="black" points="212.6,-52 115.4,-52 115.4,-16 212.6,-16 212.6,-52"/>
<text text-anchor="middle" x="164" y="-28.98" font-family="Helvetica,sans-Serif" font-size="12.00">Worker 2</text>
</g>
<!-- gc1&#45;&gt;gc2 -->
<!-- gc3 -->
<g id="node29" class="node">
<title>gc3</title>
<polygon fill="#888888" stroke="black" points="282.2,-52 213.8,-52 213.8,-16 282.2,-16 282.2,-52"/>
<text text-anchor="middle" x="248" y="-28.98" font-family="Helvetica,sans-Serif" font-size="12.00">Worker 3</text>
</g>
<!-- gc2&#45;&gt;gc3 -->
<!-- gc4 -->
<g id="node30" class="node">
<title>gc4</title>
<polygon fill="#555555" stroke="black" points="351.2,-52 282.8,-52 282.8,-16 351.2,-16 351.2,-52"/>
<text text-anchor="middle" x="317" y="-28.98" font-family="Helvetica,sans-Serif" font-size="12.00" fill="#ffffff">Worker 4</text>
</g>
<!-- gc3&#45;&gt;gc4 -->
<!-- gc5 -->
<g id="node31" class="node">
<title>gc5</title>
<polygon fill="#ffffff" stroke="black" points="386.28,-52 351.72,-52 351.72,-16 386.28,-16 386.28,-52"/>
<text text-anchor="middle" x="369" y="-28.98" font-family="Helvetica,sans-Serif" font-size="12.00">W1</text>
</g>
<!-- gc4&#45;&gt;gc5 -->
<!-- gc6 -->
<g id="node32" class="node">
<title>gc6</title>
<polygon fill="#bbbbbb" stroke="black" points="422.28,-52 387.72,-52 387.72,-16 422.28,-16 422.28,-52"/>
<text text-anchor="middle" x="405" y="-28.98" font-family="Helvetica,sans-Serif" font-size="12.00">W2</text>
</g>
<!-- gc5&#45;&gt;gc6 -->
<!-- gc7 -->
<g id="node33" class="node">
<title>gc7</title>
<polygon fill="#555555" stroke="black" points="458.28,-52 423.72,-52 423.72,-16 458.28,-16 458.28,-52"/>
<text text-anchor="middle" x="441" y="-28.98" font-family="Helvetica,sans-Serif" font-size="12.00" fill="#ffffff">W4</text>
</g>
<!-- gc6&#45;&gt;gc7 -->
<!-- gc8 -->
<g id="node34" class="node">
<title>gc8</title>
<polygon fill="#e0e0e0" stroke="black" points="482.7,-52 459.3,-52 459.3,-16 482.7,-16 482.7,-52"/>
<text text-anchor="middle" x="471" y="-28.98" font-family="Helvetica,sans-Serif" font-size="12.00">...</text>
</g>
<!-- gc7&#45;&gt;gc8 -->
<!-- gc9 -->
<g id="node35" class="node">
<title>gc9</title>
<polygon fill="#e0e0e0" stroke="black" points="506.7,-52 483.3,-52 483.3,-16 506.7,-16 506.7,-52"/>
<text text-anchor="middle" x="495" y="-28.98" font-family="Helvetica,sans-Serif" font-size="12.00">...</text>
</g>
<!-- gc8&#45;&gt;gc9 -->
</g>
</svg>
