<?xml version="1.0" encoding="UTF-8" standalone="no"?>
<!DOCTYPE svg PUBLIC "-//W3C//DTD SVG 1.1//EN"
 "http://www.w3.org/Graphics/SVG/1.1/DTD/svg11.dtd">
<!-- Generated by graphviz version 12.2.1 (20241206.2353)
 -->
<!-- Title: Taskflow Pages: 1 -->
<svg width="533pt" height="389pt"
 viewBox="0.00 0.00 533.00 388.50" xmlns="http://www.w3.org/2000/svg" xmlns:xlink="http://www.w3.org/1999/xlink">
<g id="graph0" class="graph" transform="scale(1 1) rotate(0) translate(4 384.5)">
<title>Taskflow</title>
<polygon fill="white" stroke="none" points="-4,4 -4,-384.5 529,-384.5 529,4 -4,4"/>
<g id="clust1" class="cluster">
<title>cluster_p0x7ffcc549dd00</title>
<polygon fill="none" stroke="black" points="8,-8 8,-372.5 517,-372.5 517,-8 8,-8"/>
<text text-anchor="middle" x="262.5" y="-355.2" font-family="Times,serif" font-size="14.00">Taskflow: K&#45;Means</text>
</g>
<!-- p0x112f740 -->
<g id="node1" class="node">
<title>p0x112f740</title>
<ellipse fill="none" stroke="black" cx="69" cy="-322" rx="53.4" ry="18"/>
<text text-anchor="middle" x="69" y="-316.95" font-family="Times,serif" font-size="14.00">allocate_px</text>
</g>
<!-- p0x112fa10 -->
<g id="node2" class="node">
<title>p0x112fa10</title>
<ellipse fill="none" stroke="black" cx="122" cy="-250" rx="27" ry="18"/>
<text text-anchor="middle" x="122" y="-244.95" font-family="Times,serif" font-size="14.00">h2d</text>
</g>
<!-- p0x112f740&#45;&gt;p0x112fa10 -->
<g id="edge1" class="edge">
<title>p0x112f740&#45;&gt;p0x112fa10</title>
<path fill="none" stroke="black" d="M81.83,-304.05C88.36,-295.44 96.4,-284.81 103.58,-275.33"/>
<polygon fill="black" stroke="black" points="106.21,-277.65 109.46,-267.56 100.63,-273.42 106.21,-277.65"/>
</g>
<!-- p0x112fb00 -->
<g id="node7" class="node">
<title>p0x112fb00</title>
<ellipse fill="none" stroke="black" cx="280" cy="-178" rx="64.15" ry="18"/>
<text text-anchor="middle" x="280" y="-172.95" font-family="Times,serif" font-size="14.00">update_means</text>
</g>
<!-- p0x112fa10&#45;&gt;p0x112fb00 -->
<g id="edge8" class="edge">
<title>p0x112fa10&#45;&gt;p0x112fb00</title>
<path fill="none" stroke="black" d="M143.65,-238.64C148.37,-236.42 153.34,-234.11 158,-232 183.42,-220.48 212.03,-208.02 235.15,-198.08"/>
<polygon fill="black" stroke="black" points="236.49,-201.32 244.3,-194.16 233.73,-194.89 236.49,-201.32"/>
</g>
<!-- p0x112f650 -->
<g id="node3" class="node">
<title>p0x112f650</title>
<ellipse fill="none" stroke="black" cx="194" cy="-322" rx="53.4" ry="18"/>
<text text-anchor="middle" x="194" y="-316.95" font-family="Times,serif" font-size="14.00">allocate_py</text>
</g>
<!-- p0x112f650&#45;&gt;p0x112fa10 -->
<g id="edge2" class="edge">
<title>p0x112f650&#45;&gt;p0x112fa10</title>
<path fill="none" stroke="black" d="M177.3,-304.76C167.6,-295.33 155.24,-283.32 144.67,-273.04"/>
<polygon fill="black" stroke="black" points="147.35,-270.77 137.74,-266.3 142.47,-275.79 147.35,-270.77"/>
</g>
<!-- p0x112f560 -->
<g id="node4" class="node">
<title>p0x112f560</title>
<ellipse fill="none" stroke="black" cx="322" cy="-322" rx="56.47" ry="18"/>
<text text-anchor="middle" x="322" y="-316.95" font-family="Times,serif" font-size="14.00">allocate_mx</text>
</g>
<!-- p0x112f560&#45;&gt;p0x112fa10 -->
<g id="edge3" class="edge">
<title>p0x112f560&#45;&gt;p0x112fa10</title>
<path fill="none" stroke="black" d="M280.71,-309.26C247.23,-299.36 199.04,-284.24 158,-268 156.47,-267.4 154.92,-266.76 153.36,-266.1"/>
<polygon fill="black" stroke="black" points="155.06,-263.02 144.5,-262.14 152.21,-269.42 155.06,-263.02"/>
</g>
<!-- p0x112f470 -->
<g id="node5" class="node">
<title>p0x112f470</title>
<ellipse fill="none" stroke="black" cx="453" cy="-322" rx="56.47" ry="18"/>
<text text-anchor="middle" x="453" y="-316.95" font-family="Times,serif" font-size="14.00">allocate_my</text>
</g>
<!-- p0x112f470&#45;&gt;p0x112fa10 -->
<g id="edge4" class="edge">
<title>p0x112f470&#45;&gt;p0x112fa10</title>
<path fill="none" stroke="black" d="M411.24,-309.6C403.23,-307.59 394.88,-305.63 387,-304 286.11,-283.13 256.47,-298.3 158,-268 156.39,-267.5 154.76,-266.95 153.13,-266.35"/>
<polygon fill="black" stroke="black" points="154.51,-263.13 143.93,-262.51 151.81,-269.59 154.51,-263.13"/>
</g>
<!-- p0x112f380 -->
<g id="node6" class="node">
<title>p0x112f380</title>
<ellipse fill="none" stroke="black" cx="219" cy="-250" rx="52.38" ry="18"/>
<text text-anchor="middle" x="219" y="-244.95" font-family="Times,serif" font-size="14.00">allocate_sx</text>
</g>
<!-- p0x112f380&#45;&gt;p0x112fb00 -->
<g id="edge5" class="edge">
<title>p0x112f380&#45;&gt;p0x112fb00</title>
<path fill="none" stroke="black" d="M233.46,-232.41C240.72,-224.08 249.68,-213.8 257.79,-204.49"/>
<polygon fill="black" stroke="black" points="260.3,-206.94 264.23,-197.1 255.02,-202.34 260.3,-206.94"/>
</g>
<!-- p0x112fbf0 -->
<g id="node10" class="node">
<title>p0x112fbf0</title>
<ellipse fill="none" stroke="black" cx="280" cy="-106" rx="27" ry="18"/>
<text text-anchor="middle" x="280" y="-100.95" font-family="Times,serif" font-size="14.00">d2h</text>
</g>
<!-- p0x112fb00&#45;&gt;p0x112fbf0 -->
<g id="edge9" class="edge">
<title>p0x112fb00&#45;&gt;p0x112fbf0</title>
<path fill="none" stroke="black" d="M280,-159.7C280,-152.41 280,-143.73 280,-135.54"/>
<polygon fill="black" stroke="black" points="283.5,-135.62 280,-125.62 276.5,-135.62 283.5,-135.62"/>
</g>
<!-- p0x112f830 -->
<g id="node8" class="node">
<title>p0x112f830</title>
<ellipse fill="none" stroke="black" cx="342" cy="-250" rx="52.38" ry="18"/>
<text text-anchor="middle" x="342" y="-244.95" font-family="Times,serif" font-size="14.00">allocate_sy</text>
</g>
<!-- p0x112f830&#45;&gt;p0x112fb00 -->
<g id="edge6" class="edge">
<title>p0x112f830&#45;&gt;p0x112fb00</title>
<path fill="none" stroke="black" d="M327.31,-232.41C319.93,-224.08 310.82,-213.8 302.58,-204.49"/>
<polygon fill="black" stroke="black" points="305.27,-202.25 296.02,-197.09 300.03,-206.9 305.27,-202.25"/>
</g>
<!-- p0x112f920 -->
<g id="node9" class="node">
<title>p0x112f920</title>
<ellipse fill="none" stroke="black" cx="461" cy="-250" rx="48.28" ry="18"/>
<text text-anchor="middle" x="461" y="-244.95" font-family="Times,serif" font-size="14.00">allocate_c</text>
</g>
<!-- p0x112f920&#45;&gt;p0x112fb00 -->
<g id="edge7" class="edge">
<title>p0x112f920&#45;&gt;p0x112fb00</title>
<path fill="none" stroke="black" d="M428.22,-236.32C399.94,-225.39 358.75,-209.46 326.97,-197.16"/>
<polygon fill="black" stroke="black" points="328.58,-194.04 317.99,-193.69 326.06,-200.56 328.58,-194.04"/>
</g>
<!-- p0x112fce0 -->
<g id="node11" class="node">
<title>p0x112fce0</title>
<ellipse fill="none" stroke="black" cx="280" cy="-34" rx="27" ry="18"/>
<text text-anchor="middle" x="280" y="-28.95" font-family="Times,serif" font-size="14.00">free</text>
</g>
<!-- p0x112fbf0&#45;&gt;p0x112fce0 -->
<g id="edge10" class="edge">
<title>p0x112fbf0&#45;&gt;p0x112fce0</title>
<path fill="none" stroke="black" d="M280,-87.7C280,-80.41 280,-71.73 280,-63.54"/>
<polygon fill="black" stroke="black" points="283.5,-63.62 280,-53.62 276.5,-63.62 283.5,-63.62"/>
</g>
</g>
</svg>
