<?xml version="1.0" encoding="UTF-8" standalone="no"?>
<!DOCTYPE svg PUBLIC "-//W3C//DTD SVG 1.1//EN"
 "http://www.w3.org/Graphics/SVG/1.1/DTD/svg11.dtd">
<!-- Generated by graphviz version 12.2.1 (20241206.2353)
 -->
<!-- Title: Taskflow Pages: 1 -->
<svg width="877pt" height="194pt"
 viewBox="0.00 0.00 877.07 194.00" xmlns="http://www.w3.org/2000/svg" xmlns:xlink="http://www.w3.org/1999/xlink">
<g id="graph0" class="graph" transform="scale(1 1) rotate(0) translate(4 190)">
<title>Taskflow</title>
<polygon fill="white" stroke="none" points="-4,4 -4,-190 873.07,-190 873.07,4 -4,4"/>
<!-- p0x7fecbdc02830 -->
<g id="node1" class="node">
<title>p0x7fecbdc02830</title>
<ellipse fill="none" stroke="black" cx="27" cy="-96" rx="27" ry="18"/>
<text text-anchor="middle" x="27" y="-90.95" font-family="Times,serif" font-size="14.00">A</text>
</g>
<!-- p0x7fecbdc02940 -->
<g id="node2" class="node">
<title>p0x7fecbdc02940</title>
<ellipse fill="none" stroke="black" cx="118" cy="-124" rx="27" ry="18"/>
<text text-anchor="middle" x="118" y="-118.95" font-family="Times,serif" font-size="14.00">B</text>
</g>
<!-- p0x7fecbdc02830&#45;&gt;p0x7fecbdc02940 -->
<g id="edge1" class="edge">
<title>p0x7fecbdc02830&#45;&gt;p0x7fecbdc02940</title>
<path fill="none" stroke="black" d="M51.85,-103.5C61.23,-106.45 72.18,-109.9 82.39,-113.11"/>
<polygon fill="black" stroke="black" points="81.05,-116.36 91.64,-116.02 83.15,-109.68 81.05,-116.36"/>
</g>
<!-- p0x7fecbdc02d80 -->
<g id="node3" class="node">
<title>p0x7fecbdc02d80</title>
<ellipse fill="none" stroke="black" cx="118" cy="-70" rx="27" ry="18"/>
<text text-anchor="middle" x="118" y="-64.95" font-family="Times,serif" font-size="14.00">F</text>
</g>
<!-- p0x7fecbdc02830&#45;&gt;p0x7fecbdc02d80 -->
<g id="edge2" class="edge">
<title>p0x7fecbdc02830&#45;&gt;p0x7fecbdc02d80</title>
<path fill="none" stroke="black" d="M52.32,-88.9C61.44,-86.23 72,-83.14 81.91,-80.25"/>
<polygon fill="black" stroke="black" points="82.64,-83.68 91.26,-77.52 80.68,-76.97 82.64,-83.68"/>
</g>
<!-- p0x7fecbdc02a50 -->
<g id="node4" class="node">
<title>p0x7fecbdc02a50</title>
<ellipse fill="none" stroke="black" cx="235.8" cy="-168" rx="27" ry="18"/>
<text text-anchor="middle" x="235.8" y="-162.95" font-family="Times,serif" font-size="14.00">C</text>
</g>
<!-- p0x7fecbdc02940&#45;&gt;p0x7fecbdc02a50 -->
<g id="edge3" class="edge">
<title>p0x7fecbdc02940&#45;&gt;p0x7fecbdc02a50</title>
<path fill="none" stroke="black" d="M142.16,-132.8C159.04,-139.21 182.18,-148 201.11,-155.2"/>
<polygon fill="black" stroke="black" points="199.68,-158.4 210.27,-158.68 202.17,-151.86 199.68,-158.4"/>
</g>
<!-- p0x7fecbdc03600 -->
<g id="node9" class="node">
<title>p0x7fecbdc03600</title>
<polygon fill="aquamarine" stroke="black" points="235.8,-88 182,-70 235.8,-52 289.61,-70 235.8,-88"/>
<text text-anchor="middle" x="235.8" y="-64.95" font-family="Times,serif" font-size="14.00">cond_2</text>
</g>
<!-- p0x7fecbdc02d80&#45;&gt;p0x7fecbdc03600 -->
<g id="edge7" class="edge">
<title>p0x7fecbdc02d80&#45;&gt;p0x7fecbdc03600</title>
<path fill="none" stroke="black" d="M145.28,-70C152.61,-70 160.92,-70 169.44,-70"/>
<polygon fill="black" stroke="black" points="169.2,-73.5 179.2,-70 169.2,-66.5 169.2,-73.5"/>
</g>
<!-- p0x7fecbdc02b60 -->
<g id="node5" class="node">
<title>p0x7fecbdc02b60</title>
<ellipse fill="none" stroke="black" cx="359.36" cy="-168" rx="27" ry="18"/>
<text text-anchor="middle" x="359.36" y="-162.95" font-family="Times,serif" font-size="14.00">D</text>
</g>
<!-- p0x7fecbdc02a50&#45;&gt;p0x7fecbdc02b60 -->
<g id="edge4" class="edge">
<title>p0x7fecbdc02a50&#45;&gt;p0x7fecbdc02b60</title>
<path fill="none" stroke="black" d="M263.18,-168C279.98,-168 302.02,-168 320.66,-168"/>
<polygon fill="black" stroke="black" points="320.52,-171.5 330.52,-168 320.52,-164.5 320.52,-171.5"/>
</g>
<!-- p0x7fecbdc034f0 -->
<g id="node6" class="node">
<title>p0x7fecbdc034f0</title>
<polygon fill="aquamarine" stroke="black" points="477.16,-157 423.36,-139 477.16,-121 530.96,-139 477.16,-157"/>
<text text-anchor="middle" x="477.16" y="-133.95" font-family="Times,serif" font-size="14.00">cond_1</text>
</g>
<!-- p0x7fecbdc02b60&#45;&gt;p0x7fecbdc034f0 -->
<g id="edge5" class="edge">
<title>p0x7fecbdc02b60&#45;&gt;p0x7fecbdc034f0</title>
<path fill="none" stroke="black" d="M385.2,-161.78C399.45,-158.21 417.73,-153.63 434.16,-149.52"/>
<polygon fill="black" stroke="black" points="434.84,-152.96 443.69,-147.13 433.14,-146.16 434.84,-152.96"/>
</g>
<!-- p0x7fecbdc034f0&#45;&gt;p0x7fecbdc02940 -->
<g id="edge11" class="edge">
<title>p0x7fecbdc034f0&#45;&gt;p0x7fecbdc02940</title>
<path fill="none" stroke="black" stroke-dasharray="5,2" d="M427.98,-136.98C356.01,-133.95 221.89,-128.32 156.62,-125.58"/>
<polygon fill="black" stroke="black" points="156.91,-122.09 146.77,-125.17 156.62,-129.08 156.91,-122.09"/>
<text text-anchor="middle" x="310.98" y="-135.39" font-family="Times,serif" font-size="14.00">0</text>
</g>
<!-- p0x7fecbdc02c70 -->
<g id="node7" class="node">
<title>p0x7fecbdc02c70</title>
<ellipse fill="none" stroke="black" cx="627.51" cy="-139" rx="27" ry="18"/>
<text text-anchor="middle" x="627.51" y="-133.95" font-family="Times,serif" font-size="14.00">E</text>
</g>
<!-- p0x7fecbdc034f0&#45;&gt;p0x7fecbdc02c70 -->
<g id="edge12" class="edge">
<title>p0x7fecbdc034f0&#45;&gt;p0x7fecbdc02c70</title>
<path fill="none" stroke="black" stroke-dasharray="5,2" d="M532.14,-139C550.99,-139 571.72,-139 588.94,-139"/>
<polygon fill="black" stroke="black" points="588.72,-142.5 598.72,-139 588.72,-135.5 588.72,-142.5"/>
<text text-anchor="middle" x="552.34" y="-142.2" font-family="Times,serif" font-size="14.00">1</text>
</g>
<!-- p0x7fecbdc031c0 -->
<g id="node8" class="node">
<title>p0x7fecbdc031c0</title>
<ellipse fill="none" stroke="black" cx="751.07" cy="-139" rx="27" ry="18"/>
<text text-anchor="middle" x="751.07" y="-133.95" font-family="Times,serif" font-size="14.00">K</text>
</g>
<!-- p0x7fecbdc02c70&#45;&gt;p0x7fecbdc031c0 -->
<g id="edge6" class="edge">
<title>p0x7fecbdc02c70&#45;&gt;p0x7fecbdc031c0</title>
<path fill="none" stroke="black" d="M654.89,-139C671.69,-139 693.73,-139 712.37,-139"/>
<polygon fill="black" stroke="black" points="712.23,-142.5 722.23,-139 712.23,-135.5 712.23,-142.5"/>
</g>
<!-- p0x7fecbdc02e90 -->
<g id="node10" class="node">
<title>p0x7fecbdc02e90</title>
<ellipse fill="none" stroke="black" cx="359.36" cy="-72" rx="27" ry="18"/>
<text text-anchor="middle" x="359.36" y="-66.95" font-family="Times,serif" font-size="14.00">G</text>
</g>
<!-- p0x7fecbdc03600&#45;&gt;p0x7fecbdc02e90 -->
<g id="edge13" class="edge">
<title>p0x7fecbdc03600&#45;&gt;p0x7fecbdc02e90</title>
<path fill="none" stroke="black" stroke-dasharray="5,2" d="M288.35,-70.85C299.14,-71.03 310.33,-71.21 320.51,-71.38"/>
<polygon fill="black" stroke="black" points="320.35,-74.87 330.4,-71.54 320.46,-67.88 320.35,-74.87"/>
<text text-anchor="middle" x="310.98" y="-74.44" font-family="Times,serif" font-size="14.00">0</text>
</g>
<!-- p0x7fecbdc02fa0 -->
<g id="node11" class="node">
<title>p0x7fecbdc02fa0</title>
<ellipse fill="none" stroke="black" cx="359.36" cy="-18" rx="27" ry="18"/>
<text text-anchor="middle" x="359.36" y="-12.95" font-family="Times,serif" font-size="14.00">H</text>
</g>
<!-- p0x7fecbdc03600&#45;&gt;p0x7fecbdc02fa0 -->
<g id="edge14" class="edge">
<title>p0x7fecbdc03600&#45;&gt;p0x7fecbdc02fa0</title>
<path fill="none" stroke="black" stroke-dasharray="5,2" d="M260.53,-59.85C279.03,-51.93 304.95,-40.85 325.46,-32.07"/>
<polygon fill="black" stroke="black" points="326.71,-35.34 334.53,-28.19 323.96,-28.91 326.71,-35.34"/>
<text text-anchor="middle" x="310.98" y="-42.54" font-family="Times,serif" font-size="14.00">1</text>
</g>
<!-- p0x7fecbdc030b0 -->
<g id="node12" class="node">
<title>p0x7fecbdc030b0</title>
<ellipse fill="none" stroke="black" cx="477.16" cy="-18" rx="27" ry="18"/>
<text text-anchor="middle" x="477.16" y="-12.95" font-family="Times,serif" font-size="14.00">I</text>
</g>
<!-- p0x7fecbdc02fa0&#45;&gt;p0x7fecbdc030b0 -->
<g id="edge8" class="edge">
<title>p0x7fecbdc02fa0&#45;&gt;p0x7fecbdc030b0</title>
<path fill="none" stroke="black" d="M386.63,-18C402.03,-18 421.73,-18 438.73,-18"/>
<polygon fill="black" stroke="black" points="438.47,-21.5 448.47,-18 438.47,-14.5 438.47,-21.5"/>
</g>
<!-- p0x7fecbdc03710 -->
<g id="node13" class="node">
<title>p0x7fecbdc03710</title>
<polygon fill="aquamarine" stroke="black" points="627.51,-36 573.71,-18 627.51,0 681.32,-18 627.51,-36"/>
<text text-anchor="middle" x="627.51" y="-12.95" font-family="Times,serif" font-size="14.00">cond_3</text>
</g>
<!-- p0x7fecbdc030b0&#45;&gt;p0x7fecbdc03710 -->
<g id="edge9" class="edge">
<title>p0x7fecbdc030b0&#45;&gt;p0x7fecbdc03710</title>
<path fill="none" stroke="black" d="M504.34,-18C520.13,-18 541,-18 561.02,-18"/>
<polygon fill="black" stroke="black" points="560.82,-21.5 570.82,-18 560.82,-14.5 560.82,-21.5"/>
</g>
<!-- p0x7fecbdc03710&#45;&gt;p0x7fecbdc03710 -->
<g id="edge15" class="edge">
<title>p0x7fecbdc03710&#45;&gt;p0x7fecbdc03710</title>
<path fill="none" stroke="black" stroke-dasharray="5,2" d="M615.24,-32.04C610.65,-42.91 614.74,-54 627.51,-54 635.7,-54 640.32,-49.45 641.38,-43.32"/>
<polygon fill="black" stroke="black" points="644.86,-42.96 640,-33.54 637.93,-43.93 644.86,-42.96"/>
<text text-anchor="middle" x="627.51" y="-57.2" font-family="Times,serif" font-size="14.00">0</text>
</g>
<!-- p0x7fecbdc032d0 -->
<g id="node14" class="node">
<title>p0x7fecbdc032d0</title>
<ellipse fill="none" stroke="black" cx="751.07" cy="-18" rx="27" ry="18"/>
<text text-anchor="middle" x="751.07" y="-12.95" font-family="Times,serif" font-size="14.00">L</text>
</g>
<!-- p0x7fecbdc03710&#45;&gt;p0x7fecbdc032d0 -->
<g id="edge16" class="edge">
<title>p0x7fecbdc03710&#45;&gt;p0x7fecbdc032d0</title>
<path fill="none" stroke="black" stroke-dasharray="5,2" d="M682.89,-18C692.85,-18 703.03,-18 712.37,-18"/>
<polygon fill="black" stroke="black" points="712.14,-21.5 722.14,-18 712.14,-14.5 712.14,-21.5"/>
<text text-anchor="middle" x="702.69" y="-21.2" font-family="Times,serif" font-size="14.00">1</text>
</g>
<!-- p0x7fecbdc033e0 -->
<g id="node15" class="node">
<title>p0x7fecbdc033e0</title>
<ellipse fill="none" stroke="black" cx="842.07" cy="-18" rx="27" ry="18"/>
<text text-anchor="middle" x="842.07" y="-12.95" font-family="Times,serif" font-size="14.00">M</text>
</g>
<!-- p0x7fecbdc032d0&#45;&gt;p0x7fecbdc033e0 -->
<g id="edge10" class="edge">
<title>p0x7fecbdc032d0&#45;&gt;p0x7fecbdc033e0</title>
<path fill="none" stroke="black" d="M778.29,-18C786.19,-18 795.01,-18 803.49,-18"/>
<polygon fill="black" stroke="black" points="803.21,-21.5 813.21,-18 803.21,-14.5 803.21,-21.5"/>
</g>
</g>
</svg>
