<?xml version="1.0" encoding="UTF-8" standalone="no"?>
<!DOCTYPE svg PUBLIC "-//W3C//DTD SVG 1.1//EN"
 "http://www.w3.org/Graphics/SVG/1.1/DTD/svg11.dtd">
<!-- Generated by graphviz version 12.2.1 (20241206.2353)
 -->
<!-- Title: Taskflow Pages: 1 -->
<svg width="459pt" height="152pt"
 viewBox="0.00 0.00 459.20 152.00" xmlns="http://www.w3.org/2000/svg" xmlns:xlink="http://www.w3.org/1999/xlink">
<g id="graph0" class="graph" transform="scale(1 1) rotate(0) translate(4 148)">
<title>Taskflow</title>
<polygon fill="white" stroke="none" points="-4,4 -4,-148 455.2,-148 455.2,4 -4,4"/>
<!-- p0x7fa25f000030 -->
<g id="node1" class="node">
<title>p0x7fa25f000030</title>
<ellipse fill="none" stroke="black" cx="34.97" cy="-72" rx="34.97" ry="18"/>
<text text-anchor="middle" x="34.97" y="-66.95" font-family="Times,serif" font-size="14.00">source</text>
</g>
<!-- p0x7fa25f000140 -->
<g id="node2" class="node">
<title>p0x7fa25f000140</title>
<polygon fill="aquamarine" stroke="black" points="156.41,-90 106.95,-72 156.41,-54 205.87,-72 156.41,-90"/>
<text text-anchor="middle" x="156.41" y="-66.95" font-family="Times,serif" font-size="14.00">switch</text>
</g>
<!-- p0x7fa25f000030&#45;&gt;p0x7fa25f000140 -->
<g id="edge1" class="edge">
<title>p0x7fa25f000030&#45;&gt;p0x7fa25f000140</title>
<path fill="none" stroke="black" d="M70.2,-72C77.78,-72 86.04,-72 94.33,-72"/>
<polygon fill="black" stroke="black" points="94.09,-75.5 104.09,-72 94.09,-68.5 94.09,-75.5"/>
</g>
<!-- p0x7fa25f000250 -->
<g id="node3" class="node">
<title>p0x7fa25f000250</title>
<polygon fill="aquamarine" stroke="black" points="296.63,-144 248.62,-126 296.63,-108 344.64,-126 296.63,-144"/>
<text text-anchor="middle" x="296.63" y="-120.95" font-family="Times,serif" font-size="14.00">case 1</text>
</g>
<!-- p0x7fa25f000140&#45;&gt;p0x7fa25f000250 -->
<g id="edge2" class="edge">
<title>p0x7fa25f000140&#45;&gt;p0x7fa25f000250</title>
<path fill="none" stroke="black" stroke-dasharray="5,2" d="M181.17,-81.28C203.36,-89.95 236.71,-102.98 261.7,-112.74"/>
<polygon fill="black" stroke="black" points="260.18,-115.91 270.77,-116.29 262.73,-109.39 260.18,-115.91"/>
<text text-anchor="middle" x="227.24" y="-102.2" font-family="Times,serif" font-size="14.00">0</text>
</g>
<!-- p0x7fa25f000360 -->
<g id="node4" class="node">
<title>p0x7fa25f000360</title>
<polygon fill="aquamarine" stroke="black" points="296.63,-90 248.62,-72 296.63,-54 344.64,-72 296.63,-90"/>
<text text-anchor="middle" x="296.63" y="-66.95" font-family="Times,serif" font-size="14.00">case 2</text>
</g>
<!-- p0x7fa25f000140&#45;&gt;p0x7fa25f000360 -->
<g id="edge3" class="edge">
<title>p0x7fa25f000140&#45;&gt;p0x7fa25f000360</title>
<path fill="none" stroke="black" stroke-dasharray="5,2" d="M207.31,-72C216.76,-72 226.73,-72 236.43,-72"/>
<polygon fill="black" stroke="black" points="236.14,-75.5 246.14,-72 236.14,-68.5 236.14,-75.5"/>
<text text-anchor="middle" x="227.24" y="-75.2" font-family="Times,serif" font-size="14.00">1</text>
</g>
<!-- p0x7fa25f000470 -->
<g id="node5" class="node">
<title>p0x7fa25f000470</title>
<polygon fill="aquamarine" stroke="black" points="296.63,-36 248.62,-18 296.63,0 344.64,-18 296.63,-36"/>
<text text-anchor="middle" x="296.63" y="-12.95" font-family="Times,serif" font-size="14.00">case 3</text>
</g>
<!-- p0x7fa25f000140&#45;&gt;p0x7fa25f000470 -->
<g id="edge4" class="edge">
<title>p0x7fa25f000140&#45;&gt;p0x7fa25f000470</title>
<path fill="none" stroke="black" stroke-dasharray="5,2" d="M181.17,-62.72C203.36,-54.05 236.71,-41.02 261.7,-31.26"/>
<polygon fill="black" stroke="black" points="262.73,-34.61 270.77,-27.71 260.18,-28.09 262.73,-34.61"/>
<text text-anchor="middle" x="227.24" y="-48.2" font-family="Times,serif" font-size="14.00">2</text>
</g>
<!-- p0x7fa25f000580 -->
<g id="node6" class="node">
<title>p0x7fa25f000580</title>
<ellipse fill="none" stroke="black" cx="419.29" cy="-72" rx="31.9" ry="18"/>
<text text-anchor="middle" x="419.29" y="-66.95" font-family="Times,serif" font-size="14.00">target</text>
</g>
<!-- p0x7fa25f000250&#45;&gt;p0x7fa25f000580 -->
<g id="edge5" class="edge">
<title>p0x7fa25f000250&#45;&gt;p0x7fa25f000580</title>
<path fill="none" stroke="black" stroke-dasharray="5,2" d="M319.48,-116.22C337.29,-108.25 362.79,-96.84 383.42,-87.61"/>
<polygon fill="black" stroke="black" points="384.62,-90.91 392.32,-83.63 381.76,-84.52 384.62,-90.91"/>
<text text-anchor="middle" x="366.02" y="-98.97" font-family="Times,serif" font-size="14.00">0</text>
</g>
<!-- p0x7fa25f000360&#45;&gt;p0x7fa25f000580 -->
<g id="edge6" class="edge">
<title>p0x7fa25f000360&#45;&gt;p0x7fa25f000580</title>
<path fill="none" stroke="black" stroke-dasharray="5,2" d="M346.01,-72C355.9,-72 366.22,-72 375.88,-72"/>
<polygon fill="black" stroke="black" points="375.73,-75.5 385.73,-72 375.73,-68.5 375.73,-75.5"/>
<text text-anchor="middle" x="366.02" y="-75.2" font-family="Times,serif" font-size="14.00">0</text>
</g>
<!-- p0x7fa25f000470&#45;&gt;p0x7fa25f000580 -->
<g id="edge7" class="edge">
<title>p0x7fa25f000470&#45;&gt;p0x7fa25f000580</title>
<path fill="none" stroke="black" stroke-dasharray="5,2" d="M319.48,-27.78C337.29,-35.75 362.79,-47.16 383.42,-56.39"/>
<polygon fill="black" stroke="black" points="381.76,-59.48 392.32,-60.37 384.62,-53.09 381.76,-59.48"/>
<text text-anchor="middle" x="366.02" y="-53.04" font-family="Times,serif" font-size="14.00">0</text>
</g>
</g>
</svg>
