<?xml version="1.0" encoding="UTF-8" standalone="no"?>
<!DOCTYPE svg PUBLIC "-//W3C//DTD SVG 1.1//EN"
 "http://www.w3.org/Graphics/SVG/1.1/DTD/svg11.dtd">
<!-- Generated by graphviz version 12.2.1 (20241206.2353)
 -->
<!-- Title: PERTCriticalPath Pages: 1 -->
<svg width="800pt" height="180pt"
 viewBox="0.00 0.00 799.65 179.57" xmlns="http://www.w3.org/2000/svg" xmlns:xlink="http://www.w3.org/1999/xlink">
<g id="graph0" class="graph" transform="scale(1 1) rotate(0) translate(4 175.57)">
<title>PERTCriticalPath</title>
<polygon fill="white" stroke="none" points="-4,4 -4,-175.57 795.65,-175.57 795.65,4 -4,4"/>
<!-- A -->
<g id="node1" class="node">
<title>A</title>
<polygon fill="#fde8d0" stroke="crimson" stroke-width="2.5" points="86.4,-137.57 0,-137.57 0,-110.88 86.4,-110.88 86.4,-137.57"/>
<text text-anchor="middle" x="43.2" y="-125.42" font-family="Helvetica,sans-Serif" font-size="9.00">A: Requirements</text>
<text text-anchor="middle" x="43.2" y="-115.67" font-family="Helvetica,sans-Serif" font-size="9.00">(3 d) &#160;ES=0 &#160;EF=3</text>
</g>
<!-- C -->
<g id="node2" class="node">
<title>C</title>
<polygon fill="#fde8d0" stroke="crimson" stroke-width="2.5" points="222.8,-171.57 136.4,-171.57 136.4,-144.88 222.8,-144.88 222.8,-171.57"/>
<text text-anchor="middle" x="179.6" y="-159.42" font-family="Helvetica,sans-Serif" font-size="9.00">C: UI Mockups</text>
<text text-anchor="middle" x="179.6" y="-149.67" font-family="Helvetica,sans-Serif" font-size="9.00">(2 d) &#160;ES=3 &#160;EF=5</text>
</g>
<!-- A&#45;&gt;C -->
<g id="edge1" class="edge">
<title>A&#45;&gt;C</title>
<path fill="none" stroke="crimson" stroke-width="2.2" d="M87.09,-135.08C99.7,-138.27 113.63,-141.79 126.74,-145.1"/>
<polygon fill="crimson" stroke="crimson" stroke-width="2.2" points="126.09,-147.11 132.42,-146.54 127.12,-143.04 126.09,-147.11"/>
</g>
<!-- B -->
<g id="node7" class="node">
<title>B</title>
<polygon fill="#e8e8e8" stroke="#888888" points="222.8,-108.45 136.4,-108.45 136.4,-72 222.8,-72 222.8,-108.45"/>
<text text-anchor="middle" x="179.6" y="-96.3" font-family="Helvetica,sans-Serif" font-size="9.00">B: Architecture</text>
<text text-anchor="middle" x="179.6" y="-86.55" font-family="Helvetica,sans-Serif" font-size="9.00">(2 d) &#160;ES=3 &#160;EF=5</text>
<text text-anchor="middle" x="179.6" y="-76.8" font-family="Helvetica,sans-Serif" font-size="9.00"> &#160;slack=1</text>
</g>
<!-- A&#45;&gt;B -->
<g id="edge6" class="edge">
<title>A&#45;&gt;B</title>
<path fill="none" stroke="#aaaaaa" d="M87.09,-113.37C100.44,-110 115.26,-106.25 129.03,-102.77"/>
<polygon fill="#aaaaaa" stroke="#aaaaaa" points="129.34,-104.85 134.65,-101.34 128.31,-100.78 129.34,-104.85"/>
</g>
<!-- E -->
<g id="node3" class="node">
<title>E</title>
<polygon fill="#fde8d0" stroke="crimson" stroke-width="2.5" points="359.2,-171.57 272.8,-171.57 272.8,-144.88 359.2,-144.88 359.2,-171.57"/>
<text text-anchor="middle" x="316" y="-159.42" font-family="Helvetica,sans-Serif" font-size="9.00">E: Frontend</text>
<text text-anchor="middle" x="316" y="-149.67" font-family="Helvetica,sans-Serif" font-size="9.00">(4 d) &#160;ES=5 &#160;EF=9</text>
</g>
<!-- C&#45;&gt;E -->
<g id="edge2" class="edge">
<title>C&#45;&gt;E</title>
<path fill="none" stroke="crimson" stroke-width="2.2" d="M223.49,-158.22C235.98,-158.22 249.76,-158.22 262.76,-158.22"/>
<polygon fill="crimson" stroke="crimson" stroke-width="2.2" points="262.72,-160.33 268.72,-158.23 262.72,-156.13 262.72,-160.33"/>
</g>
<!-- G -->
<g id="node4" class="node">
<title>G</title>
<polygon fill="#fde8d0" stroke="crimson" stroke-width="2.5" points="499.35,-103.57 409.2,-103.57 409.2,-76.88 499.35,-76.88 499.35,-103.57"/>
<text text-anchor="middle" x="454.27" y="-91.42" font-family="Helvetica,sans-Serif" font-size="9.00">G: Integration</text>
<text text-anchor="middle" x="454.27" y="-81.67" font-family="Helvetica,sans-Serif" font-size="9.00">(2 d) &#160;ES=9 &#160;EF=11</text>
</g>
<!-- E&#45;&gt;G -->
<g id="edge3" class="edge">
<title>E&#45;&gt;G</title>
<path fill="none" stroke="crimson" stroke-width="2.2" d="M345.57,-143.97C366.19,-133.68 394.22,-119.7 416.51,-108.57"/>
<polygon fill="crimson" stroke="crimson" stroke-width="2.2" points="417.33,-110.51 421.77,-105.95 415.46,-106.75 417.33,-110.51"/>
</g>
<!-- H -->
<g id="node5" class="node">
<title>H</title>
<polygon fill="#fde8d0" stroke="crimson" stroke-width="2.5" points="644.75,-103.57 549.35,-103.57 549.35,-76.88 644.75,-76.88 644.75,-103.57"/>
<text text-anchor="middle" x="597.05" y="-91.42" font-family="Helvetica,sans-Serif" font-size="9.00">H: QA Testing</text>
<text text-anchor="middle" x="597.05" y="-81.67" font-family="Helvetica,sans-Serif" font-size="9.00">(3 d) &#160;ES=11 &#160;EF=14</text>
</g>
<!-- G&#45;&gt;H -->
<g id="edge4" class="edge">
<title>G&#45;&gt;H</title>
<path fill="none" stroke="crimson" stroke-width="2.2" d="M500.2,-90.22C512.76,-90.22 526.56,-90.22 539.68,-90.22"/>
<polygon fill="crimson" stroke="crimson" stroke-width="2.2" points="539.31,-92.33 545.31,-90.23 539.31,-88.13 539.31,-92.33"/>
</g>
<!-- I -->
<g id="node6" class="node">
<title>I</title>
<polygon fill="#f8d7da" stroke="crimson" stroke-width="2.5" points="791.65,-103.57 694.75,-103.57 694.75,-76.88 791.65,-76.88 791.65,-103.57"/>
<text text-anchor="middle" x="743.2" y="-91.42" font-family="Helvetica,sans-Serif" font-size="9.00">I: Deployment</text>
<text text-anchor="middle" x="743.2" y="-81.67" font-family="Helvetica,sans-Serif" font-size="9.00">(1 d) &#160;ES=14 &#160;EF=15</text>
</g>
<!-- H&#45;&gt;I -->
<g id="edge5" class="edge">
<title>H&#45;&gt;I</title>
<path fill="none" stroke="crimson" stroke-width="2.2" d="M645.65,-90.22C658.19,-90.22 671.85,-90.22 684.84,-90.22"/>
<polygon fill="crimson" stroke="crimson" stroke-width="2.2" points="684.83,-92.33 690.83,-90.23 684.83,-88.13 684.83,-92.33"/>
</g>
<!-- D -->
<g id="node8" class="node">
<title>D</title>
<polygon fill="#e8e8e8" stroke="#888888" points="359.2,-108.45 272.8,-108.45 272.8,-72 359.2,-72 359.2,-108.45"/>
<text text-anchor="middle" x="316" y="-96.3" font-family="Helvetica,sans-Serif" font-size="9.00">D: Backend API</text>
<text text-anchor="middle" x="316" y="-86.55" font-family="Helvetica,sans-Serif" font-size="9.00">(3 d) &#160;ES=5 &#160;EF=8</text>
<text text-anchor="middle" x="316" y="-76.8" font-family="Helvetica,sans-Serif" font-size="9.00"> &#160;slack=1</text>
</g>
<!-- B&#45;&gt;D -->
<g id="edge7" class="edge">
<title>B&#45;&gt;D</title>
<path fill="none" stroke="#aaaaaa" d="M223.12,-90.22C236.62,-90.22 251.65,-90.22 265.58,-90.22"/>
<polygon fill="#aaaaaa" stroke="#aaaaaa" points="265.24,-92.33 271.24,-90.23 265.24,-88.13 265.24,-92.33"/>
</g>
<!-- F -->
<g id="node9" class="node">
<title>F</title>
<polygon fill="#e8e8e8" stroke="#888888" points="359.2,-36.45 272.8,-36.45 272.8,0 359.2,0 359.2,-36.45"/>
<text text-anchor="middle" x="316" y="-24.3" font-family="Helvetica,sans-Serif" font-size="9.00">F: Database</text>
<text text-anchor="middle" x="316" y="-14.55" font-family="Helvetica,sans-Serif" font-size="9.00">(2 d) &#160;ES=5 &#160;EF=7</text>
<text text-anchor="middle" x="316" y="-4.8" font-family="Helvetica,sans-Serif" font-size="9.00"> &#160;slack=2</text>
</g>
<!-- B&#45;&gt;F -->
<g id="edge8" class="edge">
<title>B&#45;&gt;F</title>
<path fill="none" stroke="#aaaaaa" d="M215.21,-71.68C233.24,-62.03 255.4,-50.16 274.25,-40.06"/>
<polygon fill="#aaaaaa" stroke="#aaaaaa" points="274.87,-42.1 279.17,-37.42 272.89,-38.4 274.87,-42.1"/>
</g>
<!-- D&#45;&gt;G -->
<g id="edge9" class="edge">
<title>D&#45;&gt;G</title>
<path fill="none" stroke="#aaaaaa" d="M359.37,-90.22C372.68,-90.22 387.52,-90.22 401.41,-90.22"/>
<polygon fill="#aaaaaa" stroke="#aaaaaa" points="401.06,-92.33 407.06,-90.23 401.06,-88.13 401.06,-92.33"/>
</g>
<!-- F&#45;&gt;G -->
<g id="edge10" class="edge">
<title>F&#45;&gt;G</title>
<path fill="none" stroke="#aaaaaa" d="M352.09,-36.77C373.02,-47.82 399.42,-61.77 420.01,-72.65"/>
<polygon fill="#aaaaaa" stroke="#aaaaaa" points="418.85,-74.41 425.14,-75.36 420.81,-70.7 418.85,-74.41"/>
</g>
</g>
</svg>
