<?xml version="1.0" encoding="UTF-8" standalone="no"?>
<!DOCTYPE svg PUBLIC "-//W3C//DTD SVG 1.1//EN"
 "http://www.w3.org/Graphics/SVG/1.1/DTD/svg11.dtd">
<!-- Generated by graphviz version 2.43.0 (0)
 -->
<!-- Title: Taskflow Pages: 1 -->
<svg width="383pt" height="188pt"
 viewBox="0.00 0.00 383.44 188.00" xmlns="http://www.w3.org/2000/svg" xmlns:xlink="http://www.w3.org/1999/xlink">
<g id="graph0" class="graph" transform="scale(1 1) rotate(0) translate(4 184)">
<title>Taskflow</title>
<polygon fill="white" stroke="transparent" points="-4,4 -4,-184 379.44,-184 379.44,4 -4,4"/>
<!-- p0x55d923794f10 -->
<g id="node1" class="node">
<title>p0x55d923794f10</title>
<ellipse fill="none" stroke="black" cx="56.54" cy="-162" rx="56.59" ry="18"/>
<text text-anchor="middle" x="56.54" y="-158.3" font-family="Times,serif" font-size="14.00">allocate_a</text>
</g>
<!-- p0x55d923795240 -->
<g id="node2" class="node">
<title>p0x55d923795240</title>
<polygon fill="cyan" stroke="black" points="231.04,-108 228.04,-112 207.04,-112 204.04,-108 146.04,-108 146.04,-72 231.04,-72 231.04,-108"/>
<text text-anchor="middle" x="188.54" y="-86.3" font-family="Times,serif" font-size="14.00">cudaFlow</text>
</g>
<!-- p0x55d923794f10&#45;&gt;p0x55d923795240 -->
<g id="edge1" class="edge">
<title>p0x55d923794f10&#45;&gt;p0x55d923795240</title>
<path fill="none" stroke="black" d="M84.54,-146.15C102.78,-136.48 126.91,-123.69 147.33,-112.86"/>
<polygon fill="black" stroke="black" points="149.22,-115.82 156.41,-108.04 145.94,-109.63 149.22,-115.82"/>
</g>
<!-- p0x55d923795350 -->
<g id="node5" class="node">
<title>p0x55d923795350</title>
<ellipse fill="none" stroke="black" cx="188.54" cy="-18" rx="29.5" ry="18"/>
<text text-anchor="middle" x="188.54" y="-14.3" font-family="Times,serif" font-size="14.00">free</text>
</g>
<!-- p0x55d923795240&#45;&gt;p0x55d923795350 -->
<g id="edge4" class="edge">
<title>p0x55d923795240&#45;&gt;p0x55d923795350</title>
<path fill="none" stroke="black" d="M188.54,-71.7C188.54,-63.98 188.54,-54.71 188.54,-46.11"/>
<polygon fill="black" stroke="black" points="192.05,-46.1 188.54,-36.1 185.05,-46.1 192.05,-46.1"/>
</g>
<!-- p0x55d923795020 -->
<g id="node3" class="node">
<title>p0x55d923795020</title>
<ellipse fill="none" stroke="black" cx="188.54" cy="-162" rx="57.39" ry="18"/>
<text text-anchor="middle" x="188.54" y="-158.3" font-family="Times,serif" font-size="14.00">allocate_b</text>
</g>
<!-- p0x55d923795020&#45;&gt;p0x55d923795240 -->
<g id="edge2" class="edge">
<title>p0x55d923795020&#45;&gt;p0x55d923795240</title>
<path fill="none" stroke="black" d="M188.54,-143.7C188.54,-135.98 188.54,-126.71 188.54,-118.11"/>
<polygon fill="black" stroke="black" points="192.05,-118.1 188.54,-108.1 185.05,-118.1 192.05,-118.1"/>
</g>
<!-- p0x55d923795130 -->
<g id="node4" class="node">
<title>p0x55d923795130</title>
<ellipse fill="none" stroke="black" cx="319.54" cy="-162" rx="55.79" ry="18"/>
<text text-anchor="middle" x="319.54" y="-158.3" font-family="Times,serif" font-size="14.00">allocate_c</text>
</g>
<!-- p0x55d923795130&#45;&gt;p0x55d923795240 -->
<g id="edge3" class="edge">
<title>p0x55d923795130&#45;&gt;p0x55d923795240</title>
<path fill="none" stroke="black" d="M291.76,-146.15C273.66,-136.48 249.72,-123.69 229.45,-112.86"/>
<polygon fill="black" stroke="black" points="230.9,-109.67 220.43,-108.04 227.6,-115.84 230.9,-109.67"/>
</g>
</g>
</svg>
