<?xml version="1.0" encoding="UTF-8" standalone="no"?>
<!DOCTYPE svg PUBLIC "-//W3C//DTD SVG 1.1//EN"
 "http://www.w3.org/Graphics/SVG/1.1/DTD/svg11.dtd">
<!-- Generated by graphviz version 12.2.1 (20241206.2353)
 -->
<!-- Title: R Pages: 1 -->
<svg width="437pt" height="188pt"
 viewBox="0.00 0.00 436.75 188.00" xmlns="http://www.w3.org/2000/svg" xmlns:xlink="http://www.w3.org/1999/xlink">
<g id="graph0" class="graph" transform="scale(1 1) rotate(0) translate(4 184)">
<title>R</title>
<polygon fill="white" stroke="none" points="-4,4 -4,-184 432.75,-184 432.75,4 -4,4"/>
<!-- f1_A -->
<g id="node1" class="node">
<title>f1_A</title>
<polygon fill="none" stroke="black" points="130.75,-180 0,-180 0,-144 130.75,-144 130.75,-180"/>
<text text-anchor="middle" x="65.38" y="-156.95" font-family="Times,serif" font-size="14.00">taskflow1 on token 1</text>
</g>
<!-- f1_B -->
<g id="node2" class="node">
<title>f1_B</title>
<polygon fill="none" stroke="black" points="279.75,-180 149,-180 149,-144 279.75,-144 279.75,-180"/>
<text text-anchor="middle" x="214.38" y="-156.95" font-family="Times,serif" font-size="14.00">taskflow2 on token 1</text>
</g>
<!-- f1_A&#45;&gt;f1_B -->
<g id="edge7" class="edge">
<title>f1_A&#45;&gt;f1_B</title>
<path fill="none" stroke="black" d="M131.14,-162C133.25,-162 135.35,-162 137.45,-162"/>
<polygon fill="black" stroke="black" points="137.19,-165.5 147.19,-162 137.19,-158.5 137.19,-165.5"/>
</g>
<!-- f2_A -->
<g id="node4" class="node">
<title>f2_A</title>
<polygon fill="none" stroke="black" points="130.75,-108 0,-108 0,-72 130.75,-72 130.75,-108"/>
<text text-anchor="middle" x="65.38" y="-84.95" font-family="Times,serif" font-size="14.00">taskflow1 on token 2</text>
</g>
<!-- f1_A&#45;&gt;f2_A -->
<g id="edge1" class="edge">
<title>f1_A&#45;&gt;f2_A</title>
<path fill="none" stroke="black" d="M65.38,-143.7C65.38,-136.41 65.38,-127.73 65.38,-119.54"/>
<polygon fill="black" stroke="black" points="68.88,-119.62 65.38,-109.62 61.88,-119.62 68.88,-119.62"/>
</g>
<!-- f1_C -->
<g id="node3" class="node">
<title>f1_C</title>
<polygon fill="none" stroke="black" points="428.75,-180 298,-180 298,-144 428.75,-144 428.75,-180"/>
<text text-anchor="middle" x="363.38" y="-156.95" font-family="Times,serif" font-size="14.00">taskflow3 on token 1</text>
</g>
<!-- f1_B&#45;&gt;f1_C -->
<g id="edge8" class="edge">
<title>f1_B&#45;&gt;f1_C</title>
<path fill="none" stroke="black" d="M280.14,-162C282.25,-162 284.35,-162 286.45,-162"/>
<polygon fill="black" stroke="black" points="286.19,-165.5 296.19,-162 286.19,-158.5 286.19,-165.5"/>
</g>
<!-- f2_B -->
<g id="node5" class="node">
<title>f2_B</title>
<polygon fill="none" stroke="black" points="279.75,-108 149,-108 149,-72 279.75,-72 279.75,-108"/>
<text text-anchor="middle" x="214.38" y="-84.95" font-family="Times,serif" font-size="14.00">taskflow2 on token 2</text>
</g>
<!-- f1_B&#45;&gt;f2_B -->
<g id="edge3" class="edge">
<title>f1_B&#45;&gt;f2_B</title>
<path fill="none" stroke="black" d="M214.38,-143.7C214.38,-136.41 214.38,-127.73 214.38,-119.54"/>
<polygon fill="black" stroke="black" points="217.88,-119.62 214.38,-109.62 210.88,-119.62 217.88,-119.62"/>
</g>
<!-- f2_C -->
<g id="node6" class="node">
<title>f2_C</title>
<polygon fill="none" stroke="black" points="428.75,-108 298,-108 298,-72 428.75,-72 428.75,-108"/>
<text text-anchor="middle" x="363.38" y="-84.95" font-family="Times,serif" font-size="14.00">taskflow3 on token 2</text>
</g>
<!-- f1_C&#45;&gt;f2_C -->
<g id="edge5" class="edge">
<title>f1_C&#45;&gt;f2_C</title>
<path fill="none" stroke="black" d="M363.38,-143.7C363.38,-136.41 363.38,-127.73 363.38,-119.54"/>
<polygon fill="black" stroke="black" points="366.88,-119.62 363.38,-109.62 359.88,-119.62 366.88,-119.62"/>
</g>
<!-- f2_A&#45;&gt;f2_B -->
<g id="edge9" class="edge">
<title>f2_A&#45;&gt;f2_B</title>
<path fill="none" stroke="black" d="M131.14,-90C133.25,-90 135.35,-90 137.45,-90"/>
<polygon fill="black" stroke="black" points="137.19,-93.5 147.19,-90 137.19,-86.5 137.19,-93.5"/>
</g>
<!-- f3_A -->
<g id="node7" class="node">
<title>f3_A</title>
<polygon fill="none" stroke="black" points="130.75,-36 0,-36 0,0 130.75,0 130.75,-36"/>
<text text-anchor="middle" x="65.38" y="-12.95" font-family="Times,serif" font-size="14.00">taskflow1 on token 3</text>
</g>
<!-- f2_A&#45;&gt;f3_A -->
<g id="edge2" class="edge">
<title>f2_A&#45;&gt;f3_A</title>
<path fill="none" stroke="black" d="M65.38,-71.7C65.38,-64.41 65.38,-55.73 65.38,-47.54"/>
<polygon fill="black" stroke="black" points="68.88,-47.62 65.38,-37.62 61.88,-47.62 68.88,-47.62"/>
</g>
<!-- f2_B&#45;&gt;f2_C -->
<g id="edge10" class="edge">
<title>f2_B&#45;&gt;f2_C</title>
<path fill="none" stroke="black" d="M280.14,-90C282.25,-90 284.35,-90 286.45,-90"/>
<polygon fill="black" stroke="black" points="286.19,-93.5 296.19,-90 286.19,-86.5 286.19,-93.5"/>
</g>
<!-- f3_B -->
<g id="node8" class="node">
<title>f3_B</title>
<polygon fill="none" stroke="black" points="279.75,-36 149,-36 149,0 279.75,0 279.75,-36"/>
<text text-anchor="middle" x="214.38" y="-12.95" font-family="Times,serif" font-size="14.00">taskflow2 on token 3</text>
</g>
<!-- f2_B&#45;&gt;f3_B -->
<g id="edge4" class="edge">
<title>f2_B&#45;&gt;f3_B</title>
<path fill="none" stroke="black" d="M214.38,-71.7C214.38,-64.41 214.38,-55.73 214.38,-47.54"/>
<polygon fill="black" stroke="black" points="217.88,-47.62 214.38,-37.62 210.88,-47.62 217.88,-47.62"/>
</g>
<!-- f3_C -->
<g id="node9" class="node">
<title>f3_C</title>
<polygon fill="none" stroke="black" points="428.75,-36 298,-36 298,0 428.75,0 428.75,-36"/>
<text text-anchor="middle" x="363.38" y="-12.95" font-family="Times,serif" font-size="14.00">taskflow3 on token 3</text>
</g>
<!-- f2_C&#45;&gt;f3_C -->
<g id="edge6" class="edge">
<title>f2_C&#45;&gt;f3_C</title>
<path fill="none" stroke="black" d="M363.38,-71.7C363.38,-64.41 363.38,-55.73 363.38,-47.54"/>
<polygon fill="black" stroke="black" points="366.88,-47.62 363.38,-37.62 359.88,-47.62 366.88,-47.62"/>
</g>
<!-- f3_A&#45;&gt;f3_B -->
<g id="edge11" class="edge">
<title>f3_A&#45;&gt;f3_B</title>
<path fill="none" stroke="black" d="M131.14,-18C133.25,-18 135.35,-18 137.45,-18"/>
<polygon fill="black" stroke="black" points="137.19,-21.5 147.19,-18 137.19,-14.5 137.19,-21.5"/>
</g>
<!-- f3_B&#45;&gt;f3_C -->
<g id="edge12" class="edge">
<title>f3_B&#45;&gt;f3_C</title>
<path fill="none" stroke="black" d="M280.14,-18C282.25,-18 284.35,-18 286.45,-18"/>
<polygon fill="black" stroke="black" points="286.19,-21.5 296.19,-18 286.19,-14.5 286.19,-21.5"/>
</g>
</g>
</svg>
