<?xml version="1.0" encoding="UTF-8" standalone="no"?>
<!DOCTYPE svg PUBLIC "-//W3C//DTD SVG 1.1//EN"
 "http://www.w3.org/Graphics/SVG/1.1/DTD/svg11.dtd">
<!-- Generated by graphviz version 12.2.1 (20241206.2353)
 -->
<!-- Title: Taskflow Pages: 1 -->
<svg width="277pt" height="79pt"
 viewBox="0.00 0.00 277.30 78.50" xmlns="http://www.w3.org/2000/svg" xmlns:xlink="http://www.w3.org/1999/xlink">
<g id="graph0" class="graph" transform="scale(1 1) rotate(0) translate(4 74.5)">
<title>Taskflow</title>
<polygon fill="white" stroke="none" points="-4,4 -4,-74.5 273.3,-74.5 273.3,4 -4,4"/>
<!-- cond -->
<g id="node1" class="node">
<title>cond</title>
<polygon fill="aquamarine" stroke="black" points="131.77,-36 91,-18 131.77,0 172.55,-18 131.77,-36"/>
<text text-anchor="middle" x="131.77" y="-12.95" font-family="Times,serif" font-size="14.00">cond</text>
</g>
<!-- cond&#45;&gt;cond -->
<g id="edge2" class="edge">
<title>cond&#45;&gt;cond</title>
<path fill="none" stroke="black" stroke-dasharray="5,2" d="M122.1,-32.04C118.48,-42.91 121.7,-54 131.77,-54 138.23,-54 141.87,-49.45 142.7,-43.32"/>
<polygon fill="black" stroke="black" points="146.2,-43.1 141.62,-33.55 139.24,-43.87 146.2,-43.1"/>
<text text-anchor="middle" x="131.77" y="-57.2" font-family="Times,serif" font-size="14.00">0</text>
</g>
<!-- stop -->
<g id="node3" class="node">
<title>stop</title>
<ellipse fill="none" stroke="black" cx="242.3" cy="-18" rx="27" ry="18"/>
<text text-anchor="middle" x="242.3" y="-12.95" font-family="Times,serif" font-size="14.00">stop</text>
</g>
<!-- cond&#45;&gt;stop -->
<g id="edge3" class="edge">
<title>cond&#45;&gt;stop</title>
<path fill="none" stroke="black" stroke-dasharray="5,2" d="M173.49,-18C183.33,-18 193.8,-18 203.49,-18"/>
<polygon fill="black" stroke="black" points="203.33,-21.5 213.33,-18 203.33,-14.5 203.33,-21.5"/>
<text text-anchor="middle" x="193.92" y="-21.2" font-family="Times,serif" font-size="14.00">1</text>
</g>
<!-- init -->
<g id="node2" class="node">
<title>init</title>
<ellipse fill="none" stroke="black" cx="27" cy="-18" rx="27" ry="18"/>
<text text-anchor="middle" x="27" y="-12.95" font-family="Times,serif" font-size="14.00">init</text>
</g>
<!-- init&#45;&gt;cond -->
<g id="edge1" class="edge">
<title>init&#45;&gt;cond</title>
<path fill="none" stroke="black" d="M54.47,-18C61.91,-18 70.27,-18 78.66,-18"/>
<polygon fill="black" stroke="black" points="78.51,-21.5 88.51,-18 78.51,-14.5 78.51,-21.5"/>
</g>
</g>
</svg>
