<?xml version="1.0" encoding="UTF-8" standalone="no"?>
<!DOCTYPE svg PUBLIC "-//W3C//DTD SVG 1.1//EN"
 "http://www.w3.org/Graphics/SVG/1.1/DTD/svg11.dtd">
<!-- Generated by graphviz version 12.2.1 (20241206.2353)
 -->
<!-- Title: BitStateLayout Pages: 1 -->
<svg width="740pt" height="184pt"
 viewBox="0.00 0.00 740.25 183.89" xmlns="http://www.w3.org/2000/svg" xmlns:xlink="http://www.w3.org/1999/xlink">
<g id="graph0" class="graph" transform="scale(1 1) rotate(0) translate(4 179.89)">
<title>BitStateLayout</title>
<polygon fill="white" stroke="none" points="-4,4 -4,-179.89 736.25,-179.89 736.25,4 -4,4"/>
<!-- State64 -->
<g id="node1" class="node">
<title>State64</title>
<polygon fill="none" stroke="black" points="229.75,-59.39 229.75,-142.39 732.25,-142.39 732.25,-59.39 229.75,-59.39"/>
<text text-anchor="middle" x="305.62" y="-125.09" font-family="Helvetica,sans-Serif" font-size="14.00">Epoch (32 bits)</text>
<text text-anchor="middle" x="305.62" y="-110.09" font-family="Helvetica,sans-Serif" font-size="14.00">[EPOCH_BITS]</text>
<text text-anchor="middle" x="305.62" y="-95.09" font-family="Helvetica,sans-Serif" font-size="14.00">Shift: 32</text>
<text text-anchor="middle" x="305.62" y="-80.09" font-family="Helvetica,sans-Serif" font-size="14.00">Mask: EPOCH_MASK</text>
<text text-anchor="middle" x="305.62" y="-65.09" font-family="Helvetica,sans-Serif" font-size="14.00">Inc: EPOCH_INC</text>
<polyline fill="none" stroke="black" points="381.5,-59.39 381.5,-142.39"/>
<text text-anchor="middle" x="473.12" y="-125.09" font-family="Helvetica,sans-Serif" font-size="14.00">Pre&#45;waiter Count (16 bits)</text>
<text text-anchor="middle" x="473.12" y="-110.09" font-family="Helvetica,sans-Serif" font-size="14.00">[PREWAITER_BITS]</text>
<text text-anchor="middle" x="473.12" y="-95.09" font-family="Helvetica,sans-Serif" font-size="14.00">Shift: 16</text>
<text text-anchor="middle" x="473.12" y="-80.09" font-family="Helvetica,sans-Serif" font-size="14.00">Mask: PREWAITER_MASK</text>
<text text-anchor="middle" x="473.12" y="-65.09" font-family="Helvetica,sans-Serif" font-size="14.00">Inc: PREWAITER_INC</text>
<polyline fill="none" stroke="black" points="564.75,-59.39 564.75,-142.39"/>
<text text-anchor="middle" x="648.5" y="-110.09" font-family="Helvetica,sans-Serif" font-size="14.00">Pre&#45;waiter Stack (16 bits)</text>
<text text-anchor="middle" x="648.5" y="-95.09" font-family="Helvetica,sans-Serif" font-size="14.00">[STACK_BITS]</text>
<text text-anchor="middle" x="648.5" y="-80.09" font-family="Helvetica,sans-Serif" font-size="14.00">Mask: STACK_MASK</text>
</g>
<!-- EpochRange -->
<g id="node2" class="node">
<title>EpochRange</title>
<polygon fill="black" stroke="black" points="159.62,-175.89 28.12,-175.89 28.12,-137.89 165.62,-137.89 165.62,-169.89 159.62,-175.89"/>
<polyline fill="none" stroke="black" points="159.62,-175.89 159.62,-169.89"/>
<polyline fill="none" stroke="black" points="165.62,-169.89 159.62,-169.89"/>
<text text-anchor="middle" x="96.88" y="-158.59" font-family="Helvetica,sans-Serif" font-size="14.00" fill="white">Bits [63:32]</text>
<text text-anchor="middle" x="96.88" y="-143.59" font-family="Helvetica,sans-Serif" font-size="14.00" fill="white">Modification counter</text>
</g>
<!-- EpochRange&#45;&gt;State64 -->
<g id="edge1" class="edge">
<title>EpochRange&#45;&gt;State64:b63_32</title>
<path fill="none" stroke="black" stroke-dasharray="5,2" d="M165.91,-140.51C175.48,-137.21 185.03,-133.35 193.75,-128.89 207.57,-121.83 209.45,-109.17 218.67,-103.62"/>
<polygon fill="black" stroke="black" points="219.41,-107.04 228.28,-101.25 217.73,-100.24 219.41,-107.04"/>
</g>
<!-- PrewaiterRange -->
<g id="node3" class="node">
<title>PrewaiterRange</title>
<polygon fill="black" stroke="black" points="165.62,-119.89 22.12,-119.89 22.12,-81.89 171.62,-81.89 171.62,-113.89 165.62,-119.89"/>
<polyline fill="none" stroke="black" points="165.62,-119.89 165.62,-113.89"/>
<polyline fill="none" stroke="black" points="171.62,-113.89 165.62,-113.89"/>
<text text-anchor="middle" x="96.88" y="-102.59" font-family="Helvetica,sans-Serif" font-size="14.00" fill="white">Bits [31:16]</text>
<text text-anchor="middle" x="96.88" y="-87.59" font-family="Helvetica,sans-Serif" font-size="14.00" fill="white">Pre&#45;waiter ticket count</text>
</g>
<!-- PrewaiterRange&#45;&gt;State64 -->
<g id="edge2" class="edge">
<title>PrewaiterRange&#45;&gt;State64:b31_16</title>
<path fill="none" stroke="black" stroke-dasharray="5,2" d="M166.93,-81.39C175.99,-78.64 185.11,-75.77 193.75,-72.89 209.96,-67.49 212.94,-62.47 229.75,-59.39 332.19,-40.6 463,43.22 472.57,-47.15"/>
<polygon fill="black" stroke="black" points="469.06,-47.06 473.05,-56.88 476.05,-46.72 469.06,-47.06"/>
</g>
<!-- StackRange -->
<g id="node4" class="node">
<title>StackRange</title>
<polygon fill="black" stroke="black" points="187.75,-63.89 0,-63.89 0,-25.89 193.75,-25.89 193.75,-57.89 187.75,-63.89"/>
<polyline fill="none" stroke="black" points="187.75,-63.89 187.75,-57.89"/>
<polyline fill="none" stroke="black" points="193.75,-57.89 187.75,-57.89"/>
<text text-anchor="middle" x="96.88" y="-46.59" font-family="Helvetica,sans-Serif" font-size="14.00" fill="white">Bits [15:0]</text>
<text text-anchor="middle" x="96.88" y="-31.59" font-family="Helvetica,sans-Serif" font-size="14.00" fill="white">Committed waiter stack index</text>
</g>
<!-- StackRange&#45;&gt;State64 -->
<g id="edge3" class="edge">
<title>StackRange&#45;&gt;State64:b15_0</title>
<path fill="none" stroke="black" stroke-dasharray="5,2" d="M194.1,-28.17C344.85,-4.43 622.14,28.33 646.74,-47.03"/>
<polygon fill="black" stroke="black" points="643.28,-47.55 648.27,-56.89 650.2,-46.48 643.28,-47.55"/>
</g>
</g>
</svg>
