<?xml version="1.0" encoding="UTF-8" standalone="no"?>
<!DOCTYPE svg PUBLIC "-//W3C//DTD SVG 1.1//EN"
 "http://www.w3.org/Graphics/SVG/1.1/DTD/svg11.dtd">
<!-- Generated by graphviz version 2.43.0 (0)
 -->
<!-- Title: Taskflow Pages: 1 -->
<svg width="672pt" height="1268pt"
 viewBox="0.00 0.00 672.00 1268.00" xmlns="http://www.w3.org/2000/svg" xmlns:xlink="http://www.w3.org/1999/xlink">
<g id="graph0" class="graph" transform="scale(1 1) rotate(0) translate(4 1264)">
<title>Taskflow</title>
<polygon fill="white" stroke="transparent" points="-4,4 -4,-1264 668,-1264 668,4 -4,4"/>
<!-- p0x7f95e780b0d0 -->
<g id="node1" class="node">
<title>p0x7f95e780b0d0</title>
<ellipse fill="none" stroke="black" cx="245" cy="-1242" rx="27" ry="18"/>
<text text-anchor="middle" x="245" y="-1238.3" font-family="Times,serif" font-size="14.00">0</text>
</g>
<!-- p0x7f95e780ac50 -->
<g id="node2" class="node">
<title>p0x7f95e780ac50</title>
<ellipse fill="none" stroke="black" cx="233" cy="-1170" rx="27" ry="18"/>
<text text-anchor="middle" x="233" y="-1166.3" font-family="Times,serif" font-size="14.00">4</text>
</g>
<!-- p0x7f95e780b0d0&#45;&gt;p0x7f95e780ac50 -->
<g id="edge1" class="edge">
<title>p0x7f95e780b0d0&#45;&gt;p0x7f95e780ac50</title>
<path fill="none" stroke="black" d="M242.1,-1224.05C240.77,-1216.35 239.18,-1207.03 237.69,-1198.36"/>
<polygon fill="black" stroke="black" points="241.1,-1197.54 235.96,-1188.28 234.2,-1198.72 241.1,-1197.54"/>
</g>
<!-- p0x7f95e780ab30 -->
<g id="node3" class="node">
<title>p0x7f95e780ab30</title>
<ellipse fill="none" stroke="black" cx="419" cy="-1170" rx="27" ry="18"/>
<text text-anchor="middle" x="419" y="-1166.3" font-family="Times,serif" font-size="14.00">5</text>
</g>
<!-- p0x7f95e780b0d0&#45;&gt;p0x7f95e780ab30 -->
<g id="edge2" class="edge">
<title>p0x7f95e780b0d0&#45;&gt;p0x7f95e780ab30</title>
<path fill="none" stroke="black" d="M267.75,-1231.85C298.18,-1219.6 352.32,-1197.83 386.9,-1183.92"/>
<polygon fill="black" stroke="black" points="388.55,-1187.02 396.52,-1180.04 385.94,-1180.53 388.55,-1187.02"/>
</g>
<!-- p0x7f95e780a8f0 -->
<g id="node4" class="node">
<title>p0x7f95e780a8f0</title>
<ellipse fill="none" stroke="black" cx="326" cy="-1098" rx="27" ry="18"/>
<text text-anchor="middle" x="326" y="-1094.3" font-family="Times,serif" font-size="14.00">7</text>
</g>
<!-- p0x7f95e780b0d0&#45;&gt;p0x7f95e780a8f0 -->
<g id="edge3" class="edge">
<title>p0x7f95e780b0d0&#45;&gt;p0x7f95e780a8f0</title>
<path fill="none" stroke="black" d="M254.13,-1224.99C268.17,-1200.38 295.16,-1153.06 311.78,-1123.94"/>
<polygon fill="black" stroke="black" points="314.86,-1125.59 316.77,-1115.17 308.78,-1122.12 314.86,-1125.59"/>
</g>
<!-- p0x7f95e780a7d0 -->
<g id="node5" class="node">
<title>p0x7f95e780a7d0</title>
<ellipse fill="none" stroke="black" cx="157" cy="-1026" rx="27" ry="18"/>
<text text-anchor="middle" x="157" y="-1022.3" font-family="Times,serif" font-size="14.00">8</text>
</g>
<!-- p0x7f95e780b0d0&#45;&gt;p0x7f95e780a7d0 -->
<g id="edge4" class="edge">
<title>p0x7f95e780b0d0&#45;&gt;p0x7f95e780a7d0</title>
<path fill="none" stroke="black" d="M221.63,-1232.7C202.48,-1224.53 176.55,-1210.05 164,-1188 140.15,-1146.09 145.24,-1087.64 151.11,-1053.91"/>
<polygon fill="black" stroke="black" points="154.59,-1054.36 153.01,-1043.89 147.71,-1053.06 154.59,-1054.36"/>
</g>
<!-- p0x7f95e780ac50&#45;&gt;p0x7f95e780a8f0 -->
<g id="edge18" class="edge">
<title>p0x7f95e780ac50&#45;&gt;p0x7f95e780a8f0</title>
<path fill="none" stroke="black" d="M250.49,-1155.83C264.52,-1145.27 284.42,-1130.3 300.26,-1118.37"/>
<polygon fill="black" stroke="black" points="302.7,-1120.92 308.59,-1112.11 298.49,-1115.32 302.7,-1120.92"/>
</g>
<!-- p0x7f95e780ac50&#45;&gt;p0x7f95e780a7d0 -->
<g id="edge19" class="edge">
<title>p0x7f95e780ac50&#45;&gt;p0x7f95e780a7d0</title>
<path fill="none" stroke="black" d="M226.31,-1152.56C218.73,-1134.41 205.65,-1104.53 192,-1080 186.61,-1070.32 180.06,-1060.07 174.09,-1051.19"/>
<polygon fill="black" stroke="black" points="176.91,-1049.12 168.38,-1042.84 171.14,-1053.07 176.91,-1049.12"/>
</g>
<!-- p0x7f95e780aa10 -->
<g id="node7" class="node">
<title>p0x7f95e780aa10</title>
<ellipse fill="none" stroke="black" cx="512" cy="-1098" rx="27" ry="18"/>
<text text-anchor="middle" x="512" y="-1094.3" font-family="Times,serif" font-size="14.00">6</text>
</g>
<!-- p0x7f95e780ac50&#45;&gt;p0x7f95e780aa10 -->
<g id="edge17" class="edge">
<title>p0x7f95e780ac50&#45;&gt;p0x7f95e780aa10</title>
<path fill="none" stroke="black" d="M257.76,-1162.79C307.48,-1150.31 419.58,-1122.19 476.86,-1107.82"/>
<polygon fill="black" stroke="black" points="478.05,-1111.13 486.9,-1105.3 476.34,-1104.34 478.05,-1111.13"/>
</g>
<!-- p0x7f95e780a6b0 -->
<g id="node8" class="node">
<title>p0x7f95e780a6b0</title>
<ellipse fill="none" stroke="black" cx="364" cy="-1026" rx="27" ry="18"/>
<text text-anchor="middle" x="364" y="-1022.3" font-family="Times,serif" font-size="14.00">9</text>
</g>
<!-- p0x7f95e780ac50&#45;&gt;p0x7f95e780a6b0 -->
<g id="edge20" class="edge">
<title>p0x7f95e780ac50&#45;&gt;p0x7f95e780a6b0</title>
<path fill="none" stroke="black" d="M241.05,-1152.61C250.86,-1133.7 268.78,-1102.36 290,-1080 303.34,-1065.95 320.86,-1053.21 335.51,-1043.74"/>
<polygon fill="black" stroke="black" points="337.59,-1046.57 344.2,-1038.28 333.87,-1040.64 337.59,-1046.57"/>
</g>
<!-- p0x7f95e780ab30&#45;&gt;p0x7f95e780a8f0 -->
<g id="edge21" class="edge">
<title>p0x7f95e780ab30&#45;&gt;p0x7f95e780a8f0</title>
<path fill="none" stroke="black" d="M401.51,-1155.83C387.48,-1145.27 367.58,-1130.3 351.74,-1118.37"/>
<polygon fill="black" stroke="black" points="353.51,-1115.32 343.41,-1112.11 349.3,-1120.92 353.51,-1115.32"/>
</g>
<!-- p0x7f95e780ab30&#45;&gt;p0x7f95e780a6b0 -->
<g id="edge22" class="edge">
<title>p0x7f95e780ab30&#45;&gt;p0x7f95e780a6b0</title>
<path fill="none" stroke="black" d="M412.58,-1152.43C403.15,-1128.09 385.46,-1082.4 374.23,-1053.4"/>
<polygon fill="black" stroke="black" points="377.42,-1051.96 370.55,-1043.9 370.89,-1054.49 377.42,-1051.96"/>
</g>
<!-- p0x7f95e780a470 -->
<g id="node11" class="node">
<title>p0x7f95e780a470</title>
<ellipse fill="none" stroke="black" cx="419" cy="-954" rx="27" ry="18"/>
<text text-anchor="middle" x="419" y="-950.3" font-family="Times,serif" font-size="14.00">11</text>
</g>
<!-- p0x7f95e780ab30&#45;&gt;p0x7f95e780a470 -->
<g id="edge23" class="edge">
<title>p0x7f95e780ab30&#45;&gt;p0x7f95e780a470</title>
<path fill="none" stroke="black" d="M419,-1151.85C419,-1114.83 419,-1027.18 419,-982.39"/>
<polygon fill="black" stroke="black" points="422.5,-982.23 419,-972.23 415.5,-982.23 422.5,-982.23"/>
</g>
<!-- p0x7f95e780a110 -->
<g id="node12" class="node">
<title>p0x7f95e780a110</title>
<ellipse fill="none" stroke="black" cx="453" cy="-738" rx="27" ry="18"/>
<text text-anchor="middle" x="453" y="-734.3" font-family="Times,serif" font-size="14.00">14</text>
</g>
<!-- p0x7f95e780ab30&#45;&gt;p0x7f95e780a110 -->
<g id="edge24" class="edge">
<title>p0x7f95e780ab30&#45;&gt;p0x7f95e780a110</title>
<path fill="none" stroke="black" d="M445.69,-1166.16C509.18,-1157.76 664,-1127.05 664,-1027 664,-1027 664,-1027 664,-881 664,-833.05 641.26,-820.92 603,-792 562.97,-761.74 543.12,-773.23 496,-756 492.48,-754.71 488.8,-753.33 485.16,-751.92"/>
<polygon fill="black" stroke="black" points="486.27,-748.6 475.68,-748.22 483.72,-755.12 486.27,-748.6"/>
</g>
<!-- p0x7f95e780a8f0&#45;&gt;p0x7f95e780a7d0 -->
<g id="edge29" class="edge">
<title>p0x7f95e780a8f0&#45;&gt;p0x7f95e780a7d0</title>
<path fill="none" stroke="black" d="M303.34,-1087.62C277.76,-1077.03 234.89,-1059.28 198,-1044 195.1,-1042.8 192.09,-1041.55 189.08,-1040.3"/>
<polygon fill="black" stroke="black" points="190.13,-1036.95 179.56,-1036.35 187.45,-1043.42 190.13,-1036.95"/>
</g>
<!-- p0x7f95e780a8f0&#45;&gt;p0x7f95e780a6b0 -->
<g id="edge30" class="edge">
<title>p0x7f95e780a8f0&#45;&gt;p0x7f95e780a6b0</title>
<path fill="none" stroke="black" d="M334.81,-1080.76C339.42,-1072.28 345.16,-1061.71 350.32,-1052.2"/>
<polygon fill="black" stroke="black" points="353.54,-1053.61 355.23,-1043.15 347.39,-1050.27 353.54,-1053.61"/>
</g>
<!-- p0x7f95e780a590 -->
<g id="node13" class="node">
<title>p0x7f95e780a590</title>
<ellipse fill="none" stroke="black" cx="512" cy="-1026" rx="27" ry="18"/>
<text text-anchor="middle" x="512" y="-1022.3" font-family="Times,serif" font-size="14.00">10</text>
</g>
<!-- p0x7f95e780a8f0&#45;&gt;p0x7f95e780a590 -->
<g id="edge31" class="edge">
<title>p0x7f95e780a8f0&#45;&gt;p0x7f95e780a590</title>
<path fill="none" stroke="black" d="M349.18,-1088.28C382.08,-1075.9 442.44,-1053.18 479.71,-1039.15"/>
<polygon fill="black" stroke="black" points="480.98,-1042.41 489.11,-1035.61 478.52,-1035.86 480.98,-1042.41"/>
</g>
<!-- p0x7f95e780a230 -->
<g id="node15" class="node">
<title>p0x7f95e780a230</title>
<ellipse fill="none" stroke="black" cx="267" cy="-810" rx="27" ry="18"/>
<text text-anchor="middle" x="267" y="-806.3" font-family="Times,serif" font-size="14.00">13</text>
</g>
<!-- p0x7f95e780a8f0&#45;&gt;p0x7f95e780a230 -->
<g id="edge32" class="edge">
<title>p0x7f95e780a8f0&#45;&gt;p0x7f95e780a230</title>
<path fill="none" stroke="black" d="M311.31,-1082.38C281.77,-1051.82 216.06,-977.52 193,-900 188.44,-884.66 185.69,-878.23 193,-864 201.93,-846.61 219.52,-833.65 235.3,-824.9"/>
<polygon fill="black" stroke="black" points="237.04,-827.94 244.31,-820.23 233.82,-821.73 237.04,-827.94"/>
</g>
<!-- p0x7f95e780a7d0&#45;&gt;p0x7f95e780a470 -->
<g id="edge33" class="edge">
<title>p0x7f95e780a7d0&#45;&gt;p0x7f95e780a470</title>
<path fill="none" stroke="black" d="M181.65,-1018.41C228.56,-1005.88 330.78,-978.57 384.48,-964.22"/>
<polygon fill="black" stroke="black" points="385.47,-967.58 394.23,-961.62 383.66,-960.82 385.47,-967.58"/>
</g>
<!-- p0x7f95e780a7d0&#45;&gt;p0x7f95e780a110 -->
<g id="edge36" class="edge">
<title>p0x7f95e780a7d0&#45;&gt;p0x7f95e780a110</title>
<path fill="none" stroke="black" d="M171.68,-1010.82C219.81,-964.31 373.06,-816.24 430.75,-760.5"/>
<polygon fill="black" stroke="black" points="433.47,-762.73 438.23,-753.27 428.61,-757.7 433.47,-762.73"/>
</g>
<!-- p0x7f95e780a350 -->
<g id="node14" class="node">
<title>p0x7f95e780a350</title>
<ellipse fill="none" stroke="black" cx="229" cy="-882" rx="27" ry="18"/>
<text text-anchor="middle" x="229" y="-878.3" font-family="Times,serif" font-size="14.00">12</text>
</g>
<!-- p0x7f95e780a7d0&#45;&gt;p0x7f95e780a350 -->
<g id="edge34" class="edge">
<title>p0x7f95e780a7d0&#45;&gt;p0x7f95e780a350</title>
<path fill="none" stroke="black" d="M165.26,-1008.71C177.67,-984.23 201.24,-937.74 215.98,-908.67"/>
<polygon fill="black" stroke="black" points="219.21,-910.04 220.62,-899.54 212.97,-906.87 219.21,-910.04"/>
</g>
<!-- p0x7f95e780a7d0&#45;&gt;p0x7f95e780a230 -->
<g id="edge35" class="edge">
<title>p0x7f95e780a7d0&#45;&gt;p0x7f95e780a230</title>
<path fill="none" stroke="black" d="M151.95,-1007.86C143.82,-976.53 131.42,-909.1 160,-864 175.7,-839.22 206.74,-825.64 231.36,-818.45"/>
<polygon fill="black" stroke="black" points="232.36,-821.81 241.11,-815.83 230.55,-815.05 232.36,-821.81"/>
</g>
<!-- p0x7f95e780afb0 -->
<g id="node6" class="node">
<title>p0x7f95e780afb0</title>
<ellipse fill="none" stroke="black" cx="483" cy="-1242" rx="27" ry="18"/>
<text text-anchor="middle" x="483" y="-1238.3" font-family="Times,serif" font-size="14.00">1</text>
</g>
<!-- p0x7f95e780afb0&#45;&gt;p0x7f95e780ab30 -->
<g id="edge5" class="edge">
<title>p0x7f95e780afb0&#45;&gt;p0x7f95e780ab30</title>
<path fill="none" stroke="black" d="M469.43,-1226.15C460.69,-1216.6 449.17,-1203.99 439.34,-1193.25"/>
<polygon fill="black" stroke="black" points="441.88,-1190.84 432.55,-1185.82 436.72,-1195.57 441.88,-1190.84"/>
</g>
<!-- p0x7f95e780afb0&#45;&gt;p0x7f95e780a8f0 -->
<g id="edge7" class="edge">
<title>p0x7f95e780afb0&#45;&gt;p0x7f95e780a8f0</title>
<path fill="none" stroke="black" d="M481.87,-1223.79C479.71,-1204.11 473.41,-1172.04 455,-1152 430.64,-1125.48 391.04,-1111.88 362.13,-1105.15"/>
<polygon fill="black" stroke="black" points="362.53,-1101.65 352.02,-1102.97 361.05,-1108.49 362.53,-1101.65"/>
</g>
<!-- p0x7f95e780afb0&#45;&gt;p0x7f95e780aa10 -->
<g id="edge6" class="edge">
<title>p0x7f95e780afb0&#45;&gt;p0x7f95e780aa10</title>
<path fill="none" stroke="black" d="M506.61,-1232.83C525.92,-1224.75 551.93,-1210.32 564,-1188 571.61,-1173.93 570.05,-1166.81 564,-1152 558.61,-1138.82 548.19,-1127.14 538.09,-1118.13"/>
<polygon fill="black" stroke="black" points="540.07,-1115.22 530.15,-1111.49 535.58,-1120.59 540.07,-1115.22"/>
</g>
<!-- p0x7f95e780afb0&#45;&gt;p0x7f95e780a6b0 -->
<g id="edge8" class="edge">
<title>p0x7f95e780afb0&#45;&gt;p0x7f95e780a6b0</title>
<path fill="none" stroke="black" d="M507.96,-1235.11C531.21,-1228.15 564.53,-1214.08 580,-1188 605.54,-1144.94 585.75,-1112.88 548,-1080 525.92,-1060.77 447.09,-1042.91 400.07,-1033.64"/>
<polygon fill="black" stroke="black" points="400.47,-1030.15 389.99,-1031.68 399.14,-1037.02 400.47,-1030.15"/>
</g>
<!-- p0x7f95e780aa10&#45;&gt;p0x7f95e780a6b0 -->
<g id="edge25" class="edge">
<title>p0x7f95e780aa10&#45;&gt;p0x7f95e780a6b0</title>
<path fill="none" stroke="black" d="M490.48,-1086.82C465.27,-1074.9 423.32,-1055.06 394.7,-1041.52"/>
<polygon fill="black" stroke="black" points="396.08,-1038.3 385.55,-1037.19 393.09,-1044.63 396.08,-1038.3"/>
</g>
<!-- p0x7f95e780aa10&#45;&gt;p0x7f95e780a110 -->
<g id="edge28" class="edge">
<title>p0x7f95e780aa10&#45;&gt;p0x7f95e780a110</title>
<path fill="none" stroke="black" d="M531.34,-1085.19C563.86,-1063.67 626,-1014.75 626,-955 626,-955 626,-955 626,-881 626,-809.6 536.87,-767.54 486.56,-749.49"/>
<polygon fill="black" stroke="black" points="487.65,-746.16 477.05,-746.19 485.36,-752.77 487.65,-746.16"/>
</g>
<!-- p0x7f95e780aa10&#45;&gt;p0x7f95e780a590 -->
<g id="edge26" class="edge">
<title>p0x7f95e780aa10&#45;&gt;p0x7f95e780a590</title>
<path fill="none" stroke="black" d="M512,-1079.7C512,-1071.98 512,-1062.71 512,-1054.11"/>
<polygon fill="black" stroke="black" points="515.5,-1054.1 512,-1044.1 508.5,-1054.1 515.5,-1054.1"/>
</g>
<!-- p0x7f95e780aa10&#45;&gt;p0x7f95e780a350 -->
<g id="edge27" class="edge">
<title>p0x7f95e780aa10&#45;&gt;p0x7f95e780a350</title>
<path fill="none" stroke="black" d="M485.29,-1094.79C447.24,-1090.5 376.68,-1078.23 328,-1044 280.16,-1010.36 250.94,-945.51 237.61,-909.23"/>
<polygon fill="black" stroke="black" points="240.91,-908.05 234.27,-899.8 234.31,-910.39 240.91,-908.05"/>
</g>
<!-- p0x7f95e780a6b0&#45;&gt;p0x7f95e780a470 -->
<g id="edge37" class="edge">
<title>p0x7f95e780a6b0&#45;&gt;p0x7f95e780a470</title>
<path fill="none" stroke="black" d="M375.93,-1009.81C383.21,-1000.55 392.66,-988.52 400.85,-978.09"/>
<polygon fill="black" stroke="black" points="403.66,-980.18 407.09,-970.16 398.16,-975.86 403.66,-980.18"/>
</g>
<!-- p0x7f95e780a6b0&#45;&gt;p0x7f95e780a110 -->
<g id="edge40" class="edge">
<title>p0x7f95e780a6b0&#45;&gt;p0x7f95e780a110</title>
<path fill="none" stroke="black" d="M388.72,-1018.23C410.5,-1010.82 440.88,-996.57 455,-972 492.97,-905.95 473.99,-810.98 461.3,-765.39"/>
<polygon fill="black" stroke="black" points="464.63,-764.3 458.48,-755.67 457.91,-766.25 464.63,-764.3"/>
</g>
<!-- p0x7f95e780a6b0&#45;&gt;p0x7f95e780a350 -->
<g id="edge38" class="edge">
<title>p0x7f95e780a6b0&#45;&gt;p0x7f95e780a350</title>
<path fill="none" stroke="black" d="M350.06,-1010.34C326.31,-985.36 277.88,-934.42 250.01,-905.1"/>
<polygon fill="black" stroke="black" points="252.49,-902.63 243.07,-897.79 247.42,-907.45 252.49,-902.63"/>
</g>
<!-- p0x7f95e780a6b0&#45;&gt;p0x7f95e780a230 -->
<g id="edge39" class="edge">
<title>p0x7f95e780a6b0&#45;&gt;p0x7f95e780a230</title>
<path fill="none" stroke="black" d="M356.55,-1008.56C339.76,-971.53 298.88,-881.33 278.68,-836.78"/>
<polygon fill="black" stroke="black" points="281.79,-835.16 274.48,-827.49 275.42,-838.05 281.79,-835.16"/>
</g>
<!-- p0x7f95e780ae90 -->
<g id="node9" class="node">
<title>p0x7f95e780ae90</title>
<ellipse fill="none" stroke="black" cx="336" cy="-1242" rx="27" ry="18"/>
<text text-anchor="middle" x="336" y="-1238.3" font-family="Times,serif" font-size="14.00">2</text>
</g>
<!-- p0x7f95e780ae90&#45;&gt;p0x7f95e780ab30 -->
<g id="edge9" class="edge">
<title>p0x7f95e780ae90&#45;&gt;p0x7f95e780ab30</title>
<path fill="none" stroke="black" d="M352.4,-1227.17C364.64,-1216.85 381.55,-1202.58 395.27,-1191.01"/>
<polygon fill="black" stroke="black" points="397.53,-1193.69 402.92,-1184.56 393.02,-1188.33 397.53,-1193.69"/>
</g>
<!-- p0x7f95e780ae90&#45;&gt;p0x7f95e780a8f0 -->
<g id="edge11" class="edge">
<title>p0x7f95e780ae90&#45;&gt;p0x7f95e780a8f0</title>
<path fill="none" stroke="black" d="M334.79,-1223.87C333.09,-1199.67 329.96,-1155.21 327.93,-1126.39"/>
<polygon fill="black" stroke="black" points="331.4,-1125.92 327.21,-1116.19 324.42,-1126.41 331.4,-1125.92"/>
</g>
<!-- p0x7f95e780ae90&#45;&gt;p0x7f95e780a7d0 -->
<g id="edge12" class="edge">
<title>p0x7f95e780ae90&#45;&gt;p0x7f95e780a7d0</title>
<path fill="none" stroke="black" d="M312.29,-1233.3C274.73,-1220.89 204.96,-1196.99 197,-1188 179.55,-1168.31 166.64,-1094.74 160.67,-1054.21"/>
<polygon fill="black" stroke="black" points="164.12,-1053.6 159.24,-1044.2 157.19,-1054.6 164.12,-1053.6"/>
</g>
<!-- p0x7f95e780ae90&#45;&gt;p0x7f95e780aa10 -->
<g id="edge10" class="edge">
<title>p0x7f95e780ae90&#45;&gt;p0x7f95e780aa10</title>
<path fill="none" stroke="black" d="M357.7,-1231.28C363.03,-1228.9 368.72,-1226.35 374,-1224 409.98,-1207.96 425.12,-1213.67 455,-1188 475.24,-1170.61 490.88,-1144.26 500.61,-1124.74"/>
<polygon fill="black" stroke="black" points="503.87,-1126.03 505.03,-1115.5 497.56,-1123.01 503.87,-1126.03"/>
</g>
<!-- p0x7f95e780ad70 -->
<g id="node10" class="node">
<title>p0x7f95e780ad70</title>
<ellipse fill="none" stroke="black" cx="410" cy="-1242" rx="27" ry="18"/>
<text text-anchor="middle" x="410" y="-1238.3" font-family="Times,serif" font-size="14.00">3</text>
</g>
<!-- p0x7f95e780ad70&#45;&gt;p0x7f95e780ac50 -->
<g id="edge13" class="edge">
<title>p0x7f95e780ad70&#45;&gt;p0x7f95e780ac50</title>
<path fill="none" stroke="black" d="M388.39,-1231.08C383.06,-1228.7 377.34,-1226.21 372,-1224 335.92,-1209.07 293.98,-1193.29 265.69,-1182.87"/>
<polygon fill="black" stroke="black" points="266.87,-1179.58 256.28,-1179.42 264.46,-1186.15 266.87,-1179.58"/>
</g>
<!-- p0x7f95e780ad70&#45;&gt;p0x7f95e780ab30 -->
<g id="edge14" class="edge">
<title>p0x7f95e780ad70&#45;&gt;p0x7f95e780ab30</title>
<path fill="none" stroke="black" d="M412.18,-1224.05C413.17,-1216.35 414.37,-1207.03 415.48,-1198.36"/>
<polygon fill="black" stroke="black" points="418.98,-1198.64 416.78,-1188.28 412.03,-1197.75 418.98,-1198.64"/>
</g>
<!-- p0x7f95e780ad70&#45;&gt;p0x7f95e780a8f0 -->
<g id="edge16" class="edge">
<title>p0x7f95e780ad70&#45;&gt;p0x7f95e780a8f0</title>
<path fill="none" stroke="black" d="M400.53,-1224.99C385.97,-1200.38 357.98,-1153.06 340.75,-1123.94"/>
<polygon fill="black" stroke="black" points="343.67,-1122 335.57,-1115.17 337.65,-1125.56 343.67,-1122"/>
</g>
<!-- p0x7f95e780ad70&#45;&gt;p0x7f95e780aa10 -->
<g id="edge15" class="edge">
<title>p0x7f95e780ad70&#45;&gt;p0x7f95e780aa10</title>
<path fill="none" stroke="black" d="M431.52,-1231.1C436.59,-1228.77 441.99,-1226.29 447,-1224 482.09,-1207.95 505.13,-1220.45 526,-1188 538.18,-1169.07 532.24,-1143.3 524.7,-1124.36"/>
<polygon fill="black" stroke="black" points="527.9,-1122.93 520.71,-1115.15 521.48,-1125.71 527.9,-1122.93"/>
</g>
<!-- p0x7f95e780a470&#45;&gt;p0x7f95e780a110 -->
<g id="edge47" class="edge">
<title>p0x7f95e780a470&#45;&gt;p0x7f95e780a110</title>
<path fill="none" stroke="black" d="M421.72,-935.85C427.62,-898.74 441.6,-810.75 448.7,-766.05"/>
<polygon fill="black" stroke="black" points="452.2,-766.36 450.31,-755.94 445.28,-765.26 452.2,-766.36"/>
</g>
<!-- p0x7f95e780a470&#45;&gt;p0x7f95e780a350 -->
<g id="edge45" class="edge">
<title>p0x7f95e780a470&#45;&gt;p0x7f95e780a350</title>
<path fill="none" stroke="black" d="M395.7,-944.42C362.14,-932.05 300.02,-909.17 261.82,-895.09"/>
<polygon fill="black" stroke="black" points="262.78,-891.72 252.19,-891.54 260.36,-898.29 262.78,-891.72"/>
</g>
<!-- p0x7f95e780a470&#45;&gt;p0x7f95e780a230 -->
<g id="edge46" class="edge">
<title>p0x7f95e780a470&#45;&gt;p0x7f95e780a230</title>
<path fill="none" stroke="black" d="M403.87,-938.87C377.01,-913.77 320.88,-861.34 289.48,-832.01"/>
<polygon fill="black" stroke="black" points="291.77,-829.35 282.07,-825.08 286.99,-834.46 291.77,-829.35"/>
</g>
<!-- p0x7f95e7809ed0 -->
<g id="node16" class="node">
<title>p0x7f95e7809ed0</title>
<ellipse fill="none" stroke="black" cx="450" cy="-666" rx="27" ry="18"/>
<text text-anchor="middle" x="450" y="-662.3" font-family="Times,serif" font-size="14.00">16</text>
</g>
<!-- p0x7f95e780a470&#45;&gt;p0x7f95e7809ed0 -->
<g id="edge48" class="edge">
<title>p0x7f95e780a470&#45;&gt;p0x7f95e7809ed0</title>
<path fill="none" stroke="black" d="M415.62,-935.89C408.56,-896.74 394.71,-797.98 417,-720 419.99,-709.53 425.72,-699.11 431.58,-690.32"/>
<polygon fill="black" stroke="black" points="434.46,-692.31 437.38,-682.12 428.74,-688.26 434.46,-692.31"/>
</g>
<!-- p0x7f95e780a110&#45;&gt;p0x7f95e7809ed0 -->
<g id="edge57" class="edge">
<title>p0x7f95e780a110&#45;&gt;p0x7f95e7809ed0</title>
<path fill="none" stroke="black" d="M452.26,-719.7C451.93,-711.98 451.53,-702.71 451.16,-694.11"/>
<polygon fill="black" stroke="black" points="454.66,-693.95 450.73,-684.1 447.66,-694.25 454.66,-693.95"/>
</g>
<!-- p0x7f95e7809db0 -->
<g id="node17" class="node">
<title>p0x7f95e7809db0</title>
<ellipse fill="none" stroke="black" cx="210" cy="-594" rx="27" ry="18"/>
<text text-anchor="middle" x="210" y="-590.3" font-family="Times,serif" font-size="14.00">17</text>
</g>
<!-- p0x7f95e780a110&#45;&gt;p0x7f95e7809db0 -->
<g id="edge58" class="edge">
<title>p0x7f95e780a110&#45;&gt;p0x7f95e7809db0</title>
<path fill="none" stroke="black" d="M430.6,-727.62C407.61,-717.72 371.07,-701.19 341,-684 302.83,-662.18 261.23,-632.89 235.38,-613.98"/>
<polygon fill="black" stroke="black" points="237.37,-611.1 227.24,-607.99 233.22,-616.73 237.37,-611.1"/>
</g>
<!-- p0x7f95e7809810 -->
<g id="node19" class="node">
<title>p0x7f95e7809810</title>
<ellipse fill="none" stroke="black" cx="469" cy="-378" rx="27" ry="18"/>
<text text-anchor="middle" x="469" y="-374.3" font-family="Times,serif" font-size="14.00">22</text>
</g>
<!-- p0x7f95e780a110&#45;&gt;p0x7f95e7809810 -->
<g id="edge60" class="edge">
<title>p0x7f95e780a110&#45;&gt;p0x7f95e7809810</title>
<path fill="none" stroke="black" d="M474.83,-727.05C492.42,-718.05 516.67,-703.25 532,-684 558.37,-650.87 566,-637.34 566,-595 566,-595 566,-595 566,-521 566,-480.03 565.24,-465.74 542,-432 531.19,-416.3 514.15,-403.54 499.25,-394.49"/>
<polygon fill="black" stroke="black" points="500.74,-391.3 490.33,-389.33 497.24,-397.36 500.74,-391.3"/>
</g>
<!-- p0x7f95e7809930 -->
<g id="node21" class="node">
<title>p0x7f95e7809930</title>
<ellipse fill="none" stroke="black" cx="55" cy="-378" rx="27" ry="18"/>
<text text-anchor="middle" x="55" y="-374.3" font-family="Times,serif" font-size="14.00">21</text>
</g>
<!-- p0x7f95e780a110&#45;&gt;p0x7f95e7809930 -->
<g id="edge59" class="edge">
<title>p0x7f95e780a110&#45;&gt;p0x7f95e7809930</title>
<path fill="none" stroke="black" d="M426.85,-732.69C371.84,-722.25 243.54,-690.44 174,-612 117.13,-547.86 79.44,-451.66 63.55,-405.53"/>
<polygon fill="black" stroke="black" points="66.84,-404.31 60.32,-395.95 60.2,-406.55 66.84,-404.31"/>
</g>
<!-- p0x7f95e780a590&#45;&gt;p0x7f95e780a470 -->
<g id="edge41" class="edge">
<title>p0x7f95e780a590&#45;&gt;p0x7f95e780a470</title>
<path fill="none" stroke="black" d="M494.51,-1011.83C480.48,-1001.27 460.58,-986.3 444.74,-974.37"/>
<polygon fill="black" stroke="black" points="446.51,-971.32 436.41,-968.11 442.3,-976.92 446.51,-971.32"/>
</g>
<!-- p0x7f95e780a590&#45;&gt;p0x7f95e780a110 -->
<g id="edge42" class="edge">
<title>p0x7f95e780a590&#45;&gt;p0x7f95e780a110</title>
<path fill="none" stroke="black" d="M518.46,-1008.3C532.82,-968.35 563.27,-865.11 526,-792 517.2,-774.74 499.86,-761.78 484.28,-753"/>
<polygon fill="black" stroke="black" points="485.87,-749.88 475.39,-748.31 482.61,-756.07 485.87,-749.88"/>
</g>
<!-- p0x7f95e780a590&#45;&gt;p0x7f95e7809ed0 -->
<g id="edge43" class="edge">
<title>p0x7f95e780a590&#45;&gt;p0x7f95e7809ed0</title>
<path fill="none" stroke="black" d="M525.15,-1009.86C533.13,-999.81 542.74,-985.95 548,-972 576.22,-897.14 577.4,-865.59 546,-792 528.54,-751.07 494.52,-711.7 472.03,-688.43"/>
<polygon fill="black" stroke="black" points="474.4,-685.84 464.89,-681.17 469.41,-690.75 474.4,-685.84"/>
</g>
<!-- p0x7f95e780a590&#45;&gt;p0x7f95e7809db0 -->
<g id="edge44" class="edge">
<title>p0x7f95e780a590&#45;&gt;p0x7f95e7809db0</title>
<path fill="none" stroke="black" d="M502.16,-1009.08C490.99,-991.14 472.11,-961.2 455,-936 372.62,-814.62 268.36,-673.36 227.53,-618.48"/>
<polygon fill="black" stroke="black" points="230.31,-616.35 221.53,-610.43 224.7,-620.54 230.31,-616.35"/>
</g>
<!-- p0x7f95e780a350&#45;&gt;p0x7f95e780a230 -->
<g id="edge49" class="edge">
<title>p0x7f95e780a350&#45;&gt;p0x7f95e780a230</title>
<path fill="none" stroke="black" d="M237.81,-864.76C242.42,-856.28 248.16,-845.71 253.32,-836.2"/>
<polygon fill="black" stroke="black" points="256.54,-837.61 258.23,-827.15 250.39,-834.27 256.54,-837.61"/>
</g>
<!-- p0x7f95e780a350&#45;&gt;p0x7f95e7809db0 -->
<g id="edge50" class="edge">
<title>p0x7f95e780a350&#45;&gt;p0x7f95e7809db0</title>
<path fill="none" stroke="black" d="M225.97,-864.09C219.42,-825.75 204.7,-729.23 207,-648 207.24,-639.67 207.68,-630.62 208.15,-622.39"/>
<polygon fill="black" stroke="black" points="211.66,-622.37 208.78,-612.18 204.67,-621.94 211.66,-622.37"/>
</g>
<!-- p0x7f95e7809a50 -->
<g id="node18" class="node">
<title>p0x7f95e7809a50</title>
<ellipse fill="none" stroke="black" cx="169" cy="-450" rx="27" ry="18"/>
<text text-anchor="middle" x="169" y="-446.3" font-family="Times,serif" font-size="14.00">20</text>
</g>
<!-- p0x7f95e780a350&#45;&gt;p0x7f95e7809a50 -->
<g id="edge51" class="edge">
<title>p0x7f95e780a350&#45;&gt;p0x7f95e7809a50</title>
<path fill="none" stroke="black" d="M204.81,-873.85C157,-858.06 55,-815.42 55,-739 55,-739 55,-739 55,-593 55,-538.15 107.36,-492.42 141.11,-468.65"/>
<polygon fill="black" stroke="black" points="143.38,-471.34 149.66,-462.81 139.43,-465.56 143.38,-471.34"/>
</g>
<!-- p0x7f95e780a350&#45;&gt;p0x7f95e7809810 -->
<g id="edge52" class="edge">
<title>p0x7f95e780a350&#45;&gt;p0x7f95e7809810</title>
<path fill="none" stroke="black" d="M247.46,-868.82C262.75,-858.48 284.84,-842.99 303,-828 356.83,-783.58 360.18,-760.53 417,-720 445.16,-699.91 467.97,-713.52 486,-684 540.79,-594.32 500.57,-460.72 479.6,-404.93"/>
<polygon fill="black" stroke="black" points="482.8,-403.52 475.94,-395.45 476.28,-406.04 482.8,-403.52"/>
</g>
<!-- p0x7f95e780a230&#45;&gt;p0x7f95e780a110 -->
<g id="edge53" class="edge">
<title>p0x7f95e780a230&#45;&gt;p0x7f95e780a110</title>
<path fill="none" stroke="black" d="M290.18,-800.28C323.08,-787.9 383.44,-765.18 420.71,-751.15"/>
<polygon fill="black" stroke="black" points="421.98,-754.41 430.11,-747.61 419.52,-747.86 421.98,-754.41"/>
</g>
<!-- p0x7f95e780a230&#45;&gt;p0x7f95e7809ed0 -->
<g id="edge54" class="edge">
<title>p0x7f95e780a230&#45;&gt;p0x7f95e7809ed0</title>
<path fill="none" stroke="black" d="M278.1,-793.23C292.19,-774.06 318.05,-741.61 346,-720 358.28,-710.51 393.1,-693.4 419.09,-681.19"/>
<polygon fill="black" stroke="black" points="420.63,-684.33 428.21,-676.93 417.67,-677.99 420.63,-684.33"/>
</g>
<!-- p0x7f95e780a230&#45;&gt;p0x7f95e7809db0 -->
<g id="edge55" class="edge">
<title>p0x7f95e780a230&#45;&gt;p0x7f95e7809db0</title>
<path fill="none" stroke="black" d="M254.27,-793.78C246.55,-783.7 237.2,-769.83 232,-756 215.14,-711.16 210.97,-654.97 210.07,-622.22"/>
<polygon fill="black" stroke="black" points="213.56,-621.99 209.88,-612.06 206.57,-622.12 213.56,-621.99"/>
</g>
<!-- p0x7f95e7809c90 -->
<g id="node20" class="node">
<title>p0x7f95e7809c90</title>
<ellipse fill="none" stroke="black" cx="283" cy="-594" rx="27" ry="18"/>
<text text-anchor="middle" x="283" y="-590.3" font-family="Times,serif" font-size="14.00">18</text>
</g>
<!-- p0x7f95e780a230&#45;&gt;p0x7f95e7809c90 -->
<g id="edge56" class="edge">
<title>p0x7f95e780a230&#45;&gt;p0x7f95e7809c90</title>
<path fill="none" stroke="black" d="M268.28,-791.85C271.05,-754.83 277.6,-667.18 280.95,-622.39"/>
<polygon fill="black" stroke="black" points="284.46,-622.47 281.71,-612.23 277.48,-621.94 284.46,-622.47"/>
</g>
<!-- p0x7f95e7809ed0&#45;&gt;p0x7f95e7809db0 -->
<g id="edge65" class="edge">
<title>p0x7f95e7809ed0&#45;&gt;p0x7f95e7809db0</title>
<path fill="none" stroke="black" d="M429.19,-654.48C423.99,-652.12 418.36,-649.79 413,-648 341.39,-624.1 318.61,-635.9 247,-612 244.74,-611.24 242.43,-610.39 240.12,-609.48"/>
<polygon fill="black" stroke="black" points="241.38,-606.22 230.81,-605.52 238.64,-612.66 241.38,-606.22"/>
</g>
<!-- p0x7f95e7809ed0&#45;&gt;p0x7f95e7809810 -->
<g id="edge67" class="edge">
<title>p0x7f95e7809ed0&#45;&gt;p0x7f95e7809810</title>
<path fill="none" stroke="black" d="M456.43,-648.1C460,-637.82 464.1,-624.35 466,-612 477.37,-538.28 473.92,-449.89 471.1,-406.2"/>
<polygon fill="black" stroke="black" points="474.58,-405.83 470.4,-396.09 467.6,-406.31 474.58,-405.83"/>
</g>
<!-- p0x7f95e7809b70 -->
<g id="node23" class="node">
<title>p0x7f95e7809b70</title>
<ellipse fill="none" stroke="black" cx="338" cy="-522" rx="27" ry="18"/>
<text text-anchor="middle" x="338" y="-518.3" font-family="Times,serif" font-size="14.00">19</text>
</g>
<!-- p0x7f95e7809ed0&#45;&gt;p0x7f95e7809b70 -->
<g id="edge66" class="edge">
<title>p0x7f95e7809ed0&#45;&gt;p0x7f95e7809b70</title>
<path fill="none" stroke="black" d="M438.01,-649.8C418.5,-625.06 379.71,-575.88 356.59,-546.57"/>
<polygon fill="black" stroke="black" points="359.18,-544.2 350.24,-538.52 353.68,-548.54 359.18,-544.2"/>
</g>
<!-- p0x7f95e78096f0 -->
<g id="node24" class="node">
<title>p0x7f95e78096f0</title>
<ellipse fill="none" stroke="black" cx="198" cy="-306" rx="27" ry="18"/>
<text text-anchor="middle" x="198" y="-302.3" font-family="Times,serif" font-size="14.00">23</text>
</g>
<!-- p0x7f95e7809ed0&#45;&gt;p0x7f95e78096f0 -->
<g id="edge68" class="edge">
<title>p0x7f95e7809ed0&#45;&gt;p0x7f95e78096f0</title>
<path fill="none" stroke="black" d="M442.26,-648.6C433.83,-630.74 419.96,-601.34 408,-576 392.89,-544 392.79,-533.99 374,-504 330.37,-434.36 314.78,-419.42 258,-360 246.95,-348.44 233.71,-336.56 222.48,-326.99"/>
<polygon fill="black" stroke="black" points="224.63,-324.22 214.72,-320.46 220.13,-329.58 224.63,-324.22"/>
</g>
<!-- p0x7f95e7809db0&#45;&gt;p0x7f95e7809a50 -->
<g id="edge70" class="edge">
<title>p0x7f95e7809db0&#45;&gt;p0x7f95e7809a50</title>
<path fill="none" stroke="black" d="M205.14,-576.15C198.11,-551.81 185.04,-506.57 176.7,-477.67"/>
<polygon fill="black" stroke="black" points="179.99,-476.46 173.86,-467.82 173.27,-478.4 179.99,-476.46"/>
</g>
<!-- p0x7f95e7809db0&#45;&gt;p0x7f95e7809b70 -->
<g id="edge69" class="edge">
<title>p0x7f95e7809db0&#45;&gt;p0x7f95e7809b70</title>
<path fill="none" stroke="black" d="M230.28,-581.91C251.44,-570.34 284.81,-552.09 308.8,-538.97"/>
<polygon fill="black" stroke="black" points="310.72,-541.91 317.81,-534.04 307.36,-535.77 310.72,-541.91"/>
</g>
<!-- p0x7f95e7809db0&#45;&gt;p0x7f95e78096f0 -->
<g id="edge71" class="edge">
<title>p0x7f95e7809db0&#45;&gt;p0x7f95e78096f0</title>
<path fill="none" stroke="black" d="M196.98,-578.16C178.49,-556.01 145.5,-512.14 133,-468 118.66,-417.37 154.11,-360.91 178.11,-330.13"/>
<polygon fill="black" stroke="black" points="180.98,-332.14 184.52,-322.15 175.53,-327.75 180.98,-332.14"/>
</g>
<!-- p0x7f95e7809150 -->
<g id="node25" class="node">
<title>p0x7f95e7809150</title>
<ellipse fill="none" stroke="black" cx="198" cy="-90" rx="27" ry="18"/>
<text text-anchor="middle" x="198" y="-86.3" font-family="Times,serif" font-size="14.00">28</text>
</g>
<!-- p0x7f95e7809db0&#45;&gt;p0x7f95e7809150 -->
<g id="edge72" class="edge">
<title>p0x7f95e7809db0&#45;&gt;p0x7f95e7809150</title>
<path fill="none" stroke="black" d="M187.92,-583.43C134.01,-558.39 0,-485.45 0,-379 0,-379 0,-379 0,-305 0,-207.63 111.81,-135.76 167.38,-106.04"/>
<polygon fill="black" stroke="black" points="169.19,-109.05 176.43,-101.31 165.95,-102.84 169.19,-109.05"/>
</g>
<!-- p0x7f95e7809a50&#45;&gt;p0x7f95e7809810 -->
<g id="edge82" class="edge">
<title>p0x7f95e7809a50&#45;&gt;p0x7f95e7809810</title>
<path fill="none" stroke="black" d="M194.06,-443.15C247.44,-430.7 372.49,-401.52 433.82,-387.21"/>
<polygon fill="black" stroke="black" points="434.86,-390.56 443.8,-384.88 433.26,-383.74 434.86,-390.56"/>
</g>
<!-- p0x7f95e7809a50&#45;&gt;p0x7f95e7809930 -->
<g id="edge81" class="edge">
<title>p0x7f95e7809a50&#45;&gt;p0x7f95e7809930</title>
<path fill="none" stroke="black" d="M149.66,-437.13C131.4,-425.91 103.81,-408.97 83.11,-396.26"/>
<polygon fill="black" stroke="black" points="84.79,-393.18 74.43,-390.93 81.12,-399.15 84.79,-393.18"/>
</g>
<!-- p0x7f95e7809a50&#45;&gt;p0x7f95e78096f0 -->
<g id="edge83" class="edge">
<title>p0x7f95e7809a50&#45;&gt;p0x7f95e78096f0</title>
<path fill="none" stroke="black" d="M167.48,-431.98C166.34,-413.84 165.89,-384.45 172,-360 174.38,-350.46 178.63,-340.63 183.01,-332.07"/>
<polygon fill="black" stroke="black" points="186.23,-333.48 187.92,-323.02 180.07,-330.14 186.23,-333.48"/>
</g>
<!-- p0x7f95e78095d0 -->
<g id="node26" class="node">
<title>p0x7f95e78095d0</title>
<ellipse fill="none" stroke="black" cx="272" cy="-306" rx="27" ry="18"/>
<text text-anchor="middle" x="272" y="-302.3" font-family="Times,serif" font-size="14.00">24</text>
</g>
<!-- p0x7f95e7809a50&#45;&gt;p0x7f95e78095d0 -->
<g id="edge84" class="edge">
<title>p0x7f95e7809a50&#45;&gt;p0x7f95e78095d0</title>
<path fill="none" stroke="black" d="M180.22,-433.53C198.17,-408.78 233.5,-360.08 254.7,-330.85"/>
<polygon fill="black" stroke="black" points="257.76,-332.6 260.79,-322.45 252.09,-328.49 257.76,-332.6"/>
</g>
<!-- p0x7f95e7809810&#45;&gt;p0x7f95e78096f0 -->
<g id="edge89" class="edge">
<title>p0x7f95e7809810&#45;&gt;p0x7f95e78096f0</title>
<path fill="none" stroke="black" d="M447.18,-366.97C441.06,-364.43 434.35,-361.89 428,-360 344.79,-335.24 318.87,-349.91 236,-324 233.44,-323.2 230.82,-322.27 228.21,-321.27"/>
<polygon fill="black" stroke="black" points="229.54,-318.03 218.96,-317.43 226.86,-324.5 229.54,-318.03"/>
</g>
<!-- p0x7f95e7809810&#45;&gt;p0x7f95e7809150 -->
<g id="edge92" class="edge">
<title>p0x7f95e7809810&#45;&gt;p0x7f95e7809150</title>
<path fill="none" stroke="black" d="M463.95,-360.3C449.95,-317.05 406.37,-200.77 327,-144 298.19,-123.39 260.17,-109.03 232.89,-100.5"/>
<polygon fill="black" stroke="black" points="233.58,-97.06 222.99,-97.52 231.56,-103.76 233.58,-97.06"/>
</g>
<!-- p0x7f95e7809810&#45;&gt;p0x7f95e78095d0 -->
<g id="edge90" class="edge">
<title>p0x7f95e7809810&#45;&gt;p0x7f95e78095d0</title>
<path fill="none" stroke="black" d="M446.98,-367.56C440.86,-365.02 434.2,-362.34 428,-360 386.21,-344.26 337.38,-328.01 305.64,-317.72"/>
<polygon fill="black" stroke="black" points="306.55,-314.34 295.96,-314.6 304.4,-321 306.55,-314.34"/>
</g>
<!-- p0x7f95e7809390 -->
<g id="node27" class="node">
<title>p0x7f95e7809390</title>
<ellipse fill="none" stroke="black" cx="272" cy="-234" rx="27" ry="18"/>
<text text-anchor="middle" x="272" y="-230.3" font-family="Times,serif" font-size="14.00">26</text>
</g>
<!-- p0x7f95e7809810&#45;&gt;p0x7f95e7809390 -->
<g id="edge91" class="edge">
<title>p0x7f95e7809810&#45;&gt;p0x7f95e7809390</title>
<path fill="none" stroke="black" d="M452.21,-363.68C429.71,-345.96 388.41,-313.87 352,-288 334.86,-275.82 315.17,-262.77 299.61,-252.66"/>
<polygon fill="black" stroke="black" points="301.28,-249.57 290.98,-247.08 297.48,-255.45 301.28,-249.57"/>
</g>
<!-- p0x7f95e7809c90&#45;&gt;p0x7f95e7809930 -->
<g id="edge74" class="edge">
<title>p0x7f95e7809c90&#45;&gt;p0x7f95e7809930</title>
<path fill="none" stroke="black" d="M264.53,-580.54C249.48,-570.16 227.88,-554.75 210,-540 173.86,-510.18 165.59,-501.66 133,-468 112.05,-446.37 89.53,-420.34 74.09,-402.03"/>
<polygon fill="black" stroke="black" points="76.64,-399.62 67.53,-394.21 71.28,-404.12 76.64,-399.62"/>
</g>
<!-- p0x7f95e7809c90&#45;&gt;p0x7f95e7809b70 -->
<g id="edge73" class="edge">
<title>p0x7f95e7809c90&#45;&gt;p0x7f95e7809b70</title>
<path fill="none" stroke="black" d="M294.93,-577.81C302.21,-568.55 311.66,-556.52 319.85,-546.09"/>
<polygon fill="black" stroke="black" points="322.66,-548.18 326.09,-538.16 317.16,-543.86 322.66,-548.18"/>
</g>
<!-- p0x7f95e7809c90&#45;&gt;p0x7f95e78096f0 -->
<g id="edge75" class="edge">
<title>p0x7f95e7809c90&#45;&gt;p0x7f95e78096f0</title>
<path fill="none" stroke="black" d="M277.94,-575.97C263.71,-528.08 223.26,-391.98 205.98,-333.85"/>
<polygon fill="black" stroke="black" points="209.24,-332.53 203.04,-323.94 202.53,-334.53 209.24,-332.53"/>
</g>
<!-- p0x7f95e7809c90&#45;&gt;p0x7f95e78095d0 -->
<g id="edge76" class="edge">
<title>p0x7f95e7809c90&#45;&gt;p0x7f95e78095d0</title>
<path fill="none" stroke="black" d="M282.34,-575.97C280.51,-528.29 275.31,-393.18 273.06,-334.63"/>
<polygon fill="black" stroke="black" points="276.55,-334.16 272.67,-324.31 269.55,-334.43 276.55,-334.16"/>
</g>
<!-- p0x7f95e7809930&#45;&gt;p0x7f95e78095d0 -->
<g id="edge85" class="edge">
<title>p0x7f95e7809930&#45;&gt;p0x7f95e78095d0</title>
<path fill="none" stroke="black" d="M79.95,-370.74C114.86,-361.72 180.04,-343.96 234,-324 236.37,-323.12 238.81,-322.17 241.24,-321.17"/>
<polygon fill="black" stroke="black" points="242.68,-324.36 250.5,-317.21 239.93,-317.92 242.68,-324.36"/>
</g>
<!-- p0x7f95e7809930&#45;&gt;p0x7f95e7809390 -->
<g id="edge87" class="edge">
<title>p0x7f95e7809930&#45;&gt;p0x7f95e7809390</title>
<path fill="none" stroke="black" d="M69.68,-362.78C89.49,-344.06 126.43,-310.87 162,-288 186.85,-272.02 217.25,-257.73 239.79,-248.03"/>
<polygon fill="black" stroke="black" points="241.39,-251.15 249.23,-244.03 238.66,-244.71 241.39,-251.15"/>
</g>
<!-- p0x7f95e78094b0 -->
<g id="node29" class="node">
<title>p0x7f95e78094b0</title>
<ellipse fill="none" stroke="black" cx="143" cy="-162" rx="27" ry="18"/>
<text text-anchor="middle" x="143" y="-158.3" font-family="Times,serif" font-size="14.00">25</text>
</g>
<!-- p0x7f95e7809930&#45;&gt;p0x7f95e78094b0 -->
<g id="edge86" class="edge">
<title>p0x7f95e7809930&#45;&gt;p0x7f95e78094b0</title>
<path fill="none" stroke="black" d="M61.76,-360.56C76.99,-323.53 114.08,-233.33 132.4,-188.78"/>
<polygon fill="black" stroke="black" points="135.65,-190.07 136.22,-179.49 129.18,-187.41 135.65,-190.07"/>
</g>
<!-- p0x7f95e7809030 -->
<g id="node30" class="node">
<title>p0x7f95e7809030</title>
<ellipse fill="none" stroke="black" cx="143" cy="-18" rx="27" ry="18"/>
<text text-anchor="middle" x="143" y="-14.3" font-family="Times,serif" font-size="14.00">29</text>
</g>
<!-- p0x7f95e7809930&#45;&gt;p0x7f95e7809030 -->
<g id="edge88" class="edge">
<title>p0x7f95e7809930&#45;&gt;p0x7f95e7809030</title>
<path fill="none" stroke="black" d="M51.64,-360.03C46.69,-333.48 38,-280.44 38,-235 38,-235 38,-235 38,-161 38,-108.31 85.31,-62.37 116.42,-37.87"/>
<polygon fill="black" stroke="black" points="118.89,-40.38 124.71,-31.53 114.64,-34.82 118.89,-40.38"/>
</g>
<!-- p0x7f95e7809ff0 -->
<g id="node22" class="node">
<title>p0x7f95e7809ff0</title>
<ellipse fill="none" stroke="black" cx="377" cy="-666" rx="27" ry="18"/>
<text text-anchor="middle" x="377" y="-662.3" font-family="Times,serif" font-size="14.00">15</text>
</g>
<!-- p0x7f95e7809ff0&#45;&gt;p0x7f95e7809db0 -->
<g id="edge61" class="edge">
<title>p0x7f95e7809ff0&#45;&gt;p0x7f95e7809db0</title>
<path fill="none" stroke="black" d="M354.46,-655.61C348.46,-653.13 341.99,-650.45 336,-648 296.51,-631.83 286.17,-628.91 247,-612 244.94,-611.11 242.83,-610.18 240.7,-609.24"/>
<polygon fill="black" stroke="black" points="242,-605.98 231.45,-605.06 239.12,-612.36 242,-605.98"/>
</g>
<!-- p0x7f95e7809ff0&#45;&gt;p0x7f95e7809810 -->
<g id="edge64" class="edge">
<title>p0x7f95e7809ff0&#45;&gt;p0x7f95e7809810</title>
<path fill="none" stroke="black" d="M382.48,-647.97C397.92,-599.98 441.85,-463.41 460.48,-405.49"/>
<polygon fill="black" stroke="black" points="463.82,-406.54 463.55,-395.94 457.16,-404.39 463.82,-406.54"/>
</g>
<!-- p0x7f95e7809ff0&#45;&gt;p0x7f95e7809c90 -->
<g id="edge62" class="edge">
<title>p0x7f95e7809ff0&#45;&gt;p0x7f95e7809c90</title>
<path fill="none" stroke="black" d="M359.32,-651.83C345.05,-641.21 324.78,-626.11 308.71,-614.15"/>
<polygon fill="black" stroke="black" points="310.39,-611.04 300.28,-607.87 306.21,-616.65 310.39,-611.04"/>
</g>
<!-- p0x7f95e7809ff0&#45;&gt;p0x7f95e7809b70 -->
<g id="edge63" class="edge">
<title>p0x7f95e7809ff0&#45;&gt;p0x7f95e7809b70</title>
<path fill="none" stroke="black" d="M372.08,-647.83C369.13,-637.46 365.31,-623.98 362,-612 356.28,-591.31 349.97,-567.86 345.25,-550.23"/>
<polygon fill="black" stroke="black" points="348.5,-548.84 342.54,-540.08 341.74,-550.64 348.5,-548.84"/>
</g>
<!-- p0x7f95e7809b70&#45;&gt;p0x7f95e7809a50 -->
<g id="edge77" class="edge">
<title>p0x7f95e7809b70&#45;&gt;p0x7f95e7809a50</title>
<path fill="none" stroke="black" d="M315.56,-511.7C286.06,-499.49 234.06,-477.95 200.6,-464.09"/>
<polygon fill="black" stroke="black" points="201.84,-460.82 191.27,-460.22 199.17,-467.28 201.84,-460.82"/>
</g>
<!-- p0x7f95e7809b70&#45;&gt;p0x7f95e78096f0 -->
<g id="edge78" class="edge">
<title>p0x7f95e7809b70&#45;&gt;p0x7f95e78096f0</title>
<path fill="none" stroke="black" d="M327.71,-505.26C303.48,-468.24 242.76,-375.41 213.82,-331.18"/>
<polygon fill="black" stroke="black" points="216.71,-329.21 208.31,-322.76 210.86,-333.04 216.71,-329.21"/>
</g>
<!-- p0x7f95e7809b70&#45;&gt;p0x7f95e7809390 -->
<g id="edge79" class="edge">
<title>p0x7f95e7809b70&#45;&gt;p0x7f95e7809390</title>
<path fill="none" stroke="black" d="M338.46,-503.97C338.98,-464.58 337.06,-364.66 308,-288 304.04,-277.55 297.64,-267.13 291.33,-258.34"/>
<polygon fill="black" stroke="black" points="293.96,-256.01 285.14,-250.14 288.37,-260.23 293.96,-256.01"/>
</g>
<!-- p0x7f95e7809270 -->
<g id="node28" class="node">
<title>p0x7f95e7809270</title>
<ellipse fill="none" stroke="black" cx="291" cy="-162" rx="27" ry="18"/>
<text text-anchor="middle" x="291" y="-158.3" font-family="Times,serif" font-size="14.00">27</text>
</g>
<!-- p0x7f95e7809b70&#45;&gt;p0x7f95e7809270 -->
<g id="edge80" class="edge">
<title>p0x7f95e7809b70&#45;&gt;p0x7f95e7809270</title>
<path fill="none" stroke="black" d="M345.51,-504.34C356.58,-478.2 376,-425.7 376,-379 376,-379 376,-379 376,-305 376,-256.57 339.15,-210.35 313.97,-184.43"/>
<polygon fill="black" stroke="black" points="316.14,-181.65 306.59,-177.06 311.19,-186.6 316.14,-181.65"/>
</g>
<!-- p0x7f95e78096f0&#45;&gt;p0x7f95e7809150 -->
<g id="edge95" class="edge">
<title>p0x7f95e78096f0&#45;&gt;p0x7f95e7809150</title>
<path fill="none" stroke="black" d="M198,-287.85C198,-250.83 198,-163.18 198,-118.39"/>
<polygon fill="black" stroke="black" points="201.5,-118.23 198,-108.23 194.5,-118.23 201.5,-118.23"/>
</g>
<!-- p0x7f95e78096f0&#45;&gt;p0x7f95e7809390 -->
<g id="edge94" class="edge">
<title>p0x7f95e78096f0&#45;&gt;p0x7f95e7809390</title>
<path fill="none" stroke="black" d="M212.98,-290.83C223.51,-280.87 237.78,-267.37 249.66,-256.14"/>
<polygon fill="black" stroke="black" points="252.19,-258.56 257.05,-249.14 247.38,-253.47 252.19,-258.56"/>
</g>
<!-- p0x7f95e78096f0&#45;&gt;p0x7f95e78094b0 -->
<g id="edge93" class="edge">
<title>p0x7f95e78096f0&#45;&gt;p0x7f95e78094b0</title>
<path fill="none" stroke="black" d="M191.58,-288.43C182.15,-264.09 164.46,-218.4 153.23,-189.4"/>
<polygon fill="black" stroke="black" points="156.42,-187.96 149.55,-179.9 149.89,-190.49 156.42,-187.96"/>
</g>
<!-- p0x7f95e7809150&#45;&gt;p0x7f95e7809030 -->
<g id="edge102" class="edge">
<title>p0x7f95e7809150&#45;&gt;p0x7f95e7809030</title>
<path fill="none" stroke="black" d="M186.07,-73.81C178.79,-64.55 169.34,-52.52 161.15,-42.09"/>
<polygon fill="black" stroke="black" points="163.84,-39.86 154.91,-34.16 158.34,-44.18 163.84,-39.86"/>
</g>
<!-- p0x7f95e78095d0&#45;&gt;p0x7f95e7809390 -->
<g id="edge96" class="edge">
<title>p0x7f95e78095d0&#45;&gt;p0x7f95e7809390</title>
<path fill="none" stroke="black" d="M272,-287.7C272,-279.98 272,-270.71 272,-262.11"/>
<polygon fill="black" stroke="black" points="275.5,-262.1 272,-252.1 268.5,-262.1 275.5,-262.1"/>
</g>
<!-- p0x7f95e7809390&#45;&gt;p0x7f95e7809150 -->
<g id="edge100" class="edge">
<title>p0x7f95e7809390&#45;&gt;p0x7f95e7809150</title>
<path fill="none" stroke="black" d="M263.51,-216.71C250.75,-192.23 226.53,-145.74 211.38,-116.67"/>
<polygon fill="black" stroke="black" points="214.34,-114.79 206.62,-107.54 208.14,-118.02 214.34,-114.79"/>
</g>
<!-- p0x7f95e7809390&#45;&gt;p0x7f95e7809270 -->
<g id="edge99" class="edge">
<title>p0x7f95e7809390&#45;&gt;p0x7f95e7809270</title>
<path fill="none" stroke="black" d="M276.6,-216.05C278.75,-208.14 281.35,-198.54 283.76,-189.69"/>
<polygon fill="black" stroke="black" points="287.2,-190.36 286.44,-179.79 280.45,-188.52 287.2,-190.36"/>
</g>
<!-- p0x7f95e7809270&#45;&gt;p0x7f95e7809150 -->
<g id="edge101" class="edge">
<title>p0x7f95e7809270&#45;&gt;p0x7f95e7809150</title>
<path fill="none" stroke="black" d="M273.51,-147.83C259.48,-137.27 239.58,-122.3 223.74,-110.37"/>
<polygon fill="black" stroke="black" points="225.51,-107.32 215.41,-104.11 221.3,-112.92 225.51,-107.32"/>
</g>
<!-- p0x7f95e78094b0&#45;&gt;p0x7f95e7809150 -->
<g id="edge97" class="edge">
<title>p0x7f95e78094b0&#45;&gt;p0x7f95e7809150</title>
<path fill="none" stroke="black" d="M154.93,-145.81C162.21,-136.55 171.66,-124.52 179.85,-114.09"/>
<polygon fill="black" stroke="black" points="182.66,-116.18 186.09,-106.16 177.16,-111.86 182.66,-116.18"/>
</g>
<!-- p0x7f95e78094b0&#45;&gt;p0x7f95e7809030 -->
<g id="edge98" class="edge">
<title>p0x7f95e78094b0&#45;&gt;p0x7f95e7809030</title>
<path fill="none" stroke="black" d="M143,-143.87C143,-119.67 143,-75.21 143,-46.39"/>
<polygon fill="black" stroke="black" points="146.5,-46.19 143,-36.19 139.5,-46.19 146.5,-46.19"/>
</g>
</g>
</svg>
