<?xml version="1.0" encoding="UTF-8" standalone="no"?>
<!DOCTYPE svg PUBLIC "-//W3C//DTD SVG 1.1//EN"
 "http://www.w3.org/Graphics/SVG/1.1/DTD/svg11.dtd">
<!-- Generated by graphviz version 12.2.1 (20241206.2353)
 -->
<!-- Title: Taskflow Pages: 1 -->
<svg width="519pt" height="373pt"
 viewBox="0.00 0.00 518.56 372.50" xmlns="http://www.w3.org/2000/svg" xmlns:xlink="http://www.w3.org/1999/xlink">
<g id="graph0" class="graph" transform="scale(1 1) rotate(0) translate(4 368.5)">
<title>Taskflow</title>
<polygon fill="white" stroke="none" points="-4,4 -4,-368.5 514.56,-368.5 514.56,4 -4,4"/>
<g id="clust1" class="cluster">
<title>cluster_p0x5558af971240</title>
<polygon fill="none" stroke="purple" points="104.28,-64 104.28,-356.5 290.28,-356.5 290.28,-64 104.28,-64"/>
<text text-anchor="middle" x="197.28" y="-339.2" font-family="Times,serif" font-size="14.00">cudaFlow: cudaFlow</text>
</g>
<!-- p0x5558af970f10 -->
<g id="node1" class="node">
<title>p0x5558af970f10</title>
<ellipse fill="none" stroke="black" cx="48.28" cy="-162" rx="48.28" ry="18"/>
<text text-anchor="middle" x="48.28" y="-156.95" font-family="Times,serif" font-size="14.00">allocate_a</text>
</g>
<!-- p0x5558af971240 -->
<g id="node2" class="node">
<title>p0x5558af971240</title>
<polygon fill="cyan" stroke="black" points="279.91,-108 276.91,-112 255.91,-112 252.91,-108 210.66,-108 210.66,-72 279.91,-72 279.91,-108"/>
<text text-anchor="middle" x="245.28" y="-84.95" font-family="Times,serif" font-size="14.00">cudaFlow</text>
</g>
<!-- p0x5558af970f10&#45;&gt;p0x5558af971240 -->
<g id="edge1" class="edge">
<title>p0x5558af970f10&#45;&gt;p0x5558af971240</title>
<path fill="none" stroke="black" d="M82.15,-148.97C114.55,-137.45 163.66,-120 199.53,-107.26"/>
<polygon fill="black" stroke="black" points="200.52,-110.62 208.77,-103.97 198.18,-104.02 200.52,-110.62"/>
</g>
<!-- p0x5558af971350 -->
<g id="node5" class="node">
<title>p0x5558af971350</title>
<ellipse fill="none" stroke="black" cx="245.28" cy="-18" rx="27" ry="18"/>
<text text-anchor="middle" x="245.28" y="-12.95" font-family="Times,serif" font-size="14.00">free</text>
</g>
<!-- p0x5558af971240&#45;&gt;p0x5558af971350 -->
<g id="edge4" class="edge">
<title>p0x5558af971240&#45;&gt;p0x5558af971350</title>
<path fill="none" stroke="black" d="M245.28,-71.7C245.28,-64.41 245.28,-55.73 245.28,-47.54"/>
<polygon fill="black" stroke="black" points="248.78,-47.62 245.28,-37.62 241.78,-47.62 248.78,-47.62"/>
</g>
<!-- p0x5558af971020 -->
<g id="node3" class="node">
<title>p0x5558af971020</title>
<ellipse fill="none" stroke="black" cx="347.28" cy="-162" rx="48.79" ry="18"/>
<text text-anchor="middle" x="347.28" y="-156.95" font-family="Times,serif" font-size="14.00">allocate_b</text>
</g>
<!-- p0x5558af971020&#45;&gt;p0x5558af971240 -->
<g id="edge2" class="edge">
<title>p0x5558af971020&#45;&gt;p0x5558af971240</title>
<path fill="none" stroke="black" d="M324.9,-145.64C311.72,-136.59 294.76,-124.96 279.89,-114.75"/>
<polygon fill="black" stroke="black" points="281.95,-111.92 271.73,-109.15 277.99,-117.69 281.95,-111.92"/>
</g>
<!-- p0x5558af971130 -->
<g id="node4" class="node">
<title>p0x5558af971130</title>
<ellipse fill="none" stroke="black" cx="462.28" cy="-162" rx="48.28" ry="18"/>
<text text-anchor="middle" x="462.28" y="-156.95" font-family="Times,serif" font-size="14.00">allocate_c</text>
</g>
<!-- p0x5558af971130&#45;&gt;p0x5558af971240 -->
<g id="edge3" class="edge">
<title>p0x5558af971130&#45;&gt;p0x5558af971240</title>
<path fill="none" stroke="black" d="M426.93,-149.6C389.94,-137.66 331.71,-118.88 291.18,-105.81"/>
<polygon fill="black" stroke="black" points="292.29,-102.49 281.69,-102.75 290.14,-109.15 292.29,-102.49"/>
</g>
<!-- p0x7f6fd8000b20 -->
<g id="node6" class="node">
<title>p0x7f6fd8000b20</title>
<ellipse fill="none" stroke="black" cx="150.28" cy="-306" rx="37.53" ry="18"/>
<text text-anchor="middle" x="150.28" y="-300.95" font-family="Times,serif" font-size="14.00">H2D_a</text>
</g>
<!-- p0x7f6fd8000db0 -->
<g id="node7" class="node">
<title>p0x7f6fd8000db0</title>
<polygon fill="black" stroke="white" points="272.66,-252 217.91,-252 213.91,-248 213.91,-216 268.66,-216 272.66,-220 272.66,-252"/>
<polyline fill="none" stroke="white" points="268.66,-248 213.91,-248"/>
<polyline fill="none" stroke="white" points="268.66,-248 268.66,-216"/>
<polyline fill="none" stroke="white" points="268.66,-248 272.66,-252"/>
<text text-anchor="middle" x="243.28" y="-228.95" font-family="Times,serif" font-size="14.00" fill="white">matmul</text>
</g>
<!-- p0x7f6fd8000b20&#45;&gt;p0x7f6fd8000db0 -->
<g id="edge5" class="edge">
<title>p0x7f6fd8000b20&#45;&gt;p0x7f6fd8000db0</title>
<path fill="none" stroke="black" d="M169.55,-290.5C181.48,-281.52 197.1,-269.76 210.9,-259.37"/>
<polygon fill="black" stroke="black" points="212.99,-262.18 218.88,-253.37 208.78,-256.59 212.99,-262.18"/>
</g>
<!-- p0x7f6fd8000ce0 -->
<g id="node9" class="node">
<title>p0x7f6fd8000ce0</title>
<ellipse fill="none" stroke="black" cx="243.28" cy="-162" rx="37.53" ry="18"/>
<text text-anchor="middle" x="243.28" y="-156.95" font-family="Times,serif" font-size="14.00">D2H_c</text>
</g>
<!-- p0x7f6fd8000db0&#45;&gt;p0x7f6fd8000ce0 -->
<g id="edge8" class="edge">
<title>p0x7f6fd8000db0&#45;&gt;p0x7f6fd8000ce0</title>
<path fill="none" stroke="black" d="M243.28,-215.7C243.28,-208.41 243.28,-199.73 243.28,-191.54"/>
<polygon fill="black" stroke="black" points="246.78,-191.62 243.28,-181.62 239.78,-191.62 246.78,-191.62"/>
</g>
<!-- p0x7f6fd8000c00 -->
<g id="node8" class="node">
<title>p0x7f6fd8000c00</title>
<ellipse fill="none" stroke="black" cx="244.28" cy="-306" rx="38.04" ry="18"/>
<text text-anchor="middle" x="244.28" y="-300.95" font-family="Times,serif" font-size="14.00">H2D_b</text>
</g>
<!-- p0x7f6fd8000c00&#45;&gt;p0x7f6fd8000db0 -->
<g id="edge6" class="edge">
<title>p0x7f6fd8000c00&#45;&gt;p0x7f6fd8000db0</title>
<path fill="none" stroke="black" d="M244.03,-287.7C243.93,-280.41 243.81,-271.73 243.69,-263.54"/>
<polygon fill="black" stroke="black" points="247.19,-263.57 243.55,-253.62 240.19,-263.67 247.19,-263.57"/>
</g>
<!-- p0x7f6fd8000ce0&#45;&gt;p0x5558af971240 -->
<g id="edge7" class="edge">
<title>p0x7f6fd8000ce0&#45;&gt;p0x5558af971240</title>
<path fill="none" stroke="black" d="M243.77,-143.7C243.98,-136.41 244.23,-127.73 244.47,-119.54"/>
<polygon fill="black" stroke="black" points="247.96,-119.71 244.75,-109.62 240.96,-119.51 247.96,-119.71"/>
</g>
</g>
</svg>
