<?xml version="1.0" encoding="UTF-8" standalone="no"?>
<!DOCTYPE svg PUBLIC "-//W3C//DTD SVG 1.1//EN"
 "http://www.w3.org/Graphics/SVG/1.1/DTD/svg11.dtd">
<!-- Generated by graphviz version 12.2.1 (20241206.2353)
 -->
<!-- Title: InclusiveScan Pages: 1 -->
<svg width="316pt" height="106pt"
 viewBox="0.00 0.00 316.48 105.90" xmlns="http://www.w3.org/2000/svg" xmlns:xlink="http://www.w3.org/1999/xlink">
<g id="graph0" class="graph" transform="scale(1 1) rotate(0) translate(4 101.9)">
<title>InclusiveScan</title>
<polygon fill="white" stroke="none" points="-4,4 -4,-101.9 312.48,-101.9 312.48,4 -4,4"/>
<!-- sp1 -->
<!-- sp2 -->
<!-- sp1&#45;&gt;sp2 -->
<!-- lbl_in -->
<g id="node3" class="node">
<title>lbl_in</title>
<polygon fill="white" stroke="none" points="69.76,-97.9 4.96,-97.9 4.96,-72.7 69.76,-72.7 69.76,-97.9"/>
<text text-anchor="middle" x="37.36" y="-80.28" font-family="Helvetica Bold" font-size="12.00">input</text>
</g>
<!-- i0 -->
<g id="node4" class="node">
<title>i0</title>
<polygon fill="#fde8d0" stroke="black" points="104.48,-97.9 74.24,-97.9 74.24,-72.7 104.48,-72.7 104.48,-97.9"/>
<text text-anchor="middle" x="89.36" y="-81.03" font-family="Courier New" font-size="12.00">1</text>
</g>
<!-- lbl_in&#45;&gt;i0 -->
<!-- i1 -->
<g id="node5" class="node">
<title>i1</title>
<polygon fill="#fde8d0" stroke="black" points="138.48,-97.9 108.24,-97.9 108.24,-72.7 138.48,-72.7 138.48,-97.9"/>
<text text-anchor="middle" x="123.36" y="-81.03" font-family="Courier New" font-size="12.00">2</text>
</g>
<!-- i0&#45;&gt;i1 -->
<!-- o0 -->
<g id="node12" class="node">
<title>o0</title>
<polygon fill="#d4edda" stroke="black" points="104.48,-28.95 74.24,-28.95 74.24,-3.75 104.48,-3.75 104.48,-28.95"/>
<text text-anchor="middle" x="89.36" y="-12.08" font-family="Courier New" font-size="12.00">1</text>
</g>
<!-- i0&#45;&gt;o0 -->
<g id="edge16" class="edge">
<title>i0&#45;&gt;o0</title>
<path fill="none" stroke="#2a7a2a" d="M89.36,-72.33C89.36,-62.72 89.36,-48.99 89.36,-37.66"/>
<polygon fill="#2a7a2a" stroke="#2a7a2a" points="91.81,-37.73 89.36,-30.73 86.91,-37.73 91.81,-37.73"/>
</g>
<!-- i2 -->
<g id="node6" class="node">
<title>i2</title>
<polygon fill="#fde8d0" stroke="black" points="172.48,-97.9 142.24,-97.9 142.24,-72.7 172.48,-72.7 172.48,-97.9"/>
<text text-anchor="middle" x="157.36" y="-81.03" font-family="Courier New" font-size="12.00">3</text>
</g>
<!-- i1&#45;&gt;i2 -->
<!-- o1 -->
<g id="node13" class="node">
<title>o1</title>
<polygon fill="#d4edda" stroke="black" points="138.48,-28.95 108.24,-28.95 108.24,-3.75 138.48,-3.75 138.48,-28.95"/>
<text text-anchor="middle" x="123.36" y="-12.08" font-family="Courier New" font-size="12.00">3</text>
</g>
<!-- i1&#45;&gt;o1 -->
<g id="edge17" class="edge">
<title>i1&#45;&gt;o1</title>
<path fill="none" stroke="#2a7a2a" d="M123.36,-72.33C123.36,-62.72 123.36,-48.99 123.36,-37.66"/>
<polygon fill="#2a7a2a" stroke="#2a7a2a" points="125.81,-37.73 123.36,-30.73 120.91,-37.73 125.81,-37.73"/>
</g>
<!-- i3 -->
<g id="node7" class="node">
<title>i3</title>
<polygon fill="#fde8d0" stroke="black" points="206.48,-97.9 176.24,-97.9 176.24,-72.7 206.48,-72.7 206.48,-97.9"/>
<text text-anchor="middle" x="191.36" y="-81.03" font-family="Courier New" font-size="12.00">4</text>
</g>
<!-- i2&#45;&gt;i3 -->
<!-- o2 -->
<g id="node14" class="node">
<title>o2</title>
<polygon fill="#d4edda" stroke="black" points="172.48,-28.95 142.24,-28.95 142.24,-3.75 172.48,-3.75 172.48,-28.95"/>
<text text-anchor="middle" x="157.36" y="-12.08" font-family="Courier New" font-size="12.00">6</text>
</g>
<!-- i2&#45;&gt;o2 -->
<g id="edge18" class="edge">
<title>i2&#45;&gt;o2</title>
<path fill="none" stroke="#2a7a2a" d="M157.36,-72.33C157.36,-62.72 157.36,-48.99 157.36,-37.66"/>
<polygon fill="#2a7a2a" stroke="#2a7a2a" points="159.81,-37.73 157.36,-30.73 154.91,-37.73 159.81,-37.73"/>
</g>
<!-- i4 -->
<g id="node8" class="node">
<title>i4</title>
<polygon fill="#fde8d0" stroke="black" points="240.48,-97.9 210.24,-97.9 210.24,-72.7 240.48,-72.7 240.48,-97.9"/>
<text text-anchor="middle" x="225.36" y="-81.03" font-family="Courier New" font-size="12.00">&#45;2</text>
</g>
<!-- i3&#45;&gt;i4 -->
<!-- o3 -->
<g id="node15" class="node">
<title>o3</title>
<polygon fill="#d4edda" stroke="black" points="206.48,-28.95 176.24,-28.95 176.24,-3.75 206.48,-3.75 206.48,-28.95"/>
<text text-anchor="middle" x="191.36" y="-12.08" font-family="Courier New" font-size="12.00">10</text>
</g>
<!-- i3&#45;&gt;o3 -->
<g id="edge19" class="edge">
<title>i3&#45;&gt;o3</title>
<path fill="none" stroke="#2a7a2a" d="M191.36,-72.33C191.36,-62.72 191.36,-48.99 191.36,-37.66"/>
<polygon fill="#2a7a2a" stroke="#2a7a2a" points="193.81,-37.73 191.36,-30.73 188.91,-37.73 193.81,-37.73"/>
</g>
<!-- i5 -->
<g id="node9" class="node">
<title>i5</title>
<polygon fill="#fde8d0" stroke="black" points="274.48,-97.9 244.24,-97.9 244.24,-72.7 274.48,-72.7 274.48,-97.9"/>
<text text-anchor="middle" x="259.36" y="-81.03" font-family="Courier New" font-size="12.00">1</text>
</g>
<!-- i4&#45;&gt;i5 -->
<!-- o4 -->
<g id="node16" class="node">
<title>o4</title>
<polygon fill="#d4edda" stroke="black" points="240.48,-28.95 210.24,-28.95 210.24,-3.75 240.48,-3.75 240.48,-28.95"/>
<text text-anchor="middle" x="225.36" y="-12.08" font-family="Courier New" font-size="12.00">8</text>
</g>
<!-- i4&#45;&gt;o4 -->
<g id="edge20" class="edge">
<title>i4&#45;&gt;o4</title>
<path fill="none" stroke="#2a7a2a" d="M225.36,-72.33C225.36,-62.72 225.36,-48.99 225.36,-37.66"/>
<polygon fill="#2a7a2a" stroke="#2a7a2a" points="227.81,-37.73 225.36,-30.73 222.91,-37.73 227.81,-37.73"/>
</g>
<!-- i6 -->
<g id="node10" class="node">
<title>i6</title>
<polygon fill="#fde8d0" stroke="black" points="308.48,-97.9 278.24,-97.9 278.24,-72.7 308.48,-72.7 308.48,-97.9"/>
<text text-anchor="middle" x="293.36" y="-81.03" font-family="Courier New" font-size="12.00">8</text>
</g>
<!-- i5&#45;&gt;i6 -->
<!-- o5 -->
<g id="node17" class="node">
<title>o5</title>
<polygon fill="#d4edda" stroke="black" points="274.48,-28.95 244.24,-28.95 244.24,-3.75 274.48,-3.75 274.48,-28.95"/>
<text text-anchor="middle" x="259.36" y="-12.08" font-family="Courier New" font-size="12.00">9</text>
</g>
<!-- i5&#45;&gt;o5 -->
<g id="edge21" class="edge">
<title>i5&#45;&gt;o5</title>
<path fill="none" stroke="#2a7a2a" d="M259.36,-72.33C259.36,-62.72 259.36,-48.99 259.36,-37.66"/>
<polygon fill="#2a7a2a" stroke="#2a7a2a" points="261.81,-37.73 259.36,-30.73 256.91,-37.73 261.81,-37.73"/>
</g>
<!-- o6 -->
<g id="node18" class="node">
<title>o6</title>
<polygon fill="#d4edda" stroke="black" points="308.48,-28.95 278.24,-28.95 278.24,-3.75 308.48,-3.75 308.48,-28.95"/>
<text text-anchor="middle" x="293.36" y="-12.08" font-family="Courier New" font-size="12.00">17</text>
</g>
<!-- i6&#45;&gt;o6 -->
<g id="edge22" class="edge">
<title>i6&#45;&gt;o6</title>
<path fill="none" stroke="#2a7a2a" d="M293.36,-72.33C293.36,-62.72 293.36,-48.99 293.36,-37.66"/>
<polygon fill="#2a7a2a" stroke="#2a7a2a" points="295.81,-37.73 293.36,-30.73 290.91,-37.73 295.81,-37.73"/>
</g>
<!-- lbl_out -->
<g id="node11" class="node">
<title>lbl_out</title>
<polygon fill="white" stroke="none" points="70.06,-32.7 4.66,-32.7 4.66,0 70.06,0 70.06,-32.7"/>
<text text-anchor="middle" x="37.36" y="-17.7" font-family="Helvetica Bold" font-size="12.00">inclusive</text>
<text text-anchor="middle" x="37.36" y="-4.95" font-family="Helvetica Bold" font-size="12.00">scan</text>
</g>
<!-- lbl_out&#45;&gt;o0 -->
<!-- o0&#45;&gt;o1 -->
<!-- o1&#45;&gt;o2 -->
<!-- o2&#45;&gt;o3 -->
<!-- o3&#45;&gt;o4 -->
<!-- o4&#45;&gt;o5 -->
<!-- o5&#45;&gt;o6 -->
</g>
</svg>
