<?xml version="1.0" encoding="UTF-8" standalone="no"?>
<!DOCTYPE svg PUBLIC "-//W3C//DTD SVG 1.1//EN"
 "http://www.w3.org/Graphics/SVG/1.1/DTD/svg11.dtd">
<!-- Generated by graphviz version 12.2.1 (20241206.2353)
 -->
<!-- Title: Taskflow Pages: 1 -->
<svg width="282pt" height="354pt"
 viewBox="0.00 0.00 282.00 354.00" xmlns="http://www.w3.org/2000/svg" xmlns:xlink="http://www.w3.org/1999/xlink">
<g id="graph0" class="graph" transform="scale(1 1) rotate(0) translate(4 350)">
<title>Taskflow</title>
<polygon fill="white" stroke="none" points="-4,4 -4,-350 278,-350 278,4 -4,4"/>
<g id="clust4" class="cluster">
<title>cluster0</title>
<polygon fill="none" stroke="black" stroke-dasharray="5,2" points="8,-261.5 8,-338 266,-338 266,-261.5 8,-261.5"/>
<text text-anchor="middle" x="137" y="-320.7" font-family="Times,serif" font-size="14.00">line 0</text>
</g>
<g id="clust5" class="cluster">
<title>cluster1</title>
<polygon fill="none" stroke="black" stroke-dasharray="5,2" points="8,-177 8,-253.5 266,-253.5 266,-177 8,-177"/>
<text text-anchor="middle" x="137" y="-236.2" font-family="Times,serif" font-size="14.00">line 1</text>
</g>
<g id="clust6" class="cluster">
<title>cluster2</title>
<polygon fill="none" stroke="black" stroke-dasharray="5,2" points="8,-92.5 8,-169 266,-169 266,-92.5 8,-92.5"/>
<text text-anchor="middle" x="137" y="-151.7" font-family="Times,serif" font-size="14.00">line 2</text>
</g>
<g id="clust7" class="cluster">
<title>cluster3</title>
<polygon fill="none" stroke="black" stroke-dasharray="5,2" points="8,-8 8,-84.5 266,-84.5 266,-8 8,-8"/>
<text text-anchor="middle" x="137" y="-67.2" font-family="Times,serif" font-size="14.00">line 3</text>
</g>
<!-- p00 -->
<g id="node1" class="node">
<title>p00</title>
<ellipse fill="none" stroke="black" cx="50" cy="-287.5" rx="34.46" ry="18"/>
<text text-anchor="middle" x="50" y="-282.45" font-family="Times,serif" font-size="14.00">pipe&#45;0</text>
</g>
<!-- p10 -->
<g id="node2" class="node">
<title>p10</title>
<ellipse fill="none" stroke="black" cx="50" cy="-203" rx="34.46" ry="18"/>
<text text-anchor="middle" x="50" y="-197.95" font-family="Times,serif" font-size="14.00">pipe&#45;0</text>
</g>
<!-- p00&#45;&gt;p10 -->
<g id="edge9" class="edge">
<title>p00&#45;&gt;p10</title>
<path fill="none" stroke="black" d="M50,-269C50,-258.5 50,-244.89 50,-232.83"/>
<polygon fill="black" stroke="black" points="53.5,-232.98 50,-222.98 46.5,-232.98 53.5,-232.98"/>
</g>
<!-- p01 -->
<g id="node5" class="node">
<title>p01</title>
<ellipse fill="none" stroke="black" cx="137" cy="-287.5" rx="34.46" ry="18"/>
<text text-anchor="middle" x="137" y="-282.45" font-family="Times,serif" font-size="14.00">pipe&#45;1</text>
</g>
<!-- p00&#45;&gt;p01 -->
<g id="edge1" class="edge">
<title>p00&#45;&gt;p01</title>
<path fill="none" stroke="black" d="M84.66,-287.5C86.77,-287.5 88.88,-287.5 90.98,-287.5"/>
<polygon fill="black" stroke="black" points="90.73,-291 100.73,-287.5 90.73,-284 90.73,-291"/>
</g>
<!-- p20 -->
<g id="node3" class="node">
<title>p20</title>
<ellipse fill="none" stroke="black" cx="50" cy="-118.5" rx="34.46" ry="18"/>
<text text-anchor="middle" x="50" y="-113.45" font-family="Times,serif" font-size="14.00">pipe&#45;0</text>
</g>
<!-- p10&#45;&gt;p20 -->
<g id="edge11" class="edge">
<title>p10&#45;&gt;p20</title>
<path fill="none" stroke="black" d="M50,-184.5C50,-174 50,-160.39 50,-148.33"/>
<polygon fill="black" stroke="black" points="53.5,-148.48 50,-138.48 46.5,-148.48 53.5,-148.48"/>
</g>
<!-- p11 -->
<g id="node6" class="node">
<title>p11</title>
<ellipse fill="none" stroke="black" cx="137" cy="-203" rx="34.46" ry="18"/>
<text text-anchor="middle" x="137" y="-197.95" font-family="Times,serif" font-size="14.00">pipe&#45;1</text>
</g>
<!-- p10&#45;&gt;p11 -->
<g id="edge3" class="edge">
<title>p10&#45;&gt;p11</title>
<path fill="none" stroke="black" d="M84.66,-203C86.77,-203 88.88,-203 90.98,-203"/>
<polygon fill="black" stroke="black" points="90.73,-206.5 100.73,-203 90.73,-199.5 90.73,-206.5"/>
</g>
<!-- p30 -->
<g id="node4" class="node">
<title>p30</title>
<ellipse fill="none" stroke="black" cx="50" cy="-34" rx="34.46" ry="18"/>
<text text-anchor="middle" x="50" y="-28.95" font-family="Times,serif" font-size="14.00">pipe&#45;0</text>
</g>
<!-- p20&#45;&gt;p30 -->
<g id="edge13" class="edge">
<title>p20&#45;&gt;p30</title>
<path fill="none" stroke="black" d="M50,-100C50,-89.5 50,-75.89 50,-63.83"/>
<polygon fill="black" stroke="black" points="53.5,-63.98 50,-53.98 46.5,-63.98 53.5,-63.98"/>
</g>
<!-- p21 -->
<g id="node7" class="node">
<title>p21</title>
<ellipse fill="none" stroke="black" cx="137" cy="-118.5" rx="34.46" ry="18"/>
<text text-anchor="middle" x="137" y="-113.45" font-family="Times,serif" font-size="14.00">pipe&#45;1</text>
</g>
<!-- p20&#45;&gt;p21 -->
<g id="edge5" class="edge">
<title>p20&#45;&gt;p21</title>
<path fill="none" stroke="black" d="M84.66,-118.5C86.77,-118.5 88.88,-118.5 90.98,-118.5"/>
<polygon fill="black" stroke="black" points="90.73,-122 100.73,-118.5 90.73,-115 90.73,-122"/>
</g>
<!-- p31 -->
<g id="node8" class="node">
<title>p31</title>
<ellipse fill="none" stroke="black" cx="137" cy="-34" rx="34.46" ry="18"/>
<text text-anchor="middle" x="137" y="-28.95" font-family="Times,serif" font-size="14.00">pipe&#45;1</text>
</g>
<!-- p30&#45;&gt;p31 -->
<g id="edge7" class="edge">
<title>p30&#45;&gt;p31</title>
<path fill="none" stroke="black" d="M84.66,-34C86.77,-34 88.88,-34 90.98,-34"/>
<polygon fill="black" stroke="black" points="90.73,-37.5 100.73,-34 90.73,-30.5 90.73,-37.5"/>
</g>
<!-- p02 -->
<g id="node9" class="node">
<title>p02</title>
<ellipse fill="none" stroke="black" cx="224" cy="-287.5" rx="34.46" ry="18"/>
<text text-anchor="middle" x="224" y="-282.45" font-family="Times,serif" font-size="14.00">pipe&#45;2</text>
</g>
<!-- p01&#45;&gt;p02 -->
<g id="edge2" class="edge">
<title>p01&#45;&gt;p02</title>
<path fill="none" stroke="black" d="M171.66,-287.5C173.77,-287.5 175.88,-287.5 177.98,-287.5"/>
<polygon fill="black" stroke="black" points="177.73,-291 187.73,-287.5 177.73,-284 177.73,-291"/>
</g>
<!-- p12 -->
<g id="node10" class="node">
<title>p12</title>
<ellipse fill="none" stroke="black" cx="224" cy="-203" rx="34.46" ry="18"/>
<text text-anchor="middle" x="224" y="-197.95" font-family="Times,serif" font-size="14.00">pipe&#45;2</text>
</g>
<!-- p11&#45;&gt;p12 -->
<g id="edge4" class="edge">
<title>p11&#45;&gt;p12</title>
<path fill="none" stroke="black" d="M171.66,-203C173.77,-203 175.88,-203 177.98,-203"/>
<polygon fill="black" stroke="black" points="177.73,-206.5 187.73,-203 177.73,-199.5 177.73,-206.5"/>
</g>
<!-- p22 -->
<g id="node11" class="node">
<title>p22</title>
<ellipse fill="none" stroke="black" cx="224" cy="-118.5" rx="34.46" ry="18"/>
<text text-anchor="middle" x="224" y="-113.45" font-family="Times,serif" font-size="14.00">pipe&#45;2</text>
</g>
<!-- p21&#45;&gt;p22 -->
<g id="edge6" class="edge">
<title>p21&#45;&gt;p22</title>
<path fill="none" stroke="black" d="M171.66,-118.5C173.77,-118.5 175.88,-118.5 177.98,-118.5"/>
<polygon fill="black" stroke="black" points="177.73,-122 187.73,-118.5 177.73,-115 177.73,-122"/>
</g>
<!-- p32 -->
<g id="node12" class="node">
<title>p32</title>
<ellipse fill="none" stroke="black" cx="224" cy="-34" rx="34.46" ry="18"/>
<text text-anchor="middle" x="224" y="-28.95" font-family="Times,serif" font-size="14.00">pipe&#45;2</text>
</g>
<!-- p31&#45;&gt;p32 -->
<g id="edge8" class="edge">
<title>p31&#45;&gt;p32</title>
<path fill="none" stroke="black" d="M171.66,-34C173.77,-34 175.88,-34 177.98,-34"/>
<polygon fill="black" stroke="black" points="177.73,-37.5 187.73,-34 177.73,-30.5 177.73,-37.5"/>
</g>
<!-- p02&#45;&gt;p12 -->
<g id="edge10" class="edge">
<title>p02&#45;&gt;p12</title>
<path fill="none" stroke="black" d="M224,-269C224,-258.5 224,-244.89 224,-232.83"/>
<polygon fill="black" stroke="black" points="227.5,-232.98 224,-222.98 220.5,-232.98 227.5,-232.98"/>
</g>
<!-- p12&#45;&gt;p22 -->
<g id="edge12" class="edge">
<title>p12&#45;&gt;p22</title>
<path fill="none" stroke="black" d="M224,-184.5C224,-174 224,-160.39 224,-148.33"/>
<polygon fill="black" stroke="black" points="227.5,-148.48 224,-138.48 220.5,-148.48 227.5,-148.48"/>
</g>
<!-- p22&#45;&gt;p32 -->
<g id="edge14" class="edge">
<title>p22&#45;&gt;p32</title>
<path fill="none" stroke="black" d="M224,-100C224,-89.5 224,-75.89 224,-63.83"/>
<polygon fill="black" stroke="black" points="227.5,-63.98 224,-53.98 220.5,-63.98 227.5,-63.98"/>
</g>
</g>
</svg>
