<?xml version="1.0" encoding="UTF-8" standalone="no"?>
<!DOCTYPE svg PUBLIC "-//W3C//DTD SVG 1.1//EN"
 "http://www.w3.org/Graphics/SVG/1.1/DTD/svg11.dtd">
<!-- Generated by graphviz version 12.2.1 (20241206.2353)
 -->
<!-- Title: G Pages: 1 -->
<svg width="466pt" height="317pt"
 viewBox="0.00 0.00 466.00 316.50" xmlns="http://www.w3.org/2000/svg" xmlns:xlink="http://www.w3.org/1999/xlink">
<g id="graph0" class="graph" transform="scale(1 1) rotate(0) translate(4 312.5)">
<title>G</title>
<polygon fill="white" stroke="none" points="-4,4 -4,-312.5 462,-312.5 462,4 -4,4"/>
<g id="clust1" class="cluster">
<title>cluster_1</title>
<polygon fill="none" stroke="black" points="8,-80 8,-300.5 150,-300.5 150,-80 8,-80"/>
<text text-anchor="middle" x="79" y="-283.2" font-family="Times,serif" font-size="14.00">taskflow1</text>
</g>
<g id="clust2" class="cluster">
<title>cluster_2</title>
<polygon fill="none" stroke="black" points="158,-8 158,-300.5 228,-300.5 228,-8 158,-8"/>
<text text-anchor="middle" x="193" y="-283.2" font-family="Times,serif" font-size="14.00">taskflow2</text>
</g>
<g id="clust3" class="cluster">
<title>cluster_3</title>
<polygon fill="none" stroke="black" points="236,-152 236,-300.5 450,-300.5 450,-152 236,-152"/>
<text text-anchor="middle" x="343" y="-283.2" font-family="Times,serif" font-size="14.00">taskflow3</text>
</g>
<!-- A1 -->
<g id="node1" class="node">
<title>A1</title>
<ellipse fill="none" stroke="black" cx="79" cy="-250" rx="27" ry="18"/>
<text text-anchor="middle" x="79" y="-244.95" font-family="Times,serif" font-size="14.00">A1</text>
</g>
<!-- B1 -->
<g id="node2" class="node">
<title>B1</title>
<ellipse fill="none" stroke="black" cx="43" cy="-178" rx="27" ry="18"/>
<text text-anchor="middle" x="43" y="-172.95" font-family="Times,serif" font-size="14.00">B1</text>
</g>
<!-- A1&#45;&gt;B1 -->
<g id="edge1" class="edge">
<title>A1&#45;&gt;B1</title>
<path fill="none" stroke="black" d="M70.65,-232.76C66.42,-224.55 61.19,-214.37 56.42,-205.09"/>
<polygon fill="black" stroke="black" points="59.68,-203.79 52,-196.49 53.46,-206.99 59.68,-203.79"/>
</g>
<!-- C1 -->
<g id="node3" class="node">
<title>C1</title>
<ellipse fill="none" stroke="black" cx="115" cy="-178" rx="27" ry="18"/>
<text text-anchor="middle" x="115" y="-172.95" font-family="Times,serif" font-size="14.00">C1</text>
</g>
<!-- A1&#45;&gt;C1 -->
<g id="edge2" class="edge">
<title>A1&#45;&gt;C1</title>
<path fill="none" stroke="black" d="M87.35,-232.76C91.58,-224.55 96.81,-214.37 101.58,-205.09"/>
<polygon fill="black" stroke="black" points="104.54,-206.99 106,-196.49 98.32,-203.79 104.54,-206.99"/>
</g>
<!-- D1 -->
<g id="node4" class="node">
<title>D1</title>
<ellipse fill="none" stroke="black" cx="79" cy="-106" rx="27" ry="18"/>
<text text-anchor="middle" x="79" y="-100.95" font-family="Times,serif" font-size="14.00">D1</text>
</g>
<!-- B1&#45;&gt;D1 -->
<g id="edge3" class="edge">
<title>B1&#45;&gt;D1</title>
<path fill="none" stroke="black" d="M51.35,-160.76C55.58,-152.55 60.81,-142.37 65.58,-133.09"/>
<polygon fill="black" stroke="black" points="68.54,-134.99 70,-124.49 62.32,-131.79 68.54,-134.99"/>
</g>
<!-- C1&#45;&gt;D1 -->
<g id="edge4" class="edge">
<title>C1&#45;&gt;D1</title>
<path fill="none" stroke="black" d="M106.65,-160.76C102.42,-152.55 97.19,-142.37 92.42,-133.09"/>
<polygon fill="black" stroke="black" points="95.68,-131.79 88,-124.49 89.46,-134.99 95.68,-131.79"/>
</g>
<!-- A2 -->
<g id="node5" class="node">
<title>A2</title>
<ellipse fill="none" stroke="black" cx="193" cy="-250" rx="27" ry="18"/>
<text text-anchor="middle" x="193" y="-244.95" font-family="Times,serif" font-size="14.00">A2</text>
</g>
<!-- B2 -->
<g id="node6" class="node">
<title>B2</title>
<ellipse fill="none" stroke="black" cx="193" cy="-178" rx="27" ry="18"/>
<text text-anchor="middle" x="193" y="-172.95" font-family="Times,serif" font-size="14.00">B2</text>
</g>
<!-- A2&#45;&gt;B2 -->
<g id="edge5" class="edge">
<title>A2&#45;&gt;B2</title>
<path fill="none" stroke="black" d="M193,-231.7C193,-224.41 193,-215.73 193,-207.54"/>
<polygon fill="black" stroke="black" points="196.5,-207.62 193,-197.62 189.5,-207.62 196.5,-207.62"/>
</g>
<!-- C2 -->
<g id="node7" class="node">
<title>C2</title>
<ellipse fill="none" stroke="black" cx="193" cy="-106" rx="27" ry="18"/>
<text text-anchor="middle" x="193" y="-100.95" font-family="Times,serif" font-size="14.00">C2</text>
</g>
<!-- B2&#45;&gt;C2 -->
<g id="edge6" class="edge">
<title>B2&#45;&gt;C2</title>
<path fill="none" stroke="black" d="M193,-159.7C193,-152.41 193,-143.73 193,-135.54"/>
<polygon fill="black" stroke="black" points="196.5,-135.62 193,-125.62 189.5,-135.62 196.5,-135.62"/>
</g>
<!-- D2 -->
<g id="node8" class="node">
<title>D2</title>
<ellipse fill="none" stroke="black" cx="193" cy="-34" rx="27" ry="18"/>
<text text-anchor="middle" x="193" y="-28.95" font-family="Times,serif" font-size="14.00">D2</text>
</g>
<!-- C2&#45;&gt;D2 -->
<g id="edge7" class="edge">
<title>C2&#45;&gt;D2</title>
<path fill="none" stroke="black" d="M193,-87.7C193,-80.41 193,-71.73 193,-63.54"/>
<polygon fill="black" stroke="black" points="196.5,-63.62 193,-53.62 189.5,-63.62 196.5,-63.62"/>
</g>
<!-- A3 -->
<g id="node9" class="node">
<title>A3</title>
<ellipse fill="none" stroke="black" cx="343" cy="-250" rx="27" ry="18"/>
<text text-anchor="middle" x="343" y="-244.95" font-family="Times,serif" font-size="14.00">A3</text>
</g>
<!-- B3 -->
<g id="node10" class="node">
<title>B3</title>
<ellipse fill="none" stroke="black" cx="271" cy="-178" rx="27" ry="18"/>
<text text-anchor="middle" x="271" y="-172.95" font-family="Times,serif" font-size="14.00">B3</text>
</g>
<!-- A3&#45;&gt;B3 -->
<g id="edge8" class="edge">
<title>A3&#45;&gt;B3</title>
<path fill="none" stroke="black" d="M328.08,-234.5C318.23,-224.92 305.14,-212.19 293.97,-201.34"/>
<polygon fill="black" stroke="black" points="296.59,-199 286.98,-194.54 291.71,-204.02 296.59,-199"/>
</g>
<!-- C3 -->
<g id="node11" class="node">
<title>C3</title>
<ellipse fill="none" stroke="black" cx="343" cy="-178" rx="27" ry="18"/>
<text text-anchor="middle" x="343" y="-172.95" font-family="Times,serif" font-size="14.00">C3</text>
</g>
<!-- A3&#45;&gt;C3 -->
<g id="edge9" class="edge">
<title>A3&#45;&gt;C3</title>
<path fill="none" stroke="black" d="M343,-231.7C343,-224.41 343,-215.73 343,-207.54"/>
<polygon fill="black" stroke="black" points="346.5,-207.62 343,-197.62 339.5,-207.62 346.5,-207.62"/>
</g>
<!-- D3 -->
<g id="node12" class="node">
<title>D3</title>
<ellipse fill="none" stroke="black" cx="415" cy="-178" rx="27" ry="18"/>
<text text-anchor="middle" x="415" y="-172.95" font-family="Times,serif" font-size="14.00">D3</text>
</g>
<!-- A3&#45;&gt;D3 -->
<g id="edge10" class="edge">
<title>A3&#45;&gt;D3</title>
<path fill="none" stroke="black" d="M357.92,-234.5C367.77,-224.92 380.86,-212.19 392.03,-201.34"/>
<polygon fill="black" stroke="black" points="394.29,-204.02 399.02,-194.54 389.41,-199 394.29,-204.02"/>
</g>
</g>
</svg>
