<?xml version="1.0" encoding="UTF-8" standalone="no"?>
<!DOCTYPE svg PUBLIC "-//W3C//DTD SVG 1.1//EN"
 "http://www.w3.org/Graphics/SVG/1.1/DTD/svg11.dtd">
<!-- Generated by graphviz version 12.2.1 (20241206.2353)
 -->
<!-- Title: Taskflow Pages: 1 -->
<svg width="650pt" height="116pt"
 viewBox="0.00 0.00 650.47 116.00" xmlns="http://www.w3.org/2000/svg" xmlns:xlink="http://www.w3.org/1999/xlink">
<g id="graph0" class="graph" transform="scale(1 1) rotate(0) translate(4 112)">
<title>Taskflow</title>
<polygon fill="white" stroke="none" points="-4,4 -4,-112 646.47,-112 646.47,4 -4,4"/>
<!-- p0xce2720 -->
<g id="node1" class="node">
<title>p0xce2720</title>
<ellipse fill="none" stroke="black" cx="321.23" cy="-18" rx="125.05" ry="18"/>
<text text-anchor="middle" x="321.23" y="-12.95" font-family="Times,serif" font-size="14.00">[0, 100) with the step size of 2</text>
</g>
<!-- p0x7f322c000b50 -->
<g id="node2" class="node">
<title>p0x7f322c000b50</title>
<ellipse fill="none" stroke="black" cx="46.23" cy="-90" rx="46.23" ry="18"/>
<text text-anchor="middle" x="46.23" y="-84.95" font-family="Times,serif" font-size="14.00">worker_0</text>
</g>
<!-- p0x7f322c000b50&#45;&gt;p0xce2720 -->
<g id="edge1" class="edge">
<title>p0x7f322c000b50&#45;&gt;p0xce2720</title>
<path fill="none" stroke="black" d="M81.05,-77.87C87.73,-75.84 94.68,-73.8 101.23,-72 148.53,-59.01 202.02,-46.08 244.41,-36.25"/>
<polygon fill="black" stroke="black" points="245.06,-39.69 254.02,-34.03 243.49,-32.87 245.06,-39.69"/>
</g>
<!-- p0x7f322c000c58 -->
<g id="node3" class="node">
<title>p0x7f322c000c58</title>
<ellipse fill="none" stroke="black" cx="156.23" cy="-90" rx="46.23" ry="18"/>
<text text-anchor="middle" x="156.23" y="-84.95" font-family="Times,serif" font-size="14.00">worker_1</text>
</g>
<!-- p0x7f322c000c58&#45;&gt;p0xce2720 -->
<g id="edge2" class="edge">
<title>p0x7f322c000c58&#45;&gt;p0xce2720</title>
<path fill="none" stroke="black" d="M186.5,-76.16C210.42,-66.01 244.3,-51.64 272.1,-39.84"/>
<polygon fill="black" stroke="black" points="273.19,-43.18 281.03,-36.06 270.46,-36.74 273.19,-43.18"/>
</g>
<!-- p0x7f322c000d60 -->
<g id="node4" class="node">
<title>p0x7f322c000d60</title>
<ellipse fill="none" stroke="black" cx="266.23" cy="-90" rx="46.23" ry="18"/>
<text text-anchor="middle" x="266.23" y="-84.95" font-family="Times,serif" font-size="14.00">worker_2</text>
</g>
<!-- p0x7f322c000d60&#45;&gt;p0xce2720 -->
<g id="edge3" class="edge">
<title>p0x7f322c000d60&#45;&gt;p0xce2720</title>
<path fill="none" stroke="black" d="M279.27,-72.41C285.75,-64.16 293.73,-54.01 300.98,-44.78"/>
<polygon fill="black" stroke="black" points="303.55,-47.17 306.98,-37.15 298.05,-42.85 303.55,-47.17"/>
</g>
<!-- p0x7f322c000e68 -->
<g id="node5" class="node">
<title>p0x7f322c000e68</title>
<ellipse fill="none" stroke="black" cx="376.23" cy="-90" rx="46.23" ry="18"/>
<text text-anchor="middle" x="376.23" y="-84.95" font-family="Times,serif" font-size="14.00">worker_3</text>
</g>
<!-- p0x7f322c000e68&#45;&gt;p0xce2720 -->
<g id="edge4" class="edge">
<title>p0x7f322c000e68&#45;&gt;p0xce2720</title>
<path fill="none" stroke="black" d="M363.2,-72.41C356.72,-64.16 348.74,-54.01 341.49,-44.78"/>
<polygon fill="black" stroke="black" points="344.42,-42.85 335.49,-37.15 338.92,-47.17 344.42,-42.85"/>
</g>
<!-- p0x7f322c000f70 -->
<g id="node6" class="node">
<title>p0x7f322c000f70</title>
<ellipse fill="none" stroke="black" cx="486.23" cy="-90" rx="46.23" ry="18"/>
<text text-anchor="middle" x="486.23" y="-84.95" font-family="Times,serif" font-size="14.00">worker_4</text>
</g>
<!-- p0x7f322c000f70&#45;&gt;p0xce2720 -->
<g id="edge5" class="edge">
<title>p0x7f322c000f70&#45;&gt;p0xce2720</title>
<path fill="none" stroke="black" d="M455.97,-76.16C432.05,-66.01 398.17,-51.64 370.37,-39.84"/>
<polygon fill="black" stroke="black" points="372.01,-36.74 361.44,-36.06 369.27,-43.18 372.01,-36.74"/>
</g>
<!-- p0x7f322c001078 -->
<g id="node7" class="node">
<title>p0x7f322c001078</title>
<ellipse fill="none" stroke="black" cx="596.23" cy="-90" rx="46.23" ry="18"/>
<text text-anchor="middle" x="596.23" y="-84.95" font-family="Times,serif" font-size="14.00">worker_5</text>
</g>
<!-- p0x7f322c001078&#45;&gt;p0xce2720 -->
<g id="edge6" class="edge">
<title>p0x7f322c001078&#45;&gt;p0xce2720</title>
<path fill="none" stroke="black" d="M561.42,-77.87C554.74,-75.84 547.79,-73.8 541.23,-72 493.94,-59.01 440.45,-46.08 398.06,-36.25"/>
<polygon fill="black" stroke="black" points="398.98,-32.87 388.45,-34.03 397.4,-39.69 398.98,-32.87"/>
</g>
</g>
</svg>
