<?xml version="1.0" encoding="UTF-8" standalone="no"?>
<!DOCTYPE svg PUBLIC "-//W3C//DTD SVG 1.1//EN"
 "http://www.w3.org/Graphics/SVG/1.1/DTD/svg11.dtd">
<!-- Generated by graphviz version 2.43.0 (0)
 -->
<!-- Title: Taskflow Pages: 1 -->
<svg width="1542pt" height="691pt"
 viewBox="0.00 0.00 1541.84 690.53" xmlns="http://www.w3.org/2000/svg" xmlns:xlink="http://www.w3.org/1999/xlink">
<g id="graph0" class="graph" transform="scale(1 1) rotate(0) translate(4 686.53)">
<title>Taskflow</title>
<polygon fill="white" stroke="transparent" points="-4,4 -4,-686.53 1537.84,-686.53 1537.84,4 -4,4"/>
<g id="clust1" class="cluster">
<title>cluster_p0x55f824e16950</title>
<polygon fill="none" stroke="purple" points="572.01,-366 572.01,-549 944.89,-549 944.89,-366 572.01,-366"/>
<text text-anchor="middle" x="758.45" y="-533.8" font-family="Times,serif" font-size="14.00">cudaFlow: h2d_constant</text>
</g>
<g id="clust2" class="cluster">
<title>cluster_p0x55f824e16ea0</title>
<polygon fill="none" stroke="purple" points="543.41,-129 543.41,-312 936.39,-312 936.39,-129 543.41,-129"/>
<text text-anchor="middle" x="739.9" y="-296.8" font-family="Times,serif" font-size="14.00">cudaFlow: [0]mis_h2d</text>
</g>
<g id="clust3" class="cluster">
<title>cluster_p0x55f824e170c0</title>
<polygon fill="none" stroke="purple" points="8,-387 8,-516 498.97,-516 498.97,-387 8,-387"/>
<text text-anchor="middle" x="253.48" y="-500.8" font-family="Times,serif" font-size="14.00">cudaFlow: [0]mis_loop_k</text>
</g>
<g id="clust4" class="cluster">
<title>cluster_p0x55f824e173f0</title>
<polygon fill="none" stroke="purple" points="777.99,-46 777.99,-121 1168.07,-121 1168.07,-46 777.99,-46"/>
<text text-anchor="middle" x="973.03" y="-105.8" font-family="Times,serif" font-size="14.00">cudaFlow: [0]mis_loop_end</text>
</g>
<!-- p0x55f824e15da0 -->
<g id="node1" class="node">
<title>p0x55f824e15da0</title>
<ellipse fill="none" stroke="black" cx="648.25" cy="-629" rx="77.99" ry="18"/>
<text text-anchor="middle" x="648.25" y="-625.3" font-family="Times,serif" font-size="14.00">new_net_mask</text>
</g>
<!-- p0x55f824e16950 -->
<g id="node2" class="node">
<title>p0x55f824e16950</title>
<polygon fill="cyan" stroke="black" points="936.89,-506 933.89,-510 912.89,-510 909.89,-506 824.89,-506 824.89,-470 936.89,-470 936.89,-506"/>
<text text-anchor="middle" x="880.89" y="-484.3" font-family="Times,serif" font-size="14.00">h2d_constant</text>
</g>
<!-- p0x55f824e15da0&#45;&gt;p0x55f824e16950 -->
<g id="edge1" class="edge">
<title>p0x55f824e15da0&#45;&gt;p0x55f824e16950</title>
<path fill="none" stroke="black" d="M708.96,-617.55C722.57,-613.67 736.65,-608.59 748.99,-602 791.88,-579.1 832.69,-539.8 857.01,-513.85"/>
<polygon fill="black" stroke="black" points="859.81,-515.99 864.02,-506.26 854.66,-511.24 859.81,-515.99"/>
</g>
<!-- p0x55f824e16fb0 -->
<g id="node4" class="node">
<title>p0x55f824e16fb0</title>
<ellipse fill="none" stroke="black" cx="1094.57" cy="-432" rx="72.59" ry="18"/>
<text text-anchor="middle" x="1094.57" y="-428.3" font-family="Times,serif" font-size="14.00">mis_loop_beg</text>
</g>
<!-- p0x55f824e16950&#45;&gt;p0x55f824e16fb0 -->
<g id="edge3" class="edge">
<title>p0x55f824e16950&#45;&gt;p0x55f824e16fb0</title>
<path fill="none" stroke="black" d="M936.95,-473.43C966.91,-465.51 1003.98,-455.7 1034.53,-447.62"/>
<polygon fill="black" stroke="black" points="1035.43,-451 1044.2,-445.06 1033.64,-444.23 1035.43,-451"/>
</g>
<!-- p0x55f824e160d0 -->
<g id="node3" class="node">
<title>p0x55f824e160d0</title>
<ellipse fill="none" stroke="black" cx="648.25" cy="-575" rx="69.59" ry="18"/>
<text text-anchor="middle" x="648.25" y="-571.3" font-family="Times,serif" font-size="14.00">new_pin2net</text>
</g>
<!-- p0x55f824e160d0&#45;&gt;p0x55f824e16950 -->
<g id="edge2" class="edge">
<title>p0x55f824e160d0&#45;&gt;p0x55f824e16950</title>
<path fill="none" stroke="black" d="M706.11,-564.97C720.31,-561.78 735.37,-557.81 748.99,-553 780.64,-541.84 814.52,-524.86 839.89,-511.06"/>
<polygon fill="black" stroke="black" points="841.76,-514.02 848.83,-506.13 838.38,-507.89 841.76,-514.02"/>
</g>
<!-- p0x55f824e170c0 -->
<g id="node16" class="node">
<title>p0x55f824e170c0</title>
<polygon fill="cyan" stroke="black" points="490.97,-458 487.97,-462 466.97,-462 463.97,-458 377.97,-458 377.97,-422 490.97,-422 490.97,-458"/>
<text text-anchor="middle" x="434.47" y="-436.3" font-family="Times,serif" font-size="14.00">[0]mis_loop_k</text>
</g>
<!-- p0x55f824e16fb0&#45;&gt;p0x55f824e170c0 -->
<g id="edge15" class="edge">
<title>p0x55f824e16fb0&#45;&gt;p0x55f824e170c0</title>
<path fill="none" stroke="black" d="M1080.01,-449.64C1059.65,-475.16 1018.95,-522.66 975.78,-553 885.21,-616.65 857.19,-632.58 748.99,-656 659.69,-675.33 621.13,-704.04 543.41,-656 476.12,-614.4 449.38,-516.74 439.97,-468.29"/>
<polygon fill="black" stroke="black" points="443.37,-467.39 438.13,-458.19 436.48,-468.65 443.37,-467.39"/>
</g>
<!-- p0x7f4ad8000e70 -->
<g id="node5" class="node">
<title>p0x7f4ad8000e70</title>
<ellipse fill="none" stroke="black" cx="648.25" cy="-446" rx="68.49" ry="18"/>
<text text-anchor="middle" x="648.25" y="-442.3" font-family="Times,serif" font-size="14.00">h2d_pin2net</text>
</g>
<!-- p0x7f4ad8000e70&#45;&gt;p0x55f824e16950 -->
<g id="edge4" class="edge">
<title>p0x7f4ad8000e70&#45;&gt;p0x55f824e16950</title>
<path fill="none" stroke="black" d="M704.79,-456.11C737.91,-462.14 780.12,-469.83 814.8,-476.15"/>
<polygon fill="black" stroke="black" points="814.37,-479.63 824.83,-477.97 815.62,-472.74 814.37,-479.63"/>
</g>
<!-- p0x7f4ad8000f30 -->
<g id="node6" class="node">
<title>p0x7f4ad8000f30</title>
<ellipse fill="none" stroke="black" cx="648.25" cy="-392" rx="61.99" ry="18"/>
<text text-anchor="middle" x="648.25" y="-388.3" font-family="Times,serif" font-size="14.00">h2d_fv2pin</text>
</g>
<!-- p0x7f4ad8000f30&#45;&gt;p0x55f824e16950 -->
<g id="edge5" class="edge">
<title>p0x7f4ad8000f30&#45;&gt;p0x55f824e16950</title>
<path fill="none" stroke="black" d="M697.64,-402.81C714.18,-407.1 732.63,-412.56 748.99,-419 781.14,-431.65 815.64,-450.05 841.14,-464.67"/>
<polygon fill="black" stroke="black" points="839.7,-467.88 850.11,-469.86 843.21,-461.82 839.7,-467.88"/>
</g>
<!-- p0x7f4ad8001140 -->
<g id="node7" class="node">
<title>p0x7f4ad8001140</title>
<ellipse fill="none" stroke="black" cx="648.25" cy="-500" rx="58.49" ry="18"/>
<text text-anchor="middle" x="648.25" y="-496.3" font-family="Times,serif" font-size="14.00">h2d_pin2v</text>
</g>
<!-- p0x7f4ad8001140&#45;&gt;p0x55f824e16950 -->
<g id="edge6" class="edge">
<title>p0x7f4ad8001140&#45;&gt;p0x55f824e16950</title>
<path fill="none" stroke="black" d="M705.97,-497.05C738.72,-495.34 780.07,-493.19 814.23,-491.42"/>
<polygon fill="black" stroke="black" points="814.78,-494.89 824.59,-490.88 814.42,-487.9 814.78,-494.89"/>
</g>
<!-- p0x55f824e16a60 -->
<g id="node8" class="node">
<title>p0x55f824e16a60</title>
<ellipse fill="none" stroke="black" cx="79.69" cy="-101" rx="76.09" ry="18"/>
<text text-anchor="middle" x="79.69" y="-97.3" font-family="Times,serif" font-size="14.00">[0]shuffle_beg</text>
</g>
<!-- p0x55f824e16b70 -->
<g id="node9" class="node">
<title>p0x55f824e16b70</title>
<ellipse fill="none" stroke="black" cx="257.08" cy="-101" rx="64.19" ry="18"/>
<text text-anchor="middle" x="257.08" y="-97.3" font-family="Times,serif" font-size="14.00">[0]shuffle_k</text>
</g>
<!-- p0x55f824e16a60&#45;&gt;p0x55f824e16b70 -->
<g id="edge7" class="edge">
<title>p0x55f824e16a60&#45;&gt;p0x55f824e16b70</title>
<path fill="none" stroke="black" d="M155.84,-101C164.66,-101 173.65,-101 182.45,-101"/>
<polygon fill="black" stroke="black" points="182.67,-104.5 192.67,-101 182.67,-97.5 182.67,-104.5"/>
</g>
<!-- p0x55f824e16c80 -->
<g id="node10" class="node">
<title>p0x55f824e16c80</title>
<ellipse fill="none" stroke="black" cx="434.47" cy="-101" rx="76.09" ry="18"/>
<text text-anchor="middle" x="434.47" y="-97.3" font-family="Times,serif" font-size="14.00">[0]shuffle_end</text>
</g>
<!-- p0x55f824e16b70&#45;&gt;p0x55f824e16c80 -->
<g id="edge8" class="edge">
<title>p0x55f824e16b70&#45;&gt;p0x55f824e16c80</title>
<path fill="none" stroke="black" d="M321.9,-101C330.51,-101 339.45,-101 348.36,-101"/>
<polygon fill="black" stroke="black" points="348.38,-104.5 358.38,-101 348.38,-97.5 348.38,-104.5"/>
</g>
<!-- p0x55f824e16d90 -->
<g id="node11" class="node">
<title>p0x55f824e16d90</title>
<ellipse fill="none" stroke="black" cx="648.25" cy="-101" rx="100.98" ry="18"/>
<text text-anchor="middle" x="648.25" y="-97.3" font-family="Times,serif" font-size="14.00">[0]mis_parallel_beg</text>
</g>
<!-- p0x55f824e16c80&#45;&gt;p0x55f824e16d90 -->
<g id="edge9" class="edge">
<title>p0x55f824e16c80&#45;&gt;p0x55f824e16d90</title>
<path fill="none" stroke="black" d="M510.73,-101C519.37,-101 528.31,-101 537.28,-101"/>
<polygon fill="black" stroke="black" points="537.42,-104.5 547.42,-101 537.42,-97.5 537.42,-104.5"/>
</g>
<!-- p0x55f824e16ea0 -->
<g id="node12" class="node">
<title>p0x55f824e16ea0</title>
<polygon fill="cyan" stroke="black" points="928.39,-227 925.39,-231 904.39,-231 901.39,-227 833.39,-227 833.39,-191 928.39,-191 928.39,-227"/>
<text text-anchor="middle" x="880.89" y="-205.3" font-family="Times,serif" font-size="14.00">[0]mis_h2d</text>
</g>
<!-- p0x55f824e16d90&#45;&gt;p0x55f824e16ea0 -->
<g id="edge10" class="edge">
<title>p0x55f824e16d90&#45;&gt;p0x55f824e16ea0</title>
<path fill="none" stroke="black" d="M717.31,-114.14C728.11,-117.14 739,-120.74 748.99,-125 785.59,-140.62 823.42,-166.08 848.94,-184.89"/>
<polygon fill="black" stroke="black" points="847,-187.81 857.1,-190.99 851.19,-182.2 847,-187.81"/>
</g>
<!-- p0x55f824e16ea0&#45;&gt;p0x55f824e16fb0 -->
<g id="edge11" class="edge">
<title>p0x55f824e16ea0&#45;&gt;p0x55f824e16fb0</title>
<path fill="none" stroke="black" d="M915.89,-227.12C941.98,-242.14 977.8,-265.3 1003.78,-292 1037.21,-326.36 1065.05,-375.04 1080.48,-405.01"/>
<polygon fill="black" stroke="black" points="1077.41,-406.7 1085.05,-414.04 1083.66,-403.54 1077.41,-406.7"/>
</g>
<!-- p0x7f4ad8004530 -->
<g id="node13" class="node">
<title>p0x7f4ad8004530</title>
<ellipse fill="none" stroke="black" cx="648.25" cy="-209" rx="96.68" ry="18"/>
<text text-anchor="middle" x="648.25" y="-205.3" font-family="Times,serif" font-size="14.00">[0]h2d_ordered_vs</text>
</g>
<!-- p0x7f4ad8004530&#45;&gt;p0x55f824e16ea0 -->
<g id="edge12" class="edge">
<title>p0x7f4ad8004530&#45;&gt;p0x55f824e16ea0</title>
<path fill="none" stroke="black" d="M745.39,-209C771.88,-209 799.75,-209 823.21,-209"/>
<polygon fill="black" stroke="black" points="823.32,-212.5 833.32,-209 823.32,-205.5 823.32,-212.5"/>
</g>
<!-- p0x7f4ad8006d10 -->
<g id="node14" class="node">
<title>p0x7f4ad8006d10</title>
<ellipse fill="none" stroke="black" cx="648.25" cy="-155" rx="94.78" ry="18"/>
<text text-anchor="middle" x="648.25" y="-151.3" font-family="Times,serif" font-size="14.00">[0]h2d_dependent</text>
</g>
<!-- p0x7f4ad8006d10&#45;&gt;p0x55f824e16ea0 -->
<g id="edge13" class="edge">
<title>p0x7f4ad8006d10&#45;&gt;p0x55f824e16ea0</title>
<path fill="none" stroke="black" d="M708.65,-168.91C743.88,-177.15 788.29,-187.55 823.06,-195.69"/>
<polygon fill="black" stroke="black" points="822.52,-199.16 833.05,-198.03 824.12,-192.35 822.52,-199.16"/>
</g>
<!-- p0x7f4ad8006df0 -->
<g id="node15" class="node">
<title>p0x7f4ad8006df0</title>
<ellipse fill="none" stroke="black" cx="648.25" cy="-263" rx="83.69" ry="18"/>
<text text-anchor="middle" x="648.25" y="-259.3" font-family="Times,serif" font-size="14.00">[0]h2d_selected</text>
</g>
<!-- p0x7f4ad8006df0&#45;&gt;p0x55f824e16ea0 -->
<g id="edge14" class="edge">
<title>p0x7f4ad8006df0&#45;&gt;p0x55f824e16ea0</title>
<path fill="none" stroke="black" d="M705.67,-249.79C741.51,-241.4 787.72,-230.58 823.54,-222.19"/>
<polygon fill="black" stroke="black" points="824.42,-225.58 833.36,-219.89 822.82,-218.77 824.42,-225.58"/>
</g>
<!-- p0x55f824e171d0 -->
<g id="node17" class="node">
<title>p0x55f824e171d0</title>
<ellipse fill="none" stroke="black" cx="648.25" cy="-338" rx="100.98" ry="18"/>
<text text-anchor="middle" x="648.25" y="-334.3" font-family="Times,serif" font-size="14.00">[0]mis_loop_update</text>
</g>
<!-- p0x55f824e170c0&#45;&gt;p0x55f824e171d0 -->
<g id="edge16" class="edge">
<title>p0x55f824e170c0&#45;&gt;p0x55f824e171d0</title>
<path fill="none" stroke="black" d="M455.41,-421.78C475.99,-403.94 509.73,-377.3 543.41,-362 550.52,-358.77 558.1,-355.95 565.82,-353.5"/>
<polygon fill="black" stroke="black" points="567.04,-356.79 575.63,-350.59 565.04,-350.08 567.04,-356.79"/>
</g>
<!-- p0x55f824e172e0 -->
<g id="node21" class="node">
<title>p0x55f824e172e0</title>
<polygon fill="aquamarine" stroke="black" points="880.89,-356 787.38,-338 880.89,-320 974.4,-338 880.89,-356"/>
<text text-anchor="middle" x="880.89" y="-334.3" font-family="Times,serif" font-size="14.00">[0]mis_cond</text>
</g>
<!-- p0x55f824e171d0&#45;&gt;p0x55f824e172e0 -->
<g id="edge20" class="edge">
<title>p0x55f824e171d0&#45;&gt;p0x55f824e172e0</title>
<path fill="none" stroke="black" d="M749.07,-338C758.37,-338 767.8,-338 777.13,-338"/>
<polygon fill="black" stroke="black" points="777.19,-341.5 787.19,-338 777.19,-334.5 777.19,-341.5"/>
</g>
<!-- p0x7f4ad8007e00 -->
<g id="node18" class="node">
<title>p0x7f4ad8007e00</title>
<ellipse fill="none" stroke="black" cx="79.69" cy="-467" rx="63.89" ry="18"/>
<text text-anchor="middle" x="79.69" y="-463.3" font-family="Times,serif" font-size="14.00">[0]h2d_size</text>
</g>
<!-- p0x7f4ad8007d00 -->
<g id="node19" class="node">
<title>p0x7f4ad8007d00</title>
<polygon fill="black" stroke="white" points="295.58,-485 222.58,-485 218.58,-481 218.58,-449 291.58,-449 295.58,-453 295.58,-485"/>
<polyline fill="none" stroke="white" points="291.58,-481 218.58,-481 "/>
<polyline fill="none" stroke="white" points="291.58,-481 291.58,-449 "/>
<polyline fill="none" stroke="white" points="291.58,-481 295.58,-485 "/>
<text text-anchor="middle" x="257.08" y="-463.3" font-family="Times,serif" font-size="14.00" fill="white">[0]mis_k</text>
</g>
<!-- p0x7f4ad8007e00&#45;&gt;p0x7f4ad8007d00 -->
<g id="edge17" class="edge">
<title>p0x7f4ad8007e00&#45;&gt;p0x7f4ad8007d00</title>
<path fill="none" stroke="black" d="M143.52,-467C164.86,-467 188.35,-467 208.32,-467"/>
<polygon fill="black" stroke="black" points="208.42,-470.5 218.42,-467 208.42,-463.5 208.42,-470.5"/>
</g>
<!-- p0x7f4ad8007d00&#45;&gt;p0x55f824e170c0 -->
<g id="edge18" class="edge">
<title>p0x7f4ad8007d00&#45;&gt;p0x55f824e170c0</title>
<path fill="none" stroke="black" d="M295.71,-461.21C316.76,-457.97 343.61,-453.83 368,-450.08"/>
<polygon fill="black" stroke="black" points="368.57,-453.53 377.92,-448.55 367.5,-446.61 368.57,-453.53"/>
</g>
<!-- p0x7f4ad8007b80 -->
<g id="node20" class="node">
<title>p0x7f4ad8007b80</title>
<ellipse fill="none" stroke="black" cx="257.08" cy="-413" rx="63.89" ry="18"/>
<text text-anchor="middle" x="257.08" y="-409.3" font-family="Times,serif" font-size="14.00">[0]d2h_size</text>
</g>
<!-- p0x7f4ad8007b80&#45;&gt;p0x55f824e170c0 -->
<g id="edge19" class="edge">
<title>p0x7f4ad8007b80&#45;&gt;p0x55f824e170c0</title>
<path fill="none" stroke="black" d="M313.58,-421.54C330.69,-424.18 349.7,-427.1 367.45,-429.84"/>
<polygon fill="black" stroke="black" points="367.32,-433.36 377.73,-431.42 368.38,-426.44 367.32,-433.36"/>
</g>
<!-- p0x55f824e172e0&#45;&gt;p0x55f824e16fb0 -->
<g id="edge21" class="edge">
<title>p0x55f824e172e0&#45;&gt;p0x55f824e16fb0</title>
<path fill="none" stroke="black" stroke-dasharray="5,2" d="M928.11,-347.04C943.57,-350.79 960.7,-355.75 975.78,-362 1006.17,-374.61 1038.11,-394.03 1061.05,-409.22"/>
<polygon fill="black" stroke="black" points="1059.13,-412.14 1069.38,-414.81 1063.03,-406.33 1059.13,-412.14"/>
<text text-anchor="middle" x="998.78" y="-377.8" font-family="Times,serif" font-size="14.00">0</text>
</g>
<!-- p0x55f824e173f0 -->
<g id="node22" class="node">
<title>p0x55f824e173f0</title>
<polygon fill="cyan" stroke="black" points="1160.07,-90 1157.07,-94 1136.07,-94 1133.07,-90 1029.07,-90 1029.07,-54 1160.07,-54 1160.07,-90"/>
<text text-anchor="middle" x="1094.57" y="-68.3" font-family="Times,serif" font-size="14.00">[0]mis_loop_end</text>
</g>
<!-- p0x55f824e172e0&#45;&gt;p0x55f824e173f0 -->
<g id="edge22" class="edge">
<title>p0x55f824e172e0&#45;&gt;p0x55f824e173f0</title>
<path fill="none" stroke="black" stroke-dasharray="5,2" d="M943.1,-331.92C954.83,-328.58 966.37,-323.54 975.78,-316 1046.03,-259.7 1077.08,-151.21 1088.27,-100.03"/>
<polygon fill="black" stroke="black" points="1091.75,-100.52 1090.37,-90.01 1084.89,-99.08 1091.75,-100.52"/>
<text text-anchor="middle" x="998.78" y="-299.8" font-family="Times,serif" font-size="14.00">1</text>
</g>
<!-- p0x55f824e1aa20 -->
<g id="node23" class="node">
<title>p0x55f824e1aa20</title>
<ellipse fill="none" stroke="black" cx="1260.26" cy="-72" rx="55.79" ry="18"/>
<text text-anchor="middle" x="1260.26" y="-68.3" font-family="Times,serif" font-size="14.00">[0]hpwl_k</text>
</g>
<!-- p0x55f824e173f0&#45;&gt;p0x55f824e1aa20 -->
<g id="edge23" class="edge">
<title>p0x55f824e173f0&#45;&gt;p0x55f824e1aa20</title>
<path fill="none" stroke="black" d="M1160.27,-72C1171.42,-72 1183.01,-72 1194.18,-72"/>
<polygon fill="black" stroke="black" points="1194.28,-75.5 1204.28,-72 1194.28,-68.5 1194.28,-75.5"/>
</g>
<!-- p0x55f824e1ab30 -->
<g id="node25" class="node">
<title>p0x55f824e1ab30</title>
<ellipse fill="none" stroke="black" cx="1443.5" cy="-126" rx="73.39" ry="18"/>
<text text-anchor="middle" x="1443.5" y="-122.3" font-family="Times,serif" font-size="14.00">del_net_mask</text>
</g>
<!-- p0x55f824e1aa20&#45;&gt;p0x55f824e1ab30 -->
<g id="edge25" class="edge">
<title>p0x55f824e1aa20&#45;&gt;p0x55f824e1ab30</title>
<path fill="none" stroke="black" d="M1301.93,-84.12C1326.84,-91.54 1359.08,-101.14 1386.39,-109.28"/>
<polygon fill="black" stroke="black" points="1385.63,-112.71 1396.21,-112.21 1387.63,-106 1385.63,-112.71"/>
</g>
<!-- p0x55f824e1ac40 -->
<g id="node26" class="node">
<title>p0x55f824e1ac40</title>
<ellipse fill="none" stroke="black" cx="1443.5" cy="-72" rx="68.49" ry="18"/>
<text text-anchor="middle" x="1443.5" y="-68.3" font-family="Times,serif" font-size="14.00">del_fnet2pin</text>
</g>
<!-- p0x55f824e1aa20&#45;&gt;p0x55f824e1ac40 -->
<g id="edge26" class="edge">
<title>p0x55f824e1aa20&#45;&gt;p0x55f824e1ac40</title>
<path fill="none" stroke="black" d="M1316.62,-72C1331.88,-72 1348.72,-72 1364.98,-72"/>
<polygon fill="black" stroke="black" points="1365.02,-75.5 1375.02,-72 1365.02,-68.5 1365.02,-75.5"/>
</g>
<!-- p0x55f824e1ad50 -->
<g id="node27" class="node">
<title>p0x55f824e1ad50</title>
<ellipse fill="none" stroke="black" cx="1443.5" cy="-18" rx="90.18" ry="18"/>
<text text-anchor="middle" x="1443.5" y="-14.3" font-family="Times,serif" font-size="14.00">del_fnet2pin_ofst</text>
</g>
<!-- p0x55f824e1aa20&#45;&gt;p0x55f824e1ad50 -->
<g id="edge27" class="edge">
<title>p0x55f824e1aa20&#45;&gt;p0x55f824e1ad50</title>
<path fill="none" stroke="black" d="M1301.93,-59.88C1325.72,-52.8 1356.17,-43.72 1382.65,-35.83"/>
<polygon fill="black" stroke="black" points="1384,-39.08 1392.59,-32.87 1382,-32.37 1384,-39.08"/>
</g>
<!-- p0x7f4ad8008470 -->
<g id="node24" class="node">
<title>p0x7f4ad8008470</title>
<ellipse fill="none" stroke="black" cx="880.89" cy="-72" rx="94.78" ry="18"/>
<text text-anchor="middle" x="880.89" y="-68.3" font-family="Times,serif" font-size="14.00">p0x7f4ad8008470</text>
</g>
<!-- p0x7f4ad8008470&#45;&gt;p0x55f824e173f0 -->
<g id="edge24" class="edge">
<title>p0x7f4ad8008470&#45;&gt;p0x55f824e173f0</title>
<path fill="none" stroke="black" d="M975.97,-72C990.22,-72 1004.76,-72 1018.54,-72"/>
<polygon fill="black" stroke="black" points="1018.92,-75.5 1028.92,-72 1018.92,-68.5 1018.92,-75.5"/>
</g>
</g>
</svg>
