<?xml version="1.0" encoding="UTF-8" standalone="no"?>
<!DOCTYPE svg PUBLIC "-//W3C//DTD SVG 1.1//EN"
 "http://www.w3.org/Graphics/SVG/1.1/DTD/svg11.dtd">
<!-- Generated by graphviz version 2.43.0 (0)
 -->
<!-- Title: BitStateLayout Pages: 1 -->
<svg width="812pt" height="189pt"
 viewBox="0.00 0.00 812.00 188.62" xmlns="http://www.w3.org/2000/svg" xmlns:xlink="http://www.w3.org/1999/xlink">
<g id="graph0" class="graph" transform="scale(1 1) rotate(0) translate(4 184.62)">
<title>BitStateLayout</title>
<polygon fill="white" stroke="transparent" points="-4,4 -4,-184.62 808,-184.62 808,4 -4,4"/>
<!-- State64 -->
<g id="node1" class="node">
<title>State64</title>
<polygon fill="none" stroke="black" points="260,-64.12 260,-147.12 804,-147.12 804,-64.12 260,-64.12"/>
<text text-anchor="middle" x="338.5" y="-131.92" font-family="Helvetica,sans-Serif" font-size="14.00">Epoch (32 bits)</text>
<text text-anchor="middle" x="338.5" y="-116.92" font-family="Helvetica,sans-Serif" font-size="14.00">[EPOCH_BITS]</text>
<text text-anchor="middle" x="338.5" y="-101.92" font-family="Helvetica,sans-Serif" font-size="14.00">Shift: 32</text>
<text text-anchor="middle" x="338.5" y="-86.92" font-family="Helvetica,sans-Serif" font-size="14.00">Mask: EPOCH_MASK</text>
<text text-anchor="middle" x="338.5" y="-71.92" font-family="Helvetica,sans-Serif" font-size="14.00">Inc: EPOCH_INC</text>
<polyline fill="none" stroke="black" points="417,-64.12 417,-147.12 "/>
<text text-anchor="middle" x="514.5" y="-131.92" font-family="Helvetica,sans-Serif" font-size="14.00">Pre&#45;waiter Count (16 bits)</text>
<text text-anchor="middle" x="514.5" y="-116.92" font-family="Helvetica,sans-Serif" font-size="14.00">[PREWAITER_BITS]</text>
<text text-anchor="middle" x="514.5" y="-101.92" font-family="Helvetica,sans-Serif" font-size="14.00">Shift: 16</text>
<text text-anchor="middle" x="514.5" y="-86.92" font-family="Helvetica,sans-Serif" font-size="14.00">Mask: PREWAITER_MASK</text>
<text text-anchor="middle" x="514.5" y="-71.92" font-family="Helvetica,sans-Serif" font-size="14.00">Inc: PREWAITER_INC</text>
<polyline fill="none" stroke="black" points="612,-64.12 612,-147.12 "/>
<text text-anchor="middle" x="708" y="-116.92" font-family="Helvetica,sans-Serif" font-size="14.00">Pre&#45;waiter Stack (16 bits)</text>
<text text-anchor="middle" x="708" y="-101.92" font-family="Helvetica,sans-Serif" font-size="14.00">[STACK_BITS]</text>
<text text-anchor="middle" x="708" y="-86.92" font-family="Helvetica,sans-Serif" font-size="14.00">Mask: STACK_MASK</text>
</g>
<!-- EpochRange -->
<g id="node2" class="node">
<title>EpochRange</title>
<polygon fill="black" stroke="black" points="185,-180.62 33,-180.62 33,-142.62 191,-142.62 191,-174.62 185,-180.62"/>
<polyline fill="none" stroke="black" points="185,-180.62 185,-174.62 "/>
<polyline fill="none" stroke="black" points="191,-174.62 185,-174.62 "/>
<text text-anchor="middle" x="112" y="-165.42" font-family="Helvetica,sans-Serif" font-size="14.00" fill="white">Bits [63:32]</text>
<text text-anchor="middle" x="112" y="-150.42" font-family="Helvetica,sans-Serif" font-size="14.00" fill="white">Modification counter</text>
</g>
<!-- EpochRange&#45;&gt;State64 -->
<g id="edge1" class="edge">
<title>EpochRange&#45;&gt;State64:b63_32</title>
<path fill="none" stroke="black" stroke-dasharray="5,2" d="M191.19,-146.26C202.47,-142.81 213.73,-138.63 224,-133.62 238.52,-126.53 239.89,-112.96 250.1,-107.74"/>
<polygon fill="black" stroke="black" points="250.95,-111.14 260,-105.62 249.49,-104.29 250.95,-111.14"/>
</g>
<!-- PrewaiterRange -->
<g id="node3" class="node">
<title>PrewaiterRange</title>
<polygon fill="black" stroke="black" points="192,-124.62 26,-124.62 26,-86.62 198,-86.62 198,-118.62 192,-124.62"/>
<polyline fill="none" stroke="black" points="192,-124.62 192,-118.62 "/>
<polyline fill="none" stroke="black" points="198,-118.62 192,-118.62 "/>
<text text-anchor="middle" x="112" y="-109.42" font-family="Helvetica,sans-Serif" font-size="14.00" fill="white">Bits [31:16]</text>
<text text-anchor="middle" x="112" y="-94.42" font-family="Helvetica,sans-Serif" font-size="14.00" fill="white">Pre&#45;waiter ticket count</text>
</g>
<!-- PrewaiterRange&#45;&gt;State64 -->
<g id="edge2" class="edge">
<title>PrewaiterRange&#45;&gt;State64:b31_16</title>
<path fill="none" stroke="black" stroke-dasharray="5,2" d="M193.37,-86.6C203.73,-83.78 214.15,-80.76 224,-77.62 240.35,-72.4 243.13,-66.82 260,-63.62 367.34,-43.26 504.81,44.36 513.56,-52.34"/>
<polygon fill="black" stroke="black" points="510.08,-52.78 514,-62.62 517.07,-52.48 510.08,-52.78"/>
</g>
<!-- StackRange -->
<g id="node4" class="node">
<title>StackRange</title>
<polygon fill="black" stroke="black" points="218,-68.62 0,-68.62 0,-30.62 224,-30.62 224,-62.62 218,-68.62"/>
<polyline fill="none" stroke="black" points="218,-68.62 218,-62.62 "/>
<polyline fill="none" stroke="black" points="224,-62.62 218,-62.62 "/>
<text text-anchor="middle" x="112" y="-53.42" font-family="Helvetica,sans-Serif" font-size="14.00" fill="white">Bits [15:0]</text>
<text text-anchor="middle" x="112" y="-38.42" font-family="Helvetica,sans-Serif" font-size="14.00" fill="white">Committed waiter stack index</text>
</g>
<!-- StackRange&#45;&gt;State64 -->
<g id="edge3" class="edge">
<title>StackRange&#45;&gt;State64:b15_0</title>
<path fill="none" stroke="black" stroke-dasharray="5,2" d="M221.09,-30.61C386.27,-4.37 684.79,30.93 706.72,-52.44"/>
<polygon fill="black" stroke="black" points="703.28,-53.13 708,-62.62 710.23,-52.26 703.28,-53.13"/>
</g>
</g>
</svg>
