<?xml version="1.0" encoding="UTF-8" standalone="no"?>
<!DOCTYPE svg PUBLIC "-//W3C//DTD SVG 1.1//EN"
 "http://www.w3.org/Graphics/SVG/1.1/DTD/svg11.dtd">
<!-- Generated by graphviz version 2.43.0 (0)
 -->
<!-- Title: Taskflow Pages: 1 -->
<svg width="761pt" height="206pt"
 viewBox="0.00 0.00 760.85 206.00" xmlns="http://www.w3.org/2000/svg" xmlns:xlink="http://www.w3.org/1999/xlink">
<g id="graph0" class="graph" transform="scale(1 1) rotate(0) translate(4 202)">
<title>Taskflow</title>
<polygon fill="white" stroke="transparent" points="-4,4 -4,-202 756.85,-202 756.85,4 -4,4"/>
<!-- p0x563eef67dc70 -->
<g id="node1" class="node">
<title>p0x563eef67dc70</title>
<ellipse fill="none" stroke="black" cx="38.35" cy="-99" rx="38.19" ry="18"/>
<text text-anchor="middle" x="38.35" y="-95.3" font-family="Times,serif" font-size="14.00">B_0_0</text>
</g>
<!-- p0x563eef67dd78 -->
<g id="node2" class="node">
<title>p0x563eef67dd78</title>
<ellipse fill="none" stroke="black" cx="151.04" cy="-126" rx="38.19" ry="18"/>
<text text-anchor="middle" x="151.04" y="-122.3" font-family="Times,serif" font-size="14.00">B_0_1</text>
</g>
<!-- p0x563eef67dc70&#45;&gt;p0x563eef67dd78 -->
<g id="edge1" class="edge">
<title>p0x563eef67dc70&#45;&gt;p0x563eef67dd78</title>
<path fill="none" stroke="black" d="M72.86,-107.17C83.48,-109.76 95.38,-112.67 106.59,-115.4"/>
<polygon fill="black" stroke="black" points="106.1,-118.88 116.64,-117.85 107.76,-112.08 106.1,-118.88"/>
</g>
<!-- p0x563eef67e090 -->
<g id="node3" class="node">
<title>p0x563eef67e090</title>
<ellipse fill="none" stroke="black" cx="151.04" cy="-72" rx="38.19" ry="18"/>
<text text-anchor="middle" x="151.04" y="-68.3" font-family="Times,serif" font-size="14.00">B_1_0</text>
</g>
<!-- p0x563eef67dc70&#45;&gt;p0x563eef67e090 -->
<g id="edge2" class="edge">
<title>p0x563eef67dc70&#45;&gt;p0x563eef67e090</title>
<path fill="none" stroke="black" d="M72.86,-90.83C83.48,-88.24 95.38,-85.33 106.59,-82.6"/>
<polygon fill="black" stroke="black" points="107.76,-85.92 116.64,-80.15 106.1,-79.12 107.76,-85.92"/>
</g>
<!-- p0x563eef67de80 -->
<g id="node4" class="node">
<title>p0x563eef67de80</title>
<ellipse fill="none" stroke="black" cx="263.73" cy="-153" rx="38.19" ry="18"/>
<text text-anchor="middle" x="263.73" y="-149.3" font-family="Times,serif" font-size="14.00">B_0_2</text>
</g>
<!-- p0x563eef67dd78&#45;&gt;p0x563eef67de80 -->
<g id="edge3" class="edge">
<title>p0x563eef67dd78&#45;&gt;p0x563eef67de80</title>
<path fill="none" stroke="black" d="M185.55,-134.17C196.17,-136.76 208.07,-139.67 219.28,-142.4"/>
<polygon fill="black" stroke="black" points="218.79,-145.88 229.33,-144.85 220.45,-139.08 218.79,-145.88"/>
</g>
<!-- p0x563eef67e198 -->
<g id="node5" class="node">
<title>p0x563eef67e198</title>
<ellipse fill="none" stroke="black" cx="263.73" cy="-99" rx="38.19" ry="18"/>
<text text-anchor="middle" x="263.73" y="-95.3" font-family="Times,serif" font-size="14.00">B_1_1</text>
</g>
<!-- p0x563eef67dd78&#45;&gt;p0x563eef67e198 -->
<g id="edge4" class="edge">
<title>p0x563eef67dd78&#45;&gt;p0x563eef67e198</title>
<path fill="none" stroke="black" d="M185.55,-117.83C196.17,-115.24 208.07,-112.33 219.28,-109.6"/>
<polygon fill="black" stroke="black" points="220.45,-112.92 229.33,-107.15 218.79,-106.12 220.45,-112.92"/>
</g>
<!-- p0x563eef67e090&#45;&gt;p0x563eef67e198 -->
<g id="edge8" class="edge">
<title>p0x563eef67e090&#45;&gt;p0x563eef67e198</title>
<path fill="none" stroke="black" d="M185.55,-80.17C196.17,-82.76 208.07,-85.67 219.28,-88.4"/>
<polygon fill="black" stroke="black" points="218.79,-91.88 229.33,-90.85 220.45,-85.08 218.79,-91.88"/>
</g>
<!-- p0x563eef67e4b0 -->
<g id="node9" class="node">
<title>p0x563eef67e4b0</title>
<ellipse fill="none" stroke="black" cx="263.73" cy="-45" rx="38.19" ry="18"/>
<text text-anchor="middle" x="263.73" y="-41.3" font-family="Times,serif" font-size="14.00">B_2_0</text>
</g>
<!-- p0x563eef67e090&#45;&gt;p0x563eef67e4b0 -->
<g id="edge9" class="edge">
<title>p0x563eef67e090&#45;&gt;p0x563eef67e4b0</title>
<path fill="none" stroke="black" d="M185.55,-63.83C196.17,-61.24 208.07,-58.33 219.28,-55.6"/>
<polygon fill="black" stroke="black" points="220.45,-58.92 229.33,-53.15 218.79,-52.12 220.45,-58.92"/>
</g>
<!-- p0x563eef67df88 -->
<g id="node6" class="node">
<title>p0x563eef67df88</title>
<ellipse fill="none" stroke="black" cx="376.43" cy="-180" rx="38.19" ry="18"/>
<text text-anchor="middle" x="376.43" y="-176.3" font-family="Times,serif" font-size="14.00">B_0_3</text>
</g>
<!-- p0x563eef67de80&#45;&gt;p0x563eef67df88 -->
<g id="edge5" class="edge">
<title>p0x563eef67de80&#45;&gt;p0x563eef67df88</title>
<path fill="none" stroke="black" d="M298.24,-161.17C308.87,-163.76 320.76,-166.67 331.98,-169.4"/>
<polygon fill="black" stroke="black" points="331.48,-172.88 342.03,-171.85 333.14,-166.08 331.48,-172.88"/>
</g>
<!-- p0x563eef67e2a0 -->
<g id="node7" class="node">
<title>p0x563eef67e2a0</title>
<ellipse fill="none" stroke="black" cx="376.43" cy="-126" rx="38.19" ry="18"/>
<text text-anchor="middle" x="376.43" y="-122.3" font-family="Times,serif" font-size="14.00">B_1_2</text>
</g>
<!-- p0x563eef67de80&#45;&gt;p0x563eef67e2a0 -->
<g id="edge6" class="edge">
<title>p0x563eef67de80&#45;&gt;p0x563eef67e2a0</title>
<path fill="none" stroke="black" d="M298.24,-144.83C308.87,-142.24 320.76,-139.33 331.98,-136.6"/>
<polygon fill="black" stroke="black" points="333.14,-139.92 342.03,-134.15 331.48,-133.12 333.14,-139.92"/>
</g>
<!-- p0x563eef67e198&#45;&gt;p0x563eef67e2a0 -->
<g id="edge10" class="edge">
<title>p0x563eef67e198&#45;&gt;p0x563eef67e2a0</title>
<path fill="none" stroke="black" d="M298.24,-107.17C308.87,-109.76 320.76,-112.67 331.98,-115.4"/>
<polygon fill="black" stroke="black" points="331.48,-118.88 342.03,-117.85 333.14,-112.08 331.48,-118.88"/>
</g>
<!-- p0x563eef67e5b8 -->
<g id="node10" class="node">
<title>p0x563eef67e5b8</title>
<ellipse fill="none" stroke="black" cx="376.43" cy="-72" rx="38.19" ry="18"/>
<text text-anchor="middle" x="376.43" y="-68.3" font-family="Times,serif" font-size="14.00">B_2_1</text>
</g>
<!-- p0x563eef67e198&#45;&gt;p0x563eef67e5b8 -->
<g id="edge11" class="edge">
<title>p0x563eef67e198&#45;&gt;p0x563eef67e5b8</title>
<path fill="none" stroke="black" d="M298.24,-90.83C308.87,-88.24 320.76,-85.33 331.98,-82.6"/>
<polygon fill="black" stroke="black" points="333.14,-85.92 342.03,-80.15 331.48,-79.12 333.14,-85.92"/>
</g>
<!-- p0x563eef67e3a8 -->
<g id="node8" class="node">
<title>p0x563eef67e3a8</title>
<ellipse fill="none" stroke="black" cx="489.12" cy="-153" rx="38.19" ry="18"/>
<text text-anchor="middle" x="489.12" y="-149.3" font-family="Times,serif" font-size="14.00">B_1_3</text>
</g>
<!-- p0x563eef67df88&#45;&gt;p0x563eef67e3a8 -->
<g id="edge7" class="edge">
<title>p0x563eef67df88&#45;&gt;p0x563eef67e3a8</title>
<path fill="none" stroke="black" d="M410.94,-171.83C421.56,-169.24 433.46,-166.33 444.67,-163.6"/>
<polygon fill="black" stroke="black" points="445.84,-166.92 454.72,-161.15 444.18,-160.12 445.84,-166.92"/>
</g>
<!-- p0x563eef67e2a0&#45;&gt;p0x563eef67e3a8 -->
<g id="edge12" class="edge">
<title>p0x563eef67e2a0&#45;&gt;p0x563eef67e3a8</title>
<path fill="none" stroke="black" d="M410.94,-134.17C421.56,-136.76 433.46,-139.67 444.67,-142.4"/>
<polygon fill="black" stroke="black" points="444.18,-145.88 454.72,-144.85 445.84,-139.08 444.18,-145.88"/>
</g>
<!-- p0x563eef67e6c0 -->
<g id="node11" class="node">
<title>p0x563eef67e6c0</title>
<ellipse fill="none" stroke="black" cx="489.12" cy="-99" rx="38.19" ry="18"/>
<text text-anchor="middle" x="489.12" y="-95.3" font-family="Times,serif" font-size="14.00">B_2_2</text>
</g>
<!-- p0x563eef67e2a0&#45;&gt;p0x563eef67e6c0 -->
<g id="edge13" class="edge">
<title>p0x563eef67e2a0&#45;&gt;p0x563eef67e6c0</title>
<path fill="none" stroke="black" d="M410.94,-117.83C421.56,-115.24 433.46,-112.33 444.67,-109.6"/>
<polygon fill="black" stroke="black" points="445.84,-112.92 454.72,-107.15 444.18,-106.12 445.84,-112.92"/>
</g>
<!-- p0x563eef67e7c8 -->
<g id="node12" class="node">
<title>p0x563eef67e7c8</title>
<ellipse fill="none" stroke="black" cx="601.81" cy="-126" rx="38.19" ry="18"/>
<text text-anchor="middle" x="601.81" y="-122.3" font-family="Times,serif" font-size="14.00">B_2_3</text>
</g>
<!-- p0x563eef67e3a8&#45;&gt;p0x563eef67e7c8 -->
<g id="edge14" class="edge">
<title>p0x563eef67e3a8&#45;&gt;p0x563eef67e7c8</title>
<path fill="none" stroke="black" d="M523.63,-144.83C534.25,-142.24 546.15,-139.33 557.36,-136.6"/>
<polygon fill="black" stroke="black" points="558.53,-139.92 567.41,-134.15 556.87,-133.12 558.53,-139.92"/>
</g>
<!-- p0x563eef67e4b0&#45;&gt;p0x563eef67e5b8 -->
<g id="edge15" class="edge">
<title>p0x563eef67e4b0&#45;&gt;p0x563eef67e5b8</title>
<path fill="none" stroke="black" d="M298.24,-53.17C308.87,-55.76 320.76,-58.67 331.98,-61.4"/>
<polygon fill="black" stroke="black" points="331.48,-64.88 342.03,-63.85 333.14,-58.08 331.48,-64.88"/>
</g>
<!-- p0x563eef67e8d0 -->
<g id="node13" class="node">
<title>p0x563eef67e8d0</title>
<ellipse fill="none" stroke="black" cx="376.43" cy="-18" rx="38.19" ry="18"/>
<text text-anchor="middle" x="376.43" y="-14.3" font-family="Times,serif" font-size="14.00">B_3_0</text>
</g>
<!-- p0x563eef67e4b0&#45;&gt;p0x563eef67e8d0 -->
<g id="edge16" class="edge">
<title>p0x563eef67e4b0&#45;&gt;p0x563eef67e8d0</title>
<path fill="none" stroke="black" d="M298.24,-36.83C308.87,-34.24 320.76,-31.33 331.98,-28.6"/>
<polygon fill="black" stroke="black" points="333.14,-31.92 342.03,-26.15 331.48,-25.12 333.14,-31.92"/>
</g>
<!-- p0x563eef67e5b8&#45;&gt;p0x563eef67e6c0 -->
<g id="edge17" class="edge">
<title>p0x563eef67e5b8&#45;&gt;p0x563eef67e6c0</title>
<path fill="none" stroke="black" d="M410.94,-80.17C421.56,-82.76 433.46,-85.67 444.67,-88.4"/>
<polygon fill="black" stroke="black" points="444.18,-91.88 454.72,-90.85 445.84,-85.08 444.18,-91.88"/>
</g>
<!-- p0x563eef67e9d8 -->
<g id="node14" class="node">
<title>p0x563eef67e9d8</title>
<ellipse fill="none" stroke="black" cx="489.12" cy="-45" rx="38.19" ry="18"/>
<text text-anchor="middle" x="489.12" y="-41.3" font-family="Times,serif" font-size="14.00">B_3_1</text>
</g>
<!-- p0x563eef67e5b8&#45;&gt;p0x563eef67e9d8 -->
<g id="edge18" class="edge">
<title>p0x563eef67e5b8&#45;&gt;p0x563eef67e9d8</title>
<path fill="none" stroke="black" d="M410.94,-63.83C421.56,-61.24 433.46,-58.33 444.67,-55.6"/>
<polygon fill="black" stroke="black" points="445.84,-58.92 454.72,-53.15 444.18,-52.12 445.84,-58.92"/>
</g>
<!-- p0x563eef67e6c0&#45;&gt;p0x563eef67e7c8 -->
<g id="edge19" class="edge">
<title>p0x563eef67e6c0&#45;&gt;p0x563eef67e7c8</title>
<path fill="none" stroke="black" d="M523.63,-107.17C534.25,-109.76 546.15,-112.67 557.36,-115.4"/>
<polygon fill="black" stroke="black" points="556.87,-118.88 567.41,-117.85 558.53,-112.08 556.87,-118.88"/>
</g>
<!-- p0x563eef67eae0 -->
<g id="node15" class="node">
<title>p0x563eef67eae0</title>
<ellipse fill="none" stroke="black" cx="601.81" cy="-72" rx="38.19" ry="18"/>
<text text-anchor="middle" x="601.81" y="-68.3" font-family="Times,serif" font-size="14.00">B_3_2</text>
</g>
<!-- p0x563eef67e6c0&#45;&gt;p0x563eef67eae0 -->
<g id="edge20" class="edge">
<title>p0x563eef67e6c0&#45;&gt;p0x563eef67eae0</title>
<path fill="none" stroke="black" d="M523.63,-90.83C534.25,-88.24 546.15,-85.33 557.36,-82.6"/>
<polygon fill="black" stroke="black" points="558.53,-85.92 567.41,-80.15 556.87,-79.12 558.53,-85.92"/>
</g>
<!-- p0x563eef67ebe8 -->
<g id="node16" class="node">
<title>p0x563eef67ebe8</title>
<ellipse fill="none" stroke="black" cx="714.51" cy="-99" rx="38.19" ry="18"/>
<text text-anchor="middle" x="714.51" y="-95.3" font-family="Times,serif" font-size="14.00">B_3_3</text>
</g>
<!-- p0x563eef67e7c8&#45;&gt;p0x563eef67ebe8 -->
<g id="edge21" class="edge">
<title>p0x563eef67e7c8&#45;&gt;p0x563eef67ebe8</title>
<path fill="none" stroke="black" d="M636.32,-117.83C646.95,-115.24 658.84,-112.33 670.06,-109.6"/>
<polygon fill="black" stroke="black" points="671.22,-112.92 680.11,-107.15 669.56,-106.12 671.22,-112.92"/>
</g>
<!-- p0x563eef67e8d0&#45;&gt;p0x563eef67e9d8 -->
<g id="edge22" class="edge">
<title>p0x563eef67e8d0&#45;&gt;p0x563eef67e9d8</title>
<path fill="none" stroke="black" d="M410.94,-26.17C421.56,-28.76 433.46,-31.67 444.67,-34.4"/>
<polygon fill="black" stroke="black" points="444.18,-37.88 454.72,-36.85 445.84,-31.08 444.18,-37.88"/>
</g>
<!-- p0x563eef67e9d8&#45;&gt;p0x563eef67eae0 -->
<g id="edge23" class="edge">
<title>p0x563eef67e9d8&#45;&gt;p0x563eef67eae0</title>
<path fill="none" stroke="black" d="M523.63,-53.17C534.25,-55.76 546.15,-58.67 557.36,-61.4"/>
<polygon fill="black" stroke="black" points="556.87,-64.88 567.41,-63.85 558.53,-58.08 556.87,-64.88"/>
</g>
<!-- p0x563eef67eae0&#45;&gt;p0x563eef67ebe8 -->
<g id="edge24" class="edge">
<title>p0x563eef67eae0&#45;&gt;p0x563eef67ebe8</title>
<path fill="none" stroke="black" d="M636.32,-80.17C646.95,-82.76 658.84,-85.67 670.06,-88.4"/>
<polygon fill="black" stroke="black" points="669.56,-91.88 680.11,-90.85 671.22,-85.08 669.56,-91.88"/>
</g>
</g>
</svg>
