<?xml version="1.0" encoding="UTF-8" standalone="no"?>
<!DOCTYPE svg PUBLIC "-//W3C//DTD SVG 1.1//EN"
 "http://www.w3.org/Graphics/SVG/1.1/DTD/svg11.dtd">
<!-- Generated by graphviz version 2.43.0 (0)
 -->
<!-- Title: Taskflow Pages: 1 -->
<svg width="291pt" height="98pt"
 viewBox="0.00 0.00 290.92 98.00" xmlns="http://www.w3.org/2000/svg" xmlns:xlink="http://www.w3.org/1999/xlink">
<g id="graph0" class="graph" transform="scale(1 1) rotate(0) translate(4 94)">
<title>Taskflow</title>
<polygon fill="white" stroke="transparent" points="-4,4 -4,-94 286.92,-94 286.92,4 -4,4"/>
<!-- p0x7f9e1e700030 -->
<g id="node1" class="node">
<title>p0x7f9e1e700030</title>
<ellipse fill="none" stroke="black" cx="27" cy="-45" rx="27" ry="18"/>
<text text-anchor="middle" x="27" y="-41.3" font-family="Times,serif" font-size="14.00">init</text>
</g>
<!-- p0x7f9e1e700140 -->
<g id="node2" class="node">
<title>p0x7f9e1e700140</title>
<polygon fill="aquamarine" stroke="black" points="136.96,-63 91.04,-45 136.96,-27 182.87,-45 136.96,-63"/>
<text text-anchor="middle" x="136.96" y="-41.3" font-family="Times,serif" font-size="14.00">cond</text>
</g>
<!-- p0x7f9e1e700030&#45;&gt;p0x7f9e1e700140 -->
<g id="edge1" class="edge">
<title>p0x7f9e1e700030&#45;&gt;p0x7f9e1e700140</title>
<path fill="none" stroke="black" d="M54.13,-45C62.2,-45 71.41,-45 80.67,-45"/>
<polygon fill="black" stroke="black" points="80.68,-48.5 90.68,-45 80.68,-41.5 80.68,-48.5"/>
</g>
<!-- p0x7f9e1e700250 -->
<g id="node3" class="node">
<title>p0x7f9e1e700250</title>
<ellipse fill="none" stroke="black" cx="255.92" cy="-72" rx="27" ry="18"/>
<text text-anchor="middle" x="255.92" y="-68.3" font-family="Times,serif" font-size="14.00">yes</text>
</g>
<!-- p0x7f9e1e700140&#45;&gt;p0x7f9e1e700250 -->
<g id="edge2" class="edge">
<title>p0x7f9e1e700140&#45;&gt;p0x7f9e1e700250</title>
<path fill="none" stroke="black" stroke-dasharray="5,2" d="M166.27,-51.54C182.39,-55.26 202.73,-59.95 219.86,-63.91"/>
<polygon fill="black" stroke="black" points="219.51,-67.42 230.04,-66.26 221.08,-60.6 219.51,-67.42"/>
<text text-anchor="middle" x="205.92" y="-64.8" font-family="Times,serif" font-size="14.00">0</text>
</g>
<!-- p0x7f9e1e700360 -->
<g id="node4" class="node">
<title>p0x7f9e1e700360</title>
<ellipse fill="none" stroke="black" cx="255.92" cy="-18" rx="27" ry="18"/>
<text text-anchor="middle" x="255.92" y="-14.3" font-family="Times,serif" font-size="14.00">no</text>
</g>
<!-- p0x7f9e1e700140&#45;&gt;p0x7f9e1e700360 -->
<g id="edge3" class="edge">
<title>p0x7f9e1e700140&#45;&gt;p0x7f9e1e700360</title>
<path fill="none" stroke="black" stroke-dasharray="5,2" d="M166.27,-38.46C182.39,-34.74 202.73,-30.05 219.86,-26.09"/>
<polygon fill="black" stroke="black" points="221.08,-29.4 230.04,-23.74 219.51,-22.58 221.08,-29.4"/>
<text text-anchor="middle" x="205.92" y="-32.8" font-family="Times,serif" font-size="14.00">1</text>
</g>
</g>
</svg>
