<?xml version="1.0" encoding="UTF-8" standalone="no"?>
<!DOCTYPE svg PUBLIC "-//W3C//DTD SVG 1.1//EN"
 "http://www.w3.org/Graphics/SVG/1.1/DTD/svg11.dtd">
<!-- Generated by graphviz version 2.43.0 (0)
 -->
<!-- Title: Taskflow Pages: 1 -->
<svg width="496pt" height="137pt"
 viewBox="0.00 0.00 496.47 137.00" xmlns="http://www.w3.org/2000/svg" xmlns:xlink="http://www.w3.org/1999/xlink">
<g id="graph0" class="graph" transform="scale(1 1) rotate(0) translate(4 133)">
<title>Taskflow</title>
<polygon fill="white" stroke="transparent" points="-4,4 -4,-133 492.47,-133 492.47,4 -4,4"/>
<!-- p0x7fdba4000030 -->
<g id="node1" class="node">
<title>p0x7fdba4000030</title>
<ellipse fill="none" stroke="black" cx="27" cy="-57" rx="27" ry="18"/>
<text text-anchor="middle" x="27" y="-53.3" font-family="Times,serif" font-size="14.00">init</text>
</g>
<!-- p0x7fdba4000140 -->
<g id="node2" class="node">
<title>p0x7fdba4000140</title>
<polygon fill="aquamarine" stroke="black" points="169.13,-75 90.87,-57 169.13,-39 247.39,-57 169.13,-75"/>
<text text-anchor="middle" x="169.13" y="-53.3" font-family="Times,serif" font-size="14.00">while i&lt;5</text>
</g>
<!-- p0x7fdba4000030&#45;&gt;p0x7fdba4000140 -->
<g id="edge1" class="edge">
<title>p0x7fdba4000030&#45;&gt;p0x7fdba4000140</title>
<path fill="none" stroke="black" d="M54.03,-57C61.9,-57 71.02,-57 80.6,-57"/>
<polygon fill="black" stroke="black" points="80.73,-60.5 90.73,-57 80.73,-53.5 80.73,-60.5"/>
</g>
<!-- p0x7fdba4000470 -->
<g id="node3" class="node">
<title>p0x7fdba4000470</title>
<ellipse fill="none" stroke="black" cx="326.4" cy="-111" rx="33.29" ry="18"/>
<text text-anchor="middle" x="326.4" y="-107.3" font-family="Times,serif" font-size="14.00">done</text>
</g>
<!-- p0x7fdba4000140&#45;&gt;p0x7fdba4000470 -->
<g id="edge2" class="edge">
<title>p0x7fdba4000140&#45;&gt;p0x7fdba4000470</title>
<path fill="none" stroke="black" stroke-dasharray="5,2" d="M201.18,-67.8C226.29,-76.53 261.72,-88.85 288.32,-98.1"/>
<polygon fill="black" stroke="black" points="287.45,-101.51 298.05,-101.49 289.75,-94.9 287.45,-101.51"/>
<text text-anchor="middle" x="270.26" y="-96.8" font-family="Times,serif" font-size="14.00">1</text>
</g>
<!-- p0x7fdba4000250 -->
<g id="node4" class="node">
<title>p0x7fdba4000250</title>
<ellipse fill="none" stroke="black" cx="326.4" cy="-57" rx="29.5" ry="18"/>
<text text-anchor="middle" x="326.4" y="-53.3" font-family="Times,serif" font-size="14.00">i++</text>
</g>
<!-- p0x7fdba4000140&#45;&gt;p0x7fdba4000250 -->
<g id="edge3" class="edge">
<title>p0x7fdba4000140&#45;&gt;p0x7fdba4000250</title>
<path fill="none" stroke="black" stroke-dasharray="5,2" d="M247.31,-57C261.09,-57 274.88,-57 286.96,-57"/>
<polygon fill="black" stroke="black" points="287.09,-60.5 297.09,-57 287.09,-53.5 287.09,-60.5"/>
<text text-anchor="middle" x="270.26" y="-60.8" font-family="Times,serif" font-size="14.00">0</text>
</g>
<!-- p0x7fdba4000360 -->
<g id="node5" class="node">
<title>p0x7fdba4000360</title>
<polygon fill="aquamarine" stroke="black" points="442.51,-36 396.59,-18 442.51,0 488.42,-18 442.51,-36"/>
<text text-anchor="middle" x="442.51" y="-14.3" font-family="Times,serif" font-size="14.00">back</text>
</g>
<!-- p0x7fdba4000250&#45;&gt;p0x7fdba4000360 -->
<g id="edge4" class="edge">
<title>p0x7fdba4000250&#45;&gt;p0x7fdba4000360</title>
<path fill="none" stroke="black" d="M352.44,-48.44C368.57,-42.93 389.73,-35.7 407.39,-29.66"/>
<polygon fill="black" stroke="black" points="408.98,-32.82 417.31,-26.27 406.71,-26.19 408.98,-32.82"/>
</g>
<!-- p0x7fdba4000360&#45;&gt;p0x7fdba4000140 -->
<g id="edge5" class="edge">
<title>p0x7fdba4000360&#45;&gt;p0x7fdba4000140</title>
<path fill="none" stroke="black" stroke-dasharray="5,2" d="M401.08,-16.23C387.85,-15.72 373.07,-15.25 359.55,-15 330.09,-14.46 322.32,-10.18 293.26,-15 262.9,-20.03 229.99,-31.6 205.83,-41.33"/>
<polygon fill="black" stroke="black" points="204.29,-38.18 196.37,-45.22 206.95,-44.65 204.29,-38.18"/>
<text text-anchor="middle" x="326.4" y="-18.8" font-family="Times,serif" font-size="14.00">0</text>
</g>
</g>
</svg>
