<?xml version="1.0" encoding="UTF-8" standalone="no"?>
<!DOCTYPE svg PUBLIC "-//W3C//DTD SVG 1.1//EN"
 "http://www.w3.org/Graphics/SVG/1.1/DTD/svg11.dtd">
<!-- Generated by graphviz version 2.43.0 (0)
 -->
<!-- Title: Taskflow Pages: 1 -->
<svg width="298pt" height="77pt"
 viewBox="0.00 0.00 298.01 77.00" xmlns="http://www.w3.org/2000/svg" xmlns:xlink="http://www.w3.org/1999/xlink">
<g id="graph0" class="graph" transform="scale(1 1) rotate(0) translate(4 73)">
<title>Taskflow</title>
<polygon fill="white" stroke="transparent" points="-4,4 -4,-73 294.01,-73 294.01,4 -4,4"/>
<!-- cond -->
<g id="node1" class="node">
<title>cond</title>
<polygon fill="aquamarine" stroke="black" points="136.96,-36 91.04,-18 136.96,0 182.87,-18 136.96,-36"/>
<text text-anchor="middle" x="136.96" y="-14.3" font-family="Times,serif" font-size="14.00">cond</text>
</g>
<!-- cond&#45;&gt;cond -->
<g id="edge2" class="edge">
<title>cond&#45;&gt;cond</title>
<path fill="none" stroke="black" stroke-dasharray="5,2" d="M126.51,-32.04C122.6,-42.91 126.08,-54 136.96,-54 144.43,-54 148.42,-48.76 148.91,-41.95"/>
<polygon fill="black" stroke="black" points="152.36,-41.41 147.41,-32.04 145.44,-42.45 152.36,-41.41"/>
<text text-anchor="middle" x="136.96" y="-57.8" font-family="Times,serif" font-size="14.00">0</text>
</g>
<!-- stop -->
<g id="node3" class="node">
<title>stop</title>
<ellipse fill="none" stroke="black" cx="259.46" cy="-18" rx="30.59" ry="18"/>
<text text-anchor="middle" x="259.46" y="-14.3" font-family="Times,serif" font-size="14.00">stop</text>
</g>
<!-- cond&#45;&gt;stop -->
<g id="edge3" class="edge">
<title>cond&#45;&gt;stop</title>
<path fill="none" stroke="black" stroke-dasharray="5,2" d="M183.17,-18C194.83,-18 207.29,-18 218.65,-18"/>
<polygon fill="black" stroke="black" points="218.72,-21.5 228.72,-18 218.72,-14.5 218.72,-21.5"/>
<text text-anchor="middle" x="205.92" y="-21.8" font-family="Times,serif" font-size="14.00">1</text>
</g>
<!-- init -->
<g id="node2" class="node">
<title>init</title>
<ellipse fill="none" stroke="black" cx="27" cy="-18" rx="27" ry="18"/>
<text text-anchor="middle" x="27" y="-14.3" font-family="Times,serif" font-size="14.00">init</text>
</g>
<!-- init&#45;&gt;cond -->
<g id="edge1" class="edge">
<title>init&#45;&gt;cond</title>
<path fill="none" stroke="black" d="M54.13,-18C62.2,-18 71.41,-18 80.67,-18"/>
<polygon fill="black" stroke="black" points="80.68,-21.5 90.68,-18 80.68,-14.5 80.68,-21.5"/>
</g>
</g>
</svg>
