<?xml version="1.0" encoding="UTF-8" standalone="no"?>
<!DOCTYPE svg PUBLIC "-//W3C//DTD SVG 1.1//EN"
 "http://www.w3.org/Graphics/SVG/1.1/DTD/svg11.dtd">
<!-- Generated by graphviz version 2.43.0 (0)
 -->
<!-- Title: Taskflow Pages: 1 -->
<svg width="606pt" height="387pt"
 viewBox="0.00 0.00 606.00 387.00" xmlns="http://www.w3.org/2000/svg" xmlns:xlink="http://www.w3.org/1999/xlink">
<g id="graph0" class="graph" transform="scale(1 1) rotate(0) translate(4 383)">
<title>Taskflow</title>
<polygon fill="white" stroke="transparent" points="-4,4 -4,-383 602,-383 602,4 -4,4"/>
<g id="clust1" class="cluster">
<title>cluster_p0x7ffcc549dd00</title>
<polygon fill="none" stroke="black" points="8,-8 8,-371 590,-371 590,-8 8,-8"/>
<text text-anchor="middle" x="299" y="-355.8" font-family="Times,serif" font-size="14.00">Taskflow: K&#45;Means</text>
</g>
<!-- p0x112f740 -->
<g id="node1" class="node">
<title>p0x112f740</title>
<ellipse fill="none" stroke="black" cx="520" cy="-322" rx="62.29" ry="18"/>
<text text-anchor="middle" x="520" y="-318.3" font-family="Times,serif" font-size="14.00">allocate_px</text>
</g>
<!-- p0x112fa10 -->
<g id="node2" class="node">
<title>p0x112fa10</title>
<ellipse fill="none" stroke="black" cx="457" cy="-250" rx="28.7" ry="18"/>
<text text-anchor="middle" x="457" y="-246.3" font-family="Times,serif" font-size="14.00">h2d</text>
</g>
<!-- p0x112f740&#45;&gt;p0x112fa10 -->
<g id="edge1" class="edge">
<title>p0x112f740&#45;&gt;p0x112fa10</title>
<path fill="none" stroke="black" d="M505.07,-304.41C496.8,-295.22 486.4,-283.67 477.39,-273.66"/>
<polygon fill="black" stroke="black" points="479.83,-271.13 470.53,-266.04 474.62,-275.81 479.83,-271.13"/>
</g>
<!-- p0x112fb00 -->
<g id="node7" class="node">
<title>p0x112fb00</title>
<ellipse fill="none" stroke="black" cx="278" cy="-178" rx="77.19" ry="18"/>
<text text-anchor="middle" x="278" y="-174.3" font-family="Times,serif" font-size="14.00">update_means</text>
</g>
<!-- p0x112fa10&#45;&gt;p0x112fb00 -->
<g id="edge8" class="edge">
<title>p0x112fa10&#45;&gt;p0x112fb00</title>
<path fill="none" stroke="black" d="M434.81,-238.48C429.96,-236.28 424.83,-234.01 420,-232 390.03,-219.54 355.97,-206.78 328.72,-196.91"/>
<polygon fill="black" stroke="black" points="329.61,-193.51 319.01,-193.41 327.23,-200.09 329.61,-193.51"/>
</g>
<!-- p0x112f650 -->
<g id="node3" class="node">
<title>p0x112f650</title>
<ellipse fill="none" stroke="black" cx="377" cy="-322" rx="62.29" ry="18"/>
<text text-anchor="middle" x="377" y="-318.3" font-family="Times,serif" font-size="14.00">allocate_py</text>
</g>
<!-- p0x112f650&#45;&gt;p0x112fa10 -->
<g id="edge2" class="edge">
<title>p0x112f650&#45;&gt;p0x112fa10</title>
<path fill="none" stroke="black" d="M395.55,-304.76C406.84,-294.89 421.35,-282.19 433.44,-271.61"/>
<polygon fill="black" stroke="black" points="435.76,-274.24 440.98,-265.02 431.15,-268.97 435.76,-274.24"/>
</g>
<!-- p0x112f560 -->
<g id="node4" class="node">
<title>p0x112f560</title>
<ellipse fill="none" stroke="black" cx="231" cy="-322" rx="65.79" ry="18"/>
<text text-anchor="middle" x="231" y="-318.3" font-family="Times,serif" font-size="14.00">allocate_mx</text>
</g>
<!-- p0x112f560&#45;&gt;p0x112fa10 -->
<g id="edge3" class="edge">
<title>p0x112f560&#45;&gt;p0x112fa10</title>
<path fill="none" stroke="black" d="M279.43,-309.65C318.02,-300.08 373.14,-285.21 420,-268 421.84,-267.32 423.72,-266.59 425.6,-265.83"/>
<polygon fill="black" stroke="black" points="427.12,-268.99 434.93,-261.82 424.36,-262.55 427.12,-268.99"/>
</g>
<!-- p0x112f470 -->
<g id="node5" class="node">
<title>p0x112f470</title>
<ellipse fill="none" stroke="black" cx="82" cy="-322" rx="65.79" ry="18"/>
<text text-anchor="middle" x="82" y="-318.3" font-family="Times,serif" font-size="14.00">allocate_my</text>
</g>
<!-- p0x112f470&#45;&gt;p0x112fa10 -->
<g id="edge4" class="edge">
<title>p0x112f470&#45;&gt;p0x112fa10</title>
<path fill="none" stroke="black" d="M129.24,-309.48C138.1,-307.51 147.31,-305.59 156,-304 272.49,-282.72 306.29,-301.08 420,-268 421.93,-267.44 423.9,-266.79 425.86,-266.08"/>
<polygon fill="black" stroke="black" points="427.55,-269.17 435.5,-262.17 424.92,-262.69 427.55,-269.17"/>
</g>
<!-- p0x112f380 -->
<g id="node6" class="node">
<title>p0x112f380</title>
<ellipse fill="none" stroke="black" cx="349" cy="-250" rx="61.99" ry="18"/>
<text text-anchor="middle" x="349" y="-246.3" font-family="Times,serif" font-size="14.00">allocate_sx</text>
</g>
<!-- p0x112f380&#45;&gt;p0x112fb00 -->
<g id="edge5" class="edge">
<title>p0x112f380&#45;&gt;p0x112fb00</title>
<path fill="none" stroke="black" d="M332.17,-232.41C323.29,-223.65 312.21,-212.73 302.4,-203.06"/>
<polygon fill="black" stroke="black" points="304.78,-200.48 295.2,-195.96 299.86,-205.47 304.78,-200.48"/>
</g>
<!-- p0x112fbf0 -->
<g id="node10" class="node">
<title>p0x112fbf0</title>
<ellipse fill="none" stroke="black" cx="278" cy="-106" rx="28.7" ry="18"/>
<text text-anchor="middle" x="278" y="-102.3" font-family="Times,serif" font-size="14.00">d2h</text>
</g>
<!-- p0x112fb00&#45;&gt;p0x112fbf0 -->
<g id="edge9" class="edge">
<title>p0x112fb00&#45;&gt;p0x112fbf0</title>
<path fill="none" stroke="black" d="M278,-159.7C278,-151.98 278,-142.71 278,-134.11"/>
<polygon fill="black" stroke="black" points="281.5,-134.1 278,-124.1 274.5,-134.1 281.5,-134.1"/>
</g>
<!-- p0x112f830 -->
<g id="node8" class="node">
<title>p0x112f830</title>
<ellipse fill="none" stroke="black" cx="208" cy="-250" rx="61.99" ry="18"/>
<text text-anchor="middle" x="208" y="-246.3" font-family="Times,serif" font-size="14.00">allocate_sy</text>
</g>
<!-- p0x112f830&#45;&gt;p0x112fb00 -->
<g id="edge6" class="edge">
<title>p0x112f830&#45;&gt;p0x112fb00</title>
<path fill="none" stroke="black" d="M224.59,-232.41C233.35,-223.65 244.27,-212.73 253.94,-203.06"/>
<polygon fill="black" stroke="black" points="256.45,-205.5 261.04,-195.96 251.5,-200.55 256.45,-205.5"/>
</g>
<!-- p0x112f920 -->
<g id="node9" class="node">
<title>p0x112f920</title>
<ellipse fill="none" stroke="black" cx="72" cy="-250" rx="55.79" ry="18"/>
<text text-anchor="middle" x="72" y="-246.3" font-family="Times,serif" font-size="14.00">allocate_c</text>
</g>
<!-- p0x112f920&#45;&gt;p0x112fb00 -->
<g id="edge7" class="edge">
<title>p0x112f920&#45;&gt;p0x112fb00</title>
<path fill="none" stroke="black" d="M109.31,-236.32C142.09,-225.18 190.11,-208.87 226.54,-196.49"/>
<polygon fill="black" stroke="black" points="227.66,-199.8 236.01,-193.27 225.41,-193.17 227.66,-199.8"/>
</g>
<!-- p0x112fce0 -->
<g id="node11" class="node">
<title>p0x112fce0</title>
<ellipse fill="none" stroke="black" cx="278" cy="-34" rx="29.5" ry="18"/>
<text text-anchor="middle" x="278" y="-30.3" font-family="Times,serif" font-size="14.00">free</text>
</g>
<!-- p0x112fbf0&#45;&gt;p0x112fce0 -->
<g id="edge10" class="edge">
<title>p0x112fbf0&#45;&gt;p0x112fce0</title>
<path fill="none" stroke="black" d="M278,-87.7C278,-79.98 278,-70.71 278,-62.11"/>
<polygon fill="black" stroke="black" points="281.5,-62.1 278,-52.1 274.5,-62.1 281.5,-62.1"/>
</g>
</g>
</svg>
