<?xml version="1.0" encoding="UTF-8" standalone="no"?>
<!DOCTYPE svg PUBLIC "-//W3C//DTD SVG 1.1//EN"
 "http://www.w3.org/Graphics/SVG/1.1/DTD/svg11.dtd">
<!-- Generated by graphviz version 2.43.0 (0)
 -->
<!-- Title: Taskflow Pages: 1 -->
<svg width="372pt" height="236pt"
 viewBox="0.00 0.00 372.00 236.00" xmlns="http://www.w3.org/2000/svg" xmlns:xlink="http://www.w3.org/1999/xlink">
<g id="graph0" class="graph" transform="scale(1 1) rotate(0) translate(4 232)">
<title>Taskflow</title>
<polygon fill="white" stroke="transparent" points="-4,4 -4,-232 368,-232 368,4 -4,4"/>
<g id="clust1" class="cluster">
<title>cluster_p0x7ffee9781810</title>
<polygon fill="none" stroke="black" points="8,-8 8,-220 356,-220 356,-8 8,-8"/>
<text text-anchor="middle" x="182" y="-204.8" font-family="Times,serif" font-size="14.00">Taskflow</text>
</g>
<g id="clust2" class="cluster">
<title>cluster_p0x7f9866c01b70</title>
<polygon fill="none" stroke="blue" points="16,-60 16,-189 266,-189 266,-60 16,-60"/>
<text text-anchor="middle" x="141" y="-173.8" font-family="Times,serif" font-size="14.00">Subflow: B</text>
</g>
<!-- p0x7f9866c01820 -->
<g id="node1" class="node">
<title>p0x7f9866c01820</title>
<ellipse fill="none" stroke="black" cx="141" cy="-34" rx="27" ry="18"/>
<text text-anchor="middle" x="141" y="-30.3" font-family="Times,serif" font-size="14.00">A</text>
</g>
<!-- p0x7f9866c01b70 -->
<g id="node2" class="node">
<title>p0x7f9866c01b70</title>
<ellipse fill="none" stroke="black" cx="231" cy="-88" rx="27" ry="18"/>
<text text-anchor="middle" x="231" y="-84.3" font-family="Times,serif" font-size="14.00">B</text>
</g>
<!-- p0x7f9866c01820&#45;&gt;p0x7f9866c01b70 -->
<g id="edge1" class="edge">
<title>p0x7f9866c01820&#45;&gt;p0x7f9866c01b70</title>
<path fill="none" stroke="black" d="M161.53,-45.98C173.38,-53.26 188.7,-62.66 201.84,-70.72"/>
<polygon fill="black" stroke="black" points="200.17,-73.8 210.52,-76.05 203.83,-67.84 200.17,-73.8"/>
</g>
<!-- p0x7f9866c01930 -->
<g id="node3" class="node">
<title>p0x7f9866c01930</title>
<ellipse fill="none" stroke="black" cx="231" cy="-34" rx="27" ry="18"/>
<text text-anchor="middle" x="231" y="-30.3" font-family="Times,serif" font-size="14.00">C</text>
</g>
<!-- p0x7f9866c01820&#45;&gt;p0x7f9866c01930 -->
<g id="edge2" class="edge">
<title>p0x7f9866c01820&#45;&gt;p0x7f9866c01930</title>
<path fill="none" stroke="black" d="M168.4,-34C176.39,-34 185.31,-34 193.82,-34"/>
<polygon fill="black" stroke="black" points="193.92,-37.5 203.92,-34 193.92,-30.5 193.92,-37.5"/>
</g>
<!-- p0x7f9866c01a40 -->
<g id="node4" class="node">
<title>p0x7f9866c01a40</title>
<ellipse fill="none" stroke="black" cx="321" cy="-61" rx="27" ry="18"/>
<text text-anchor="middle" x="321" y="-57.3" font-family="Times,serif" font-size="14.00">D</text>
</g>
<!-- p0x7f9866c01b70&#45;&gt;p0x7f9866c01a40 -->
<g id="edge4" class="edge">
<title>p0x7f9866c01b70&#45;&gt;p0x7f9866c01a40</title>
<path fill="none" stroke="black" d="M256.05,-80.62C265.44,-77.74 276.36,-74.39 286.5,-71.28"/>
<polygon fill="black" stroke="black" points="287.75,-74.55 296.29,-68.28 285.7,-67.86 287.75,-74.55"/>
</g>
<!-- p0x7f9866c01930&#45;&gt;p0x7f9866c01a40 -->
<g id="edge3" class="edge">
<title>p0x7f9866c01930&#45;&gt;p0x7f9866c01a40</title>
<path fill="none" stroke="black" d="M256.05,-41.38C265.44,-44.26 276.36,-47.61 286.5,-50.72"/>
<polygon fill="black" stroke="black" points="285.7,-54.14 296.29,-53.72 287.75,-47.45 285.7,-54.14"/>
</g>
<!-- p0x7f9866d01880 -->
<g id="node5" class="node">
<title>p0x7f9866d01880</title>
<ellipse fill="none" stroke="black" cx="51" cy="-140" rx="27" ry="18"/>
<text text-anchor="middle" x="51" y="-136.3" font-family="Times,serif" font-size="14.00">B1</text>
</g>
<!-- p0x7f9866d01ac0 -->
<g id="node6" class="node">
<title>p0x7f9866d01ac0</title>
<ellipse fill="none" stroke="black" cx="141" cy="-88" rx="27" ry="18"/>
<text text-anchor="middle" x="141" y="-84.3" font-family="Times,serif" font-size="14.00">B3</text>
</g>
<!-- p0x7f9866d01880&#45;&gt;p0x7f9866d01ac0 -->
<g id="edge5" class="edge">
<title>p0x7f9866d01880&#45;&gt;p0x7f9866d01ac0</title>
<path fill="none" stroke="black" d="M71.97,-128.2C83.56,-121.35 98.35,-112.61 111.19,-105.03"/>
<polygon fill="black" stroke="black" points="113.28,-107.85 120.11,-99.75 109.72,-101.83 113.28,-107.85"/>
</g>
<!-- p0x7f9866d01ac0&#45;&gt;p0x7f9866c01b70 -->
<g id="edge7" class="edge">
<title>p0x7f9866d01ac0&#45;&gt;p0x7f9866c01b70</title>
<path fill="none" stroke="black" d="M168.4,-88C176.39,-88 185.31,-88 193.82,-88"/>
<polygon fill="black" stroke="black" points="193.92,-91.5 203.92,-88 193.92,-84.5 193.92,-91.5"/>
</g>
<!-- p0x7f9866d019a0 -->
<g id="node7" class="node">
<title>p0x7f9866d019a0</title>
<ellipse fill="none" stroke="black" cx="51" cy="-86" rx="27" ry="18"/>
<text text-anchor="middle" x="51" y="-82.3" font-family="Times,serif" font-size="14.00">B2</text>
</g>
<!-- p0x7f9866d019a0&#45;&gt;p0x7f9866d01ac0 -->
<g id="edge6" class="edge">
<title>p0x7f9866d019a0&#45;&gt;p0x7f9866d01ac0</title>
<path fill="none" stroke="black" d="M78.4,-86.6C86.39,-86.78 95.31,-86.98 103.82,-87.18"/>
<polygon fill="black" stroke="black" points="103.84,-90.68 113.92,-87.41 104,-83.68 103.84,-90.68"/>
</g>
</g>
</svg>
