<?xml version="1.0" encoding="UTF-8" standalone="no"?>
<!DOCTYPE svg PUBLIC "-//W3C//DTD SVG 1.1//EN"
 "http://www.w3.org/Graphics/SVG/1.1/DTD/svg11.dtd">
<!-- Generated by graphviz version 12.2.1 (20241206.2353)
 -->
<!-- Title: MergeOverview Pages: 1 -->
<svg width="552pt" height="339pt"
 viewBox="0.00 0.00 551.50 339.00" xmlns="http://www.w3.org/2000/svg" xmlns:xlink="http://www.w3.org/1999/xlink">
<g id="graph0" class="graph" transform="scale(1 1) rotate(0) translate(4 335)">
<title>MergeOverview</title>
<polygon fill="white" stroke="none" points="-4,4 -4,-335 547.5,-335 547.5,4 -4,4"/>
<!-- seq -->
<g id="node1" class="node">
<title>seq</title>
<text text-anchor="start" x="103.75" y="-308.6" font-family="Helvetica,sans-Serif" font-weight="bold" font-size="12.00">Sequential &#160;std::merge &#160;— &#160;one thread, O(N) sequential walk</text>
<polygon fill="#aed6f1" stroke="none" points="17,-266.5 17,-295.25 70.5,-295.25 70.5,-266.5 17,-266.5"/>
<polygon fill="none" stroke="black" points="17,-266.5 17,-295.25 70.5,-295.25 70.5,-266.5 17,-266.5"/>
<text text-anchor="start" x="29.88" y="-276.85" font-family="Helvetica,sans-Serif" font-weight="bold" font-size="12.00">seq1</text>
<polygon fill="#aed6f1" stroke="none" points="70.5,-266.5 70.5,-295.25 108.5,-295.25 108.5,-266.5 70.5,-266.5"/>
<polygon fill="none" stroke="black" points="70.5,-266.5 70.5,-295.25 108.5,-295.25 108.5,-266.5 70.5,-266.5"/>
<text text-anchor="start" x="86.12" y="-275.85" font-family="Helvetica,sans-Serif" font-size="12.00">1</text>
<polygon fill="#aed6f1" stroke="none" points="108.5,-266.5 108.5,-295.25 146.5,-295.25 146.5,-266.5 108.5,-266.5"/>
<polygon fill="none" stroke="black" points="108.5,-266.5 108.5,-295.25 146.5,-295.25 146.5,-266.5 108.5,-266.5"/>
<text text-anchor="start" x="124.12" y="-275.85" font-family="Helvetica,sans-Serif" font-size="12.00">3</text>
<polygon fill="#aed6f1" stroke="none" points="146.5,-266.5 146.5,-295.25 184.5,-295.25 184.5,-266.5 146.5,-266.5"/>
<polygon fill="none" stroke="black" points="146.5,-266.5 146.5,-295.25 184.5,-295.25 184.5,-266.5 146.5,-266.5"/>
<text text-anchor="start" x="162.12" y="-275.85" font-family="Helvetica,sans-Serif" font-size="12.00">5</text>
<polygon fill="#aed6f1" stroke="none" points="184.5,-266.5 184.5,-295.25 222.5,-295.25 222.5,-266.5 184.5,-266.5"/>
<polygon fill="none" stroke="black" points="184.5,-266.5 184.5,-295.25 222.5,-295.25 222.5,-266.5 184.5,-266.5"/>
<text text-anchor="start" x="200.12" y="-275.85" font-family="Helvetica,sans-Serif" font-size="12.00">7</text>
<polygon fill="#aed6f1" stroke="none" points="222.5,-266.5 222.5,-295.25 260.5,-295.25 260.5,-266.5 222.5,-266.5"/>
<polygon fill="none" stroke="black" points="222.5,-266.5 222.5,-295.25 260.5,-295.25 260.5,-266.5 222.5,-266.5"/>
<text text-anchor="start" x="238.12" y="-275.85" font-family="Helvetica,sans-Serif" font-size="12.00">9</text>
<polygon fill="#aed6f1" stroke="none" points="260.5,-266.5 260.5,-295.25 298.5,-295.25 298.5,-266.5 260.5,-266.5"/>
<polygon fill="none" stroke="black" points="260.5,-266.5 260.5,-295.25 298.5,-295.25 298.5,-266.5 260.5,-266.5"/>
<text text-anchor="start" x="273.5" y="-275.85" font-family="Helvetica,sans-Serif" font-size="12.00">11</text>
<polygon fill="#a9dfbf" stroke="none" points="17,-237.75 17,-266.5 70.5,-266.5 70.5,-237.75 17,-237.75"/>
<polygon fill="none" stroke="black" points="17,-237.75 17,-266.5 70.5,-266.5 70.5,-237.75 17,-237.75"/>
<text text-anchor="start" x="29.88" y="-248.1" font-family="Helvetica,sans-Serif" font-weight="bold" font-size="12.00">seq2</text>
<polygon fill="#a9dfbf" stroke="none" points="70.5,-237.75 70.5,-266.5 108.5,-266.5 108.5,-237.75 70.5,-237.75"/>
<polygon fill="none" stroke="black" points="70.5,-237.75 70.5,-266.5 108.5,-266.5 108.5,-237.75 70.5,-237.75"/>
<text text-anchor="start" x="86.12" y="-247.1" font-family="Helvetica,sans-Serif" font-size="12.00">2</text>
<polygon fill="#a9dfbf" stroke="none" points="108.5,-237.75 108.5,-266.5 146.5,-266.5 146.5,-237.75 108.5,-237.75"/>
<polygon fill="none" stroke="black" points="108.5,-237.75 108.5,-266.5 146.5,-266.5 146.5,-237.75 108.5,-237.75"/>
<text text-anchor="start" x="124.12" y="-247.1" font-family="Helvetica,sans-Serif" font-size="12.00">4</text>
<polygon fill="#a9dfbf" stroke="none" points="146.5,-237.75 146.5,-266.5 184.5,-266.5 184.5,-237.75 146.5,-237.75"/>
<polygon fill="none" stroke="black" points="146.5,-237.75 146.5,-266.5 184.5,-266.5 184.5,-237.75 146.5,-237.75"/>
<text text-anchor="start" x="162.12" y="-247.1" font-family="Helvetica,sans-Serif" font-size="12.00">6</text>
<polygon fill="#a9dfbf" stroke="none" points="184.5,-237.75 184.5,-266.5 222.5,-266.5 222.5,-237.75 184.5,-237.75"/>
<polygon fill="none" stroke="black" points="184.5,-237.75 184.5,-266.5 222.5,-266.5 222.5,-237.75 184.5,-237.75"/>
<text text-anchor="start" x="200.12" y="-247.1" font-family="Helvetica,sans-Serif" font-size="12.00">8</text>
<polygon fill="#a9dfbf" stroke="none" points="222.5,-237.75 222.5,-266.5 260.5,-266.5 260.5,-237.75 222.5,-237.75"/>
<polygon fill="none" stroke="black" points="222.5,-237.75 222.5,-266.5 260.5,-266.5 260.5,-237.75 222.5,-237.75"/>
<text text-anchor="start" x="234.75" y="-247.1" font-family="Helvetica,sans-Serif" font-size="12.00">10</text>
<polygon fill="#a9dfbf" stroke="none" points="260.5,-237.75 260.5,-266.5 298.5,-266.5 298.5,-237.75 260.5,-237.75"/>
<polygon fill="none" stroke="black" points="260.5,-237.75 260.5,-266.5 298.5,-266.5 298.5,-237.75 260.5,-237.75"/>
<text text-anchor="start" x="272.75" y="-247.1" font-family="Helvetica,sans-Serif" font-size="12.00">12</text>
<polygon fill="#d5d8dc" stroke="none" points="17,-209 17,-237.75 70.5,-237.75 70.5,-209 17,-209"/>
<polygon fill="none" stroke="black" points="17,-209 17,-237.75 70.5,-237.75 70.5,-209 17,-209"/>
<text text-anchor="start" x="25" y="-219.35" font-family="Helvetica,sans-Serif" font-weight="bold" font-size="12.00">output</text>
<polygon fill="none" stroke="black" points="70.5,-209 70.5,-237.75 108.5,-237.75 108.5,-209 70.5,-209"/>
<text text-anchor="start" x="86.12" y="-218.35" font-family="Helvetica,sans-Serif" font-size="12.00">1</text>
<polygon fill="none" stroke="black" points="108.5,-209 108.5,-237.75 146.5,-237.75 146.5,-209 108.5,-209"/>
<text text-anchor="start" x="124.12" y="-218.35" font-family="Helvetica,sans-Serif" font-size="12.00">2</text>
<polygon fill="none" stroke="black" points="146.5,-209 146.5,-237.75 184.5,-237.75 184.5,-209 146.5,-209"/>
<text text-anchor="start" x="162.12" y="-218.35" font-family="Helvetica,sans-Serif" font-size="12.00">3</text>
<polygon fill="none" stroke="black" points="184.5,-209 184.5,-237.75 222.5,-237.75 222.5,-209 184.5,-209"/>
<text text-anchor="start" x="200.12" y="-218.35" font-family="Helvetica,sans-Serif" font-size="12.00">4</text>
<polygon fill="none" stroke="black" points="222.5,-209 222.5,-237.75 260.5,-237.75 260.5,-209 222.5,-209"/>
<text text-anchor="start" x="238.12" y="-218.35" font-family="Helvetica,sans-Serif" font-size="12.00">5</text>
<polygon fill="none" stroke="black" points="260.5,-209 260.5,-237.75 298.5,-237.75 298.5,-209 260.5,-209"/>
<text text-anchor="start" x="276.12" y="-218.35" font-family="Helvetica,sans-Serif" font-size="12.00">6</text>
<polygon fill="none" stroke="black" points="298.5,-209 298.5,-237.75 336.5,-237.75 336.5,-209 298.5,-209"/>
<text text-anchor="start" x="314.12" y="-218.35" font-family="Helvetica,sans-Serif" font-size="12.00">7</text>
<polygon fill="none" stroke="black" points="336.5,-209 336.5,-237.75 374.5,-237.75 374.5,-209 336.5,-209"/>
<text text-anchor="start" x="352.12" y="-218.35" font-family="Helvetica,sans-Serif" font-size="12.00">8</text>
<polygon fill="none" stroke="black" points="374.5,-209 374.5,-237.75 412.5,-237.75 412.5,-209 374.5,-209"/>
<text text-anchor="start" x="390.12" y="-218.35" font-family="Helvetica,sans-Serif" font-size="12.00">9</text>
<polygon fill="none" stroke="black" points="412.5,-209 412.5,-237.75 450.5,-237.75 450.5,-209 412.5,-209"/>
<text text-anchor="start" x="424.75" y="-218.35" font-family="Helvetica,sans-Serif" font-size="12.00">10</text>
<polygon fill="none" stroke="black" points="450.5,-209 450.5,-237.75 488.5,-237.75 488.5,-209 450.5,-209"/>
<text text-anchor="start" x="463.5" y="-218.35" font-family="Helvetica,sans-Serif" font-size="12.00">11</text>
<polygon fill="none" stroke="black" points="488.5,-209 488.5,-237.75 526.5,-237.75 526.5,-209 488.5,-209"/>
<text text-anchor="start" x="500.75" y="-218.35" font-family="Helvetica,sans-Serif" font-size="12.00">12</text>
<polygon fill="none" stroke="black" points="16,-208 16,-296.25 527.5,-296.25 527.5,-208 16,-208"/>
</g>
<!-- par -->
<g id="node2" class="node">
<title>par</title>
<text text-anchor="start" x="133" y="-137.6" font-family="Helvetica,sans-Serif" font-weight="bold" font-size="12.00">Parallel merge &#160;(3 workers) &#160;— &#160;O(N/W) per worker</text>
<polygon fill="#aed6f1" stroke="none" points="17,-95.5 17,-124.25 70.5,-124.25 70.5,-95.5 17,-95.5"/>
<polygon fill="none" stroke="black" points="17,-95.5 17,-124.25 70.5,-124.25 70.5,-95.5 17,-95.5"/>
<text text-anchor="start" x="29.88" y="-105.85" font-family="Helvetica,sans-Serif" font-weight="bold" font-size="12.00">seq1</text>
<polygon fill="#fadbd8" stroke="none" points="70.5,-95.5 70.5,-124.25 108.5,-124.25 108.5,-95.5 70.5,-95.5"/>
<polygon fill="none" stroke="black" points="70.5,-95.5 70.5,-124.25 108.5,-124.25 108.5,-95.5 70.5,-95.5"/>
<text text-anchor="start" x="86.12" y="-104.85" font-family="Helvetica,sans-Serif" font-size="12.00">1</text>
<polygon fill="#fadbd8" stroke="none" points="108.5,-95.5 108.5,-124.25 146.5,-124.25 146.5,-95.5 108.5,-95.5"/>
<polygon fill="none" stroke="black" points="108.5,-95.5 108.5,-124.25 146.5,-124.25 146.5,-95.5 108.5,-95.5"/>
<text text-anchor="start" x="124.12" y="-104.85" font-family="Helvetica,sans-Serif" font-size="12.00">3</text>
<polygon fill="#fdebd0" stroke="none" points="146.5,-95.5 146.5,-124.25 184.5,-124.25 184.5,-95.5 146.5,-95.5"/>
<polygon fill="none" stroke="black" points="146.5,-95.5 146.5,-124.25 184.5,-124.25 184.5,-95.5 146.5,-95.5"/>
<text text-anchor="start" x="162.12" y="-104.85" font-family="Helvetica,sans-Serif" font-size="12.00">5</text>
<polygon fill="#fdebd0" stroke="none" points="184.5,-95.5 184.5,-124.25 222.5,-124.25 222.5,-95.5 184.5,-95.5"/>
<polygon fill="none" stroke="black" points="184.5,-95.5 184.5,-124.25 222.5,-124.25 222.5,-95.5 184.5,-95.5"/>
<text text-anchor="start" x="200.12" y="-104.85" font-family="Helvetica,sans-Serif" font-size="12.00">7</text>
<polygon fill="#d5f5e3" stroke="none" points="222.5,-95.5 222.5,-124.25 260.5,-124.25 260.5,-95.5 222.5,-95.5"/>
<polygon fill="none" stroke="black" points="222.5,-95.5 222.5,-124.25 260.5,-124.25 260.5,-95.5 222.5,-95.5"/>
<text text-anchor="start" x="238.12" y="-104.85" font-family="Helvetica,sans-Serif" font-size="12.00">9</text>
<polygon fill="#d5f5e3" stroke="none" points="260.5,-95.5 260.5,-124.25 298.5,-124.25 298.5,-95.5 260.5,-95.5"/>
<polygon fill="none" stroke="black" points="260.5,-95.5 260.5,-124.25 298.5,-124.25 298.5,-95.5 260.5,-95.5"/>
<text text-anchor="start" x="273.5" y="-104.85" font-family="Helvetica,sans-Serif" font-size="12.00">11</text>
<polygon fill="#a9dfbf" stroke="none" points="17,-66.75 17,-95.5 70.5,-95.5 70.5,-66.75 17,-66.75"/>
<polygon fill="none" stroke="black" points="17,-66.75 17,-95.5 70.5,-95.5 70.5,-66.75 17,-66.75"/>
<text text-anchor="start" x="29.88" y="-77.1" font-family="Helvetica,sans-Serif" font-weight="bold" font-size="12.00">seq2</text>
<polygon fill="#fadbd8" stroke="none" points="70.5,-66.75 70.5,-95.5 108.5,-95.5 108.5,-66.75 70.5,-66.75"/>
<polygon fill="none" stroke="black" points="70.5,-66.75 70.5,-95.5 108.5,-95.5 108.5,-66.75 70.5,-66.75"/>
<text text-anchor="start" x="86.12" y="-76.1" font-family="Helvetica,sans-Serif" font-size="12.00">2</text>
<polygon fill="#fadbd8" stroke="none" points="108.5,-66.75 108.5,-95.5 146.5,-95.5 146.5,-66.75 108.5,-66.75"/>
<polygon fill="none" stroke="black" points="108.5,-66.75 108.5,-95.5 146.5,-95.5 146.5,-66.75 108.5,-66.75"/>
<text text-anchor="start" x="124.12" y="-76.1" font-family="Helvetica,sans-Serif" font-size="12.00">4</text>
<polygon fill="#fdebd0" stroke="none" points="146.5,-66.75 146.5,-95.5 184.5,-95.5 184.5,-66.75 146.5,-66.75"/>
<polygon fill="none" stroke="black" points="146.5,-66.75 146.5,-95.5 184.5,-95.5 184.5,-66.75 146.5,-66.75"/>
<text text-anchor="start" x="162.12" y="-76.1" font-family="Helvetica,sans-Serif" font-size="12.00">6</text>
<polygon fill="#fdebd0" stroke="none" points="184.5,-66.75 184.5,-95.5 222.5,-95.5 222.5,-66.75 184.5,-66.75"/>
<polygon fill="none" stroke="black" points="184.5,-66.75 184.5,-95.5 222.5,-95.5 222.5,-66.75 184.5,-66.75"/>
<text text-anchor="start" x="200.12" y="-76.1" font-family="Helvetica,sans-Serif" font-size="12.00">8</text>
<polygon fill="#d5f5e3" stroke="none" points="222.5,-66.75 222.5,-95.5 260.5,-95.5 260.5,-66.75 222.5,-66.75"/>
<polygon fill="none" stroke="black" points="222.5,-66.75 222.5,-95.5 260.5,-95.5 260.5,-66.75 222.5,-66.75"/>
<text text-anchor="start" x="234.75" y="-76.1" font-family="Helvetica,sans-Serif" font-size="12.00">10</text>
<polygon fill="#d5f5e3" stroke="none" points="260.5,-66.75 260.5,-95.5 298.5,-95.5 298.5,-66.75 260.5,-66.75"/>
<polygon fill="none" stroke="black" points="260.5,-66.75 260.5,-95.5 298.5,-95.5 298.5,-66.75 260.5,-66.75"/>
<text text-anchor="start" x="272.75" y="-76.1" font-family="Helvetica,sans-Serif" font-size="12.00">12</text>
<polygon fill="#d5d8dc" stroke="none" points="17,-38 17,-66.75 70.5,-66.75 70.5,-38 17,-38"/>
<polygon fill="none" stroke="black" points="17,-38 17,-66.75 70.5,-66.75 70.5,-38 17,-38"/>
<text text-anchor="start" x="25" y="-48.35" font-family="Helvetica,sans-Serif" font-weight="bold" font-size="12.00">output</text>
<polygon fill="#fadbd8" stroke="none" points="70.5,-38 70.5,-66.75 108.5,-66.75 108.5,-38 70.5,-38"/>
<polygon fill="none" stroke="black" points="70.5,-38 70.5,-66.75 108.5,-66.75 108.5,-38 70.5,-38"/>
<text text-anchor="start" x="86.12" y="-47.35" font-family="Helvetica,sans-Serif" font-size="12.00">1</text>
<polygon fill="#fadbd8" stroke="none" points="108.5,-38 108.5,-66.75 146.5,-66.75 146.5,-38 108.5,-38"/>
<polygon fill="none" stroke="black" points="108.5,-38 108.5,-66.75 146.5,-66.75 146.5,-38 108.5,-38"/>
<text text-anchor="start" x="124.12" y="-47.35" font-family="Helvetica,sans-Serif" font-size="12.00">2</text>
<polygon fill="#fadbd8" stroke="none" points="146.5,-38 146.5,-66.75 184.5,-66.75 184.5,-38 146.5,-38"/>
<polygon fill="none" stroke="black" points="146.5,-38 146.5,-66.75 184.5,-66.75 184.5,-38 146.5,-38"/>
<text text-anchor="start" x="162.12" y="-47.35" font-family="Helvetica,sans-Serif" font-size="12.00">3</text>
<polygon fill="#fadbd8" stroke="none" points="184.5,-38 184.5,-66.75 222.5,-66.75 222.5,-38 184.5,-38"/>
<polygon fill="none" stroke="black" points="184.5,-38 184.5,-66.75 222.5,-66.75 222.5,-38 184.5,-38"/>
<text text-anchor="start" x="200.12" y="-47.35" font-family="Helvetica,sans-Serif" font-size="12.00">4</text>
<polygon fill="#fdebd0" stroke="none" points="222.5,-38 222.5,-66.75 260.5,-66.75 260.5,-38 222.5,-38"/>
<polygon fill="none" stroke="black" points="222.5,-38 222.5,-66.75 260.5,-66.75 260.5,-38 222.5,-38"/>
<text text-anchor="start" x="238.12" y="-47.35" font-family="Helvetica,sans-Serif" font-size="12.00">5</text>
<polygon fill="#fdebd0" stroke="none" points="260.5,-38 260.5,-66.75 298.5,-66.75 298.5,-38 260.5,-38"/>
<polygon fill="none" stroke="black" points="260.5,-38 260.5,-66.75 298.5,-66.75 298.5,-38 260.5,-38"/>
<text text-anchor="start" x="276.12" y="-47.35" font-family="Helvetica,sans-Serif" font-size="12.00">6</text>
<polygon fill="#fdebd0" stroke="none" points="298.5,-38 298.5,-66.75 336.5,-66.75 336.5,-38 298.5,-38"/>
<polygon fill="none" stroke="black" points="298.5,-38 298.5,-66.75 336.5,-66.75 336.5,-38 298.5,-38"/>
<text text-anchor="start" x="314.12" y="-47.35" font-family="Helvetica,sans-Serif" font-size="12.00">7</text>
<polygon fill="#fdebd0" stroke="none" points="336.5,-38 336.5,-66.75 374.5,-66.75 374.5,-38 336.5,-38"/>
<polygon fill="none" stroke="black" points="336.5,-38 336.5,-66.75 374.5,-66.75 374.5,-38 336.5,-38"/>
<text text-anchor="start" x="352.12" y="-47.35" font-family="Helvetica,sans-Serif" font-size="12.00">8</text>
<polygon fill="#d5f5e3" stroke="none" points="374.5,-38 374.5,-66.75 412.5,-66.75 412.5,-38 374.5,-38"/>
<polygon fill="none" stroke="black" points="374.5,-38 374.5,-66.75 412.5,-66.75 412.5,-38 374.5,-38"/>
<text text-anchor="start" x="390.12" y="-47.35" font-family="Helvetica,sans-Serif" font-size="12.00">9</text>
<polygon fill="#d5f5e3" stroke="none" points="412.5,-38 412.5,-66.75 450.5,-66.75 450.5,-38 412.5,-38"/>
<polygon fill="none" stroke="black" points="412.5,-38 412.5,-66.75 450.5,-66.75 450.5,-38 412.5,-38"/>
<text text-anchor="start" x="424.75" y="-47.35" font-family="Helvetica,sans-Serif" font-size="12.00">10</text>
<polygon fill="#d5f5e3" stroke="none" points="450.5,-38 450.5,-66.75 488.5,-66.75 488.5,-38 450.5,-38"/>
<polygon fill="none" stroke="black" points="450.5,-38 450.5,-66.75 488.5,-66.75 488.5,-38 450.5,-38"/>
<text text-anchor="start" x="463.5" y="-47.35" font-family="Helvetica,sans-Serif" font-size="12.00">11</text>
<polygon fill="#d5f5e3" stroke="none" points="488.5,-38 488.5,-66.75 526.5,-66.75 526.5,-38 488.5,-38"/>
<polygon fill="none" stroke="black" points="488.5,-38 488.5,-66.75 526.5,-66.75 526.5,-38 488.5,-38"/>
<text text-anchor="start" x="500.75" y="-47.35" font-family="Helvetica,sans-Serif" font-size="12.00">12</text>
<polygon fill="none" stroke="black" points="16,-37 16,-125.25 527.5,-125.25 527.5,-37 16,-37"/>
<text text-anchor="start" x="16" y="-16.6" font-family="Helvetica,sans-Serif" font-size="12.00"> &#160;&#160;&#160;&#160;&#160;&#160;&#160;</text>
<text text-anchor="start" x="40" y="-16.6" font-family="Helvetica,sans-Serif" font-size="12.00" fill="#c0392b">■</text>
<text text-anchor="start" x="46.75" y="-16.6" font-family="Helvetica,sans-Serif" font-size="12.00"> Worker 0: output[0..4)   &#160;&#160;&#160;&#160;&#160;&#160;&#160;</text>
<text text-anchor="start" x="193" y="-16.6" font-family="Helvetica,sans-Serif" font-size="12.00" fill="#e67e22">■</text>
<text text-anchor="start" x="199.75" y="-16.6" font-family="Helvetica,sans-Serif" font-size="12.00"> Worker 1: output[4..8)   &#160;&#160;&#160;&#160;&#160;&#160;&#160;</text>
<text text-anchor="start" x="346" y="-16.6" font-family="Helvetica,sans-Serif" font-size="12.00" fill="#27ae60">■</text>
<text text-anchor="start" x="352.75" y="-16.6" font-family="Helvetica,sans-Serif" font-size="12.00"> Worker 2: output[8..12) &#160;&#160;&#160;&#160;&#160;</text>
</g>
<!-- seq&#45;&gt;par -->
</g>
</svg>
