<?xml version="1.0" encoding="UTF-8" standalone="no"?>
<!DOCTYPE svg PUBLIC "-//W3C//DTD SVG 1.1//EN"
 "http://www.w3.org/Graphics/SVG/1.1/DTD/svg11.dtd">
<!-- Generated by graphviz version 12.2.1 (20241206.2353)
 -->
<!-- Title: BFS Pages: 1 -->
<svg width="398pt" height="332pt"
 viewBox="0.00 0.00 398.00 332.00" xmlns="http://www.w3.org/2000/svg" xmlns:xlink="http://www.w3.org/1999/xlink">
<g id="graph0" class="graph" transform="scale(1 1) rotate(0) translate(4 328)">
<title>BFS</title>
<polygon fill="white" stroke="none" points="-4,4 -4,-328 394,-328 394,4 -4,4"/>
<!-- s -->
<g id="node1" class="node">
<title>s</title>
<ellipse fill="#fde8d0" stroke="black" cx="27" cy="-126" rx="18" ry="18"/>
<text text-anchor="middle" x="27" y="-120.97" font-family="Helvetica,sans-Serif" font-size="12.00">S</text>
</g>
<!-- a -->
<g id="node2" class="node">
<title>a</title>
<ellipse fill="#cce5ff" stroke="black" cx="139" cy="-198" rx="18" ry="18"/>
<text text-anchor="middle" x="139" y="-192.97" font-family="Helvetica,sans-Serif" font-size="12.00">A</text>
</g>
<!-- s&#45;&gt;a -->
<g id="edge1" class="edge">
<title>s&#45;&gt;a</title>
<path fill="none" stroke="black" d="M42.38,-135.41C60.48,-147.26 91.84,-167.78 113.69,-182.09"/>
<polygon fill="black" stroke="black" points="111.71,-184.98 122,-187.53 115.55,-179.12 111.71,-184.98"/>
</g>
<!-- b -->
<g id="node3" class="node">
<title>b</title>
<ellipse fill="#cce5ff" stroke="black" cx="139" cy="-126" rx="18" ry="18"/>
<text text-anchor="middle" x="139" y="-120.97" font-family="Helvetica,sans-Serif" font-size="12.00">B</text>
</g>
<!-- s&#45;&gt;b -->
<g id="edge2" class="edge">
<title>s&#45;&gt;b</title>
<path fill="none" stroke="black" d="M45.19,-126C62.28,-126 88.82,-126 109.15,-126"/>
<polygon fill="black" stroke="black" points="109.06,-129.5 119.06,-126 109.06,-122.5 109.06,-129.5"/>
</g>
<!-- c -->
<g id="node4" class="node">
<title>c</title>
<ellipse fill="#cce5ff" stroke="black" cx="139" cy="-54" rx="18" ry="18"/>
<text text-anchor="middle" x="139" y="-48.98" font-family="Helvetica,sans-Serif" font-size="12.00">C</text>
</g>
<!-- s&#45;&gt;c -->
<g id="edge3" class="edge">
<title>s&#45;&gt;c</title>
<path fill="none" stroke="black" d="M42.38,-116.59C60.48,-104.74 91.84,-84.22 113.69,-69.91"/>
<polygon fill="black" stroke="black" points="115.55,-72.88 122,-64.47 111.71,-67.02 115.55,-72.88"/>
</g>
<!-- d -->
<g id="node5" class="node">
<title>d</title>
<ellipse fill="#d4edda" stroke="black" cx="251" cy="-234" rx="18" ry="18"/>
<text text-anchor="middle" x="251" y="-228.97" font-family="Helvetica,sans-Serif" font-size="12.00">D</text>
</g>
<!-- a&#45;&gt;d -->
<g id="edge4" class="edge">
<title>a&#45;&gt;d</title>
<path fill="none" stroke="black" d="M156.23,-203.31C173.68,-209.02 201.71,-218.2 222.59,-225.03"/>
<polygon fill="black" stroke="black" points="221.31,-228.29 231.9,-228.08 223.49,-221.64 221.31,-228.29"/>
</g>
<!-- e -->
<g id="node6" class="node">
<title>e</title>
<ellipse fill="#d4edda" stroke="black" cx="251" cy="-162" rx="18" ry="18"/>
<text text-anchor="middle" x="251" y="-156.97" font-family="Helvetica,sans-Serif" font-size="12.00">E</text>
</g>
<!-- a&#45;&gt;e -->
<g id="edge5" class="edge">
<title>a&#45;&gt;e</title>
<path fill="none" stroke="black" d="M156.23,-192.69C173.68,-186.98 201.71,-177.8 222.59,-170.97"/>
<polygon fill="black" stroke="black" points="223.49,-174.36 231.9,-167.92 221.31,-167.71 223.49,-174.36"/>
</g>
<!-- b&#45;&gt;e -->
<g id="edge6" class="edge">
<title>b&#45;&gt;e</title>
<path fill="none" stroke="black" d="M156.23,-131.31C173.68,-137.02 201.71,-146.2 222.59,-153.03"/>
<polygon fill="black" stroke="black" points="221.31,-156.29 231.9,-156.08 223.49,-149.64 221.31,-156.29"/>
</g>
<!-- f -->
<g id="node7" class="node">
<title>f</title>
<ellipse fill="#d4edda" stroke="black" cx="251" cy="-90" rx="18" ry="18"/>
<text text-anchor="middle" x="251" y="-84.97" font-family="Helvetica,sans-Serif" font-size="12.00">F</text>
</g>
<!-- b&#45;&gt;f -->
<g id="edge7" class="edge">
<title>b&#45;&gt;f</title>
<path fill="none" stroke="black" d="M156.23,-120.69C173.68,-114.98 201.71,-105.8 222.59,-98.97"/>
<polygon fill="black" stroke="black" points="223.49,-102.36 231.9,-95.92 221.31,-95.71 223.49,-102.36"/>
</g>
<!-- c&#45;&gt;f -->
<g id="edge8" class="edge">
<title>c&#45;&gt;f</title>
<path fill="none" stroke="black" d="M156.23,-59.31C173.68,-65.02 201.71,-74.2 222.59,-81.03"/>
<polygon fill="black" stroke="black" points="221.31,-84.29 231.9,-84.08 223.49,-77.64 221.31,-84.29"/>
</g>
<!-- g -->
<g id="node8" class="node">
<title>g</title>
<ellipse fill="#d4edda" stroke="black" cx="251" cy="-18" rx="18" ry="18"/>
<text text-anchor="middle" x="251" y="-12.97" font-family="Helvetica,sans-Serif" font-size="12.00">G</text>
</g>
<!-- c&#45;&gt;g -->
<g id="edge9" class="edge">
<title>c&#45;&gt;g</title>
<path fill="none" stroke="black" d="M156.23,-48.69C173.68,-42.98 201.71,-33.8 222.59,-26.97"/>
<polygon fill="black" stroke="black" points="223.49,-30.36 231.9,-23.92 221.31,-23.71 223.49,-30.36"/>
</g>
<!-- h -->
<g id="node9" class="node">
<title>h</title>
<ellipse fill="#fff3cd" stroke="black" cx="363" cy="-198" rx="18" ry="18"/>
<text text-anchor="middle" x="363" y="-192.97" font-family="Helvetica,sans-Serif" font-size="12.00">H</text>
</g>
<!-- d&#45;&gt;h -->
<g id="edge10" class="edge">
<title>d&#45;&gt;h</title>
<path fill="none" stroke="black" d="M268.23,-228.69C285.68,-222.98 313.71,-213.8 334.59,-206.97"/>
<polygon fill="black" stroke="black" points="335.49,-210.36 343.9,-203.92 333.31,-203.71 335.49,-210.36"/>
</g>
<!-- e&#45;&gt;h -->
<g id="edge11" class="edge">
<title>e&#45;&gt;h</title>
<path fill="none" stroke="black" d="M268.23,-167.31C285.68,-173.02 313.71,-182.2 334.59,-189.03"/>
<polygon fill="black" stroke="black" points="333.31,-192.29 343.9,-192.08 335.49,-185.64 333.31,-192.29"/>
</g>
<!-- i -->
<g id="node10" class="node">
<title>i</title>
<ellipse fill="#fff3cd" stroke="black" cx="363" cy="-126" rx="18" ry="18"/>
<text text-anchor="middle" x="363" y="-120.97" font-family="Helvetica,sans-Serif" font-size="12.00">I</text>
</g>
<!-- e&#45;&gt;i -->
<g id="edge12" class="edge">
<title>e&#45;&gt;i</title>
<path fill="none" stroke="black" d="M268.23,-156.69C285.68,-150.98 313.71,-141.8 334.59,-134.97"/>
<polygon fill="black" stroke="black" points="335.49,-138.36 343.9,-131.92 333.31,-131.71 335.49,-138.36"/>
</g>
<!-- f&#45;&gt;i -->
<g id="edge13" class="edge">
<title>f&#45;&gt;i</title>
<path fill="none" stroke="black" d="M268.23,-95.31C285.68,-101.02 313.71,-110.2 334.59,-117.03"/>
<polygon fill="black" stroke="black" points="333.31,-120.29 343.9,-120.08 335.49,-113.64 333.31,-120.29"/>
</g>
<!-- lv0 -->
<g id="node11" class="node">
<title>lv0</title>
<polygon fill="white" stroke="none" points="54,-216 0,-216 0,-180 54,-180 54,-216"/>
<text text-anchor="middle" x="27" y="-199.35" font-family="Helvetica,sans-Serif" font-size="12.00">Level 0</text>
<text text-anchor="middle" x="27" y="-186.6" font-family="Helvetica,sans-Serif" font-size="12.00">(source)</text>
</g>
<!-- lv1 -->
<g id="node12" class="node">
<title>lv1</title>
<polygon fill="white" stroke="none" points="166,-288 112,-288 112,-252 166,-252 166,-288"/>
<text text-anchor="middle" x="139" y="-271.35" font-family="Helvetica,sans-Serif" font-size="12.00">Level 1</text>
<text text-anchor="middle" x="139" y="-258.6" font-family="Helvetica,sans-Serif" font-size="12.00">(frontier)</text>
</g>
<!-- lv2 -->
<g id="node13" class="node">
<title>lv2</title>
<polygon fill="white" stroke="none" points="278,-324 224,-324 224,-288 278,-288 278,-324"/>
<text text-anchor="middle" x="251" y="-307.35" font-family="Helvetica,sans-Serif" font-size="12.00">Level 2</text>
<text text-anchor="middle" x="251" y="-294.6" font-family="Helvetica,sans-Serif" font-size="12.00">(frontier)</text>
</g>
<!-- lv3 -->
<g id="node14" class="node">
<title>lv3</title>
<polygon fill="white" stroke="none" points="390,-288 336,-288 336,-252 390,-252 390,-288"/>
<text text-anchor="middle" x="363" y="-271.35" font-family="Helvetica,sans-Serif" font-size="12.00">Level 3</text>
<text text-anchor="middle" x="363" y="-258.6" font-family="Helvetica,sans-Serif" font-size="12.00">(frontier)</text>
</g>
</g>
</svg>
