<?xml version="1.0" encoding="UTF-8" standalone="no"?>
<!DOCTYPE svg PUBLIC "-//W3C//DTD SVG 1.1//EN"
 "http://www.w3.org/Graphics/SVG/1.1/DTD/svg11.dtd">
<!-- Generated by graphviz version 12.2.1 (20241206.2353)
 -->
<!-- Title: Taskflow Pages: 1 -->
<svg width="854pt" height="189pt"
 viewBox="0.00 0.00 854.00 189.00" xmlns="http://www.w3.org/2000/svg" xmlns:xlink="http://www.w3.org/1999/xlink">
<g id="graph0" class="graph" transform="scale(1 1) rotate(0) translate(4 185)">
<title>Taskflow</title>
<polygon fill="white" stroke="none" points="-4,4 -4,-185 850,-185 850,4 -4,4"/>
<g id="clust1" class="cluster">
<title>cluster_p0x7ffe35bde158</title>
<polygon fill="none" stroke="black" points="8,-8 8,-173 250,-173 250,-8 8,-8"/>
<text text-anchor="middle" x="129" y="-155.7" font-family="Times,serif" font-size="14.00">Taskflow</text>
</g>
<g id="clust2" class="cluster">
<title>cluster_p0x7ffe35bddd80</title>
<polygon fill="none" stroke="black" points="258,-8 258,-173 544,-173 544,-8 258,-8"/>
<text text-anchor="middle" x="401" y="-155.7" font-family="Times,serif" font-size="14.00">m2</text>
</g>
<g id="clust3" class="cluster">
<title>cluster_p0x7ffe35bdde20</title>
<polygon fill="none" stroke="black" points="552,-8 552,-173 838,-173 838,-8 552,-8"/>
<text text-anchor="middle" x="695" y="-155.7" font-family="Times,serif" font-size="14.00">m1</text>
</g>
<!-- p0x131af10 -->
<g id="node1" class="node">
<title>p0x131af10</title>
<polygon fill="none" stroke="blue" points="119.88,-52 20.12,-52 16.12,-48 16.12,-16 115.88,-16 119.88,-20 119.88,-52"/>
<polyline fill="none" stroke="blue" points="115.88,-48 16.12,-48"/>
<polyline fill="none" stroke="blue" points="115.88,-48 115.88,-16"/>
<polyline fill="none" stroke="blue" points="115.88,-48 119.88,-52"/>
<text text-anchor="middle" x="68" y="-28.95" font-family="Times,serif" font-size="14.00">pipeline_1 [m1]</text>
</g>
<!-- p0x131aff8 -->
<g id="node2" class="node">
<title>p0x131aff8</title>
<polygon fill="none" stroke="blue" points="241.88,-52 142.12,-52 138.12,-48 138.12,-16 237.88,-16 241.88,-20 241.88,-52"/>
<polyline fill="none" stroke="blue" points="237.88,-48 138.12,-48"/>
<polyline fill="none" stroke="blue" points="237.88,-48 237.88,-16"/>
<polyline fill="none" stroke="blue" points="237.88,-48 241.88,-52"/>
<text text-anchor="middle" x="190" y="-28.95" font-family="Times,serif" font-size="14.00">pipeline_2 [m2]</text>
</g>
<!-- p0x131b0e0 -->
<g id="node3" class="node">
<title>p0x131b0e0</title>
<ellipse fill="none" stroke="black" cx="129" cy="-122.5" rx="32.41" ry="18"/>
<text text-anchor="middle" x="129" y="-117.45" font-family="Times,serif" font-size="14.00">initial</text>
</g>
<!-- p0x131b0e0&#45;&gt;p0x131af10 -->
<g id="edge1" class="edge">
<title>p0x131b0e0&#45;&gt;p0x131af10</title>
<path fill="none" stroke="black" d="M117.53,-105.23C108.89,-92.98 96.86,-75.93 86.83,-61.7"/>
<polygon fill="black" stroke="black" points="89.76,-59.78 81.13,-53.62 84.03,-63.81 89.76,-59.78"/>
</g>
<!-- p0x131b0e0&#45;&gt;p0x131aff8 -->
<g id="edge2" class="edge">
<title>p0x131b0e0&#45;&gt;p0x131aff8</title>
<path fill="none" stroke="black" d="M140.47,-105.23C149.11,-92.98 161.14,-75.93 171.17,-61.7"/>
<polygon fill="black" stroke="black" points="173.97,-63.81 176.87,-53.62 168.24,-59.78 173.97,-63.81"/>
</g>
<!-- p0x131aa88 -->
<g id="node4" class="node">
<title>p0x131aa88</title>
<polygon fill="aquamarine" stroke="black" points="400,-140.5 359.23,-122.5 400,-104.5 440.77,-122.5 400,-140.5"/>
<text text-anchor="middle" x="400" y="-117.45" font-family="Times,serif" font-size="14.00">cond</text>
</g>
<!-- p0x131ab70 -->
<g id="node5" class="node">
<title>p0x131ab70</title>
<polygon fill="none" stroke="black" points="320,-52 266,-52 266,-48 262,-48 262,-44 266,-44 266,-24 262,-24 262,-20 266,-20 266,-16 320,-16 320,-52"/>
<polyline fill="none" stroke="black" points="266,-48 270,-48 270,-44 266,-44"/>
<polyline fill="none" stroke="black" points="266,-24 270,-24 270,-20 266,-20"/>
<text text-anchor="middle" x="293" y="-28.95" font-family="Times,serif" font-size="14.00">rt&#45;0</text>
</g>
<!-- p0x131aa88&#45;&gt;p0x131ab70 -->
<g id="edge3" class="edge">
<title>p0x131aa88&#45;&gt;p0x131ab70</title>
<path fill="none" stroke="black" stroke-dasharray="5,2" d="M386.01,-110.19C370.12,-97.35 343.73,-76.01 323.11,-59.34"/>
<polygon fill="black" stroke="black" points="325.54,-56.8 315.56,-53.24 321.14,-62.25 325.54,-56.8"/>
<text text-anchor="middle" x="359.46" y="-73.2" font-family="Times,serif" font-size="14.00">0</text>
</g>
<!-- p0x131ac58 -->
<g id="node6" class="node">
<title>p0x131ac58</title>
<polygon fill="none" stroke="black" points="392,-52 338,-52 338,-48 334,-48 334,-44 338,-44 338,-24 334,-24 334,-20 338,-20 338,-16 392,-16 392,-52"/>
<polyline fill="none" stroke="black" points="338,-48 342,-48 342,-44 338,-44"/>
<polyline fill="none" stroke="black" points="338,-24 342,-24 342,-20 338,-20"/>
<text text-anchor="middle" x="365" y="-28.95" font-family="Times,serif" font-size="14.00">rt&#45;1</text>
</g>
<!-- p0x131aa88&#45;&gt;p0x131ac58 -->
<g id="edge4" class="edge">
<title>p0x131aa88&#45;&gt;p0x131ac58</title>
<path fill="none" stroke="black" stroke-dasharray="5,2" d="M394.06,-106.83C389.21,-94.84 382.22,-77.56 376.31,-62.95"/>
<polygon fill="black" stroke="black" points="379.62,-61.79 372.62,-53.84 373.13,-64.42 379.62,-61.79"/>
<text text-anchor="middle" x="389.01" y="-73.2" font-family="Times,serif" font-size="14.00">1</text>
</g>
<!-- p0x131ad40 -->
<g id="node7" class="node">
<title>p0x131ad40</title>
<polygon fill="none" stroke="black" points="464,-52 410,-52 410,-48 406,-48 406,-44 410,-44 410,-24 406,-24 406,-20 410,-20 410,-16 464,-16 464,-52"/>
<polyline fill="none" stroke="black" points="410,-48 414,-48 414,-44 410,-44"/>
<polyline fill="none" stroke="black" points="410,-24 414,-24 414,-20 410,-20"/>
<text text-anchor="middle" x="437" y="-28.95" font-family="Times,serif" font-size="14.00">rt&#45;2</text>
</g>
<!-- p0x131aa88&#45;&gt;p0x131ad40 -->
<g id="edge5" class="edge">
<title>p0x131aa88&#45;&gt;p0x131ad40</title>
<path fill="none" stroke="black" stroke-dasharray="5,2" d="M406.28,-106.83C411.4,-94.84 418.79,-77.56 425.04,-62.95"/>
<polygon fill="black" stroke="black" points="428.23,-64.4 428.95,-53.82 421.8,-61.64 428.23,-64.4"/>
<text text-anchor="middle" x="425.19" y="-73.2" font-family="Times,serif" font-size="14.00">2</text>
</g>
<!-- p0x131ae28 -->
<g id="node8" class="node">
<title>p0x131ae28</title>
<polygon fill="none" stroke="black" points="536,-52 482,-52 482,-48 478,-48 478,-44 482,-44 482,-24 478,-24 478,-20 482,-20 482,-16 536,-16 536,-52"/>
<polyline fill="none" stroke="black" points="482,-48 486,-48 486,-44 482,-44"/>
<polyline fill="none" stroke="black" points="482,-24 486,-24 486,-20 482,-20"/>
<text text-anchor="middle" x="509" y="-28.95" font-family="Times,serif" font-size="14.00">rt&#45;3</text>
</g>
<!-- p0x131aa88&#45;&gt;p0x131ae28 -->
<g id="edge6" class="edge">
<title>p0x131aa88&#45;&gt;p0x131ae28</title>
<path fill="none" stroke="black" stroke-dasharray="5,2" d="M413.8,-110.54C429.87,-97.79 456.91,-76.34 478.07,-59.55"/>
<polygon fill="black" stroke="black" points="480.18,-62.34 485.84,-53.38 475.83,-56.86 480.18,-62.34"/>
<text text-anchor="middle" x="467.64" y="-73.2" font-family="Times,serif" font-size="14.00">3</text>
</g>
<!-- p0x131a600 -->
<g id="node9" class="node">
<title>p0x131a600</title>
<polygon fill="aquamarine" stroke="black" points="694,-140.5 653.23,-122.5 694,-104.5 734.77,-122.5 694,-140.5"/>
<text text-anchor="middle" x="694" y="-117.45" font-family="Times,serif" font-size="14.00">cond</text>
</g>
<!-- p0x131a6e8 -->
<g id="node10" class="node">
<title>p0x131a6e8</title>
<polygon fill="none" stroke="black" points="614,-52 560,-52 560,-48 556,-48 556,-44 560,-44 560,-24 556,-24 556,-20 560,-20 560,-16 614,-16 614,-52"/>
<polyline fill="none" stroke="black" points="560,-48 564,-48 564,-44 560,-44"/>
<polyline fill="none" stroke="black" points="560,-24 564,-24 564,-20 560,-20"/>
<text text-anchor="middle" x="587" y="-28.95" font-family="Times,serif" font-size="14.00">rt&#45;0</text>
</g>
<!-- p0x131a600&#45;&gt;p0x131a6e8 -->
<g id="edge7" class="edge">
<title>p0x131a600&#45;&gt;p0x131a6e8</title>
<path fill="none" stroke="black" stroke-dasharray="5,2" d="M680.01,-110.19C664.12,-97.35 637.73,-76.01 617.11,-59.34"/>
<polygon fill="black" stroke="black" points="619.54,-56.8 609.56,-53.24 615.14,-62.25 619.54,-56.8"/>
<text text-anchor="middle" x="653.46" y="-73.2" font-family="Times,serif" font-size="14.00">0</text>
</g>
<!-- p0x131a7d0 -->
<g id="node11" class="node">
<title>p0x131a7d0</title>
<polygon fill="none" stroke="black" points="686,-52 632,-52 632,-48 628,-48 628,-44 632,-44 632,-24 628,-24 628,-20 632,-20 632,-16 686,-16 686,-52"/>
<polyline fill="none" stroke="black" points="632,-48 636,-48 636,-44 632,-44"/>
<polyline fill="none" stroke="black" points="632,-24 636,-24 636,-20 632,-20"/>
<text text-anchor="middle" x="659" y="-28.95" font-family="Times,serif" font-size="14.00">rt&#45;1</text>
</g>
<!-- p0x131a600&#45;&gt;p0x131a7d0 -->
<g id="edge8" class="edge">
<title>p0x131a600&#45;&gt;p0x131a7d0</title>
<path fill="none" stroke="black" stroke-dasharray="5,2" d="M688.06,-106.83C683.21,-94.84 676.22,-77.56 670.31,-62.95"/>
<polygon fill="black" stroke="black" points="673.62,-61.79 666.62,-53.84 667.13,-64.42 673.62,-61.79"/>
<text text-anchor="middle" x="683.01" y="-73.2" font-family="Times,serif" font-size="14.00">1</text>
</g>
<!-- p0x131a8b8 -->
<g id="node12" class="node">
<title>p0x131a8b8</title>
<polygon fill="none" stroke="black" points="758,-52 704,-52 704,-48 700,-48 700,-44 704,-44 704,-24 700,-24 700,-20 704,-20 704,-16 758,-16 758,-52"/>
<polyline fill="none" stroke="black" points="704,-48 708,-48 708,-44 704,-44"/>
<polyline fill="none" stroke="black" points="704,-24 708,-24 708,-20 704,-20"/>
<text text-anchor="middle" x="731" y="-28.95" font-family="Times,serif" font-size="14.00">rt&#45;2</text>
</g>
<!-- p0x131a600&#45;&gt;p0x131a8b8 -->
<g id="edge9" class="edge">
<title>p0x131a600&#45;&gt;p0x131a8b8</title>
<path fill="none" stroke="black" stroke-dasharray="5,2" d="M700.28,-106.83C705.4,-94.84 712.79,-77.56 719.04,-62.95"/>
<polygon fill="black" stroke="black" points="722.23,-64.4 722.95,-53.82 715.8,-61.64 722.23,-64.4"/>
<text text-anchor="middle" x="719.19" y="-73.2" font-family="Times,serif" font-size="14.00">2</text>
</g>
<!-- p0x131a9a0 -->
<g id="node13" class="node">
<title>p0x131a9a0</title>
<polygon fill="none" stroke="black" points="830,-52 776,-52 776,-48 772,-48 772,-44 776,-44 776,-24 772,-24 772,-20 776,-20 776,-16 830,-16 830,-52"/>
<polyline fill="none" stroke="black" points="776,-48 780,-48 780,-44 776,-44"/>
<polyline fill="none" stroke="black" points="776,-24 780,-24 780,-20 776,-20"/>
<text text-anchor="middle" x="803" y="-28.95" font-family="Times,serif" font-size="14.00">rt&#45;3</text>
</g>
<!-- p0x131a600&#45;&gt;p0x131a9a0 -->
<g id="edge10" class="edge">
<title>p0x131a600&#45;&gt;p0x131a9a0</title>
<path fill="none" stroke="black" stroke-dasharray="5,2" d="M707.8,-110.54C723.87,-97.79 750.91,-76.34 772.07,-59.55"/>
<polygon fill="black" stroke="black" points="774.18,-62.34 779.84,-53.38 769.83,-56.86 774.18,-62.34"/>
<text text-anchor="middle" x="761.64" y="-73.2" font-family="Times,serif" font-size="14.00">3</text>
</g>
</g>
</svg>
