<?xml version="1.0" encoding="UTF-8" standalone="no"?>
<!DOCTYPE svg PUBLIC "-//W3C//DTD SVG 1.1//EN"
 "http://www.w3.org/Graphics/SVG/1.1/DTD/svg11.dtd">
<!-- Generated by graphviz version 12.2.1 (20241206.2353)
 -->
<!-- Title: Taskflow Pages: 1 -->
<svg width="721pt" height="206pt"
 viewBox="0.00 0.00 720.80 206.00" xmlns="http://www.w3.org/2000/svg" xmlns:xlink="http://www.w3.org/1999/xlink">
<g id="graph0" class="graph" transform="scale(1 1) rotate(0) translate(4 202)">
<title>Taskflow</title>
<polygon fill="white" stroke="none" points="-4,4 -4,-202 716.8,-202 716.8,4 -4,4"/>
<!-- p0x563eef67dc70 -->
<g id="node1" class="node">
<title>p0x563eef67dc70</title>
<ellipse fill="none" stroke="black" cx="35.49" cy="-99" rx="35.49" ry="18"/>
<text text-anchor="middle" x="35.49" y="-93.95" font-family="Times,serif" font-size="14.00">B_0_0</text>
</g>
<!-- p0x563eef67dd78 -->
<g id="node2" class="node">
<title>p0x563eef67dd78</title>
<ellipse fill="none" stroke="black" cx="142.46" cy="-126" rx="35.49" ry="18"/>
<text text-anchor="middle" x="142.46" y="-120.95" font-family="Times,serif" font-size="14.00">B_0_1</text>
</g>
<!-- p0x563eef67dc70&#45;&gt;p0x563eef67dd78 -->
<g id="edge1" class="edge">
<title>p0x563eef67dc70&#45;&gt;p0x563eef67dd78</title>
<path fill="none" stroke="black" d="M67.7,-107.03C77.55,-109.56 88.61,-112.41 99.1,-115.11"/>
<polygon fill="black" stroke="black" points="98.16,-118.48 108.72,-117.58 99.91,-111.7 98.16,-118.48"/>
</g>
<!-- p0x563eef67e090 -->
<g id="node3" class="node">
<title>p0x563eef67e090</title>
<ellipse fill="none" stroke="black" cx="142.46" cy="-72" rx="35.49" ry="18"/>
<text text-anchor="middle" x="142.46" y="-66.95" font-family="Times,serif" font-size="14.00">B_1_0</text>
</g>
<!-- p0x563eef67dc70&#45;&gt;p0x563eef67e090 -->
<g id="edge2" class="edge">
<title>p0x563eef67dc70&#45;&gt;p0x563eef67e090</title>
<path fill="none" stroke="black" d="M67.7,-90.97C77.55,-88.44 88.61,-85.59 99.1,-82.89"/>
<polygon fill="black" stroke="black" points="99.91,-86.3 108.72,-80.42 98.16,-79.52 99.91,-86.3"/>
</g>
<!-- p0x563eef67de80 -->
<g id="node4" class="node">
<title>p0x563eef67de80</title>
<ellipse fill="none" stroke="black" cx="249.43" cy="-153" rx="35.49" ry="18"/>
<text text-anchor="middle" x="249.43" y="-147.95" font-family="Times,serif" font-size="14.00">B_0_2</text>
</g>
<!-- p0x563eef67dd78&#45;&gt;p0x563eef67de80 -->
<g id="edge3" class="edge">
<title>p0x563eef67dd78&#45;&gt;p0x563eef67de80</title>
<path fill="none" stroke="black" d="M174.67,-134.03C184.52,-136.56 195.58,-139.41 206.07,-142.11"/>
<polygon fill="black" stroke="black" points="205.13,-145.48 215.69,-144.58 206.88,-138.7 205.13,-145.48"/>
</g>
<!-- p0x563eef67e198 -->
<g id="node5" class="node">
<title>p0x563eef67e198</title>
<ellipse fill="none" stroke="black" cx="249.43" cy="-99" rx="35.49" ry="18"/>
<text text-anchor="middle" x="249.43" y="-93.95" font-family="Times,serif" font-size="14.00">B_1_1</text>
</g>
<!-- p0x563eef67dd78&#45;&gt;p0x563eef67e198 -->
<g id="edge4" class="edge">
<title>p0x563eef67dd78&#45;&gt;p0x563eef67e198</title>
<path fill="none" stroke="black" d="M174.67,-117.97C184.52,-115.44 195.58,-112.59 206.07,-109.89"/>
<polygon fill="black" stroke="black" points="206.88,-113.3 215.69,-107.42 205.13,-106.52 206.88,-113.3"/>
</g>
<!-- p0x563eef67e090&#45;&gt;p0x563eef67e198 -->
<g id="edge8" class="edge">
<title>p0x563eef67e090&#45;&gt;p0x563eef67e198</title>
<path fill="none" stroke="black" d="M174.67,-80.03C184.52,-82.56 195.58,-85.41 206.07,-88.11"/>
<polygon fill="black" stroke="black" points="205.13,-91.48 215.69,-90.58 206.88,-84.7 205.13,-91.48"/>
</g>
<!-- p0x563eef67e4b0 -->
<g id="node9" class="node">
<title>p0x563eef67e4b0</title>
<ellipse fill="none" stroke="black" cx="249.43" cy="-45" rx="35.49" ry="18"/>
<text text-anchor="middle" x="249.43" y="-39.95" font-family="Times,serif" font-size="14.00">B_2_0</text>
</g>
<!-- p0x563eef67e090&#45;&gt;p0x563eef67e4b0 -->
<g id="edge9" class="edge">
<title>p0x563eef67e090&#45;&gt;p0x563eef67e4b0</title>
<path fill="none" stroke="black" d="M174.67,-63.97C184.52,-61.44 195.58,-58.59 206.07,-55.89"/>
<polygon fill="black" stroke="black" points="206.88,-59.3 215.69,-53.42 205.13,-52.52 206.88,-59.3"/>
</g>
<!-- p0x563eef67df88 -->
<g id="node6" class="node">
<title>p0x563eef67df88</title>
<ellipse fill="none" stroke="black" cx="356.4" cy="-180" rx="35.49" ry="18"/>
<text text-anchor="middle" x="356.4" y="-174.95" font-family="Times,serif" font-size="14.00">B_0_3</text>
</g>
<!-- p0x563eef67de80&#45;&gt;p0x563eef67df88 -->
<g id="edge5" class="edge">
<title>p0x563eef67de80&#45;&gt;p0x563eef67df88</title>
<path fill="none" stroke="black" d="M281.64,-161.03C291.49,-163.56 302.55,-166.41 313.04,-169.11"/>
<polygon fill="black" stroke="black" points="312.1,-172.48 322.66,-171.58 313.85,-165.7 312.1,-172.48"/>
</g>
<!-- p0x563eef67e2a0 -->
<g id="node7" class="node">
<title>p0x563eef67e2a0</title>
<ellipse fill="none" stroke="black" cx="356.4" cy="-126" rx="35.49" ry="18"/>
<text text-anchor="middle" x="356.4" y="-120.95" font-family="Times,serif" font-size="14.00">B_1_2</text>
</g>
<!-- p0x563eef67de80&#45;&gt;p0x563eef67e2a0 -->
<g id="edge6" class="edge">
<title>p0x563eef67de80&#45;&gt;p0x563eef67e2a0</title>
<path fill="none" stroke="black" d="M281.64,-144.97C291.49,-142.44 302.55,-139.59 313.04,-136.89"/>
<polygon fill="black" stroke="black" points="313.85,-140.3 322.66,-134.42 312.1,-133.52 313.85,-140.3"/>
</g>
<!-- p0x563eef67e198&#45;&gt;p0x563eef67e2a0 -->
<g id="edge10" class="edge">
<title>p0x563eef67e198&#45;&gt;p0x563eef67e2a0</title>
<path fill="none" stroke="black" d="M281.64,-107.03C291.49,-109.56 302.55,-112.41 313.04,-115.11"/>
<polygon fill="black" stroke="black" points="312.1,-118.48 322.66,-117.58 313.85,-111.7 312.1,-118.48"/>
</g>
<!-- p0x563eef67e5b8 -->
<g id="node10" class="node">
<title>p0x563eef67e5b8</title>
<ellipse fill="none" stroke="black" cx="356.4" cy="-72" rx="35.49" ry="18"/>
<text text-anchor="middle" x="356.4" y="-66.95" font-family="Times,serif" font-size="14.00">B_2_1</text>
</g>
<!-- p0x563eef67e198&#45;&gt;p0x563eef67e5b8 -->
<g id="edge11" class="edge">
<title>p0x563eef67e198&#45;&gt;p0x563eef67e5b8</title>
<path fill="none" stroke="black" d="M281.64,-90.97C291.49,-88.44 302.55,-85.59 313.04,-82.89"/>
<polygon fill="black" stroke="black" points="313.85,-86.3 322.66,-80.42 312.1,-79.52 313.85,-86.3"/>
</g>
<!-- p0x563eef67e3a8 -->
<g id="node8" class="node">
<title>p0x563eef67e3a8</title>
<ellipse fill="none" stroke="black" cx="463.37" cy="-153" rx="35.49" ry="18"/>
<text text-anchor="middle" x="463.37" y="-147.95" font-family="Times,serif" font-size="14.00">B_1_3</text>
</g>
<!-- p0x563eef67df88&#45;&gt;p0x563eef67e3a8 -->
<g id="edge7" class="edge">
<title>p0x563eef67df88&#45;&gt;p0x563eef67e3a8</title>
<path fill="none" stroke="black" d="M388.61,-171.97C398.46,-169.44 409.52,-166.59 420.01,-163.89"/>
<polygon fill="black" stroke="black" points="420.82,-167.3 429.63,-161.42 419.07,-160.52 420.82,-167.3"/>
</g>
<!-- p0x563eef67e2a0&#45;&gt;p0x563eef67e3a8 -->
<g id="edge12" class="edge">
<title>p0x563eef67e2a0&#45;&gt;p0x563eef67e3a8</title>
<path fill="none" stroke="black" d="M388.61,-134.03C398.46,-136.56 409.52,-139.41 420.01,-142.11"/>
<polygon fill="black" stroke="black" points="419.07,-145.48 429.63,-144.58 420.82,-138.7 419.07,-145.48"/>
</g>
<!-- p0x563eef67e6c0 -->
<g id="node11" class="node">
<title>p0x563eef67e6c0</title>
<ellipse fill="none" stroke="black" cx="463.37" cy="-99" rx="35.49" ry="18"/>
<text text-anchor="middle" x="463.37" y="-93.95" font-family="Times,serif" font-size="14.00">B_2_2</text>
</g>
<!-- p0x563eef67e2a0&#45;&gt;p0x563eef67e6c0 -->
<g id="edge13" class="edge">
<title>p0x563eef67e2a0&#45;&gt;p0x563eef67e6c0</title>
<path fill="none" stroke="black" d="M388.61,-117.97C398.46,-115.44 409.52,-112.59 420.01,-109.89"/>
<polygon fill="black" stroke="black" points="420.82,-113.3 429.63,-107.42 419.07,-106.52 420.82,-113.3"/>
</g>
<!-- p0x563eef67e7c8 -->
<g id="node12" class="node">
<title>p0x563eef67e7c8</title>
<ellipse fill="none" stroke="black" cx="570.34" cy="-126" rx="35.49" ry="18"/>
<text text-anchor="middle" x="570.34" y="-120.95" font-family="Times,serif" font-size="14.00">B_2_3</text>
</g>
<!-- p0x563eef67e3a8&#45;&gt;p0x563eef67e7c8 -->
<g id="edge14" class="edge">
<title>p0x563eef67e3a8&#45;&gt;p0x563eef67e7c8</title>
<path fill="none" stroke="black" d="M495.58,-144.97C505.43,-142.44 516.49,-139.59 526.98,-136.89"/>
<polygon fill="black" stroke="black" points="527.79,-140.3 536.6,-134.42 526.05,-133.52 527.79,-140.3"/>
</g>
<!-- p0x563eef67e4b0&#45;&gt;p0x563eef67e5b8 -->
<g id="edge15" class="edge">
<title>p0x563eef67e4b0&#45;&gt;p0x563eef67e5b8</title>
<path fill="none" stroke="black" d="M281.64,-53.03C291.49,-55.56 302.55,-58.41 313.04,-61.11"/>
<polygon fill="black" stroke="black" points="312.1,-64.48 322.66,-63.58 313.85,-57.7 312.1,-64.48"/>
</g>
<!-- p0x563eef67e8d0 -->
<g id="node13" class="node">
<title>p0x563eef67e8d0</title>
<ellipse fill="none" stroke="black" cx="356.4" cy="-18" rx="35.49" ry="18"/>
<text text-anchor="middle" x="356.4" y="-12.95" font-family="Times,serif" font-size="14.00">B_3_0</text>
</g>
<!-- p0x563eef67e4b0&#45;&gt;p0x563eef67e8d0 -->
<g id="edge16" class="edge">
<title>p0x563eef67e4b0&#45;&gt;p0x563eef67e8d0</title>
<path fill="none" stroke="black" d="M281.64,-36.97C291.49,-34.44 302.55,-31.59 313.04,-28.89"/>
<polygon fill="black" stroke="black" points="313.85,-32.3 322.66,-26.42 312.1,-25.52 313.85,-32.3"/>
</g>
<!-- p0x563eef67e5b8&#45;&gt;p0x563eef67e6c0 -->
<g id="edge17" class="edge">
<title>p0x563eef67e5b8&#45;&gt;p0x563eef67e6c0</title>
<path fill="none" stroke="black" d="M388.61,-80.03C398.46,-82.56 409.52,-85.41 420.01,-88.11"/>
<polygon fill="black" stroke="black" points="419.07,-91.48 429.63,-90.58 420.82,-84.7 419.07,-91.48"/>
</g>
<!-- p0x563eef67e9d8 -->
<g id="node14" class="node">
<title>p0x563eef67e9d8</title>
<ellipse fill="none" stroke="black" cx="463.37" cy="-45" rx="35.49" ry="18"/>
<text text-anchor="middle" x="463.37" y="-39.95" font-family="Times,serif" font-size="14.00">B_3_1</text>
</g>
<!-- p0x563eef67e5b8&#45;&gt;p0x563eef67e9d8 -->
<g id="edge18" class="edge">
<title>p0x563eef67e5b8&#45;&gt;p0x563eef67e9d8</title>
<path fill="none" stroke="black" d="M388.61,-63.97C398.46,-61.44 409.52,-58.59 420.01,-55.89"/>
<polygon fill="black" stroke="black" points="420.82,-59.3 429.63,-53.42 419.07,-52.52 420.82,-59.3"/>
</g>
<!-- p0x563eef67e6c0&#45;&gt;p0x563eef67e7c8 -->
<g id="edge19" class="edge">
<title>p0x563eef67e6c0&#45;&gt;p0x563eef67e7c8</title>
<path fill="none" stroke="black" d="M495.58,-107.03C505.43,-109.56 516.49,-112.41 526.98,-115.11"/>
<polygon fill="black" stroke="black" points="526.05,-118.48 536.6,-117.58 527.79,-111.7 526.05,-118.48"/>
</g>
<!-- p0x563eef67eae0 -->
<g id="node15" class="node">
<title>p0x563eef67eae0</title>
<ellipse fill="none" stroke="black" cx="570.34" cy="-72" rx="35.49" ry="18"/>
<text text-anchor="middle" x="570.34" y="-66.95" font-family="Times,serif" font-size="14.00">B_3_2</text>
</g>
<!-- p0x563eef67e6c0&#45;&gt;p0x563eef67eae0 -->
<g id="edge20" class="edge">
<title>p0x563eef67e6c0&#45;&gt;p0x563eef67eae0</title>
<path fill="none" stroke="black" d="M495.58,-90.97C505.43,-88.44 516.49,-85.59 526.98,-82.89"/>
<polygon fill="black" stroke="black" points="527.79,-86.3 536.6,-80.42 526.05,-79.52 527.79,-86.3"/>
</g>
<!-- p0x563eef67ebe8 -->
<g id="node16" class="node">
<title>p0x563eef67ebe8</title>
<ellipse fill="none" stroke="black" cx="677.31" cy="-99" rx="35.49" ry="18"/>
<text text-anchor="middle" x="677.31" y="-93.95" font-family="Times,serif" font-size="14.00">B_3_3</text>
</g>
<!-- p0x563eef67e7c8&#45;&gt;p0x563eef67ebe8 -->
<g id="edge21" class="edge">
<title>p0x563eef67e7c8&#45;&gt;p0x563eef67ebe8</title>
<path fill="none" stroke="black" d="M602.55,-117.97C612.4,-115.44 623.46,-112.59 633.95,-109.89"/>
<polygon fill="black" stroke="black" points="634.76,-113.3 643.57,-107.42 633.02,-106.52 634.76,-113.3"/>
</g>
<!-- p0x563eef67e8d0&#45;&gt;p0x563eef67e9d8 -->
<g id="edge22" class="edge">
<title>p0x563eef67e8d0&#45;&gt;p0x563eef67e9d8</title>
<path fill="none" stroke="black" d="M388.61,-26.03C398.46,-28.56 409.52,-31.41 420.01,-34.11"/>
<polygon fill="black" stroke="black" points="419.07,-37.48 429.63,-36.58 420.82,-30.7 419.07,-37.48"/>
</g>
<!-- p0x563eef67e9d8&#45;&gt;p0x563eef67eae0 -->
<g id="edge23" class="edge">
<title>p0x563eef67e9d8&#45;&gt;p0x563eef67eae0</title>
<path fill="none" stroke="black" d="M495.58,-53.03C505.43,-55.56 516.49,-58.41 526.98,-61.11"/>
<polygon fill="black" stroke="black" points="526.05,-64.48 536.6,-63.58 527.79,-57.7 526.05,-64.48"/>
</g>
<!-- p0x563eef67eae0&#45;&gt;p0x563eef67ebe8 -->
<g id="edge24" class="edge">
<title>p0x563eef67eae0&#45;&gt;p0x563eef67ebe8</title>
<path fill="none" stroke="black" d="M602.55,-80.03C612.4,-82.56 623.46,-85.41 633.95,-88.11"/>
<polygon fill="black" stroke="black" points="633.02,-91.48 643.57,-90.58 634.76,-84.7 633.02,-91.48"/>
</g>
</g>
</svg>
