<?xml version="1.0" encoding="UTF-8" standalone="no"?>
<!DOCTYPE svg PUBLIC "-//W3C//DTD SVG 1.1//EN"
 "http://www.w3.org/Graphics/SVG/1.1/DTD/svg11.dtd">
<!-- Generated by graphviz version 12.2.1 (20241206.2353)
 -->
<!-- Title: Taskflow Pages: 1 -->
<svg width="372pt" height="240pt"
 viewBox="0.00 0.00 372.00 240.00" xmlns="http://www.w3.org/2000/svg" xmlns:xlink="http://www.w3.org/1999/xlink">
<g id="graph0" class="graph" transform="scale(1 1) rotate(0) translate(4 236)">
<title>Taskflow</title>
<polygon fill="white" stroke="none" points="-4,4 -4,-236 368,-236 368,4 -4,4"/>
<g id="clust1" class="cluster">
<title>cluster_p0x7ffee9781810</title>
<polygon fill="none" stroke="black" points="8,-8 8,-224 356,-224 356,-8 8,-8"/>
<text text-anchor="middle" x="182" y="-206.7" font-family="Times,serif" font-size="14.00">Taskflow</text>
</g>
<g id="clust2" class="cluster">
<title>cluster_p0x7f9866c01b70</title>
<polygon fill="none" stroke="blue" points="16,-16 16,-147 266,-147 266,-16 16,-16"/>
<text text-anchor="middle" x="141" y="-129.7" font-family="Times,serif" font-size="14.00">Subflow: B</text>
</g>
<!-- p0x7f9866c01820 -->
<g id="node1" class="node">
<title>p0x7f9866c01820</title>
<ellipse fill="none" stroke="black" cx="141" cy="-173" rx="27" ry="18"/>
<text text-anchor="middle" x="141" y="-167.95" font-family="Times,serif" font-size="14.00">A</text>
</g>
<!-- p0x7f9866c01b70 -->
<g id="node2" class="node">
<title>p0x7f9866c01b70</title>
<ellipse fill="none" stroke="black" cx="231" cy="-96" rx="27" ry="18"/>
<text text-anchor="middle" x="231" y="-90.95" font-family="Times,serif" font-size="14.00">B</text>
</g>
<!-- p0x7f9866c01820&#45;&gt;p0x7f9866c01b70 -->
<g id="edge1" class="edge">
<title>p0x7f9866c01820&#45;&gt;p0x7f9866c01b70</title>
<path fill="none" stroke="black" d="M158.59,-159.13C161.73,-156.46 164.98,-153.66 168,-151 184.29,-136.65 187.71,-132.35 204,-118 204.28,-117.75 204.57,-117.5 204.85,-117.25"/>
<polygon fill="black" stroke="black" points="206.98,-120.04 212.26,-110.86 202.41,-114.74 206.98,-120.04"/>
</g>
<!-- p0x7f9866c01930 -->
<g id="node3" class="node">
<title>p0x7f9866c01930</title>
<ellipse fill="none" stroke="black" cx="231" cy="-173" rx="27" ry="18"/>
<text text-anchor="middle" x="231" y="-167.95" font-family="Times,serif" font-size="14.00">C</text>
</g>
<!-- p0x7f9866c01820&#45;&gt;p0x7f9866c01930 -->
<g id="edge2" class="edge">
<title>p0x7f9866c01820&#45;&gt;p0x7f9866c01930</title>
<path fill="none" stroke="black" d="M168.4,-173C175.89,-173 184.18,-173 192.2,-173"/>
<polygon fill="black" stroke="black" points="192.1,-176.5 202.1,-173 192.1,-169.5 192.1,-176.5"/>
</g>
<!-- p0x7f9866c01a40 -->
<g id="node4" class="node">
<title>p0x7f9866c01a40</title>
<ellipse fill="none" stroke="black" cx="321" cy="-134" rx="27" ry="18"/>
<text text-anchor="middle" x="321" y="-128.95" font-family="Times,serif" font-size="14.00">D</text>
</g>
<!-- p0x7f9866c01b70&#45;&gt;p0x7f9866c01a40 -->
<g id="edge4" class="edge">
<title>p0x7f9866c01b70&#45;&gt;p0x7f9866c01a40</title>
<path fill="none" stroke="black" d="M254.21,-105.59C264.21,-109.91 276.23,-115.1 287.24,-119.85"/>
<polygon fill="black" stroke="black" points="285.84,-123.06 296.41,-123.81 288.62,-116.64 285.84,-123.06"/>
</g>
<!-- p0x7f9866c01930&#45;&gt;p0x7f9866c01a40 -->
<g id="edge3" class="edge">
<title>p0x7f9866c01930&#45;&gt;p0x7f9866c01a40</title>
<path fill="none" stroke="black" d="M254.21,-163.16C264.32,-158.68 276.48,-153.29 287.58,-148.37"/>
<polygon fill="black" stroke="black" points="288.69,-151.7 296.42,-144.45 285.86,-145.3 288.69,-151.7"/>
</g>
<!-- p0x7f9866d01880 -->
<g id="node5" class="node">
<title>p0x7f9866d01880</title>
<ellipse fill="none" stroke="black" cx="51" cy="-42" rx="27" ry="18"/>
<text text-anchor="middle" x="51" y="-36.95" font-family="Times,serif" font-size="14.00">B1</text>
</g>
<!-- p0x7f9866d01ac0 -->
<g id="node6" class="node">
<title>p0x7f9866d01ac0</title>
<ellipse fill="none" stroke="black" cx="141" cy="-96" rx="27" ry="18"/>
<text text-anchor="middle" x="141" y="-90.95" font-family="Times,serif" font-size="14.00">B3</text>
</g>
<!-- p0x7f9866d01880&#45;&gt;p0x7f9866d01ac0 -->
<g id="edge5" class="edge">
<title>p0x7f9866d01880&#45;&gt;p0x7f9866d01ac0</title>
<path fill="none" stroke="black" d="M71.53,-53.98C83.15,-61.12 98.11,-70.3 111.08,-78.25"/>
<polygon fill="black" stroke="black" points="108.88,-81.01 119.23,-83.26 112.54,-75.04 108.88,-81.01"/>
</g>
<!-- p0x7f9866d01ac0&#45;&gt;p0x7f9866c01b70 -->
<g id="edge7" class="edge">
<title>p0x7f9866d01ac0&#45;&gt;p0x7f9866c01b70</title>
<path fill="none" stroke="black" d="M168.4,-96C175.89,-96 184.18,-96 192.2,-96"/>
<polygon fill="black" stroke="black" points="192.1,-99.5 202.1,-96 192.1,-92.5 192.1,-99.5"/>
</g>
<!-- p0x7f9866d019a0 -->
<g id="node7" class="node">
<title>p0x7f9866d019a0</title>
<ellipse fill="none" stroke="black" cx="51" cy="-96" rx="27" ry="18"/>
<text text-anchor="middle" x="51" y="-90.95" font-family="Times,serif" font-size="14.00">B2</text>
</g>
<!-- p0x7f9866d019a0&#45;&gt;p0x7f9866d01ac0 -->
<g id="edge6" class="edge">
<title>p0x7f9866d019a0&#45;&gt;p0x7f9866d01ac0</title>
<path fill="none" stroke="black" d="M78.4,-96C85.89,-96 94.18,-96 102.2,-96"/>
<polygon fill="black" stroke="black" points="102.1,-99.5 112.1,-96 102.1,-92.5 102.1,-99.5"/>
</g>
</g>
</svg>
