<?xml version="1.0" encoding="UTF-8" standalone="no"?>
<!DOCTYPE svg PUBLIC "-//W3C//DTD SVG 1.1//EN"
 "http://www.w3.org/Graphics/SVG/1.1/DTD/svg11.dtd">
<!-- Generated by graphviz version 2.43.0 (0)
 -->
<!-- Title: TaskflowExceptionHandling Pages: 1 -->
<svg width="830pt" height="190pt"
 viewBox="0.00 0.00 830.00 190.00" xmlns="http://www.w3.org/2000/svg" xmlns:xlink="http://www.w3.org/1999/xlink">
<g id="graph0" class="graph" transform="scale(1 1) rotate(0) translate(4 186)">
<title>TaskflowExceptionHandling</title>
<polygon fill="white" stroke="transparent" points="-4,4 -4,-186 826,-186 826,4 -4,4"/>
<!-- ExceptionHandling -->
<g id="node1" class="node">
<title>ExceptionHandling</title>
<polygon fill="none" stroke="black" points="557,-182 315,-182 315,-146 557,-146 557,-182"/>
<text text-anchor="middle" x="436" y="-160.3" font-family="Times,serif" font-size="14.00">Exception Handling in Taskflow</text>
</g>
<!-- Scenarios -->
<g id="node2" class="node">
<title>Scenarios</title>
<polygon fill="none" stroke="black" points="436,-110 242.95,-92 436,-74 629.05,-92 436,-110"/>
<text text-anchor="middle" x="436" y="-88.3" font-family="Times,serif" font-size="14.00">A task throws an exception</text>
</g>
<!-- ExceptionHandling&#45;&gt;Scenarios -->
<g id="edge1" class="edge">
<title>ExceptionHandling&#45;&gt;Scenarios</title>
<path fill="none" stroke="black" d="M436,-145.7C436,-137.98 436,-128.71 436,-120.11"/>
<polygon fill="black" stroke="black" points="439.5,-120.1 436,-110.1 432.5,-120.1 439.5,-120.1"/>
</g>
<!-- Immediate -->
<g id="node3" class="node">
<title>Immediate</title>
<polygon fill="none" stroke="black" points="276,-38 0,-38 0,0 276,0 276,-38"/>
<text text-anchor="middle" x="138" y="-22.8" font-family="Times,serif" font-size="14.00">Scenario 1:</text>
<text text-anchor="middle" x="138" y="-7.8" font-family="Times,serif" font-size="14.00">Synchronous Exception Propagation</text>
</g>
<!-- Scenarios&#45;&gt;Immediate -->
<g id="edge3" class="edge">
<title>Scenarios&#45;&gt;Immediate</title>
<path fill="none" stroke="black" d="M384.43,-78.71C340.22,-68.18 275.63,-52.79 223.67,-40.41"/>
<polygon fill="black" stroke="black" points="224.33,-36.97 213.79,-38.06 222.7,-43.78 224.33,-36.97"/>
</g>
<!-- Propagation -->
<g id="node4" class="node">
<title>Propagation</title>
<polygon fill="none" stroke="black" points="578,-38 294,-38 294,0 578,0 578,-38"/>
<text text-anchor="middle" x="436" y="-22.8" font-family="Times,serif" font-size="14.00">Scenario 2:</text>
<text text-anchor="middle" x="436" y="-7.8" font-family="Times,serif" font-size="14.00">Asynchronous Exception Propagation</text>
</g>
<!-- Scenarios&#45;&gt;Propagation -->
<g id="edge2" class="edge">
<title>Scenarios&#45;&gt;Propagation</title>
<path fill="none" stroke="black" d="M436,-73.81C436,-66.11 436,-56.82 436,-48.15"/>
<polygon fill="black" stroke="black" points="439.5,-48.02 436,-38.02 432.5,-48.02 439.5,-48.02"/>
</g>
<!-- Silent -->
<g id="node5" class="node">
<title>Silent</title>
<polygon fill="none" stroke="black" points="822,-38 596,-38 596,0 822,0 822,-38"/>
<text text-anchor="middle" x="709" y="-22.8" font-family="Times,serif" font-size="14.00">Scenario 3:</text>
<text text-anchor="middle" x="709" y="-7.8" font-family="Times,serif" font-size="14.00">Silent Exception Propagation</text>
</g>
<!-- Scenarios&#45;&gt;Silent -->
<g id="edge4" class="edge">
<title>Scenarios&#45;&gt;Silent</title>
<path fill="none" stroke="black" d="M484.18,-78.47C524.48,-67.99 582.78,-52.83 629.91,-40.57"/>
<polygon fill="black" stroke="black" points="630.99,-43.9 639.79,-38 629.23,-37.13 630.99,-43.9"/>
</g>
</g>
</svg>
