<?xml version="1.0" encoding="UTF-8" standalone="no"?>
<!DOCTYPE svg PUBLIC "-//W3C//DTD SVG 1.1//EN"
 "http://www.w3.org/Graphics/SVG/1.1/DTD/svg11.dtd">
<!-- Generated by graphviz version 2.43.0 (0)
 -->
<!-- Title: Taskflow Pages: 1 -->
<svg width="670pt" height="553pt"
 viewBox="0.00 0.00 670.00 553.00" xmlns="http://www.w3.org/2000/svg" xmlns:xlink="http://www.w3.org/1999/xlink">
<g id="graph0" class="graph" transform="scale(1 1) rotate(0) translate(4 549)">
<title>Taskflow</title>
<polygon fill="white" stroke="transparent" points="-4,4 -4,-549 666,-549 666,4 -4,4"/>
<g id="clust1" class="cluster">
<title>cluster_p0x7ffd972c0cd0</title>
<polygon fill="none" stroke="black" points="8,-8 8,-537 654,-537 654,-8 8,-8"/>
<text text-anchor="middle" x="331" y="-521.8" font-family="Times,serif" font-size="14.00">Taskflow: fibonacci</text>
</g>
<g id="clust2" class="cluster">
<title>cluster_p0xa445c0</title>
<polygon fill="none" stroke="blue" points="16,-16 16,-506 646,-506 646,-16 16,-16"/>
<text text-anchor="middle" x="331" y="-490.8" font-family="Times,serif" font-size="14.00">Subflow: 5</text>
</g>
<g id="clust3" class="cluster">
<title>cluster_p0x7fe918000b90</title>
<polygon fill="none" stroke="blue" points="252,-88 252,-475 638,-475 638,-88 252,-88"/>
<text text-anchor="middle" x="445" y="-459.8" font-family="Times,serif" font-size="14.00">Subflow: 4</text>
</g>
<g id="clust4" class="cluster">
<title>cluster_p0x7fe910000b90</title>
<polygon fill="none" stroke="blue" points="410,-160 410,-444 630,-444 630,-160 410,-160"/>
<text text-anchor="middle" x="520" y="-428.8" font-family="Times,serif" font-size="14.00">Subflow: 3</text>
</g>
<g id="clust5" class="cluster">
<title>cluster_p0x7fe918000fe0</title>
<polygon fill="none" stroke="blue" points="480,-232 480,-413 622,-413 622,-232 480,-232"/>
<text text-anchor="middle" x="551" y="-397.8" font-family="Times,serif" font-size="14.00">Subflow: 2</text>
</g>
<g id="clust6" class="cluster">
<title>cluster_p0x7fe910000c48</title>
<polygon fill="none" stroke="blue" points="260,-160 260,-307 402,-307 402,-160 260,-160"/>
<text text-anchor="middle" x="331" y="-291.8" font-family="Times,serif" font-size="14.00">Subflow: 2</text>
</g>
<g id="clust7" class="cluster">
<title>cluster_p0x7fe918000c48</title>
<polygon fill="none" stroke="blue" points="24,-88 24,-338 244,-338 244,-88 24,-88"/>
<text text-anchor="middle" x="134" y="-322.8" font-family="Times,serif" font-size="14.00">Subflow: 3</text>
</g>
<g id="clust8" class="cluster">
<title>cluster_p0x7fe918000d00</title>
<polygon fill="none" stroke="blue" points="94,-160 94,-307 236,-307 236,-160 94,-160"/>
<text text-anchor="middle" x="165" y="-291.8" font-family="Times,serif" font-size="14.00">Subflow: 2</text>
</g>
<!-- p0xa445c0 -->
<g id="node1" class="node">
<title>p0xa445c0</title>
<ellipse fill="none" stroke="black" cx="248" cy="-42" rx="27" ry="18"/>
<text text-anchor="middle" x="248" y="-38.3" font-family="Times,serif" font-size="14.00">5</text>
</g>
<!-- p0x7fe918000b90 -->
<g id="node2" class="node">
<title>p0x7fe918000b90</title>
<ellipse fill="none" stroke="black" cx="331" cy="-114" rx="27" ry="18"/>
<text text-anchor="middle" x="331" y="-110.3" font-family="Times,serif" font-size="14.00">4</text>
</g>
<!-- p0x7fe918000b90&#45;&gt;p0xa445c0 -->
<g id="edge1" class="edge">
<title>p0x7fe918000b90&#45;&gt;p0xa445c0</title>
<path fill="none" stroke="black" d="M314.6,-99.17C302.36,-88.85 285.45,-74.58 271.73,-63.01"/>
<polygon fill="black" stroke="black" points="273.98,-60.33 264.08,-56.56 269.47,-65.69 273.98,-60.33"/>
</g>
<!-- p0x7fe910000b90 -->
<g id="node3" class="node">
<title>p0x7fe910000b90</title>
<ellipse fill="none" stroke="black" cx="445" cy="-186" rx="27" ry="18"/>
<text text-anchor="middle" x="445" y="-182.3" font-family="Times,serif" font-size="14.00">3</text>
</g>
<!-- p0x7fe910000b90&#45;&gt;p0x7fe918000b90 -->
<g id="edge2" class="edge">
<title>p0x7fe910000b90&#45;&gt;p0x7fe918000b90</title>
<path fill="none" stroke="black" d="M426.42,-172.93C419.98,-168.79 412.7,-164.15 406,-160 390.65,-150.48 373.37,-140.09 359.28,-131.7"/>
<polygon fill="black" stroke="black" points="360.91,-128.59 350.52,-126.5 357.33,-134.61 360.91,-128.59"/>
</g>
<!-- p0x7fe918000fe0 -->
<g id="node4" class="node">
<title>p0x7fe918000fe0</title>
<ellipse fill="none" stroke="black" cx="517" cy="-258" rx="27" ry="18"/>
<text text-anchor="middle" x="517" y="-254.3" font-family="Times,serif" font-size="14.00">2</text>
</g>
<!-- p0x7fe918000fe0&#45;&gt;p0x7fe910000b90 -->
<g id="edge3" class="edge">
<title>p0x7fe918000fe0&#45;&gt;p0x7fe910000b90</title>
<path fill="none" stroke="black" d="M502.43,-242.83C492.25,-232.94 478.48,-219.55 466.97,-208.36"/>
<polygon fill="black" stroke="black" points="469.41,-205.85 459.8,-201.38 464.53,-210.87 469.41,-205.85"/>
</g>
<!-- p0x7fe918001150 -->
<g id="node5" class="node">
<title>p0x7fe918001150</title>
<ellipse fill="none" stroke="black" cx="587" cy="-364" rx="27" ry="18"/>
<text text-anchor="middle" x="587" y="-360.3" font-family="Times,serif" font-size="14.00">1</text>
</g>
<!-- p0x7fe918001150&#45;&gt;p0x7fe918000fe0 -->
<g id="edge4" class="edge">
<title>p0x7fe918001150&#45;&gt;p0x7fe918000fe0</title>
<path fill="none" stroke="black" d="M576.37,-347.2C564.89,-330.15 546.48,-302.8 533.2,-283.07"/>
<polygon fill="black" stroke="black" points="535.99,-280.94 527.5,-274.6 530.18,-284.85 535.99,-280.94"/>
</g>
<!-- p0x7fe918001208 -->
<g id="node6" class="node">
<title>p0x7fe918001208</title>
<ellipse fill="none" stroke="black" cx="515" cy="-364" rx="27" ry="18"/>
<text text-anchor="middle" x="515" y="-360.3" font-family="Times,serif" font-size="14.00">0</text>
</g>
<!-- p0x7fe918001208&#45;&gt;p0x7fe918000fe0 -->
<g id="edge5" class="edge">
<title>p0x7fe918001208&#45;&gt;p0x7fe918000fe0</title>
<path fill="none" stroke="black" d="M515.33,-345.83C515.64,-329.64 516.11,-305.13 516.48,-286.27"/>
<polygon fill="black" stroke="black" points="519.98,-286.26 516.67,-276.2 512.98,-286.13 519.98,-286.26"/>
</g>
<!-- p0x7fe918001098 -->
<g id="node7" class="node">
<title>p0x7fe918001098</title>
<ellipse fill="none" stroke="black" cx="445" cy="-258" rx="27" ry="18"/>
<text text-anchor="middle" x="445" y="-254.3" font-family="Times,serif" font-size="14.00">1</text>
</g>
<!-- p0x7fe918001098&#45;&gt;p0x7fe910000b90 -->
<g id="edge6" class="edge">
<title>p0x7fe918001098&#45;&gt;p0x7fe910000b90</title>
<path fill="none" stroke="black" d="M445,-239.7C445,-231.98 445,-222.71 445,-214.11"/>
<polygon fill="black" stroke="black" points="448.5,-214.1 445,-204.1 441.5,-214.1 448.5,-214.1"/>
</g>
<!-- p0x7fe910000c48 -->
<g id="node8" class="node">
<title>p0x7fe910000c48</title>
<ellipse fill="none" stroke="black" cx="331" cy="-186" rx="27" ry="18"/>
<text text-anchor="middle" x="331" y="-182.3" font-family="Times,serif" font-size="14.00">2</text>
</g>
<!-- p0x7fe910000c48&#45;&gt;p0x7fe918000b90 -->
<g id="edge7" class="edge">
<title>p0x7fe910000c48&#45;&gt;p0x7fe918000b90</title>
<path fill="none" stroke="black" d="M331,-167.7C331,-159.98 331,-150.71 331,-142.11"/>
<polygon fill="black" stroke="black" points="334.5,-142.1 331,-132.1 327.5,-142.1 334.5,-142.1"/>
</g>
<!-- p0x7fe910000d00 -->
<g id="node9" class="node">
<title>p0x7fe910000d00</title>
<ellipse fill="none" stroke="black" cx="367" cy="-258" rx="27" ry="18"/>
<text text-anchor="middle" x="367" y="-254.3" font-family="Times,serif" font-size="14.00">1</text>
</g>
<!-- p0x7fe910000d00&#45;&gt;p0x7fe910000c48 -->
<g id="edge8" class="edge">
<title>p0x7fe910000d00&#45;&gt;p0x7fe910000c48</title>
<path fill="none" stroke="black" d="M358.65,-240.76C354.29,-232.28 348.85,-221.71 343.96,-212.2"/>
<polygon fill="black" stroke="black" points="346.99,-210.44 339.3,-203.15 340.77,-213.64 346.99,-210.44"/>
</g>
<!-- p0x7fe910000db8 -->
<g id="node10" class="node">
<title>p0x7fe910000db8</title>
<ellipse fill="none" stroke="black" cx="295" cy="-258" rx="27" ry="18"/>
<text text-anchor="middle" x="295" y="-254.3" font-family="Times,serif" font-size="14.00">0</text>
</g>
<!-- p0x7fe910000db8&#45;&gt;p0x7fe910000c48 -->
<g id="edge9" class="edge">
<title>p0x7fe910000db8&#45;&gt;p0x7fe910000c48</title>
<path fill="none" stroke="black" d="M303.35,-240.76C307.71,-232.28 313.15,-221.71 318.04,-212.2"/>
<polygon fill="black" stroke="black" points="321.23,-213.64 322.7,-203.15 315.01,-210.44 321.23,-213.64"/>
</g>
<!-- p0x7fe918000c48 -->
<g id="node11" class="node">
<title>p0x7fe918000c48</title>
<ellipse fill="none" stroke="black" cx="166" cy="-114" rx="27" ry="18"/>
<text text-anchor="middle" x="166" y="-110.3" font-family="Times,serif" font-size="14.00">3</text>
</g>
<!-- p0x7fe918000c48&#45;&gt;p0xa445c0 -->
<g id="edge10" class="edge">
<title>p0x7fe918000c48&#45;&gt;p0xa445c0</title>
<path fill="none" stroke="black" d="M182.2,-99.17C194.18,-88.94 210.69,-74.85 224.18,-63.34"/>
<polygon fill="black" stroke="black" points="226.78,-65.72 232.11,-56.56 222.23,-60.39 226.78,-65.72"/>
</g>
<!-- p0x7fe918000d00 -->
<g id="node12" class="node">
<title>p0x7fe918000d00</title>
<ellipse fill="none" stroke="black" cx="166" cy="-186" rx="27" ry="18"/>
<text text-anchor="middle" x="166" y="-182.3" font-family="Times,serif" font-size="14.00">2</text>
</g>
<!-- p0x7fe918000d00&#45;&gt;p0x7fe918000c48 -->
<g id="edge11" class="edge">
<title>p0x7fe918000d00&#45;&gt;p0x7fe918000c48</title>
<path fill="none" stroke="black" d="M166,-167.7C166,-159.98 166,-150.71 166,-142.11"/>
<polygon fill="black" stroke="black" points="169.5,-142.1 166,-132.1 162.5,-142.1 169.5,-142.1"/>
</g>
<!-- p0x7fe918000e70 -->
<g id="node13" class="node">
<title>p0x7fe918000e70</title>
<ellipse fill="none" stroke="black" cx="201" cy="-258" rx="27" ry="18"/>
<text text-anchor="middle" x="201" y="-254.3" font-family="Times,serif" font-size="14.00">1</text>
</g>
<!-- p0x7fe918000e70&#45;&gt;p0x7fe918000d00 -->
<g id="edge12" class="edge">
<title>p0x7fe918000e70&#45;&gt;p0x7fe918000d00</title>
<path fill="none" stroke="black" d="M192.88,-240.76C188.7,-232.4 183.51,-222.02 178.8,-212.61"/>
<polygon fill="black" stroke="black" points="181.92,-211.01 174.32,-203.63 175.66,-214.14 181.92,-211.01"/>
</g>
<!-- p0x7fe918000f28 -->
<g id="node14" class="node">
<title>p0x7fe918000f28</title>
<ellipse fill="none" stroke="black" cx="129" cy="-258" rx="27" ry="18"/>
<text text-anchor="middle" x="129" y="-254.3" font-family="Times,serif" font-size="14.00">0</text>
</g>
<!-- p0x7fe918000f28&#45;&gt;p0x7fe918000d00 -->
<g id="edge13" class="edge">
<title>p0x7fe918000f28&#45;&gt;p0x7fe918000d00</title>
<path fill="none" stroke="black" d="M137.58,-240.76C142.06,-232.28 147.65,-221.71 152.68,-212.2"/>
<polygon fill="black" stroke="black" points="155.89,-213.62 157.46,-203.15 149.7,-210.35 155.89,-213.62"/>
</g>
<!-- p0x7fe918000db8 -->
<g id="node15" class="node">
<title>p0x7fe918000db8</title>
<ellipse fill="none" stroke="black" cx="59" cy="-186" rx="27" ry="18"/>
<text text-anchor="middle" x="59" y="-182.3" font-family="Times,serif" font-size="14.00">1</text>
</g>
<!-- p0x7fe918000db8&#45;&gt;p0x7fe918000c48 -->
<g id="edge14" class="edge">
<title>p0x7fe918000db8&#45;&gt;p0x7fe918000c48</title>
<path fill="none" stroke="black" d="M75.07,-171.31C79.78,-167.51 85,-163.47 90,-160 104.88,-149.67 122.21,-139.3 136.56,-131.11"/>
<polygon fill="black" stroke="black" points="138.51,-134.03 145.5,-126.07 135.07,-127.93 138.51,-134.03"/>
</g>
</g>
</svg>
