<?xml version="1.0" encoding="UTF-8" standalone="no"?>
<!DOCTYPE svg PUBLIC "-//W3C//DTD SVG 1.1//EN"
 "http://www.w3.org/Graphics/SVG/1.1/DTD/svg11.dtd">
<!-- Generated by graphviz version 12.2.1 (20241206.2353)
 -->
<!-- Title: Taskflow Pages: 1 -->
<svg width="282pt" height="292pt"
 viewBox="0.00 0.00 282.00 292.00" xmlns="http://www.w3.org/2000/svg" xmlns:xlink="http://www.w3.org/1999/xlink">
<g id="graph0" class="graph" transform="scale(1 1) rotate(0) translate(4 288)">
<title>Taskflow</title>
<polygon fill="white" stroke="none" points="-4,4 -4,-288 278,-288 278,4 -4,4"/>
<g id="clust4" class="cluster">
<title>cluster0</title>
<polygon fill="none" stroke="black" stroke-dasharray="5,2" points="8,-224 8,-276 266,-276 266,-224 8,-224"/>
</g>
<g id="clust5" class="cluster">
<title>cluster1</title>
<polygon fill="none" stroke="black" stroke-dasharray="5,2" points="8,-152 8,-204 266,-204 266,-152 8,-152"/>
</g>
<g id="clust6" class="cluster">
<title>cluster2</title>
<polygon fill="none" stroke="black" stroke-dasharray="5,2" points="8,-80 8,-132 266,-132 266,-80 8,-80"/>
</g>
<g id="clust7" class="cluster">
<title>cluster3</title>
<polygon fill="none" stroke="black" stroke-dasharray="5,2" points="8,-8 8,-60 266,-60 266,-8 8,-8"/>
</g>
<!-- p00 -->
<g id="node1" class="node">
<title>p00</title>
<ellipse fill="none" stroke="black" cx="50" cy="-250" rx="34.46" ry="18"/>
<text text-anchor="middle" x="50" y="-244.95" font-family="Times,serif" font-size="14.00">pipe&#45;0</text>
</g>
<!-- p10 -->
<g id="node2" class="node">
<title>p10</title>
<ellipse fill="none" stroke="black" cx="50" cy="-178" rx="34.46" ry="18"/>
<text text-anchor="middle" x="50" y="-172.95" font-family="Times,serif" font-size="14.00">pipe&#45;0</text>
</g>
<!-- p00&#45;&gt;p10 -->
<g id="edge9" class="edge">
<title>p00&#45;&gt;p10</title>
<path fill="none" stroke="black" d="M50,-231.7C50,-224.41 50,-215.73 50,-207.54"/>
<polygon fill="black" stroke="black" points="53.5,-207.62 50,-197.62 46.5,-207.62 53.5,-207.62"/>
</g>
<!-- p01 -->
<g id="node5" class="node">
<title>p01</title>
<ellipse fill="none" stroke="black" cx="137" cy="-250" rx="34.46" ry="18"/>
<text text-anchor="middle" x="137" y="-244.95" font-family="Times,serif" font-size="14.00">pipe&#45;1</text>
</g>
<!-- p00&#45;&gt;p01 -->
<g id="edge1" class="edge">
<title>p00&#45;&gt;p01</title>
<path fill="none" stroke="black" d="M84.66,-250C86.77,-250 88.88,-250 90.98,-250"/>
<polygon fill="black" stroke="black" points="90.73,-253.5 100.73,-250 90.73,-246.5 90.73,-253.5"/>
</g>
<!-- p20 -->
<g id="node3" class="node">
<title>p20</title>
<ellipse fill="none" stroke="black" cx="50" cy="-106" rx="34.46" ry="18"/>
<text text-anchor="middle" x="50" y="-100.95" font-family="Times,serif" font-size="14.00">pipe&#45;0</text>
</g>
<!-- p10&#45;&gt;p20 -->
<g id="edge12" class="edge">
<title>p10&#45;&gt;p20</title>
<path fill="none" stroke="black" d="M50,-159.7C50,-152.41 50,-143.73 50,-135.54"/>
<polygon fill="black" stroke="black" points="53.5,-135.62 50,-125.62 46.5,-135.62 53.5,-135.62"/>
</g>
<!-- p11 -->
<g id="node6" class="node">
<title>p11</title>
<ellipse fill="none" stroke="black" cx="137" cy="-178" rx="34.46" ry="18"/>
<text text-anchor="middle" x="137" y="-172.95" font-family="Times,serif" font-size="14.00">pipe&#45;1</text>
</g>
<!-- p10&#45;&gt;p11 -->
<g id="edge3" class="edge">
<title>p10&#45;&gt;p11</title>
<path fill="none" stroke="black" d="M84.66,-178C86.77,-178 88.88,-178 90.98,-178"/>
<polygon fill="black" stroke="black" points="90.73,-181.5 100.73,-178 90.73,-174.5 90.73,-181.5"/>
</g>
<!-- p30 -->
<g id="node4" class="node">
<title>p30</title>
<ellipse fill="none" stroke="black" cx="50" cy="-34" rx="34.46" ry="18"/>
<text text-anchor="middle" x="50" y="-28.95" font-family="Times,serif" font-size="14.00">pipe&#45;0</text>
</g>
<!-- p20&#45;&gt;p30 -->
<g id="edge15" class="edge">
<title>p20&#45;&gt;p30</title>
<path fill="none" stroke="black" d="M50,-87.7C50,-80.41 50,-71.73 50,-63.54"/>
<polygon fill="black" stroke="black" points="53.5,-63.62 50,-53.62 46.5,-63.62 53.5,-63.62"/>
</g>
<!-- p21 -->
<g id="node7" class="node">
<title>p21</title>
<ellipse fill="none" stroke="black" cx="137" cy="-106" rx="34.46" ry="18"/>
<text text-anchor="middle" x="137" y="-100.95" font-family="Times,serif" font-size="14.00">pipe&#45;1</text>
</g>
<!-- p20&#45;&gt;p21 -->
<g id="edge5" class="edge">
<title>p20&#45;&gt;p21</title>
<path fill="none" stroke="black" d="M84.66,-106C86.77,-106 88.88,-106 90.98,-106"/>
<polygon fill="black" stroke="black" points="90.73,-109.5 100.73,-106 90.73,-102.5 90.73,-109.5"/>
</g>
<!-- p31 -->
<g id="node8" class="node">
<title>p31</title>
<ellipse fill="none" stroke="black" cx="137" cy="-34" rx="34.46" ry="18"/>
<text text-anchor="middle" x="137" y="-28.95" font-family="Times,serif" font-size="14.00">pipe&#45;1</text>
</g>
<!-- p30&#45;&gt;p31 -->
<g id="edge7" class="edge">
<title>p30&#45;&gt;p31</title>
<path fill="none" stroke="black" d="M84.66,-34C86.77,-34 88.88,-34 90.98,-34"/>
<polygon fill="black" stroke="black" points="90.73,-37.5 100.73,-34 90.73,-30.5 90.73,-37.5"/>
</g>
<!-- p01&#45;&gt;p11 -->
<g id="edge10" class="edge">
<title>p01&#45;&gt;p11</title>
<path fill="none" stroke="black" d="M137,-231.7C137,-224.41 137,-215.73 137,-207.54"/>
<polygon fill="black" stroke="black" points="140.5,-207.62 137,-197.62 133.5,-207.62 140.5,-207.62"/>
</g>
<!-- p02 -->
<g id="node9" class="node">
<title>p02</title>
<ellipse fill="none" stroke="black" cx="224" cy="-250" rx="34.46" ry="18"/>
<text text-anchor="middle" x="224" y="-244.95" font-family="Times,serif" font-size="14.00">pipe&#45;2</text>
</g>
<!-- p01&#45;&gt;p02 -->
<g id="edge2" class="edge">
<title>p01&#45;&gt;p02</title>
<path fill="none" stroke="black" d="M171.66,-250C173.77,-250 175.88,-250 177.98,-250"/>
<polygon fill="black" stroke="black" points="177.73,-253.5 187.73,-250 177.73,-246.5 177.73,-253.5"/>
</g>
<!-- p11&#45;&gt;p21 -->
<g id="edge13" class="edge">
<title>p11&#45;&gt;p21</title>
<path fill="none" stroke="black" d="M137,-159.7C137,-152.41 137,-143.73 137,-135.54"/>
<polygon fill="black" stroke="black" points="140.5,-135.62 137,-125.62 133.5,-135.62 140.5,-135.62"/>
</g>
<!-- p12 -->
<g id="node10" class="node">
<title>p12</title>
<ellipse fill="none" stroke="black" cx="224" cy="-178" rx="34.46" ry="18"/>
<text text-anchor="middle" x="224" y="-172.95" font-family="Times,serif" font-size="14.00">pipe&#45;2</text>
</g>
<!-- p11&#45;&gt;p12 -->
<g id="edge4" class="edge">
<title>p11&#45;&gt;p12</title>
<path fill="none" stroke="black" d="M171.66,-178C173.77,-178 175.88,-178 177.98,-178"/>
<polygon fill="black" stroke="black" points="177.73,-181.5 187.73,-178 177.73,-174.5 177.73,-181.5"/>
</g>
<!-- p21&#45;&gt;p31 -->
<g id="edge16" class="edge">
<title>p21&#45;&gt;p31</title>
<path fill="none" stroke="black" d="M137,-87.7C137,-80.41 137,-71.73 137,-63.54"/>
<polygon fill="black" stroke="black" points="140.5,-63.62 137,-53.62 133.5,-63.62 140.5,-63.62"/>
</g>
<!-- p22 -->
<g id="node11" class="node">
<title>p22</title>
<ellipse fill="none" stroke="black" cx="224" cy="-106" rx="34.46" ry="18"/>
<text text-anchor="middle" x="224" y="-100.95" font-family="Times,serif" font-size="14.00">pipe&#45;2</text>
</g>
<!-- p21&#45;&gt;p22 -->
<g id="edge6" class="edge">
<title>p21&#45;&gt;p22</title>
<path fill="none" stroke="black" d="M171.66,-106C173.77,-106 175.88,-106 177.98,-106"/>
<polygon fill="black" stroke="black" points="177.73,-109.5 187.73,-106 177.73,-102.5 177.73,-109.5"/>
</g>
<!-- p32 -->
<g id="node12" class="node">
<title>p32</title>
<ellipse fill="none" stroke="black" cx="224" cy="-34" rx="34.46" ry="18"/>
<text text-anchor="middle" x="224" y="-28.95" font-family="Times,serif" font-size="14.00">pipe&#45;2</text>
</g>
<!-- p31&#45;&gt;p32 -->
<g id="edge8" class="edge">
<title>p31&#45;&gt;p32</title>
<path fill="none" stroke="black" d="M171.66,-34C173.77,-34 175.88,-34 177.98,-34"/>
<polygon fill="black" stroke="black" points="177.73,-37.5 187.73,-34 177.73,-30.5 177.73,-37.5"/>
</g>
<!-- p02&#45;&gt;p12 -->
<g id="edge11" class="edge">
<title>p02&#45;&gt;p12</title>
<path fill="none" stroke="black" d="M224,-231.7C224,-224.41 224,-215.73 224,-207.54"/>
<polygon fill="black" stroke="black" points="227.5,-207.62 224,-197.62 220.5,-207.62 227.5,-207.62"/>
</g>
<!-- p12&#45;&gt;p22 -->
<g id="edge14" class="edge">
<title>p12&#45;&gt;p22</title>
<path fill="none" stroke="black" d="M224,-159.7C224,-152.41 224,-143.73 224,-135.54"/>
<polygon fill="black" stroke="black" points="227.5,-135.62 224,-125.62 220.5,-135.62 227.5,-135.62"/>
</g>
<!-- p22&#45;&gt;p32 -->
<g id="edge17" class="edge">
<title>p22&#45;&gt;p32</title>
<path fill="none" stroke="black" d="M224,-87.7C224,-80.41 224,-71.73 224,-63.54"/>
<polygon fill="black" stroke="black" points="227.5,-63.62 224,-53.62 220.5,-63.62 227.5,-63.62"/>
</g>
</g>
</svg>
