<?xml version="1.0" encoding="UTF-8" standalone="no"?>
<!DOCTYPE svg PUBLIC "-//W3C//DTD SVG 1.1//EN"
 "http://www.w3.org/Graphics/SVG/1.1/DTD/svg11.dtd">
<!-- Generated by graphviz version 12.2.1 (20241206.2353)
 -->
<!-- Title: Taskflow Pages: 1 -->
<svg width="270pt" height="98pt"
 viewBox="0.00 0.00 269.80 98.00" xmlns="http://www.w3.org/2000/svg" xmlns:xlink="http://www.w3.org/1999/xlink">
<g id="graph0" class="graph" transform="scale(1 1) rotate(0) translate(4 94)">
<title>Taskflow</title>
<polygon fill="white" stroke="none" points="-4,4 -4,-94 265.8,-94 265.8,4 -4,4"/>
<!-- p0x7f2870401a50 -->
<g id="node1" class="node">
<title>p0x7f2870401a50</title>
<ellipse fill="none" stroke="black" cx="33.95" cy="-72" rx="33.95" ry="18"/>
<text text-anchor="middle" x="33.95" y="-66.95" font-family="Times,serif" font-size="14.00">h2d_x</text>
</g>
<!-- p0x7f2870402bc0 -->
<g id="node2" class="node">
<title>p0x7f2870402bc0</title>
<polygon fill="black" stroke="white" points="157.9,-63 107.9,-63 103.9,-59 103.9,-27 153.9,-27 157.9,-31 157.9,-63"/>
<polyline fill="none" stroke="white" points="153.9,-59 103.9,-59"/>
<polyline fill="none" stroke="white" points="153.9,-59 153.9,-27"/>
<polyline fill="none" stroke="white" points="153.9,-59 157.9,-63"/>
<text text-anchor="middle" x="130.9" y="-39.95" font-family="Times,serif" font-size="14.00" fill="white">saxpy</text>
</g>
<!-- p0x7f2870401a50&#45;&gt;p0x7f2870402bc0 -->
<g id="edge1" class="edge">
<title>p0x7f2870401a50&#45;&gt;p0x7f2870402bc0</title>
<path fill="none" stroke="black" d="M64.47,-63.61C73.37,-61.07 83.26,-58.26 92.6,-55.61"/>
<polygon fill="black" stroke="black" points="93.5,-58.99 102.16,-52.89 91.58,-52.26 93.5,-58.99"/>
</g>
<!-- p0x7f2870402310 -->
<g id="node4" class="node">
<title>p0x7f2870402310</title>
<ellipse fill="none" stroke="black" cx="227.85" cy="-72" rx="33.95" ry="18"/>
<text text-anchor="middle" x="227.85" y="-66.95" font-family="Times,serif" font-size="14.00">d2h_x</text>
</g>
<!-- p0x7f2870402bc0&#45;&gt;p0x7f2870402310 -->
<g id="edge3" class="edge">
<title>p0x7f2870402bc0&#45;&gt;p0x7f2870402310</title>
<path fill="none" stroke="black" d="M158.35,-52.52C167.03,-54.99 176.88,-57.79 186.35,-60.48"/>
<polygon fill="black" stroke="black" points="185.17,-63.79 195.75,-63.16 187.08,-57.05 185.17,-63.79"/>
</g>
<!-- p0x7f2870402780 -->
<g id="node5" class="node">
<title>p0x7f2870402780</title>
<ellipse fill="none" stroke="black" cx="227.85" cy="-18" rx="33.95" ry="18"/>
<text text-anchor="middle" x="227.85" y="-12.95" font-family="Times,serif" font-size="14.00">d2h_y</text>
</g>
<!-- p0x7f2870402bc0&#45;&gt;p0x7f2870402780 -->
<g id="edge4" class="edge">
<title>p0x7f2870402bc0&#45;&gt;p0x7f2870402780</title>
<path fill="none" stroke="black" d="M158.35,-37.48C167.03,-35.01 176.88,-32.21 186.35,-29.52"/>
<polygon fill="black" stroke="black" points="187.08,-32.95 195.75,-26.84 185.17,-26.21 187.08,-32.95"/>
</g>
<!-- p0x7f2870401eb0 -->
<g id="node3" class="node">
<title>p0x7f2870401eb0</title>
<ellipse fill="none" stroke="black" cx="33.95" cy="-18" rx="33.95" ry="18"/>
<text text-anchor="middle" x="33.95" y="-12.95" font-family="Times,serif" font-size="14.00">h2d_y</text>
</g>
<!-- p0x7f2870401eb0&#45;&gt;p0x7f2870402bc0 -->
<g id="edge2" class="edge">
<title>p0x7f2870401eb0&#45;&gt;p0x7f2870402bc0</title>
<path fill="none" stroke="black" d="M64.47,-26.39C73.37,-28.93 83.26,-31.74 92.6,-34.39"/>
<polygon fill="black" stroke="black" points="91.58,-37.74 102.16,-37.11 93.5,-31.01 91.58,-37.74"/>
</g>
</g>
</svg>
