<?xml version="1.0" encoding="UTF-8" standalone="no"?>
<!DOCTYPE svg PUBLIC "-//W3C//DTD SVG 1.1//EN"
 "http://www.w3.org/Graphics/SVG/1.1/DTD/svg11.dtd">
<!-- Generated by graphviz version 12.2.1 (20241206.2353)
 -->
<!-- Title: Taskflow Pages: 1 -->
<svg width="351pt" height="262pt"
 viewBox="0.00 0.00 351.00 262.00" xmlns="http://www.w3.org/2000/svg" xmlns:xlink="http://www.w3.org/1999/xlink">
<g id="graph0" class="graph" transform="scale(1 1) rotate(0) translate(4 258)">
<title>Taskflow</title>
<polygon fill="white" stroke="none" points="-4,4 -4,-258 347,-258 347,4 -4,4"/>
<g id="clust1" class="cluster">
<title>cluster_p0x7ffd7418c200</title>
<polygon fill="none" stroke="black" points="8,-8 8,-246 185,-246 185,-8 8,-8"/>
<text text-anchor="middle" x="96.5" y="-228.7" font-family="Times,serif" font-size="14.00">Taskflow Processing Pipeline</text>
</g>
<g id="clust2" class="cluster">
<title>cluster_p0x7ffd7418c110</title>
<polygon fill="none" stroke="black" points="193,-81 193,-246 335,-246 335,-81 193,-81"/>
<text text-anchor="middle" x="264" y="-228.7" font-family="Times,serif" font-size="14.00">m1</text>
</g>
<!-- p0x7bc4000142e8 -->
<g id="node1" class="node">
<title>p0x7bc4000142e8</title>
<ellipse fill="none" stroke="black" cx="96" cy="-195.5" rx="70.8" ry="18"/>
<text text-anchor="middle" x="96" y="-190.45" font-family="Times,serif" font-size="14.00">starting pipeline</text>
</g>
<!-- p0x7bc4000143d0 -->
<g id="node2" class="node">
<title>p0x7bc4000143d0</title>
<polygon fill="none" stroke="blue" points="141.12,-125 54.88,-125 50.88,-121 50.88,-89 137.12,-89 141.12,-93 141.12,-125"/>
<polyline fill="none" stroke="blue" points="137.12,-121 50.88,-121"/>
<polyline fill="none" stroke="blue" points="137.12,-121 137.12,-89"/>
<polyline fill="none" stroke="blue" points="137.12,-121 141.12,-125"/>
<text text-anchor="middle" x="96" y="-101.95" font-family="Times,serif" font-size="14.00">pipeline [m1]</text>
</g>
<!-- p0x7bc4000142e8&#45;&gt;p0x7bc4000143d0 -->
<g id="edge1" class="edge">
<title>p0x7bc4000142e8&#45;&gt;p0x7bc4000143d0</title>
<path fill="none" stroke="black" d="M96,-177.41C96,-165.76 96,-150.05 96,-136.52"/>
<polygon fill="black" stroke="black" points="99.5,-136.86 96,-126.86 92.5,-136.86 99.5,-136.86"/>
</g>
<!-- p0x7bc4000144b8 -->
<g id="node3" class="node">
<title>p0x7bc4000144b8</title>
<ellipse fill="none" stroke="black" cx="96" cy="-34" rx="71.82" ry="18"/>
<text text-anchor="middle" x="96" y="-28.95" font-family="Times,serif" font-size="14.00">pipeline stopped</text>
</g>
<!-- p0x7bc4000143d0&#45;&gt;p0x7bc4000144b8 -->
<g id="edge2" class="edge">
<title>p0x7bc4000143d0&#45;&gt;p0x7bc4000144b8</title>
<path fill="none" stroke="black" d="M96,-88.81C96,-81.23 96,-72.1 96,-63.54"/>
<polygon fill="black" stroke="black" points="99.5,-63.54 96,-53.54 92.5,-63.54 99.5,-63.54"/>
</g>
<!-- p0x7bc400014030 -->
<g id="node4" class="node">
<title>p0x7bc400014030</title>
<polygon fill="aquamarine" stroke="black" points="250,-213.5 209.23,-195.5 250,-177.5 290.77,-195.5 250,-213.5"/>
<text text-anchor="middle" x="250" y="-190.45" font-family="Times,serif" font-size="14.00">cond</text>
</g>
<!-- p0x7bc400014118 -->
<g id="node5" class="node">
<title>p0x7bc400014118</title>
<polygon fill="none" stroke="black" points="255,-125 201,-125 201,-121 197,-121 197,-117 201,-117 201,-97 197,-97 197,-93 201,-93 201,-89 255,-89 255,-125"/>
<polyline fill="none" stroke="black" points="201,-121 205,-121 205,-117 201,-117"/>
<polyline fill="none" stroke="black" points="201,-97 205,-97 205,-93 201,-93"/>
<text text-anchor="middle" x="228" y="-101.95" font-family="Times,serif" font-size="14.00">rt&#45;0</text>
</g>
<!-- p0x7bc400014030&#45;&gt;p0x7bc400014118 -->
<g id="edge3" class="edge">
<title>p0x7bc400014030&#45;&gt;p0x7bc400014118</title>
<path fill="none" stroke="black" stroke-dasharray="5,2" d="M246.07,-179.04C243.04,-167.15 238.79,-150.41 235.16,-136.16"/>
<polygon fill="black" stroke="black" points="238.66,-135.71 232.8,-126.88 231.87,-137.43 238.66,-135.71"/>
<text text-anchor="middle" x="244.35" y="-146.2" font-family="Times,serif" font-size="14.00">0</text>
</g>
<!-- p0x7bc400014200 -->
<g id="node6" class="node">
<title>p0x7bc400014200</title>
<polygon fill="none" stroke="black" points="327,-125 273,-125 273,-121 269,-121 269,-117 273,-117 273,-97 269,-97 269,-93 273,-93 273,-89 327,-89 327,-125"/>
<polyline fill="none" stroke="black" points="273,-121 277,-121 277,-117 273,-117"/>
<polyline fill="none" stroke="black" points="273,-97 277,-97 277,-93 273,-93"/>
<text text-anchor="middle" x="300" y="-101.95" font-family="Times,serif" font-size="14.00">rt&#45;1</text>
</g>
<!-- p0x7bc400014030&#45;&gt;p0x7bc400014200 -->
<g id="edge4" class="edge">
<title>p0x7bc400014030&#45;&gt;p0x7bc400014200</title>
<path fill="none" stroke="black" stroke-dasharray="5,2" d="M258.03,-180.6C265.08,-168.42 275.52,-150.35 284.23,-135.29"/>
<polygon fill="black" stroke="black" points="287.18,-137.17 289.16,-126.76 281.12,-133.66 287.18,-137.17"/>
<text text-anchor="middle" x="282.85" y="-146.2" font-family="Times,serif" font-size="14.00">1</text>
</g>
</g>
</svg>
