<?xml version="1.0" encoding="UTF-8" standalone="no"?>
<!DOCTYPE svg PUBLIC "-//W3C//DTD SVG 1.1//EN"
 "http://www.w3.org/Graphics/SVG/1.1/DTD/svg11.dtd">
<!-- Generated by graphviz version 12.2.1 (20241206.2353)
 -->
<!-- Title: Taskflow Pages: 1 -->
<svg width="289pt" height="560pt"
 viewBox="0.00 0.00 289.35 559.50" xmlns="http://www.w3.org/2000/svg" xmlns:xlink="http://www.w3.org/1999/xlink">
<g id="graph0" class="graph" transform="scale(1 1) rotate(0) translate(4 555.5)">
<title>Taskflow</title>
<polygon fill="white" stroke="none" points="-4,4 -4,-555.5 285.35,-555.5 285.35,4 -4,4"/>
<!-- p0x7fa9a4803e30 -->
<g id="node1" class="node">
<title>p0x7fa9a4803e30</title>
<ellipse fill="none" stroke="black" cx="178.17" cy="-533.5" rx="27" ry="18"/>
<text text-anchor="middle" x="178.17" y="-528.45" font-family="Times,serif" font-size="14.00">init</text>
</g>
<!-- p0x7fa9a4803f50 -->
<g id="node2" class="node">
<title>p0x7fa9a4803f50</title>
<polygon fill="aquamarine" stroke="black" points="178.17,-478.5 107,-460.5 178.17,-442.5 249.35,-460.5 178.17,-478.5"/>
<text text-anchor="middle" x="178.17" y="-455.45" font-family="Times,serif" font-size="14.00">flip&#45;coin&#45;1</text>
</g>
<!-- p0x7fa9a4803e30&#45;&gt;p0x7fa9a4803f50 -->
<g id="edge1" class="edge">
<title>p0x7fa9a4803e30&#45;&gt;p0x7fa9a4803f50</title>
<path fill="none" stroke="black" d="M178.17,-515.31C178.17,-507.73 178.17,-498.6 178.17,-490.04"/>
<polygon fill="black" stroke="black" points="181.67,-490.04 178.17,-480.04 174.67,-490.04 181.67,-490.04"/>
</g>
<!-- p0x7fa9a4803f50&#45;&gt;p0x7fa9a4803f50 -->
<g id="edge3" class="edge">
<title>p0x7fa9a4803f50&#45;&gt;p0x7fa9a4803f50</title>
<path fill="none" stroke="black" stroke-dasharray="5,2" d="M224.97,-467.18C247.48,-468 267.35,-465.78 267.35,-460.5 267.35,-456.13 253.72,-453.85 236.25,-453.67"/>
<polygon fill="black" stroke="black" points="236.43,-450.17 226.48,-453.8 236.53,-457.17 236.43,-450.17"/>
<text text-anchor="middle" x="270.72" y="-455.45" font-family="Times,serif" font-size="14.00">1</text>
</g>
<!-- p0x7fa9a4804070 -->
<g id="node3" class="node">
<title>p0x7fa9a4804070</title>
<polygon fill="aquamarine" stroke="black" points="71.17,-390 0,-372 71.17,-354 142.35,-372 71.17,-390"/>
<text text-anchor="middle" x="71.17" y="-366.95" font-family="Times,serif" font-size="14.00">flip&#45;coin&#45;2</text>
</g>
<!-- p0x7fa9a4803f50&#45;&gt;p0x7fa9a4804070 -->
<g id="edge2" class="edge">
<title>p0x7fa9a4803f50&#45;&gt;p0x7fa9a4804070</title>
<path fill="none" stroke="black" stroke-dasharray="5,2" d="M152.78,-448.62C140.22,-442.56 125.25,-434.26 113.42,-424.5 103.89,-416.64 94.95,-406.36 87.77,-397.06"/>
<polygon fill="black" stroke="black" points="90.64,-395.05 81.88,-389.08 85.01,-399.2 90.64,-395.05"/>
<text text-anchor="middle" x="116.8" y="-411.2" font-family="Times,serif" font-size="14.00">0</text>
</g>
<!-- p0x7fa9a4804070&#45;&gt;p0x7fa9a4803f50 -->
<g id="edge5" class="edge">
<title>p0x7fa9a4804070&#45;&gt;p0x7fa9a4803f50</title>
<path fill="none" stroke="black" stroke-dasharray="5,2" d="M89.66,-385.52C98.99,-392 110.37,-400.18 120.17,-408 132.18,-417.58 145,-428.84 155.53,-438.39"/>
<polygon fill="black" stroke="black" points="152.91,-440.74 162.65,-444.91 157.64,-435.58 152.91,-440.74"/>
<text text-anchor="middle" x="143.18" y="-411.2" font-family="Times,serif" font-size="14.00">1</text>
</g>
<!-- p0x7fa9a4804190 -->
<g id="node4" class="node">
<title>p0x7fa9a4804190</title>
<polygon fill="aquamarine" stroke="black" points="114.17,-301.5 43,-283.5 114.17,-265.5 185.35,-283.5 114.17,-301.5"/>
<text text-anchor="middle" x="114.17" y="-278.45" font-family="Times,serif" font-size="14.00">flip&#45;coin&#45;3</text>
</g>
<!-- p0x7fa9a4804070&#45;&gt;p0x7fa9a4804190 -->
<g id="edge4" class="edge">
<title>p0x7fa9a4804070&#45;&gt;p0x7fa9a4804190</title>
<path fill="none" stroke="black" stroke-dasharray="5,2" d="M78.86,-355.54C85.16,-342.87 94.2,-324.68 101.56,-309.88"/>
<polygon fill="black" stroke="black" points="104.56,-311.7 105.88,-301.19 98.29,-308.58 104.56,-311.7"/>
<text text-anchor="middle" x="99.9" y="-322.7" font-family="Times,serif" font-size="14.00">0</text>
</g>
<!-- p0x7fa9a4804190&#45;&gt;p0x7fa9a4803f50 -->
<g id="edge7" class="edge">
<title>p0x7fa9a4804190&#45;&gt;p0x7fa9a4803f50</title>
<path fill="none" stroke="black" stroke-dasharray="5,2" d="M123.49,-299.46C131.72,-313.21 143.56,-334.37 151.17,-354 161.15,-379.73 168.53,-410.42 173.03,-432.04"/>
<polygon fill="black" stroke="black" points="169.54,-432.44 174.93,-441.55 176.4,-431.06 169.54,-432.44"/>
<text text-anchor="middle" x="165.93" y="-366.95" font-family="Times,serif" font-size="14.00">1</text>
</g>
<!-- p0x7fa9a48042b0 -->
<g id="node5" class="node">
<title>p0x7fa9a48042b0</title>
<polygon fill="aquamarine" stroke="black" points="160.17,-213 89,-195 160.17,-177 231.35,-195 160.17,-213"/>
<text text-anchor="middle" x="160.17" y="-189.95" font-family="Times,serif" font-size="14.00">flip&#45;coin&#45;4</text>
</g>
<!-- p0x7fa9a4804190&#45;&gt;p0x7fa9a48042b0 -->
<g id="edge6" class="edge">
<title>p0x7fa9a4804190&#45;&gt;p0x7fa9a48042b0</title>
<path fill="none" stroke="black" stroke-dasharray="5,2" d="M122.19,-267.43C128.94,-254.74 138.74,-236.3 146.7,-221.33"/>
<polygon fill="black" stroke="black" points="149.78,-222.99 151.39,-212.52 143.6,-219.71 149.78,-222.99"/>
<text text-anchor="middle" x="144.67" y="-234.2" font-family="Times,serif" font-size="14.00">0</text>
</g>
<!-- p0x7fa9a48042b0&#45;&gt;p0x7fa9a4803f50 -->
<g id="edge9" class="edge">
<title>p0x7fa9a48042b0&#45;&gt;p0x7fa9a4803f50</title>
<path fill="none" stroke="black" stroke-dasharray="5,2" d="M170.01,-210.98C178.3,-224.56 189.54,-245.48 194.17,-265.5 207.69,-323.88 194.81,-394.45 185.61,-432.33"/>
<polygon fill="black" stroke="black" points="182.24,-431.4 183.17,-441.95 189.02,-433.12 182.24,-431.4"/>
<text text-anchor="middle" x="203.4" y="-322.7" font-family="Times,serif" font-size="14.00">1</text>
</g>
<!-- p0x7fa9a48043d0 -->
<g id="node6" class="node">
<title>p0x7fa9a48043d0</title>
<polygon fill="aquamarine" stroke="black" points="210.17,-124.5 139,-106.5 210.17,-88.5 281.35,-106.5 210.17,-124.5"/>
<text text-anchor="middle" x="210.17" y="-101.45" font-family="Times,serif" font-size="14.00">flip&#45;coin&#45;5</text>
</g>
<!-- p0x7fa9a48042b0&#45;&gt;p0x7fa9a48043d0 -->
<g id="edge8" class="edge">
<title>p0x7fa9a48042b0&#45;&gt;p0x7fa9a48043d0</title>
<path fill="none" stroke="black" stroke-dasharray="5,2" d="M168.88,-178.93C176.29,-166.11 187.09,-147.44 195.78,-132.4"/>
<polygon fill="black" stroke="black" points="198.67,-134.4 200.64,-124 192.6,-130.9 198.67,-134.4"/>
<text text-anchor="middle" x="193.03" y="-145.7" font-family="Times,serif" font-size="14.00">0</text>
</g>
<!-- p0x7fa9a48043d0&#45;&gt;p0x7fa9a4803f50 -->
<g id="edge11" class="edge">
<title>p0x7fa9a48043d0&#45;&gt;p0x7fa9a4803f50</title>
<path fill="none" stroke="black" stroke-dasharray="5,2" d="M224.08,-121.43C238.57,-137.48 259.17,-165.35 259.17,-194 259.17,-373 259.17,-373 259.17,-373 259.17,-402.93 233.02,-426.78 210.43,-441.79"/>
<polygon fill="black" stroke="black" points="208.64,-438.78 202.02,-447.06 212.35,-444.72 208.64,-438.78"/>
<text text-anchor="middle" x="262.55" y="-278.45" font-family="Times,serif" font-size="14.00">1</text>
</g>
<!-- p0x7fa9a48044f0 -->
<g id="node7" class="node">
<title>p0x7fa9a48044f0</title>
<ellipse fill="none" stroke="black" cx="210.17" cy="-18" rx="27" ry="18"/>
<text text-anchor="middle" x="210.17" y="-12.95" font-family="Times,serif" font-size="14.00">stop</text>
</g>
<!-- p0x7fa9a48043d0&#45;&gt;p0x7fa9a48044f0 -->
<g id="edge10" class="edge">
<title>p0x7fa9a48043d0&#45;&gt;p0x7fa9a48044f0</title>
<path fill="none" stroke="black" stroke-dasharray="5,2" d="M210.17,-88C210.17,-76.51 210.17,-61.2 210.17,-47.93"/>
<polygon fill="black" stroke="black" points="213.67,-47.99 210.17,-37.99 206.67,-47.99 213.67,-47.99"/>
<text text-anchor="middle" x="213.55" y="-57.2" font-family="Times,serif" font-size="14.00">0</text>
</g>
</g>
</svg>
