<?xml version="1.0" encoding="UTF-8" standalone="no"?>
<!DOCTYPE svg PUBLIC "-//W3C//DTD SVG 1.1//EN"
 "http://www.w3.org/Graphics/SVG/1.1/DTD/svg11.dtd">
<!-- Generated by graphviz version 2.43.0 (0)
 -->
<!-- Title: R Pages: 1 -->
<svg width="536pt" height="188pt"
 viewBox="0.00 0.00 536.00 188.00" xmlns="http://www.w3.org/2000/svg" xmlns:xlink="http://www.w3.org/1999/xlink">
<g id="graph0" class="graph" transform="scale(1 1) rotate(0) translate(4 184)">
<title>R</title>
<polygon fill="white" stroke="transparent" points="-4,4 -4,-184 532,-184 532,4 -4,4"/>
<!-- f1_A -->
<g id="node1" class="node">
<title>f1_A</title>
<polygon fill="none" stroke="black" points="164,-180 0,-180 0,-144 164,-144 164,-180"/>
<text text-anchor="middle" x="82" y="-158.3" font-family="Times,serif" font-size="14.00">taskflow1 on token 1</text>
</g>
<!-- f1_B -->
<g id="node2" class="node">
<title>f1_B</title>
<polygon fill="none" stroke="black" points="346,-180 182,-180 182,-144 346,-144 346,-180"/>
<text text-anchor="middle" x="264" y="-158.3" font-family="Times,serif" font-size="14.00">taskflow2 on token 1</text>
</g>
<!-- f1_A&#45;&gt;f1_B -->
<g id="edge7" class="edge">
<title>f1_A&#45;&gt;f1_B</title>
<path fill="none" stroke="black" d="M164.11,-162C166.58,-162 169.05,-162 171.52,-162"/>
<polygon fill="black" stroke="black" points="171.67,-165.5 181.67,-162 171.67,-158.5 171.67,-165.5"/>
</g>
<!-- f2_A -->
<g id="node4" class="node">
<title>f2_A</title>
<polygon fill="none" stroke="black" points="164,-108 0,-108 0,-72 164,-72 164,-108"/>
<text text-anchor="middle" x="82" y="-86.3" font-family="Times,serif" font-size="14.00">taskflow1 on token 2</text>
</g>
<!-- f1_A&#45;&gt;f2_A -->
<g id="edge1" class="edge">
<title>f1_A&#45;&gt;f2_A</title>
<path fill="none" stroke="black" d="M82,-143.7C82,-135.98 82,-126.71 82,-118.11"/>
<polygon fill="black" stroke="black" points="85.5,-118.1 82,-108.1 78.5,-118.1 85.5,-118.1"/>
</g>
<!-- f1_C -->
<g id="node3" class="node">
<title>f1_C</title>
<polygon fill="none" stroke="black" points="528,-180 364,-180 364,-144 528,-144 528,-180"/>
<text text-anchor="middle" x="446" y="-158.3" font-family="Times,serif" font-size="14.00">taskflow3 on token 1</text>
</g>
<!-- f1_B&#45;&gt;f1_C -->
<g id="edge8" class="edge">
<title>f1_B&#45;&gt;f1_C</title>
<path fill="none" stroke="black" d="M346.11,-162C348.58,-162 351.05,-162 353.52,-162"/>
<polygon fill="black" stroke="black" points="353.67,-165.5 363.67,-162 353.67,-158.5 353.67,-165.5"/>
</g>
<!-- f2_B -->
<g id="node5" class="node">
<title>f2_B</title>
<polygon fill="none" stroke="black" points="346,-108 182,-108 182,-72 346,-72 346,-108"/>
<text text-anchor="middle" x="264" y="-86.3" font-family="Times,serif" font-size="14.00">taskflow2 on token 2</text>
</g>
<!-- f1_B&#45;&gt;f2_B -->
<g id="edge3" class="edge">
<title>f1_B&#45;&gt;f2_B</title>
<path fill="none" stroke="black" d="M264,-143.7C264,-135.98 264,-126.71 264,-118.11"/>
<polygon fill="black" stroke="black" points="267.5,-118.1 264,-108.1 260.5,-118.1 267.5,-118.1"/>
</g>
<!-- f2_C -->
<g id="node6" class="node">
<title>f2_C</title>
<polygon fill="none" stroke="black" points="528,-108 364,-108 364,-72 528,-72 528,-108"/>
<text text-anchor="middle" x="446" y="-86.3" font-family="Times,serif" font-size="14.00">taskflow3 on token 2</text>
</g>
<!-- f1_C&#45;&gt;f2_C -->
<g id="edge5" class="edge">
<title>f1_C&#45;&gt;f2_C</title>
<path fill="none" stroke="black" d="M446,-143.7C446,-135.98 446,-126.71 446,-118.11"/>
<polygon fill="black" stroke="black" points="449.5,-118.1 446,-108.1 442.5,-118.1 449.5,-118.1"/>
</g>
<!-- f2_A&#45;&gt;f2_B -->
<g id="edge9" class="edge">
<title>f2_A&#45;&gt;f2_B</title>
<path fill="none" stroke="black" d="M164.11,-90C166.58,-90 169.05,-90 171.52,-90"/>
<polygon fill="black" stroke="black" points="171.67,-93.5 181.67,-90 171.67,-86.5 171.67,-93.5"/>
</g>
<!-- f3_A -->
<g id="node7" class="node">
<title>f3_A</title>
<polygon fill="none" stroke="black" points="164,-36 0,-36 0,0 164,0 164,-36"/>
<text text-anchor="middle" x="82" y="-14.3" font-family="Times,serif" font-size="14.00">taskflow1 on token 3</text>
</g>
<!-- f2_A&#45;&gt;f3_A -->
<g id="edge2" class="edge">
<title>f2_A&#45;&gt;f3_A</title>
<path fill="none" stroke="black" d="M82,-71.7C82,-63.98 82,-54.71 82,-46.11"/>
<polygon fill="black" stroke="black" points="85.5,-46.1 82,-36.1 78.5,-46.1 85.5,-46.1"/>
</g>
<!-- f2_B&#45;&gt;f2_C -->
<g id="edge10" class="edge">
<title>f2_B&#45;&gt;f2_C</title>
<path fill="none" stroke="black" d="M346.11,-90C348.58,-90 351.05,-90 353.52,-90"/>
<polygon fill="black" stroke="black" points="353.67,-93.5 363.67,-90 353.67,-86.5 353.67,-93.5"/>
</g>
<!-- f3_B -->
<g id="node8" class="node">
<title>f3_B</title>
<polygon fill="none" stroke="black" points="346,-36 182,-36 182,0 346,0 346,-36"/>
<text text-anchor="middle" x="264" y="-14.3" font-family="Times,serif" font-size="14.00">taskflow2 on token 3</text>
</g>
<!-- f2_B&#45;&gt;f3_B -->
<g id="edge4" class="edge">
<title>f2_B&#45;&gt;f3_B</title>
<path fill="none" stroke="black" d="M264,-71.7C264,-63.98 264,-54.71 264,-46.11"/>
<polygon fill="black" stroke="black" points="267.5,-46.1 264,-36.1 260.5,-46.1 267.5,-46.1"/>
</g>
<!-- f3_C -->
<g id="node9" class="node">
<title>f3_C</title>
<polygon fill="none" stroke="black" points="528,-36 364,-36 364,0 528,0 528,-36"/>
<text text-anchor="middle" x="446" y="-14.3" font-family="Times,serif" font-size="14.00">taskflow3 on token 3</text>
</g>
<!-- f2_C&#45;&gt;f3_C -->
<g id="edge6" class="edge">
<title>f2_C&#45;&gt;f3_C</title>
<path fill="none" stroke="black" d="M446,-71.7C446,-63.98 446,-54.71 446,-46.11"/>
<polygon fill="black" stroke="black" points="449.5,-46.1 446,-36.1 442.5,-46.1 449.5,-46.1"/>
</g>
<!-- f3_A&#45;&gt;f3_B -->
<g id="edge11" class="edge">
<title>f3_A&#45;&gt;f3_B</title>
<path fill="none" stroke="black" d="M164.11,-18C166.58,-18 169.05,-18 171.52,-18"/>
<polygon fill="black" stroke="black" points="171.67,-21.5 181.67,-18 171.67,-14.5 171.67,-21.5"/>
</g>
<!-- f3_B&#45;&gt;f3_C -->
<g id="edge12" class="edge">
<title>f3_B&#45;&gt;f3_C</title>
<path fill="none" stroke="black" d="M346.11,-18C348.58,-18 351.05,-18 353.52,-18"/>
<polygon fill="black" stroke="black" points="353.67,-21.5 363.67,-18 353.67,-14.5 353.67,-21.5"/>
</g>
</g>
</svg>
