<?xml version="1.0" encoding="UTF-8" standalone="no"?>
<!DOCTYPE svg PUBLIC "-//W3C//DTD SVG 1.1//EN"
 "http://www.w3.org/Graphics/SVG/1.1/DTD/svg11.dtd">
<!-- Generated by graphviz version 2.43.0 (0)
 -->
<!-- Title: Taskflow Pages: 1 -->
<svg width="366pt" height="259pt"
 viewBox="0.00 0.00 366.00 259.00" xmlns="http://www.w3.org/2000/svg" xmlns:xlink="http://www.w3.org/1999/xlink">
<g id="graph0" class="graph" transform="scale(1 1) rotate(0) translate(4 255)">
<title>Taskflow</title>
<polygon fill="white" stroke="transparent" points="-4,4 -4,-255 362,-255 362,4 -4,4"/>
<g id="clust1" class="cluster">
<title>cluster_p0x7ffd7418c200</title>
<polygon fill="none" stroke="black" points="8,-8 8,-243 200,-243 200,-8 8,-8"/>
<text text-anchor="middle" x="104" y="-227.8" font-family="Times,serif" font-size="14.00">Text Processing Pipeline</text>
</g>
<g id="clust2" class="cluster">
<title>cluster_p0x7ffd7418c110</title>
<polygon fill="none" stroke="black" points="208,-81 208,-243 350,-243 350,-81 208,-81"/>
<text text-anchor="middle" x="279" y="-227.8" font-family="Times,serif" font-size="14.00">m1</text>
</g>
<!-- p0x7bc4000142e8 -->
<g id="node1" class="node">
<title>p0x7bc4000142e8</title>
<ellipse fill="none" stroke="black" cx="104" cy="-194" rx="87.99" ry="18"/>
<text text-anchor="middle" x="104" y="-190.3" font-family="Times,serif" font-size="14.00">starting pipeline</text>
</g>
<!-- p0x7bc4000143d0 -->
<g id="node2" class="node">
<title>p0x7bc4000143d0</title>
<polygon fill="none" stroke="blue" points="159.5,-125 52.5,-125 48.5,-121 48.5,-89 155.5,-89 159.5,-93 159.5,-125"/>
<polyline fill="none" stroke="blue" points="155.5,-121 48.5,-121 "/>
<polyline fill="none" stroke="blue" points="155.5,-121 155.5,-89 "/>
<polyline fill="none" stroke="blue" points="155.5,-121 159.5,-125 "/>
<text text-anchor="middle" x="104" y="-103.3" font-family="Times,serif" font-size="14.00">pipeline [m1]</text>
</g>
<!-- p0x7bc4000142e8&#45;&gt;p0x7bc4000143d0 -->
<g id="edge1" class="edge">
<title>p0x7bc4000142e8&#45;&gt;p0x7bc4000143d0</title>
<path fill="none" stroke="black" d="M104,-175.8C104,-164.16 104,-148.55 104,-135.24"/>
<polygon fill="black" stroke="black" points="107.5,-135.18 104,-125.18 100.5,-135.18 107.5,-135.18"/>
</g>
<!-- p0x7bc4000144b8 -->
<g id="node3" class="node">
<title>p0x7bc4000144b8</title>
<ellipse fill="none" stroke="black" cx="104" cy="-34" rx="87.99" ry="18"/>
<text text-anchor="middle" x="104" y="-30.3" font-family="Times,serif" font-size="14.00">pipeline stopped</text>
</g>
<!-- p0x7bc4000143d0&#45;&gt;p0x7bc4000144b8 -->
<g id="edge2" class="edge">
<title>p0x7bc4000143d0&#45;&gt;p0x7bc4000144b8</title>
<path fill="none" stroke="black" d="M104,-88.81C104,-80.79 104,-71.05 104,-62.07"/>
<polygon fill="black" stroke="black" points="107.5,-62.03 104,-52.03 100.5,-62.03 107.5,-62.03"/>
</g>
<!-- p0x7bc400014030 -->
<g id="node4" class="node">
<title>p0x7bc400014030</title>
<polygon fill="aquamarine" stroke="black" points="269,-212 223.08,-194 269,-176 314.92,-194 269,-212"/>
<text text-anchor="middle" x="269" y="-190.3" font-family="Times,serif" font-size="14.00">cond</text>
</g>
<!-- p0x7bc400014118 -->
<g id="node5" class="node">
<title>p0x7bc400014118</title>
<polygon fill="none" stroke="black" points="270,-125 216,-125 216,-121 212,-121 212,-117 216,-117 216,-97 212,-97 212,-93 216,-93 216,-89 270,-89 270,-125"/>
<polyline fill="none" stroke="black" points="216,-121 220,-121 220,-117 216,-117 "/>
<polyline fill="none" stroke="black" points="216,-97 220,-97 220,-93 216,-93 "/>
<text text-anchor="middle" x="243" y="-103.3" font-family="Times,serif" font-size="14.00">rt&#45;0</text>
</g>
<!-- p0x7bc400014030&#45;&gt;p0x7bc400014118 -->
<g id="edge3" class="edge">
<title>p0x7bc400014030&#45;&gt;p0x7bc400014118</title>
<path fill="none" stroke="black" stroke-dasharray="5,2" d="M264.35,-177.8C260.71,-165.89 255.55,-149.02 251.21,-134.84"/>
<polygon fill="black" stroke="black" points="254.51,-133.65 248.23,-125.11 247.81,-135.7 254.51,-133.65"/>
<text text-anchor="middle" x="262" y="-146.8" font-family="Times,serif" font-size="14.00">0</text>
</g>
<!-- p0x7bc400014200 -->
<g id="node6" class="node">
<title>p0x7bc400014200</title>
<polygon fill="none" stroke="black" points="342,-125 288,-125 288,-121 284,-121 284,-117 288,-117 288,-97 284,-97 284,-93 288,-93 288,-89 342,-89 342,-125"/>
<polyline fill="none" stroke="black" points="288,-121 292,-121 292,-117 288,-117 "/>
<polyline fill="none" stroke="black" points="288,-97 292,-97 292,-93 288,-93 "/>
<text text-anchor="middle" x="315" y="-103.3" font-family="Times,serif" font-size="14.00">rt&#45;1</text>
</g>
<!-- p0x7bc400014030&#45;&gt;p0x7bc400014200 -->
<g id="edge4" class="edge">
<title>p0x7bc400014030&#45;&gt;p0x7bc400014200</title>
<path fill="none" stroke="black" stroke-dasharray="5,2" d="M276.6,-178.96C283.13,-166.9 292.72,-149.16 300.69,-134.44"/>
<polygon fill="black" stroke="black" points="303.96,-135.75 305.64,-125.29 297.8,-132.42 303.96,-135.75"/>
<text text-anchor="middle" x="299" y="-146.8" font-family="Times,serif" font-size="14.00">1</text>
</g>
</g>
</svg>
