<?xml version="1.0" encoding="UTF-8" standalone="no"?>
<!DOCTYPE svg PUBLIC "-//W3C//DTD SVG 1.1//EN"
 "http://www.w3.org/Graphics/SVG/1.1/DTD/svg11.dtd">
<!-- Generated by graphviz version 12.2.1 (20241206.2353)
 -->
<!-- Title: Fibonacci Pages: 1 -->
<svg width="440pt" height="280pt"
 viewBox="0.00 0.00 440.00 280.00" xmlns="http://www.w3.org/2000/svg" xmlns:xlink="http://www.w3.org/1999/xlink">
<g id="graph0" class="graph" transform="scale(1 1) rotate(0) translate(4 276)">
<title>Fibonacci</title>
<polygon fill="white" stroke="none" points="-4,4 -4,-276 436,-276 436,4 -4,4"/>
<!-- F4 -->
<g id="node1" class="node">
<title>F4</title>
<polygon fill="none" stroke="black" points="282,-272 200,-272 200,-231 282,-231 282,-272"/>
<text text-anchor="middle" x="241" y="-254.7" font-family="Times,serif" font-size="14.00">fibonacci(4)</text>
<text text-anchor="middle" x="241" y="-238.2" font-family="Times,serif" font-size="14.00">[rt]</text>
</g>
<!-- F3_1 -->
<g id="node2" class="node">
<title>F3_1</title>
<polygon fill="none" stroke="black" points="232,-195 150,-195 150,-154 232,-154 232,-195"/>
<text text-anchor="middle" x="191" y="-177.7" font-family="Times,serif" font-size="14.00">fibonacci(3)</text>
<text text-anchor="middle" x="191" y="-161.2" font-family="Times,serif" font-size="14.00">[rt1]</text>
</g>
<!-- F4&#45;&gt;F3_1 -->
<g id="edge1" class="edge">
<title>F4&#45;&gt;F3_1</title>
<path fill="none" stroke="black" d="M227.86,-230.79C222.57,-222.85 216.34,-213.51 210.53,-204.8"/>
<polygon fill="black" stroke="black" points="213.52,-202.97 205.06,-196.59 207.7,-206.86 213.52,-202.97"/>
</g>
<!-- F2_2 -->
<g id="node7" class="node">
<title>F2_2</title>
<polygon fill="none" stroke="black" points="332,-195 250,-195 250,-154 332,-154 332,-195"/>
<text text-anchor="middle" x="291" y="-177.7" font-family="Times,serif" font-size="14.00">fibonacci(2)</text>
<text text-anchor="middle" x="291" y="-161.2" font-family="Times,serif" font-size="14.00">[rt2]</text>
</g>
<!-- F4&#45;&gt;F2_2 -->
<g id="edge2" class="edge">
<title>F4&#45;&gt;F2_2</title>
<path fill="none" stroke="black" d="M254.14,-230.79C259.43,-222.85 265.66,-213.51 271.47,-204.8"/>
<polygon fill="black" stroke="black" points="274.3,-206.86 276.94,-196.59 268.48,-202.97 274.3,-206.86"/>
</g>
<!-- F2_1 -->
<g id="node3" class="node">
<title>F2_1</title>
<polygon fill="none" stroke="black" points="132,-118 50,-118 50,-77 132,-77 132,-118"/>
<text text-anchor="middle" x="91" y="-100.7" font-family="Times,serif" font-size="14.00">fibonacci(2)</text>
<text text-anchor="middle" x="91" y="-84.2" font-family="Times,serif" font-size="14.00">[rt1_1]</text>
</g>
<!-- F3_1&#45;&gt;F2_1 -->
<g id="edge3" class="edge">
<title>F3_1&#45;&gt;F2_1</title>
<path fill="none" stroke="black" d="M164.46,-153.6C152.94,-144.95 139.26,-134.69 126.85,-125.39"/>
<polygon fill="black" stroke="black" points="128.97,-122.6 118.87,-119.4 124.77,-128.2 128.97,-122.6"/>
</g>
<!-- F1_2 -->
<g id="node6" class="node">
<title>F1_2</title>
<polygon fill="none" stroke="black" points="232,-118 150,-118 150,-77 232,-77 232,-118"/>
<text text-anchor="middle" x="191" y="-100.7" font-family="Times,serif" font-size="14.00">fibonacci(1)</text>
<text text-anchor="middle" x="191" y="-84.2" font-family="Times,serif" font-size="14.00">[rt1_2]</text>
</g>
<!-- F3_1&#45;&gt;F1_2 -->
<g id="edge4" class="edge">
<title>F3_1&#45;&gt;F1_2</title>
<path fill="none" stroke="black" d="M191,-153.79C191,-146.45 191,-137.91 191,-129.78"/>
<polygon fill="black" stroke="black" points="194.5,-129.85 191,-119.85 187.5,-129.85 194.5,-129.85"/>
</g>
<!-- F1_1 -->
<g id="node4" class="node">
<title>F1_1</title>
<polygon fill="none" stroke="black" points="82,-41 0,-41 0,0 82,0 82,-41"/>
<text text-anchor="middle" x="41" y="-23.7" font-family="Times,serif" font-size="14.00">fibonacci(1)</text>
<text text-anchor="middle" x="41" y="-7.2" font-family="Times,serif" font-size="14.00">[rt1_1_1]</text>
</g>
<!-- F2_1&#45;&gt;F1_1 -->
<g id="edge5" class="edge">
<title>F2_1&#45;&gt;F1_1</title>
<path fill="none" stroke="black" d="M77.86,-76.79C72.57,-68.85 66.34,-59.51 60.53,-50.8"/>
<polygon fill="black" stroke="black" points="63.52,-48.97 55.06,-42.59 57.7,-52.86 63.52,-48.97"/>
</g>
<!-- F0_1 -->
<g id="node5" class="node">
<title>F0_1</title>
<polygon fill="none" stroke="black" points="182,-41 100,-41 100,0 182,0 182,-41"/>
<text text-anchor="middle" x="141" y="-23.7" font-family="Times,serif" font-size="14.00">fibonacci(0)</text>
<text text-anchor="middle" x="141" y="-7.2" font-family="Times,serif" font-size="14.00">[rt1_1_2]</text>
</g>
<!-- F2_1&#45;&gt;F0_1 -->
<g id="edge6" class="edge">
<title>F2_1&#45;&gt;F0_1</title>
<path fill="none" stroke="black" d="M104.14,-76.79C109.43,-68.85 115.66,-59.51 121.47,-50.8"/>
<polygon fill="black" stroke="black" points="124.3,-52.86 126.94,-42.59 118.48,-48.97 124.3,-52.86"/>
</g>
<!-- F1_3 -->
<g id="node8" class="node">
<title>F1_3</title>
<polygon fill="none" stroke="black" points="332,-118 250,-118 250,-77 332,-77 332,-118"/>
<text text-anchor="middle" x="291" y="-100.7" font-family="Times,serif" font-size="14.00">fibonacci(1)</text>
<text text-anchor="middle" x="291" y="-84.2" font-family="Times,serif" font-size="14.00">[rt2_1]</text>
</g>
<!-- F2_2&#45;&gt;F1_3 -->
<g id="edge7" class="edge">
<title>F2_2&#45;&gt;F1_3</title>
<path fill="none" stroke="black" d="M291,-153.79C291,-146.45 291,-137.91 291,-129.78"/>
<polygon fill="black" stroke="black" points="294.5,-129.85 291,-119.85 287.5,-129.85 294.5,-129.85"/>
</g>
<!-- F0_2 -->
<g id="node9" class="node">
<title>F0_2</title>
<polygon fill="none" stroke="black" points="432,-118 350,-118 350,-77 432,-77 432,-118"/>
<text text-anchor="middle" x="391" y="-100.7" font-family="Times,serif" font-size="14.00">fibonacci(0)</text>
<text text-anchor="middle" x="391" y="-84.2" font-family="Times,serif" font-size="14.00">[rt2_2]</text>
</g>
<!-- F2_2&#45;&gt;F0_2 -->
<g id="edge8" class="edge">
<title>F2_2&#45;&gt;F0_2</title>
<path fill="none" stroke="black" d="M317.54,-153.6C329.06,-144.95 342.74,-134.69 355.15,-125.39"/>
<polygon fill="black" stroke="black" points="357.23,-128.2 363.13,-119.4 353.03,-122.6 357.23,-128.2"/>
</g>
</g>
</svg>
