<?xml version="1.0" encoding="UTF-8" standalone="no"?>
<!DOCTYPE svg PUBLIC "-//W3C//DTD SVG 1.1//EN"
 "http://www.w3.org/Graphics/SVG/1.1/DTD/svg11.dtd">
<!-- Generated by graphviz version 12.2.1 (20241206.2353)
 -->
<!-- Title: Taskflow Pages: 1 -->
<svg width="206pt" height="133pt"
 viewBox="0.00 0.00 206.00 132.50" xmlns="http://www.w3.org/2000/svg" xmlns:xlink="http://www.w3.org/1999/xlink">
<g id="graph0" class="graph" transform="scale(1 1) rotate(0) translate(4 128.5)">
<title>Taskflow</title>
<polygon fill="white" stroke="none" points="-4,4 -4,-128.5 202,-128.5 202,4 -4,4"/>
<!-- p0x7bc400014030 -->
<g id="node1" class="node">
<title>p0x7bc400014030</title>
<polygon fill="aquamarine" stroke="black" points="99,-124.5 72,-106.5 99,-88.5 126,-106.5 99,-124.5"/>
<text text-anchor="middle" x="99" y="-101.45" font-family="Times,serif" font-size="14.00">A</text>
</g>
<!-- p0x7bc400014118 -->
<g id="node2" class="node">
<title>p0x7bc400014118</title>
<ellipse fill="none" stroke="black" cx="27" cy="-18" rx="27" ry="18"/>
<text text-anchor="middle" x="27" y="-12.95" font-family="Times,serif" font-size="14.00">B</text>
</g>
<!-- p0x7bc400014030&#45;&gt;p0x7bc400014118 -->
<g id="edge1" class="edge">
<title>p0x7bc400014030&#45;&gt;p0x7bc400014118</title>
<path fill="none" stroke="black" stroke-dasharray="5,2" d="M89.59,-94.19C78.78,-81.21 60.75,-59.55 46.81,-42.8"/>
<polygon fill="black" stroke="black" points="49.62,-40.7 40.53,-35.26 44.24,-45.18 49.62,-40.7"/>
<text text-anchor="middle" x="72.82" y="-57.2" font-family="Times,serif" font-size="14.00">0</text>
</g>
<!-- p0x7bc400014200 -->
<g id="node3" class="node">
<title>p0x7bc400014200</title>
<ellipse fill="none" stroke="black" cx="99" cy="-18" rx="27" ry="18"/>
<text text-anchor="middle" x="99" y="-12.95" font-family="Times,serif" font-size="14.00">C</text>
</g>
<!-- p0x7bc400014030&#45;&gt;p0x7bc400014200 -->
<g id="edge2" class="edge">
<title>p0x7bc400014030&#45;&gt;p0x7bc400014200</title>
<path fill="none" stroke="black" stroke-dasharray="5,2" d="M99,-88C99,-76.51 99,-61.2 99,-47.93"/>
<polygon fill="black" stroke="black" points="102.5,-47.99 99,-37.99 95.5,-47.99 102.5,-47.99"/>
<text text-anchor="middle" x="102.38" y="-57.2" font-family="Times,serif" font-size="14.00">1</text>
</g>
<!-- p0x7bc4000142e8 -->
<g id="node4" class="node">
<title>p0x7bc4000142e8</title>
<ellipse fill="none" stroke="black" cx="171" cy="-18" rx="27" ry="18"/>
<text text-anchor="middle" x="171" y="-12.95" font-family="Times,serif" font-size="14.00">D</text>
</g>
<!-- p0x7bc400014030&#45;&gt;p0x7bc4000142e8 -->
<g id="edge3" class="edge">
<title>p0x7bc400014030&#45;&gt;p0x7bc4000142e8</title>
<path fill="none" stroke="black" stroke-dasharray="5,2" d="M108.41,-94.19C119.22,-81.21 137.25,-59.55 151.19,-42.8"/>
<polygon fill="black" stroke="black" points="153.76,-45.18 157.47,-35.26 148.38,-40.7 153.76,-45.18"/>
<text text-anchor="middle" x="144.82" y="-57.2" font-family="Times,serif" font-size="14.00">2</text>
</g>
</g>
</svg>
