<?xml version="1.0" encoding="UTF-8" standalone="no"?>
<!DOCTYPE svg PUBLIC "-//W3C//DTD SVG 1.1//EN"
 "http://www.w3.org/Graphics/SVG/1.1/DTD/svg11.dtd">
<!-- Generated by graphviz version 2.43.0 (0)
 -->
<!-- Title: Fibonacci Pages: 1 -->
<svg width="516pt" height="268pt"
 viewBox="0.00 0.00 516.00 268.00" xmlns="http://www.w3.org/2000/svg" xmlns:xlink="http://www.w3.org/1999/xlink">
<g id="graph0" class="graph" transform="scale(1 1) rotate(0) translate(4 264)">
<title>Fibonacci</title>
<polygon fill="white" stroke="transparent" points="-4,4 -4,-264 512,-264 512,4 -4,4"/>
<!-- F4 -->
<g id="node1" class="node">
<title>F4</title>
<polygon fill="none" stroke="black" points="332,-260 233,-260 233,-222 332,-222 332,-260"/>
<text text-anchor="middle" x="282.5" y="-244.8" font-family="Times,serif" font-size="14.00">fibonacci(4)</text>
<text text-anchor="middle" x="282.5" y="-229.8" font-family="Times,serif" font-size="14.00">[rt]</text>
</g>
<!-- F3_1 -->
<g id="node2" class="node">
<title>F3_1</title>
<polygon fill="none" stroke="black" points="274,-186 175,-186 175,-148 274,-148 274,-186"/>
<text text-anchor="middle" x="224.5" y="-170.8" font-family="Times,serif" font-size="14.00">fibonacci(3)</text>
<text text-anchor="middle" x="224.5" y="-155.8" font-family="Times,serif" font-size="14.00">[rt1]</text>
</g>
<!-- F4&#45;&gt;F3_1 -->
<g id="edge1" class="edge">
<title>F4&#45;&gt;F3_1</title>
<path fill="none" stroke="black" d="M267.86,-221.83C261.18,-213.54 253.14,-203.56 245.81,-194.45"/>
<polygon fill="black" stroke="black" points="248.33,-192.01 239.33,-186.41 242.88,-196.4 248.33,-192.01"/>
</g>
<!-- F2_2 -->
<g id="node7" class="node">
<title>F2_2</title>
<polygon fill="none" stroke="black" points="391,-186 292,-186 292,-148 391,-148 391,-186"/>
<text text-anchor="middle" x="341.5" y="-170.8" font-family="Times,serif" font-size="14.00">fibonacci(2)</text>
<text text-anchor="middle" x="341.5" y="-155.8" font-family="Times,serif" font-size="14.00">[rt]</text>
</g>
<!-- F4&#45;&gt;F2_2 -->
<g id="edge2" class="edge">
<title>F4&#45;&gt;F2_2</title>
<path fill="none" stroke="black" d="M297.39,-221.83C304.25,-213.45 312.53,-203.35 320.05,-194.17"/>
<polygon fill="black" stroke="black" points="322.78,-196.37 326.41,-186.41 317.37,-191.93 322.78,-196.37"/>
</g>
<!-- F2_1 -->
<g id="node3" class="node">
<title>F2_1</title>
<polygon fill="none" stroke="black" points="157,-112 58,-112 58,-74 157,-74 157,-112"/>
<text text-anchor="middle" x="107.5" y="-96.8" font-family="Times,serif" font-size="14.00">fibonacci(2)</text>
<text text-anchor="middle" x="107.5" y="-81.8" font-family="Times,serif" font-size="14.00">[rt1_1]</text>
</g>
<!-- F3_1&#45;&gt;F2_1 -->
<g id="edge3" class="edge">
<title>F3_1&#45;&gt;F2_1</title>
<path fill="none" stroke="black" d="M194.98,-147.83C180.01,-138.62 161.66,-127.33 145.64,-117.47"/>
<polygon fill="black" stroke="black" points="147.37,-114.42 137.01,-112.16 143.7,-120.38 147.37,-114.42"/>
</g>
<!-- F1_2 -->
<g id="node6" class="node">
<title>F1_2</title>
<polygon fill="none" stroke="black" points="274,-112 175,-112 175,-74 274,-74 274,-112"/>
<text text-anchor="middle" x="224.5" y="-96.8" font-family="Times,serif" font-size="14.00">fibonacci(1)</text>
<text text-anchor="middle" x="224.5" y="-81.8" font-family="Times,serif" font-size="14.00">[rt1]</text>
</g>
<!-- F3_1&#45;&gt;F1_2 -->
<g id="edge4" class="edge">
<title>F3_1&#45;&gt;F1_2</title>
<path fill="none" stroke="black" d="M224.5,-147.83C224.5,-140.13 224.5,-130.97 224.5,-122.42"/>
<polygon fill="black" stroke="black" points="228,-122.41 224.5,-112.41 221,-122.41 228,-122.41"/>
</g>
<!-- F1_1 -->
<g id="node4" class="node">
<title>F1_1</title>
<polygon fill="none" stroke="black" points="99,-38 0,-38 0,0 99,0 99,-38"/>
<text text-anchor="middle" x="49.5" y="-22.8" font-family="Times,serif" font-size="14.00">fibonacci(1)</text>
<text text-anchor="middle" x="49.5" y="-7.8" font-family="Times,serif" font-size="14.00">[rt1_1_1]</text>
</g>
<!-- F2_1&#45;&gt;F1_1 -->
<g id="edge5" class="edge">
<title>F2_1&#45;&gt;F1_1</title>
<path fill="none" stroke="black" d="M92.86,-73.83C86.18,-65.54 78.14,-55.56 70.81,-46.45"/>
<polygon fill="black" stroke="black" points="73.33,-44.01 64.33,-38.41 67.88,-48.4 73.33,-44.01"/>
</g>
<!-- F0_1 -->
<g id="node5" class="node">
<title>F0_1</title>
<polygon fill="none" stroke="black" points="216,-38 117,-38 117,0 216,0 216,-38"/>
<text text-anchor="middle" x="166.5" y="-22.8" font-family="Times,serif" font-size="14.00">fibonacci(0)</text>
<text text-anchor="middle" x="166.5" y="-7.8" font-family="Times,serif" font-size="14.00">[rt1_1]</text>
</g>
<!-- F2_1&#45;&gt;F0_1 -->
<g id="edge6" class="edge">
<title>F2_1&#45;&gt;F0_1</title>
<path fill="none" stroke="black" d="M122.39,-73.83C129.25,-65.45 137.53,-55.35 145.05,-46.17"/>
<polygon fill="black" stroke="black" points="147.78,-48.37 151.41,-38.41 142.37,-43.93 147.78,-48.37"/>
</g>
<!-- F1_3 -->
<g id="node8" class="node">
<title>F1_3</title>
<polygon fill="none" stroke="black" points="391,-112 292,-112 292,-74 391,-74 391,-112"/>
<text text-anchor="middle" x="341.5" y="-96.8" font-family="Times,serif" font-size="14.00">fibonacci(1)</text>
<text text-anchor="middle" x="341.5" y="-81.8" font-family="Times,serif" font-size="14.00">[rt1]</text>
</g>
<!-- F2_2&#45;&gt;F1_3 -->
<g id="edge7" class="edge">
<title>F2_2&#45;&gt;F1_3</title>
<path fill="none" stroke="black" d="M341.5,-147.83C341.5,-140.13 341.5,-130.97 341.5,-122.42"/>
<polygon fill="black" stroke="black" points="345,-122.41 341.5,-112.41 338,-122.41 345,-122.41"/>
</g>
<!-- F0_2 -->
<g id="node9" class="node">
<title>F0_2</title>
<polygon fill="none" stroke="black" points="508,-112 409,-112 409,-74 508,-74 508,-112"/>
<text text-anchor="middle" x="458.5" y="-96.8" font-family="Times,serif" font-size="14.00">fibonacci(0)</text>
<text text-anchor="middle" x="458.5" y="-81.8" font-family="Times,serif" font-size="14.00">[rt]</text>
</g>
<!-- F2_2&#45;&gt;F0_2 -->
<g id="edge8" class="edge">
<title>F2_2&#45;&gt;F0_2</title>
<path fill="none" stroke="black" d="M371.02,-147.83C385.99,-138.62 404.34,-127.33 420.36,-117.47"/>
<polygon fill="black" stroke="black" points="422.3,-120.38 428.99,-112.16 418.63,-114.42 422.3,-120.38"/>
</g>
</g>
</svg>
