<?xml version="1.0" encoding="UTF-8" standalone="no"?>
<!DOCTYPE svg PUBLIC "-//W3C//DTD SVG 1.1//EN"
 "http://www.w3.org/Graphics/SVG/1.1/DTD/svg11.dtd">
<!-- Generated by graphviz version 2.43.0 (0)
 -->
<!-- Title: Taskflow Pages: 1 -->
<svg width="242pt" height="260pt"
 viewBox="0.00 0.00 242.39 260.00" xmlns="http://www.w3.org/2000/svg" xmlns:xlink="http://www.w3.org/1999/xlink">
<g id="graph0" class="graph" transform="scale(1 1) rotate(0) translate(4 256)">
<title>Taskflow</title>
<polygon fill="white" stroke="transparent" points="-4,4 -4,-256 238.39,-256 238.39,4 -4,4"/>
<!-- Task1 -->
<g id="node1" class="node">
<title>Task1</title>
<ellipse fill="none" stroke="black" cx="130.7" cy="-234" rx="37.89" ry="18"/>
<text text-anchor="middle" x="130.7" y="-230.3" font-family="Times,serif" font-size="14.00">Task1</text>
</g>
<!-- Task2 -->
<g id="node2" class="node">
<title>Task2</title>
<ellipse fill="none" stroke="black" cx="37.7" cy="-162" rx="37.89" ry="18"/>
<text text-anchor="middle" x="37.7" y="-158.3" font-family="Times,serif" font-size="14.00">Task2</text>
</g>
<!-- Task1&#45;&gt;Task2 -->
<g id="edge1" class="edge">
<title>Task1&#45;&gt;Task2</title>
<path fill="none" stroke="black" d="M111.43,-218.5C98.08,-208.45 80.12,-194.93 65.27,-183.75"/>
<polygon fill="black" stroke="black" points="67.04,-180.7 56.94,-177.49 62.83,-186.3 67.04,-180.7"/>
</g>
<!-- Task3 -->
<g id="node3" class="node">
<title>Task3</title>
<ellipse fill="none" stroke="black" cx="130.7" cy="-162" rx="37.89" ry="18"/>
<text text-anchor="middle" x="130.7" y="-158.3" font-family="Times,serif" font-size="14.00">Task3</text>
</g>
<!-- Task1&#45;&gt;Task3 -->
<g id="edge2" class="edge">
<title>Task1&#45;&gt;Task3</title>
<path fill="none" stroke="black" d="M130.7,-215.7C130.7,-207.98 130.7,-198.71 130.7,-190.11"/>
<polygon fill="black" stroke="black" points="134.2,-190.1 130.7,-180.1 127.2,-190.1 134.2,-190.1"/>
</g>
<!-- Task4 -->
<g id="node4" class="node">
<title>Task4</title>
<ellipse fill="none" stroke="black" cx="196.7" cy="-90" rx="37.89" ry="18"/>
<text text-anchor="middle" x="196.7" y="-86.3" font-family="Times,serif" font-size="14.00">Task4</text>
</g>
<!-- Task1&#45;&gt;Task4 -->
<g id="edge3" class="edge">
<title>Task1&#45;&gt;Task4</title>
<path fill="none" stroke="black" d="M147.94,-217.94C158.11,-208.13 170.38,-194.49 177.7,-180 187.47,-160.67 192.22,-136.52 194.53,-118.25"/>
<polygon fill="black" stroke="black" points="198.01,-118.58 195.63,-108.26 191.06,-117.82 198.01,-118.58"/>
</g>
<!-- Task5 -->
<g id="node5" class="node">
<title>Task5</title>
<ellipse fill="none" stroke="black" cx="103.7" cy="-90" rx="37.89" ry="18"/>
<text text-anchor="middle" x="103.7" y="-86.3" font-family="Times,serif" font-size="14.00">Task5</text>
</g>
<!-- Task2&#45;&gt;Task5 -->
<g id="edge4" class="edge">
<title>Task2&#45;&gt;Task5</title>
<path fill="none" stroke="black" d="M52.67,-145.12C61.28,-135.99 72.25,-124.36 81.81,-114.22"/>
<polygon fill="black" stroke="black" points="84.47,-116.5 88.78,-106.82 79.37,-111.7 84.47,-116.5"/>
</g>
<!-- Task3&#45;&gt;Task5 -->
<g id="edge5" class="edge">
<title>Task3&#45;&gt;Task5</title>
<path fill="none" stroke="black" d="M124.16,-144.05C121.08,-136.06 117.32,-126.33 113.88,-117.4"/>
<polygon fill="black" stroke="black" points="117.04,-115.86 110.17,-107.79 110.51,-118.38 117.04,-115.86"/>
</g>
<!-- Task6 -->
<g id="node6" class="node">
<title>Task6</title>
<ellipse fill="none" stroke="black" cx="149.7" cy="-18" rx="37.89" ry="18"/>
<text text-anchor="middle" x="149.7" y="-14.3" font-family="Times,serif" font-size="14.00">Task6</text>
</g>
<!-- Task4&#45;&gt;Task6 -->
<g id="edge6" class="edge">
<title>Task4&#45;&gt;Task6</title>
<path fill="none" stroke="black" d="M185.8,-72.76C180.07,-64.23 172.92,-53.58 166.5,-44.02"/>
<polygon fill="black" stroke="black" points="169.34,-41.98 160.86,-35.63 163.53,-45.89 169.34,-41.98"/>
</g>
<!-- Task5&#45;&gt;Task6 -->
<g id="edge7" class="edge">
<title>Task5&#45;&gt;Task6</title>
<path fill="none" stroke="black" d="M114.6,-72.41C120.15,-63.95 127.03,-53.49 133.22,-44.08"/>
<polygon fill="black" stroke="black" points="136.31,-45.75 138.87,-35.47 130.46,-41.9 136.31,-45.75"/>
</g>
</g>
</svg>
