<?xml version="1.0" encoding="UTF-8" standalone="no"?>
<!DOCTYPE svg PUBLIC "-//W3C//DTD SVG 1.1//EN"
 "http://www.w3.org/Graphics/SVG/1.1/DTD/svg11.dtd">
<!-- Generated by graphviz version 2.43.0 (0)
 -->
<!-- Title: Taskflow Pages: 1 -->
<svg width="449pt" height="552pt"
 viewBox="0.00 0.00 449.10 552.00" xmlns="http://www.w3.org/2000/svg" xmlns:xlink="http://www.w3.org/1999/xlink">
<g id="graph0" class="graph" transform="scale(1 1) rotate(0) translate(4 548)">
<title>Taskflow</title>
<polygon fill="white" stroke="transparent" points="-4,4 -4,-548 445.1,-548 445.1,4 -4,4"/>
<!-- p0x7fca00803e30 -->
<g id="node1" class="node">
<title>p0x7fca00803e30</title>
<ellipse fill="none" stroke="black" cx="240.05" cy="-526" rx="27" ry="18"/>
<text text-anchor="middle" x="240.05" y="-522.3" font-family="Times,serif" font-size="14.00">init</text>
</g>
<!-- p0x7fca00803f50 -->
<g id="node2" class="node">
<title>p0x7fca00803f50</title>
<polygon fill="aquamarine" stroke="black" points="240.05,-471 160.95,-453 240.05,-435 319.14,-453 240.05,-471"/>
<text text-anchor="middle" x="240.05" y="-449.3" font-family="Times,serif" font-size="14.00">flip&#45;coin&#45;1</text>
</g>
<!-- p0x7fca00803e30&#45;&gt;p0x7fca00803f50 -->
<g id="edge1" class="edge">
<title>p0x7fca00803e30&#45;&gt;p0x7fca00803f50</title>
<path fill="none" stroke="black" d="M240.05,-507.81C240.05,-499.79 240.05,-490.05 240.05,-481.07"/>
<polygon fill="black" stroke="black" points="243.55,-481.03 240.05,-471.03 236.55,-481.03 243.55,-481.03"/>
</g>
<!-- p0x7fca00803f50&#45;&gt;p0x7fca00803f50 -->
<g id="edge3" class="edge">
<title>p0x7fca00803f50&#45;&gt;p0x7fca00803f50</title>
<path fill="none" stroke="black" stroke-dasharray="5,2" d="M304.44,-456.36C322.88,-456.23 337.1,-455.11 337.1,-453 337.1,-451.3 327.89,-450.25 314.69,-449.83"/>
<polygon fill="black" stroke="black" points="314.51,-446.32 304.44,-449.64 314.38,-453.32 314.51,-446.32"/>
<text text-anchor="middle" x="342.1" y="-449.3" font-family="Times,serif" font-size="14.00">1</text>
</g>
<!-- p0x7fca00803f50&#45;&gt;p0x7fca00803f50 -->
<g id="edge4" class="edge">
<title>p0x7fca00803f50&#45;&gt;p0x7fca00803f50</title>
<path fill="none" stroke="black" stroke-dasharray="5,2" d="M291.81,-459.26C324.19,-460.8 355.1,-458.71 355.1,-453 355.1,-447.89 330.37,-445.68 301.97,-446.37"/>
<polygon fill="black" stroke="black" points="301.68,-442.88 291.81,-446.74 301.93,-449.88 301.68,-442.88"/>
<text text-anchor="middle" x="360.1" y="-449.3" font-family="Times,serif" font-size="14.00">2</text>
</g>
<!-- p0x7fca00804070 -->
<g id="node3" class="node">
<title>p0x7fca00804070</title>
<polygon fill="aquamarine" stroke="black" points="79.05,-384 -0.05,-366 79.05,-348 158.14,-366 79.05,-384"/>
<text text-anchor="middle" x="79.05" y="-362.3" font-family="Times,serif" font-size="14.00">flip&#45;coin&#45;2</text>
</g>
<!-- p0x7fca00803f50&#45;&gt;p0x7fca00804070 -->
<g id="edge2" class="edge">
<title>p0x7fca00803f50&#45;&gt;p0x7fca00804070</title>
<path fill="none" stroke="black" stroke-dasharray="5,2" d="M174.19,-449.98C146.7,-445.92 116.29,-436.75 95.05,-417 88.59,-411 84.73,-402.4 82.43,-394.02"/>
<polygon fill="black" stroke="black" points="85.82,-393.15 80.31,-384.1 78.97,-394.61 85.82,-393.15"/>
<text text-anchor="middle" x="100.05" y="-405.8" font-family="Times,serif" font-size="14.00">0</text>
</g>
<!-- p0x7fca00804070&#45;&gt;p0x7fca00803f50 -->
<g id="edge6" class="edge">
<title>p0x7fca00804070&#45;&gt;p0x7fca00803f50</title>
<path fill="none" stroke="black" stroke-dasharray="5,2" d="M91.77,-381.5C102.18,-392.57 117.78,-407.5 134.05,-417 152.01,-427.48 173.53,-435.33 192.48,-440.9"/>
<polygon fill="black" stroke="black" points="191.55,-444.28 202.12,-443.61 193.44,-437.54 191.55,-444.28"/>
<text text-anchor="middle" x="139.05" y="-405.8" font-family="Times,serif" font-size="14.00">1</text>
</g>
<!-- p0x7fca00804070&#45;&gt;p0x7fca00803f50 -->
<g id="edge7" class="edge">
<title>p0x7fca00804070&#45;&gt;p0x7fca00803f50</title>
<path fill="none" stroke="black" stroke-dasharray="5,2" d="M101.7,-378.99C114.23,-385.67 130.05,-394.2 144.05,-402 155.7,-408.5 158.3,-410.68 170.05,-417 181.94,-423.4 195.16,-430.11 206.87,-435.92"/>
<polygon fill="black" stroke="black" points="205.37,-439.08 215.89,-440.36 208.47,-432.8 205.37,-439.08"/>
<text text-anchor="middle" x="175.05" y="-405.8" font-family="Times,serif" font-size="14.00">2</text>
</g>
<!-- p0x7fca00804190 -->
<g id="node4" class="node">
<title>p0x7fca00804190</title>
<polygon fill="aquamarine" stroke="black" points="171.05,-297 91.95,-279 171.05,-261 250.14,-279 171.05,-297"/>
<text text-anchor="middle" x="171.05" y="-275.3" font-family="Times,serif" font-size="14.00">flip&#45;coin&#45;3</text>
</g>
<!-- p0x7fca00804070&#45;&gt;p0x7fca00804190 -->
<g id="edge5" class="edge">
<title>p0x7fca00804070&#45;&gt;p0x7fca00804190</title>
<path fill="none" stroke="black" stroke-dasharray="5,2" d="M93.83,-351.34C108.63,-337.67 131.59,-316.45 148.63,-300.71"/>
<polygon fill="black" stroke="black" points="151.03,-303.26 156,-293.91 146.28,-298.12 151.03,-303.26"/>
<text text-anchor="middle" x="135.05" y="-318.8" font-family="Times,serif" font-size="14.00">0</text>
</g>
<!-- p0x7fca00804190&#45;&gt;p0x7fca00803f50 -->
<g id="edge9" class="edge">
<title>p0x7fca00804190&#45;&gt;p0x7fca00803f50</title>
<path fill="none" stroke="black" stroke-dasharray="5,2" d="M176.21,-296.04C182.96,-316.63 195.42,-353.35 208.05,-384 214.07,-398.61 221.56,-414.62 227.77,-427.43"/>
<polygon fill="black" stroke="black" points="224.69,-429.09 232.24,-436.53 230.97,-426.01 224.69,-429.09"/>
<text text-anchor="middle" x="213.05" y="-362.3" font-family="Times,serif" font-size="14.00">1</text>
</g>
<!-- p0x7fca00804190&#45;&gt;p0x7fca00803f50 -->
<g id="edge10" class="edge">
<title>p0x7fca00804190&#45;&gt;p0x7fca00803f50</title>
<path fill="none" stroke="black" stroke-dasharray="5,2" d="M183.27,-294.27C188.38,-300.47 194.22,-307.93 199.05,-315 208.58,-328.98 212,-332.19 218.05,-348 227.75,-373.36 233.57,-403.93 236.76,-425.33"/>
<polygon fill="black" stroke="black" points="233.31,-425.91 238.16,-435.33 240.24,-424.94 233.31,-425.91"/>
<text text-anchor="middle" x="233.05" y="-362.3" font-family="Times,serif" font-size="14.00">2</text>
</g>
<!-- p0x7fca008042b0 -->
<g id="node5" class="node">
<title>p0x7fca008042b0</title>
<polygon fill="aquamarine" stroke="black" points="255.05,-210 175.95,-192 255.05,-174 334.14,-192 255.05,-210"/>
<text text-anchor="middle" x="255.05" y="-188.3" font-family="Times,serif" font-size="14.00">flip&#45;coin&#45;4</text>
</g>
<!-- p0x7fca00804190&#45;&gt;p0x7fca008042b0 -->
<g id="edge8" class="edge">
<title>p0x7fca00804190&#45;&gt;p0x7fca008042b0</title>
<path fill="none" stroke="black" stroke-dasharray="5,2" d="M184.92,-263.96C198.29,-250.43 218.71,-229.77 234.07,-214.22"/>
<polygon fill="black" stroke="black" points="236.62,-216.63 241.16,-207.06 231.64,-211.71 236.62,-216.63"/>
<text text-anchor="middle" x="223.05" y="-231.8" font-family="Times,serif" font-size="14.00">0</text>
</g>
<!-- p0x7fca008042b0&#45;&gt;p0x7fca00803f50 -->
<g id="edge12" class="edge">
<title>p0x7fca008042b0&#45;&gt;p0x7fca00803f50</title>
<path fill="none" stroke="black" stroke-dasharray="5,2" d="M256.31,-209.75C257.28,-223.51 258.53,-243.51 259.05,-261 261.09,-330.48 258.99,-348.36 248.05,-417 247.59,-419.89 247.03,-422.89 246.42,-425.87"/>
<polygon fill="black" stroke="black" points="242.99,-425.19 244.25,-435.71 249.82,-426.7 242.99,-425.19"/>
<text text-anchor="middle" x="264.05" y="-318.8" font-family="Times,serif" font-size="14.00">1</text>
</g>
<!-- p0x7fca008042b0&#45;&gt;p0x7fca00803f50 -->
<g id="edge13" class="edge">
<title>p0x7fca008042b0&#45;&gt;p0x7fca00803f50</title>
<path fill="none" stroke="black" stroke-dasharray="5,2" d="M263.49,-208.23C266.41,-214.22 269.36,-221.26 271.05,-228 287.84,-295.27 277.82,-315.22 269.05,-384 267.16,-398.79 268.59,-403.16 263.05,-417 261.44,-421.03 259.33,-425.07 257.04,-428.92"/>
<polygon fill="black" stroke="black" points="254.04,-427.11 251.53,-437.4 259.91,-430.92 254.04,-427.11"/>
<text text-anchor="middle" x="283.05" y="-318.8" font-family="Times,serif" font-size="14.00">2</text>
</g>
<!-- p0x7fca008043d0 -->
<g id="node6" class="node">
<title>p0x7fca008043d0</title>
<polygon fill="aquamarine" stroke="black" points="362.05,-123 282.95,-105 362.05,-87 441.14,-105 362.05,-123"/>
<text text-anchor="middle" x="362.05" y="-101.3" font-family="Times,serif" font-size="14.00">flip&#45;coin&#45;5</text>
</g>
<!-- p0x7fca008042b0&#45;&gt;p0x7fca008043d0 -->
<g id="edge11" class="edge">
<title>p0x7fca008042b0&#45;&gt;p0x7fca008043d0</title>
<path fill="none" stroke="black" stroke-dasharray="5,2" d="M271.77,-177.72C289.25,-163.83 316.9,-141.87 336.99,-125.9"/>
<polygon fill="black" stroke="black" points="339.44,-128.43 345.09,-119.47 335.09,-122.95 339.44,-128.43"/>
<text text-anchor="middle" x="319.05" y="-144.8" font-family="Times,serif" font-size="14.00">0</text>
</g>
<!-- p0x7fca008043d0&#45;&gt;p0x7fca00803f50 -->
<g id="edge15" class="edge">
<title>p0x7fca008043d0&#45;&gt;p0x7fca00803f50</title>
<path fill="none" stroke="black" stroke-dasharray="5,2" d="M362.05,-123.26C362.05,-140.43 362.05,-167.54 362.05,-191 362.05,-367 362.05,-367 362.05,-367 362.05,-405.46 320.72,-427.95 286.18,-440.02"/>
<polygon fill="black" stroke="black" points="285.06,-436.71 276.65,-443.16 287.24,-443.35 285.06,-436.71"/>
<text text-anchor="middle" x="367.05" y="-275.3" font-family="Times,serif" font-size="14.00">1</text>
</g>
<!-- p0x7fca008043d0&#45;&gt;p0x7fca00803f50 -->
<g id="edge16" class="edge">
<title>p0x7fca008043d0&#45;&gt;p0x7fca00803f50</title>
<path fill="none" stroke="black" stroke-dasharray="5,2" d="M375.35,-120.09C388.94,-136.01 408.05,-163.31 408.05,-191 408.05,-367 408.05,-367 408.05,-367 408.05,-415.67 351.21,-436.48 303.65,-445.37"/>
<polygon fill="black" stroke="black" points="302.93,-441.95 293.67,-447.1 304.12,-448.85 302.93,-441.95"/>
<text text-anchor="middle" x="413.05" y="-275.3" font-family="Times,serif" font-size="14.00">2</text>
</g>
<!-- p0x7fca008044f0 -->
<g id="node7" class="node">
<title>p0x7fca008044f0</title>
<ellipse fill="none" stroke="black" cx="362.05" cy="-18" rx="30.59" ry="18"/>
<text text-anchor="middle" x="362.05" y="-14.3" font-family="Times,serif" font-size="14.00">stop</text>
</g>
<!-- p0x7fca008043d0&#45;&gt;p0x7fca008044f0 -->
<g id="edge14" class="edge">
<title>p0x7fca008043d0&#45;&gt;p0x7fca008044f0</title>
<path fill="none" stroke="black" stroke-dasharray="5,2" d="M362.05,-86.8C362.05,-75.16 362.05,-59.55 362.05,-46.24"/>
<polygon fill="black" stroke="black" points="365.55,-46.18 362.05,-36.18 358.55,-46.18 365.55,-46.18"/>
<text text-anchor="middle" x="367.05" y="-57.8" font-family="Times,serif" font-size="14.00">0</text>
</g>
</g>
</svg>
