<?xml version="1.0" encoding="UTF-8" standalone="no"?>
<!DOCTYPE svg PUBLIC "-//W3C//DTD SVG 1.1//EN"
 "http://www.w3.org/Graphics/SVG/1.1/DTD/svg11.dtd">
<!-- Generated by graphviz version 12.2.1 (20241206.2353)
 -->
<!-- Title: Taskflow Pages: 1 -->
<svg width="330pt" height="245pt"
 viewBox="0.00 0.00 330.00 244.50" xmlns="http://www.w3.org/2000/svg" xmlns:xlink="http://www.w3.org/1999/xlink">
<g id="graph0" class="graph" transform="scale(1 1) rotate(0) translate(4 240.5)">
<title>Taskflow</title>
<polygon fill="white" stroke="none" points="-4,4 -4,-240.5 326,-240.5 326,4 -4,4"/>
<g id="clust1" class="cluster">
<title>cluster_p0x7ffeeb8ff970</title>
<polygon fill="none" stroke="black" points="8,-8 8,-228.5 164,-228.5 164,-8 8,-8"/>
<text text-anchor="middle" x="86" y="-211.2" font-family="Times,serif" font-size="14.00">Taskflow: f2</text>
</g>
<g id="clust2" class="cluster">
<title>cluster_p0x7ffeeb8ff8d0</title>
<polygon fill="none" stroke="black" points="172,-152 172,-228.5 314,-228.5 314,-152 172,-152"/>
<text text-anchor="middle" x="243" y="-211.2" font-family="Times,serif" font-size="14.00">Taskflow: f1</text>
</g>
<!-- p0x7ffb03813838 -->
<g id="node1" class="node">
<title>p0x7ffb03813838</title>
<ellipse fill="none" stroke="black" cx="86" cy="-34" rx="27" ry="18"/>
<text text-anchor="middle" x="86" y="-28.95" font-family="Times,serif" font-size="14.00">f2C</text>
</g>
<!-- p0x7ffb03813938 -->
<g id="node2" class="node">
<title>p0x7ffb03813938</title>
<ellipse fill="none" stroke="black" cx="50" cy="-178" rx="27" ry="18"/>
<text text-anchor="middle" x="50" y="-172.95" font-family="Times,serif" font-size="14.00">f2B</text>
</g>
<!-- p0x7ffb03813b38 -->
<g id="node3" class="node">
<title>p0x7ffb03813b38</title>
<polygon fill="none" stroke="blue" points="155.88,-124 20.12,-124 16.12,-120 16.12,-88 151.88,-88 155.88,-92 155.88,-124"/>
<polyline fill="none" stroke="blue" points="151.88,-120 16.12,-120"/>
<polyline fill="none" stroke="blue" points="151.88,-120 151.88,-88"/>
<polyline fill="none" stroke="blue" points="151.88,-120 155.88,-124"/>
<text text-anchor="middle" x="86" y="-100.95" font-family="Times,serif" font-size="14.00">module [Taskflow: f1]</text>
</g>
<!-- p0x7ffb03813938&#45;&gt;p0x7ffb03813b38 -->
<g id="edge1" class="edge">
<title>p0x7ffb03813938&#45;&gt;p0x7ffb03813b38</title>
<path fill="none" stroke="black" d="M58.35,-160.76C62.41,-152.87 67.4,-143.16 72.02,-134.18"/>
<polygon fill="black" stroke="black" points="75.04,-135.96 76.5,-125.47 68.82,-132.76 75.04,-135.96"/>
</g>
<!-- p0x7ffb03813b38&#45;&gt;p0x7ffb03813838 -->
<g id="edge3" class="edge">
<title>p0x7ffb03813b38&#45;&gt;p0x7ffb03813838</title>
<path fill="none" stroke="black" d="M86,-87.7C86,-80.41 86,-71.73 86,-63.54"/>
<polygon fill="black" stroke="black" points="89.5,-63.62 86,-53.62 82.5,-63.62 89.5,-63.62"/>
</g>
<!-- p0x7ffb03813a38 -->
<g id="node4" class="node">
<title>p0x7ffb03813a38</title>
<ellipse fill="none" stroke="black" cx="122" cy="-178" rx="27" ry="18"/>
<text text-anchor="middle" x="122" y="-172.95" font-family="Times,serif" font-size="14.00">f2A</text>
</g>
<!-- p0x7ffb03813a38&#45;&gt;p0x7ffb03813b38 -->
<g id="edge2" class="edge">
<title>p0x7ffb03813a38&#45;&gt;p0x7ffb03813b38</title>
<path fill="none" stroke="black" d="M113.65,-160.76C109.59,-152.87 104.6,-143.16 99.98,-134.18"/>
<polygon fill="black" stroke="black" points="103.18,-132.76 95.5,-125.47 96.96,-135.96 103.18,-132.76"/>
</g>
<!-- p0x7ffb03813638 -->
<g id="node5" class="node">
<title>p0x7ffb03813638</title>
<ellipse fill="none" stroke="black" cx="207" cy="-178" rx="27" ry="18"/>
<text text-anchor="middle" x="207" y="-172.95" font-family="Times,serif" font-size="14.00">f1B</text>
</g>
<!-- p0x7ffb03813738 -->
<g id="node6" class="node">
<title>p0x7ffb03813738</title>
<ellipse fill="none" stroke="black" cx="279" cy="-178" rx="27" ry="18"/>
<text text-anchor="middle" x="279" y="-172.95" font-family="Times,serif" font-size="14.00">f1A</text>
</g>
</g>
</svg>
