<?xml version="1.0" encoding="UTF-8" standalone="no"?>
<!DOCTYPE svg PUBLIC "-//W3C//DTD SVG 1.1//EN"
 "http://www.w3.org/Graphics/SVG/1.1/DTD/svg11.dtd">
<!-- Generated by graphviz version 12.2.1 (20241206.2353)
 -->
<!-- Title: BuildGraph Pages: 1 -->
<svg width="270pt" height="252pt"
 viewBox="0.00 0.00 270.00 252.16" xmlns="http://www.w3.org/2000/svg" xmlns:xlink="http://www.w3.org/1999/xlink">
<g id="graph0" class="graph" transform="scale(1 1) rotate(0) translate(4 248.16)">
<title>BuildGraph</title>
<polygon fill="white" stroke="none" points="-4,4 -4,-248.16 266,-248.16 266,4 -4,4"/>
<!-- main_c -->
<g id="node1" class="node">
<title>main_c</title>
<polygon fill="#cce5ff" stroke="black" points="54,-244.16 0,-244.16 0,-224 54,-224 54,-244.16"/>
<text text-anchor="middle" x="27" y="-230.4" font-family="Helvetica,sans-Serif" font-size="9.00">main.c</text>
</g>
<!-- main_o -->
<g id="node6" class="node">
<title>main_o</title>
<polygon fill="#fff3cd" stroke="black" points="158,-188.16 104,-188.16 104,-168 158,-168 158,-188.16"/>
<text text-anchor="middle" x="131" y="-174.4" font-family="Helvetica,sans-Serif" font-size="9.00">main.o</text>
</g>
<!-- main_c&#45;&gt;main_o -->
<g id="edge1" class="edge">
<title>main_c&#45;&gt;main_o</title>
<path fill="none" stroke="#555555" d="M47.19,-223.55C63.43,-214.63 86.84,-201.78 104.62,-192.01"/>
<polygon fill="#555555" stroke="#555555" points="105.33,-194.02 109.57,-189.29 103.3,-190.34 105.33,-194.02"/>
</g>
<!-- util_c -->
<g id="node2" class="node">
<title>util_c</title>
<polygon fill="#cce5ff" stroke="black" points="54,-132.16 0,-132.16 0,-112 54,-112 54,-132.16"/>
<text text-anchor="middle" x="27" y="-118.41" font-family="Helvetica,sans-Serif" font-size="9.00">util.c</text>
</g>
<!-- util_o -->
<g id="node7" class="node">
<title>util_o</title>
<polygon fill="#fff3cd" stroke="black" points="158,-132.16 104,-132.16 104,-112 158,-112 158,-132.16"/>
<text text-anchor="middle" x="131" y="-118.41" font-family="Helvetica,sans-Serif" font-size="9.00">util.o</text>
</g>
<!-- util_c&#45;&gt;util_o -->
<g id="edge4" class="edge">
<title>util_c&#45;&gt;util_o</title>
<path fill="none" stroke="#555555" d="M54.27,-122.08C67.12,-122.08 82.73,-122.08 96.43,-122.08"/>
<polygon fill="#555555" stroke="#555555" points="96.31,-124.18 102.31,-122.08 96.31,-119.98 96.31,-124.18"/>
</g>
<!-- util_h -->
<g id="node3" class="node">
<title>util_h</title>
<polygon fill="#cce5ff" stroke="black" points="54,-188.16 0,-188.16 0,-168 54,-168 54,-188.16"/>
<text text-anchor="middle" x="27" y="-174.4" font-family="Helvetica,sans-Serif" font-size="9.00">util.h</text>
</g>
<!-- util_h&#45;&gt;main_o -->
<g id="edge2" class="edge">
<title>util_h&#45;&gt;main_o</title>
<path fill="none" stroke="#555555" d="M54.27,-178.08C67.12,-178.08 82.73,-178.08 96.43,-178.08"/>
<polygon fill="#555555" stroke="#555555" points="96.31,-180.18 102.31,-178.08 96.31,-175.98 96.31,-180.18"/>
</g>
<!-- util_h&#45;&gt;util_o -->
<g id="edge5" class="edge">
<title>util_h&#45;&gt;util_o</title>
<path fill="none" stroke="#555555" d="M47.19,-167.55C63.43,-158.63 86.84,-145.78 104.62,-136.01"/>
<polygon fill="#555555" stroke="#555555" points="105.33,-138.02 109.57,-133.29 103.3,-134.34 105.33,-138.02"/>
</g>
<!-- math_c -->
<g id="node4" class="node">
<title>math_c</title>
<polygon fill="#cce5ff" stroke="black" points="54,-20.16 0,-20.16 0,0 54,0 54,-20.16"/>
<text text-anchor="middle" x="27" y="-6.4" font-family="Helvetica,sans-Serif" font-size="9.00">math.c</text>
</g>
<!-- math_o -->
<g id="node8" class="node">
<title>math_o</title>
<polygon fill="#fff3cd" stroke="black" points="158,-76.16 104,-76.16 104,-56 158,-56 158,-76.16"/>
<text text-anchor="middle" x="131" y="-62.41" font-family="Helvetica,sans-Serif" font-size="9.00">math.o</text>
</g>
<!-- math_c&#45;&gt;math_o -->
<g id="edge6" class="edge">
<title>math_c&#45;&gt;math_o</title>
<path fill="none" stroke="#555555" d="M47.19,-20.61C63.43,-29.53 86.84,-42.38 104.62,-52.15"/>
<polygon fill="#555555" stroke="#555555" points="103.3,-53.82 109.57,-54.87 105.33,-50.14 103.3,-53.82"/>
</g>
<!-- math_h -->
<g id="node5" class="node">
<title>math_h</title>
<polygon fill="#cce5ff" stroke="black" points="54,-76.16 0,-76.16 0,-56 54,-56 54,-76.16"/>
<text text-anchor="middle" x="27" y="-62.41" font-family="Helvetica,sans-Serif" font-size="9.00">math.h</text>
</g>
<!-- math_h&#45;&gt;main_o -->
<g id="edge3" class="edge">
<title>math_h&#45;&gt;main_o</title>
<path fill="none" stroke="#555555" d="M37.68,-76.41C42.59,-81.67 48.64,-88.19 54,-94.08 76.46,-118.75 81.54,-125.41 104,-150.08 107.68,-154.13 111.69,-158.47 115.44,-162.51"/>
<polygon fill="#555555" stroke="#555555" points="113.66,-163.68 119.29,-166.64 116.74,-160.82 113.66,-163.68"/>
</g>
<!-- math_h&#45;&gt;math_o -->
<g id="edge7" class="edge">
<title>math_h&#45;&gt;math_o</title>
<path fill="none" stroke="#555555" d="M54.27,-66.08C67.12,-66.08 82.73,-66.08 96.43,-66.08"/>
<polygon fill="#555555" stroke="#555555" points="96.31,-68.18 102.31,-66.08 96.31,-63.98 96.31,-68.18"/>
</g>
<!-- app -->
<g id="node9" class="node">
<title>app</title>
<polygon fill="#d4edda" stroke="black" stroke-width="2" points="262,-132.16 208,-132.16 208,-112 262,-112 262,-132.16"/>
<text text-anchor="middle" x="235" y="-118.41" font-family="Helvetica,sans-Serif" font-size="9.00">app</text>
</g>
<!-- main_o&#45;&gt;app -->
<g id="edge8" class="edge">
<title>main_o&#45;&gt;app</title>
<path fill="none" stroke="#555555" d="M151.19,-167.55C167.12,-158.8 189.95,-146.26 207.61,-136.57"/>
<polygon fill="#555555" stroke="#555555" points="208.28,-138.6 212.53,-133.87 206.26,-134.92 208.28,-138.6"/>
</g>
<!-- util_o&#45;&gt;app -->
<g id="edge9" class="edge">
<title>util_o&#45;&gt;app</title>
<path fill="none" stroke="#555555" d="M158.27,-122.08C170.92,-122.08 186.25,-122.08 199.8,-122.08"/>
<polygon fill="#555555" stroke="#555555" points="199.6,-124.18 205.6,-122.08 199.6,-119.98 199.6,-124.18"/>
</g>
<!-- math_o&#45;&gt;app -->
<g id="edge10" class="edge">
<title>math_o&#45;&gt;app</title>
<path fill="none" stroke="#555555" d="M151.19,-76.61C167.12,-85.36 189.95,-97.9 207.61,-107.59"/>
<polygon fill="#555555" stroke="#555555" points="206.26,-109.24 212.53,-110.29 208.28,-105.56 206.26,-109.24"/>
</g>
</g>
</svg>
