<?xml version="1.0" encoding="UTF-8" standalone="no"?>
<!DOCTYPE svg PUBLIC "-//W3C//DTD SVG 1.1//EN"
 "http://www.w3.org/Graphics/SVG/1.1/DTD/svg11.dtd">
<!-- Generated by graphviz version 12.2.1 (20241206.2353)
 -->
<!-- Title: Taskflow Pages: 1 -->
<svg width="425pt" height="152pt"
 viewBox="0.00 0.00 425.32 152.00" xmlns="http://www.w3.org/2000/svg" xmlns:xlink="http://www.w3.org/1999/xlink">
<g id="graph0" class="graph" transform="scale(1 1) rotate(0) translate(4 148)">
<title>Taskflow</title>
<polygon fill="white" stroke="none" points="-4,4 -4,-148 421.32,-148 421.32,4 -4,4"/>
<!-- p0x7f96d3000030 -->
<g id="node1" class="node">
<title>p0x7f96d3000030</title>
<ellipse fill="none" stroke="black" cx="34.97" cy="-72" rx="34.97" ry="18"/>
<text text-anchor="middle" x="34.97" y="-66.95" font-family="Times,serif" font-size="14.00">source</text>
</g>
<!-- p0x7f96d3000140 -->
<g id="node2" class="node">
<title>p0x7f96d3000140</title>
<polygon fill="aquamarine" stroke="black" points="156.41,-90 106.95,-72 156.41,-54 205.87,-72 156.41,-90"/>
<text text-anchor="middle" x="156.41" y="-66.95" font-family="Times,serif" font-size="14.00">switch</text>
</g>
<!-- p0x7f96d3000030&#45;&gt;p0x7f96d3000140 -->
<g id="edge1" class="edge">
<title>p0x7f96d3000030&#45;&gt;p0x7f96d3000140</title>
<path fill="none" stroke="black" d="M70.2,-72C77.78,-72 86.04,-72 94.33,-72"/>
<polygon fill="black" stroke="black" points="94.09,-75.5 104.09,-72 94.09,-68.5 94.09,-75.5"/>
</g>
<!-- p0x7f96d3000250 -->
<g id="node3" class="node">
<title>p0x7f96d3000250</title>
<ellipse fill="none" stroke="black" cx="282.57" cy="-126" rx="33.95" ry="18"/>
<text text-anchor="middle" x="282.57" y="-120.95" font-family="Times,serif" font-size="14.00">case 1</text>
</g>
<!-- p0x7f96d3000140&#45;&gt;p0x7f96d3000250 -->
<g id="edge2" class="edge">
<title>p0x7f96d3000140&#45;&gt;p0x7f96d3000250</title>
<path fill="none" stroke="black" stroke-dasharray="5,2" d="M179.89,-81.78C198.1,-89.7 224.11,-101.01 245.27,-110.21"/>
<polygon fill="black" stroke="black" points="243.86,-113.42 254.43,-114.2 246.66,-107 243.86,-113.42"/>
<text text-anchor="middle" x="227.24" y="-107.04" font-family="Times,serif" font-size="14.00">0</text>
</g>
<!-- p0x7f96d3000360 -->
<g id="node4" class="node">
<title>p0x7f96d3000360</title>
<ellipse fill="none" stroke="black" cx="282.57" cy="-72" rx="33.95" ry="18"/>
<text text-anchor="middle" x="282.57" y="-66.95" font-family="Times,serif" font-size="14.00">case 2</text>
</g>
<!-- p0x7f96d3000140&#45;&gt;p0x7f96d3000360 -->
<g id="edge3" class="edge">
<title>p0x7f96d3000140&#45;&gt;p0x7f96d3000360</title>
<path fill="none" stroke="black" stroke-dasharray="5,2" d="M207.19,-72C216.98,-72 227.19,-72 236.79,-72"/>
<polygon fill="black" stroke="black" points="236.63,-75.5 246.63,-72 236.63,-68.5 236.63,-75.5"/>
<text text-anchor="middle" x="227.24" y="-75.2" font-family="Times,serif" font-size="14.00">1</text>
</g>
<!-- p0x7f96d3000470 -->
<g id="node5" class="node">
<title>p0x7f96d3000470</title>
<ellipse fill="none" stroke="black" cx="282.57" cy="-18" rx="33.95" ry="18"/>
<text text-anchor="middle" x="282.57" y="-12.95" font-family="Times,serif" font-size="14.00">case 3</text>
</g>
<!-- p0x7f96d3000140&#45;&gt;p0x7f96d3000470 -->
<g id="edge4" class="edge">
<title>p0x7f96d3000140&#45;&gt;p0x7f96d3000470</title>
<path fill="none" stroke="black" stroke-dasharray="5,2" d="M179.89,-62.22C198.1,-54.3 224.11,-42.99 245.27,-33.79"/>
<polygon fill="black" stroke="black" points="246.66,-37 254.43,-29.8 243.86,-30.58 246.66,-37"/>
<text text-anchor="middle" x="227.24" y="-44.97" font-family="Times,serif" font-size="14.00">2</text>
</g>
<!-- p0x7f96d3000580 -->
<g id="node6" class="node">
<title>p0x7f96d3000580</title>
<ellipse fill="none" stroke="black" cx="385.42" cy="-72" rx="31.9" ry="18"/>
<text text-anchor="middle" x="385.42" y="-66.95" font-family="Times,serif" font-size="14.00">target</text>
</g>
<!-- p0x7f96d3000250&#45;&gt;p0x7f96d3000580 -->
<g id="edge5" class="edge">
<title>p0x7f96d3000250&#45;&gt;p0x7f96d3000580</title>
<path fill="none" stroke="black" d="M307.21,-113.34C320.42,-106.27 337.09,-97.34 351.55,-89.6"/>
<polygon fill="black" stroke="black" points="353.12,-92.73 360.28,-84.92 349.81,-86.56 353.12,-92.73"/>
</g>
<!-- p0x7f96d3000360&#45;&gt;p0x7f96d3000580 -->
<g id="edge6" class="edge">
<title>p0x7f96d3000360&#45;&gt;p0x7f96d3000580</title>
<path fill="none" stroke="black" d="M316.87,-72C324.83,-72 333.43,-72 341.74,-72"/>
<polygon fill="black" stroke="black" points="341.69,-75.5 351.69,-72 341.69,-68.5 341.69,-75.5"/>
</g>
<!-- p0x7f96d3000470&#45;&gt;p0x7f96d3000580 -->
<g id="edge7" class="edge">
<title>p0x7f96d3000470&#45;&gt;p0x7f96d3000580</title>
<path fill="none" stroke="black" d="M307.21,-30.66C320.42,-37.73 337.09,-46.66 351.55,-54.4"/>
<polygon fill="black" stroke="black" points="349.81,-57.44 360.28,-59.08 353.12,-51.27 349.81,-57.44"/>
</g>
</g>
</svg>
