<?xml version="1.0" encoding="UTF-8" standalone="no"?>
<!DOCTYPE svg PUBLIC "-//W3C//DTD SVG 1.1//EN"
 "http://www.w3.org/Graphics/SVG/1.1/DTD/svg11.dtd">
<!-- Generated by graphviz version 12.2.1 (20241206.2353)
 -->
<!-- Title: Taskflow Pages: 1 -->
<svg width="482pt" height="366pt"
 viewBox="0.00 0.00 482.00 366.00" xmlns="http://www.w3.org/2000/svg" xmlns:xlink="http://www.w3.org/1999/xlink">
<g id="graph0" class="graph" transform="scale(1 1) rotate(0) translate(4 362)">
<title>Taskflow</title>
<polygon fill="white" stroke="none" points="-4,4 -4,-362 478,-362 478,4 -4,4"/>
<g id="clust1" class="cluster">
<title>cluster_p0x7fff4f1276d8</title>
<polygon fill="none" stroke="black" points="8,-8 8,-350 172,-350 172,-8 8,-8"/>
<text text-anchor="middle" x="90" y="-332.7" font-family="Times,serif" font-size="14.00">Taskflow</text>
</g>
<g id="clust2" class="cluster">
<title>cluster_p0x7fff4f127590</title>
<polygon fill="none" stroke="black" points="180,-185 180,-350 466,-350 466,-185 180,-185"/>
<text text-anchor="middle" x="323" y="-332.7" font-family="Times,serif" font-size="14.00">m1</text>
</g>
<!-- p0xdf4c58 -->
<g id="node1" class="node">
<title>p0xdf4c58</title>
<ellipse fill="none" stroke="black" cx="90" cy="-299.5" rx="32.41" ry="18"/>
<text text-anchor="middle" x="90" y="-294.45" font-family="Times,serif" font-size="14.00">initial</text>
</g>
<!-- p0xdf4b70 -->
<g id="node2" class="node">
<title>p0xdf4b70</title>
<polygon fill="none" stroke="blue" points="135.12,-229 48.88,-229 44.88,-225 44.88,-193 131.12,-193 135.12,-197 135.12,-229"/>
<polyline fill="none" stroke="blue" points="131.12,-225 44.88,-225"/>
<polyline fill="none" stroke="blue" points="131.12,-225 131.12,-193"/>
<polyline fill="none" stroke="blue" points="131.12,-225 135.12,-229"/>
<text text-anchor="middle" x="90" y="-205.95" font-family="Times,serif" font-size="14.00">pipeline [m1]</text>
</g>
<!-- p0xdf4c58&#45;&gt;p0xdf4b70 -->
<g id="edge1" class="edge">
<title>p0xdf4c58&#45;&gt;p0xdf4b70</title>
<path fill="none" stroke="black" d="M90,-281.41C90,-269.76 90,-254.05 90,-240.52"/>
<polygon fill="black" stroke="black" points="93.5,-240.86 90,-230.86 86.5,-240.86 93.5,-240.86"/>
</g>
<!-- p0xdf4a88 -->
<g id="node3" class="node">
<title>p0xdf4a88</title>
<polygon fill="aquamarine" stroke="black" points="90,-140.5 15.93,-122.5 90,-104.5 164.07,-122.5 90,-140.5"/>
<text text-anchor="middle" x="90" y="-117.45" font-family="Times,serif" font-size="14.00">conditional</text>
</g>
<!-- p0xdf4b70&#45;&gt;p0xdf4a88 -->
<g id="edge2" class="edge">
<title>p0xdf4b70&#45;&gt;p0xdf4a88</title>
<path fill="none" stroke="black" d="M85.83,-192.66C84.67,-187.06 83.57,-180.8 83,-175 82.28,-167.7 82.28,-165.8 83,-158.5 83.25,-155.99 83.59,-153.4 84,-150.82"/>
<polygon fill="black" stroke="black" points="87.39,-151.74 85.77,-141.27 80.51,-150.46 87.39,-151.74"/>
</g>
<!-- p0xdf4a88&#45;&gt;p0xdf4b70 -->
<g id="edge3" class="edge">
<title>p0xdf4a88&#45;&gt;p0xdf4b70</title>
<path fill="none" stroke="black" stroke-dasharray="5,2" d="M90,-140.85C90,-152.56 90,-168.29 90,-181.78"/>
<polygon fill="black" stroke="black" points="86.5,-181.4 90,-191.4 93.5,-181.4 86.5,-181.4"/>
<text text-anchor="middle" x="93.38" y="-161.7" font-family="Times,serif" font-size="14.00">0</text>
</g>
<!-- p0xdf4d40 -->
<g id="node4" class="node">
<title>p0xdf4d40</title>
<ellipse fill="none" stroke="black" cx="90" cy="-34" rx="42.14" ry="18"/>
<text text-anchor="middle" x="90" y="-28.95" font-family="Times,serif" font-size="14.00">terminal</text>
</g>
<!-- p0xdf4a88&#45;&gt;p0xdf4d40 -->
<g id="edge4" class="edge">
<title>p0xdf4a88&#45;&gt;p0xdf4d40</title>
<path fill="none" stroke="black" stroke-dasharray="5,2" d="M90,-104C90,-92.51 90,-77.2 90,-63.93"/>
<polygon fill="black" stroke="black" points="93.5,-63.99 90,-53.99 86.5,-63.99 93.5,-63.99"/>
<text text-anchor="middle" x="93.38" y="-73.2" font-family="Times,serif" font-size="14.00">1</text>
</g>
<!-- p0xdf4600 -->
<g id="node5" class="node">
<title>p0xdf4600</title>
<polygon fill="aquamarine" stroke="black" points="322,-317.5 281.23,-299.5 322,-281.5 362.77,-299.5 322,-317.5"/>
<text text-anchor="middle" x="322" y="-294.45" font-family="Times,serif" font-size="14.00">cond</text>
</g>
<!-- p0xdf46e8 -->
<g id="node6" class="node">
<title>p0xdf46e8</title>
<polygon fill="none" stroke="black" points="242,-229 188,-229 188,-225 184,-225 184,-221 188,-221 188,-201 184,-201 184,-197 188,-197 188,-193 242,-193 242,-229"/>
<polyline fill="none" stroke="black" points="188,-225 192,-225 192,-221 188,-221"/>
<polyline fill="none" stroke="black" points="188,-201 192,-201 192,-197 188,-197"/>
<text text-anchor="middle" x="215" y="-205.95" font-family="Times,serif" font-size="14.00">rt&#45;0</text>
</g>
<!-- p0xdf4600&#45;&gt;p0xdf46e8 -->
<g id="edge5" class="edge">
<title>p0xdf4600&#45;&gt;p0xdf46e8</title>
<path fill="none" stroke="black" stroke-dasharray="5,2" d="M308.01,-287.19C292.12,-274.35 265.73,-253.01 245.11,-236.34"/>
<polygon fill="black" stroke="black" points="247.54,-233.8 237.56,-230.24 243.14,-239.25 247.54,-233.8"/>
<text text-anchor="middle" x="281.46" y="-250.2" font-family="Times,serif" font-size="14.00">0</text>
</g>
<!-- p0xdf47d0 -->
<g id="node7" class="node">
<title>p0xdf47d0</title>
<polygon fill="none" stroke="black" points="314,-229 260,-229 260,-225 256,-225 256,-221 260,-221 260,-201 256,-201 256,-197 260,-197 260,-193 314,-193 314,-229"/>
<polyline fill="none" stroke="black" points="260,-225 264,-225 264,-221 260,-221"/>
<polyline fill="none" stroke="black" points="260,-201 264,-201 264,-197 260,-197"/>
<text text-anchor="middle" x="287" y="-205.95" font-family="Times,serif" font-size="14.00">rt&#45;1</text>
</g>
<!-- p0xdf4600&#45;&gt;p0xdf47d0 -->
<g id="edge6" class="edge">
<title>p0xdf4600&#45;&gt;p0xdf47d0</title>
<path fill="none" stroke="black" stroke-dasharray="5,2" d="M316.06,-283.83C311.21,-271.84 304.22,-254.56 298.31,-239.95"/>
<polygon fill="black" stroke="black" points="301.62,-238.79 294.62,-230.84 295.13,-241.42 301.62,-238.79"/>
<text text-anchor="middle" x="311.01" y="-250.2" font-family="Times,serif" font-size="14.00">1</text>
</g>
<!-- p0xdf48b8 -->
<g id="node8" class="node">
<title>p0xdf48b8</title>
<polygon fill="none" stroke="black" points="386,-229 332,-229 332,-225 328,-225 328,-221 332,-221 332,-201 328,-201 328,-197 332,-197 332,-193 386,-193 386,-229"/>
<polyline fill="none" stroke="black" points="332,-225 336,-225 336,-221 332,-221"/>
<polyline fill="none" stroke="black" points="332,-201 336,-201 336,-197 332,-197"/>
<text text-anchor="middle" x="359" y="-205.95" font-family="Times,serif" font-size="14.00">rt&#45;2</text>
</g>
<!-- p0xdf4600&#45;&gt;p0xdf48b8 -->
<g id="edge7" class="edge">
<title>p0xdf4600&#45;&gt;p0xdf48b8</title>
<path fill="none" stroke="black" stroke-dasharray="5,2" d="M328.28,-283.83C333.4,-271.84 340.79,-254.56 347.04,-239.95"/>
<polygon fill="black" stroke="black" points="350.23,-241.4 350.95,-230.82 343.8,-238.64 350.23,-241.4"/>
<text text-anchor="middle" x="347.19" y="-250.2" font-family="Times,serif" font-size="14.00">2</text>
</g>
<!-- p0xdf49a0 -->
<g id="node9" class="node">
<title>p0xdf49a0</title>
<polygon fill="none" stroke="black" points="458,-229 404,-229 404,-225 400,-225 400,-221 404,-221 404,-201 400,-201 400,-197 404,-197 404,-193 458,-193 458,-229"/>
<polyline fill="none" stroke="black" points="404,-225 408,-225 408,-221 404,-221"/>
<polyline fill="none" stroke="black" points="404,-201 408,-201 408,-197 404,-197"/>
<text text-anchor="middle" x="431" y="-205.95" font-family="Times,serif" font-size="14.00">rt&#45;3</text>
</g>
<!-- p0xdf4600&#45;&gt;p0xdf49a0 -->
<g id="edge8" class="edge">
<title>p0xdf4600&#45;&gt;p0xdf49a0</title>
<path fill="none" stroke="black" stroke-dasharray="5,2" d="M335.8,-287.54C351.87,-274.79 378.91,-253.34 400.07,-236.55"/>
<polygon fill="black" stroke="black" points="402.18,-239.34 407.84,-230.38 397.83,-233.86 402.18,-239.34"/>
<text text-anchor="middle" x="389.64" y="-250.2" font-family="Times,serif" font-size="14.00">3</text>
</g>
</g>
</svg>
