<?xml version="1.0" encoding="UTF-8" standalone="no"?>
<!DOCTYPE svg PUBLIC "-//W3C//DTD SVG 1.1//EN"
 "http://www.w3.org/Graphics/SVG/1.1/DTD/svg11.dtd">
<!-- Generated by graphviz version 2.43.0 (0)
 -->
<!-- Title: Taskflow Pages: 1 -->
<svg width="311pt" height="552pt"
 viewBox="0.00 0.00 311.10 552.00" xmlns="http://www.w3.org/2000/svg" xmlns:xlink="http://www.w3.org/1999/xlink">
<g id="graph0" class="graph" transform="scale(1 1) rotate(0) translate(4 548)">
<title>Taskflow</title>
<polygon fill="white" stroke="transparent" points="-4,4 -4,-548 307.1,-548 307.1,4 -4,4"/>
<!-- p0x7fa9a4803e30 -->
<g id="node1" class="node">
<title>p0x7fa9a4803e30</title>
<ellipse fill="none" stroke="black" cx="194.05" cy="-526" rx="27" ry="18"/>
<text text-anchor="middle" x="194.05" y="-522.3" font-family="Times,serif" font-size="14.00">init</text>
</g>
<!-- p0x7fa9a4803f50 -->
<g id="node2" class="node">
<title>p0x7fa9a4803f50</title>
<polygon fill="aquamarine" stroke="black" points="194.05,-471 114.95,-453 194.05,-435 273.14,-453 194.05,-471"/>
<text text-anchor="middle" x="194.05" y="-449.3" font-family="Times,serif" font-size="14.00">flip&#45;coin&#45;1</text>
</g>
<!-- p0x7fa9a4803e30&#45;&gt;p0x7fa9a4803f50 -->
<g id="edge1" class="edge">
<title>p0x7fa9a4803e30&#45;&gt;p0x7fa9a4803f50</title>
<path fill="none" stroke="black" d="M194.05,-507.81C194.05,-499.79 194.05,-490.05 194.05,-481.07"/>
<polygon fill="black" stroke="black" points="197.55,-481.03 194.05,-471.03 190.55,-481.03 197.55,-481.03"/>
</g>
<!-- p0x7fa9a4803f50&#45;&gt;p0x7fa9a4803f50 -->
<g id="edge3" class="edge">
<title>p0x7fa9a4803f50&#45;&gt;p0x7fa9a4803f50</title>
<path fill="none" stroke="black" stroke-dasharray="5,2" d="M244.48,-459.57C269.18,-460.43 291.1,-458.24 291.1,-453 291.1,-448.5 274.91,-446.25 254.68,-446.25"/>
<polygon fill="black" stroke="black" points="254.41,-442.75 244.48,-446.43 254.54,-449.75 254.41,-442.75"/>
<text text-anchor="middle" x="296.1" y="-449.3" font-family="Times,serif" font-size="14.00">1</text>
</g>
<!-- p0x7fa9a4804070 -->
<g id="node3" class="node">
<title>p0x7fa9a4804070</title>
<polygon fill="aquamarine" stroke="black" points="79.05,-384 -0.05,-366 79.05,-348 158.14,-366 79.05,-384"/>
<text text-anchor="middle" x="79.05" y="-362.3" font-family="Times,serif" font-size="14.00">flip&#45;coin&#45;2</text>
</g>
<!-- p0x7fa9a4803f50&#45;&gt;p0x7fa9a4804070 -->
<g id="edge2" class="edge">
<title>p0x7fa9a4803f50&#45;&gt;p0x7fa9a4804070</title>
<path fill="none" stroke="black" stroke-dasharray="5,2" d="M165.96,-441.2C152.29,-435.21 136.03,-426.94 123.05,-417 113.07,-409.36 103.63,-399.19 96.07,-390.02"/>
<polygon fill="black" stroke="black" points="98.65,-387.64 89.7,-381.98 93.17,-391.99 98.65,-387.64"/>
<text text-anchor="middle" x="128.05" y="-405.8" font-family="Times,serif" font-size="14.00">0</text>
</g>
<!-- p0x7fa9a4804070&#45;&gt;p0x7fa9a4803f50 -->
<g id="edge5" class="edge">
<title>p0x7fa9a4804070&#45;&gt;p0x7fa9a4803f50</title>
<path fill="none" stroke="black" stroke-dasharray="5,2" d="M99.41,-379.44C109.68,-385.91 122.22,-394.09 133.05,-402 145.86,-411.36 159.57,-422.49 170.74,-431.87"/>
<polygon fill="black" stroke="black" points="168.49,-434.55 178.38,-438.34 173.01,-429.21 168.49,-434.55"/>
<text text-anchor="middle" x="156.05" y="-405.8" font-family="Times,serif" font-size="14.00">1</text>
</g>
<!-- p0x7fa9a4804190 -->
<g id="node4" class="node">
<title>p0x7fa9a4804190</title>
<polygon fill="aquamarine" stroke="black" points="125.05,-297 45.95,-279 125.05,-261 204.14,-279 125.05,-297"/>
<text text-anchor="middle" x="125.05" y="-275.3" font-family="Times,serif" font-size="14.00">flip&#45;coin&#45;3</text>
</g>
<!-- p0x7fa9a4804070&#45;&gt;p0x7fa9a4804190 -->
<g id="edge4" class="edge">
<title>p0x7fa9a4804070&#45;&gt;p0x7fa9a4804190</title>
<path fill="none" stroke="black" stroke-dasharray="5,2" d="M87.27,-349.8C94.1,-337.19 103.93,-319.01 111.86,-304.37"/>
<polygon fill="black" stroke="black" points="115.06,-305.81 116.74,-295.35 108.9,-302.48 115.06,-305.81"/>
<text text-anchor="middle" x="109.05" y="-318.8" font-family="Times,serif" font-size="14.00">0</text>
</g>
<!-- p0x7fa9a4804190&#45;&gt;p0x7fa9a4803f50 -->
<g id="edge7" class="edge">
<title>p0x7fa9a4804190&#45;&gt;p0x7fa9a4803f50</title>
<path fill="none" stroke="black" stroke-dasharray="5,2" d="M135.92,-294.68C145.34,-308 158.71,-328.48 167.05,-348 177.83,-373.24 185.14,-403.82 189.4,-425.27"/>
<polygon fill="black" stroke="black" points="186,-426.12 191.3,-435.29 192.88,-424.81 186,-426.12"/>
<text text-anchor="middle" x="184.05" y="-362.3" font-family="Times,serif" font-size="14.00">1</text>
</g>
<!-- p0x7fa9a48042b0 -->
<g id="node5" class="node">
<title>p0x7fa9a48042b0</title>
<polygon fill="aquamarine" stroke="black" points="171.05,-210 91.95,-192 171.05,-174 250.14,-192 171.05,-210"/>
<text text-anchor="middle" x="171.05" y="-188.3" font-family="Times,serif" font-size="14.00">flip&#45;coin&#45;4</text>
</g>
<!-- p0x7fa9a4804190&#45;&gt;p0x7fa9a48042b0 -->
<g id="edge6" class="edge">
<title>p0x7fa9a4804190&#45;&gt;p0x7fa9a48042b0</title>
<path fill="none" stroke="black" stroke-dasharray="5,2" d="M133.27,-262.8C140.1,-250.19 149.93,-232.01 157.86,-217.37"/>
<polygon fill="black" stroke="black" points="161.06,-218.81 162.74,-208.35 154.9,-215.48 161.06,-218.81"/>
<text text-anchor="middle" x="155.05" y="-231.8" font-family="Times,serif" font-size="14.00">0</text>
</g>
<!-- p0x7fa9a48042b0&#45;&gt;p0x7fa9a4803f50 -->
<g id="edge9" class="edge">
<title>p0x7fa9a48042b0&#45;&gt;p0x7fa9a4803f50</title>
<path fill="none" stroke="black" stroke-dasharray="5,2" d="M183.16,-207.25C193.38,-220.28 207.25,-240.58 213.05,-261 229.33,-318.33 213.59,-388.78 202.62,-426.03"/>
<polygon fill="black" stroke="black" points="199.13,-425.46 199.55,-436.05 205.83,-427.52 199.13,-425.46"/>
<text text-anchor="middle" x="225.05" y="-318.8" font-family="Times,serif" font-size="14.00">1</text>
</g>
<!-- p0x7fa9a48043d0 -->
<g id="node6" class="node">
<title>p0x7fa9a48043d0</title>
<polygon fill="aquamarine" stroke="black" points="224.05,-123 144.95,-105 224.05,-87 303.14,-105 224.05,-123"/>
<text text-anchor="middle" x="224.05" y="-101.3" font-family="Times,serif" font-size="14.00">flip&#45;coin&#45;5</text>
</g>
<!-- p0x7fa9a48042b0&#45;&gt;p0x7fa9a48043d0 -->
<g id="edge8" class="edge">
<title>p0x7fa9a48042b0&#45;&gt;p0x7fa9a48043d0</title>
<path fill="none" stroke="black" stroke-dasharray="5,2" d="M180.52,-175.8C188.51,-162.99 200.08,-144.44 209.28,-129.68"/>
<polygon fill="black" stroke="black" points="212.33,-131.4 214.65,-121.06 206.39,-127.7 212.33,-131.4"/>
<text text-anchor="middle" x="205.05" y="-144.8" font-family="Times,serif" font-size="14.00">0</text>
</g>
<!-- p0x7fa9a48043d0&#45;&gt;p0x7fa9a4803f50 -->
<g id="edge11" class="edge">
<title>p0x7fa9a48043d0&#45;&gt;p0x7fa9a4803f50</title>
<path fill="none" stroke="black" stroke-dasharray="5,2" d="M239.67,-119.65C255.61,-135.18 278.05,-162.15 278.05,-191 278.05,-367 278.05,-367 278.05,-367 278.05,-397.35 250.61,-420.78 227.1,-435.28"/>
<polygon fill="black" stroke="black" points="225.21,-432.32 218.34,-440.39 228.74,-438.37 225.21,-432.32"/>
<text text-anchor="middle" x="283.05" y="-275.3" font-family="Times,serif" font-size="14.00">1</text>
</g>
<!-- p0x7fa9a48044f0 -->
<g id="node7" class="node">
<title>p0x7fa9a48044f0</title>
<ellipse fill="none" stroke="black" cx="224.05" cy="-18" rx="30.59" ry="18"/>
<text text-anchor="middle" x="224.05" y="-14.3" font-family="Times,serif" font-size="14.00">stop</text>
</g>
<!-- p0x7fa9a48043d0&#45;&gt;p0x7fa9a48044f0 -->
<g id="edge10" class="edge">
<title>p0x7fa9a48043d0&#45;&gt;p0x7fa9a48044f0</title>
<path fill="none" stroke="black" stroke-dasharray="5,2" d="M224.05,-86.8C224.05,-75.16 224.05,-59.55 224.05,-46.24"/>
<polygon fill="black" stroke="black" points="227.55,-46.18 224.05,-36.18 220.55,-46.18 227.55,-46.18"/>
<text text-anchor="middle" x="229.05" y="-57.8" font-family="Times,serif" font-size="14.00">0</text>
</g>
</g>
</svg>
