<?xml version="1.0" encoding="UTF-8" standalone="no"?>
<!DOCTYPE svg PUBLIC "-//W3C//DTD SVG 1.1//EN"
 "http://www.w3.org/Graphics/SVG/1.1/DTD/svg11.dtd">
<!-- Generated by graphviz version 2.43.0 (0)
 -->
<!-- Title: G Pages: 1 -->
<svg width="175pt" height="188pt"
 viewBox="0.00 0.00 175.00 188.00" xmlns="http://www.w3.org/2000/svg" xmlns:xlink="http://www.w3.org/1999/xlink">
<g id="graph0" class="graph" transform="scale(1 1) rotate(0) translate(4 184)">
<title>G</title>
<polygon fill="white" stroke="transparent" points="-4,4 -4,-184 171,-184 171,4 -4,4"/>
<!-- A -->
<g id="node1" class="node">
<title>A</title>
<ellipse fill="none" stroke="black" cx="68" cy="-162" rx="27" ry="18"/>
<text text-anchor="middle" x="68" y="-158.3" font-family="Times,serif" font-size="14.00">A</text>
</g>
<!-- B -->
<g id="node2" class="node">
<title>B</title>
<ellipse fill="none" stroke="black" cx="68" cy="-90" rx="27" ry="18"/>
<text text-anchor="middle" x="68" y="-86.3" font-family="Times,serif" font-size="14.00">B</text>
</g>
<!-- A&#45;&gt;B -->
<g id="edge1" class="edge">
<title>A&#45;&gt;B</title>
<path fill="none" stroke="black" d="M68,-143.7C68,-135.98 68,-126.71 68,-118.11"/>
<polygon fill="black" stroke="black" points="71.5,-118.1 68,-108.1 64.5,-118.1 71.5,-118.1"/>
</g>
<!-- C -->
<g id="node3" class="node">
<title>C</title>
<ellipse fill="none" stroke="black" cx="140" cy="-90" rx="27" ry="18"/>
<text text-anchor="middle" x="140" y="-86.3" font-family="Times,serif" font-size="14.00">C</text>
</g>
<!-- A&#45;&gt;C -->
<g id="edge2" class="edge">
<title>A&#45;&gt;C</title>
<path fill="none" stroke="black" d="M82.57,-146.83C92.75,-136.94 106.52,-123.55 118.03,-112.36"/>
<polygon fill="black" stroke="black" points="120.47,-114.87 125.2,-105.38 115.59,-109.85 120.47,-114.87"/>
</g>
<!-- E -->
<g id="node4" class="node">
<title>E</title>
<ellipse fill="none" stroke="black" cx="27" cy="-18" rx="27" ry="18"/>
<text text-anchor="middle" x="27" y="-14.3" font-family="Times,serif" font-size="14.00">E</text>
</g>
<!-- A&#45;&gt;E -->
<g id="edge3" class="edge">
<title>A&#45;&gt;E</title>
<path fill="none" stroke="black" d="M54.52,-145.98C46.42,-135.98 36.78,-122.12 32,-108 25.27,-88.12 24.27,-64.32 24.81,-46.34"/>
<polygon fill="black" stroke="black" points="28.31,-46.4 25.3,-36.24 21.32,-46.06 28.31,-46.4"/>
</g>
<!-- B&#45;&gt;E -->
<g id="edge5" class="edge">
<title>B&#45;&gt;E</title>
<path fill="none" stroke="black" d="M58.49,-72.76C53.47,-64.19 47.2,-53.49 41.58,-43.9"/>
<polygon fill="black" stroke="black" points="44.53,-42.01 36.46,-35.15 38.49,-45.55 44.53,-42.01"/>
</g>
<!-- D -->
<g id="node5" class="node">
<title>D</title>
<ellipse fill="none" stroke="black" cx="126" cy="-18" rx="27" ry="18"/>
<text text-anchor="middle" x="126" y="-14.3" font-family="Times,serif" font-size="14.00">D</text>
</g>
<!-- B&#45;&gt;D -->
<g id="edge4" class="edge">
<title>B&#45;&gt;D</title>
<path fill="none" stroke="black" d="M80.59,-73.81C88.26,-64.55 98.23,-52.52 106.86,-42.09"/>
<polygon fill="black" stroke="black" points="109.75,-44.09 113.44,-34.16 104.36,-39.63 109.75,-44.09"/>
</g>
<!-- C&#45;&gt;D -->
<g id="edge6" class="edge">
<title>C&#45;&gt;D</title>
<path fill="none" stroke="black" d="M136.61,-72.05C135.07,-64.35 133.21,-55.03 131.47,-46.36"/>
<polygon fill="black" stroke="black" points="134.85,-45.39 129.46,-36.28 127.98,-46.77 134.85,-45.39"/>
</g>
</g>
</svg>
