<?xml version="1.0" encoding="UTF-8" standalone="no"?>
<!DOCTYPE svg PUBLIC "-//W3C//DTD SVG 1.1//EN"
 "http://www.w3.org/Graphics/SVG/1.1/DTD/svg11.dtd">
<!-- Generated by graphviz version 12.2.1 (20241206.2353)
 -->
<!-- Title: GCTree Pages: 1 -->
<svg width="376pt" height="404pt"
 viewBox="0.00 0.00 376.14 403.55" xmlns="http://www.w3.org/2000/svg" xmlns:xlink="http://www.w3.org/1999/xlink">
<g id="graph0" class="graph" transform="scale(1 1) rotate(0) translate(4 399.55)">
<title>GCTree</title>
<polygon fill="white" stroke="none" points="-4,4 -4,-399.55 372.14,-399.55 372.14,4 -4,4"/>
<!-- root -->
<g id="node1" class="node">
<title>root</title>
<polygon fill="#fde8d0" stroke="black" points="241.51,-395.55 187.51,-395.55 187.51,-370.29 241.51,-370.29 241.51,-395.55"/>
<text text-anchor="middle" x="214.51" y="-384.12" font-family="Helvetica,sans-Serif" font-size="9.00">v0=0</text>
<text text-anchor="middle" x="214.51" y="-374.37" font-family="Helvetica,sans-Serif" font-size="9.00">[0 . . . .]</text>
</g>
<!-- v1c1 -->
<g id="node2" class="node">
<title>v1c1</title>
<polygon fill="#fde8d0" stroke="black" points="241.51,-304.29 187.51,-304.29 187.51,-279.03 241.51,-279.03 241.51,-304.29"/>
<text text-anchor="middle" x="214.51" y="-292.86" font-family="Helvetica,sans-Serif" font-size="9.00">v1=1</text>
<text text-anchor="middle" x="214.51" y="-283.11" font-family="Helvetica,sans-Serif" font-size="9.00">[0 1 . . .]</text>
</g>
<!-- root&#45;&gt;v1c1 -->
<g id="edge1" class="edge">
<title>root&#45;&gt;v1c1</title>
<path fill="none" stroke="#555555" d="M214.51,-369.88C214.51,-354.89 214.51,-329.12 214.51,-311.5"/>
<polygon fill="#555555" stroke="#555555" points="216.44,-311.52 214.51,-306.02 212.59,-311.52 216.44,-311.52"/>
<text text-anchor="middle" x="237.01" y="-338.69" font-family="Helvetica,sans-Serif" font-size="8.00">only choice</text>
<text text-anchor="middle" x="237.01" y="-329.69" font-family="Helvetica,sans-Serif" font-size="8.00">(sym. break)</text>
</g>
<!-- v2c2 -->
<g id="node3" class="node">
<title>v2c2</title>
<polygon fill="#fde8d0" stroke="black" points="241.51,-213.03 187.51,-213.03 187.51,-187.77 241.51,-187.77 241.51,-213.03"/>
<text text-anchor="middle" x="214.51" y="-201.6" font-family="Helvetica,sans-Serif" font-size="9.00">v2=2</text>
<text text-anchor="middle" x="214.51" y="-191.85" font-family="Helvetica,sans-Serif" font-size="9.00">[0 1 2 . .]</text>
</g>
<!-- v1c1&#45;&gt;v2c2 -->
<g id="edge2" class="edge">
<title>v1c1&#45;&gt;v2c2</title>
<path fill="none" stroke="#555555" d="M214.51,-278.62C214.51,-263.63 214.51,-237.86 214.51,-220.24"/>
<polygon fill="#555555" stroke="#555555" points="216.44,-220.26 214.51,-214.76 212.59,-220.26 216.44,-220.26"/>
<text text-anchor="middle" x="237.01" y="-247.43" font-family="Helvetica,sans-Serif" font-size="8.00">only choice</text>
<text text-anchor="middle" x="237.01" y="-238.43" font-family="Helvetica,sans-Serif" font-size="8.00">(sym. break)</text>
</g>
<!-- v3c0 -->
<g id="node4" class="node">
<title>v3c0</title>
<polygon fill="#fde8d0" stroke="black" points="141.51,-125.89 87.51,-125.89 87.51,-100.63 141.51,-100.63 141.51,-125.89"/>
<text text-anchor="middle" x="114.51" y="-114.46" font-family="Helvetica,sans-Serif" font-size="9.00">v3=0</text>
<text text-anchor="middle" x="114.51" y="-104.71" font-family="Helvetica,sans-Serif" font-size="9.00">[0 1 2 0 .]</text>
</g>
<!-- v2c2&#45;&gt;v3c0 -->
<g id="edge3" class="edge">
<title>v2c2&#45;&gt;v3c0</title>
<path fill="none" stroke="#555555" d="M200.61,-187.56C183.24,-172.78 153.44,-147.41 133.85,-130.73"/>
<polygon fill="#555555" stroke="#555555" points="135.21,-129.36 129.77,-127.26 132.71,-132.29 135.21,-129.36"/>
<text text-anchor="middle" x="178.37" y="-156.17" font-family="Helvetica,sans-Serif" font-size="8.00">try 0</text>
</g>
<!-- v3c1 -->
<g id="node5" class="node">
<title>v3c1</title>
<polygon fill="#f8d7da" stroke="black" points="255.14,-130.77 173.88,-130.77 173.88,-95.76 255.14,-95.76 255.14,-130.77"/>
<text text-anchor="middle" x="214.51" y="-119.34" font-family="Helvetica,sans-Serif" font-size="9.00">v3=1 &#160;PRUNE</text>
<text text-anchor="middle" x="214.51" y="-109.59" font-family="Helvetica,sans-Serif" font-size="9.00">[0 1 2 1 .]</text>
<text text-anchor="middle" x="214.51" y="-99.84" font-family="Helvetica,sans-Serif" font-size="9.00">3 colors ≥ best=3</text>
</g>
<!-- v2c2&#45;&gt;v3c1 -->
<g id="edge4" class="edge">
<title>v2c2&#45;&gt;v3c1</title>
<path fill="none" stroke="#cc0000" stroke-dasharray="5,2" d="M214.51,-187.56C214.51,-174.69 214.51,-153.79 214.51,-137.59"/>
<polygon fill="#cc0000" stroke="#cc0000" points="216.44,-137.99 214.51,-132.49 212.59,-137.99 216.44,-137.99"/>
<text text-anchor="middle" x="222.38" y="-156.17" font-family="Helvetica,sans-Serif" font-size="8.00">try 1</text>
</g>
<!-- v3c3 -->
<g id="node6" class="node">
<title>v3c3</title>
<polygon fill="#f8d7da" stroke="black" points="368.14,-130.77 286.88,-130.77 286.88,-95.76 368.14,-95.76 368.14,-130.77"/>
<text text-anchor="middle" x="327.51" y="-119.34" font-family="Helvetica,sans-Serif" font-size="9.00">v3=3 &#160;PRUNE</text>
<text text-anchor="middle" x="327.51" y="-109.59" font-family="Helvetica,sans-Serif" font-size="9.00">[0 1 2 3 .]</text>
<text text-anchor="middle" x="327.51" y="-99.84" font-family="Helvetica,sans-Serif" font-size="9.00">4 colors ≥ best=3</text>
</g>
<!-- v2c2&#45;&gt;v3c3 -->
<g id="edge5" class="edge">
<title>v2c2&#45;&gt;v3c3</title>
<path fill="none" stroke="#cc0000" stroke-dasharray="5,2" d="M230.22,-187.56C248.22,-174 278.05,-151.53 299.95,-135.03"/>
<polygon fill="#cc0000" stroke="#cc0000" points="300.88,-136.73 304.12,-131.89 298.57,-133.66 300.88,-136.73"/>
<text text-anchor="middle" x="278.88" y="-156.17" font-family="Helvetica,sans-Serif" font-size="8.00">try 3</text>
</g>
<!-- v4c1 -->
<g id="node7" class="node">
<title>v4c1</title>
<polygon fill="#d4edda" stroke="black" points="55.02,-38.76 0,-38.76 0,0 55.02,0 55.02,-38.76"/>
<text text-anchor="middle" x="27.51" y="-27.33" font-family="Helvetica,sans-Serif" font-size="9.00">v4=1</text>
<text text-anchor="middle" x="27.51" y="-17.58" font-family="Helvetica,sans-Serif" font-size="9.00">[0 1 2 0 1]</text>
<text text-anchor="middle" x="27.51" y="-7.83" font-family="Helvetica,sans-Serif" font-size="9.00">3 colors ★</text>
</g>
<!-- v3c0&#45;&gt;v4c1 -->
<g id="edge6" class="edge">
<title>v3c0&#45;&gt;v4c1</title>
<path fill="none" stroke="#555555" d="M103.14,-100.25C89.66,-86.02 66.9,-61.98 49.86,-43.99"/>
<polygon fill="#555555" stroke="#555555" points="51.44,-42.85 46.26,-40.18 48.64,-45.5 51.44,-42.85"/>
<text text-anchor="middle" x="81.49" y="-64.16" font-family="Helvetica,sans-Serif" font-size="8.00">try 1</text>
</g>
<!-- v4c2 -->
<g id="node8" class="node">
<title>v4c2</title>
<polygon fill="#fff3cd" stroke="black" points="141.51,-36.88 87.51,-36.88 87.51,-1.88 141.51,-1.88 141.51,-36.88"/>
<text text-anchor="middle" x="114.51" y="-25.45" font-family="Helvetica,sans-Serif" font-size="9.00">v4=2</text>
<text text-anchor="middle" x="114.51" y="-15.7" font-family="Helvetica,sans-Serif" font-size="9.00">[0 1 2 0 2]</text>
<text text-anchor="middle" x="114.51" y="-5.95" font-family="Helvetica,sans-Serif" font-size="9.00">3 colors</text>
</g>
<!-- v3c0&#45;&gt;v4c2 -->
<g id="edge7" class="edge">
<title>v3c0&#45;&gt;v4c2</title>
<path fill="none" stroke="#555555" d="M114.51,-100.25C114.51,-85.99 114.51,-61.89 114.51,-43.88"/>
<polygon fill="#555555" stroke="#555555" points="116.44,-44.08 114.51,-38.58 112.59,-44.08 116.44,-44.08"/>
<text text-anchor="middle" x="122.38" y="-64.16" font-family="Helvetica,sans-Serif" font-size="8.00">try 2</text>
</g>
<!-- v4c3 -->
<g id="node9" class="node">
<title>v4c3</title>
<polygon fill="#fff3cd" stroke="black" points="227.51,-36.88 173.51,-36.88 173.51,-1.88 227.51,-1.88 227.51,-36.88"/>
<text text-anchor="middle" x="200.51" y="-25.45" font-family="Helvetica,sans-Serif" font-size="9.00">v4=3</text>
<text text-anchor="middle" x="200.51" y="-15.7" font-family="Helvetica,sans-Serif" font-size="9.00">[0 1 2 0 3]</text>
<text text-anchor="middle" x="200.51" y="-5.95" font-family="Helvetica,sans-Serif" font-size="9.00">4 colors</text>
</g>
<!-- v3c0&#45;&gt;v4c3 -->
<g id="edge8" class="edge">
<title>v3c0&#45;&gt;v4c3</title>
<path fill="none" stroke="#555555" d="M125.75,-100.25C139.57,-85.49 163.27,-60.17 180.28,-41.99"/>
<polygon fill="#555555" stroke="#555555" points="181.51,-43.5 183.86,-38.17 178.69,-40.87 181.51,-43.5"/>
<text text-anchor="middle" x="167.96" y="-64.16" font-family="Helvetica,sans-Serif" font-size="8.00">try 3</text>
</g>
</g>
</svg>
