<?xml version="1.0" encoding="UTF-8" standalone="no"?>
<!DOCTYPE svg PUBLIC "-//W3C//DTD SVG 1.1//EN"
 "http://www.w3.org/Graphics/SVG/1.1/DTD/svg11.dtd">
<!-- Generated by graphviz version 12.2.1 (20241206.2353)
 -->
<!-- Title: Taskflow Pages: 1 -->
<svg width="924pt" height="278pt"
 viewBox="0.00 0.00 924.00 277.50" xmlns="http://www.w3.org/2000/svg" xmlns:xlink="http://www.w3.org/1999/xlink">
<g id="graph0" class="graph" transform="scale(1 1) rotate(0) translate(4 273.5)">
<title>Taskflow</title>
<polygon fill="white" stroke="none" points="-4,4 -4,-273.5 920,-273.5 920,4 -4,4"/>
<g id="clust1" class="cluster">
<title>cluster_error1</title>
<polygon fill="none" stroke="black" points="8,-96.5 8,-261.5 150,-261.5 150,-96.5 8,-96.5"/>
<text text-anchor="middle" x="79" y="-244.2" font-family="Times,serif" font-size="14.00">error1: no source tasks</text>
</g>
<g id="clust2" class="cluster">
<title>cluster_fix1</title>
<polygon fill="none" stroke="black" points="158,-8 158,-261.5 300,-261.5 300,-8 158,-8"/>
<text text-anchor="middle" x="229" y="-244.2" font-family="Times,serif" font-size="14.00">fix1: adds a source</text>
</g>
<g id="clust3" class="cluster">
<title>cluster_error2</title>
<polygon fill="none" stroke="black" points="308,-96.5 308,-261.5 450,-261.5 450,-96.5 308,-96.5"/>
<text text-anchor="middle" x="379" y="-244.2" font-family="Times,serif" font-size="14.00">error2: race on D</text>
</g>
<g id="clust4" class="cluster">
<title>cluster_fix2</title>
<polygon fill="none" stroke="black" points="458,-8 458,-261.5 686,-261.5 686,-8 458,-8"/>
<text text-anchor="middle" x="572" y="-244.2" font-family="Times,serif" font-size="14.00">fix2: adds an auxiliary task</text>
</g>
<g id="clust5" class="cluster">
<title>cluster_risky</title>
<polygon fill="none" stroke="black" points="694,-96.5 694,-261.5 908,-261.5 908,-96.5 694,-96.5"/>
<text text-anchor="middle" x="801" y="-244.2" font-family="Times,serif" font-size="14.00">risky: X might be raced</text>
</g>
<!-- e1A -->
<g id="node1" class="node">
<title>e1A</title>
<polygon fill="aquamarine" stroke="black" points="58,-229 31,-211 58,-193 85,-211 58,-229"/>
<text text-anchor="middle" x="58" y="-205.95" font-family="Times,serif" font-size="14.00">A</text>
</g>
<!-- e1A&#45;&gt;e1A -->
<g id="edge1" class="edge">
<title>e1A&#45;&gt;e1A</title>
<path fill="none" stroke="black" stroke-dasharray="5,2" d="M75.08,-218.13C88.82,-220.98 103,-218.61 103,-211 103,-205.53 95.67,-202.77 86.45,-202.7"/>
<polygon fill="black" stroke="black" points="86.18,-199.21 76.59,-203.72 86.89,-206.18 86.18,-199.21"/>
<text text-anchor="middle" x="106.38" y="-205.95" font-family="Times,serif" font-size="14.00">0</text>
</g>
<!-- e1B -->
<g id="node2" class="node">
<title>e1B</title>
<ellipse fill="none" stroke="black" cx="43" cy="-122.5" rx="27" ry="18"/>
<text text-anchor="middle" x="43" y="-117.45" font-family="Times,serif" font-size="14.00">B</text>
</g>
<!-- e1A&#45;&gt;e1B -->
<g id="edge2" class="edge">
<title>e1A&#45;&gt;e1B</title>
<path fill="none" stroke="black" stroke-dasharray="5,2" d="M55.32,-194.54C53.26,-182.69 50.37,-166.02 47.91,-151.81"/>
<polygon fill="black" stroke="black" points="51.38,-151.36 46.23,-142.1 44.49,-152.55 51.38,-151.36"/>
<text text-anchor="middle" x="55.22" y="-161.7" font-family="Times,serif" font-size="14.00">1</text>
</g>
<!-- e1C -->
<g id="node3" class="node">
<title>e1C</title>
<ellipse fill="none" stroke="black" cx="115" cy="-122.5" rx="27" ry="18"/>
<text text-anchor="middle" x="115" y="-117.45" font-family="Times,serif" font-size="14.00">C</text>
</g>
<!-- e1A&#45;&gt;e1C -->
<g id="edge3" class="edge">
<title>e1A&#45;&gt;e1C</title>
<path fill="none" stroke="black" stroke-dasharray="5,2" d="M65.93,-197.97C74.23,-185.36 87.54,-165.17 98.2,-148.99"/>
<polygon fill="black" stroke="black" points="101.02,-151.08 103.6,-140.81 95.17,-147.23 101.02,-151.08"/>
<text text-anchor="middle" x="94.98" y="-161.7" font-family="Times,serif" font-size="14.00">2</text>
</g>
<!-- f1S -->
<g id="node4" class="node">
<title>f1S</title>
<ellipse fill="none" stroke="black" cx="208" cy="-211" rx="27" ry="18"/>
<text text-anchor="middle" x="208" y="-205.95" font-family="Times,serif" font-size="14.00">S</text>
</g>
<!-- f1A -->
<g id="node5" class="node">
<title>f1A</title>
<polygon fill="aquamarine" stroke="black" points="208,-140.5 181,-122.5 208,-104.5 235,-122.5 208,-140.5"/>
<text text-anchor="middle" x="208" y="-117.45" font-family="Times,serif" font-size="14.00">A</text>
</g>
<!-- f1S&#45;&gt;f1A -->
<g id="edge4" class="edge">
<title>f1S&#45;&gt;f1A</title>
<path fill="none" stroke="black" d="M208,-192.91C208,-181.26 208,-165.55 208,-152.02"/>
<polygon fill="black" stroke="black" points="211.5,-152.36 208,-142.36 204.5,-152.36 211.5,-152.36"/>
</g>
<!-- f1A&#45;&gt;f1A -->
<g id="edge5" class="edge">
<title>f1A&#45;&gt;f1A</title>
<path fill="none" stroke="black" stroke-dasharray="5,2" d="M225.08,-129.63C238.82,-132.48 253,-130.11 253,-122.5 253,-117.03 245.67,-114.27 236.45,-114.2"/>
<polygon fill="black" stroke="black" points="236.18,-110.71 226.59,-115.22 236.89,-117.68 236.18,-110.71"/>
<text text-anchor="middle" x="256.38" y="-117.45" font-family="Times,serif" font-size="14.00">0</text>
</g>
<!-- f1B -->
<g id="node6" class="node">
<title>f1B</title>
<ellipse fill="none" stroke="black" cx="193" cy="-34" rx="27" ry="18"/>
<text text-anchor="middle" x="193" y="-28.95" font-family="Times,serif" font-size="14.00">B</text>
</g>
<!-- f1A&#45;&gt;f1B -->
<g id="edge6" class="edge">
<title>f1A&#45;&gt;f1B</title>
<path fill="none" stroke="black" stroke-dasharray="5,2" d="M205.32,-106.04C203.26,-94.19 200.37,-77.52 197.91,-63.31"/>
<polygon fill="black" stroke="black" points="201.38,-62.86 196.23,-53.6 194.49,-64.05 201.38,-62.86"/>
<text text-anchor="middle" x="205.22" y="-73.2" font-family="Times,serif" font-size="14.00">1</text>
</g>
<!-- f1C -->
<g id="node7" class="node">
<title>f1C</title>
<ellipse fill="none" stroke="black" cx="265" cy="-34" rx="27" ry="18"/>
<text text-anchor="middle" x="265" y="-28.95" font-family="Times,serif" font-size="14.00">C</text>
</g>
<!-- f1A&#45;&gt;f1C -->
<g id="edge7" class="edge">
<title>f1A&#45;&gt;f1C</title>
<path fill="none" stroke="black" stroke-dasharray="5,2" d="M215.93,-109.47C224.23,-96.86 237.54,-76.67 248.2,-60.49"/>
<polygon fill="black" stroke="black" points="251.02,-62.58 253.6,-52.31 245.17,-58.73 251.02,-62.58"/>
<text text-anchor="middle" x="244.98" y="-73.2" font-family="Times,serif" font-size="14.00">2</text>
</g>
<!-- e2C -->
<g id="node8" class="node">
<title>e2C</title>
<polygon fill="aquamarine" stroke="black" points="343,-229 316,-211 343,-193 370,-211 343,-229"/>
<text text-anchor="middle" x="343" y="-205.95" font-family="Times,serif" font-size="14.00">C</text>
</g>
<!-- e2D -->
<g id="node9" class="node">
<title>e2D</title>
<ellipse fill="none" stroke="black" cx="415" cy="-122.5" rx="27" ry="18"/>
<text text-anchor="middle" x="415" y="-117.45" font-family="Times,serif" font-size="14.00">D</text>
</g>
<!-- e2C&#45;&gt;e2D -->
<g id="edge9" class="edge">
<title>e2C&#45;&gt;e2D</title>
<path fill="none" stroke="black" stroke-dasharray="5,2" d="M352.41,-198.69C363.22,-185.71 381.25,-164.05 395.19,-147.3"/>
<polygon fill="black" stroke="black" points="397.76,-149.68 401.47,-139.76 392.38,-145.2 397.76,-149.68"/>
<text text-anchor="middle" x="388.82" y="-161.7" font-family="Times,serif" font-size="14.00">0</text>
</g>
<!-- e2F -->
<g id="node10" class="node">
<title>e2F</title>
<ellipse fill="none" stroke="black" cx="343" cy="-122.5" rx="27" ry="18"/>
<text text-anchor="middle" x="343" y="-117.45" font-family="Times,serif" font-size="14.00">F</text>
</g>
<!-- e2C&#45;&gt;e2F -->
<g id="edge10" class="edge">
<title>e2C&#45;&gt;e2F</title>
<path fill="none" stroke="black" stroke-dasharray="5,2" d="M343,-192.5C343,-181.01 343,-165.7 343,-152.43"/>
<polygon fill="black" stroke="black" points="346.5,-152.49 343,-142.49 339.5,-152.49 346.5,-152.49"/>
<text text-anchor="middle" x="346.38" y="-161.7" font-family="Times,serif" font-size="14.00">1</text>
</g>
<!-- e2E -->
<g id="node11" class="node">
<title>e2E</title>
<ellipse fill="none" stroke="black" cx="415" cy="-211" rx="27" ry="18"/>
<text text-anchor="middle" x="415" y="-205.95" font-family="Times,serif" font-size="14.00">E</text>
</g>
<!-- e2E&#45;&gt;e2D -->
<g id="edge8" class="edge">
<title>e2E&#45;&gt;e2D</title>
<path fill="none" stroke="black" d="M415,-192.91C415,-181.26 415,-165.55 415,-152.02"/>
<polygon fill="black" stroke="black" points="418.5,-152.36 415,-142.36 411.5,-152.36 418.5,-152.36"/>
</g>
<!-- f2C -->
<g id="node12" class="node">
<title>f2C</title>
<polygon fill="aquamarine" stroke="black" points="527,-229 500,-211 527,-193 554,-211 527,-229"/>
<text text-anchor="middle" x="527" y="-205.95" font-family="Times,serif" font-size="14.00">C</text>
</g>
<!-- f2Daux -->
<g id="node14" class="node">
<title>f2Daux</title>
<ellipse fill="none" stroke="black" cx="500" cy="-122.5" rx="33.95" ry="18"/>
<text text-anchor="middle" x="500" y="-117.45" font-family="Times,serif" font-size="14.00">D&#45;aux</text>
</g>
<!-- f2C&#45;&gt;f2Daux -->
<g id="edge12" class="edge">
<title>f2C&#45;&gt;f2Daux</title>
<path fill="none" stroke="black" stroke-dasharray="5,2" d="M522.54,-195.72C518.77,-183.63 513.26,-165.97 508.63,-151.13"/>
<polygon fill="black" stroke="black" points="512.07,-150.43 505.75,-141.92 505.39,-152.51 512.07,-150.43"/>
<text text-anchor="middle" x="519.29" y="-161.7" font-family="Times,serif" font-size="14.00">0</text>
</g>
<!-- f2F -->
<g id="node15" class="node">
<title>f2F</title>
<ellipse fill="none" stroke="black" cx="579" cy="-122.5" rx="27" ry="18"/>
<text text-anchor="middle" x="579" y="-117.45" font-family="Times,serif" font-size="14.00">F</text>
</g>
<!-- f2C&#45;&gt;f2F -->
<g id="edge13" class="edge">
<title>f2C&#45;&gt;f2F</title>
<path fill="none" stroke="black" stroke-dasharray="5,2" d="M534.45,-197.61C541.96,-185.11 553.78,-165.45 563.36,-149.52"/>
<polygon fill="black" stroke="black" points="566.33,-151.38 568.48,-141 560.33,-147.77 566.33,-151.38"/>
<text text-anchor="middle" x="561.03" y="-161.7" font-family="Times,serif" font-size="14.00">1</text>
</g>
<!-- f2D -->
<g id="node13" class="node">
<title>f2D</title>
<ellipse fill="none" stroke="black" cx="576" cy="-34" rx="27" ry="18"/>
<text text-anchor="middle" x="576" y="-28.95" font-family="Times,serif" font-size="14.00">D</text>
</g>
<!-- f2Daux&#45;&gt;f2D -->
<g id="edge14" class="edge">
<title>f2Daux&#45;&gt;f2D</title>
<path fill="none" stroke="black" d="M513.94,-105.63C525.62,-92.34 542.45,-73.19 555.63,-58.18"/>
<polygon fill="black" stroke="black" points="557.94,-60.86 561.91,-51.03 552.68,-56.24 557.94,-60.86"/>
</g>
<!-- f2E -->
<g id="node16" class="node">
<title>f2E</title>
<ellipse fill="none" stroke="black" cx="651" cy="-122.5" rx="27" ry="18"/>
<text text-anchor="middle" x="651" y="-117.45" font-family="Times,serif" font-size="14.00">E</text>
</g>
<!-- f2E&#45;&gt;f2D -->
<g id="edge11" class="edge">
<title>f2E&#45;&gt;f2D</title>
<path fill="none" stroke="black" d="M637.94,-106.43C626.5,-93.24 609.69,-73.86 596.47,-58.61"/>
<polygon fill="black" stroke="black" points="599.35,-56.59 590.16,-51.33 594.06,-61.18 599.35,-56.59"/>
</g>
<!-- rP -->
<g id="node17" class="node">
<title>rP</title>
<polygon fill="aquamarine" stroke="black" points="743,-229 716,-211 743,-193 770,-211 743,-229"/>
<text text-anchor="middle" x="743" y="-205.95" font-family="Times,serif" font-size="14.00">P</text>
</g>
<!-- rQ -->
<g id="node19" class="node">
<title>rQ</title>
<ellipse fill="none" stroke="black" cx="729" cy="-122.5" rx="27" ry="18"/>
<text text-anchor="middle" x="729" y="-117.45" font-family="Times,serif" font-size="14.00">Q</text>
</g>
<!-- rP&#45;&gt;rQ -->
<g id="edge18" class="edge">
<title>rP&#45;&gt;rQ</title>
<path fill="none" stroke="black" stroke-dasharray="5,2" d="M740.43,-194.13C738.52,-182.32 735.86,-165.88 733.59,-151.83"/>
<polygon fill="black" stroke="black" points="737.09,-151.55 732.03,-142.24 730.18,-152.67 737.09,-151.55"/>
<text text-anchor="middle" x="740.63" y="-161.7" font-family="Times,serif" font-size="14.00">0</text>
</g>
<!-- rX -->
<g id="node20" class="node">
<title>rX</title>
<ellipse fill="none" stroke="black" cx="801" cy="-122.5" rx="27" ry="18"/>
<text text-anchor="middle" x="801" y="-117.45" font-family="Times,serif" font-size="14.00">X</text>
</g>
<!-- rP&#45;&gt;rX -->
<g id="edge15" class="edge">
<title>rP&#45;&gt;rX</title>
<path fill="none" stroke="black" stroke-dasharray="5,2" d="M751.06,-197.97C759.57,-185.29 773.22,-164.93 784.1,-148.7"/>
<polygon fill="black" stroke="black" points="786.95,-150.75 789.61,-140.49 781.13,-146.85 786.95,-150.75"/>
<text text-anchor="middle" x="780.57" y="-161.7" font-family="Times,serif" font-size="14.00">1</text>
</g>
<!-- rM -->
<g id="node18" class="node">
<title>rM</title>
<polygon fill="aquamarine" stroke="black" points="823,-229 795.25,-211 823,-193 850.75,-211 823,-229"/>
<text text-anchor="middle" x="823" y="-205.95" font-family="Times,serif" font-size="14.00">M</text>
</g>
<!-- rM&#45;&gt;rX -->
<g id="edge16" class="edge">
<title>rM&#45;&gt;rX</title>
<path fill="none" stroke="black" stroke-dasharray="5,2" d="M819.17,-194.93C816.12,-182.94 811.77,-165.83 808.08,-151.36"/>
<polygon fill="black" stroke="black" points="811.55,-150.76 805.69,-141.93 804.76,-152.49 811.55,-150.76"/>
<text text-anchor="middle" x="817.35" y="-161.7" font-family="Times,serif" font-size="14.00">0</text>
</g>
<!-- rN -->
<g id="node21" class="node">
<title>rN</title>
<ellipse fill="none" stroke="black" cx="873" cy="-122.5" rx="27" ry="18"/>
<text text-anchor="middle" x="873" y="-117.45" font-family="Times,serif" font-size="14.00">N</text>
</g>
<!-- rM&#45;&gt;rN -->
<g id="edge17" class="edge">
<title>rM&#45;&gt;rN</title>
<path fill="none" stroke="black" stroke-dasharray="5,2" d="M830.38,-197.24C837.6,-184.75 848.81,-165.35 857.92,-149.59"/>
<polygon fill="black" stroke="black" points="860.81,-151.58 862.78,-141.18 854.75,-148.08 860.81,-151.58"/>
<text text-anchor="middle" x="855.85" y="-161.7" font-family="Times,serif" font-size="14.00">1</text>
</g>
</g>
</svg>
