<?xml version="1.0" encoding="UTF-8" standalone="no"?>
<!DOCTYPE svg PUBLIC "-//W3C//DTD SVG 1.1//EN"
 "http://www.w3.org/Graphics/SVG/1.1/DTD/svg11.dtd">
<!-- Generated by graphviz version 12.2.1 (20241206.2353)
 -->
<!-- Title: Taskflow Pages: 1 -->
<svg width="424pt" height="189pt"
 viewBox="0.00 0.00 424.00 189.00" xmlns="http://www.w3.org/2000/svg" xmlns:xlink="http://www.w3.org/1999/xlink">
<g id="graph0" class="graph" transform="scale(1 1) rotate(0) translate(4 185)">
<title>Taskflow</title>
<polygon fill="white" stroke="none" points="-4,4 -4,-185 420,-185 420,4 -4,4"/>
<g id="clust1" class="cluster">
<title>cluster_p0x7ffc47e53358</title>
<polygon fill="none" stroke="black" points="8,-96.5 8,-173 114,-173 114,-96.5 8,-96.5"/>
<text text-anchor="middle" x="61" y="-155.7" font-family="Times,serif" font-size="14.00">Taskflow</text>
</g>
<g id="clust2" class="cluster">
<title>cluster_p0x7ffc47e53220</title>
<polygon fill="none" stroke="black" points="122,-8 122,-173 408,-173 408,-8 122,-8"/>
<text text-anchor="middle" x="265" y="-155.7" font-family="Times,serif" font-size="14.00">m1</text>
</g>
<!-- p0x1878a88 -->
<g id="node1" class="node">
<title>p0x1878a88</title>
<polygon fill="none" stroke="blue" points="106.12,-140.5 19.88,-140.5 15.88,-136.5 15.88,-104.5 102.12,-104.5 106.12,-108.5 106.12,-140.5"/>
<polyline fill="none" stroke="blue" points="102.12,-136.5 15.88,-136.5"/>
<polyline fill="none" stroke="blue" points="102.12,-136.5 102.12,-104.5"/>
<polyline fill="none" stroke="blue" points="102.12,-136.5 106.12,-140.5"/>
<text text-anchor="middle" x="61" y="-117.45" font-family="Times,serif" font-size="14.00">pipeline [m1]</text>
</g>
<!-- p0x1878600 -->
<g id="node2" class="node">
<title>p0x1878600</title>
<polygon fill="aquamarine" stroke="black" points="264,-140.5 223.23,-122.5 264,-104.5 304.77,-122.5 264,-140.5"/>
<text text-anchor="middle" x="264" y="-117.45" font-family="Times,serif" font-size="14.00">cond</text>
</g>
<!-- p0x18786e8 -->
<g id="node3" class="node">
<title>p0x18786e8</title>
<polygon fill="none" stroke="black" points="184,-52 130,-52 130,-48 126,-48 126,-44 130,-44 130,-24 126,-24 126,-20 130,-20 130,-16 184,-16 184,-52"/>
<polyline fill="none" stroke="black" points="130,-48 134,-48 134,-44 130,-44"/>
<polyline fill="none" stroke="black" points="130,-24 134,-24 134,-20 130,-20"/>
<text text-anchor="middle" x="157" y="-28.95" font-family="Times,serif" font-size="14.00">rt&#45;0</text>
</g>
<!-- p0x1878600&#45;&gt;p0x18786e8 -->
<g id="edge1" class="edge">
<title>p0x1878600&#45;&gt;p0x18786e8</title>
<path fill="none" stroke="black" stroke-dasharray="5,2" d="M250.01,-110.19C234.12,-97.35 207.73,-76.01 187.11,-59.34"/>
<polygon fill="black" stroke="black" points="189.54,-56.8 179.56,-53.24 185.14,-62.25 189.54,-56.8"/>
<text text-anchor="middle" x="223.46" y="-73.2" font-family="Times,serif" font-size="14.00">0</text>
</g>
<!-- p0x18787d0 -->
<g id="node4" class="node">
<title>p0x18787d0</title>
<polygon fill="none" stroke="black" points="256,-52 202,-52 202,-48 198,-48 198,-44 202,-44 202,-24 198,-24 198,-20 202,-20 202,-16 256,-16 256,-52"/>
<polyline fill="none" stroke="black" points="202,-48 206,-48 206,-44 202,-44"/>
<polyline fill="none" stroke="black" points="202,-24 206,-24 206,-20 202,-20"/>
<text text-anchor="middle" x="229" y="-28.95" font-family="Times,serif" font-size="14.00">rt&#45;1</text>
</g>
<!-- p0x1878600&#45;&gt;p0x18787d0 -->
<g id="edge2" class="edge">
<title>p0x1878600&#45;&gt;p0x18787d0</title>
<path fill="none" stroke="black" stroke-dasharray="5,2" d="M258.06,-106.83C253.21,-94.84 246.22,-77.56 240.31,-62.95"/>
<polygon fill="black" stroke="black" points="243.62,-61.79 236.62,-53.84 237.13,-64.42 243.62,-61.79"/>
<text text-anchor="middle" x="253.01" y="-73.2" font-family="Times,serif" font-size="14.00">1</text>
</g>
<!-- p0x18788b8 -->
<g id="node5" class="node">
<title>p0x18788b8</title>
<polygon fill="none" stroke="black" points="328,-52 274,-52 274,-48 270,-48 270,-44 274,-44 274,-24 270,-24 270,-20 274,-20 274,-16 328,-16 328,-52"/>
<polyline fill="none" stroke="black" points="274,-48 278,-48 278,-44 274,-44"/>
<polyline fill="none" stroke="black" points="274,-24 278,-24 278,-20 274,-20"/>
<text text-anchor="middle" x="301" y="-28.95" font-family="Times,serif" font-size="14.00">rt&#45;2</text>
</g>
<!-- p0x1878600&#45;&gt;p0x18788b8 -->
<g id="edge3" class="edge">
<title>p0x1878600&#45;&gt;p0x18788b8</title>
<path fill="none" stroke="black" stroke-dasharray="5,2" d="M270.28,-106.83C275.4,-94.84 282.79,-77.56 289.04,-62.95"/>
<polygon fill="black" stroke="black" points="292.23,-64.4 292.95,-53.82 285.8,-61.64 292.23,-64.4"/>
<text text-anchor="middle" x="289.19" y="-73.2" font-family="Times,serif" font-size="14.00">2</text>
</g>
<!-- p0x18789a0 -->
<g id="node6" class="node">
<title>p0x18789a0</title>
<polygon fill="none" stroke="black" points="400,-52 346,-52 346,-48 342,-48 342,-44 346,-44 346,-24 342,-24 342,-20 346,-20 346,-16 400,-16 400,-52"/>
<polyline fill="none" stroke="black" points="346,-48 350,-48 350,-44 346,-44"/>
<polyline fill="none" stroke="black" points="346,-24 350,-24 350,-20 346,-20"/>
<text text-anchor="middle" x="373" y="-28.95" font-family="Times,serif" font-size="14.00">rt&#45;3</text>
</g>
<!-- p0x1878600&#45;&gt;p0x18789a0 -->
<g id="edge4" class="edge">
<title>p0x1878600&#45;&gt;p0x18789a0</title>
<path fill="none" stroke="black" stroke-dasharray="5,2" d="M277.8,-110.54C293.87,-97.79 320.91,-76.34 342.07,-59.55"/>
<polygon fill="black" stroke="black" points="344.18,-62.34 349.84,-53.38 339.83,-56.86 344.18,-62.34"/>
<text text-anchor="middle" x="331.64" y="-73.2" font-family="Times,serif" font-size="14.00">3</text>
</g>
</g>
</svg>
