<?xml version="1.0" encoding="UTF-8" standalone="no"?>
<!DOCTYPE svg PUBLIC "-//W3C//DTD SVG 1.1//EN"
 "http://www.w3.org/Graphics/SVG/1.1/DTD/svg11.dtd">
<!-- Generated by graphviz version 2.43.0 (0)
 -->
<!-- Title: Taskflow Pages: 1 -->
<svg width="444pt" height="186pt"
 viewBox="0.00 0.00 444.00 186.00" xmlns="http://www.w3.org/2000/svg" xmlns:xlink="http://www.w3.org/1999/xlink">
<g id="graph0" class="graph" transform="scale(1 1) rotate(0) translate(4 182)">
<title>Taskflow</title>
<polygon fill="white" stroke="transparent" points="-4,4 -4,-182 440,-182 440,4 -4,4"/>
<g id="clust1" class="cluster">
<title>cluster_p0x7ffc47e53358</title>
<polygon fill="none" stroke="black" points="8,-95 8,-170 134,-170 134,-95 8,-95"/>
<text text-anchor="middle" x="71" y="-154.8" font-family="Times,serif" font-size="14.00">Taskflow</text>
</g>
<g id="clust2" class="cluster">
<title>cluster_p0x7ffc47e53220</title>
<polygon fill="none" stroke="black" points="142,-8 142,-170 428,-170 428,-8 142,-8"/>
<text text-anchor="middle" x="285" y="-154.8" font-family="Times,serif" font-size="14.00">m1</text>
</g>
<!-- p0x1878a88 -->
<g id="node1" class="node">
<title>p0x1878a88</title>
<polygon fill="none" stroke="blue" points="126.5,-139 19.5,-139 15.5,-135 15.5,-103 122.5,-103 126.5,-107 126.5,-139"/>
<polyline fill="none" stroke="blue" points="122.5,-135 15.5,-135 "/>
<polyline fill="none" stroke="blue" points="122.5,-135 122.5,-103 "/>
<polyline fill="none" stroke="blue" points="122.5,-135 126.5,-139 "/>
<text text-anchor="middle" x="71" y="-117.3" font-family="Times,serif" font-size="14.00">pipeline [m1]</text>
</g>
<!-- p0x1878600 -->
<g id="node2" class="node">
<title>p0x1878600</title>
<polygon fill="aquamarine" stroke="black" points="285,-139 239.08,-121 285,-103 330.92,-121 285,-139"/>
<text text-anchor="middle" x="285" y="-117.3" font-family="Times,serif" font-size="14.00">cond</text>
</g>
<!-- p0x18786e8 -->
<g id="node3" class="node">
<title>p0x18786e8</title>
<polygon fill="none" stroke="black" points="204,-52 150,-52 150,-48 146,-48 146,-44 150,-44 150,-24 146,-24 146,-20 150,-20 150,-16 204,-16 204,-52"/>
<polyline fill="none" stroke="black" points="150,-48 154,-48 154,-44 150,-44 "/>
<polyline fill="none" stroke="black" points="150,-24 154,-24 154,-20 150,-20 "/>
<text text-anchor="middle" x="177" y="-30.3" font-family="Times,serif" font-size="14.00">rt&#45;0</text>
</g>
<!-- p0x1878600&#45;&gt;p0x18786e8 -->
<g id="edge1" class="edge">
<title>p0x1878600&#45;&gt;p0x18786e8</title>
<path fill="none" stroke="black" stroke-dasharray="5,2" d="M270.43,-108.54C254.17,-95.73 227.41,-74.67 206.69,-58.36"/>
<polygon fill="black" stroke="black" points="208.81,-55.58 198.79,-52.15 204.48,-61.08 208.81,-55.58"/>
<text text-anchor="middle" x="242" y="-73.8" font-family="Times,serif" font-size="14.00">0</text>
</g>
<!-- p0x18787d0 -->
<g id="node4" class="node">
<title>p0x18787d0</title>
<polygon fill="none" stroke="black" points="276,-52 222,-52 222,-48 218,-48 218,-44 222,-44 222,-24 218,-24 218,-20 222,-20 222,-16 276,-16 276,-52"/>
<polyline fill="none" stroke="black" points="222,-48 226,-48 226,-44 222,-44 "/>
<polyline fill="none" stroke="black" points="222,-24 226,-24 226,-20 222,-20 "/>
<text text-anchor="middle" x="249" y="-30.3" font-family="Times,serif" font-size="14.00">rt&#45;1</text>
</g>
<!-- p0x1878600&#45;&gt;p0x18787d0 -->
<g id="edge2" class="edge">
<title>p0x1878600&#45;&gt;p0x18787d0</title>
<path fill="none" stroke="black" stroke-dasharray="5,2" d="M278.73,-105.19C273.66,-93.21 266.38,-76.03 260.29,-61.67"/>
<polygon fill="black" stroke="black" points="263.44,-60.11 256.31,-52.27 256.99,-62.84 263.44,-60.11"/>
<text text-anchor="middle" x="274" y="-73.8" font-family="Times,serif" font-size="14.00">1</text>
</g>
<!-- p0x18788b8 -->
<g id="node5" class="node">
<title>p0x18788b8</title>
<polygon fill="none" stroke="black" points="348,-52 294,-52 294,-48 290,-48 290,-44 294,-44 294,-24 290,-24 290,-20 294,-20 294,-16 348,-16 348,-52"/>
<polyline fill="none" stroke="black" points="294,-48 298,-48 298,-44 294,-44 "/>
<polyline fill="none" stroke="black" points="294,-24 298,-24 298,-20 294,-20 "/>
<text text-anchor="middle" x="321" y="-30.3" font-family="Times,serif" font-size="14.00">rt&#45;2</text>
</g>
<!-- p0x1878600&#45;&gt;p0x18788b8 -->
<g id="edge3" class="edge">
<title>p0x1878600&#45;&gt;p0x18788b8</title>
<path fill="none" stroke="black" stroke-dasharray="5,2" d="M291.27,-105.19C296.34,-93.21 303.62,-76.03 309.71,-61.67"/>
<polygon fill="black" stroke="black" points="313.01,-62.84 313.69,-52.27 306.56,-60.11 313.01,-62.84"/>
<text text-anchor="middle" x="310" y="-73.8" font-family="Times,serif" font-size="14.00">2</text>
</g>
<!-- p0x18789a0 -->
<g id="node6" class="node">
<title>p0x18789a0</title>
<polygon fill="none" stroke="black" points="420,-52 366,-52 366,-48 362,-48 362,-44 366,-44 366,-24 362,-24 362,-20 366,-20 366,-16 420,-16 420,-52"/>
<polyline fill="none" stroke="black" points="366,-48 370,-48 370,-44 366,-44 "/>
<polyline fill="none" stroke="black" points="366,-24 370,-24 370,-20 366,-20 "/>
<text text-anchor="middle" x="393" y="-30.3" font-family="Times,serif" font-size="14.00">rt&#45;3</text>
</g>
<!-- p0x1878600&#45;&gt;p0x18789a0 -->
<g id="edge4" class="edge">
<title>p0x1878600&#45;&gt;p0x18789a0</title>
<path fill="none" stroke="black" stroke-dasharray="5,2" d="M299.57,-108.54C315.83,-95.73 342.59,-74.67 363.31,-58.36"/>
<polygon fill="black" stroke="black" points="365.52,-61.08 371.21,-52.15 361.19,-55.58 365.52,-61.08"/>
<text text-anchor="middle" x="350" y="-73.8" font-family="Times,serif" font-size="14.00">3</text>
</g>
</g>
</svg>
