<?xml version="1.0" encoding="UTF-8" standalone="no"?>
<!DOCTYPE svg PUBLIC "-//W3C//DTD SVG 1.1//EN"
 "http://www.w3.org/Graphics/SVG/1.1/DTD/svg11.dtd">
<!-- Generated by graphviz version 12.2.1 (20241206.2353)
 -->
<!-- Title: IndexRange2D Pages: 1 -->
<svg width="432pt" height="355pt"
 viewBox="0.00 0.00 432.00 355.25" xmlns="http://www.w3.org/2000/svg" xmlns:xlink="http://www.w3.org/1999/xlink">
<g id="graph0" class="graph" transform="scale(1 1) rotate(0) translate(4 351.25)">
<title>IndexRange2D</title>
<polygon fill="white" stroke="none" points="-4,4 -4,-351.25 428,-351.25 428,4 -4,4"/>
<!-- col_header -->
<g id="node1" class="node">
<title>col_header</title>
<text text-anchor="start" x="97.75" y="-325.98" font-family="Arial" font-weight="bold" font-size="12.00">j=0</text>
<text text-anchor="start" x="161.75" y="-325.98" font-family="Arial" font-weight="bold" font-size="12.00">j=1</text>
<text text-anchor="start" x="225.75" y="-325.98" font-family="Arial" font-weight="bold" font-size="12.00">j=2</text>
<text text-anchor="start" x="289.75" y="-325.98" font-family="Arial" font-weight="bold" font-size="12.00">j=3</text>
<text text-anchor="start" x="334" y="-324.98" font-family="Arial" font-size="12.00">← dim 1</text>
</g>
<!-- row0 -->
<g id="node2" class="node">
<title>row0</title>
<polygon fill="#d6eaf8" stroke="none" points="61,-237 61,-271.25 363,-271.25 363,-237 61,-237"/>
<polygon fill="#aed6f1" stroke="none" points="62,-238 62,-270.25 122,-270.25 122,-238 62,-238"/>
<polygon fill="none" stroke="black" points="62,-238 62,-270.25 122,-270.25 122,-238 62,-238"/>
<text text-anchor="start" x="83.75" y="-250.85" font-family="Arial" font-weight="bold" font-size="12.00">i=0</text>
<polygon fill="none" stroke="black" points="122,-238 122,-270.25 182,-270.25 182,-238 122,-238"/>
<text text-anchor="start" x="140" y="-249.85" font-family="Arial" font-size="12.00">(0,0)</text>
<polygon fill="none" stroke="black" points="182,-238 182,-270.25 242,-270.25 242,-238 182,-238"/>
<text text-anchor="start" x="200" y="-249.85" font-family="Arial" font-size="12.00">(0,1)</text>
<polygon fill="none" stroke="black" points="242,-238 242,-270.25 302,-270.25 302,-238 242,-238"/>
<text text-anchor="start" x="260" y="-249.85" font-family="Arial" font-size="12.00">(0,2)</text>
<polygon fill="none" stroke="black" points="302,-238 302,-270.25 362,-270.25 362,-238 302,-238"/>
<text text-anchor="start" x="320" y="-249.85" font-family="Arial" font-size="12.00">(0,3)</text>
<polygon fill="none" stroke="black" points="61,-237 61,-271.25 363,-271.25 363,-237 61,-237"/>
</g>
<!-- col_header&#45;&gt;row0 -->
<!-- row1 -->
<g id="node3" class="node">
<title>row1</title>
<polygon fill="#d6eaf8" stroke="none" points="61,-158.75 61,-193 363,-193 363,-158.75 61,-158.75"/>
<polygon fill="#aed6f1" stroke="none" points="62,-159.75 62,-192 122,-192 122,-159.75 62,-159.75"/>
<polygon fill="none" stroke="black" points="62,-159.75 62,-192 122,-192 122,-159.75 62,-159.75"/>
<text text-anchor="start" x="83.75" y="-172.6" font-family="Arial" font-weight="bold" font-size="12.00">i=1</text>
<polygon fill="none" stroke="black" points="122,-159.75 122,-192 182,-192 182,-159.75 122,-159.75"/>
<text text-anchor="start" x="140" y="-171.6" font-family="Arial" font-size="12.00">(1,0)</text>
<polygon fill="none" stroke="black" points="182,-159.75 182,-192 242,-192 242,-159.75 182,-159.75"/>
<text text-anchor="start" x="200" y="-171.6" font-family="Arial" font-size="12.00">(1,1)</text>
<polygon fill="none" stroke="black" points="242,-159.75 242,-192 302,-192 302,-159.75 242,-159.75"/>
<text text-anchor="start" x="260" y="-171.6" font-family="Arial" font-size="12.00">(1,2)</text>
<polygon fill="none" stroke="black" points="302,-159.75 302,-192 362,-192 362,-159.75 302,-159.75"/>
<text text-anchor="start" x="320" y="-171.6" font-family="Arial" font-size="12.00">(1,3)</text>
<polygon fill="none" stroke="black" points="61,-158.75 61,-193 363,-193 363,-158.75 61,-158.75"/>
</g>
<!-- row0&#45;&gt;row1 -->
<!-- row2 -->
<g id="node4" class="node">
<title>row2</title>
<polygon fill="#d6eaf8" stroke="none" points="61,-80.5 61,-114.75 363,-114.75 363,-80.5 61,-80.5"/>
<polygon fill="#aed6f1" stroke="none" points="62,-81.5 62,-113.75 122,-113.75 122,-81.5 62,-81.5"/>
<polygon fill="none" stroke="black" points="62,-81.5 62,-113.75 122,-113.75 122,-81.5 62,-81.5"/>
<text text-anchor="start" x="83.75" y="-94.35" font-family="Arial" font-weight="bold" font-size="12.00">i=2</text>
<polygon fill="none" stroke="black" points="122,-81.5 122,-113.75 182,-113.75 182,-81.5 122,-81.5"/>
<text text-anchor="start" x="140" y="-93.35" font-family="Arial" font-size="12.00">(2,0)</text>
<polygon fill="none" stroke="black" points="182,-81.5 182,-113.75 242,-113.75 242,-81.5 182,-81.5"/>
<text text-anchor="start" x="200" y="-93.35" font-family="Arial" font-size="12.00">(2,1)</text>
<polygon fill="none" stroke="black" points="242,-81.5 242,-113.75 302,-113.75 302,-81.5 242,-81.5"/>
<text text-anchor="start" x="260" y="-93.35" font-family="Arial" font-size="12.00">(2,2)</text>
<polygon fill="none" stroke="black" points="302,-81.5 302,-113.75 362,-113.75 362,-81.5 302,-81.5"/>
<text text-anchor="start" x="320" y="-93.35" font-family="Arial" font-size="12.00">(2,3)</text>
<polygon fill="none" stroke="black" points="61,-80.5 61,-114.75 363,-114.75 363,-80.5 61,-80.5"/>
</g>
<!-- row1&#45;&gt;row2 -->
<!-- dim0_label -->
<g id="node5" class="node">
<title>dim0_label</title>
<text text-anchor="start" x="209" y="-23.1" font-family="Arial" font-size="12.00">↑</text>
<text text-anchor="start" x="197.38" y="-8.85" font-family="Arial" font-size="12.00">dim 0</text>
</g>
<!-- row2&#45;&gt;dim0_label -->
</g>
</svg>
