<?xml version="1.0" encoding="UTF-8" standalone="no"?>
<!DOCTYPE svg PUBLIC "-//W3C//DTD SVG 1.1//EN"
 "http://www.w3.org/Graphics/SVG/1.1/DTD/svg11.dtd">
<!-- Generated by graphviz version 2.43.0 (0)
 -->
<!-- Title: Taskflow Pages: 1 -->
<svg width="555pt" height="315pt"
 viewBox="0.00 0.00 555.00 315.00" xmlns="http://www.w3.org/2000/svg" xmlns:xlink="http://www.w3.org/1999/xlink">
<g id="graph0" class="graph" transform="scale(1 1) rotate(0) translate(4 311)">
<title>Taskflow</title>
<polygon fill="white" stroke="transparent" points="-4,4 -4,-311 551,-311 551,4 -4,4"/>
<g id="clust1" class="cluster">
<title>cluster_p0x7ffee9223970</title>
<polygon fill="none" stroke="black" points="8,-8 8,-299 389,-299 389,-8 8,-8"/>
<text text-anchor="middle" x="198.5" y="-283.8" font-family="Times,serif" font-size="14.00">Taskflow: F2</text>
</g>
<g id="clust2" class="cluster">
<title>cluster_p0x7ffee92238d0</title>
<polygon fill="none" stroke="black" points="397,-152 397,-299 539,-299 539,-152 397,-152"/>
<text text-anchor="middle" x="468" y="-283.8" font-family="Times,serif" font-size="14.00">Taskflow: F1</text>
</g>
<!-- p0x7f816f402b60 -->
<g id="node1" class="node">
<title>p0x7f816f402b60</title>
<ellipse fill="none" stroke="black" cx="145" cy="-250" rx="27" ry="18"/>
<text text-anchor="middle" x="145" y="-246.3" font-family="Times,serif" font-size="14.00">f2A</text>
</g>
<!-- p0x7f816f402d80 -->
<g id="node2" class="node">
<title>p0x7f816f402d80</title>
<ellipse fill="none" stroke="black" cx="124" cy="-178" rx="27" ry="18"/>
<text text-anchor="middle" x="124" y="-174.3" font-family="Times,serif" font-size="14.00">f2C</text>
</g>
<!-- p0x7f816f402b60&#45;&gt;p0x7f816f402d80 -->
<g id="edge1" class="edge">
<title>p0x7f816f402b60&#45;&gt;p0x7f816f402d80</title>
<path fill="none" stroke="black" d="M139.92,-232.05C137.52,-224.06 134.6,-214.33 131.92,-205.4"/>
<polygon fill="black" stroke="black" points="135.26,-204.36 129.04,-195.79 128.56,-206.37 135.26,-204.36"/>
</g>
<!-- p0x7f816f402fa0 -->
<g id="node4" class="node">
<title>p0x7f816f402fa0</title>
<polygon fill="none" stroke="blue" points="189.5,-124 20.5,-124 16.5,-120 16.5,-88 185.5,-88 189.5,-92 189.5,-124"/>
<polyline fill="none" stroke="blue" points="185.5,-120 16.5,-120 "/>
<polyline fill="none" stroke="blue" points="185.5,-120 185.5,-88 "/>
<polyline fill="none" stroke="blue" points="185.5,-120 189.5,-124 "/>
<text text-anchor="middle" x="103" y="-102.3" font-family="Times,serif" font-size="14.00">module [Taskflow: F1]</text>
</g>
<!-- p0x7f816f402d80&#45;&gt;p0x7f816f402fa0 -->
<g id="edge3" class="edge">
<title>p0x7f816f402d80&#45;&gt;p0x7f816f402fa0</title>
<path fill="none" stroke="black" d="M118.92,-160.05C116.58,-152.26 113.75,-142.82 111.12,-134.08"/>
<polygon fill="black" stroke="black" points="114.41,-132.85 108.18,-124.28 107.7,-134.86 114.41,-132.85"/>
</g>
<!-- p0x7f816f402fa1 -->
<g id="node6" class="node">
<title>p0x7f816f402fa1</title>
<polygon fill="none" stroke="blue" points="380.5,-124 211.5,-124 207.5,-120 207.5,-88 376.5,-88 380.5,-92 380.5,-124"/>
<polyline fill="none" stroke="blue" points="376.5,-120 207.5,-120 "/>
<polyline fill="none" stroke="blue" points="376.5,-120 376.5,-88 "/>
<polyline fill="none" stroke="blue" points="376.5,-120 380.5,-124 "/>
<text text-anchor="middle" x="294" y="-102.3" font-family="Times,serif" font-size="14.00">module [Taskflow: F1]</text>
</g>
<!-- p0x7f816f402d80&#45;&gt;p0x7f816f402fa1 -->
<g id="edge6" class="edge">
<title>p0x7f816f402d80&#45;&gt;p0x7f816f402fa1</title>
<path fill="none" stroke="black" d="M146.57,-167.7C171.15,-157.58 211.25,-141.07 243.43,-127.82"/>
<polygon fill="black" stroke="black" points="244.79,-131.05 252.71,-124 242.13,-124.57 244.79,-131.05"/>
</g>
<!-- p0x7f816f402c70 -->
<g id="node3" class="node">
<title>p0x7f816f402c70</title>
<ellipse fill="none" stroke="black" cx="73" cy="-250" rx="27" ry="18"/>
<text text-anchor="middle" x="73" y="-246.3" font-family="Times,serif" font-size="14.00">f2B</text>
</g>
<!-- p0x7f816f402c70&#45;&gt;p0x7f816f402d80 -->
<g id="edge2" class="edge">
<title>p0x7f816f402c70&#45;&gt;p0x7f816f402d80</title>
<path fill="none" stroke="black" d="M84.32,-233.46C90.92,-224.4 99.38,-212.79 106.8,-202.61"/>
<polygon fill="black" stroke="black" points="109.65,-204.64 112.71,-194.49 104,-200.51 109.65,-204.64"/>
</g>
<!-- p0x7f816f402e90 -->
<g id="node5" class="node">
<title>p0x7f816f402e90</title>
<ellipse fill="none" stroke="black" cx="198" cy="-34" rx="27.1" ry="18"/>
<text text-anchor="middle" x="198" y="-30.3" font-family="Times,serif" font-size="14.00">f2D</text>
</g>
<!-- p0x7f816f402fa0&#45;&gt;p0x7f816f402e90 -->
<g id="edge5" class="edge">
<title>p0x7f816f402fa0&#45;&gt;p0x7f816f402e90</title>
<path fill="none" stroke="black" d="M126.48,-87.7C140.32,-77.5 157.84,-64.59 172.07,-54.1"/>
<polygon fill="black" stroke="black" points="174.48,-56.68 180.45,-47.93 170.32,-51.05 174.48,-56.68"/>
</g>
<!-- p0x7f816f402fa1&#45;&gt;p0x7f816f402e90 -->
<g id="edge4" class="edge">
<title>p0x7f816f402fa1&#45;&gt;p0x7f816f402e90</title>
<path fill="none" stroke="black" d="M270.27,-87.7C256.29,-77.5 238.59,-64.59 224.2,-54.1"/>
<polygon fill="black" stroke="black" points="225.88,-50.99 215.73,-47.93 221.75,-56.65 225.88,-50.99"/>
</g>
<!-- p0x7f816f402830 -->
<g id="node7" class="node">
<title>p0x7f816f402830</title>
<ellipse fill="none" stroke="black" cx="504" cy="-250" rx="27" ry="18"/>
<text text-anchor="middle" x="504" y="-246.3" font-family="Times,serif" font-size="14.00">f1A</text>
</g>
<!-- p0x7f816f402a50 -->
<g id="node8" class="node">
<title>p0x7f816f402a50</title>
<ellipse fill="none" stroke="black" cx="468" cy="-178" rx="27" ry="18"/>
<text text-anchor="middle" x="468" y="-174.3" font-family="Times,serif" font-size="14.00">f1C</text>
</g>
<!-- p0x7f816f402830&#45;&gt;p0x7f816f402a50 -->
<g id="edge7" class="edge">
<title>p0x7f816f402830&#45;&gt;p0x7f816f402a50</title>
<path fill="none" stroke="black" d="M495.65,-232.76C491.29,-224.28 485.85,-213.71 480.96,-204.2"/>
<polygon fill="black" stroke="black" points="483.99,-202.44 476.3,-195.15 477.77,-205.64 483.99,-202.44"/>
</g>
<!-- p0x7f816f402940 -->
<g id="node9" class="node">
<title>p0x7f816f402940</title>
<ellipse fill="none" stroke="black" cx="432" cy="-250" rx="27" ry="18"/>
<text text-anchor="middle" x="432" y="-246.3" font-family="Times,serif" font-size="14.00">f1B</text>
</g>
<!-- p0x7f816f402940&#45;&gt;p0x7f816f402a50 -->
<g id="edge8" class="edge">
<title>p0x7f816f402940&#45;&gt;p0x7f816f402a50</title>
<path fill="none" stroke="black" d="M440.35,-232.76C444.71,-224.28 450.15,-213.71 455.04,-204.2"/>
<polygon fill="black" stroke="black" points="458.23,-205.64 459.7,-195.15 452.01,-202.44 458.23,-205.64"/>
</g>
</g>
</svg>
