<?xml version="1.0" encoding="UTF-8" standalone="no"?>
<!DOCTYPE svg PUBLIC "-//W3C//DTD SVG 1.1//EN"
 "http://www.w3.org/Graphics/SVG/1.1/DTD/svg11.dtd">
<!-- Generated by graphviz version 12.2.1 (20241206.2353)
 -->
<!-- Title: BuildGraphWrong Pages: 1 -->
<svg width="469pt" height="392pt"
 viewBox="0.00 0.00 469.30 392.08" xmlns="http://www.w3.org/2000/svg" xmlns:xlink="http://www.w3.org/1999/xlink">
<g id="graph0" class="graph" transform="scale(1 1) rotate(0) translate(4 388.08)">
<title>BuildGraphWrong</title>
<polygon fill="white" stroke="none" points="-4,4 -4,-388.08 465.3,-388.08 465.3,4 -4,4"/>
<!-- main_c -->
<g id="node1" class="node">
<title>main_c</title>
<polygon fill="#cce5ff" stroke="black" points="54,-182.08 0,-182.08 0,-161.92 54,-161.92 54,-182.08"/>
<text text-anchor="middle" x="27" y="-168.32" font-family="Helvetica,sans-Serif" font-size="9.00">main.c</text>
</g>
<!-- main_cond -->
<g id="node6" class="node">
<title>main_cond</title>
<polygon fill="aquamarine" stroke="black" points="168.4,-187.51 121,-172 168.4,-156.49 215.8,-172 168.4,-187.51"/>
<text text-anchor="middle" x="168.4" y="-168.32" font-family="Helvetica,sans-Serif" font-size="9.00">main.o?</text>
</g>
<!-- main_c&#45;&gt;main_cond -->
<g id="edge1" class="edge">
<title>main_c&#45;&gt;main_cond</title>
<path fill="none" stroke="#555555" d="M54.22,-172C70.59,-172 92.28,-172 112.29,-172"/>
<polygon fill="#555555" stroke="#555555" points="112.06,-174.1 118.06,-172 112.06,-169.9 112.06,-174.1"/>
</g>
<!-- util_c -->
<g id="node2" class="node">
<title>util_c</title>
<polygon fill="#cce5ff" stroke="black" points="54,-329.08 0,-329.08 0,-308.92 54,-308.92 54,-329.08"/>
<text text-anchor="middle" x="27" y="-315.32" font-family="Helvetica,sans-Serif" font-size="9.00">util.c</text>
</g>
<!-- util_cond -->
<g id="node7" class="node">
<title>util_cond</title>
<polygon fill="aquamarine" stroke="black" points="168.4,-328.51 129.25,-313 168.4,-297.49 207.55,-313 168.4,-328.51"/>
<text text-anchor="middle" x="168.4" y="-309.32" font-family="Helvetica,sans-Serif" font-size="9.00">util.o?</text>
</g>
<!-- util_c&#45;&gt;util_cond -->
<g id="edge4" class="edge">
<title>util_c&#45;&gt;util_cond</title>
<path fill="none" stroke="#555555" d="M54.22,-317.87C74,-317.02 101.57,-315.83 124.54,-314.84"/>
<polygon fill="#555555" stroke="#555555" points="124.41,-316.95 130.31,-314.59 124.23,-312.75 124.41,-316.95"/>
</g>
<!-- util_h -->
<g id="node3" class="node">
<title>util_h</title>
<polygon fill="#cce5ff" stroke="black" points="54,-256.08 0,-256.08 0,-235.92 54,-235.92 54,-256.08"/>
<text text-anchor="middle" x="27" y="-242.32" font-family="Helvetica,sans-Serif" font-size="9.00">util.h</text>
</g>
<!-- util_h&#45;&gt;main_cond -->
<g id="edge2" class="edge">
<title>util_h&#45;&gt;main_cond</title>
<path fill="none" stroke="#555555" d="M47.68,-235.55C72.58,-222.33 115.5,-199.55 142.62,-185.15"/>
<polygon fill="#555555" stroke="#555555" points="143.5,-187.06 147.82,-182.39 141.53,-183.35 143.5,-187.06"/>
</g>
<!-- util_h&#45;&gt;util_cond -->
<g id="edge5" class="edge">
<title>util_h&#45;&gt;util_cond</title>
<path fill="none" stroke="#555555" d="M49.78,-256.47C75.09,-268.63 116.73,-288.64 143.07,-301.3"/>
<polygon fill="#555555" stroke="#555555" points="142.06,-303.15 148.38,-303.86 143.88,-299.36 142.06,-303.15"/>
</g>
<!-- math_c -->
<g id="node4" class="node">
<title>math_c</title>
<polygon fill="#cce5ff" stroke="black" points="54,-35.08 0,-35.08 0,-14.92 54,-14.92 54,-35.08"/>
<text text-anchor="middle" x="27" y="-21.32" font-family="Helvetica,sans-Serif" font-size="9.00">math.c</text>
</g>
<!-- math_cond -->
<g id="node8" class="node">
<title>math_cond</title>
<polygon fill="aquamarine" stroke="black" points="168.4,-51.51 121,-36 168.4,-20.49 215.8,-36 168.4,-51.51"/>
<text text-anchor="middle" x="168.4" y="-32.32" font-family="Helvetica,sans-Serif" font-size="9.00">math.o?</text>
</g>
<!-- math_c&#45;&gt;math_cond -->
<g id="edge6" class="edge">
<title>math_c&#45;&gt;math_cond</title>
<path fill="none" stroke="#555555" d="M54.22,-27.07C73.14,-28.56 99.17,-30.61 121.51,-32.38"/>
<polygon fill="#555555" stroke="#555555" points="121.27,-34.46 127.41,-32.84 121.6,-30.28 121.27,-34.46"/>
</g>
<!-- math_h -->
<g id="node5" class="node">
<title>math_h</title>
<polygon fill="#cce5ff" stroke="black" points="54,-109.08 0,-109.08 0,-88.92 54,-88.92 54,-109.08"/>
<text text-anchor="middle" x="27" y="-95.32" font-family="Helvetica,sans-Serif" font-size="9.00">math.h</text>
</g>
<!-- math_h&#45;&gt;main_cond -->
<g id="edge3" class="edge">
<title>math_h&#45;&gt;main_cond</title>
<path fill="none" stroke="#555555" d="M47.97,-109.46C72.96,-122.54 115.73,-144.94 142.73,-159.08"/>
<polygon fill="#555555" stroke="#555555" points="141.61,-160.86 147.9,-161.78 143.56,-157.14 141.61,-160.86"/>
</g>
<!-- math_h&#45;&gt;math_cond -->
<g id="edge7" class="edge">
<title>math_h&#45;&gt;math_cond</title>
<path fill="none" stroke="#555555" d="M51.33,-88.45C76.09,-77.26 115.14,-59.62 141.01,-47.93"/>
<polygon fill="#555555" stroke="#555555" points="141.62,-49.95 146.23,-45.57 139.89,-46.12 141.62,-49.95"/>
</g>
<!-- main_cc -->
<g id="node9" class="node">
<title>main_cc</title>
<polygon fill="#fff3cd" stroke="black" points="340.3,-222.08 286.3,-222.08 286.3,-201.92 340.3,-201.92 340.3,-222.08"/>
<text text-anchor="middle" x="313.3" y="-208.32" font-family="Helvetica,sans-Serif" font-size="9.00">cc main.o</text>
</g>
<!-- main_cond&#45;&gt;main_cc -->
<g id="edge8" class="edge">
<title>main_cond&#45;&gt;main_cc</title>
<path fill="none" stroke="#555555" stroke-dasharray="5,2" d="M194.95,-179.15C218.43,-185.72 253.38,-195.51 279.04,-202.69"/>
<polygon fill="#555555" stroke="#555555" points="278.21,-204.63 284.55,-204.23 279.34,-200.59 278.21,-204.63"/>
<text text-anchor="middle" x="251.05" y="-195.79" font-family="Helvetica,sans-Serif" font-size="8.00">1</text>
</g>
<!-- app -->
<g id="node12" class="node">
<title>app</title>
<polygon fill="#f8d7da" stroke="crimson" stroke-width="2.5" points="461.3,-191.08 407.3,-191.08 407.3,-170.92 461.3,-170.92 461.3,-191.08"/>
<text text-anchor="middle" x="434.3" y="-177.32" font-family="Helvetica,sans-Serif" font-size="9.00">app</text>
<text text-anchor="middle" x="368.3" y="-162.37" font-family="Helvetica,sans-Serif" font-size="9.00">⚠ task race:</text>
<text text-anchor="middle" x="368.3" y="-151.87" font-family="Helvetica,sans-Serif" font-size="9.00">scheduled up to 3×</text>
</g>
<!-- main_cond&#45;&gt;app -->
<g id="edge9" class="edge">
<title>main_cond&#45;&gt;app</title>
<path fill="none" stroke="crimson" stroke-dasharray="5,2" d="M212.28,-170.34C246.86,-169.34 296.75,-168.66 340.3,-171 359.88,-172.05 381.68,-174.33 399.25,-176.45"/>
<polygon fill="crimson" stroke="crimson" points="398.79,-178.51 405,-177.16 399.3,-174.34 398.79,-178.51"/>
<text text-anchor="middle" x="313.3" y="-172.4" font-family="Helvetica,sans-Serif" font-size="8.00" fill="crimson">0</text>
</g>
<!-- util_cc -->
<g id="node10" class="node">
<title>util_cc</title>
<polygon fill="#fff3cd" stroke="black" points="340.3,-384.08 286.3,-384.08 286.3,-363.92 340.3,-363.92 340.3,-384.08"/>
<text text-anchor="middle" x="313.3" y="-370.32" font-family="Helvetica,sans-Serif" font-size="9.00">cc util.o</text>
</g>
<!-- util_cond&#45;&gt;util_cc -->
<g id="edge10" class="edge">
<title>util_cond&#45;&gt;util_cc</title>
<path fill="none" stroke="#555555" stroke-dasharray="5,2" d="M188.38,-321.1C212.03,-331.2 252.79,-348.6 281.08,-360.67"/>
<polygon fill="#555555" stroke="#555555" points="280.25,-362.6 286.59,-363.02 281.9,-358.74 280.25,-362.6"/>
<text text-anchor="middle" x="251.05" y="-348.55" font-family="Helvetica,sans-Serif" font-size="8.00">1</text>
</g>
<!-- util_cond&#45;&gt;app -->
<g id="edge11" class="edge">
<title>util_cond&#45;&gt;app</title>
<path fill="none" stroke="crimson" stroke-dasharray="5,2" d="M192.04,-306.35C231.05,-294.34 312.65,-266.73 374.3,-229 389.45,-219.72 404.98,-206.94 416.29,-196.9"/>
<polygon fill="crimson" stroke="crimson" points="417.63,-198.52 420.68,-192.94 414.82,-195.4 417.63,-198.52"/>
<text text-anchor="middle" x="313.3" y="-273.76" font-family="Helvetica,sans-Serif" font-size="8.00" fill="crimson">0</text>
</g>
<!-- math_cc -->
<g id="node11" class="node">
<title>math_cc</title>
<polygon fill="#fff3cd" stroke="black" points="340.3,-64.08 286.3,-64.08 286.3,-43.92 340.3,-43.92 340.3,-64.08"/>
<text text-anchor="middle" x="313.3" y="-50.32" font-family="Helvetica,sans-Serif" font-size="9.00">cc math.o</text>
</g>
<!-- math_cond&#45;&gt;math_cc -->
<g id="edge12" class="edge">
<title>math_cond&#45;&gt;math_cc</title>
<path fill="none" stroke="#555555" stroke-dasharray="5,2" d="M203.99,-40.35C226.7,-43.22 256.25,-46.94 278.75,-49.77"/>
<polygon fill="#555555" stroke="#555555" points="278.37,-51.84 284.58,-50.51 278.89,-47.67 278.37,-51.84"/>
<text text-anchor="middle" x="251.05" y="-47.48" font-family="Helvetica,sans-Serif" font-size="8.00">1</text>
</g>
<!-- math_cond&#45;&gt;app -->
<g id="edge13" class="edge">
<title>math_cond&#45;&gt;app</title>
<path fill="none" stroke="crimson" stroke-dasharray="5,2" d="M187.85,-26.44C220.89,-10.77 291.3,15.89 340.3,-13 396.61,-46.19 421.21,-127.07 429.65,-163.14"/>
<polygon fill="crimson" stroke="crimson" points="427.52,-163.24 430.88,-168.64 431.62,-162.33 427.52,-163.24"/>
<text text-anchor="middle" x="313.3" y="-14.4" font-family="Helvetica,sans-Serif" font-size="8.00" fill="crimson">0</text>
</g>
<!-- main_cc&#45;&gt;app -->
<g id="edge14" class="edge">
<title>main_cc&#45;&gt;app</title>
<path fill="none" stroke="#555555" d="M340.71,-205.12C358,-200.61 380.75,-194.69 399.38,-189.83"/>
<polygon fill="#555555" stroke="#555555" points="399.81,-191.89 405.09,-188.35 398.75,-187.83 399.81,-191.89"/>
</g>
<!-- util_cc&#45;&gt;app -->
<g id="edge15" class="edge">
<title>util_cc&#45;&gt;app</title>
<path fill="none" stroke="#555555" d="M340.73,-363.96C352.36,-358.41 365.37,-350.48 374.3,-340 410.37,-297.63 425.34,-231.17 430.7,-199.27"/>
<polygon fill="#555555" stroke="#555555" points="432.76,-199.69 431.63,-193.44 428.61,-199.03 432.76,-199.69"/>
</g>
<!-- math_cc&#45;&gt;app -->
<g id="edge16" class="edge">
<title>math_cc&#45;&gt;app</title>
<path fill="none" stroke="#555555" d="M324.07,-64.42C335.95,-77.08 356.6,-99.1 374.3,-118 389.23,-133.93 406.27,-152.13 418.19,-164.86"/>
<polygon fill="#555555" stroke="#555555" points="416.61,-166.25 422.25,-169.19 419.68,-163.37 416.61,-166.25"/>
</g>
</g>
</svg>
