<?xml version="1.0" encoding="UTF-8" standalone="no"?>
<!DOCTYPE svg PUBLIC "-//W3C//DTD SVG 1.1//EN"
 "http://www.w3.org/Graphics/SVG/1.1/DTD/svg11.dtd">
<!-- Generated by graphviz version 12.2.1 (20241206.2353)
 -->
<!-- Title: FlatLinearization Pages: 1 -->
<svg width="355pt" height="315pt"
 viewBox="0.00 0.00 354.75 315.25" xmlns="http://www.w3.org/2000/svg" xmlns:xlink="http://www.w3.org/1999/xlink">
<g id="graph0" class="graph" transform="scale(1 1) rotate(0) translate(4 311.25)">
<title>FlatLinearization</title>
<polygon fill="white" stroke="none" points="-4,4 -4,-311.25 350.75,-311.25 350.75,4 -4,4"/>
<!-- title -->
<g id="node1" class="node">
<title>title</title>
<text text-anchor="middle" x="173.38" y="-290.4" font-family="Helvetica,sans-Serif" font-size="13.00">Row&#45;major flat index linearization for a 3x4 IndexRange</text>
<text text-anchor="middle" x="173.38" y="-276.9" font-family="Helvetica,sans-Serif" font-size="13.00">flat = i*4 + j, &#160;&#160;size() = 12</text>
</g>
<!-- grid -->
<g id="node2" class="node">
<title>grid</title>
<polygon fill="#fdfefe" stroke="none" points="34.88,-90.25 34.88,-231.25 311.88,-231.25 311.88,-90.25 34.88,-90.25"/>
<polygon fill="#d5d8dc" stroke="none" points="35.88,-195.5 35.88,-230.25 90.88,-230.25 90.88,-195.5 35.88,-195.5"/>
<polygon fill="none" stroke="black" points="35.88,-195.5 35.88,-230.25 90.88,-230.25 90.88,-195.5 35.88,-195.5"/>
<text text-anchor="start" x="61.88" y="-208.85" font-family="Helvetica,sans-Serif" font-weight="bold" font-size="12.00"> </text>
<polygon fill="#d5d8dc" stroke="none" points="90.88,-195.5 90.88,-230.25 145.88,-230.25 145.88,-195.5 90.88,-195.5"/>
<polygon fill="none" stroke="black" points="90.88,-195.5 90.88,-230.25 145.88,-230.25 145.88,-195.5 90.88,-195.5"/>
<text text-anchor="start" x="110.12" y="-208.85" font-family="Helvetica,sans-Serif" font-weight="bold" font-size="12.00">j=0</text>
<polygon fill="#d5d8dc" stroke="none" points="145.88,-195.5 145.88,-230.25 200.88,-230.25 200.88,-195.5 145.88,-195.5"/>
<polygon fill="none" stroke="black" points="145.88,-195.5 145.88,-230.25 200.88,-230.25 200.88,-195.5 145.88,-195.5"/>
<text text-anchor="start" x="165.12" y="-208.85" font-family="Helvetica,sans-Serif" font-weight="bold" font-size="12.00">j=1</text>
<polygon fill="#d5d8dc" stroke="none" points="200.88,-195.5 200.88,-230.25 255.88,-230.25 255.88,-195.5 200.88,-195.5"/>
<polygon fill="none" stroke="black" points="200.88,-195.5 200.88,-230.25 255.88,-230.25 255.88,-195.5 200.88,-195.5"/>
<text text-anchor="start" x="220.12" y="-208.85" font-family="Helvetica,sans-Serif" font-weight="bold" font-size="12.00">j=2</text>
<polygon fill="#d5d8dc" stroke="none" points="255.88,-195.5 255.88,-230.25 310.88,-230.25 310.88,-195.5 255.88,-195.5"/>
<polygon fill="none" stroke="black" points="255.88,-195.5 255.88,-230.25 310.88,-230.25 310.88,-195.5 255.88,-195.5"/>
<text text-anchor="start" x="275.12" y="-208.85" font-family="Helvetica,sans-Serif" font-weight="bold" font-size="12.00">j=3</text>
<polygon fill="#d5d8dc" stroke="none" points="35.88,-160.75 35.88,-195.5 90.88,-195.5 90.88,-160.75 35.88,-160.75"/>
<polygon fill="none" stroke="black" points="35.88,-160.75 35.88,-195.5 90.88,-195.5 90.88,-160.75 35.88,-160.75"/>
<text text-anchor="start" x="55.12" y="-174.1" font-family="Helvetica,sans-Serif" font-weight="bold" font-size="12.00">i=0</text>
<polygon fill="#aed6f1" stroke="none" points="90.88,-160.75 90.88,-195.5 145.88,-195.5 145.88,-160.75 90.88,-160.75"/>
<polygon fill="none" stroke="black" points="90.88,-160.75 90.88,-195.5 145.88,-195.5 145.88,-160.75 90.88,-160.75"/>
<text text-anchor="start" x="115" y="-174.1" font-family="Helvetica,sans-Serif" font-weight="bold" font-size="12.00">0</text>
<polygon fill="#aed6f1" stroke="none" points="145.88,-160.75 145.88,-195.5 200.88,-195.5 200.88,-160.75 145.88,-160.75"/>
<polygon fill="none" stroke="black" points="145.88,-160.75 145.88,-195.5 200.88,-195.5 200.88,-160.75 145.88,-160.75"/>
<text text-anchor="start" x="170" y="-174.1" font-family="Helvetica,sans-Serif" font-weight="bold" font-size="12.00">1</text>
<polygon fill="#aed6f1" stroke="none" points="200.88,-160.75 200.88,-195.5 255.88,-195.5 255.88,-160.75 200.88,-160.75"/>
<polygon fill="none" stroke="black" points="200.88,-160.75 200.88,-195.5 255.88,-195.5 255.88,-160.75 200.88,-160.75"/>
<text text-anchor="start" x="225" y="-174.1" font-family="Helvetica,sans-Serif" font-weight="bold" font-size="12.00">2</text>
<polygon fill="#aed6f1" stroke="none" points="255.88,-160.75 255.88,-195.5 310.88,-195.5 310.88,-160.75 255.88,-160.75"/>
<polygon fill="none" stroke="black" points="255.88,-160.75 255.88,-195.5 310.88,-195.5 310.88,-160.75 255.88,-160.75"/>
<text text-anchor="start" x="280" y="-174.1" font-family="Helvetica,sans-Serif" font-weight="bold" font-size="12.00">3</text>
<polygon fill="#d5d8dc" stroke="none" points="35.88,-126 35.88,-160.75 90.88,-160.75 90.88,-126 35.88,-126"/>
<polygon fill="none" stroke="black" points="35.88,-126 35.88,-160.75 90.88,-160.75 90.88,-126 35.88,-126"/>
<text text-anchor="start" x="55.12" y="-139.35" font-family="Helvetica,sans-Serif" font-weight="bold" font-size="12.00">i=1</text>
<polygon fill="#a9dfbf" stroke="none" points="90.88,-126 90.88,-160.75 145.88,-160.75 145.88,-126 90.88,-126"/>
<polygon fill="none" stroke="black" points="90.88,-126 90.88,-160.75 145.88,-160.75 145.88,-126 90.88,-126"/>
<text text-anchor="start" x="115" y="-139.35" font-family="Helvetica,sans-Serif" font-weight="bold" font-size="12.00">4</text>
<polygon fill="#a9dfbf" stroke="none" points="145.88,-126 145.88,-160.75 200.88,-160.75 200.88,-126 145.88,-126"/>
<polygon fill="none" stroke="black" points="145.88,-126 145.88,-160.75 200.88,-160.75 200.88,-126 145.88,-126"/>
<text text-anchor="start" x="170" y="-139.35" font-family="Helvetica,sans-Serif" font-weight="bold" font-size="12.00">5</text>
<polygon fill="#a9dfbf" stroke="none" points="200.88,-126 200.88,-160.75 255.88,-160.75 255.88,-126 200.88,-126"/>
<polygon fill="none" stroke="black" points="200.88,-126 200.88,-160.75 255.88,-160.75 255.88,-126 200.88,-126"/>
<text text-anchor="start" x="225" y="-139.35" font-family="Helvetica,sans-Serif" font-weight="bold" font-size="12.00">6</text>
<polygon fill="#a9dfbf" stroke="none" points="255.88,-126 255.88,-160.75 310.88,-160.75 310.88,-126 255.88,-126"/>
<polygon fill="none" stroke="black" points="255.88,-126 255.88,-160.75 310.88,-160.75 310.88,-126 255.88,-126"/>
<text text-anchor="start" x="280" y="-139.35" font-family="Helvetica,sans-Serif" font-weight="bold" font-size="12.00">7</text>
<polygon fill="#d5d8dc" stroke="none" points="35.88,-91.25 35.88,-126 90.88,-126 90.88,-91.25 35.88,-91.25"/>
<polygon fill="none" stroke="black" points="35.88,-91.25 35.88,-126 90.88,-126 90.88,-91.25 35.88,-91.25"/>
<text text-anchor="start" x="55.12" y="-104.6" font-family="Helvetica,sans-Serif" font-weight="bold" font-size="12.00">i=2</text>
<polygon fill="#f9e79f" stroke="none" points="90.88,-91.25 90.88,-126 145.88,-126 145.88,-91.25 90.88,-91.25"/>
<polygon fill="none" stroke="black" points="90.88,-91.25 90.88,-126 145.88,-126 145.88,-91.25 90.88,-91.25"/>
<text text-anchor="start" x="115" y="-104.6" font-family="Helvetica,sans-Serif" font-weight="bold" font-size="12.00">8</text>
<polygon fill="#f9e79f" stroke="none" points="145.88,-91.25 145.88,-126 200.88,-126 200.88,-91.25 145.88,-91.25"/>
<polygon fill="none" stroke="black" points="145.88,-91.25 145.88,-126 200.88,-126 200.88,-91.25 145.88,-91.25"/>
<text text-anchor="start" x="170" y="-104.6" font-family="Helvetica,sans-Serif" font-weight="bold" font-size="12.00">9</text>
<polygon fill="#f9e79f" stroke="none" points="200.88,-91.25 200.88,-126 255.88,-126 255.88,-91.25 200.88,-91.25"/>
<polygon fill="none" stroke="black" points="200.88,-91.25 200.88,-126 255.88,-126 255.88,-91.25 200.88,-91.25"/>
<text text-anchor="start" x="221.62" y="-104.6" font-family="Helvetica,sans-Serif" font-weight="bold" font-size="12.00">10</text>
<polygon fill="#f9e79f" stroke="none" points="255.88,-91.25 255.88,-126 310.88,-126 310.88,-91.25 255.88,-91.25"/>
<polygon fill="none" stroke="black" points="255.88,-91.25 255.88,-126 310.88,-126 310.88,-91.25 255.88,-91.25"/>
<text text-anchor="start" x="277.38" y="-104.6" font-family="Helvetica,sans-Serif" font-weight="bold" font-size="12.00">11</text>
<polygon fill="none" stroke="black" points="34.88,-90.25 34.88,-231.25 311.88,-231.25 311.88,-90.25 34.88,-90.25"/>
</g>
<!-- title&#45;&gt;grid -->
<!-- note -->
<g id="node3" class="node">
<title>note</title>
<text text-anchor="start" x="45.88" y="-32.85" font-family="Helvetica,sans-Serif" font-size="12.00" fill="#555555"> &#160;&#160;&#160;&#160;&#160;&#160;&#160;flat 0..3 &#160;= row i=0 &#160;(one complete inner row)</text>
<text text-anchor="start" x="45.88" y="-20.1" font-family="Helvetica,sans-Serif" font-size="12.00" fill="#555555"> &#160;&#160;&#160;&#160;&#160;&#160;&#160;flat 4..7 &#160;= row i=1 &#160;(one complete inner row)</text>
<text text-anchor="start" x="35.75" y="-7.35" font-family="Helvetica,sans-Serif" font-size="12.00" fill="#555555"> &#160;&#160;&#160;&#160;&#160;&#160;&#160;flat 8..11 = row i=2 &#160;(one complete inner row) &#160;&#160;&#160;&#160;&#160;</text>
</g>
<!-- grid&#45;&gt;note -->
</g>
</svg>
