<?xml version="1.0" encoding="UTF-8" standalone="no"?>
<!DOCTYPE svg PUBLIC "-//W3C//DTD SVG 1.1//EN"
 "http://www.w3.org/Graphics/SVG/1.1/DTD/svg11.dtd">
<!-- Generated by graphviz version 12.2.1 (20241206.2353)
 -->
<!-- Title: TwoPhaseProtocol Pages: 1 -->
<svg width="568pt" height="592pt"
 viewBox="0.00 0.00 568.00 592.00" xmlns="http://www.w3.org/2000/svg" xmlns:xlink="http://www.w3.org/1999/xlink">
<g id="graph0" class="graph" transform="scale(1 1) rotate(0) translate(4 588)">
<title>TwoPhaseProtocol</title>
<polygon fill="white" stroke="none" points="-4,4 -4,-588 564,-588 564,4 -4,4"/>
<g id="clust1" class="cluster">
<title>cluster_waiter</title>
<polygon fill="none" stroke="#aaaaaa" stroke-dasharray="5,2" points="8,-8 8,-576 372,-576 372,-8 8,-8"/>
<text text-anchor="middle" x="190" y="-558.7" font-family="Helvetica,Arial,sans-serif" font-size="14.00">Waiting Thread (Consumer)</text>
</g>
<g id="clust2" class="cluster">
<title>cluster_notifier</title>
<polygon fill="none" stroke="#aaaaaa" stroke-dasharray="5,2" points="380,-281 380,-575.5 552,-575.5 552,-281 380,-281"/>
<text text-anchor="middle" x="466" y="-558.2" font-family="Helvetica,Arial,sans-serif" font-size="14.00">Notifier Thread (Producer)</text>
</g>
<!-- Start -->
<g id="node1" class="node">
<title>Start</title>
<polygon fill="none" stroke="black" points="219.88,-506.5 219.88,-544.5 364.12,-544.5 364.12,-506.5 219.88,-506.5"/>
<text text-anchor="middle" x="292" y="-527.2" font-family="Helvetica,Arial,sans-serif" font-size="14.00">A worker thread (wid)</text>
<text text-anchor="middle" x="292" y="-512.2" font-family="Helvetica,Arial,sans-serif" font-size="14.00">wanting to wait</text>
</g>
<!-- Check1 -->
<g id="node3" class="node">
<title>Check1</title>
<polygon fill="none" stroke="black" points="208,-469 131.25,-431 208,-393 284.75,-431 208,-469"/>
<text text-anchor="middle" x="208" y="-432.7" font-family="Helvetica,Arial,sans-serif" font-size="14.00"> Predicate</text>
<text text-anchor="middle" x="208" y="-417.7" font-family="Helvetica,Arial,sans-serif" font-size="14.00">True? </text>
</g>
<!-- Start&#45;&gt;Check1 -->
<g id="edge1" class="edge">
<title>Start&#45;&gt;Check1</title>
<path fill="none" stroke="black" d="M275.4,-506.22C264.95,-494.71 251.14,-479.5 238.73,-465.84"/>
<polygon fill="black" stroke="black" points="241.57,-463.76 232.26,-458.71 236.39,-468.47 241.57,-463.76"/>
</g>
<!-- End -->
<g id="node2" class="node">
<title>End</title>
<polygon fill="black" stroke="black" points="159.38,-52 58.62,-52 58.62,-16 159.38,-16 159.38,-52"/>
<text text-anchor="middle" x="109" y="-28.2" font-family="Helvetica,Arial,sans-serif" font-size="14.00" fill="white"> waiter queue </text>
</g>
<!-- Act1 -->
<g id="node4" class="node">
<title>Act1</title>
<polygon fill="none" stroke="black" points="331,-333.5 277,-333.5 277,-297.5 331,-297.5 331,-333.5"/>
<text text-anchor="middle" x="304" y="-309.7" font-family="Helvetica,Arial,sans-serif" font-size="14.00"> act() </text>
</g>
<!-- Check1&#45;&gt;Act1 -->
<g id="edge2" class="edge">
<title>Check1&#45;&gt;Act1</title>
<path fill="none" stroke="black" d="M230.27,-403.68C245.81,-385.3 266.46,-360.88 281.95,-342.57"/>
<polygon fill="black" stroke="black" points="284.55,-344.91 288.34,-335.02 279.21,-340.39 284.55,-344.91"/>
<text text-anchor="middle" x="279.6" y="-361.7" font-family="Helvetica,Arial,sans-serif" font-size="14.00"> Yes </text>
</g>
<!-- Prepare -->
<g id="node5" class="node">
<title>Prepare</title>
<polygon fill="none" stroke="black" points="258.88,-333.5 71.12,-333.5 71.12,-297.5 258.88,-297.5 258.88,-333.5"/>
<text text-anchor="middle" x="165" y="-309.7" font-family="Helvetica,Arial,sans-serif" font-size="14.00"> Phase 1: prepare_wait(wid) </text>
</g>
<!-- Check1&#45;&gt;Prepare -->
<g id="edge3" class="edge">
<title>Check1&#45;&gt;Prepare</title>
<path fill="none" stroke="black" d="M196.02,-398.38C189.6,-381.44 181.76,-360.74 175.57,-344.4"/>
<polygon fill="black" stroke="black" points="178.93,-343.4 172.12,-335.29 172.39,-345.88 178.93,-343.4"/>
<text text-anchor="middle" x="198.88" y="-361.7" font-family="Helvetica,Arial,sans-serif" font-size="14.00"> No </text>
</g>
<!-- Act1&#45;&gt;Start -->
<g id="edge8" class="edge">
<title>Act1&#45;&gt;Start</title>
<path fill="none" stroke="black" d="M303.01,-333.74C300.96,-369.16 296.27,-450.48 293.72,-494.64"/>
<polygon fill="black" stroke="black" points="290.23,-494.35 293.15,-504.53 297.22,-494.75 290.23,-494.35"/>
</g>
<!-- Check2 -->
<g id="node6" class="node">
<title>Check2</title>
<polygon fill="none" stroke="black" points="165,-252 88.25,-214 165,-176 241.75,-214 165,-252"/>
<text text-anchor="middle" x="165" y="-215.7" font-family="Helvetica,Arial,sans-serif" font-size="14.00"> Predicate</text>
<text text-anchor="middle" x="165" y="-200.7" font-family="Helvetica,Arial,sans-serif" font-size="14.00">True? </text>
</g>
<!-- Prepare&#45;&gt;Check2 -->
<g id="edge4" class="edge">
<title>Prepare&#45;&gt;Check2</title>
<path fill="none" stroke="black" d="M165,-297.17C165,-287.8 165,-275.72 165,-263.72"/>
<polygon fill="black" stroke="black" points="168.5,-263.84 165,-253.84 161.5,-263.84 168.5,-263.84"/>
</g>
<!-- Cancel -->
<g id="node7" class="node">
<title>Cancel</title>
<polygon fill="none" stroke="black" points="343.62,-125 220.38,-125 220.38,-89 343.62,-89 343.62,-125"/>
<text text-anchor="middle" x="282" y="-101.2" font-family="Helvetica,Arial,sans-serif" font-size="14.00"> cancel_wait(wid) </text>
</g>
<!-- Check2&#45;&gt;Cancel -->
<g id="edge5" class="edge">
<title>Check2&#45;&gt;Cancel</title>
<path fill="none" stroke="black" d="M191.84,-188.91C210.48,-172.19 235.25,-149.95 254.11,-133.03"/>
<polygon fill="black" stroke="black" points="256.35,-135.72 261.45,-126.44 251.67,-130.51 256.35,-135.72"/>
<text text-anchor="middle" x="253.94" y="-144.7" font-family="Helvetica,Arial,sans-serif" font-size="14.00"> Yes</text>
</g>
<!-- Commit -->
<g id="node9" class="node">
<title>Commit</title>
<polygon fill="none" stroke="black" points="202.12,-125 15.88,-125 15.88,-89 202.12,-89 202.12,-125"/>
<text text-anchor="middle" x="109" y="-101.2" font-family="Helvetica,Arial,sans-serif" font-size="14.00"> Phase 2: commit_wait(wid) </text>
</g>
<!-- Check2&#45;&gt;Commit -->
<g id="edge7" class="edge">
<title>Check2&#45;&gt;Commit</title>
<path fill="none" stroke="black" d="M149.25,-183.47C141.23,-168.44 131.55,-150.27 123.68,-135.53"/>
<polygon fill="black" stroke="black" points="126.84,-134.01 119.05,-126.83 120.66,-137.31 126.84,-134.01"/>
<text text-anchor="middle" x="147.7" y="-144.7" font-family="Helvetica,Arial,sans-serif" font-size="14.00"> No </text>
</g>
<!-- Act2 -->
<g id="node8" class="node">
<title>Act2</title>
<polygon fill="none" stroke="black" points="337,-52 283,-52 283,-16 337,-16 337,-52"/>
<text text-anchor="middle" x="310" y="-28.2" font-family="Helvetica,Arial,sans-serif" font-size="14.00"> act() </text>
</g>
<!-- Cancel&#45;&gt;Act2 -->
<g id="edge6" class="edge">
<title>Cancel&#45;&gt;Act2</title>
<path fill="none" stroke="black" d="M288.78,-88.81C291.87,-80.96 295.62,-71.47 299.09,-62.66"/>
<polygon fill="black" stroke="black" points="302.32,-64.02 302.73,-53.44 295.8,-61.46 302.32,-64.02"/>
</g>
<!-- Act2&#45;&gt;Start -->
<g id="edge9" class="edge">
<title>Act2&#45;&gt;Start</title>
<path fill="none" stroke="black" d="M332.78,-52.26C347.15,-65.25 363,-84.47 363,-106 363,-432 363,-432 363,-432 363,-458.51 344.42,-482.1 326.27,-498.82"/>
<polygon fill="black" stroke="black" points="324.41,-495.8 319.18,-505.01 329.01,-501.08 324.41,-495.8"/>
</g>
<!-- Commit&#45;&gt;End -->
<g id="edge10" class="edge">
<title>Commit&#45;&gt;End</title>
<path fill="none" stroke="black" d="M109,-88.81C109,-81.23 109,-72.1 109,-63.54"/>
<polygon fill="black" stroke="black" points="112.5,-63.54 109,-53.54 105.5,-63.54 112.5,-63.54"/>
</g>
<!-- Notifier -->
<g id="node10" class="node">
<title>Notifier</title>
<polygon fill="none" stroke="black" points="539.62,-544.5 392.38,-544.5 392.38,-506.5 539.62,-506.5 539.62,-544.5"/>
<text text-anchor="middle" x="466" y="-527.2" font-family="Helvetica,Arial,sans-serif" font-size="14.00"> A worker thread (wid)</text>
<text text-anchor="middle" x="466" y="-512.2" font-family="Helvetica,Arial,sans-serif" font-size="14.00">wanting to notify </text>
</g>
<!-- ModifyPredicate -->
<g id="node11" class="node">
<title>ModifyPredicate</title>
<polygon fill="none" stroke="black" points="524.25,-449 407.75,-449 407.75,-413 524.25,-413 524.25,-449"/>
<text text-anchor="middle" x="466" y="-425.2" font-family="Helvetica,Arial,sans-serif" font-size="14.00">Predicate = True</text>
</g>
<!-- Notifier&#45;&gt;ModifyPredicate -->
<g id="edge11" class="edge">
<title>Notifier&#45;&gt;ModifyPredicate</title>
<path fill="none" stroke="black" d="M466,-506.22C466,-493.18 466,-475.38 466,-460.48"/>
<polygon fill="black" stroke="black" points="469.5,-460.81 466,-450.81 462.5,-460.81 469.5,-460.81"/>
</g>
<!-- Notify -->
<g id="node12" class="node">
<title>Notify</title>
<polygon fill="none" stroke="black" points="521.62,-342 410.38,-342 410.38,-289 521.62,-289 521.62,-342"/>
<text text-anchor="middle" x="466" y="-324.7" font-family="Helvetica,Arial,sans-serif" font-size="14.00"> notify_one(wid)</text>
<text text-anchor="middle" x="466" y="-309.7" font-family="Helvetica,Arial,sans-serif" font-size="14.00">or</text>
<text text-anchor="middle" x="466" y="-294.7" font-family="Helvetica,Arial,sans-serif" font-size="14.00">notify_all(wid)</text>
</g>
<!-- ModifyPredicate&#45;&gt;Notify -->
<g id="edge12" class="edge">
<title>ModifyPredicate&#45;&gt;Notify</title>
<path fill="none" stroke="black" d="M466,-412.76C466,-397.18 466,-373.71 466,-353.84"/>
<polygon fill="black" stroke="black" points="469.5,-353.86 466,-343.86 462.5,-353.86 469.5,-353.86"/>
</g>
</g>
</svg>
