<?xml version="1.0" encoding="UTF-8" standalone="no"?>
<!DOCTYPE svg PUBLIC "-//W3C//DTD SVG 1.1//EN"
 "http://www.w3.org/Graphics/SVG/1.1/DTD/svg11.dtd">
<!-- Generated by graphviz version 2.43.0 (0)
 -->
<!-- Title: Taskflow Pages: 1 -->
<svg width="508pt" height="360pt"
 viewBox="0.00 0.00 508.00 360.00" xmlns="http://www.w3.org/2000/svg" xmlns:xlink="http://www.w3.org/1999/xlink">
<g id="graph0" class="graph" transform="scale(1 1) rotate(0) translate(4 356)">
<title>Taskflow</title>
<polygon fill="white" stroke="transparent" points="-4,4 -4,-356 504,-356 504,4 -4,4"/>
<g id="clust1" class="cluster">
<title>cluster_p0x7fff4f1276d8</title>
<polygon fill="none" stroke="black" points="8,-8 8,-344 198,-344 198,-8 8,-8"/>
<text text-anchor="middle" x="103" y="-328.8" font-family="Times,serif" font-size="14.00">Taskflow</text>
</g>
<g id="clust2" class="cluster">
<title>cluster_p0x7fff4f127590</title>
<polygon fill="none" stroke="black" points="206,-182 206,-344 492,-344 492,-182 206,-182"/>
<text text-anchor="middle" x="349" y="-328.8" font-family="Times,serif" font-size="14.00">m1</text>
</g>
<!-- p0xdf4c58 -->
<g id="node1" class="node">
<title>p0xdf4c58</title>
<ellipse fill="none" stroke="black" cx="103" cy="-295" rx="37.89" ry="18"/>
<text text-anchor="middle" x="103" y="-291.3" font-family="Times,serif" font-size="14.00">initial</text>
</g>
<!-- p0xdf4b70 -->
<g id="node2" class="node">
<title>p0xdf4b70</title>
<polygon fill="none" stroke="blue" points="158.5,-226 51.5,-226 47.5,-222 47.5,-190 154.5,-190 158.5,-194 158.5,-226"/>
<polyline fill="none" stroke="blue" points="154.5,-222 47.5,-222 "/>
<polyline fill="none" stroke="blue" points="154.5,-222 154.5,-190 "/>
<polyline fill="none" stroke="blue" points="154.5,-222 158.5,-226 "/>
<text text-anchor="middle" x="103" y="-204.3" font-family="Times,serif" font-size="14.00">pipeline [m1]</text>
</g>
<!-- p0xdf4c58&#45;&gt;p0xdf4b70 -->
<g id="edge1" class="edge">
<title>p0xdf4c58&#45;&gt;p0xdf4b70</title>
<path fill="none" stroke="black" d="M103,-276.8C103,-265.16 103,-249.55 103,-236.24"/>
<polygon fill="black" stroke="black" points="106.5,-236.18 103,-226.18 99.5,-236.18 106.5,-236.18"/>
</g>
<!-- p0xdf4a88 -->
<g id="node3" class="node">
<title>p0xdf4a88</title>
<polygon fill="aquamarine" stroke="black" points="103,-139 15.86,-121 103,-103 190.14,-121 103,-139"/>
<text text-anchor="middle" x="103" y="-117.3" font-family="Times,serif" font-size="14.00">conditional</text>
</g>
<!-- p0xdf4b70&#45;&gt;p0xdf4a88 -->
<g id="edge2" class="edge">
<title>p0xdf4b70&#45;&gt;p0xdf4a88</title>
<path fill="none" stroke="black" d="M98.58,-189.92C96.59,-180.27 94.91,-167.99 96,-157 96.29,-154.11 96.7,-151.1 97.19,-148.12"/>
<polygon fill="black" stroke="black" points="100.63,-148.76 99.05,-138.28 93.75,-147.46 100.63,-148.76"/>
</g>
<!-- p0xdf4a88&#45;&gt;p0xdf4b70 -->
<g id="edge3" class="edge">
<title>p0xdf4a88&#45;&gt;p0xdf4b70</title>
<path fill="none" stroke="black" stroke-dasharray="5,2" d="M103,-139.18C103,-150.81 103,-166.42 103,-179.73"/>
<polygon fill="black" stroke="black" points="99.5,-179.8 103,-189.8 106.5,-179.8 99.5,-179.8"/>
<text text-anchor="middle" x="108" y="-160.8" font-family="Times,serif" font-size="14.00">0</text>
</g>
<!-- p0xdf4d40 -->
<g id="node4" class="node">
<title>p0xdf4d40</title>
<ellipse fill="none" stroke="black" cx="103" cy="-34" rx="50.09" ry="18"/>
<text text-anchor="middle" x="103" y="-30.3" font-family="Times,serif" font-size="14.00">terminal</text>
</g>
<!-- p0xdf4a88&#45;&gt;p0xdf4d40 -->
<g id="edge4" class="edge">
<title>p0xdf4a88&#45;&gt;p0xdf4d40</title>
<path fill="none" stroke="black" stroke-dasharray="5,2" d="M103,-102.8C103,-91.16 103,-75.55 103,-62.24"/>
<polygon fill="black" stroke="black" points="106.5,-62.18 103,-52.18 99.5,-62.18 106.5,-62.18"/>
<text text-anchor="middle" x="108" y="-73.8" font-family="Times,serif" font-size="14.00">1</text>
</g>
<!-- p0xdf4600 -->
<g id="node5" class="node">
<title>p0xdf4600</title>
<polygon fill="aquamarine" stroke="black" points="349,-313 303.08,-295 349,-277 394.92,-295 349,-313"/>
<text text-anchor="middle" x="349" y="-291.3" font-family="Times,serif" font-size="14.00">cond</text>
</g>
<!-- p0xdf46e8 -->
<g id="node6" class="node">
<title>p0xdf46e8</title>
<polygon fill="none" stroke="black" points="268,-226 214,-226 214,-222 210,-222 210,-218 214,-218 214,-198 210,-198 210,-194 214,-194 214,-190 268,-190 268,-226"/>
<polyline fill="none" stroke="black" points="214,-222 218,-222 218,-218 214,-218 "/>
<polyline fill="none" stroke="black" points="214,-198 218,-198 218,-194 214,-194 "/>
<text text-anchor="middle" x="241" y="-204.3" font-family="Times,serif" font-size="14.00">rt&#45;0</text>
</g>
<!-- p0xdf4600&#45;&gt;p0xdf46e8 -->
<g id="edge5" class="edge">
<title>p0xdf4600&#45;&gt;p0xdf46e8</title>
<path fill="none" stroke="black" stroke-dasharray="5,2" d="M334.43,-282.54C318.17,-269.73 291.41,-248.67 270.69,-232.36"/>
<polygon fill="black" stroke="black" points="272.81,-229.58 262.79,-226.15 268.48,-235.08 272.81,-229.58"/>
<text text-anchor="middle" x="306" y="-247.8" font-family="Times,serif" font-size="14.00">0</text>
</g>
<!-- p0xdf47d0 -->
<g id="node7" class="node">
<title>p0xdf47d0</title>
<polygon fill="none" stroke="black" points="340,-226 286,-226 286,-222 282,-222 282,-218 286,-218 286,-198 282,-198 282,-194 286,-194 286,-190 340,-190 340,-226"/>
<polyline fill="none" stroke="black" points="286,-222 290,-222 290,-218 286,-218 "/>
<polyline fill="none" stroke="black" points="286,-198 290,-198 290,-194 286,-194 "/>
<text text-anchor="middle" x="313" y="-204.3" font-family="Times,serif" font-size="14.00">rt&#45;1</text>
</g>
<!-- p0xdf4600&#45;&gt;p0xdf47d0 -->
<g id="edge6" class="edge">
<title>p0xdf4600&#45;&gt;p0xdf47d0</title>
<path fill="none" stroke="black" stroke-dasharray="5,2" d="M342.73,-279.19C337.66,-267.21 330.38,-250.03 324.29,-235.67"/>
<polygon fill="black" stroke="black" points="327.44,-234.11 320.31,-226.27 320.99,-236.84 327.44,-234.11"/>
<text text-anchor="middle" x="338" y="-247.8" font-family="Times,serif" font-size="14.00">1</text>
</g>
<!-- p0xdf48b8 -->
<g id="node8" class="node">
<title>p0xdf48b8</title>
<polygon fill="none" stroke="black" points="412,-226 358,-226 358,-222 354,-222 354,-218 358,-218 358,-198 354,-198 354,-194 358,-194 358,-190 412,-190 412,-226"/>
<polyline fill="none" stroke="black" points="358,-222 362,-222 362,-218 358,-218 "/>
<polyline fill="none" stroke="black" points="358,-198 362,-198 362,-194 358,-194 "/>
<text text-anchor="middle" x="385" y="-204.3" font-family="Times,serif" font-size="14.00">rt&#45;2</text>
</g>
<!-- p0xdf4600&#45;&gt;p0xdf48b8 -->
<g id="edge7" class="edge">
<title>p0xdf4600&#45;&gt;p0xdf48b8</title>
<path fill="none" stroke="black" stroke-dasharray="5,2" d="M355.27,-279.19C360.34,-267.21 367.62,-250.03 373.71,-235.67"/>
<polygon fill="black" stroke="black" points="377.01,-236.84 377.69,-226.27 370.56,-234.11 377.01,-236.84"/>
<text text-anchor="middle" x="374" y="-247.8" font-family="Times,serif" font-size="14.00">2</text>
</g>
<!-- p0xdf49a0 -->
<g id="node9" class="node">
<title>p0xdf49a0</title>
<polygon fill="none" stroke="black" points="484,-226 430,-226 430,-222 426,-222 426,-218 430,-218 430,-198 426,-198 426,-194 430,-194 430,-190 484,-190 484,-226"/>
<polyline fill="none" stroke="black" points="430,-222 434,-222 434,-218 430,-218 "/>
<polyline fill="none" stroke="black" points="430,-198 434,-198 434,-194 430,-194 "/>
<text text-anchor="middle" x="457" y="-204.3" font-family="Times,serif" font-size="14.00">rt&#45;3</text>
</g>
<!-- p0xdf4600&#45;&gt;p0xdf49a0 -->
<g id="edge8" class="edge">
<title>p0xdf4600&#45;&gt;p0xdf49a0</title>
<path fill="none" stroke="black" stroke-dasharray="5,2" d="M363.57,-282.54C379.83,-269.73 406.59,-248.67 427.31,-232.36"/>
<polygon fill="black" stroke="black" points="429.52,-235.08 435.21,-226.15 425.19,-229.58 429.52,-235.08"/>
<text text-anchor="middle" x="414" y="-247.8" font-family="Times,serif" font-size="14.00">3</text>
</g>
</g>
</svg>
