<?xml version="1.0" encoding="UTF-8" standalone="no"?>
<!DOCTYPE svg PUBLIC "-//W3C//DTD SVG 1.1//EN"
 "http://www.w3.org/Graphics/SVG/1.1/DTD/svg11.dtd">
<!-- Generated by graphviz version 2.43.0 (0)
 -->
<!-- Title: Taskflow Pages: 1 -->
<svg width="928pt" height="192pt"
 viewBox="0.00 0.00 927.99 192.00" xmlns="http://www.w3.org/2000/svg" xmlns:xlink="http://www.w3.org/1999/xlink">
<g id="graph0" class="graph" transform="scale(1 1) rotate(0) translate(4 188)">
<title>Taskflow</title>
<polygon fill="white" stroke="transparent" points="-4,4 -4,-188 923.99,-188 923.99,4 -4,4"/>
<!-- p0x7fecbdc02830 -->
<g id="node1" class="node">
<title>p0x7fecbdc02830</title>
<ellipse fill="none" stroke="black" cx="27" cy="-94" rx="27" ry="18"/>
<text text-anchor="middle" x="27" y="-90.3" font-family="Times,serif" font-size="14.00">A</text>
</g>
<!-- p0x7fecbdc02940 -->
<g id="node2" class="node">
<title>p0x7fecbdc02940</title>
<ellipse fill="none" stroke="black" cx="118" cy="-122" rx="27" ry="18"/>
<text text-anchor="middle" x="118" y="-118.3" font-family="Times,serif" font-size="14.00">B</text>
</g>
<!-- p0x7fecbdc02830&#45;&gt;p0x7fecbdc02940 -->
<g id="edge1" class="edge">
<title>p0x7fecbdc02830&#45;&gt;p0x7fecbdc02940</title>
<path fill="none" stroke="black" d="M51.85,-101.5C61.61,-104.57 73.06,-108.18 83.62,-111.5"/>
<polygon fill="black" stroke="black" points="82.8,-114.91 93.39,-114.57 84.9,-108.23 82.8,-114.91"/>
</g>
<!-- p0x7fecbdc02d80 -->
<g id="node3" class="node">
<title>p0x7fecbdc02d80</title>
<ellipse fill="none" stroke="black" cx="118" cy="-68" rx="27" ry="18"/>
<text text-anchor="middle" x="118" y="-64.3" font-family="Times,serif" font-size="14.00">F</text>
</g>
<!-- p0x7fecbdc02830&#45;&gt;p0x7fecbdc02d80 -->
<g id="edge2" class="edge">
<title>p0x7fecbdc02830&#45;&gt;p0x7fecbdc02d80</title>
<path fill="none" stroke="black" d="M52.32,-86.9C61.82,-84.12 72.87,-80.89 83.12,-77.9"/>
<polygon fill="black" stroke="black" points="84.4,-81.17 93.02,-75.01 82.44,-74.45 84.4,-81.17"/>
</g>
<!-- p0x7fecbdc02a50 -->
<g id="node4" class="node">
<title>p0x7fecbdc02a50</title>
<ellipse fill="none" stroke="black" cx="242.66" cy="-166" rx="27" ry="18"/>
<text text-anchor="middle" x="242.66" y="-162.3" font-family="Times,serif" font-size="14.00">C</text>
</g>
<!-- p0x7fecbdc02940&#45;&gt;p0x7fecbdc02a50 -->
<g id="edge3" class="edge">
<title>p0x7fecbdc02940&#45;&gt;p0x7fecbdc02a50</title>
<path fill="none" stroke="black" d="M142.07,-130.28C160.88,-137.02 187.69,-146.64 208.76,-154.2"/>
<polygon fill="black" stroke="black" points="207.68,-157.53 218.28,-157.61 210.05,-150.94 207.68,-157.53"/>
</g>
<!-- p0x7fecbdc03600 -->
<g id="node9" class="node">
<title>p0x7fecbdc03600</title>
<polygon fill="aquamarine" stroke="black" points="242.66,-86 181.84,-68 242.66,-50 303.49,-68 242.66,-86"/>
<text text-anchor="middle" x="242.66" y="-64.3" font-family="Times,serif" font-size="14.00">cond_2</text>
</g>
<!-- p0x7fecbdc02d80&#45;&gt;p0x7fecbdc03600 -->
<g id="edge7" class="edge">
<title>p0x7fecbdc02d80&#45;&gt;p0x7fecbdc03600</title>
<path fill="none" stroke="black" d="M145.01,-68C153.05,-68 162.32,-68 171.86,-68"/>
<polygon fill="black" stroke="black" points="171.87,-71.5 181.87,-68 171.87,-64.5 171.87,-71.5"/>
</g>
<!-- p0x7fecbdc02b60 -->
<g id="node5" class="node">
<title>p0x7fecbdc02b60</title>
<ellipse fill="none" stroke="black" cx="376.33" cy="-166" rx="27" ry="18"/>
<text text-anchor="middle" x="376.33" y="-162.3" font-family="Times,serif" font-size="14.00">D</text>
</g>
<!-- p0x7fecbdc02a50&#45;&gt;p0x7fecbdc02b60 -->
<g id="edge4" class="edge">
<title>p0x7fecbdc02a50&#45;&gt;p0x7fecbdc02b60</title>
<path fill="none" stroke="black" d="M269.68,-166C289.38,-166 316.72,-166 338.65,-166"/>
<polygon fill="black" stroke="black" points="338.92,-169.5 348.92,-166 338.92,-162.5 338.92,-169.5"/>
</g>
<!-- p0x7fecbdc034f0 -->
<g id="node6" class="node">
<title>p0x7fecbdc034f0</title>
<polygon fill="aquamarine" stroke="black" points="500.99,-155 440.16,-137 500.99,-119 561.82,-137 500.99,-155"/>
<text text-anchor="middle" x="500.99" y="-133.3" font-family="Times,serif" font-size="14.00">cond_1</text>
</g>
<!-- p0x7fecbdc02b60&#45;&gt;p0x7fecbdc034f0 -->
<g id="edge5" class="edge">
<title>p0x7fecbdc02b60&#45;&gt;p0x7fecbdc034f0</title>
<path fill="none" stroke="black" d="M402.15,-160.13C417.75,-156.44 438.29,-151.59 456.53,-147.28"/>
<polygon fill="black" stroke="black" points="457.45,-150.66 466.37,-144.95 455.84,-143.84 457.45,-150.66"/>
</g>
<!-- p0x7fecbdc034f0&#45;&gt;p0x7fecbdc02940 -->
<g id="edge11" class="edge">
<title>p0x7fecbdc034f0&#45;&gt;p0x7fecbdc02940</title>
<path fill="none" stroke="black" stroke-dasharray="5,2" d="M446.94,-134.91C368.34,-131.82 222.97,-126.09 155.35,-123.43"/>
<polygon fill="black" stroke="black" points="155.32,-119.93 145.19,-123.03 155.04,-126.92 155.32,-119.93"/>
<text text-anchor="middle" x="326.33" y="-133.8" font-family="Times,serif" font-size="14.00">0</text>
</g>
<!-- p0x7fecbdc02c70 -->
<g id="node7" class="node">
<title>p0x7fecbdc02c70</title>
<ellipse fill="none" stroke="black" cx="668.32" cy="-137" rx="27" ry="18"/>
<text text-anchor="middle" x="668.32" y="-133.3" font-family="Times,serif" font-size="14.00">E</text>
</g>
<!-- p0x7fecbdc034f0&#45;&gt;p0x7fecbdc02c70 -->
<g id="edge12" class="edge">
<title>p0x7fecbdc034f0&#45;&gt;p0x7fecbdc02c70</title>
<path fill="none" stroke="black" stroke-dasharray="5,2" d="M561.68,-137C584.84,-137 610.61,-137 630.9,-137"/>
<polygon fill="black" stroke="black" points="630.97,-140.5 640.97,-137 630.97,-133.5 630.97,-140.5"/>
<text text-anchor="middle" x="584.66" y="-140.8" font-family="Times,serif" font-size="14.00">1</text>
</g>
<!-- p0x7fecbdc031c0 -->
<g id="node8" class="node">
<title>p0x7fecbdc031c0</title>
<ellipse fill="none" stroke="black" cx="801.99" cy="-137" rx="27" ry="18"/>
<text text-anchor="middle" x="801.99" y="-133.3" font-family="Times,serif" font-size="14.00">K</text>
</g>
<!-- p0x7fecbdc02c70&#45;&gt;p0x7fecbdc031c0 -->
<g id="edge6" class="edge">
<title>p0x7fecbdc02c70&#45;&gt;p0x7fecbdc031c0</title>
<path fill="none" stroke="black" d="M695.33,-137C715.04,-137 742.38,-137 764.3,-137"/>
<polygon fill="black" stroke="black" points="764.58,-140.5 774.58,-137 764.58,-133.5 764.58,-140.5"/>
</g>
<!-- p0x7fecbdc02e90 -->
<g id="node10" class="node">
<title>p0x7fecbdc02e90</title>
<ellipse fill="none" stroke="black" cx="376.33" cy="-72" rx="27" ry="18"/>
<text text-anchor="middle" x="376.33" y="-68.3" font-family="Times,serif" font-size="14.00">G</text>
</g>
<!-- p0x7fecbdc03600&#45;&gt;p0x7fecbdc02e90 -->
<g id="edge13" class="edge">
<title>p0x7fecbdc03600&#45;&gt;p0x7fecbdc02e90</title>
<path fill="none" stroke="black" stroke-dasharray="5,2" d="M297.98,-69.65C311.81,-70.07 326.35,-70.51 339.04,-70.9"/>
<polygon fill="black" stroke="black" points="339.1,-74.4 349.21,-71.21 339.32,-67.4 339.1,-74.4"/>
<text text-anchor="middle" x="326.33" y="-73.8" font-family="Times,serif" font-size="14.00">0</text>
</g>
<!-- p0x7fecbdc02fa0 -->
<g id="node11" class="node">
<title>p0x7fecbdc02fa0</title>
<ellipse fill="none" stroke="black" cx="376.33" cy="-18" rx="27" ry="18"/>
<text text-anchor="middle" x="376.33" y="-14.3" font-family="Times,serif" font-size="14.00">H</text>
</g>
<!-- p0x7fecbdc03600&#45;&gt;p0x7fecbdc02fa0 -->
<g id="edge14" class="edge">
<title>p0x7fecbdc03600&#45;&gt;p0x7fecbdc02fa0</title>
<path fill="none" stroke="black" stroke-dasharray="5,2" d="M269.99,-58C291.04,-50.01 320.64,-38.77 343.11,-30.24"/>
<polygon fill="black" stroke="black" points="344.45,-33.47 352.56,-26.65 341.97,-26.92 344.45,-33.47"/>
<text text-anchor="middle" x="326.33" y="-40.8" font-family="Times,serif" font-size="14.00">1</text>
</g>
<!-- p0x7fecbdc030b0 -->
<g id="node12" class="node">
<title>p0x7fecbdc030b0</title>
<ellipse fill="none" stroke="black" cx="500.99" cy="-18" rx="27" ry="18"/>
<text text-anchor="middle" x="500.99" y="-14.3" font-family="Times,serif" font-size="14.00">I</text>
</g>
<!-- p0x7fecbdc02fa0&#45;&gt;p0x7fecbdc030b0 -->
<g id="edge8" class="edge">
<title>p0x7fecbdc02fa0&#45;&gt;p0x7fecbdc030b0</title>
<path fill="none" stroke="black" d="M403.34,-18C420.79,-18 444.02,-18 463.33,-18"/>
<polygon fill="black" stroke="black" points="463.59,-21.5 473.59,-18 463.59,-14.5 463.59,-21.5"/>
</g>
<!-- p0x7fecbdc03710 -->
<g id="node13" class="node">
<title>p0x7fecbdc03710</title>
<polygon fill="aquamarine" stroke="black" points="668.32,-36 607.49,-18 668.32,0 729.15,-18 668.32,-36"/>
<text text-anchor="middle" x="668.32" y="-14.3" font-family="Times,serif" font-size="14.00">cond_3</text>
</g>
<!-- p0x7fecbdc030b0&#45;&gt;p0x7fecbdc03710 -->
<g id="edge9" class="edge">
<title>p0x7fecbdc030b0&#45;&gt;p0x7fecbdc03710</title>
<path fill="none" stroke="black" d="M528.19,-18C546.92,-18 573.05,-18 597.61,-18"/>
<polygon fill="black" stroke="black" points="597.65,-21.5 607.65,-18 597.65,-14.5 597.65,-21.5"/>
</g>
<!-- p0x7fecbdc03710&#45;&gt;p0x7fecbdc03710 -->
<g id="edge15" class="edge">
<title>p0x7fecbdc03710&#45;&gt;p0x7fecbdc03710</title>
<path fill="none" stroke="black" stroke-dasharray="5,2" d="M654.93,-32.04C649.93,-42.91 654.39,-54 668.32,-54 677.9,-54 683,-48.76 683.63,-41.95"/>
<polygon fill="black" stroke="black" points="687.05,-41.19 681.71,-32.04 680.18,-42.52 687.05,-41.19"/>
<text text-anchor="middle" x="668.32" y="-57.8" font-family="Times,serif" font-size="14.00">0</text>
</g>
<!-- p0x7fecbdc032d0 -->
<g id="node14" class="node">
<title>p0x7fecbdc032d0</title>
<ellipse fill="none" stroke="black" cx="801.99" cy="-18" rx="27" ry="18"/>
<text text-anchor="middle" x="801.99" y="-14.3" font-family="Times,serif" font-size="14.00">L</text>
</g>
<!-- p0x7fecbdc03710&#45;&gt;p0x7fecbdc032d0 -->
<g id="edge16" class="edge">
<title>p0x7fecbdc03710&#45;&gt;p0x7fecbdc032d0</title>
<path fill="none" stroke="black" stroke-dasharray="5,2" d="M728.99,-18C741.16,-18 753.61,-18 764.66,-18"/>
<polygon fill="black" stroke="black" points="764.78,-21.5 774.78,-18 764.78,-14.5 764.78,-21.5"/>
<text text-anchor="middle" x="751.99" y="-21.8" font-family="Times,serif" font-size="14.00">1</text>
</g>
<!-- p0x7fecbdc033e0 -->
<g id="node15" class="node">
<title>p0x7fecbdc033e0</title>
<ellipse fill="none" stroke="black" cx="892.99" cy="-18" rx="27" ry="18"/>
<text text-anchor="middle" x="892.99" y="-14.3" font-family="Times,serif" font-size="14.00">M</text>
</g>
<!-- p0x7fecbdc032d0&#45;&gt;p0x7fecbdc033e0 -->
<g id="edge10" class="edge">
<title>p0x7fecbdc032d0&#45;&gt;p0x7fecbdc033e0</title>
<path fill="none" stroke="black" d="M829.21,-18C837.54,-18 846.9,-18 855.8,-18"/>
<polygon fill="black" stroke="black" points="855.95,-21.5 865.95,-18 855.95,-14.5 855.95,-21.5"/>
</g>
</g>
</svg>
