<?xml version="1.0" encoding="UTF-8" standalone="no"?>
<!DOCTYPE svg PUBLIC "-//W3C//DTD SVG 1.1//EN"
 "http://www.w3.org/Graphics/SVG/1.1/DTD/svg11.dtd">
<!-- Generated by graphviz version 2.43.0 (0)
 -->
<!-- Title: Taskflow Pages: 1 -->
<svg width="495pt" height="116pt"
 viewBox="0.00 0.00 495.19 116.00" xmlns="http://www.w3.org/2000/svg" xmlns:xlink="http://www.w3.org/1999/xlink">
<g id="graph0" class="graph" transform="scale(1 1) rotate(0) translate(4 112)">
<title>Taskflow</title>
<polygon fill="white" stroke="transparent" points="-4,4 -4,-112 491.19,-112 491.19,4 -4,4"/>
<!-- p0xc02d50 -->
<g id="node1" class="node">
<title>p0xc02d50</title>
<ellipse fill="none" stroke="black" cx="41.6" cy="-90" rx="41.69" ry="18"/>
<text text-anchor="middle" x="41.6" y="-86.3" font-family="Times,serif" font-size="14.00">from&#45;0</text>
</g>
<!-- p0xc02e40 -->
<g id="node2" class="node">
<title>p0xc02e40</title>
<ellipse fill="none" stroke="black" cx="41.6" cy="-18" rx="28.7" ry="18"/>
<text text-anchor="middle" x="41.6" y="-14.3" font-family="Times,serif" font-size="14.00">to&#45;0</text>
</g>
<!-- p0xc02d50&#45;&gt;p0xc02e40 -->
<g id="edge1" class="edge">
<title>p0xc02d50&#45;&gt;p0xc02e40</title>
<path fill="none" stroke="black" d="M41.6,-71.7C41.6,-63.98 41.6,-54.71 41.6,-46.11"/>
<polygon fill="black" stroke="black" points="45.1,-46.1 41.6,-36.1 38.1,-46.1 45.1,-46.1"/>
</g>
<!-- p0xc02f30 -->
<g id="node3" class="node">
<title>p0xc02f30</title>
<ellipse fill="none" stroke="black" cx="142.6" cy="-90" rx="41.69" ry="18"/>
<text text-anchor="middle" x="142.6" y="-86.3" font-family="Times,serif" font-size="14.00">from&#45;1</text>
</g>
<!-- p0xc03020 -->
<g id="node4" class="node">
<title>p0xc03020</title>
<ellipse fill="none" stroke="black" cx="142.6" cy="-18" rx="28.7" ry="18"/>
<text text-anchor="middle" x="142.6" y="-14.3" font-family="Times,serif" font-size="14.00">to&#45;1</text>
</g>
<!-- p0xc02f30&#45;&gt;p0xc03020 -->
<g id="edge2" class="edge">
<title>p0xc02f30&#45;&gt;p0xc03020</title>
<path fill="none" stroke="black" d="M142.6,-71.7C142.6,-63.98 142.6,-54.71 142.6,-46.11"/>
<polygon fill="black" stroke="black" points="146.1,-46.1 142.6,-36.1 139.1,-46.1 146.1,-46.1"/>
</g>
<!-- p0xc03110 -->
<g id="node5" class="node">
<title>p0xc03110</title>
<ellipse fill="none" stroke="black" cx="243.6" cy="-90" rx="41.69" ry="18"/>
<text text-anchor="middle" x="243.6" y="-86.3" font-family="Times,serif" font-size="14.00">from&#45;2</text>
</g>
<!-- p0xc03200 -->
<g id="node6" class="node">
<title>p0xc03200</title>
<ellipse fill="none" stroke="black" cx="243.6" cy="-18" rx="28.7" ry="18"/>
<text text-anchor="middle" x="243.6" y="-14.3" font-family="Times,serif" font-size="14.00">to&#45;2</text>
</g>
<!-- p0xc03110&#45;&gt;p0xc03200 -->
<g id="edge3" class="edge">
<title>p0xc03110&#45;&gt;p0xc03200</title>
<path fill="none" stroke="black" d="M243.6,-71.7C243.6,-63.98 243.6,-54.71 243.6,-46.11"/>
<polygon fill="black" stroke="black" points="247.1,-46.1 243.6,-36.1 240.1,-46.1 247.1,-46.1"/>
</g>
<!-- p0xc032f0 -->
<g id="node7" class="node">
<title>p0xc032f0</title>
<ellipse fill="none" stroke="black" cx="344.6" cy="-90" rx="41.69" ry="18"/>
<text text-anchor="middle" x="344.6" y="-86.3" font-family="Times,serif" font-size="14.00">from&#45;3</text>
</g>
<!-- p0xc033e0 -->
<g id="node8" class="node">
<title>p0xc033e0</title>
<ellipse fill="none" stroke="black" cx="344.6" cy="-18" rx="28.7" ry="18"/>
<text text-anchor="middle" x="344.6" y="-14.3" font-family="Times,serif" font-size="14.00">to&#45;3</text>
</g>
<!-- p0xc032f0&#45;&gt;p0xc033e0 -->
<g id="edge4" class="edge">
<title>p0xc032f0&#45;&gt;p0xc033e0</title>
<path fill="none" stroke="black" d="M344.6,-71.7C344.6,-63.98 344.6,-54.71 344.6,-46.11"/>
<polygon fill="black" stroke="black" points="348.1,-46.1 344.6,-36.1 341.1,-46.1 348.1,-46.1"/>
</g>
<!-- p0xc034d0 -->
<g id="node9" class="node">
<title>p0xc034d0</title>
<ellipse fill="none" stroke="black" cx="445.6" cy="-90" rx="41.69" ry="18"/>
<text text-anchor="middle" x="445.6" y="-86.3" font-family="Times,serif" font-size="14.00">from&#45;4</text>
</g>
<!-- p0xc035c0 -->
<g id="node10" class="node">
<title>p0xc035c0</title>
<ellipse fill="none" stroke="black" cx="445.6" cy="-18" rx="28.7" ry="18"/>
<text text-anchor="middle" x="445.6" y="-14.3" font-family="Times,serif" font-size="14.00">to&#45;4</text>
</g>
<!-- p0xc034d0&#45;&gt;p0xc035c0 -->
<g id="edge5" class="edge">
<title>p0xc034d0&#45;&gt;p0xc035c0</title>
<path fill="none" stroke="black" d="M445.6,-71.7C445.6,-63.98 445.6,-54.71 445.6,-46.11"/>
<polygon fill="black" stroke="black" points="449.1,-46.1 445.6,-36.1 442.1,-46.1 449.1,-46.1"/>
</g>
</g>
</svg>
