<?xml version="1.0" encoding="UTF-8" standalone="no"?>
<!DOCTYPE svg PUBLIC "-//W3C//DTD SVG 1.1//EN"
 "http://www.w3.org/Graphics/SVG/1.1/DTD/svg11.dtd">
<!-- Generated by graphviz version 2.43.0 (0)
 -->
<!-- Title: ProcessException Pages: 1 -->
<svg width="778pt" height="506pt"
 viewBox="0.00 0.00 778.00 506.00" xmlns="http://www.w3.org/2000/svg" xmlns:xlink="http://www.w3.org/1999/xlink">
<g id="graph0" class="graph" transform="scale(1 1) rotate(0) translate(4 502)">
<title>ProcessException</title>
<polygon fill="white" stroke="transparent" points="-4,4 -4,-502 774,-502 774,4 -4,4"/>
<!-- start -->
<g id="node1" class="node">
<title>start</title>
<polygon fill="none" stroke="black" points="300.5,-498 100.5,-498 100.5,-462 300.5,-462 300.5,-498"/>
<text text-anchor="middle" x="200.5" y="-476.3" font-family="Times,serif" font-size="14.00">Exception thrown by task</text>
</g>
<!-- mark -->
<g id="node2" class="node">
<title>mark</title>
<polygon fill="none" stroke="black" points="371,-425 30,-425 30,-387 371,-387 371,-425"/>
<text text-anchor="middle" x="200.5" y="-409.8" font-family="Times,serif" font-size="14.00">Traverse to the root to find exception catcher</text>
<text text-anchor="middle" x="200.5" y="-394.8" font-family="Times,serif" font-size="14.00">(explicit &amp; implicit anchors)</text>
</g>
<!-- start&#45;&gt;mark -->
<g id="edge1" class="edge">
<title>start&#45;&gt;mark</title>
<path fill="none" stroke="black" d="M200.5,-461.94C200.5,-453.99 200.5,-444.31 200.5,-435.31"/>
<polygon fill="black" stroke="black" points="204,-435.2 200.5,-425.2 197,-435.2 204,-435.2"/>
</g>
<!-- explicit -->
<g id="node3" class="node">
<title>explicit</title>
<polygon fill="none" stroke="black" points="289,-350 112,-350 112,-312 289,-312 289,-350"/>
<text text-anchor="middle" x="200.5" y="-334.8" font-family="Times,serif" font-size="14.00">Explicit anchor found?</text>
<text text-anchor="middle" x="200.5" y="-319.8" font-family="Times,serif" font-size="14.00">(blocking context)</text>
</g>
<!-- mark&#45;&gt;explicit -->
<g id="edge2" class="edge">
<title>mark&#45;&gt;explicit</title>
<path fill="none" stroke="black" d="M200.5,-386.96C200.5,-378.88 200.5,-369.18 200.5,-360.18"/>
<polygon fill="black" stroke="black" points="204,-360.09 200.5,-350.09 197,-360.09 204,-360.09"/>
</g>
<!-- explicit_catch -->
<g id="node4" class="node">
<title>explicit_catch</title>
<polygon fill="none" stroke="black" points="257,-261 0,-261 0,-208 257,-208 257,-261"/>
<text text-anchor="middle" x="128.5" y="-245.8" font-family="Times,serif" font-size="14.00">Store exception in explicit anchor</text>
<text text-anchor="middle" x="128.5" y="-230.8" font-family="Times,serif" font-size="14.00">(first exception wins)</text>
<text text-anchor="middle" x="128.5" y="-215.8" font-family="Times,serif" font-size="14.00">→ Scenario 1</text>
</g>
<!-- explicit&#45;&gt;explicit_catch -->
<g id="edge3" class="edge">
<title>explicit&#45;&gt;explicit_catch</title>
<path fill="none" stroke="black" d="M186.62,-311.78C177.46,-299.76 165.19,-283.66 154.29,-269.34"/>
<polygon fill="black" stroke="black" points="156.9,-267 148.06,-261.17 151.33,-271.24 156.9,-267"/>
<text text-anchor="middle" x="186" y="-282.8" font-family="Times,serif" font-size="14.00">yes</text>
</g>
<!-- topology -->
<g id="node5" class="node">
<title>topology</title>
<polygon fill="none" stroke="black" points="466,-253.5 275,-253.5 275,-215.5 466,-215.5 466,-253.5"/>
<text text-anchor="middle" x="370.5" y="-238.3" font-family="Times,serif" font-size="14.00">Shared state found?</text>
<text text-anchor="middle" x="370.5" y="-223.3" font-family="Times,serif" font-size="14.00">(e.g., promise, topology)</text>
</g>
<!-- explicit&#45;&gt;topology -->
<g id="edge4" class="edge">
<title>explicit&#45;&gt;topology</title>
<path fill="none" stroke="black" d="M233.28,-311.78C260.65,-296.57 299.81,-274.8 329.29,-258.41"/>
<polygon fill="black" stroke="black" points="331.07,-261.42 338.11,-253.5 327.67,-255.3 331.07,-261.42"/>
<text text-anchor="middle" x="300.5" y="-282.8" font-family="Times,serif" font-size="14.00">no</text>
</g>
<!-- topology_catch -->
<g id="node6" class="node">
<title>topology_catch</title>
<polygon fill="none" stroke="black" points="425,-157 156,-157 156,-104 425,-104 425,-157"/>
<text text-anchor="middle" x="290.5" y="-141.8" font-family="Times,serif" font-size="14.00">Store exception in the shared state</text>
<text text-anchor="middle" x="290.5" y="-126.8" font-family="Times,serif" font-size="14.00">(first exception wins)</text>
<text text-anchor="middle" x="290.5" y="-111.8" font-family="Times,serif" font-size="14.00">→ Scenario 2</text>
</g>
<!-- topology&#45;&gt;topology_catch -->
<g id="edge5" class="edge">
<title>topology&#45;&gt;topology_catch</title>
<path fill="none" stroke="black" d="M356.2,-215.26C345.31,-201.38 330.01,-181.87 316.91,-165.17"/>
<polygon fill="black" stroke="black" points="319.61,-162.95 310.69,-157.24 314.11,-167.27 319.61,-162.95"/>
<text text-anchor="middle" x="348" y="-178.8" font-family="Times,serif" font-size="14.00">yes</text>
</g>
<!-- implicit -->
<g id="node7" class="node">
<title>implicit</title>
<polygon fill="none" stroke="black" points="682,-149.5 443,-149.5 443,-111.5 682,-111.5 682,-149.5"/>
<text text-anchor="middle" x="562.5" y="-134.3" font-family="Times,serif" font-size="14.00">Implicit anchor found?</text>
<text text-anchor="middle" x="562.5" y="-119.3" font-family="Times,serif" font-size="14.00">(e.g., task group, runtime task)</text>
</g>
<!-- topology&#45;&gt;implicit -->
<g id="edge6" class="edge">
<title>topology&#45;&gt;implicit</title>
<path fill="none" stroke="black" d="M404.38,-215.5C436.4,-198.49 484.58,-172.9 519.33,-154.43"/>
<polygon fill="black" stroke="black" points="521.12,-157.45 528.31,-149.66 517.84,-151.26 521.12,-157.45"/>
<text text-anchor="middle" x="486.5" y="-178.8" font-family="Times,serif" font-size="14.00">no</text>
</g>
<!-- implicit_catch -->
<g id="node8" class="node">
<title>implicit_catch</title>
<polygon fill="none" stroke="black" points="573,-53 314,-53 314,0 573,0 573,-53"/>
<text text-anchor="middle" x="443.5" y="-37.8" font-family="Times,serif" font-size="14.00">Store exception in implicit anchor</text>
<text text-anchor="middle" x="443.5" y="-22.8" font-family="Times,serif" font-size="14.00">(first exception wins)</text>
<text text-anchor="middle" x="443.5" y="-7.8" font-family="Times,serif" font-size="14.00">→ Scenario 3</text>
</g>
<!-- implicit&#45;&gt;implicit_catch -->
<g id="edge7" class="edge">
<title>implicit&#45;&gt;implicit_catch</title>
<path fill="none" stroke="black" d="M541.5,-111.5C524.89,-97.26 501.26,-77.01 481.37,-59.96"/>
<polygon fill="black" stroke="black" points="483.54,-57.21 473.67,-53.36 478.98,-62.52 483.54,-57.21"/>
<text text-anchor="middle" x="522" y="-74.8" font-family="Times,serif" font-size="14.00">yes</text>
</g>
<!-- silent -->
<g id="node9" class="node">
<title>silent</title>
<polygon fill="none" stroke="black" points="770,-45.5 591,-45.5 591,-7.5 770,-7.5 770,-45.5"/>
<text text-anchor="middle" x="680.5" y="-30.3" font-family="Times,serif" font-size="14.00">Store exception locally</text>
<text text-anchor="middle" x="680.5" y="-15.3" font-family="Times,serif" font-size="14.00">(no exception report)</text>
</g>
<!-- implicit&#45;&gt;silent -->
<g id="edge8" class="edge">
<title>implicit&#45;&gt;silent</title>
<path fill="none" stroke="black" d="M583.32,-111.5C602.33,-95.07 630.61,-70.63 651.76,-52.34"/>
<polygon fill="black" stroke="black" points="654.21,-54.85 659.49,-45.66 649.63,-49.56 654.21,-54.85"/>
<text text-anchor="middle" x="637.5" y="-74.8" font-family="Times,serif" font-size="14.00">no</text>
</g>
</g>
</svg>
