<?xml version="1.0" encoding="UTF-8" standalone="no"?>
<!DOCTYPE svg PUBLIC "-//W3C//DTD SVG 1.1//EN"
 "http://www.w3.org/Graphics/SVG/1.1/DTD/svg11.dtd">
<!-- Generated by graphviz version 2.43.0 (0)
 -->
<!-- Title: G Pages: 1 -->
<svg width="760pt" height="44pt"
 viewBox="0.00 0.00 760.35 44.00" xmlns="http://www.w3.org/2000/svg" xmlns:xlink="http://www.w3.org/1999/xlink">
<g id="graph0" class="graph" transform="scale(1 1) rotate(0) translate(4 40)">
<title>G</title>
<polygon fill="white" stroke="transparent" points="-4,4 -4,-40 756.35,-40 756.35,4 -4,4"/>
<!-- a -->
<g id="node1" class="node">
<title>a</title>
<ellipse fill="none" stroke="black" cx="42.9" cy="-18" rx="42.79" ry="18"/>
<text text-anchor="middle" x="42.9" y="-14.3" font-family="Times,serif" font-size="14.00">1/2 (H)</text>
</g>
<!-- b -->
<g id="node2" class="node">
<title>b</title>
<ellipse fill="none" stroke="black" cx="172.49" cy="-18" rx="50.89" ry="18"/>
<text text-anchor="middle" x="172.49" y="-14.3" font-family="Times,serif" font-size="14.00">1/4 (HH)</text>
</g>
<!-- a&#45;&gt;b -->
<g id="edge1" class="edge">
<title>a&#45;&gt;b</title>
<path fill="none" stroke="black" d="M86.03,-18C94.08,-18 102.65,-18 111.14,-18"/>
<polygon fill="black" stroke="black" points="111.42,-21.5 121.42,-18 111.42,-14.5 111.42,-21.5"/>
</g>
<!-- c -->
<g id="node3" class="node">
<title>c</title>
<ellipse fill="none" stroke="black" cx="317.68" cy="-18" rx="58.49" ry="18"/>
<text text-anchor="middle" x="317.68" y="-14.3" font-family="Times,serif" font-size="14.00">1/8 (HHH)</text>
</g>
<!-- b&#45;&gt;c -->
<g id="edge2" class="edge">
<title>b&#45;&gt;c</title>
<path fill="none" stroke="black" d="M223.57,-18C231.8,-18 240.45,-18 249.02,-18"/>
<polygon fill="black" stroke="black" points="249.02,-21.5 259.02,-18 249.02,-14.5 249.02,-21.5"/>
</g>
<!-- d -->
<g id="node4" class="node">
<title>d</title>
<ellipse fill="none" stroke="black" cx="484.32" cy="-18" rx="72.29" ry="18"/>
<text text-anchor="middle" x="484.32" y="-14.3" font-family="Times,serif" font-size="14.00">1/16 (HHHH)</text>
</g>
<!-- c&#45;&gt;d -->
<g id="edge3" class="edge">
<title>c&#45;&gt;d</title>
<path fill="none" stroke="black" d="M376.26,-18C384.59,-18 393.3,-18 401.98,-18"/>
<polygon fill="black" stroke="black" points="402.15,-21.5 412.15,-18 402.15,-14.5 402.15,-21.5"/>
</g>
<!-- e -->
<g id="node5" class="node">
<title>e</title>
<ellipse fill="none" stroke="black" cx="672.4" cy="-18" rx="79.89" ry="18"/>
<text text-anchor="middle" x="672.4" y="-14.3" font-family="Times,serif" font-size="14.00">1/32 (HHHHH)</text>
</g>
<!-- d&#45;&gt;e -->
<g id="edge4" class="edge">
<title>d&#45;&gt;e</title>
<path fill="none" stroke="black" d="M556.46,-18C564.87,-18 573.53,-18 582.15,-18"/>
<polygon fill="black" stroke="black" points="582.23,-21.5 592.23,-18 582.23,-14.5 582.23,-21.5"/>
</g>
</g>
</svg>
