<?xml version="1.0" encoding="UTF-8" standalone="no"?>
<!DOCTYPE svg PUBLIC "-//W3C//DTD SVG 1.1//EN"
 "http://www.w3.org/Graphics/SVG/1.1/DTD/svg11.dtd">
<!-- Generated by graphviz version 2.43.0 (0)
 -->
<!-- Title: Taskflow Pages: 1 -->
<svg width="291pt" height="98pt"
 viewBox="0.00 0.00 291.39 98.00" xmlns="http://www.w3.org/2000/svg" xmlns:xlink="http://www.w3.org/1999/xlink">
<g id="graph0" class="graph" transform="scale(1 1) rotate(0) translate(4 94)">
<title>Taskflow</title>
<polygon fill="white" stroke="transparent" points="-4,4 -4,-94 287.39,-94 287.39,4 -4,4"/>
<!-- p0x7f2870401a50 -->
<g id="node1" class="node">
<title>p0x7f2870401a50</title>
<ellipse fill="none" stroke="black" cx="38.35" cy="-72" rx="38.19" ry="18"/>
<text text-anchor="middle" x="38.35" y="-68.3" font-family="Times,serif" font-size="14.00">h2d_x</text>
</g>
<!-- p0x7f2870402bc0 -->
<g id="node2" class="node">
<title>p0x7f2870402bc0</title>
<polygon fill="black" stroke="white" points="170.69,-63 116.69,-63 112.69,-59 112.69,-27 166.69,-27 170.69,-31 170.69,-63"/>
<polyline fill="none" stroke="white" points="166.69,-59 112.69,-59 "/>
<polyline fill="none" stroke="white" points="166.69,-59 166.69,-27 "/>
<polyline fill="none" stroke="white" points="166.69,-59 170.69,-63 "/>
<text text-anchor="middle" x="141.69" y="-41.3" font-family="Times,serif" font-size="14.00" fill="white">saxpy</text>
</g>
<!-- p0x7f2870401a50&#45;&gt;p0x7f2870402bc0 -->
<g id="edge1" class="edge">
<title>p0x7f2870401a50&#45;&gt;p0x7f2870402bc0</title>
<path fill="none" stroke="black" d="M71.97,-63.31C81.78,-60.7 92.63,-57.81 102.75,-55.11"/>
<polygon fill="black" stroke="black" points="103.8,-58.45 112.56,-52.49 102,-51.69 103.8,-58.45"/>
</g>
<!-- p0x7f2870402310 -->
<g id="node4" class="node">
<title>p0x7f2870402310</title>
<ellipse fill="none" stroke="black" cx="245.04" cy="-72" rx="38.19" ry="18"/>
<text text-anchor="middle" x="245.04" y="-68.3" font-family="Times,serif" font-size="14.00">d2h_x</text>
</g>
<!-- p0x7f2870402bc0&#45;&gt;p0x7f2870402310 -->
<g id="edge3" class="edge">
<title>p0x7f2870402bc0&#45;&gt;p0x7f2870402310</title>
<path fill="none" stroke="black" d="M170.92,-52.52C180.42,-55.05 191.24,-57.93 201.59,-60.69"/>
<polygon fill="black" stroke="black" points="200.74,-64.09 211.3,-63.28 202.54,-57.32 200.74,-64.09"/>
</g>
<!-- p0x7f2870402780 -->
<g id="node5" class="node">
<title>p0x7f2870402780</title>
<ellipse fill="none" stroke="black" cx="245.04" cy="-18" rx="38.19" ry="18"/>
<text text-anchor="middle" x="245.04" y="-14.3" font-family="Times,serif" font-size="14.00">d2h_y</text>
</g>
<!-- p0x7f2870402bc0&#45;&gt;p0x7f2870402780 -->
<g id="edge4" class="edge">
<title>p0x7f2870402bc0&#45;&gt;p0x7f2870402780</title>
<path fill="none" stroke="black" d="M170.92,-37.48C180.42,-34.95 191.24,-32.07 201.59,-29.31"/>
<polygon fill="black" stroke="black" points="202.54,-32.68 211.3,-26.72 200.74,-25.91 202.54,-32.68"/>
</g>
<!-- p0x7f2870401eb0 -->
<g id="node3" class="node">
<title>p0x7f2870401eb0</title>
<ellipse fill="none" stroke="black" cx="38.35" cy="-18" rx="38.19" ry="18"/>
<text text-anchor="middle" x="38.35" y="-14.3" font-family="Times,serif" font-size="14.00">h2d_y</text>
</g>
<!-- p0x7f2870401eb0&#45;&gt;p0x7f2870402bc0 -->
<g id="edge2" class="edge">
<title>p0x7f2870401eb0&#45;&gt;p0x7f2870402bc0</title>
<path fill="none" stroke="black" d="M71.97,-26.69C81.78,-29.3 92.63,-32.19 102.75,-34.89"/>
<polygon fill="black" stroke="black" points="102,-38.31 112.56,-37.51 103.8,-31.55 102,-38.31"/>
</g>
</g>
</svg>
