<?xml version="1.0" encoding="UTF-8" standalone="no"?>
<!DOCTYPE svg PUBLIC "-//W3C//DTD SVG 1.1//EN"
 "http://www.w3.org/Graphics/SVG/1.1/DTD/svg11.dtd">
<!-- Generated by graphviz version 12.2.1 (20241206.2353)
 -->
<!-- Title: Taskflow Pages: 1 -->
<svg width="732pt" height="189pt"
 viewBox="0.00 0.00 732.00 189.00" xmlns="http://www.w3.org/2000/svg" xmlns:xlink="http://www.w3.org/1999/xlink">
<g id="graph0" class="graph" transform="scale(1 1) rotate(0) translate(4 185)">
<title>Taskflow</title>
<polygon fill="white" stroke="none" points="-4,4 -4,-185 728,-185 728,4 -4,4"/>
<g id="clust1" class="cluster">
<title>cluster_p0x7ffeaf4d98d8</title>
<polygon fill="none" stroke="black" points="8,-8 8,-173 128,-173 128,-8 8,-8"/>
<text text-anchor="middle" x="68" y="-155.7" font-family="Times,serif" font-size="14.00">Taskflow</text>
</g>
<g id="clust2" class="cluster">
<title>cluster_p0x7ffeaf4d9510</title>
<polygon fill="none" stroke="black" points="136,-8 136,-173 422,-173 422,-8 136,-8"/>
<text text-anchor="middle" x="279" y="-155.7" font-family="Times,serif" font-size="14.00">m2</text>
</g>
<g id="clust3" class="cluster">
<title>cluster_p0x7ffeaf4d95b0</title>
<polygon fill="none" stroke="black" points="430,-8 430,-173 716,-173 716,-8 430,-8"/>
<text text-anchor="middle" x="573" y="-155.7" font-family="Times,serif" font-size="14.00">m1</text>
</g>
<!-- p0x1da4f10 -->
<g id="node1" class="node">
<title>p0x1da4f10</title>
<polygon fill="none" stroke="blue" points="119.88,-140.5 20.12,-140.5 16.12,-136.5 16.12,-104.5 115.88,-104.5 119.88,-108.5 119.88,-140.5"/>
<polyline fill="none" stroke="blue" points="115.88,-136.5 16.12,-136.5"/>
<polyline fill="none" stroke="blue" points="115.88,-136.5 115.88,-104.5"/>
<polyline fill="none" stroke="blue" points="115.88,-136.5 119.88,-140.5"/>
<text text-anchor="middle" x="68" y="-117.45" font-family="Times,serif" font-size="14.00">pipeline_1 [m1]</text>
</g>
<!-- p0x1da4ff8 -->
<g id="node2" class="node">
<title>p0x1da4ff8</title>
<polygon fill="none" stroke="blue" points="119.88,-52 20.12,-52 16.12,-48 16.12,-16 115.88,-16 119.88,-20 119.88,-52"/>
<polyline fill="none" stroke="blue" points="115.88,-48 16.12,-48"/>
<polyline fill="none" stroke="blue" points="115.88,-48 115.88,-16"/>
<polyline fill="none" stroke="blue" points="115.88,-48 119.88,-52"/>
<text text-anchor="middle" x="68" y="-28.95" font-family="Times,serif" font-size="14.00">pipeline_2 [m2]</text>
</g>
<!-- p0x1da4f10&#45;&gt;p0x1da4ff8 -->
<g id="edge1" class="edge">
<title>p0x1da4f10&#45;&gt;p0x1da4ff8</title>
<path fill="none" stroke="black" d="M68,-104.41C68,-92.76 68,-77.05 68,-63.52"/>
<polygon fill="black" stroke="black" points="71.5,-63.86 68,-53.86 64.5,-63.86 71.5,-63.86"/>
</g>
<!-- p0x1da4a88 -->
<g id="node3" class="node">
<title>p0x1da4a88</title>
<polygon fill="aquamarine" stroke="black" points="278,-140.5 237.23,-122.5 278,-104.5 318.77,-122.5 278,-140.5"/>
<text text-anchor="middle" x="278" y="-117.45" font-family="Times,serif" font-size="14.00">cond</text>
</g>
<!-- p0x1da4b70 -->
<g id="node4" class="node">
<title>p0x1da4b70</title>
<polygon fill="none" stroke="black" points="198,-52 144,-52 144,-48 140,-48 140,-44 144,-44 144,-24 140,-24 140,-20 144,-20 144,-16 198,-16 198,-52"/>
<polyline fill="none" stroke="black" points="144,-48 148,-48 148,-44 144,-44"/>
<polyline fill="none" stroke="black" points="144,-24 148,-24 148,-20 144,-20"/>
<text text-anchor="middle" x="171" y="-28.95" font-family="Times,serif" font-size="14.00">rt&#45;0</text>
</g>
<!-- p0x1da4a88&#45;&gt;p0x1da4b70 -->
<g id="edge2" class="edge">
<title>p0x1da4a88&#45;&gt;p0x1da4b70</title>
<path fill="none" stroke="black" stroke-dasharray="5,2" d="M264.01,-110.19C248.12,-97.35 221.73,-76.01 201.11,-59.34"/>
<polygon fill="black" stroke="black" points="203.54,-56.8 193.56,-53.24 199.14,-62.25 203.54,-56.8"/>
<text text-anchor="middle" x="237.46" y="-73.2" font-family="Times,serif" font-size="14.00">0</text>
</g>
<!-- p0x1da4c58 -->
<g id="node5" class="node">
<title>p0x1da4c58</title>
<polygon fill="none" stroke="black" points="270,-52 216,-52 216,-48 212,-48 212,-44 216,-44 216,-24 212,-24 212,-20 216,-20 216,-16 270,-16 270,-52"/>
<polyline fill="none" stroke="black" points="216,-48 220,-48 220,-44 216,-44"/>
<polyline fill="none" stroke="black" points="216,-24 220,-24 220,-20 216,-20"/>
<text text-anchor="middle" x="243" y="-28.95" font-family="Times,serif" font-size="14.00">rt&#45;1</text>
</g>
<!-- p0x1da4a88&#45;&gt;p0x1da4c58 -->
<g id="edge3" class="edge">
<title>p0x1da4a88&#45;&gt;p0x1da4c58</title>
<path fill="none" stroke="black" stroke-dasharray="5,2" d="M272.06,-106.83C267.21,-94.84 260.22,-77.56 254.31,-62.95"/>
<polygon fill="black" stroke="black" points="257.62,-61.79 250.62,-53.84 251.13,-64.42 257.62,-61.79"/>
<text text-anchor="middle" x="267.01" y="-73.2" font-family="Times,serif" font-size="14.00">1</text>
</g>
<!-- p0x1da4d40 -->
<g id="node6" class="node">
<title>p0x1da4d40</title>
<polygon fill="none" stroke="black" points="342,-52 288,-52 288,-48 284,-48 284,-44 288,-44 288,-24 284,-24 284,-20 288,-20 288,-16 342,-16 342,-52"/>
<polyline fill="none" stroke="black" points="288,-48 292,-48 292,-44 288,-44"/>
<polyline fill="none" stroke="black" points="288,-24 292,-24 292,-20 288,-20"/>
<text text-anchor="middle" x="315" y="-28.95" font-family="Times,serif" font-size="14.00">rt&#45;2</text>
</g>
<!-- p0x1da4a88&#45;&gt;p0x1da4d40 -->
<g id="edge4" class="edge">
<title>p0x1da4a88&#45;&gt;p0x1da4d40</title>
<path fill="none" stroke="black" stroke-dasharray="5,2" d="M284.28,-106.83C289.4,-94.84 296.79,-77.56 303.04,-62.95"/>
<polygon fill="black" stroke="black" points="306.23,-64.4 306.95,-53.82 299.8,-61.64 306.23,-64.4"/>
<text text-anchor="middle" x="303.19" y="-73.2" font-family="Times,serif" font-size="14.00">2</text>
</g>
<!-- p0x1da4e28 -->
<g id="node7" class="node">
<title>p0x1da4e28</title>
<polygon fill="none" stroke="black" points="414,-52 360,-52 360,-48 356,-48 356,-44 360,-44 360,-24 356,-24 356,-20 360,-20 360,-16 414,-16 414,-52"/>
<polyline fill="none" stroke="black" points="360,-48 364,-48 364,-44 360,-44"/>
<polyline fill="none" stroke="black" points="360,-24 364,-24 364,-20 360,-20"/>
<text text-anchor="middle" x="387" y="-28.95" font-family="Times,serif" font-size="14.00">rt&#45;3</text>
</g>
<!-- p0x1da4a88&#45;&gt;p0x1da4e28 -->
<g id="edge5" class="edge">
<title>p0x1da4a88&#45;&gt;p0x1da4e28</title>
<path fill="none" stroke="black" stroke-dasharray="5,2" d="M291.8,-110.54C307.87,-97.79 334.91,-76.34 356.07,-59.55"/>
<polygon fill="black" stroke="black" points="358.18,-62.34 363.84,-53.38 353.83,-56.86 358.18,-62.34"/>
<text text-anchor="middle" x="345.64" y="-73.2" font-family="Times,serif" font-size="14.00">3</text>
</g>
<!-- p0x1da4600 -->
<g id="node8" class="node">
<title>p0x1da4600</title>
<polygon fill="aquamarine" stroke="black" points="572,-140.5 531.23,-122.5 572,-104.5 612.77,-122.5 572,-140.5"/>
<text text-anchor="middle" x="572" y="-117.45" font-family="Times,serif" font-size="14.00">cond</text>
</g>
<!-- p0x1da46e8 -->
<g id="node9" class="node">
<title>p0x1da46e8</title>
<polygon fill="none" stroke="black" points="492,-52 438,-52 438,-48 434,-48 434,-44 438,-44 438,-24 434,-24 434,-20 438,-20 438,-16 492,-16 492,-52"/>
<polyline fill="none" stroke="black" points="438,-48 442,-48 442,-44 438,-44"/>
<polyline fill="none" stroke="black" points="438,-24 442,-24 442,-20 438,-20"/>
<text text-anchor="middle" x="465" y="-28.95" font-family="Times,serif" font-size="14.00">rt&#45;0</text>
</g>
<!-- p0x1da4600&#45;&gt;p0x1da46e8 -->
<g id="edge6" class="edge">
<title>p0x1da4600&#45;&gt;p0x1da46e8</title>
<path fill="none" stroke="black" stroke-dasharray="5,2" d="M558.01,-110.19C542.12,-97.35 515.73,-76.01 495.11,-59.34"/>
<polygon fill="black" stroke="black" points="497.54,-56.8 487.56,-53.24 493.14,-62.25 497.54,-56.8"/>
<text text-anchor="middle" x="531.46" y="-73.2" font-family="Times,serif" font-size="14.00">0</text>
</g>
<!-- p0x1da47d0 -->
<g id="node10" class="node">
<title>p0x1da47d0</title>
<polygon fill="none" stroke="black" points="564,-52 510,-52 510,-48 506,-48 506,-44 510,-44 510,-24 506,-24 506,-20 510,-20 510,-16 564,-16 564,-52"/>
<polyline fill="none" stroke="black" points="510,-48 514,-48 514,-44 510,-44"/>
<polyline fill="none" stroke="black" points="510,-24 514,-24 514,-20 510,-20"/>
<text text-anchor="middle" x="537" y="-28.95" font-family="Times,serif" font-size="14.00">rt&#45;1</text>
</g>
<!-- p0x1da4600&#45;&gt;p0x1da47d0 -->
<g id="edge7" class="edge">
<title>p0x1da4600&#45;&gt;p0x1da47d0</title>
<path fill="none" stroke="black" stroke-dasharray="5,2" d="M566.06,-106.83C561.21,-94.84 554.22,-77.56 548.31,-62.95"/>
<polygon fill="black" stroke="black" points="551.62,-61.79 544.62,-53.84 545.13,-64.42 551.62,-61.79"/>
<text text-anchor="middle" x="561.01" y="-73.2" font-family="Times,serif" font-size="14.00">1</text>
</g>
<!-- p0x1da48b8 -->
<g id="node11" class="node">
<title>p0x1da48b8</title>
<polygon fill="none" stroke="black" points="636,-52 582,-52 582,-48 578,-48 578,-44 582,-44 582,-24 578,-24 578,-20 582,-20 582,-16 636,-16 636,-52"/>
<polyline fill="none" stroke="black" points="582,-48 586,-48 586,-44 582,-44"/>
<polyline fill="none" stroke="black" points="582,-24 586,-24 586,-20 582,-20"/>
<text text-anchor="middle" x="609" y="-28.95" font-family="Times,serif" font-size="14.00">rt&#45;2</text>
</g>
<!-- p0x1da4600&#45;&gt;p0x1da48b8 -->
<g id="edge8" class="edge">
<title>p0x1da4600&#45;&gt;p0x1da48b8</title>
<path fill="none" stroke="black" stroke-dasharray="5,2" d="M578.28,-106.83C583.4,-94.84 590.79,-77.56 597.04,-62.95"/>
<polygon fill="black" stroke="black" points="600.23,-64.4 600.95,-53.82 593.8,-61.64 600.23,-64.4"/>
<text text-anchor="middle" x="597.19" y="-73.2" font-family="Times,serif" font-size="14.00">2</text>
</g>
<!-- p0x1da49a0 -->
<g id="node12" class="node">
<title>p0x1da49a0</title>
<polygon fill="none" stroke="black" points="708,-52 654,-52 654,-48 650,-48 650,-44 654,-44 654,-24 650,-24 650,-20 654,-20 654,-16 708,-16 708,-52"/>
<polyline fill="none" stroke="black" points="654,-48 658,-48 658,-44 654,-44"/>
<polyline fill="none" stroke="black" points="654,-24 658,-24 658,-20 654,-20"/>
<text text-anchor="middle" x="681" y="-28.95" font-family="Times,serif" font-size="14.00">rt&#45;3</text>
</g>
<!-- p0x1da4600&#45;&gt;p0x1da49a0 -->
<g id="edge9" class="edge">
<title>p0x1da4600&#45;&gt;p0x1da49a0</title>
<path fill="none" stroke="black" stroke-dasharray="5,2" d="M585.8,-110.54C601.87,-97.79 628.91,-76.34 650.07,-59.55"/>
<polygon fill="black" stroke="black" points="652.18,-62.34 657.84,-53.38 647.83,-56.86 652.18,-62.34"/>
<text text-anchor="middle" x="639.64" y="-73.2" font-family="Times,serif" font-size="14.00">3</text>
</g>
</g>
</svg>
