<?xml version="1.0" encoding="UTF-8" standalone="no"?>
<!DOCTYPE svg PUBLIC "-//W3C//DTD SVG 1.1//EN"
 "http://www.w3.org/Graphics/SVG/1.1/DTD/svg11.dtd">
<!-- Generated by graphviz version 12.2.1 (20241206.2353)
 -->
<!-- Title: R Pages: 1 -->
<svg width="206pt" height="188pt"
 viewBox="0.00 0.00 206.00 188.00" xmlns="http://www.w3.org/2000/svg" xmlns:xlink="http://www.w3.org/1999/xlink">
<g id="graph0" class="graph" transform="scale(1 1) rotate(0) translate(4 184)">
<title>R</title>
<polygon fill="white" stroke="none" points="-4,4 -4,-184 202,-184 202,4 -4,4"/>
<!-- f1_A -->
<g id="node1" class="node">
<title>f1_A</title>
<polygon fill="none" stroke="black" points="54,-180 0,-180 0,-144 54,-144 54,-180"/>
<text text-anchor="middle" x="27" y="-156.95" font-family="Times,serif" font-size="14.00">f1(A)</text>
</g>
<!-- f1_B -->
<g id="node2" class="node">
<title>f1_B</title>
<polygon fill="none" stroke="black" points="126,-180 72,-180 72,-144 126,-144 126,-180"/>
<text text-anchor="middle" x="99" y="-156.95" font-family="Times,serif" font-size="14.00">f1(B)</text>
</g>
<!-- f1_A&#45;&gt;f1_B -->
<g id="edge7" class="edge">
<title>f1_A&#45;&gt;f1_B</title>
<path fill="none" stroke="black" d="M54.28,-162C56.28,-162 58.28,-162 60.29,-162"/>
<polygon fill="black" stroke="black" points="60.24,-165.5 70.24,-162 60.24,-158.5 60.24,-165.5"/>
</g>
<!-- f2_A -->
<g id="node4" class="node">
<title>f2_A</title>
<polygon fill="none" stroke="black" points="54,-108 0,-108 0,-72 54,-72 54,-108"/>
<text text-anchor="middle" x="27" y="-84.95" font-family="Times,serif" font-size="14.00">f2(A)</text>
</g>
<!-- f1_A&#45;&gt;f2_A -->
<g id="edge1" class="edge">
<title>f1_A&#45;&gt;f2_A</title>
<path fill="none" stroke="black" d="M27,-143.7C27,-136.41 27,-127.73 27,-119.54"/>
<polygon fill="black" stroke="black" points="30.5,-119.62 27,-109.62 23.5,-119.62 30.5,-119.62"/>
</g>
<!-- f1_C -->
<g id="node3" class="node">
<title>f1_C</title>
<polygon fill="none" stroke="black" points="198,-180 144,-180 144,-144 198,-144 198,-180"/>
<text text-anchor="middle" x="171" y="-156.95" font-family="Times,serif" font-size="14.00">f1(C)</text>
</g>
<!-- f1_B&#45;&gt;f1_C -->
<g id="edge8" class="edge">
<title>f1_B&#45;&gt;f1_C</title>
<path fill="none" stroke="black" d="M126.28,-162C128.28,-162 130.28,-162 132.29,-162"/>
<polygon fill="black" stroke="black" points="132.24,-165.5 142.24,-162 132.24,-158.5 132.24,-165.5"/>
</g>
<!-- f2_B -->
<g id="node5" class="node">
<title>f2_B</title>
<polygon fill="none" stroke="black" points="126,-108 72,-108 72,-72 126,-72 126,-108"/>
<text text-anchor="middle" x="99" y="-84.95" font-family="Times,serif" font-size="14.00">f2(B)</text>
</g>
<!-- f1_B&#45;&gt;f2_B -->
<g id="edge3" class="edge">
<title>f1_B&#45;&gt;f2_B</title>
<path fill="none" stroke="black" d="M99,-143.7C99,-136.41 99,-127.73 99,-119.54"/>
<polygon fill="black" stroke="black" points="102.5,-119.62 99,-109.62 95.5,-119.62 102.5,-119.62"/>
</g>
<!-- f2_C -->
<g id="node6" class="node">
<title>f2_C</title>
<polygon fill="none" stroke="black" points="198,-108 144,-108 144,-72 198,-72 198,-108"/>
<text text-anchor="middle" x="171" y="-84.95" font-family="Times,serif" font-size="14.00">f2(C)</text>
</g>
<!-- f1_C&#45;&gt;f2_C -->
<g id="edge5" class="edge">
<title>f1_C&#45;&gt;f2_C</title>
<path fill="none" stroke="black" d="M171,-143.7C171,-136.41 171,-127.73 171,-119.54"/>
<polygon fill="black" stroke="black" points="174.5,-119.62 171,-109.62 167.5,-119.62 174.5,-119.62"/>
</g>
<!-- f2_A&#45;&gt;f2_B -->
<g id="edge9" class="edge">
<title>f2_A&#45;&gt;f2_B</title>
<path fill="none" stroke="black" d="M54.28,-90C56.28,-90 58.28,-90 60.29,-90"/>
<polygon fill="black" stroke="black" points="60.24,-93.5 70.24,-90 60.24,-86.5 60.24,-93.5"/>
</g>
<!-- f3_A -->
<g id="node7" class="node">
<title>f3_A</title>
<polygon fill="none" stroke="black" points="54,-36 0,-36 0,0 54,0 54,-36"/>
<text text-anchor="middle" x="27" y="-12.95" font-family="Times,serif" font-size="14.00">f3(A)</text>
</g>
<!-- f2_A&#45;&gt;f3_A -->
<g id="edge2" class="edge">
<title>f2_A&#45;&gt;f3_A</title>
<path fill="none" stroke="black" d="M27,-71.7C27,-64.41 27,-55.73 27,-47.54"/>
<polygon fill="black" stroke="black" points="30.5,-47.62 27,-37.62 23.5,-47.62 30.5,-47.62"/>
</g>
<!-- f2_B&#45;&gt;f2_C -->
<g id="edge10" class="edge">
<title>f2_B&#45;&gt;f2_C</title>
<path fill="none" stroke="black" d="M126.28,-90C128.28,-90 130.28,-90 132.29,-90"/>
<polygon fill="black" stroke="black" points="132.24,-93.5 142.24,-90 132.24,-86.5 132.24,-93.5"/>
</g>
<!-- f3_B -->
<g id="node8" class="node">
<title>f3_B</title>
<polygon fill="none" stroke="black" points="126,-36 72,-36 72,0 126,0 126,-36"/>
<text text-anchor="middle" x="99" y="-12.95" font-family="Times,serif" font-size="14.00">f3(B)</text>
</g>
<!-- f2_B&#45;&gt;f3_B -->
<g id="edge4" class="edge">
<title>f2_B&#45;&gt;f3_B</title>
<path fill="none" stroke="black" d="M99,-71.7C99,-64.41 99,-55.73 99,-47.54"/>
<polygon fill="black" stroke="black" points="102.5,-47.62 99,-37.62 95.5,-47.62 102.5,-47.62"/>
</g>
<!-- f3_C -->
<g id="node9" class="node">
<title>f3_C</title>
<polygon fill="none" stroke="black" points="198,-36 144,-36 144,0 198,0 198,-36"/>
<text text-anchor="middle" x="171" y="-12.95" font-family="Times,serif" font-size="14.00">f3(C)</text>
</g>
<!-- f2_C&#45;&gt;f3_C -->
<g id="edge6" class="edge">
<title>f2_C&#45;&gt;f3_C</title>
<path fill="none" stroke="black" d="M171,-71.7C171,-64.41 171,-55.73 171,-47.54"/>
<polygon fill="black" stroke="black" points="174.5,-47.62 171,-37.62 167.5,-47.62 174.5,-47.62"/>
</g>
<!-- f3_A&#45;&gt;f3_B -->
<g id="edge11" class="edge">
<title>f3_A&#45;&gt;f3_B</title>
<path fill="none" stroke="black" d="M54.28,-18C56.28,-18 58.28,-18 60.29,-18"/>
<polygon fill="black" stroke="black" points="60.24,-21.5 70.24,-18 60.24,-14.5 60.24,-21.5"/>
</g>
<!-- f3_B&#45;&gt;f3_C -->
<g id="edge12" class="edge">
<title>f3_B&#45;&gt;f3_C</title>
<path fill="none" stroke="black" d="M126.28,-18C128.28,-18 130.28,-18 132.29,-18"/>
<polygon fill="black" stroke="black" points="132.24,-21.5 142.24,-18 132.24,-14.5 132.24,-21.5"/>
</g>
</g>
</svg>
