<?xml version="1.0" encoding="UTF-8" standalone="no"?>
<!DOCTYPE svg PUBLIC "-//W3C//DTD SVG 1.1//EN"
 "http://www.w3.org/Graphics/SVG/1.1/DTD/svg11.dtd">
<!-- Generated by graphviz version 2.43.0 (0)
 -->
<!-- Title: G Pages: 1 -->
<svg width="481pt" height="315pt"
 viewBox="0.00 0.00 481.00 315.00" xmlns="http://www.w3.org/2000/svg" xmlns:xlink="http://www.w3.org/1999/xlink">
<g id="graph0" class="graph" transform="scale(1 1) rotate(0) translate(4 311)">
<title>G</title>
<polygon fill="white" stroke="transparent" points="-4,4 -4,-311 477,-311 477,4 -4,4"/>
<g id="clust1" class="cluster">
<title>cluster_1</title>
<polygon fill="none" stroke="black" points="8,-80 8,-299 150,-299 150,-80 8,-80"/>
<text text-anchor="middle" x="79" y="-283.8" font-family="Times,serif" font-size="14.00">taskflow1</text>
</g>
<g id="clust2" class="cluster">
<title>cluster_2</title>
<polygon fill="none" stroke="black" points="158,-8 158,-299 243,-299 243,-8 158,-8"/>
<text text-anchor="middle" x="200.5" y="-283.8" font-family="Times,serif" font-size="14.00">taskflow2</text>
</g>
<g id="clust3" class="cluster">
<title>cluster_3</title>
<polygon fill="none" stroke="black" points="251,-152 251,-299 465,-299 465,-152 251,-152"/>
<text text-anchor="middle" x="358" y="-283.8" font-family="Times,serif" font-size="14.00">taskflow3</text>
</g>
<!-- A1 -->
<g id="node1" class="node">
<title>A1</title>
<ellipse fill="none" stroke="black" cx="79" cy="-250" rx="27" ry="18"/>
<text text-anchor="middle" x="79" y="-246.3" font-family="Times,serif" font-size="14.00">A1</text>
</g>
<!-- B1 -->
<g id="node2" class="node">
<title>B1</title>
<ellipse fill="none" stroke="black" cx="43" cy="-178" rx="27" ry="18"/>
<text text-anchor="middle" x="43" y="-174.3" font-family="Times,serif" font-size="14.00">B1</text>
</g>
<!-- A1&#45;&gt;B1 -->
<g id="edge1" class="edge">
<title>A1&#45;&gt;B1</title>
<path fill="none" stroke="black" d="M70.65,-232.76C66.29,-224.28 60.85,-213.71 55.96,-204.2"/>
<polygon fill="black" stroke="black" points="58.99,-202.44 51.3,-195.15 52.77,-205.64 58.99,-202.44"/>
</g>
<!-- C1 -->
<g id="node3" class="node">
<title>C1</title>
<ellipse fill="none" stroke="black" cx="115" cy="-178" rx="27" ry="18"/>
<text text-anchor="middle" x="115" y="-174.3" font-family="Times,serif" font-size="14.00">C1</text>
</g>
<!-- A1&#45;&gt;C1 -->
<g id="edge2" class="edge">
<title>A1&#45;&gt;C1</title>
<path fill="none" stroke="black" d="M87.35,-232.76C91.71,-224.28 97.15,-213.71 102.04,-204.2"/>
<polygon fill="black" stroke="black" points="105.23,-205.64 106.7,-195.15 99.01,-202.44 105.23,-205.64"/>
</g>
<!-- D1 -->
<g id="node4" class="node">
<title>D1</title>
<ellipse fill="none" stroke="black" cx="79" cy="-106" rx="27" ry="18"/>
<text text-anchor="middle" x="79" y="-102.3" font-family="Times,serif" font-size="14.00">D1</text>
</g>
<!-- B1&#45;&gt;D1 -->
<g id="edge3" class="edge">
<title>B1&#45;&gt;D1</title>
<path fill="none" stroke="black" d="M51.35,-160.76C55.71,-152.28 61.15,-141.71 66.04,-132.2"/>
<polygon fill="black" stroke="black" points="69.23,-133.64 70.7,-123.15 63.01,-130.44 69.23,-133.64"/>
</g>
<!-- C1&#45;&gt;D1 -->
<g id="edge4" class="edge">
<title>C1&#45;&gt;D1</title>
<path fill="none" stroke="black" d="M106.65,-160.76C102.29,-152.28 96.85,-141.71 91.96,-132.2"/>
<polygon fill="black" stroke="black" points="94.99,-130.44 87.3,-123.15 88.77,-133.64 94.99,-130.44"/>
</g>
<!-- A2 -->
<g id="node5" class="node">
<title>A2</title>
<ellipse fill="none" stroke="black" cx="200" cy="-250" rx="27" ry="18"/>
<text text-anchor="middle" x="200" y="-246.3" font-family="Times,serif" font-size="14.00">A2</text>
</g>
<!-- B2 -->
<g id="node6" class="node">
<title>B2</title>
<ellipse fill="none" stroke="black" cx="200" cy="-178" rx="27" ry="18"/>
<text text-anchor="middle" x="200" y="-174.3" font-family="Times,serif" font-size="14.00">B2</text>
</g>
<!-- A2&#45;&gt;B2 -->
<g id="edge5" class="edge">
<title>A2&#45;&gt;B2</title>
<path fill="none" stroke="black" d="M200,-231.7C200,-223.98 200,-214.71 200,-206.11"/>
<polygon fill="black" stroke="black" points="203.5,-206.1 200,-196.1 196.5,-206.1 203.5,-206.1"/>
</g>
<!-- C2 -->
<g id="node7" class="node">
<title>C2</title>
<ellipse fill="none" stroke="black" cx="200" cy="-106" rx="27" ry="18"/>
<text text-anchor="middle" x="200" y="-102.3" font-family="Times,serif" font-size="14.00">C2</text>
</g>
<!-- B2&#45;&gt;C2 -->
<g id="edge6" class="edge">
<title>B2&#45;&gt;C2</title>
<path fill="none" stroke="black" d="M200,-159.7C200,-151.98 200,-142.71 200,-134.11"/>
<polygon fill="black" stroke="black" points="203.5,-134.1 200,-124.1 196.5,-134.1 203.5,-134.1"/>
</g>
<!-- D2 -->
<g id="node8" class="node">
<title>D2</title>
<ellipse fill="none" stroke="black" cx="200" cy="-34" rx="27" ry="18"/>
<text text-anchor="middle" x="200" y="-30.3" font-family="Times,serif" font-size="14.00">D2</text>
</g>
<!-- C2&#45;&gt;D2 -->
<g id="edge7" class="edge">
<title>C2&#45;&gt;D2</title>
<path fill="none" stroke="black" d="M200,-87.7C200,-79.98 200,-70.71 200,-62.11"/>
<polygon fill="black" stroke="black" points="203.5,-62.1 200,-52.1 196.5,-62.1 203.5,-62.1"/>
</g>
<!-- A3 -->
<g id="node9" class="node">
<title>A3</title>
<ellipse fill="none" stroke="black" cx="358" cy="-250" rx="27" ry="18"/>
<text text-anchor="middle" x="358" y="-246.3" font-family="Times,serif" font-size="14.00">A3</text>
</g>
<!-- B3 -->
<g id="node10" class="node">
<title>B3</title>
<ellipse fill="none" stroke="black" cx="286" cy="-178" rx="27" ry="18"/>
<text text-anchor="middle" x="286" y="-174.3" font-family="Times,serif" font-size="14.00">B3</text>
</g>
<!-- A3&#45;&gt;B3 -->
<g id="edge8" class="edge">
<title>A3&#45;&gt;B3</title>
<path fill="none" stroke="black" d="M343.43,-234.83C333.25,-224.94 319.48,-211.55 307.97,-200.36"/>
<polygon fill="black" stroke="black" points="310.41,-197.85 300.8,-193.38 305.53,-202.87 310.41,-197.85"/>
</g>
<!-- C3 -->
<g id="node11" class="node">
<title>C3</title>
<ellipse fill="none" stroke="black" cx="358" cy="-178" rx="27" ry="18"/>
<text text-anchor="middle" x="358" y="-174.3" font-family="Times,serif" font-size="14.00">C3</text>
</g>
<!-- A3&#45;&gt;C3 -->
<g id="edge9" class="edge">
<title>A3&#45;&gt;C3</title>
<path fill="none" stroke="black" d="M358,-231.7C358,-223.98 358,-214.71 358,-206.11"/>
<polygon fill="black" stroke="black" points="361.5,-206.1 358,-196.1 354.5,-206.1 361.5,-206.1"/>
</g>
<!-- D3 -->
<g id="node12" class="node">
<title>D3</title>
<ellipse fill="none" stroke="black" cx="430" cy="-178" rx="27" ry="18"/>
<text text-anchor="middle" x="430" y="-174.3" font-family="Times,serif" font-size="14.00">D3</text>
</g>
<!-- A3&#45;&gt;D3 -->
<g id="edge10" class="edge">
<title>A3&#45;&gt;D3</title>
<path fill="none" stroke="black" d="M372.57,-234.83C382.75,-224.94 396.52,-211.55 408.03,-200.36"/>
<polygon fill="black" stroke="black" points="410.47,-202.87 415.2,-193.38 405.59,-197.85 410.47,-202.87"/>
</g>
</g>
</svg>
