<?xml version="1.0" encoding="UTF-8" standalone="no"?>
<!DOCTYPE svg PUBLIC "-//W3C//DTD SVG 1.1//EN"
 "http://www.w3.org/Graphics/SVG/1.1/DTD/svg11.dtd">
<!-- Generated by graphviz version 12.2.1 (20241206.2353)
 -->
<!-- Title: Taskflow Pages: 1 -->
<svg width="856pt" height="189pt"
 viewBox="0.00 0.00 856.00 189.00" xmlns="http://www.w3.org/2000/svg" xmlns:xlink="http://www.w3.org/1999/xlink">
<g id="graph0" class="graph" transform="scale(1 1) rotate(0) translate(4 185)">
<title>Taskflow</title>
<polygon fill="white" stroke="none" points="-4,4 -4,-185 852,-185 852,4 -4,4"/>
<g id="clust1" class="cluster">
<title>cluster_p0x7ffcc76abe80</title>
<polygon fill="none" stroke="black" points="8,-8 8,-173 114,-173 114,-8 8,-8"/>
<text text-anchor="middle" x="61" y="-155.7" font-family="Times,serif" font-size="14.00">Taskflow</text>
</g>
<g id="clust2" class="cluster">
<title>cluster_p0x7ffcc76abd30</title>
<polygon fill="none" stroke="black" points="122,-8 122,-173 840,-173 840,-8 122,-8"/>
<text text-anchor="middle" x="481" y="-155.7" font-family="Times,serif" font-size="14.00">m1</text>
</g>
<!-- p0x8e9a68 -->
<g id="node1" class="node">
<title>p0x8e9a68</title>
<ellipse fill="none" stroke="black" cx="61" cy="-122.5" rx="45.21" ry="18"/>
<text text-anchor="middle" x="61" y="-117.45" font-family="Times,serif" font-size="14.00">init pipes</text>
</g>
<!-- p0x8e9980 -->
<g id="node2" class="node">
<title>p0x8e9980</title>
<polygon fill="none" stroke="blue" points="106.12,-52 19.88,-52 15.88,-48 15.88,-16 102.12,-16 106.12,-20 106.12,-52"/>
<polyline fill="none" stroke="blue" points="102.12,-48 15.88,-48"/>
<polyline fill="none" stroke="blue" points="102.12,-48 102.12,-16"/>
<polyline fill="none" stroke="blue" points="102.12,-48 106.12,-52"/>
<text text-anchor="middle" x="61" y="-28.95" font-family="Times,serif" font-size="14.00">pipeline [m1]</text>
</g>
<!-- p0x8e9a68&#45;&gt;p0x8e9980 -->
<g id="edge1" class="edge">
<title>p0x8e9a68&#45;&gt;p0x8e9980</title>
<path fill="none" stroke="black" d="M61,-104.41C61,-92.76 61,-77.05 61,-63.52"/>
<polygon fill="black" stroke="black" points="64.5,-63.86 61,-53.86 57.5,-63.86 64.5,-63.86"/>
</g>
<!-- p0x8ea460 -->
<g id="node3" class="node">
<title>p0x8ea460</title>
<polygon fill="aquamarine" stroke="black" points="480,-140.5 439.23,-122.5 480,-104.5 520.77,-122.5 480,-140.5"/>
<text text-anchor="middle" x="480" y="-117.45" font-family="Times,serif" font-size="14.00">cond</text>
</g>
<!-- p0x8ea378 -->
<g id="node4" class="node">
<title>p0x8ea378</title>
<polygon fill="none" stroke="black" points="184,-52 130,-52 130,-48 126,-48 126,-44 130,-44 130,-24 126,-24 126,-20 130,-20 130,-16 184,-16 184,-52"/>
<polyline fill="none" stroke="black" points="130,-48 134,-48 134,-44 130,-44"/>
<polyline fill="none" stroke="black" points="130,-24 134,-24 134,-20 130,-20"/>
<text text-anchor="middle" x="157" y="-28.95" font-family="Times,serif" font-size="14.00">rt&#45;0</text>
</g>
<!-- p0x8ea460&#45;&gt;p0x8ea378 -->
<g id="edge2" class="edge">
<title>p0x8ea460&#45;&gt;p0x8ea378</title>
<path fill="none" stroke="black" stroke-dasharray="5,2" d="M450.73,-117.02C399.8,-108.68 291.81,-88.56 194.89,-52.43"/>
<polygon fill="black" stroke="black" points="196.34,-49.24 185.75,-48.95 193.85,-55.78 196.34,-49.24"/>
<text text-anchor="middle" x="304.59" y="-73.2" font-family="Times,serif" font-size="14.00">0</text>
</g>
<!-- p0x8ea290 -->
<g id="node5" class="node">
<title>p0x8ea290</title>
<polygon fill="none" stroke="black" points="256,-52 202,-52 202,-48 198,-48 198,-44 202,-44 202,-24 198,-24 198,-20 202,-20 202,-16 256,-16 256,-52"/>
<polyline fill="none" stroke="black" points="202,-48 206,-48 206,-44 202,-44"/>
<polyline fill="none" stroke="black" points="202,-24 206,-24 206,-20 202,-20"/>
<text text-anchor="middle" x="229" y="-28.95" font-family="Times,serif" font-size="14.00">rt&#45;1</text>
</g>
<!-- p0x8ea460&#45;&gt;p0x8ea290 -->
<g id="edge3" class="edge">
<title>p0x8ea460&#45;&gt;p0x8ea290</title>
<path fill="none" stroke="black" stroke-dasharray="5,2" d="M455.38,-114.88C416.78,-104.21 339.66,-81.77 266.66,-52.47"/>
<polygon fill="black" stroke="black" points="268.37,-49.39 257.79,-48.86 265.73,-55.87 268.37,-49.39"/>
<text text-anchor="middle" x="361.57" y="-73.2" font-family="Times,serif" font-size="14.00">1</text>
</g>
<!-- p0x8ea1a8 -->
<g id="node6" class="node">
<title>p0x8ea1a8</title>
<polygon fill="none" stroke="black" points="328,-52 274,-52 274,-48 270,-48 270,-44 274,-44 274,-24 270,-24 270,-20 274,-20 274,-16 328,-16 328,-52"/>
<polyline fill="none" stroke="black" points="274,-48 278,-48 278,-44 274,-44"/>
<polyline fill="none" stroke="black" points="274,-24 278,-24 278,-20 274,-20"/>
<text text-anchor="middle" x="301" y="-28.95" font-family="Times,serif" font-size="14.00">rt&#45;2</text>
</g>
<!-- p0x8ea460&#45;&gt;p0x8ea1a8 -->
<g id="edge4" class="edge">
<title>p0x8ea460&#45;&gt;p0x8ea1a8</title>
<path fill="none" stroke="black" stroke-dasharray="5,2" d="M460.87,-112.5C445.96,-105.47 424.76,-95.42 406.25,-86.5 383.73,-75.65 358.57,-63.34 338.5,-53.48"/>
<polygon fill="black" stroke="black" points="340.09,-50.37 329.57,-49.1 337,-56.65 340.09,-50.37"/>
<text text-anchor="middle" x="409.62" y="-73.2" font-family="Times,serif" font-size="14.00">2</text>
</g>
<!-- p0x8ea0c0 -->
<g id="node7" class="node">
<title>p0x8ea0c0</title>
<polygon fill="none" stroke="black" points="400,-52 346,-52 346,-48 342,-48 342,-44 346,-44 346,-24 342,-24 342,-20 346,-20 346,-16 400,-16 400,-52"/>
<polyline fill="none" stroke="black" points="346,-48 350,-48 350,-44 346,-44"/>
<polyline fill="none" stroke="black" points="346,-24 350,-24 350,-20 346,-20"/>
<text text-anchor="middle" x="373" y="-28.95" font-family="Times,serif" font-size="14.00">rt&#45;3</text>
</g>
<!-- p0x8ea460&#45;&gt;p0x8ea0c0 -->
<g id="edge5" class="edge">
<title>p0x8ea460&#45;&gt;p0x8ea0c0</title>
<path fill="none" stroke="black" stroke-dasharray="5,2" d="M466.01,-110.19C450.12,-97.35 423.73,-76.01 403.11,-59.34"/>
<polygon fill="black" stroke="black" points="405.54,-56.8 395.56,-53.24 401.14,-62.25 405.54,-56.8"/>
<text text-anchor="middle" x="439.46" y="-73.2" font-family="Times,serif" font-size="14.00">3</text>
</g>
<!-- p0x8e9fd8 -->
<g id="node8" class="node">
<title>p0x8e9fd8</title>
<polygon fill="none" stroke="black" points="472,-52 418,-52 418,-48 414,-48 414,-44 418,-44 418,-24 414,-24 414,-20 418,-20 418,-16 472,-16 472,-52"/>
<polyline fill="none" stroke="black" points="418,-48 422,-48 422,-44 418,-44"/>
<polyline fill="none" stroke="black" points="418,-24 422,-24 422,-20 418,-20"/>
<text text-anchor="middle" x="445" y="-28.95" font-family="Times,serif" font-size="14.00">rt&#45;4</text>
</g>
<!-- p0x8ea460&#45;&gt;p0x8e9fd8 -->
<g id="edge6" class="edge">
<title>p0x8ea460&#45;&gt;p0x8e9fd8</title>
<path fill="none" stroke="black" stroke-dasharray="5,2" d="M474.06,-106.83C469.21,-94.84 462.22,-77.56 456.31,-62.95"/>
<polygon fill="black" stroke="black" points="459.62,-61.79 452.62,-53.84 453.13,-64.42 459.62,-61.79"/>
<text text-anchor="middle" x="469.01" y="-73.2" font-family="Times,serif" font-size="14.00">4</text>
</g>
<!-- p0x8e9ef0 -->
<g id="node9" class="node">
<title>p0x8e9ef0</title>
<polygon fill="none" stroke="black" points="544,-52 490,-52 490,-48 486,-48 486,-44 490,-44 490,-24 486,-24 486,-20 490,-20 490,-16 544,-16 544,-52"/>
<polyline fill="none" stroke="black" points="490,-48 494,-48 494,-44 490,-44"/>
<polyline fill="none" stroke="black" points="490,-24 494,-24 494,-20 490,-20"/>
<text text-anchor="middle" x="517" y="-28.95" font-family="Times,serif" font-size="14.00">rt&#45;5</text>
</g>
<!-- p0x8ea460&#45;&gt;p0x8e9ef0 -->
<g id="edge7" class="edge">
<title>p0x8ea460&#45;&gt;p0x8e9ef0</title>
<path fill="none" stroke="black" stroke-dasharray="5,2" d="M486.28,-106.83C491.4,-94.84 498.79,-77.56 505.04,-62.95"/>
<polygon fill="black" stroke="black" points="508.23,-64.4 508.95,-53.82 501.8,-61.64 508.23,-64.4"/>
<text text-anchor="middle" x="505.19" y="-73.2" font-family="Times,serif" font-size="14.00">5</text>
</g>
<!-- p0x8e9e08 -->
<g id="node10" class="node">
<title>p0x8e9e08</title>
<polygon fill="none" stroke="black" points="616,-52 562,-52 562,-48 558,-48 558,-44 562,-44 562,-24 558,-24 558,-20 562,-20 562,-16 616,-16 616,-52"/>
<polyline fill="none" stroke="black" points="562,-48 566,-48 566,-44 562,-44"/>
<polyline fill="none" stroke="black" points="562,-24 566,-24 566,-20 562,-20"/>
<text text-anchor="middle" x="589" y="-28.95" font-family="Times,serif" font-size="14.00">rt&#45;6</text>
</g>
<!-- p0x8ea460&#45;&gt;p0x8e9e08 -->
<g id="edge8" class="edge">
<title>p0x8ea460&#45;&gt;p0x8e9e08</title>
<path fill="none" stroke="black" stroke-dasharray="5,2" d="M493.8,-110.54C509.87,-97.79 536.91,-76.34 558.07,-59.55"/>
<polygon fill="black" stroke="black" points="560.18,-62.34 565.84,-53.38 555.83,-56.86 560.18,-62.34"/>
<text text-anchor="middle" x="547.64" y="-73.2" font-family="Times,serif" font-size="14.00">6</text>
</g>
<!-- p0x8e9d20 -->
<g id="node11" class="node">
<title>p0x8e9d20</title>
<polygon fill="none" stroke="black" points="688,-52 634,-52 634,-48 630,-48 630,-44 634,-44 634,-24 630,-24 630,-20 634,-20 634,-16 688,-16 688,-52"/>
<polyline fill="none" stroke="black" points="634,-48 638,-48 638,-44 634,-44"/>
<polyline fill="none" stroke="black" points="634,-24 638,-24 638,-20 634,-20"/>
<text text-anchor="middle" x="661" y="-28.95" font-family="Times,serif" font-size="14.00">rt&#45;7</text>
</g>
<!-- p0x8ea460&#45;&gt;p0x8e9d20 -->
<g id="edge9" class="edge">
<title>p0x8ea460&#45;&gt;p0x8e9d20</title>
<path fill="none" stroke="black" stroke-dasharray="5,2" d="M499.15,-112.66C514.33,-105.64 536.06,-95.52 555,-86.5 577.81,-75.64 603.27,-63.27 623.53,-53.38"/>
<polygon fill="black" stroke="black" points="624.8,-56.66 632.24,-49.12 621.72,-50.37 624.8,-56.66"/>
<text text-anchor="middle" x="590.5" y="-73.2" font-family="Times,serif" font-size="14.00">7</text>
</g>
<!-- p0x8e9c38 -->
<g id="node12" class="node">
<title>p0x8e9c38</title>
<polygon fill="none" stroke="black" points="760,-52 706,-52 706,-48 702,-48 702,-44 706,-44 706,-24 702,-24 702,-20 706,-20 706,-16 760,-16 760,-52"/>
<polyline fill="none" stroke="black" points="706,-48 710,-48 710,-44 706,-44"/>
<polyline fill="none" stroke="black" points="706,-24 710,-24 710,-20 706,-20"/>
<text text-anchor="middle" x="733" y="-28.95" font-family="Times,serif" font-size="14.00">rt&#45;8</text>
</g>
<!-- p0x8ea460&#45;&gt;p0x8e9c38 -->
<g id="edge10" class="edge">
<title>p0x8ea460&#45;&gt;p0x8e9c38</title>
<path fill="none" stroke="black" stroke-dasharray="5,2" d="M504.53,-115C543.38,-104.42 621.46,-81.99 695.24,-52.5"/>
<polygon fill="black" stroke="black" points="696.26,-55.87 704.21,-48.87 693.63,-49.38 696.26,-55.87"/>
<text text-anchor="middle" x="647.78" y="-73.2" font-family="Times,serif" font-size="14.00">8</text>
</g>
<!-- p0x8e9b50 -->
<g id="node13" class="node">
<title>p0x8e9b50</title>
<polygon fill="none" stroke="black" points="832,-52 778,-52 778,-48 774,-48 774,-44 778,-44 778,-24 774,-24 774,-20 778,-20 778,-16 832,-16 832,-52"/>
<polyline fill="none" stroke="black" points="778,-48 782,-48 782,-44 778,-44"/>
<polyline fill="none" stroke="black" points="778,-24 782,-24 782,-20 778,-20"/>
<text text-anchor="middle" x="805" y="-28.95" font-family="Times,serif" font-size="14.00">rt&#45;9</text>
</g>
<!-- p0x8ea460&#45;&gt;p0x8e9b50 -->
<g id="edge11" class="edge">
<title>p0x8ea460&#45;&gt;p0x8e9b50</title>
<path fill="none" stroke="black" stroke-dasharray="5,2" d="M509.48,-117.05C560.76,-108.75 669.5,-88.71 767.05,-52.45"/>
<polygon fill="black" stroke="black" points="768.14,-55.78 776.25,-48.95 765.66,-49.23 768.14,-55.78"/>
<text text-anchor="middle" x="718.67" y="-73.2" font-family="Times,serif" font-size="14.00">9</text>
</g>
</g>
</svg>
