<?xml version="1.0" encoding="UTF-8" standalone="no"?>
<!DOCTYPE svg PUBLIC "-//W3C//DTD SVG 1.1//EN"
 "http://www.w3.org/Graphics/SVG/1.1/DTD/svg11.dtd">
<!-- Generated by graphviz version 2.43.0 (0)
 -->
<!-- Title: Taskflow Pages: 1 -->
<svg width="830pt" height="747pt"
 viewBox="0.00 0.00 830.41 747.00" xmlns="http://www.w3.org/2000/svg" xmlns:xlink="http://www.w3.org/1999/xlink">
<g id="graph0" class="graph" transform="scale(1 1) rotate(0) translate(4 743)">
<title>Taskflow</title>
<polygon fill="white" stroke="transparent" points="-4,4 -4,-743 826.41,-743 826.41,4 -4,4"/>
<g id="clust1" class="cluster">
<title>cluster_p0x1dcb6e0</title>
<polygon fill="none" stroke="blue" points="8,-8 8,-731 268.98,-731 268.98,-8 8,-8"/>
<text text-anchor="middle" x="138.49" y="-715.8" font-family="Times,serif" font-size="14.00">Subflow: parallel&#45;for</text>
</g>
<!-- p0x1dcb4c0 -->
<g id="node1" class="node">
<title>p0x1dcb4c0</title>
<ellipse fill="none" stroke="black" cx="583.64" cy="-421" rx="27" ry="18"/>
<text text-anchor="middle" x="583.64" y="-417.3" font-family="Times,serif" font-size="14.00">init</text>
</g>
<!-- p0x1dcb5d0 -->
<g id="node2" class="node">
<title>p0x1dcb5d0</title>
<ellipse fill="none" stroke="black" cx="771.07" cy="-375" rx="51.19" ry="18"/>
<text text-anchor="middle" x="771.07" y="-371.3" font-family="Times,serif" font-size="14.00">clean_up</text>
</g>
<!-- p0x1dcb4c0&#45;&gt;p0x1dcb5d0 -->
<g id="edge1" class="edge">
<title>p0x1dcb4c0&#45;&gt;p0x1dcb5d0</title>
<path fill="none" stroke="black" d="M609.27,-414.89C637.09,-407.99 683.15,-396.56 718.86,-387.7"/>
<polygon fill="black" stroke="black" points="719.77,-391.08 728.63,-385.28 718.09,-384.29 719.77,-391.08"/>
</g>
<!-- p0x1dcb6e0 -->
<g id="node3" class="node">
<title>p0x1dcb6e0</title>
<ellipse fill="none" stroke="black" cx="199.24" cy="-358" rx="61.99" ry="18"/>
<text text-anchor="middle" x="199.24" y="-354.3" font-family="Times,serif" font-size="14.00">parallel&#45;for</text>
</g>
<!-- p0x1dcb5d0&#45;&gt;p0x1dcb6e0 -->
<g id="edge2" class="edge">
<title>p0x1dcb5d0&#45;&gt;p0x1dcb6e0</title>
<path fill="none" stroke="black" d="M719.75,-373.5C618.03,-370.46 387.7,-363.59 270.93,-360.11"/>
<polygon fill="black" stroke="black" points="270.78,-356.6 260.68,-359.8 270.57,-363.6 270.78,-356.6"/>
</g>
<!-- p0x1dcb7f0 -->
<g id="node4" class="node">
<title>p0x1dcb7f0</title>
<ellipse fill="none" stroke="black" cx="377.27" cy="-329" rx="79.09" ry="18"/>
<text text-anchor="middle" x="377.27" y="-325.3" font-family="Times,serif" font-size="14.00">update_cluster</text>
</g>
<!-- p0x1dcb6e0&#45;&gt;p0x1dcb7f0 -->
<g id="edge3" class="edge">
<title>p0x1dcb6e0&#45;&gt;p0x1dcb7f0</title>
<path fill="none" stroke="black" d="M253.53,-349.22C268.95,-346.68 286.06,-343.86 302.5,-341.15"/>
<polygon fill="black" stroke="black" points="303.32,-344.57 312.62,-339.49 302.18,-337.66 303.32,-344.57"/>
</g>
<!-- p0x1dcb900 -->
<g id="node18" class="node">
<title>p0x1dcb900</title>
<polygon fill="aquamarine" stroke="black" points="583.64,-347 493.49,-329 583.64,-311 673.8,-329 583.64,-347"/>
<text text-anchor="middle" x="583.64" y="-325.3" font-family="Times,serif" font-size="14.00">converged?</text>
</g>
<!-- p0x1dcb7f0&#45;&gt;p0x1dcb900 -->
<g id="edge17" class="edge">
<title>p0x1dcb7f0&#45;&gt;p0x1dcb900</title>
<path fill="none" stroke="black" d="M456.7,-329C465.46,-329 474.45,-329 483.42,-329"/>
<polygon fill="black" stroke="black" points="483.52,-332.5 493.52,-329 483.52,-325.5 483.52,-332.5"/>
</g>
<!-- p0x7fd610000b50 -->
<g id="node5" class="node">
<title>p0x7fd610000b50</title>
<ellipse fill="none" stroke="black" cx="58.25" cy="-682" rx="36.29" ry="18"/>
<text text-anchor="middle" x="58.25" y="-678.3" font-family="Times,serif" font-size="14.00">pfg_0</text>
</g>
<!-- p0x7fd610000b50&#45;&gt;p0x1dcb6e0 -->
<g id="edge4" class="edge">
<title>p0x7fd610000b50&#45;&gt;p0x1dcb6e0</title>
<path fill="none" stroke="black" d="M84.59,-669.25C90.45,-665.34 96.22,-660.57 100.49,-655 164.92,-571.05 187.9,-442.74 195.2,-386.3"/>
<polygon fill="black" stroke="black" points="198.68,-386.67 196.43,-376.32 191.74,-385.82 198.68,-386.67"/>
</g>
<!-- p0x7fd610000c60 -->
<g id="node6" class="node">
<title>p0x7fd610000c60</title>
<ellipse fill="none" stroke="black" cx="58.25" cy="-628" rx="36.29" ry="18"/>
<text text-anchor="middle" x="58.25" y="-624.3" font-family="Times,serif" font-size="14.00">pfg_1</text>
</g>
<!-- p0x7fd610000c60&#45;&gt;p0x1dcb6e0 -->
<g id="edge5" class="edge">
<title>p0x7fd610000c60&#45;&gt;p0x1dcb6e0</title>
<path fill="none" stroke="black" d="M84.34,-615.06C90.21,-611.15 96.04,-606.43 100.49,-601 154.77,-534.8 182.08,-434.55 192.73,-386.13"/>
<polygon fill="black" stroke="black" points="196.21,-386.58 194.86,-376.07 189.36,-385.13 196.21,-386.58"/>
</g>
<!-- p0x7fd610000d70 -->
<g id="node7" class="node">
<title>p0x7fd610000d70</title>
<ellipse fill="none" stroke="black" cx="58.25" cy="-574" rx="36.29" ry="18"/>
<text text-anchor="middle" x="58.25" y="-570.3" font-family="Times,serif" font-size="14.00">pfg_2</text>
</g>
<!-- p0x7fd610000d70&#45;&gt;p0x1dcb6e0 -->
<g id="edge6" class="edge">
<title>p0x7fd610000d70&#45;&gt;p0x1dcb6e0</title>
<path fill="none" stroke="black" d="M83.56,-561.04C89.58,-557.08 95.68,-552.34 100.49,-547 144.89,-497.81 175.06,-424.75 189.14,-385.43"/>
<polygon fill="black" stroke="black" points="192.46,-386.57 192.45,-375.97 185.85,-384.25 192.46,-386.57"/>
</g>
<!-- p0x7fd610000e80 -->
<g id="node8" class="node">
<title>p0x7fd610000e80</title>
<ellipse fill="none" stroke="black" cx="58.25" cy="-520" rx="36.29" ry="18"/>
<text text-anchor="middle" x="58.25" y="-516.3" font-family="Times,serif" font-size="14.00">pfg_3</text>
</g>
<!-- p0x7fd610000e80&#45;&gt;p0x1dcb6e0 -->
<g id="edge7" class="edge">
<title>p0x7fd610000e80&#45;&gt;p0x1dcb6e0</title>
<path fill="none" stroke="black" d="M83.04,-506.53C89.06,-502.58 95.29,-497.96 100.49,-493 135.06,-460.02 165.7,-413.42 183.1,-384.49"/>
<polygon fill="black" stroke="black" points="186.19,-386.14 188.27,-375.76 180.17,-382.58 186.19,-386.14"/>
</g>
<!-- p0x7fd610000f90 -->
<g id="node9" class="node">
<title>p0x7fd610000f90</title>
<ellipse fill="none" stroke="black" cx="58.25" cy="-466" rx="36.29" ry="18"/>
<text text-anchor="middle" x="58.25" y="-462.3" font-family="Times,serif" font-size="14.00">pfg_4</text>
</g>
<!-- p0x7fd610000f90&#45;&gt;p0x1dcb6e0 -->
<g id="edge8" class="edge">
<title>p0x7fd610000f90&#45;&gt;p0x1dcb6e0</title>
<path fill="none" stroke="black" d="M81.82,-451.88C87.97,-447.85 94.57,-443.37 100.49,-439 125.16,-420.79 151.89,-398.45 171.15,-381.85"/>
<polygon fill="black" stroke="black" points="173.65,-384.31 178.92,-375.11 169.07,-379.02 173.65,-384.31"/>
</g>
<!-- p0x7fd6100010a0 -->
<g id="node10" class="node">
<title>p0x7fd6100010a0</title>
<ellipse fill="none" stroke="black" cx="58.25" cy="-412" rx="36.29" ry="18"/>
<text text-anchor="middle" x="58.25" y="-408.3" font-family="Times,serif" font-size="14.00">pfg_5</text>
</g>
<!-- p0x7fd6100010a0&#45;&gt;p0x1dcb6e0 -->
<g id="edge9" class="edge">
<title>p0x7fd6100010a0&#45;&gt;p0x1dcb6e0</title>
<path fill="none" stroke="black" d="M87.37,-401.07C105.88,-393.88 130.53,-384.3 151.89,-376"/>
<polygon fill="black" stroke="black" points="153.39,-379.18 161.44,-372.29 150.85,-372.65 153.39,-379.18"/>
</g>
<!-- p0x7fd6100011b0 -->
<g id="node11" class="node">
<title>p0x7fd6100011b0</title>
<ellipse fill="none" stroke="black" cx="58.25" cy="-358" rx="36.29" ry="18"/>
<text text-anchor="middle" x="58.25" y="-354.3" font-family="Times,serif" font-size="14.00">pfg_6</text>
</g>
<!-- p0x7fd6100011b0&#45;&gt;p0x1dcb6e0 -->
<g id="edge10" class="edge">
<title>p0x7fd6100011b0&#45;&gt;p0x1dcb6e0</title>
<path fill="none" stroke="black" d="M94.68,-358C104.65,-358 115.87,-358 127.15,-358"/>
<polygon fill="black" stroke="black" points="127.49,-361.5 137.49,-358 127.49,-354.5 127.49,-361.5"/>
</g>
<!-- p0x7fd6100012c0 -->
<g id="node12" class="node">
<title>p0x7fd6100012c0</title>
<ellipse fill="none" stroke="black" cx="58.25" cy="-304" rx="36.29" ry="18"/>
<text text-anchor="middle" x="58.25" y="-300.3" font-family="Times,serif" font-size="14.00">pfg_7</text>
</g>
<!-- p0x7fd6100012c0&#45;&gt;p0x1dcb6e0 -->
<g id="edge11" class="edge">
<title>p0x7fd6100012c0&#45;&gt;p0x1dcb6e0</title>
<path fill="none" stroke="black" d="M87.37,-314.93C105.88,-322.12 130.53,-331.7 151.89,-340"/>
<polygon fill="black" stroke="black" points="150.85,-343.35 161.44,-343.71 153.39,-336.82 150.85,-343.35"/>
</g>
<!-- p0x7fd6100013d0 -->
<g id="node13" class="node">
<title>p0x7fd6100013d0</title>
<ellipse fill="none" stroke="black" cx="58.25" cy="-250" rx="36.29" ry="18"/>
<text text-anchor="middle" x="58.25" y="-246.3" font-family="Times,serif" font-size="14.00">pfg_8</text>
</g>
<!-- p0x7fd6100013d0&#45;&gt;p0x1dcb6e0 -->
<g id="edge12" class="edge">
<title>p0x7fd6100013d0&#45;&gt;p0x1dcb6e0</title>
<path fill="none" stroke="black" d="M81.82,-264.12C87.97,-268.15 94.57,-272.63 100.49,-277 125.16,-295.21 151.89,-317.55 171.15,-334.15"/>
<polygon fill="black" stroke="black" points="169.07,-336.98 178.92,-340.89 173.65,-331.69 169.07,-336.98"/>
</g>
<!-- p0x7fd6100014e0 -->
<g id="node14" class="node">
<title>p0x7fd6100014e0</title>
<ellipse fill="none" stroke="black" cx="58.25" cy="-196" rx="36.29" ry="18"/>
<text text-anchor="middle" x="58.25" y="-192.3" font-family="Times,serif" font-size="14.00">pfg_9</text>
</g>
<!-- p0x7fd6100014e0&#45;&gt;p0x1dcb6e0 -->
<g id="edge13" class="edge">
<title>p0x7fd6100014e0&#45;&gt;p0x1dcb6e0</title>
<path fill="none" stroke="black" d="M83.04,-209.47C89.06,-213.42 95.29,-218.04 100.49,-223 135.06,-255.98 165.7,-302.58 183.1,-331.51"/>
<polygon fill="black" stroke="black" points="180.17,-333.42 188.27,-340.24 186.19,-329.86 180.17,-333.42"/>
</g>
<!-- p0x7fd6100015f0 -->
<g id="node15" class="node">
<title>p0x7fd6100015f0</title>
<ellipse fill="none" stroke="black" cx="58.25" cy="-142" rx="42.49" ry="18"/>
<text text-anchor="middle" x="58.25" y="-138.3" font-family="Times,serif" font-size="14.00">pfg_10</text>
</g>
<!-- p0x7fd6100015f0&#45;&gt;p0x1dcb6e0 -->
<g id="edge14" class="edge">
<title>p0x7fd6100015f0&#45;&gt;p0x1dcb6e0</title>
<path fill="none" stroke="black" d="M85.28,-156.11C90.73,-159.83 96.13,-164.17 100.49,-169 144.89,-218.19 175.06,-291.25 189.14,-330.57"/>
<polygon fill="black" stroke="black" points="185.85,-331.75 192.45,-340.03 192.46,-329.43 185.85,-331.75"/>
</g>
<!-- p0x7fd610001700 -->
<g id="node16" class="node">
<title>p0x7fd610001700</title>
<ellipse fill="none" stroke="black" cx="58.25" cy="-88" rx="42.49" ry="18"/>
<text text-anchor="middle" x="58.25" y="-84.3" font-family="Times,serif" font-size="14.00">pfg_11</text>
</g>
<!-- p0x7fd610001700&#45;&gt;p0x1dcb6e0 -->
<g id="edge15" class="edge">
<title>p0x7fd610001700&#45;&gt;p0x1dcb6e0</title>
<path fill="none" stroke="black" d="M85.63,-101.81C91.06,-105.55 96.37,-109.97 100.49,-115 154.77,-181.2 182.08,-281.45 192.73,-329.87"/>
<polygon fill="black" stroke="black" points="189.36,-330.87 194.86,-339.93 196.21,-329.42 189.36,-330.87"/>
</g>
<!-- p0x7fd610001810 -->
<g id="node17" class="node">
<title>p0x7fd610001810</title>
<ellipse fill="none" stroke="black" cx="58.25" cy="-34" rx="42.49" ry="18"/>
<text text-anchor="middle" x="58.25" y="-30.3" font-family="Times,serif" font-size="14.00">pfg_12</text>
</g>
<!-- p0x7fd610001810&#45;&gt;p0x1dcb6e0 -->
<g id="edge16" class="edge">
<title>p0x7fd610001810&#45;&gt;p0x1dcb6e0</title>
<path fill="none" stroke="black" d="M85.87,-47.62C91.29,-51.36 96.53,-55.84 100.49,-61 164.92,-144.95 187.9,-273.26 195.2,-329.7"/>
<polygon fill="black" stroke="black" points="191.74,-330.18 196.43,-339.68 198.68,-329.33 191.74,-330.18"/>
</g>
<!-- p0x1dcb900&#45;&gt;p0x1dcb5d0 -->
<g id="edge18" class="edge">
<title>p0x1dcb900&#45;&gt;p0x1dcb5d0</title>
<path fill="none" stroke="black" stroke-dasharray="5,2" d="M645.12,-334.77C663.51,-337.32 683.62,-340.94 701.72,-346 711.5,-348.73 721.73,-352.53 731.2,-356.48"/>
<polygon fill="black" stroke="black" points="729.82,-359.69 740.39,-360.44 732.59,-353.26 729.82,-359.69"/>
<text text-anchor="middle" x="696.72" y="-349.8" font-family="Times,serif" font-size="14.00">0</text>
</g>
</g>
</svg>
