<?xml version="1.0" encoding="UTF-8" standalone="no"?>
<!DOCTYPE svg PUBLIC "-//W3C//DTD SVG 1.1//EN"
 "http://www.w3.org/Graphics/SVG/1.1/DTD/svg11.dtd">
<!-- Generated by graphviz version 2.43.0 (0)
 -->
<!-- Title: R Pages: 1 -->
<svg width="206pt" height="332pt"
 viewBox="0.00 0.00 206.00 332.00" xmlns="http://www.w3.org/2000/svg" xmlns:xlink="http://www.w3.org/1999/xlink">
<g id="graph0" class="graph" transform="scale(1 1) rotate(0) translate(4 328)">
<title>R</title>
<polygon fill="white" stroke="transparent" points="-4,4 -4,-328 202,-328 202,4 -4,4"/>
<!-- f1_A -->
<g id="node1" class="node">
<title>f1_A</title>
<polygon fill="none" stroke="black" points="54,-324 0,-324 0,-288 54,-288 54,-324"/>
<text text-anchor="middle" x="27" y="-302.3" font-family="Times,serif" font-size="14.00">f1(A)</text>
</g>
<!-- f1_B -->
<g id="node4" class="node">
<title>f1_B</title>
<polygon fill="none" stroke="black" points="54,-252 0,-252 0,-216 54,-216 54,-252"/>
<text text-anchor="middle" x="27" y="-230.3" font-family="Times,serif" font-size="14.00">f1(B)</text>
</g>
<!-- f1_A&#45;&gt;f1_B -->
<g id="edge5" class="edge">
<title>f1_A&#45;&gt;f1_B</title>
<path fill="none" stroke="black" d="M27,-287.7C27,-279.98 27,-270.71 27,-262.11"/>
<polygon fill="black" stroke="black" points="30.5,-262.1 27,-252.1 23.5,-262.1 30.5,-262.1"/>
</g>
<!-- f2_A -->
<g id="node2" class="node">
<title>f2_A</title>
<polygon fill="none" stroke="black" points="126,-252 72,-252 72,-216 126,-216 126,-252"/>
<text text-anchor="middle" x="99" y="-230.3" font-family="Times,serif" font-size="14.00">f2(A)</text>
</g>
<!-- f2_B -->
<g id="node5" class="node">
<title>f2_B</title>
<polygon fill="none" stroke="black" points="126,-180 72,-180 72,-144 126,-144 126,-180"/>
<text text-anchor="middle" x="99" y="-158.3" font-family="Times,serif" font-size="14.00">f2(B)</text>
</g>
<!-- f2_A&#45;&gt;f2_B -->
<g id="edge7" class="edge">
<title>f2_A&#45;&gt;f2_B</title>
<path fill="none" stroke="black" d="M99,-215.7C99,-207.98 99,-198.71 99,-190.11"/>
<polygon fill="black" stroke="black" points="102.5,-190.1 99,-180.1 95.5,-190.1 102.5,-190.1"/>
</g>
<!-- f3_A -->
<g id="node3" class="node">
<title>f3_A</title>
<polygon fill="none" stroke="black" points="198,-180 144,-180 144,-144 198,-144 198,-180"/>
<text text-anchor="middle" x="171" y="-158.3" font-family="Times,serif" font-size="14.00">f3(A)</text>
</g>
<!-- f3_B -->
<g id="node6" class="node">
<title>f3_B</title>
<polygon fill="none" stroke="black" points="198,-108 144,-108 144,-72 198,-72 198,-108"/>
<text text-anchor="middle" x="171" y="-86.3" font-family="Times,serif" font-size="14.00">f3(B)</text>
</g>
<!-- f3_A&#45;&gt;f3_B -->
<g id="edge9" class="edge">
<title>f3_A&#45;&gt;f3_B</title>
<path fill="none" stroke="black" d="M171,-143.7C171,-135.98 171,-126.71 171,-118.11"/>
<polygon fill="black" stroke="black" points="174.5,-118.1 171,-108.1 167.5,-118.1 174.5,-118.1"/>
</g>
<!-- f1_B&#45;&gt;f2_A -->
<g id="edge1" class="edge">
<title>f1_B&#45;&gt;f2_A</title>
<path fill="none" stroke="red" d="M54.28,-234C60.1,-234 65.93,-234 71.75,-234"/>
</g>
<!-- f1_C -->
<g id="node7" class="node">
<title>f1_C</title>
<polygon fill="none" stroke="black" points="54,-180 0,-180 0,-144 54,-144 54,-180"/>
<text text-anchor="middle" x="27" y="-158.3" font-family="Times,serif" font-size="14.00">f1(C)</text>
</g>
<!-- f1_B&#45;&gt;f1_C -->
<g id="edge6" class="edge">
<title>f1_B&#45;&gt;f1_C</title>
<path fill="none" stroke="black" d="M27,-215.7C27,-207.98 27,-198.71 27,-190.11"/>
<polygon fill="black" stroke="black" points="30.5,-190.1 27,-180.1 23.5,-190.1 30.5,-190.1"/>
</g>
<!-- f2_B&#45;&gt;f3_A -->
<g id="edge3" class="edge">
<title>f2_B&#45;&gt;f3_A</title>
<path fill="none" stroke="red" d="M126.28,-162C132.1,-162 137.93,-162 143.75,-162"/>
</g>
<!-- f2_C -->
<g id="node8" class="node">
<title>f2_C</title>
<polygon fill="none" stroke="black" points="126,-108 72,-108 72,-72 126,-72 126,-108"/>
<text text-anchor="middle" x="99" y="-86.3" font-family="Times,serif" font-size="14.00">f2(C)</text>
</g>
<!-- f2_B&#45;&gt;f2_C -->
<g id="edge8" class="edge">
<title>f2_B&#45;&gt;f2_C</title>
<path fill="none" stroke="black" d="M99,-143.7C99,-135.98 99,-126.71 99,-118.11"/>
<polygon fill="black" stroke="black" points="102.5,-118.1 99,-108.1 95.5,-118.1 102.5,-118.1"/>
</g>
<!-- f3_C -->
<g id="node9" class="node">
<title>f3_C</title>
<polygon fill="none" stroke="black" points="198,-36 144,-36 144,0 198,0 198,-36"/>
<text text-anchor="middle" x="171" y="-14.3" font-family="Times,serif" font-size="14.00">f3(C)</text>
</g>
<!-- f3_B&#45;&gt;f3_C -->
<g id="edge10" class="edge">
<title>f3_B&#45;&gt;f3_C</title>
<path fill="none" stroke="black" d="M171,-71.7C171,-63.98 171,-54.71 171,-46.11"/>
<polygon fill="black" stroke="black" points="174.5,-46.1 171,-36.1 167.5,-46.1 174.5,-46.1"/>
</g>
<!-- f1_C&#45;&gt;f2_B -->
<g id="edge2" class="edge">
<title>f1_C&#45;&gt;f2_B</title>
<path fill="none" stroke="red" d="M54.28,-162C60.1,-162 65.93,-162 71.75,-162"/>
</g>
<!-- f2_C&#45;&gt;f3_B -->
<g id="edge4" class="edge">
<title>f2_C&#45;&gt;f3_B</title>
<path fill="none" stroke="red" d="M126.28,-90C132.1,-90 137.93,-90 143.75,-90"/>
</g>
</g>
</svg>
