<?xml version="1.0" encoding="UTF-8" standalone="no"?>
<!DOCTYPE svg PUBLIC "-//W3C//DTD SVG 1.1//EN"
 "http://www.w3.org/Graphics/SVG/1.1/DTD/svg11.dtd">
<!-- Generated by graphviz version 12.2.1 (20241206.2353)
 -->
<!-- Title: Taskflow Pages: 1 -->
<svg width="447pt" height="46pt"
 viewBox="0.00 0.00 447.40 46.28" xmlns="http://www.w3.org/2000/svg" xmlns:xlink="http://www.w3.org/1999/xlink">
<g id="graph0" class="graph" transform="scale(1 1) rotate(0) translate(4 42.28)">
<title>Taskflow</title>
<polygon fill="white" stroke="none" points="-4,4 -4,-42.28 443.4,-42.28 443.4,4 -4,4"/>
<!-- p0x7f950d600030 -->
<g id="node1" class="node">
<title>p0x7f950d600030</title>
<ellipse fill="none" stroke="black" cx="27" cy="-20.28" rx="27" ry="18"/>
<text text-anchor="middle" x="27" y="-15.23" font-family="Times,serif" font-size="14.00">init</text>
</g>
<!-- p0x7f950d600140 -->
<g id="node2" class="node">
<title>p0x7f950d600140</title>
<ellipse fill="none" stroke="black" cx="127.51" cy="-20.28" rx="36.51" ry="18"/>
<text text-anchor="middle" x="127.51" y="-15.23" font-family="Times,serif" font-size="14.00">do i++</text>
</g>
<!-- p0x7f950d600030&#45;&gt;p0x7f950d600140 -->
<g id="edge1" class="edge">
<title>p0x7f950d600030&#45;&gt;p0x7f950d600140</title>
<path fill="none" stroke="black" d="M54.4,-20.28C62.17,-20.28 70.91,-20.28 79.55,-20.28"/>
<polygon fill="black" stroke="black" points="79.26,-23.78 89.26,-20.28 79.26,-16.78 79.26,-23.78"/>
</g>
<!-- p0x7f950d600250 -->
<g id="node3" class="node">
<title>p0x7f950d600250</title>
<polygon fill="aquamarine" stroke="black" points="272.88,-38.28 206.77,-20.28 272.88,-2.28 338.98,-20.28 272.88,-38.28"/>
<text text-anchor="middle" x="272.88" y="-15.23" font-family="Times,serif" font-size="14.00">while i&lt;5</text>
</g>
<!-- p0x7f950d600140&#45;&gt;p0x7f950d600250 -->
<g id="edge2" class="edge">
<title>p0x7f950d600140&#45;&gt;p0x7f950d600250</title>
<path fill="none" stroke="black" d="M164.19,-21.8C170.15,-22 176.26,-22.17 182.02,-22.28 188.16,-22.4 194.54,-22.43 200.94,-22.4"/>
<polygon fill="black" stroke="black" points="200.95,-25.9 210.91,-22.3 200.88,-18.9 200.95,-25.9"/>
</g>
<!-- p0x7f950d600250&#45;&gt;p0x7f950d600140 -->
<g id="edge3" class="edge">
<title>p0x7f950d600250&#45;&gt;p0x7f950d600140</title>
<path fill="none" stroke="black" stroke-dasharray="5,2" d="M244.84,-9.4C227.05,-3.56 203.22,1.78 182.02,-1.78 177.03,-2.62 171.89,-3.87 166.85,-5.33"/>
<polygon fill="black" stroke="black" points="165.99,-1.93 157.54,-8.32 168.13,-8.59 165.99,-1.93"/>
<text text-anchor="middle" x="185.39" y="-4.98" font-family="Times,serif" font-size="14.00">0</text>
</g>
<!-- p0x7f950d600360 -->
<g id="node4" class="node">
<title>p0x7f950d600360</title>
<ellipse fill="none" stroke="black" cx="410.57" cy="-20.28" rx="28.83" ry="18"/>
<text text-anchor="middle" x="410.57" y="-15.23" font-family="Times,serif" font-size="14.00">done</text>
</g>
<!-- p0x7f950d600250&#45;&gt;p0x7f950d600360 -->
<g id="edge4" class="edge">
<title>p0x7f950d600250&#45;&gt;p0x7f950d600360</title>
<path fill="none" stroke="black" stroke-dasharray="5,2" d="M340.53,-20.28C350.71,-20.28 360.92,-20.28 370.26,-20.28"/>
<polygon fill="black" stroke="black" points="370.02,-23.78 380.02,-20.28 370.02,-16.78 370.02,-23.78"/>
<text text-anchor="middle" x="360.36" y="-23.48" font-family="Times,serif" font-size="14.00">1</text>
</g>
</g>
</svg>
