<?xml version="1.0" encoding="UTF-8" standalone="no"?>
<!DOCTYPE svg PUBLIC "-//W3C//DTD SVG 1.1//EN"
 "http://www.w3.org/Graphics/SVG/1.1/DTD/svg11.dtd">
<!-- Generated by graphviz version 12.2.1 (20241206.2353)
 -->
<!-- Title: Taskflow Pages: 1 -->
<svg width="335pt" height="188pt"
 viewBox="0.00 0.00 334.56 188.00" xmlns="http://www.w3.org/2000/svg" xmlns:xlink="http://www.w3.org/1999/xlink">
<g id="graph0" class="graph" transform="scale(1 1) rotate(0) translate(4 184)">
<title>Taskflow</title>
<polygon fill="white" stroke="none" points="-4,4 -4,-184 330.56,-184 330.56,4 -4,4"/>
<!-- p0x55d923794f10 -->
<g id="node1" class="node">
<title>p0x55d923794f10</title>
<ellipse fill="none" stroke="black" cx="48.28" cy="-162" rx="48.28" ry="18"/>
<text text-anchor="middle" x="48.28" y="-156.95" font-family="Times,serif" font-size="14.00">allocate_a</text>
</g>
<!-- p0x55d923795240 -->
<g id="node2" class="node">
<title>p0x55d923795240</title>
<polygon fill="cyan" stroke="black" points="197.91,-108 194.91,-112 173.91,-112 170.91,-108 128.66,-108 128.66,-72 197.91,-72 197.91,-108"/>
<text text-anchor="middle" x="163.28" y="-84.95" font-family="Times,serif" font-size="14.00">cudaFlow</text>
</g>
<!-- p0x55d923794f10&#45;&gt;p0x55d923795240 -->
<g id="edge1" class="edge">
<title>p0x55d923794f10&#45;&gt;p0x55d923795240</title>
<path fill="none" stroke="black" d="M72.67,-146.15C87.88,-136.9 107.78,-124.78 125.06,-114.27"/>
<polygon fill="black" stroke="black" points="126.86,-117.27 133.58,-109.08 123.22,-111.29 126.86,-117.27"/>
</g>
<!-- p0x55d923795350 -->
<g id="node5" class="node">
<title>p0x55d923795350</title>
<ellipse fill="none" stroke="black" cx="163.28" cy="-18" rx="27" ry="18"/>
<text text-anchor="middle" x="163.28" y="-12.95" font-family="Times,serif" font-size="14.00">free</text>
</g>
<!-- p0x55d923795240&#45;&gt;p0x55d923795350 -->
<g id="edge4" class="edge">
<title>p0x55d923795240&#45;&gt;p0x55d923795350</title>
<path fill="none" stroke="black" d="M163.28,-71.7C163.28,-64.41 163.28,-55.73 163.28,-47.54"/>
<polygon fill="black" stroke="black" points="166.78,-47.62 163.28,-37.62 159.78,-47.62 166.78,-47.62"/>
</g>
<!-- p0x55d923795020 -->
<g id="node3" class="node">
<title>p0x55d923795020</title>
<ellipse fill="none" stroke="black" cx="163.28" cy="-162" rx="48.79" ry="18"/>
<text text-anchor="middle" x="163.28" y="-156.95" font-family="Times,serif" font-size="14.00">allocate_b</text>
</g>
<!-- p0x55d923795020&#45;&gt;p0x55d923795240 -->
<g id="edge2" class="edge">
<title>p0x55d923795020&#45;&gt;p0x55d923795240</title>
<path fill="none" stroke="black" d="M163.28,-143.7C163.28,-136.41 163.28,-127.73 163.28,-119.54"/>
<polygon fill="black" stroke="black" points="166.78,-119.62 163.28,-109.62 159.78,-119.62 166.78,-119.62"/>
</g>
<!-- p0x55d923795130 -->
<g id="node4" class="node">
<title>p0x55d923795130</title>
<ellipse fill="none" stroke="black" cx="278.28" cy="-162" rx="48.28" ry="18"/>
<text text-anchor="middle" x="278.28" y="-156.95" font-family="Times,serif" font-size="14.00">allocate_c</text>
</g>
<!-- p0x55d923795130&#45;&gt;p0x55d923795240 -->
<g id="edge3" class="edge">
<title>p0x55d923795130&#45;&gt;p0x55d923795240</title>
<path fill="none" stroke="black" d="M253.89,-146.15C238.68,-136.9 218.78,-124.78 201.5,-114.27"/>
<polygon fill="black" stroke="black" points="203.34,-111.29 192.98,-109.08 199.7,-117.27 203.34,-111.29"/>
</g>
</g>
</svg>
