<?xml version="1.0" encoding="UTF-8" standalone="no"?>
<!DOCTYPE svg PUBLIC "-//W3C//DTD SVG 1.1//EN"
 "http://www.w3.org/Graphics/SVG/1.1/DTD/svg11.dtd">
<!-- Generated by graphviz version 12.2.1 (20241206.2353)
 -->
<!-- Title: TaskflowExceptionHandling Pages: 1 -->
<svg width="655pt" height="193pt"
 viewBox="0.00 0.00 654.50 193.00" xmlns="http://www.w3.org/2000/svg" xmlns:xlink="http://www.w3.org/1999/xlink">
<g id="graph0" class="graph" transform="scale(1 1) rotate(0) translate(4 189)">
<title>TaskflowExceptionHandling</title>
<polygon fill="white" stroke="none" points="-4,4 -4,-189 650.5,-189 650.5,4 -4,4"/>
<!-- ExceptionHandling -->
<g id="node1" class="node">
<title>ExceptionHandling</title>
<polygon fill="none" stroke="black" points="439.5,-185 246.5,-185 246.5,-149 439.5,-149 439.5,-185"/>
<text text-anchor="middle" x="343" y="-161.95" font-family="Times,serif" font-size="14.00">Exception Handling in Taskflow</text>
</g>
<!-- Scenarios -->
<g id="node2" class="node">
<title>Scenarios</title>
<polygon fill="none" stroke="black" points="343,-113 184.97,-95 343,-77 501.03,-95 343,-113"/>
<text text-anchor="middle" x="343" y="-89.95" font-family="Times,serif" font-size="14.00">A task throws an exception</text>
</g>
<!-- ExceptionHandling&#45;&gt;Scenarios -->
<g id="edge1" class="edge">
<title>ExceptionHandling&#45;&gt;Scenarios</title>
<path fill="none" stroke="black" d="M343,-148.7C343,-141.41 343,-132.73 343,-124.54"/>
<polygon fill="black" stroke="black" points="346.5,-124.62 343,-114.62 339.5,-124.62 346.5,-124.62"/>
</g>
<!-- Immediate -->
<g id="node3" class="node">
<title>Immediate</title>
<polygon fill="none" stroke="black" points="214,-41 0,-41 0,0 214,0 214,-41"/>
<text text-anchor="middle" x="107" y="-23.7" font-family="Times,serif" font-size="14.00">Scenario 1:</text>
<text text-anchor="middle" x="107" y="-7.2" font-family="Times,serif" font-size="14.00">Synchronous Exception Propagation</text>
</g>
<!-- Scenarios&#45;&gt;Immediate -->
<g id="edge3" class="edge">
<title>Scenarios&#45;&gt;Immediate</title>
<path fill="none" stroke="black" d="M301.62,-81.29C268.88,-71.23 222.26,-56.91 182.86,-44.8"/>
<polygon fill="black" stroke="black" points="183.99,-41.49 173.4,-41.9 181.93,-48.18 183.99,-41.49"/>
</g>
<!-- Propagation -->
<g id="node4" class="node">
<title>Propagation</title>
<polygon fill="none" stroke="black" points="453.75,-41 232.25,-41 232.25,0 453.75,0 453.75,-41"/>
<text text-anchor="middle" x="343" y="-23.7" font-family="Times,serif" font-size="14.00">Scenario 2:</text>
<text text-anchor="middle" x="343" y="-7.2" font-family="Times,serif" font-size="14.00">Asynchronous Exception Propagation</text>
</g>
<!-- Scenarios&#45;&gt;Propagation -->
<g id="edge2" class="edge">
<title>Scenarios&#45;&gt;Propagation</title>
<path fill="none" stroke="black" d="M343,-76.82C343,-69.59 343,-60.95 343,-52.66"/>
<polygon fill="black" stroke="black" points="346.5,-52.89 343,-42.89 339.5,-52.89 346.5,-52.89"/>
</g>
<!-- Silent -->
<g id="node5" class="node">
<title>Silent</title>
<polygon fill="none" stroke="black" points="646.5,-41 471.5,-41 471.5,0 646.5,0 646.5,-41"/>
<text text-anchor="middle" x="559" y="-23.7" font-family="Times,serif" font-size="14.00">Scenario 3:</text>
<text text-anchor="middle" x="559" y="-7.2" font-family="Times,serif" font-size="14.00">Silent Exception Propagation</text>
</g>
<!-- Scenarios&#45;&gt;Silent -->
<g id="edge4" class="edge">
<title>Scenarios&#45;&gt;Silent</title>
<path fill="none" stroke="black" d="M381.62,-81.04C411.31,-71.07 453.13,-57.03 488.71,-45.09"/>
<polygon fill="black" stroke="black" points="489.73,-48.44 498.1,-41.94 487.51,-41.8 489.73,-48.44"/>
</g>
</g>
</svg>
