<?xml version="1.0" encoding="UTF-8" standalone="no"?>
<!DOCTYPE svg PUBLIC "-//W3C//DTD SVG 1.1//EN"
 "http://www.w3.org/Graphics/SVG/1.1/DTD/svg11.dtd">
<!-- Generated by graphviz version 12.2.1 (20241206.2353)
 -->
<!-- Title: Taskflow Pages: 1 -->
<svg width="670pt" height="564pt"
 viewBox="0.00 0.00 670.00 563.50" xmlns="http://www.w3.org/2000/svg" xmlns:xlink="http://www.w3.org/1999/xlink">
<g id="graph0" class="graph" transform="scale(1 1) rotate(0) translate(4 559.5)">
<title>Taskflow</title>
<polygon fill="white" stroke="none" points="-4,4 -4,-559.5 666,-559.5 666,4 -4,4"/>
<g id="clust1" class="cluster">
<title>cluster_p0x7ffd972c0cd0</title>
<polygon fill="none" stroke="black" points="8,-8 8,-547.5 654,-547.5 654,-8 8,-8"/>
<text text-anchor="middle" x="331" y="-530.2" font-family="Times,serif" font-size="14.00">Taskflow: fibonacci</text>
</g>
<g id="clust2" class="cluster">
<title>cluster_p0xa445c0</title>
<polygon fill="none" stroke="blue" points="16,-16 16,-515 646,-515 646,-16 16,-16"/>
<text text-anchor="middle" x="331" y="-497.7" font-family="Times,serif" font-size="14.00">Subflow: 5</text>
</g>
<g id="clust3" class="cluster">
<title>cluster_p0x7fe918000b90</title>
<polygon fill="none" stroke="blue" points="24,-88 24,-482.5 410,-482.5 410,-88 24,-88"/>
<text text-anchor="middle" x="217" y="-465.2" font-family="Times,serif" font-size="14.00">Subflow: 4</text>
</g>
<g id="clust4" class="cluster">
<title>cluster_p0x7fe910000b90</title>
<polygon fill="none" stroke="blue" points="32,-160 32,-450 252,-450 252,-160 32,-160"/>
<text text-anchor="middle" x="142" y="-432.7" font-family="Times,serif" font-size="14.00">Subflow: 3</text>
</g>
<g id="clust5" class="cluster">
<title>cluster_p0x7fe918000fe0</title>
<polygon fill="none" stroke="blue" points="40,-232 40,-417.5 182,-417.5 182,-232 40,-232"/>
<text text-anchor="middle" x="111" y="-400.2" font-family="Times,serif" font-size="14.00">Subflow: 2</text>
</g>
<g id="clust6" class="cluster">
<title>cluster_p0x7fe910000c48</title>
<polygon fill="none" stroke="blue" points="260,-160 260,-308.5 402,-308.5 402,-160 260,-160"/>
<text text-anchor="middle" x="331" y="-291.2" font-family="Times,serif" font-size="14.00">Subflow: 2</text>
</g>
<g id="clust7" class="cluster">
<title>cluster_p0x7fe918000c48</title>
<polygon fill="none" stroke="blue" points="418,-88 418,-341 638,-341 638,-88 418,-88"/>
<text text-anchor="middle" x="528" y="-323.7" font-family="Times,serif" font-size="14.00">Subflow: 3</text>
</g>
<g id="clust8" class="cluster">
<title>cluster_p0x7fe918000d00</title>
<polygon fill="none" stroke="blue" points="426,-160 426,-308.5 568,-308.5 568,-160 426,-160"/>
<text text-anchor="middle" x="497" y="-291.2" font-family="Times,serif" font-size="14.00">Subflow: 2</text>
</g>
<!-- p0xa445c0 -->
<g id="node1" class="node">
<title>p0xa445c0</title>
<ellipse fill="none" stroke="black" cx="413" cy="-42" rx="27" ry="18"/>
<text text-anchor="middle" x="413" y="-36.95" font-family="Times,serif" font-size="14.00">5</text>
</g>
<!-- p0x7fe918000b90 -->
<g id="node2" class="node">
<title>p0x7fe918000b90</title>
<ellipse fill="none" stroke="black" cx="331" cy="-114" rx="27" ry="18"/>
<text text-anchor="middle" x="331" y="-108.95" font-family="Times,serif" font-size="14.00">4</text>
</g>
<!-- p0x7fe918000b90&#45;&gt;p0xa445c0 -->
<g id="edge1" class="edge">
<title>p0x7fe918000b90&#45;&gt;p0xa445c0</title>
<path fill="none" stroke="black" d="M347.2,-99.17C358.88,-89.2 374.86,-75.56 388.15,-64.21"/>
<polygon fill="black" stroke="black" points="390.35,-66.94 395.68,-57.78 385.8,-61.61 390.35,-66.94"/>
</g>
<!-- p0x7fe910000b90 -->
<g id="node3" class="node">
<title>p0x7fe910000b90</title>
<ellipse fill="none" stroke="black" cx="217" cy="-186" rx="27" ry="18"/>
<text text-anchor="middle" x="217" y="-180.95" font-family="Times,serif" font-size="14.00">3</text>
</g>
<!-- p0x7fe910000b90&#45;&gt;p0x7fe918000b90 -->
<g id="edge2" class="edge">
<title>p0x7fe910000b90&#45;&gt;p0x7fe918000b90</title>
<path fill="none" stroke="black" d="M235.97,-172.68C242.31,-168.6 249.44,-164.07 256,-160 270.95,-150.72 287.73,-140.63 301.63,-132.35"/>
<polygon fill="black" stroke="black" points="303.05,-135.57 309.86,-127.46 299.48,-129.56 303.05,-135.57"/>
</g>
<!-- p0x7fe918000fe0 -->
<g id="node4" class="node">
<title>p0x7fe918000fe0</title>
<ellipse fill="none" stroke="black" cx="145" cy="-258" rx="27" ry="18"/>
<text text-anchor="middle" x="145" y="-252.95" font-family="Times,serif" font-size="14.00">2</text>
</g>
<!-- p0x7fe918000fe0&#45;&gt;p0x7fe910000b90 -->
<g id="edge3" class="edge">
<title>p0x7fe918000fe0&#45;&gt;p0x7fe910000b90</title>
<path fill="none" stroke="black" d="M159.92,-242.5C169.77,-232.92 182.86,-220.19 194.03,-209.34"/>
<polygon fill="black" stroke="black" points="196.29,-212.02 201.02,-202.54 191.41,-207 196.29,-212.02"/>
</g>
<!-- p0x7fe918001150 -->
<g id="node5" class="node">
<title>p0x7fe918001150</title>
<ellipse fill="none" stroke="black" cx="75" cy="-367" rx="27" ry="18"/>
<text text-anchor="middle" x="75" y="-361.95" font-family="Times,serif" font-size="14.00">1</text>
</g>
<!-- p0x7fe918001150&#45;&gt;p0x7fe918000fe0 -->
<g id="edge4" class="edge">
<title>p0x7fe918001150&#45;&gt;p0x7fe918000fe0</title>
<path fill="none" stroke="black" d="M85.33,-350.21C96.65,-332.91 114.98,-304.89 128.34,-284.47"/>
<polygon fill="black" stroke="black" points="131.25,-286.4 133.8,-276.12 125.4,-282.57 131.25,-286.4"/>
</g>
<!-- p0x7fe918001208 -->
<g id="node6" class="node">
<title>p0x7fe918001208</title>
<ellipse fill="none" stroke="black" cx="147" cy="-367" rx="27" ry="18"/>
<text text-anchor="middle" x="147" y="-361.95" font-family="Times,serif" font-size="14.00">0</text>
</g>
<!-- p0x7fe918001208&#45;&gt;p0x7fe918000fe0 -->
<g id="edge5" class="edge">
<title>p0x7fe918001208&#45;&gt;p0x7fe918000fe0</title>
<path fill="none" stroke="black" d="M146.68,-348.81C146.37,-332.27 145.9,-306.98 145.53,-287.44"/>
<polygon fill="black" stroke="black" points="149.04,-287.59 145.35,-277.66 142.04,-287.73 149.04,-287.59"/>
</g>
<!-- p0x7fe918001098 -->
<g id="node7" class="node">
<title>p0x7fe918001098</title>
<ellipse fill="none" stroke="black" cx="217" cy="-258" rx="27" ry="18"/>
<text text-anchor="middle" x="217" y="-252.95" font-family="Times,serif" font-size="14.00">1</text>
</g>
<!-- p0x7fe918001098&#45;&gt;p0x7fe910000b90 -->
<g id="edge6" class="edge">
<title>p0x7fe918001098&#45;&gt;p0x7fe910000b90</title>
<path fill="none" stroke="black" d="M217,-239.7C217,-232.41 217,-223.73 217,-215.54"/>
<polygon fill="black" stroke="black" points="220.5,-215.62 217,-205.62 213.5,-215.62 220.5,-215.62"/>
</g>
<!-- p0x7fe910000c48 -->
<g id="node8" class="node">
<title>p0x7fe910000c48</title>
<ellipse fill="none" stroke="black" cx="331" cy="-186" rx="27" ry="18"/>
<text text-anchor="middle" x="331" y="-180.95" font-family="Times,serif" font-size="14.00">2</text>
</g>
<!-- p0x7fe910000c48&#45;&gt;p0x7fe918000b90 -->
<g id="edge7" class="edge">
<title>p0x7fe910000c48&#45;&gt;p0x7fe918000b90</title>
<path fill="none" stroke="black" d="M331,-167.7C331,-160.41 331,-151.73 331,-143.54"/>
<polygon fill="black" stroke="black" points="334.5,-143.62 331,-133.62 327.5,-143.62 334.5,-143.62"/>
</g>
<!-- p0x7fe910000d00 -->
<g id="node9" class="node">
<title>p0x7fe910000d00</title>
<ellipse fill="none" stroke="black" cx="295" cy="-258" rx="27" ry="18"/>
<text text-anchor="middle" x="295" y="-252.95" font-family="Times,serif" font-size="14.00">1</text>
</g>
<!-- p0x7fe910000d00&#45;&gt;p0x7fe910000c48 -->
<g id="edge8" class="edge">
<title>p0x7fe910000d00&#45;&gt;p0x7fe910000c48</title>
<path fill="none" stroke="black" d="M303.35,-240.76C307.58,-232.55 312.81,-222.37 317.58,-213.09"/>
<polygon fill="black" stroke="black" points="320.54,-214.99 322,-204.49 314.32,-211.79 320.54,-214.99"/>
</g>
<!-- p0x7fe910000db8 -->
<g id="node10" class="node">
<title>p0x7fe910000db8</title>
<ellipse fill="none" stroke="black" cx="367" cy="-258" rx="27" ry="18"/>
<text text-anchor="middle" x="367" y="-252.95" font-family="Times,serif" font-size="14.00">0</text>
</g>
<!-- p0x7fe910000db8&#45;&gt;p0x7fe910000c48 -->
<g id="edge9" class="edge">
<title>p0x7fe910000db8&#45;&gt;p0x7fe910000c48</title>
<path fill="none" stroke="black" d="M358.65,-240.76C354.42,-232.55 349.19,-222.37 344.42,-213.09"/>
<polygon fill="black" stroke="black" points="347.68,-211.79 340,-204.49 341.46,-214.99 347.68,-211.79"/>
</g>
<!-- p0x7fe918000c48 -->
<g id="node11" class="node">
<title>p0x7fe918000c48</title>
<ellipse fill="none" stroke="black" cx="496" cy="-114" rx="27" ry="18"/>
<text text-anchor="middle" x="496" y="-108.95" font-family="Times,serif" font-size="14.00">3</text>
</g>
<!-- p0x7fe918000c48&#45;&gt;p0xa445c0 -->
<g id="edge10" class="edge">
<title>p0x7fe918000c48&#45;&gt;p0xa445c0</title>
<path fill="none" stroke="black" d="M479.6,-99.17C467.78,-89.2 451.6,-75.56 438.15,-64.21"/>
<polygon fill="black" stroke="black" points="440.42,-61.55 430.52,-57.78 435.91,-66.9 440.42,-61.55"/>
</g>
<!-- p0x7fe918000d00 -->
<g id="node12" class="node">
<title>p0x7fe918000d00</title>
<ellipse fill="none" stroke="black" cx="496" cy="-186" rx="27" ry="18"/>
<text text-anchor="middle" x="496" y="-180.95" font-family="Times,serif" font-size="14.00">2</text>
</g>
<!-- p0x7fe918000d00&#45;&gt;p0x7fe918000c48 -->
<g id="edge11" class="edge">
<title>p0x7fe918000d00&#45;&gt;p0x7fe918000c48</title>
<path fill="none" stroke="black" d="M496,-167.7C496,-160.41 496,-151.73 496,-143.54"/>
<polygon fill="black" stroke="black" points="499.5,-143.62 496,-133.62 492.5,-143.62 499.5,-143.62"/>
</g>
<!-- p0x7fe918000e70 -->
<g id="node13" class="node">
<title>p0x7fe918000e70</title>
<ellipse fill="none" stroke="black" cx="461" cy="-258" rx="27" ry="18"/>
<text text-anchor="middle" x="461" y="-252.95" font-family="Times,serif" font-size="14.00">1</text>
</g>
<!-- p0x7fe918000e70&#45;&gt;p0x7fe918000d00 -->
<g id="edge12" class="edge">
<title>p0x7fe918000e70&#45;&gt;p0x7fe918000d00</title>
<path fill="none" stroke="black" d="M469.29,-240.41C473.3,-232.39 478.22,-222.57 482.73,-213.54"/>
<polygon fill="black" stroke="black" points="485.75,-215.33 487.09,-204.82 479.49,-212.2 485.75,-215.33"/>
</g>
<!-- p0x7fe918000f28 -->
<g id="node14" class="node">
<title>p0x7fe918000f28</title>
<ellipse fill="none" stroke="black" cx="533" cy="-258" rx="27" ry="18"/>
<text text-anchor="middle" x="533" y="-252.95" font-family="Times,serif" font-size="14.00">0</text>
</g>
<!-- p0x7fe918000f28&#45;&gt;p0x7fe918000d00 -->
<g id="edge13" class="edge">
<title>p0x7fe918000f28&#45;&gt;p0x7fe918000d00</title>
<path fill="none" stroke="black" d="M524.42,-240.76C520.08,-232.55 514.7,-222.37 509.79,-213.09"/>
<polygon fill="black" stroke="black" points="513.01,-211.69 505.24,-204.49 506.82,-214.96 513.01,-211.69"/>
</g>
<!-- p0x7fe918000db8 -->
<g id="node15" class="node">
<title>p0x7fe918000db8</title>
<ellipse fill="none" stroke="black" cx="603" cy="-186" rx="27" ry="18"/>
<text text-anchor="middle" x="603" y="-180.95" font-family="Times,serif" font-size="14.00">1</text>
</g>
<!-- p0x7fe918000db8&#45;&gt;p0x7fe918000c48 -->
<g id="edge14" class="edge">
<title>p0x7fe918000db8&#45;&gt;p0x7fe918000c48</title>
<path fill="none" stroke="black" d="M586.93,-171.31C582.22,-167.51 577,-163.47 572,-160 557.4,-149.87 540.45,-139.69 526.26,-131.58"/>
<polygon fill="black" stroke="black" points="528.24,-128.68 517.81,-126.82 524.8,-134.78 528.24,-128.68"/>
</g>
</g>
</svg>
