<?xml version="1.0" encoding="UTF-8" standalone="no"?>
<!DOCTYPE svg PUBLIC "-//W3C//DTD SVG 1.1//EN"
 "http://www.w3.org/Graphics/SVG/1.1/DTD/svg11.dtd">
<!-- Generated by graphviz version 12.2.1 (20241206.2353)
 -->
<!-- Title: Taskflow Pages: 1 -->
<svg width="493pt" height="317pt"
 viewBox="0.00 0.00 493.00 316.50" xmlns="http://www.w3.org/2000/svg" xmlns:xlink="http://www.w3.org/1999/xlink">
<g id="graph0" class="graph" transform="scale(1 1) rotate(0) translate(4 312.5)">
<title>Taskflow</title>
<polygon fill="white" stroke="none" points="-4,4 -4,-312.5 489,-312.5 489,4 -4,4"/>
<g id="clust1" class="cluster">
<title>cluster_p0x7ffee9223970</title>
<polygon fill="none" stroke="black" points="8,-8 8,-300.5 327,-300.5 327,-8 8,-8"/>
<text text-anchor="middle" x="167.5" y="-283.2" font-family="Times,serif" font-size="14.00">Taskflow: F2</text>
</g>
<g id="clust2" class="cluster">
<title>cluster_p0x7ffee92238d0</title>
<polygon fill="none" stroke="black" points="335,-152 335,-300.5 477,-300.5 477,-152 335,-152"/>
<text text-anchor="middle" x="406" y="-283.2" font-family="Times,serif" font-size="14.00">Taskflow: F1</text>
</g>
<!-- p0x7f816f402b60 -->
<g id="node1" class="node">
<title>p0x7f816f402b60</title>
<ellipse fill="none" stroke="black" cx="65" cy="-250" rx="27" ry="18"/>
<text text-anchor="middle" x="65" y="-244.95" font-family="Times,serif" font-size="14.00">f2A</text>
</g>
<!-- p0x7f816f402d80 -->
<g id="node2" class="node">
<title>p0x7f816f402d80</title>
<ellipse fill="none" stroke="black" cx="112" cy="-178" rx="27" ry="18"/>
<text text-anchor="middle" x="112" y="-172.95" font-family="Times,serif" font-size="14.00">f2C</text>
</g>
<!-- p0x7f816f402b60&#45;&gt;p0x7f816f402d80 -->
<g id="edge1" class="edge">
<title>p0x7f816f402b60&#45;&gt;p0x7f816f402d80</title>
<path fill="none" stroke="black" d="M75.67,-233.12C81.37,-224.61 88.54,-213.94 95,-204.32"/>
<polygon fill="black" stroke="black" points="97.86,-206.33 100.53,-196.08 92.05,-202.43 97.86,-206.33"/>
</g>
<!-- p0x7f816f402fa0 -->
<g id="node4" class="node">
<title>p0x7f816f402fa0</title>
<polygon fill="none" stroke="blue" points="158.38,-124 19.62,-124 15.62,-120 15.62,-88 154.38,-88 158.38,-92 158.38,-124"/>
<polyline fill="none" stroke="blue" points="154.38,-120 15.62,-120"/>
<polyline fill="none" stroke="blue" points="154.38,-120 154.38,-88"/>
<polyline fill="none" stroke="blue" points="154.38,-120 158.38,-124"/>
<text text-anchor="middle" x="87" y="-100.95" font-family="Times,serif" font-size="14.00">module [Taskflow: F1]</text>
</g>
<!-- p0x7f816f402d80&#45;&gt;p0x7f816f402fa0 -->
<g id="edge3" class="edge">
<title>p0x7f816f402d80&#45;&gt;p0x7f816f402fa0</title>
<path fill="none" stroke="black" d="M105.95,-160.05C103.26,-152.52 100.01,-143.44 96.98,-134.94"/>
<polygon fill="black" stroke="black" points="100.34,-133.94 93.68,-125.7 93.75,-136.3 100.34,-133.94"/>
</g>
<!-- p0x7f816f402fa1 -->
<g id="node6" class="node">
<title>p0x7f816f402fa1</title>
<polygon fill="none" stroke="blue" points="319.38,-124 180.62,-124 176.62,-120 176.62,-88 315.38,-88 319.38,-92 319.38,-124"/>
<polyline fill="none" stroke="blue" points="315.38,-120 176.62,-120"/>
<polyline fill="none" stroke="blue" points="315.38,-120 315.38,-88"/>
<polyline fill="none" stroke="blue" points="315.38,-120 319.38,-124"/>
<text text-anchor="middle" x="248" y="-100.95" font-family="Times,serif" font-size="14.00">module [Taskflow: F1]</text>
</g>
<!-- p0x7f816f402d80&#45;&gt;p0x7f816f402fa1 -->
<g id="edge6" class="edge">
<title>p0x7f816f402d80&#45;&gt;p0x7f816f402fa1</title>
<path fill="none" stroke="black" d="M132.95,-166.22C151.77,-156.53 180.03,-141.98 203.83,-129.74"/>
<polygon fill="black" stroke="black" points="205.42,-132.85 212.71,-125.16 202.22,-126.63 205.42,-132.85"/>
</g>
<!-- p0x7f816f402c70 -->
<g id="node3" class="node">
<title>p0x7f816f402c70</title>
<ellipse fill="none" stroke="black" cx="137" cy="-250" rx="27" ry="18"/>
<text text-anchor="middle" x="137" y="-244.95" font-family="Times,serif" font-size="14.00">f2B</text>
</g>
<!-- p0x7f816f402c70&#45;&gt;p0x7f816f402d80 -->
<g id="edge2" class="edge">
<title>p0x7f816f402c70&#45;&gt;p0x7f816f402d80</title>
<path fill="none" stroke="black" d="M130.95,-232.05C128.22,-224.4 124.92,-215.16 121.84,-206.56"/>
<polygon fill="black" stroke="black" points="125.16,-205.45 118.51,-197.21 118.57,-207.81 125.16,-205.45"/>
</g>
<!-- p0x7f816f402e90 -->
<g id="node5" class="node">
<title>p0x7f816f402e90</title>
<ellipse fill="none" stroke="black" cx="167" cy="-34" rx="27" ry="18"/>
<text text-anchor="middle" x="167" y="-28.95" font-family="Times,serif" font-size="14.00">f2D</text>
</g>
<!-- p0x7f816f402fa0&#45;&gt;p0x7f816f402e90 -->
<g id="edge5" class="edge">
<title>p0x7f816f402fa0&#45;&gt;p0x7f816f402e90</title>
<path fill="none" stroke="black" d="M106.78,-87.7C117.69,-78.15 131.33,-66.21 142.87,-56.12"/>
<polygon fill="black" stroke="black" points="144.84,-59.04 150.06,-49.82 140.23,-53.77 144.84,-59.04"/>
</g>
<!-- p0x7f816f402fa1&#45;&gt;p0x7f816f402e90 -->
<g id="edge4" class="edge">
<title>p0x7f816f402fa1&#45;&gt;p0x7f816f402e90</title>
<path fill="none" stroke="black" d="M227.98,-87.7C216.93,-78.15 203.12,-66.21 191.43,-56.12"/>
<polygon fill="black" stroke="black" points="194,-53.7 184.14,-49.81 189.42,-59 194,-53.7"/>
</g>
<!-- p0x7f816f402830 -->
<g id="node7" class="node">
<title>p0x7f816f402830</title>
<ellipse fill="none" stroke="black" cx="370" cy="-250" rx="27" ry="18"/>
<text text-anchor="middle" x="370" y="-244.95" font-family="Times,serif" font-size="14.00">f1A</text>
</g>
<!-- p0x7f816f402a50 -->
<g id="node8" class="node">
<title>p0x7f816f402a50</title>
<ellipse fill="none" stroke="black" cx="406" cy="-178" rx="27" ry="18"/>
<text text-anchor="middle" x="406" y="-172.95" font-family="Times,serif" font-size="14.00">f1C</text>
</g>
<!-- p0x7f816f402830&#45;&gt;p0x7f816f402a50 -->
<g id="edge7" class="edge">
<title>p0x7f816f402830&#45;&gt;p0x7f816f402a50</title>
<path fill="none" stroke="black" d="M378.35,-232.76C382.58,-224.55 387.81,-214.37 392.58,-205.09"/>
<polygon fill="black" stroke="black" points="395.54,-206.99 397,-196.49 389.32,-203.79 395.54,-206.99"/>
</g>
<!-- p0x7f816f402940 -->
<g id="node9" class="node">
<title>p0x7f816f402940</title>
<ellipse fill="none" stroke="black" cx="442" cy="-250" rx="27" ry="18"/>
<text text-anchor="middle" x="442" y="-244.95" font-family="Times,serif" font-size="14.00">f1B</text>
</g>
<!-- p0x7f816f402940&#45;&gt;p0x7f816f402a50 -->
<g id="edge8" class="edge">
<title>p0x7f816f402940&#45;&gt;p0x7f816f402a50</title>
<path fill="none" stroke="black" d="M433.65,-232.76C429.42,-224.55 424.19,-214.37 419.42,-205.09"/>
<polygon fill="black" stroke="black" points="422.68,-203.79 415,-196.49 416.46,-206.99 422.68,-203.79"/>
</g>
</g>
</svg>
