<?xml version="1.0" encoding="UTF-8" standalone="no"?>
<!DOCTYPE svg PUBLIC "-//W3C//DTD SVG 1.1//EN"
 "http://www.w3.org/Graphics/SVG/1.1/DTD/svg11.dtd">
<!-- Generated by graphviz version 2.43.0 (0)
 -->
<!-- Title: Taskflow Pages: 1 -->
<svg width="397pt" height="259pt"
 viewBox="0.00 0.00 397.00 259.00" xmlns="http://www.w3.org/2000/svg" xmlns:xlink="http://www.w3.org/1999/xlink">
<g id="graph0" class="graph" transform="scale(1 1) rotate(0) translate(4 255)">
<title>Taskflow</title>
<polygon fill="white" stroke="transparent" points="-4,4 -4,-255 393,-255 393,4 -4,4"/>
<g id="clust1" class="cluster">
<title>cluster_p0x7ffd7418c200</title>
<polygon fill="none" stroke="black" points="8,-8 8,-243 231,-243 231,-8 8,-8"/>
<text text-anchor="middle" x="119.5" y="-227.8" font-family="Times,serif" font-size="14.00">Taskflow Processing Pipeline</text>
</g>
<g id="clust2" class="cluster">
<title>cluster_p0x7ffd7418c110</title>
<polygon fill="none" stroke="black" points="239,-81 239,-243 381,-243 381,-81 239,-81"/>
<text text-anchor="middle" x="310" y="-227.8" font-family="Times,serif" font-size="14.00">m1</text>
</g>
<!-- p0x7bc4000142e8 -->
<g id="node1" class="node">
<title>p0x7bc4000142e8</title>
<ellipse fill="none" stroke="black" cx="119" cy="-194" rx="87.99" ry="18"/>
<text text-anchor="middle" x="119" y="-190.3" font-family="Times,serif" font-size="14.00">starting pipeline</text>
</g>
<!-- p0x7bc4000143d0 -->
<g id="node2" class="node">
<title>p0x7bc4000143d0</title>
<polygon fill="none" stroke="blue" points="174.5,-125 67.5,-125 63.5,-121 63.5,-89 170.5,-89 174.5,-93 174.5,-125"/>
<polyline fill="none" stroke="blue" points="170.5,-121 63.5,-121 "/>
<polyline fill="none" stroke="blue" points="170.5,-121 170.5,-89 "/>
<polyline fill="none" stroke="blue" points="170.5,-121 174.5,-125 "/>
<text text-anchor="middle" x="119" y="-103.3" font-family="Times,serif" font-size="14.00">pipeline [m1]</text>
</g>
<!-- p0x7bc4000142e8&#45;&gt;p0x7bc4000143d0 -->
<g id="edge1" class="edge">
<title>p0x7bc4000142e8&#45;&gt;p0x7bc4000143d0</title>
<path fill="none" stroke="black" d="M119,-175.8C119,-164.16 119,-148.55 119,-135.24"/>
<polygon fill="black" stroke="black" points="122.5,-135.18 119,-125.18 115.5,-135.18 122.5,-135.18"/>
</g>
<!-- p0x7bc4000144b8 -->
<g id="node3" class="node">
<title>p0x7bc4000144b8</title>
<ellipse fill="none" stroke="black" cx="119" cy="-34" rx="87.99" ry="18"/>
<text text-anchor="middle" x="119" y="-30.3" font-family="Times,serif" font-size="14.00">pipeline stopped</text>
</g>
<!-- p0x7bc4000143d0&#45;&gt;p0x7bc4000144b8 -->
<g id="edge2" class="edge">
<title>p0x7bc4000143d0&#45;&gt;p0x7bc4000144b8</title>
<path fill="none" stroke="black" d="M119,-88.81C119,-80.79 119,-71.05 119,-62.07"/>
<polygon fill="black" stroke="black" points="122.5,-62.03 119,-52.03 115.5,-62.03 122.5,-62.03"/>
</g>
<!-- p0x7bc400014030 -->
<g id="node4" class="node">
<title>p0x7bc400014030</title>
<polygon fill="aquamarine" stroke="black" points="300,-212 254.08,-194 300,-176 345.92,-194 300,-212"/>
<text text-anchor="middle" x="300" y="-190.3" font-family="Times,serif" font-size="14.00">cond</text>
</g>
<!-- p0x7bc400014118 -->
<g id="node5" class="node">
<title>p0x7bc400014118</title>
<polygon fill="none" stroke="black" points="301,-125 247,-125 247,-121 243,-121 243,-117 247,-117 247,-97 243,-97 243,-93 247,-93 247,-89 301,-89 301,-125"/>
<polyline fill="none" stroke="black" points="247,-121 251,-121 251,-117 247,-117 "/>
<polyline fill="none" stroke="black" points="247,-97 251,-97 251,-93 247,-93 "/>
<text text-anchor="middle" x="274" y="-103.3" font-family="Times,serif" font-size="14.00">rt&#45;0</text>
</g>
<!-- p0x7bc400014030&#45;&gt;p0x7bc400014118 -->
<g id="edge3" class="edge">
<title>p0x7bc400014030&#45;&gt;p0x7bc400014118</title>
<path fill="none" stroke="black" stroke-dasharray="5,2" d="M295.35,-177.8C291.71,-165.89 286.55,-149.02 282.21,-134.84"/>
<polygon fill="black" stroke="black" points="285.51,-133.65 279.23,-125.11 278.81,-135.7 285.51,-133.65"/>
<text text-anchor="middle" x="293" y="-146.8" font-family="Times,serif" font-size="14.00">0</text>
</g>
<!-- p0x7bc400014200 -->
<g id="node6" class="node">
<title>p0x7bc400014200</title>
<polygon fill="none" stroke="black" points="373,-125 319,-125 319,-121 315,-121 315,-117 319,-117 319,-97 315,-97 315,-93 319,-93 319,-89 373,-89 373,-125"/>
<polyline fill="none" stroke="black" points="319,-121 323,-121 323,-117 319,-117 "/>
<polyline fill="none" stroke="black" points="319,-97 323,-97 323,-93 319,-93 "/>
<text text-anchor="middle" x="346" y="-103.3" font-family="Times,serif" font-size="14.00">rt&#45;1</text>
</g>
<!-- p0x7bc400014030&#45;&gt;p0x7bc400014200 -->
<g id="edge4" class="edge">
<title>p0x7bc400014030&#45;&gt;p0x7bc400014200</title>
<path fill="none" stroke="black" stroke-dasharray="5,2" d="M307.6,-178.96C314.13,-166.9 323.72,-149.16 331.69,-134.44"/>
<polygon fill="black" stroke="black" points="334.96,-135.75 336.64,-125.29 328.8,-132.42 334.96,-135.75"/>
<text text-anchor="middle" x="330" y="-146.8" font-family="Times,serif" font-size="14.00">1</text>
</g>
</g>
</svg>
