<?xml version="1.0" encoding="UTF-8" standalone="no"?>
<!DOCTYPE svg PUBLIC "-//W3C//DTD SVG 1.1//EN"
 "http://www.w3.org/Graphics/SVG/1.1/DTD/svg11.dtd">
<!-- Generated by graphviz version 12.2.1 (20241206.2353)
 -->
<!-- Title: SpecWrong Pages: 1 -->
<svg width="520pt" height="91pt"
 viewBox="0.00 0.00 520.20 91.16" xmlns="http://www.w3.org/2000/svg" xmlns:xlink="http://www.w3.org/1999/xlink">
<g id="graph0" class="graph" transform="scale(1 1) rotate(0) translate(4 87.16)">
<title>SpecWrong</title>
<polygon fill="white" stroke="none" points="-4,4 -4,-87.16 516.2,-87.16 516.2,4 -4,4"/>
<!-- prepare -->
<g id="node1" class="node">
<title>prepare</title>
<polygon fill="#cce5ff" stroke="black" points="54,-51.16 0,-51.16 0,-31 54,-31 54,-51.16"/>
<text text-anchor="middle" x="27" y="-37.41" font-family="Helvetica,sans-Serif" font-size="9.00">prepare</text>
</g>
<!-- speculate -->
<g id="node2" class="node">
<title>speculate</title>
<polygon fill="aquamarine" stroke="black" points="175.15,-56.59 121,-41.08 175.15,-25.57 229.3,-41.08 175.15,-56.59"/>
<text text-anchor="middle" x="175.15" y="-37.41" font-family="Helvetica,sans-Serif" font-size="9.00">speculate</text>
</g>
<!-- prepare&#45;&gt;speculate -->
<g id="edge1" class="edge">
<title>prepare&#45;&gt;speculate</title>
<path fill="none" stroke="#555555" d="M54.47,-41.08C70.58,-41.08 91.89,-41.08 112.06,-41.08"/>
<polygon fill="#555555" stroke="#555555" points="111.91,-43.18 117.91,-41.08 111.91,-38.98 111.91,-43.18"/>
</g>
<!-- fast -->
<!-- regular task — wrong -->
<g id="node3" class="node">
<title>fast</title>
<polygon fill="#fff3cd" stroke="black" points="367.45,-83.16 302.05,-83.16 302.05,-63 367.45,-63 367.45,-83.16"/>
<text text-anchor="middle" x="334.75" y="-69.41" font-family="Helvetica,sans-Serif" font-size="9.00">fast_handler</text>
</g>
<!-- speculate&#45;&gt;fast -->
<g id="edge2" class="edge">
<title>speculate&#45;&gt;fast</title>
<path fill="none" stroke="#555555" stroke-dasharray="5,2" d="M208.04,-47.56C232.95,-52.61 267.7,-59.67 294.35,-65.08"/>
<polygon fill="#555555" stroke="#555555" points="293.85,-67.12 300.15,-66.26 294.69,-63.01 293.85,-67.12"/>
<text text-anchor="middle" x="264.55" y="-60.4" font-family="Helvetica,sans-Serif" font-size="8.00">0</text>
</g>
<!-- slow -->
<!-- regular task — wrong -->
<g id="node4" class="node">
<title>slow</title>
<polygon fill="#fff3cd" stroke="black" points="369.7,-20.16 299.8,-20.16 299.8,0 369.7,0 369.7,-20.16"/>
<text text-anchor="middle" x="334.75" y="-6.41" font-family="Helvetica,sans-Serif" font-size="9.00">slow_fallback</text>
</g>
<!-- speculate&#45;&gt;slow -->
<g id="edge3" class="edge">
<title>speculate&#45;&gt;slow</title>
<path fill="none" stroke="#555555" stroke-dasharray="5,2" d="M199.16,-32.15C216.29,-25.93 240.4,-18.06 262.3,-14.08 271.85,-12.34 282.22,-11.3 292.02,-10.68"/>
<polygon fill="#555555" stroke="#555555" points="291.99,-12.78 297.87,-10.36 291.77,-8.59 291.99,-12.78"/>
<text text-anchor="middle" x="264.55" y="-15.48" font-family="Helvetica,sans-Serif" font-size="8.00">1</text>
</g>
<!-- merge -->
<g id="node5" class="node">
<title>merge</title>
<polygon fill="#f8d7da" stroke="crimson" stroke-width="2.5" points="512.2,-51.16 458.2,-51.16 458.2,-31 512.2,-31 512.2,-51.16"/>
<text text-anchor="middle" x="485.2" y="-37.41" font-family="Helvetica,sans-Serif" font-size="9.00">merge</text>
<text text-anchor="middle" x="476.57" y="-22.45" font-family="Helvetica,sans-Serif" font-size="9.00">⚠ deadlock:</text>
<text text-anchor="middle" x="476.57" y="-11.95" font-family="Helvetica,sans-Serif" font-size="9.00">strong_deps=2,</text>
<text text-anchor="middle" x="476.57" y="-2.2" font-family="Helvetica,sans-Serif" font-size="9.00">only one satisfied</text>
</g>
<!-- fast&#45;&gt;merge -->
<g id="edge4" class="edge">
<title>fast&#45;&gt;merge</title>
<path fill="none" stroke="#555555" d="M367.6,-66.22C391.94,-60.97 425.44,-53.75 450.29,-48.39"/>
<polygon fill="#555555" stroke="#555555" points="450.47,-50.5 455.9,-47.18 449.59,-46.39 450.47,-50.5"/>
<text text-anchor="middle" x="413.95" y="-59.44" font-family="Helvetica,sans-Serif" font-size="8.00">strong</text>
</g>
<!-- slow&#45;&gt;merge -->
<g id="edge5" class="edge">
<title>slow&#45;&gt;merge</title>
<path fill="none" stroke="#555555" d="M370.16,-8.56C386.97,-8.59 407.37,-9.77 425.2,-14.08 436.59,-16.83 448.46,-21.8 458.54,-26.74"/>
<polygon fill="#555555" stroke="#555555" points="457.56,-28.59 463.86,-29.43 459.46,-24.85 457.56,-28.59"/>
<text text-anchor="middle" x="413.95" y="-15.48" font-family="Helvetica,sans-Serif" font-size="8.00">strong</text>
</g>
</g>
</svg>
