<?xml version="1.0" encoding="UTF-8" standalone="no"?>
<!DOCTYPE svg PUBLIC "-//W3C//DTD SVG 1.1//EN"
 "http://www.w3.org/Graphics/SVG/1.1/DTD/svg11.dtd">
<!-- Generated by graphviz version 2.43.0 (0)
 -->
<!-- Title: Taskflow Pages: 1 -->
<svg width="1126pt" height="152pt"
 viewBox="0.00 0.00 1126.01 152.00" xmlns="http://www.w3.org/2000/svg" xmlns:xlink="http://www.w3.org/1999/xlink">
<g id="graph0" class="graph" transform="scale(1 1) rotate(0) translate(4 148)">
<title>Taskflow</title>
<polygon fill="white" stroke="transparent" points="-4,4 -4,-148 1122.01,-148 1122.01,4 -4,4"/>
<!-- p0x7fc231700030 -->
<g id="node1" class="node">
<title>p0x7fc231700030</title>
<ellipse fill="none" stroke="black" cx="27" cy="-99" rx="27" ry="18"/>
<text text-anchor="middle" x="27" y="-95.3" font-family="Times,serif" font-size="14.00">init</text>
</g>
<!-- p0x7fc231700140 -->
<g id="node2" class="node">
<title>p0x7fc231700140</title>
<polygon fill="aquamarine" stroke="black" points="227.04,-117 90.96,-99 227.04,-81 363.11,-99 227.04,-117"/>
<text text-anchor="middle" x="227.04" y="-95.3" font-family="Times,serif" font-size="14.00">cond1 (i&gt;1 ? 1 : 0)</text>
</g>
<!-- p0x7fc231700030&#45;&gt;p0x7fc231700140 -->
<g id="edge1" class="edge">
<title>p0x7fc231700030&#45;&gt;p0x7fc231700140</title>
<path fill="none" stroke="black" d="M54.3,-99C62.03,-99 71.08,-99 80.92,-99"/>
<polygon fill="black" stroke="black" points="80.99,-102.5 90.99,-99 80.99,-95.5 80.99,-102.5"/>
</g>
<!-- p0x7fc231700470 -->
<g id="node3" class="node">
<title>p0x7fc231700470</title>
<ellipse fill="none" stroke="black" cx="545.11" cy="-126" rx="36.29" ry="18"/>
<text text-anchor="middle" x="545.11" y="-122.3" font-family="Times,serif" font-size="14.00">equl1</text>
</g>
<!-- p0x7fc231700140&#45;&gt;p0x7fc231700470 -->
<g id="edge2" class="edge">
<title>p0x7fc231700140&#45;&gt;p0x7fc231700470</title>
<path fill="none" stroke="black" stroke-dasharray="5,2" d="M310.25,-106.02C370.53,-111.17 450.1,-117.97 499.15,-122.16"/>
<polygon fill="black" stroke="black" points="498.87,-125.65 509.14,-123.01 499.47,-118.67 498.87,-125.65"/>
<text text-anchor="middle" x="386.07" y="-115.8" font-family="Times,serif" font-size="14.00">0</text>
</g>
<!-- p0x7fc231700250 -->
<g id="node4" class="node">
<title>p0x7fc231700250</title>
<polygon fill="aquamarine" stroke="black" points="545.11,-90 409.04,-72 545.11,-54 681.18,-72 545.11,-90"/>
<text text-anchor="middle" x="545.11" y="-68.3" font-family="Times,serif" font-size="14.00">cond2 (i&gt;2 ? 1 : 0)</text>
</g>
<!-- p0x7fc231700140&#45;&gt;p0x7fc231700250 -->
<g id="edge3" class="edge">
<title>p0x7fc231700140&#45;&gt;p0x7fc231700250</title>
<path fill="none" stroke="black" stroke-dasharray="5,2" d="M310.25,-91.98C353.7,-88.27 407.17,-83.7 452.01,-79.87"/>
<polygon fill="black" stroke="black" points="452.36,-83.35 462.02,-79.01 451.76,-76.38 452.36,-83.35"/>
<text text-anchor="middle" x="386.07" y="-88.8" font-family="Times,serif" font-size="14.00">1</text>
</g>
<!-- p0x7fc231700580 -->
<g id="node5" class="node">
<title>p0x7fc231700580</title>
<ellipse fill="none" stroke="black" cx="863.18" cy="-99" rx="36.29" ry="18"/>
<text text-anchor="middle" x="863.18" y="-95.3" font-family="Times,serif" font-size="14.00">equl2</text>
</g>
<!-- p0x7fc231700250&#45;&gt;p0x7fc231700580 -->
<g id="edge4" class="edge">
<title>p0x7fc231700250&#45;&gt;p0x7fc231700580</title>
<path fill="none" stroke="black" stroke-dasharray="5,2" d="M628.32,-79.02C688.6,-84.17 768.17,-90.97 817.22,-95.16"/>
<polygon fill="black" stroke="black" points="816.94,-98.65 827.21,-96.01 817.54,-91.67 816.94,-98.65"/>
<text text-anchor="middle" x="704.14" y="-88.8" font-family="Times,serif" font-size="14.00">0</text>
</g>
<!-- p0x7fc231700360 -->
<g id="node6" class="node">
<title>p0x7fc231700360</title>
<polygon fill="aquamarine" stroke="black" points="863.18,-63 727.11,-45 863.18,-27 999.25,-45 863.18,-63"/>
<text text-anchor="middle" x="863.18" y="-41.3" font-family="Times,serif" font-size="14.00">cond3 (i&gt;3 ? 1 : 0)</text>
</g>
<!-- p0x7fc231700250&#45;&gt;p0x7fc231700360 -->
<g id="edge5" class="edge">
<title>p0x7fc231700250&#45;&gt;p0x7fc231700360</title>
<path fill="none" stroke="black" stroke-dasharray="5,2" d="M628.32,-64.98C671.77,-61.27 725.24,-56.7 770.08,-52.87"/>
<polygon fill="black" stroke="black" points="770.43,-56.35 780.1,-52.01 769.83,-49.38 770.43,-56.35"/>
<text text-anchor="middle" x="704.14" y="-61.8" font-family="Times,serif" font-size="14.00">1</text>
</g>
<!-- p0x7fc231700690 -->
<g id="node7" class="node">
<title>p0x7fc231700690</title>
<ellipse fill="none" stroke="black" cx="1081.61" cy="-72" rx="36.29" ry="18"/>
<text text-anchor="middle" x="1081.61" y="-68.3" font-family="Times,serif" font-size="14.00">equl3</text>
</g>
<!-- p0x7fc231700360&#45;&gt;p0x7fc231700690 -->
<g id="edge6" class="edge">
<title>p0x7fc231700360&#45;&gt;p0x7fc231700690</title>
<path fill="none" stroke="black" stroke-dasharray="5,2" d="M933.85,-53.69C967.45,-57.88 1006.76,-62.79 1036.23,-66.46"/>
<polygon fill="black" stroke="black" points="1035.87,-69.95 1046.22,-67.71 1036.73,-63 1035.87,-69.95"/>
<text text-anchor="middle" x="1022.21" y="-67.8" font-family="Times,serif" font-size="14.00">0</text>
</g>
<!-- p0x7fc2317007a0 -->
<g id="node8" class="node">
<title>p0x7fc2317007a0</title>
<ellipse fill="none" stroke="black" cx="1081.61" cy="-18" rx="35.19" ry="18"/>
<text text-anchor="middle" x="1081.61" y="-14.3" font-family="Times,serif" font-size="14.00">grtr3</text>
</g>
<!-- p0x7fc231700360&#45;&gt;p0x7fc2317007a0 -->
<g id="edge7" class="edge">
<title>p0x7fc231700360&#45;&gt;p0x7fc2317007a0</title>
<path fill="none" stroke="black" stroke-dasharray="5,2" d="M933.85,-36.31C967.89,-32.06 1007.8,-27.08 1037.39,-23.39"/>
<polygon fill="black" stroke="black" points="1037.92,-26.85 1047.41,-22.14 1037.05,-19.91 1037.92,-26.85"/>
<text text-anchor="middle" x="1022.21" y="-28.8" font-family="Times,serif" font-size="14.00">1</text>
</g>
</g>
</svg>
