<?xml version="1.0" encoding="UTF-8" standalone="no"?>
<!DOCTYPE svg PUBLIC "-//W3C//DTD SVG 1.1//EN"
 "http://www.w3.org/Graphics/SVG/1.1/DTD/svg11.dtd">
<!-- Generated by graphviz version 2.43.0 (0)
 -->
<!-- Title: Taskflow Pages: 1 -->
<svg width="368pt" height="106pt"
 viewBox="0.00 0.00 367.55 106.00" xmlns="http://www.w3.org/2000/svg" xmlns:xlink="http://www.w3.org/1999/xlink">
<g id="graph0" class="graph" transform="scale(1 1) rotate(0) translate(4 102)">
<title>Taskflow</title>
<polygon fill="white" stroke="transparent" points="-4,4 -4,-102 363.55,-102 363.55,4 -4,4"/>
<!-- p0x7fdba4000030 -->
<g id="node1" class="node">
<title>p0x7fdba4000030</title>
<ellipse fill="none" stroke="black" cx="27" cy="-42" rx="27" ry="18"/>
<text text-anchor="middle" x="27" y="-38.3" font-family="Times,serif" font-size="14.00">init</text>
</g>
<!-- p0x7fdba4000140 -->
<g id="node2" class="node">
<title>p0x7fdba4000140</title>
<polygon fill="aquamarine" stroke="black" points="169.13,-60 90.87,-42 169.13,-24 247.39,-42 169.13,-60"/>
<text text-anchor="middle" x="169.13" y="-38.3" font-family="Times,serif" font-size="14.00">while i&lt;5</text>
</g>
<!-- p0x7fdba4000030&#45;&gt;p0x7fdba4000140 -->
<g id="edge1" class="edge">
<title>p0x7fdba4000030&#45;&gt;p0x7fdba4000140</title>
<path fill="none" stroke="black" d="M54.03,-42C61.9,-42 71.02,-42 80.6,-42"/>
<polygon fill="black" stroke="black" points="80.73,-45.5 90.73,-42 80.73,-38.5 80.73,-45.5"/>
</g>
<!-- p0x7fdba4000470 -->
<g id="node3" class="node">
<title>p0x7fdba4000470</title>
<ellipse fill="none" stroke="black" cx="326.4" cy="-80" rx="33.29" ry="18"/>
<text text-anchor="middle" x="326.4" y="-76.3" font-family="Times,serif" font-size="14.00">done</text>
</g>
<!-- p0x7fdba4000140&#45;&gt;p0x7fdba4000470 -->
<g id="edge2" class="edge">
<title>p0x7fdba4000140&#45;&gt;p0x7fdba4000470</title>
<path fill="none" stroke="black" stroke-dasharray="5,2" d="M207.72,-51.2C231.43,-57 262.02,-64.49 286.06,-70.37"/>
<polygon fill="black" stroke="black" points="285.38,-73.81 295.93,-72.79 287.05,-67.01 285.38,-73.81"/>
<text text-anchor="middle" x="270.26" y="-70.8" font-family="Times,serif" font-size="14.00">1</text>
</g>
<!-- p0x7fdba4000250 -->
<g id="node4" class="node">
<title>p0x7fdba4000250</title>
<ellipse fill="none" stroke="black" cx="326.4" cy="-18" rx="29.5" ry="18"/>
<text text-anchor="middle" x="326.4" y="-14.3" font-family="Times,serif" font-size="14.00">i++</text>
</g>
<!-- p0x7fdba4000140&#45;&gt;p0x7fdba4000250 -->
<g id="edge3" class="edge">
<title>p0x7fdba4000140&#45;&gt;p0x7fdba4000250</title>
<path fill="none" stroke="black" stroke-dasharray="5,2" d="M216.72,-34.8C239.44,-31.29 266.41,-27.12 287.8,-23.81"/>
<polygon fill="black" stroke="black" points="288.46,-27.25 297.81,-22.26 287.39,-20.33 288.46,-27.25"/>
<text text-anchor="middle" x="270.26" y="-30.8" font-family="Times,serif" font-size="14.00">0</text>
</g>
<!-- p0x7fdba4000250&#45;&gt;p0x7fdba4000140 -->
<g id="edge4" class="edge">
<title>p0x7fdba4000250&#45;&gt;p0x7fdba4000140</title>
<path fill="none" stroke="black" d="M297.18,-19.68C287.08,-20.45 275.63,-21.54 265.26,-23 250.22,-25.12 233.97,-28.1 219.23,-31.08"/>
<polygon fill="black" stroke="black" points="218.38,-27.68 209.3,-33.13 219.8,-34.54 218.38,-27.68"/>
</g>
</g>
</svg>
