<?xml version="1.0" encoding="UTF-8" standalone="no"?>
<!DOCTYPE svg PUBLIC "-//W3C//DTD SVG 1.1//EN"
 "http://www.w3.org/Graphics/SVG/1.1/DTD/svg11.dtd">
<!-- Generated by graphviz version 12.2.1 (20241206.2353)
 -->
<!-- Title: stencil3D Pages: 1 -->
<svg width="303pt" height="48pt"
 viewBox="0.00 0.00 303.38 47.54" xmlns="http://www.w3.org/2000/svg" xmlns:xlink="http://www.w3.org/1999/xlink">
<g id="graph0" class="graph" transform="scale(1 1) rotate(0) translate(4 43.54)">
<title>stencil3D</title>
<polygon fill="white" stroke="none" points="-4,4 -4,-43.54 299.38,-43.54 299.38,4 -4,4"/>
<!-- init -->
<g id="node1" class="node">
<title>init</title>
<ellipse fill="none" stroke="black" cx="27" cy="-21.54" rx="27" ry="18"/>
<text text-anchor="middle" x="27" y="-16.49" font-family="Times,serif" font-size="14.00">init</text>
</g>
<!-- stencil -->
<g id="node2" class="node">
<title>stencil</title>
<ellipse fill="none" stroke="black" cx="125.97" cy="-21.54" rx="34.97" ry="18"/>
<text text-anchor="middle" x="125.97" y="-16.49" font-family="Times,serif" font-size="14.00">stencil</text>
</g>
<!-- init&#45;&gt;stencil -->
<g id="edge1" class="edge">
<title>init&#45;&gt;stencil</title>
<path fill="none" stroke="black" d="M54.5,-21.54C62.21,-21.54 70.86,-21.54 79.39,-21.54"/>
<polygon fill="black" stroke="black" points="79.34,-25.04 89.34,-21.54 79.34,-18.04 79.34,-25.04"/>
</g>
<!-- check -->
<g id="node3" class="node">
<title>check</title>
<polygon fill="aquamarine" stroke="black" points="249.54,-39.54 203.7,-21.54 249.54,-3.54 295.38,-21.54 249.54,-39.54"/>
<text text-anchor="middle" x="249.54" y="-16.49" font-family="Times,serif" font-size="14.00">check</text>
</g>
<!-- stencil&#45;&gt;check -->
<g id="edge2" class="edge">
<title>stencil&#45;&gt;check</title>
<path fill="none" stroke="black" d="M161.16,-21.54C170.45,-21.54 180.76,-21.54 190.96,-21.54"/>
<polygon fill="black" stroke="black" points="190.85,-25.04 200.85,-21.54 190.85,-18.04 190.85,-25.04"/>
</g>
<!-- check&#45;&gt;stencil -->
<g id="edge3" class="edge">
<title>check&#45;&gt;stencil</title>
<path fill="none" stroke="black" stroke-dasharray="5,2" d="M229.59,-10.84C215.73,-4.28 196.39,2.28 178.95,-1.04 173.63,-2.05 168.16,-3.6 162.86,-5.39"/>
<polygon fill="black" stroke="black" points="161.86,-2.03 153.73,-8.82 164.32,-8.58 161.86,-2.03"/>
<text text-anchor="middle" x="182.32" y="-4.24" font-family="Times,serif" font-size="14.00">0</text>
</g>
</g>
</svg>
