<?xml version="1.0" encoding="UTF-8" standalone="no"?>
<!DOCTYPE svg PUBLIC "-//W3C//DTD SVG 1.1//EN"
 "http://www.w3.org/Graphics/SVG/1.1/DTD/svg11.dtd">
<!-- Generated by graphviz version 12.2.1 (20241206.2353)
 -->
<!-- Title: Taskflow Pages: 1 -->
<svg width="332pt" height="107pt"
 viewBox="0.00 0.00 331.63 107.00" xmlns="http://www.w3.org/2000/svg" xmlns:xlink="http://www.w3.org/1999/xlink">
<g id="graph0" class="graph" transform="scale(1 1) rotate(0) translate(4 103)">
<title>Taskflow</title>
<polygon fill="white" stroke="none" points="-4,4 -4,-103 327.63,-103 327.63,4 -4,4"/>
<!-- p0x7fdba4000030 -->
<g id="node1" class="node">
<title>p0x7fdba4000030</title>
<ellipse fill="none" stroke="black" cx="27" cy="-41" rx="27" ry="18"/>
<text text-anchor="middle" x="27" y="-35.95" font-family="Times,serif" font-size="14.00">init</text>
</g>
<!-- p0x7fdba4000140 -->
<g id="node2" class="node">
<title>p0x7fdba4000140</title>
<polygon fill="aquamarine" stroke="black" points="157.11,-59 91,-41 157.11,-23 223.22,-41 157.11,-59"/>
<text text-anchor="middle" x="157.11" y="-35.95" font-family="Times,serif" font-size="14.00">while i&lt;5</text>
</g>
<!-- p0x7fdba4000030&#45;&gt;p0x7fdba4000140 -->
<g id="edge1" class="edge">
<title>p0x7fdba4000030&#45;&gt;p0x7fdba4000140</title>
<path fill="none" stroke="black" d="M54.23,-41C61.36,-41 69.46,-41 77.9,-41"/>
<polygon fill="black" stroke="black" points="77.64,-44.5 87.64,-41 77.64,-37.5 77.64,-44.5"/>
</g>
<!-- p0x7fdba4000470 -->
<g id="node3" class="node">
<title>p0x7fdba4000470</title>
<ellipse fill="none" stroke="black" cx="294.8" cy="-81" rx="28.83" ry="18"/>
<text text-anchor="middle" x="294.8" y="-75.95" font-family="Times,serif" font-size="14.00">done</text>
</g>
<!-- p0x7fdba4000140&#45;&gt;p0x7fdba4000470 -->
<g id="edge2" class="edge">
<title>p0x7fdba4000140&#45;&gt;p0x7fdba4000470</title>
<path fill="none" stroke="black" stroke-dasharray="5,2" d="M190.26,-50.48C210.37,-56.41 236.31,-64.05 257.2,-70.21"/>
<polygon fill="black" stroke="black" points="256.18,-73.56 266.76,-73.03 258.16,-66.85 256.18,-73.56"/>
<text text-anchor="middle" x="244.59" y="-70.12" font-family="Times,serif" font-size="14.00">1</text>
</g>
<!-- p0x7fdba4000250 -->
<g id="node4" class="node">
<title>p0x7fdba4000250</title>
<ellipse fill="none" stroke="black" cx="294.8" cy="-18" rx="27" ry="18"/>
<text text-anchor="middle" x="294.8" y="-12.95" font-family="Times,serif" font-size="14.00">i++</text>
</g>
<!-- p0x7fdba4000140&#45;&gt;p0x7fdba4000250 -->
<g id="edge3" class="edge">
<title>p0x7fdba4000140&#45;&gt;p0x7fdba4000250</title>
<path fill="none" stroke="black" stroke-dasharray="5,2" d="M199.19,-34.04C217.62,-30.91 239.18,-27.26 257.06,-24.23"/>
<polygon fill="black" stroke="black" points="257.45,-27.71 266.72,-22.59 256.28,-20.81 257.45,-27.71"/>
<text text-anchor="middle" x="244.59" y="-29.96" font-family="Times,serif" font-size="14.00">0</text>
</g>
<!-- p0x7fdba4000250&#45;&gt;p0x7fdba4000140 -->
<g id="edge4" class="edge">
<title>p0x7fdba4000250&#45;&gt;p0x7fdba4000140</title>
<path fill="none" stroke="black" d="M267.5,-19.23C259.07,-19.83 249.72,-20.71 241.22,-22 228.67,-23.9 215.2,-26.66 202.84,-29.49"/>
<polygon fill="black" stroke="black" points="202.25,-26.03 193.33,-31.74 203.86,-32.84 202.25,-26.03"/>
</g>
</g>
</svg>
