<?xml version="1.0" encoding="UTF-8" standalone="no"?>
<!DOCTYPE svg PUBLIC "-//W3C//DTD SVG 1.1//EN"
 "http://www.w3.org/Graphics/SVG/1.1/DTD/svg11.dtd">
<!-- Generated by graphviz version 2.43.0 (0)
 -->
<!-- Title: Taskflow Pages: 1 -->
<svg width="413pt" height="223pt"
 viewBox="0.00 0.00 412.59 223.00" xmlns="http://www.w3.org/2000/svg" xmlns:xlink="http://www.w3.org/1999/xlink">
<g id="graph0" class="graph" transform="scale(1 1) rotate(0) translate(4 219)">
<title>Taskflow</title>
<polygon fill="white" stroke="transparent" points="-4,4 -4,-219 408.59,-219 408.59,4 -4,4"/>
<g id="clust1" class="cluster">
<title>cluster_p0x7ffeeca03810</title>
<polygon fill="none" stroke="black" points="8,-8 8,-207 396.59,-207 396.59,-8 8,-8"/>
<text text-anchor="middle" x="202.29" y="-191.8" font-family="Times,serif" font-size="14.00">Taskflow</text>
</g>
<g id="clust2" class="cluster">
<title>cluster_p0x7fbc40c02830</title>
<polygon fill="none" stroke="blue" points="16,-16 16,-176 388.59,-176 388.59,-16 16,-16"/>
<text text-anchor="middle" x="202.29" y="-160.8" font-family="Times,serif" font-size="14.00">Subflow: A</text>
</g>
<g id="clust3" class="cluster">
<title>cluster_p0x7fbc40d00240</title>
<polygon fill="none" stroke="blue" points="24,-70 24,-145 298.59,-145 298.59,-70 24,-70"/>
<text text-anchor="middle" x="161.29" y="-129.8" font-family="Times,serif" font-size="14.00">Subflow: A2</text>
</g>
<!-- p0x7fbc40c02830 -->
<g id="node1" class="node">
<title>p0x7fbc40c02830</title>
<ellipse fill="none" stroke="black" cx="353.59" cy="-96" rx="27" ry="18"/>
<text text-anchor="middle" x="353.59" y="-92.3" font-family="Times,serif" font-size="14.00">A</text>
</g>
<!-- p0x7fbc40d00120 -->
<g id="node2" class="node">
<title>p0x7fbc40d00120</title>
<ellipse fill="none" stroke="black" cx="167.44" cy="-42" rx="27" ry="18"/>
<text text-anchor="middle" x="167.44" y="-38.3" font-family="Times,serif" font-size="14.00">A1</text>
</g>
<!-- p0x7fbc40d00240 -->
<g id="node3" class="node">
<title>p0x7fbc40d00240</title>
<ellipse fill="none" stroke="black" cx="263.59" cy="-96" rx="27" ry="18"/>
<text text-anchor="middle" x="263.59" y="-92.3" font-family="Times,serif" font-size="14.00">A2</text>
</g>
<!-- p0x7fbc40d00120&#45;&gt;p0x7fbc40d00240 -->
<g id="edge1" class="edge">
<title>p0x7fbc40d00120&#45;&gt;p0x7fbc40d00240</title>
<path fill="none" stroke="black" d="M188.41,-53.45C201.64,-61.04 219.2,-71.12 233.92,-79.56"/>
<polygon fill="black" stroke="black" points="232.24,-82.63 242.65,-84.56 235.72,-76.55 232.24,-82.63"/>
</g>
<!-- p0x7fbc40d00240&#45;&gt;p0x7fbc40c02830 -->
<g id="edge2" class="edge">
<title>p0x7fbc40d00240&#45;&gt;p0x7fbc40c02830</title>
<path fill="none" stroke="black" d="M290.99,-96C298.98,-96 307.9,-96 316.41,-96"/>
<polygon fill="black" stroke="black" points="316.51,-99.5 326.51,-96 316.51,-92.5 316.51,-99.5"/>
</g>
<!-- p0x7fbc40d00360 -->
<g id="node4" class="node">
<title>p0x7fbc40d00360</title>
<ellipse fill="none" stroke="black" cx="65.15" cy="-96" rx="33.29" ry="18"/>
<text text-anchor="middle" x="65.15" y="-92.3" font-family="Times,serif" font-size="14.00">A2_1</text>
</g>
<!-- p0x7fbc40d00470 -->
<g id="node5" class="node">
<title>p0x7fbc40d00470</title>
<ellipse fill="none" stroke="black" cx="167.44" cy="-96" rx="33.29" ry="18"/>
<text text-anchor="middle" x="167.44" y="-92.3" font-family="Times,serif" font-size="14.00">A2_2</text>
</g>
<!-- p0x7fbc40d00360&#45;&gt;p0x7fbc40d00470 -->
<g id="edge3" class="edge">
<title>p0x7fbc40d00360&#45;&gt;p0x7fbc40d00470</title>
<path fill="none" stroke="black" d="M98.43,-96C106.58,-96 115.44,-96 124,-96"/>
<polygon fill="black" stroke="black" points="124.22,-99.5 134.22,-96 124.22,-92.5 124.22,-99.5"/>
</g>
<!-- p0x7fbc40d00470&#45;&gt;p0x7fbc40d00240 -->
<g id="edge4" class="edge">
<title>p0x7fbc40d00470&#45;&gt;p0x7fbc40d00240</title>
<path fill="none" stroke="black" d="M200.84,-96C208.99,-96 217.8,-96 226.14,-96"/>
<polygon fill="black" stroke="black" points="226.36,-99.5 236.36,-96 226.36,-92.5 226.36,-99.5"/>
</g>
</g>
</svg>
