<?xml version="1.0" encoding="UTF-8" standalone="no"?>
<!DOCTYPE svg PUBLIC "-//W3C//DTD SVG 1.1//EN"
 "http://www.w3.org/Graphics/SVG/1.1/DTD/svg11.dtd">
<!-- Generated by graphviz version 12.2.1 (20241206.2353)
 -->
<!-- Title: Taskflow Pages: 1 -->
<svg width="450pt" height="116pt"
 viewBox="0.00 0.00 450.04 116.00" xmlns="http://www.w3.org/2000/svg" xmlns:xlink="http://www.w3.org/1999/xlink">
<g id="graph0" class="graph" transform="scale(1 1) rotate(0) translate(4 112)">
<title>Taskflow</title>
<polygon fill="white" stroke="none" points="-4,4 -4,-112 446.04,-112 446.04,4 -4,4"/>
<!-- p0xc02d50 -->
<g id="node1" class="node">
<title>p0xc02d50</title>
<ellipse fill="none" stroke="black" cx="37.02" cy="-90" rx="37.02" ry="18"/>
<text text-anchor="middle" x="37.02" y="-84.95" font-family="Times,serif" font-size="14.00">from&#45;0</text>
</g>
<!-- p0xc02e40 -->
<g id="node2" class="node">
<title>p0xc02e40</title>
<ellipse fill="none" stroke="black" cx="37.02" cy="-18" rx="27" ry="18"/>
<text text-anchor="middle" x="37.02" y="-12.95" font-family="Times,serif" font-size="14.00">to&#45;0</text>
</g>
<!-- p0xc02d50&#45;&gt;p0xc02e40 -->
<g id="edge1" class="edge">
<title>p0xc02d50&#45;&gt;p0xc02e40</title>
<path fill="none" stroke="black" d="M37.02,-71.7C37.02,-64.41 37.02,-55.73 37.02,-47.54"/>
<polygon fill="black" stroke="black" points="40.52,-47.62 37.02,-37.62 33.52,-47.62 40.52,-47.62"/>
</g>
<!-- p0xc02f30 -->
<g id="node3" class="node">
<title>p0xc02f30</title>
<ellipse fill="none" stroke="black" cx="129.02" cy="-90" rx="37.02" ry="18"/>
<text text-anchor="middle" x="129.02" y="-84.95" font-family="Times,serif" font-size="14.00">from&#45;1</text>
</g>
<!-- p0xc03020 -->
<g id="node4" class="node">
<title>p0xc03020</title>
<ellipse fill="none" stroke="black" cx="129.02" cy="-18" rx="27" ry="18"/>
<text text-anchor="middle" x="129.02" y="-12.95" font-family="Times,serif" font-size="14.00">to&#45;1</text>
</g>
<!-- p0xc02f30&#45;&gt;p0xc03020 -->
<g id="edge2" class="edge">
<title>p0xc02f30&#45;&gt;p0xc03020</title>
<path fill="none" stroke="black" d="M129.02,-71.7C129.02,-64.41 129.02,-55.73 129.02,-47.54"/>
<polygon fill="black" stroke="black" points="132.52,-47.62 129.02,-37.62 125.52,-47.62 132.52,-47.62"/>
</g>
<!-- p0xc03110 -->
<g id="node5" class="node">
<title>p0xc03110</title>
<ellipse fill="none" stroke="black" cx="221.02" cy="-90" rx="37.02" ry="18"/>
<text text-anchor="middle" x="221.02" y="-84.95" font-family="Times,serif" font-size="14.00">from&#45;2</text>
</g>
<!-- p0xc03200 -->
<g id="node6" class="node">
<title>p0xc03200</title>
<ellipse fill="none" stroke="black" cx="221.02" cy="-18" rx="27" ry="18"/>
<text text-anchor="middle" x="221.02" y="-12.95" font-family="Times,serif" font-size="14.00">to&#45;2</text>
</g>
<!-- p0xc03110&#45;&gt;p0xc03200 -->
<g id="edge3" class="edge">
<title>p0xc03110&#45;&gt;p0xc03200</title>
<path fill="none" stroke="black" d="M221.02,-71.7C221.02,-64.41 221.02,-55.73 221.02,-47.54"/>
<polygon fill="black" stroke="black" points="224.52,-47.62 221.02,-37.62 217.52,-47.62 224.52,-47.62"/>
</g>
<!-- p0xc032f0 -->
<g id="node7" class="node">
<title>p0xc032f0</title>
<ellipse fill="none" stroke="black" cx="313.02" cy="-90" rx="37.02" ry="18"/>
<text text-anchor="middle" x="313.02" y="-84.95" font-family="Times,serif" font-size="14.00">from&#45;3</text>
</g>
<!-- p0xc033e0 -->
<g id="node8" class="node">
<title>p0xc033e0</title>
<ellipse fill="none" stroke="black" cx="313.02" cy="-18" rx="27" ry="18"/>
<text text-anchor="middle" x="313.02" y="-12.95" font-family="Times,serif" font-size="14.00">to&#45;3</text>
</g>
<!-- p0xc032f0&#45;&gt;p0xc033e0 -->
<g id="edge4" class="edge">
<title>p0xc032f0&#45;&gt;p0xc033e0</title>
<path fill="none" stroke="black" d="M313.02,-71.7C313.02,-64.41 313.02,-55.73 313.02,-47.54"/>
<polygon fill="black" stroke="black" points="316.52,-47.62 313.02,-37.62 309.52,-47.62 316.52,-47.62"/>
</g>
<!-- p0xc034d0 -->
<g id="node9" class="node">
<title>p0xc034d0</title>
<ellipse fill="none" stroke="black" cx="405.02" cy="-90" rx="37.02" ry="18"/>
<text text-anchor="middle" x="405.02" y="-84.95" font-family="Times,serif" font-size="14.00">from&#45;4</text>
</g>
<!-- p0xc035c0 -->
<g id="node10" class="node">
<title>p0xc035c0</title>
<ellipse fill="none" stroke="black" cx="405.02" cy="-18" rx="27" ry="18"/>
<text text-anchor="middle" x="405.02" y="-12.95" font-family="Times,serif" font-size="14.00">to&#45;4</text>
</g>
<!-- p0xc034d0&#45;&gt;p0xc035c0 -->
<g id="edge5" class="edge">
<title>p0xc034d0&#45;&gt;p0xc035c0</title>
<path fill="none" stroke="black" d="M405.02,-71.7C405.02,-64.41 405.02,-55.73 405.02,-47.54"/>
<polygon fill="black" stroke="black" points="408.52,-47.62 405.02,-37.62 401.52,-47.62 408.52,-47.62"/>
</g>
</g>
</svg>
