<?xml version="1.0" encoding="UTF-8" standalone="no"?>
<!DOCTYPE svg PUBLIC "-//W3C//DTD SVG 1.1//EN"
 "http://www.w3.org/Graphics/SVG/1.1/DTD/svg11.dtd">
<!-- Generated by graphviz version 12.2.1 (20241206.2353)
 -->
<!-- Title: BuildGraphCorrect Pages: 1 -->
<svg width="591pt" height="337pt"
 viewBox="0.00 0.00 590.55 337.00" xmlns="http://www.w3.org/2000/svg" xmlns:xlink="http://www.w3.org/1999/xlink">
<g id="graph0" class="graph" transform="scale(1 1) rotate(0) translate(4 333)">
<title>BuildGraphCorrect</title>
<polygon fill="white" stroke="none" points="-4,4 -4,-333 586.55,-333 586.55,4 -4,4"/>
<!-- main_c -->
<g id="node1" class="node">
<title>main_c</title>
<polygon fill="#cce5ff" stroke="black" points="54,-164 0,-164 0,-143.84 54,-143.84 54,-164"/>
<text text-anchor="middle" x="27" y="-150.24" font-family="Helvetica,sans-Serif" font-size="9.00">main.c</text>
</g>
<!-- main_cond -->
<g id="node6" class="node">
<title>main_cond</title>
<polygon fill="aquamarine" stroke="black" points="160.4,-169.43 113,-153.92 160.4,-138.41 207.8,-153.92 160.4,-169.43"/>
<text text-anchor="middle" x="160.4" y="-150.24" font-family="Helvetica,sans-Serif" font-size="9.00">main.o?</text>
</g>
<!-- main_c&#45;&gt;main_cond -->
<g id="edge1" class="edge">
<title>main_c&#45;&gt;main_cond</title>
<path fill="none" stroke="#555555" d="M54.27,-153.92C68.63,-153.92 86.96,-153.92 104.29,-153.92"/>
<polygon fill="#555555" stroke="#555555" points="104.12,-156.02 110.12,-153.92 104.12,-151.82 104.12,-156.02"/>
</g>
<!-- util_c -->
<g id="node2" class="node">
<title>util_c</title>
<polygon fill="#cce5ff" stroke="black" points="54,-293 0,-293 0,-272.84 54,-272.84 54,-293"/>
<text text-anchor="middle" x="27" y="-279.24" font-family="Helvetica,sans-Serif" font-size="9.00">util.c</text>
</g>
<!-- util_cond -->
<g id="node7" class="node">
<title>util_cond</title>
<polygon fill="aquamarine" stroke="black" points="160.4,-276.43 121.25,-260.92 160.4,-245.41 199.55,-260.92 160.4,-276.43"/>
<text text-anchor="middle" x="160.4" y="-257.24" font-family="Helvetica,sans-Serif" font-size="9.00">util.o?</text>
</g>
<!-- util_c&#45;&gt;util_cond -->
<g id="edge4" class="edge">
<title>util_c&#45;&gt;util_cond</title>
<path fill="none" stroke="#555555" d="M54.27,-278.52C74.46,-275.14 102.53,-270.44 124.58,-266.75"/>
<polygon fill="#555555" stroke="#555555" points="124.75,-268.85 130.32,-265.79 124.05,-264.71 124.75,-268.85"/>
</g>
<!-- util_h -->
<g id="node3" class="node">
<title>util_h</title>
<polygon fill="#cce5ff" stroke="black" points="54,-229 0,-229 0,-208.84 54,-208.84 54,-229"/>
<text text-anchor="middle" x="27" y="-215.24" font-family="Helvetica,sans-Serif" font-size="9.00">util.h</text>
</g>
<!-- util_h&#45;&gt;main_cond -->
<g id="edge2" class="edge">
<title>util_h&#45;&gt;main_cond</title>
<path fill="none" stroke="#555555" d="M49.11,-208.48C72.19,-197.06 109.16,-178.77 133.86,-166.56"/>
<polygon fill="#555555" stroke="#555555" points="134.67,-168.5 139.12,-163.95 132.81,-164.73 134.67,-168.5"/>
</g>
<!-- util_h&#45;&gt;util_cond -->
<g id="edge5" class="edge">
<title>util_h&#45;&gt;util_cond</title>
<path fill="none" stroke="#555555" d="M54.27,-227.32C76.44,-234.4 108.11,-244.52 130.89,-251.81"/>
<polygon fill="#555555" stroke="#555555" points="130.15,-253.77 136.5,-253.6 131.43,-249.77 130.15,-253.77"/>
</g>
<!-- math_c -->
<g id="node4" class="node">
<title>math_c</title>
<polygon fill="#cce5ff" stroke="black" points="54,-35 0,-35 0,-14.84 54,-14.84 54,-35"/>
<text text-anchor="middle" x="27" y="-21.24" font-family="Helvetica,sans-Serif" font-size="9.00">math.c</text>
</g>
<!-- math_cond -->
<g id="node8" class="node">
<title>math_cond</title>
<polygon fill="aquamarine" stroke="black" points="160.4,-40.43 113,-24.92 160.4,-9.41 207.8,-24.92 160.4,-40.43"/>
<text text-anchor="middle" x="160.4" y="-21.24" font-family="Helvetica,sans-Serif" font-size="9.00">math.o?</text>
</g>
<!-- math_c&#45;&gt;math_cond -->
<g id="edge6" class="edge">
<title>math_c&#45;&gt;math_cond</title>
<path fill="none" stroke="#555555" d="M54.27,-24.92C68.63,-24.92 86.96,-24.92 104.29,-24.92"/>
<polygon fill="#555555" stroke="#555555" points="104.12,-27.02 110.12,-24.92 104.12,-22.82 104.12,-27.02"/>
</g>
<!-- math_h -->
<g id="node5" class="node">
<title>math_h</title>
<polygon fill="#cce5ff" stroke="black" points="54,-100 0,-100 0,-79.84 54,-79.84 54,-100"/>
<text text-anchor="middle" x="27" y="-86.24" font-family="Helvetica,sans-Serif" font-size="9.00">math.h</text>
</g>
<!-- math_h&#45;&gt;main_cond -->
<g id="edge3" class="edge">
<title>math_h&#45;&gt;main_cond</title>
<path fill="none" stroke="#555555" d="M49.7,-100.49C72.75,-111.72 109.18,-129.46 133.67,-141.39"/>
<polygon fill="#555555" stroke="#555555" points="132.56,-143.18 138.88,-143.92 134.4,-139.41 132.56,-143.18"/>
</g>
<!-- math_h&#45;&gt;math_cond -->
<g id="edge7" class="edge">
<title>math_h&#45;&gt;math_cond</title>
<path fill="none" stroke="#555555" d="M49.11,-79.48C72.19,-68.06 109.16,-49.77 133.86,-37.56"/>
<polygon fill="#555555" stroke="#555555" points="134.67,-39.5 139.12,-34.95 132.81,-35.73 134.67,-39.5"/>
</g>
<!-- main_cc -->
<g id="node9" class="node">
<title>main_cc</title>
<polygon fill="#fff3cd" stroke="black" points="356.55,-189 302.55,-189 302.55,-168.84 356.55,-168.84 356.55,-189"/>
<text text-anchor="middle" x="329.55" y="-175.24" font-family="Helvetica,sans-Serif" font-size="9.00">cc main.o</text>
</g>
<!-- main_cond&#45;&gt;main_cc -->
<g id="edge9" class="edge">
<title>main_cond&#45;&gt;main_cc</title>
<path fill="none" stroke="#555555" stroke-dasharray="5,2" d="M194.03,-158.8C223.1,-163.15 265.49,-169.49 294.88,-173.88"/>
<polygon fill="#555555" stroke="#555555" points="294.31,-175.92 300.56,-174.73 294.94,-171.77 294.31,-175.92"/>
<text text-anchor="middle" x="255.17" y="-171.52" font-family="Helvetica,sans-Serif" font-size="8.00" fill="#555555">1 (rebuild)</text>
</g>
<!-- main_join -->
<g id="node12" class="node">
<title>main_join</title>
<polygon fill="#e8e8e8" stroke="black" points="469.55,-162.55 415.55,-162.55 415.55,-137.29 469.55,-137.29 469.55,-162.55"/>
<text text-anchor="middle" x="442.55" y="-151.12" font-family="Helvetica,sans-Serif" font-size="9.00">main.o</text>
<text text-anchor="middle" x="442.55" y="-141.37" font-family="Helvetica,sans-Serif" font-size="9.00">(join)</text>
</g>
<!-- main_cond&#45;&gt;main_join -->
<g id="edge8" class="edge">
<title>main_cond&#45;&gt;main_join</title>
<path fill="none" stroke="#555555" stroke-dasharray="5,2" d="M195.93,-149.53C234.92,-145.11 300.26,-139.28 356.55,-141.92 373.47,-142.71 392.23,-144.39 407.81,-146.01"/>
<polygon fill="#555555" stroke="#555555" points="407.48,-148.09 413.67,-146.63 407.93,-143.91 407.48,-148.09"/>
<text text-anchor="middle" x="329.55" y="-143.32" font-family="Helvetica,sans-Serif" font-size="8.00" fill="#555555">0 (skip)</text>
</g>
<!-- util_cc -->
<g id="node10" class="node">
<title>util_cc</title>
<polygon fill="#fff3cd" stroke="black" points="356.55,-329 302.55,-329 302.55,-308.84 356.55,-308.84 356.55,-329"/>
<text text-anchor="middle" x="329.55" y="-315.24" font-family="Helvetica,sans-Serif" font-size="9.00">cc util.o</text>
</g>
<!-- util_cond&#45;&gt;util_cc -->
<g id="edge11" class="edge">
<title>util_cond&#45;&gt;util_cc</title>
<path fill="none" stroke="#555555" stroke-dasharray="5,2" d="M182.23,-268.15C210.58,-277.99 261.63,-295.7 295.31,-307.39"/>
<polygon fill="#555555" stroke="#555555" points="294.43,-309.3 300.79,-309.29 295.81,-305.34 294.43,-309.3"/>
<text text-anchor="middle" x="255.17" y="-299.9" font-family="Helvetica,sans-Serif" font-size="8.00" fill="#555555">1 (rebuild)</text>
</g>
<!-- util_join -->
<g id="node13" class="node">
<title>util_join</title>
<polygon fill="#e8e8e8" stroke="black" points="469.55,-273.55 415.55,-273.55 415.55,-248.29 469.55,-248.29 469.55,-273.55"/>
<text text-anchor="middle" x="442.55" y="-262.12" font-family="Helvetica,sans-Serif" font-size="9.00">util.o</text>
<text text-anchor="middle" x="442.55" y="-252.37" font-family="Helvetica,sans-Serif" font-size="9.00">(join)</text>
</g>
<!-- util_cond&#45;&gt;util_join -->
<g id="edge10" class="edge">
<title>util_cond&#45;&gt;util_join</title>
<path fill="none" stroke="#555555" stroke-dasharray="5,2" d="M200.65,-260.92C255.91,-260.92 355.7,-260.92 407.81,-260.92"/>
<polygon fill="#555555" stroke="#555555" points="407.62,-263.02 413.62,-260.92 407.62,-258.82 407.62,-263.02"/>
<text text-anchor="middle" x="329.55" y="-262.32" font-family="Helvetica,sans-Serif" font-size="8.00" fill="#555555">0 (skip)</text>
</g>
<!-- math_cc -->
<g id="node11" class="node">
<title>math_cc</title>
<polygon fill="#fff3cd" stroke="black" points="356.55,-52 302.55,-52 302.55,-31.84 356.55,-31.84 356.55,-52"/>
<text text-anchor="middle" x="329.55" y="-38.24" font-family="Helvetica,sans-Serif" font-size="9.00">cc math.o</text>
</g>
<!-- math_cond&#45;&gt;math_cc -->
<g id="edge13" class="edge">
<title>math_cond&#45;&gt;math_cc</title>
<path fill="none" stroke="#555555" stroke-dasharray="5,2" d="M197.67,-28.61C226.58,-31.55 266.75,-35.63 294.94,-38.5"/>
<polygon fill="#555555" stroke="#555555" points="294.5,-40.57 300.69,-39.09 294.93,-36.39 294.5,-40.57"/>
<text text-anchor="middle" x="255.17" y="-37.34" font-family="Helvetica,sans-Serif" font-size="8.00" fill="#555555">1 (rebuild)</text>
</g>
<!-- math_join -->
<g id="node14" class="node">
<title>math_join</title>
<polygon fill="#e8e8e8" stroke="black" points="469.55,-54.55 415.55,-54.55 415.55,-29.29 469.55,-29.29 469.55,-54.55"/>
<text text-anchor="middle" x="442.55" y="-43.12" font-family="Helvetica,sans-Serif" font-size="9.00">math.o</text>
<text text-anchor="middle" x="442.55" y="-33.37" font-family="Helvetica,sans-Serif" font-size="9.00">(join)</text>
</g>
<!-- math_cond&#45;&gt;math_join -->
<g id="edge12" class="edge">
<title>math_cond&#45;&gt;math_join</title>
<path fill="none" stroke="#555555" stroke-dasharray="5,2" d="M186.3,-17.54C223.63,-7.55 296.2,7.65 356.55,-4.92 375.85,-8.94 396.14,-17.58 412.06,-25.51"/>
<polygon fill="#555555" stroke="#555555" points="410.95,-27.3 417.25,-28.15 412.86,-23.56 410.95,-27.3"/>
<text text-anchor="middle" x="329.55" y="-6.32" font-family="Helvetica,sans-Serif" font-size="8.00" fill="#555555">0 (skip)</text>
</g>
<!-- main_cc&#45;&gt;main_join -->
<g id="edge14" class="edge">
<title>main_cc&#45;&gt;main_join</title>
<path fill="none" stroke="#555555" d="M356.86,-172.05C372.34,-168 392.06,-162.85 408.57,-158.53"/>
<polygon fill="#555555" stroke="#555555" points="408.69,-160.67 413.97,-157.13 407.63,-156.61 408.69,-160.67"/>
</g>
<!-- util_cc&#45;&gt;util_join -->
<g id="edge15" class="edge">
<title>util_cc&#45;&gt;util_join</title>
<path fill="none" stroke="#555555" d="M350.65,-308.42C367.27,-299.73 391.14,-287.26 410.26,-277.27"/>
<polygon fill="#555555" stroke="#555555" points="410.85,-279.33 415.2,-274.69 408.91,-275.61 410.85,-279.33"/>
</g>
<!-- math_cc&#45;&gt;math_join -->
<g id="edge16" class="edge">
<title>math_cc&#45;&gt;math_join</title>
<path fill="none" stroke="#555555" d="M356.86,-41.92C372.2,-41.92 391.71,-41.92 408.13,-41.92"/>
<polygon fill="#555555" stroke="#555555" points="407.92,-44.02 413.92,-41.92 407.92,-39.82 407.92,-44.02"/>
</g>
<!-- app -->
<g id="node15" class="node">
<title>app</title>
<polygon fill="#d4edda" stroke="black" stroke-width="2" points="582.55,-160 528.55,-160 528.55,-139.84 582.55,-139.84 582.55,-160"/>
<text text-anchor="middle" x="555.55" y="-146.24" font-family="Helvetica,sans-Serif" font-size="9.00">app</text>
</g>
<!-- main_join&#45;&gt;app -->
<g id="edge17" class="edge">
<title>main_join&#45;&gt;app</title>
<path fill="none" stroke="#555555" d="M469.86,-149.92C484.98,-149.92 504.14,-149.92 520.41,-149.92"/>
<polygon fill="#555555" stroke="#555555" points="520.15,-152.02 526.15,-149.92 520.15,-147.82 520.15,-152.02"/>
</g>
<!-- util_join&#45;&gt;app -->
<g id="edge18" class="edge">
<title>util_join&#45;&gt;app</title>
<path fill="none" stroke="#555555" d="M456.28,-248.19C476.55,-227.92 516.11,-188.36 538.36,-166.11"/>
<polygon fill="#555555" stroke="#555555" points="539.79,-167.65 542.55,-161.92 536.82,-164.68 539.79,-167.65"/>
</g>
<!-- math_join&#45;&gt;app -->
<g id="edge19" class="edge">
<title>math_join&#45;&gt;app</title>
<path fill="none" stroke="#555555" d="M456.72,-54.73C477.05,-74.51 516.03,-112.44 538.16,-133.97"/>
<polygon fill="#555555" stroke="#555555" points="536.55,-135.33 542.31,-138.01 539.48,-132.32 536.55,-135.33"/>
</g>
</g>
</svg>
