<?xml version="1.0" encoding="UTF-8" standalone="no"?>
<!DOCTYPE svg PUBLIC "-//W3C//DTD SVG 1.1//EN"
 "http://www.w3.org/Graphics/SVG/1.1/DTD/svg11.dtd">
<!-- Generated by graphviz version 12.2.1 (20241206.2353)
 -->
<!-- Title: UnboundedWSQ Pages: 1 -->
<svg width="448pt" height="327pt"
 viewBox="0.00 0.00 447.95 327.36" xmlns="http://www.w3.org/2000/svg" xmlns:xlink="http://www.w3.org/1999/xlink">
<g id="graph0" class="graph" transform="scale(1 1) rotate(0) translate(4 323.36)">
<title>UnboundedWSQ</title>
<polygon fill="white" stroke="none" points="-4,4 -4,-323.36 443.95,-323.36 443.95,4 -4,4"/>
<!-- Owner -->
<g id="node1" class="node">
<title>Owner</title>
<polygon fill="none" stroke="black" points="178.19,-319.36 71.44,-319.36 71.44,-279.86 178.19,-279.86 178.19,-319.36"/>
<text text-anchor="middle" x="124.82" y="-302.06" font-family="Arial" font-size="14.00"> Owner Thread</text>
<text text-anchor="middle" x="124.82" y="-286.31" font-family="Arial" font-size="14.00">(single) </text>
</g>
<!-- Push -->
<g id="node4" class="node">
<title>Push</title>
<ellipse fill="none" stroke="black" cx="63.82" cy="-214.93" rx="63.82" ry="27.93"/>
<text text-anchor="middle" x="63.82" y="-217.38" font-family="Arial" font-size="14.00"> push()</text>
<text text-anchor="middle" x="63.82" y="-201.63" font-family="Arial" font-size="14.00">bulk_push() </text>
</g>
<!-- Owner&#45;&gt;Push -->
<g id="edge1" class="edge">
<title>Owner&#45;&gt;Push</title>
<path fill="none" stroke="black" d="M110.67,-279.43C104.43,-270.98 96.89,-260.76 89.7,-251.02"/>
<polygon fill="black" stroke="black" points="92.62,-249.08 83.87,-243.11 86.99,-253.24 92.62,-249.08"/>
</g>
<!-- Pop -->
<g id="node5" class="node">
<title>Pop</title>
<ellipse fill="none" stroke="black" cx="182.82" cy="-214.93" rx="36.59" ry="18"/>
<text text-anchor="middle" x="182.82" y="-209.51" font-family="Arial" font-size="14.00"> pop() </text>
</g>
<!-- Owner&#45;&gt;Pop -->
<g id="edge2" class="edge">
<title>Owner&#45;&gt;Pop</title>
<path fill="none" stroke="black" d="M138.27,-279.43C146.14,-268.22 156.17,-253.91 164.73,-241.72"/>
<polygon fill="black" stroke="black" points="167.45,-243.92 170.33,-233.73 161.72,-239.9 167.45,-243.92"/>
</g>
<!-- Thieves -->
<g id="node2" class="node">
<title>Thieves</title>
<polygon fill="none" stroke="black" points="391.32,-319.36 288.32,-319.36 288.32,-279.86 391.32,-279.86 391.32,-319.36"/>
<text text-anchor="middle" x="339.82" y="-302.06" font-family="Arial" font-size="14.00"> Thief Threads</text>
<text text-anchor="middle" x="339.82" y="-286.31" font-family="Arial" font-size="14.00">(multiple) </text>
</g>
<!-- Steal -->
<g id="node6" class="node">
<title>Steal</title>
<ellipse fill="none" stroke="black" cx="339.82" cy="-214.93" rx="40.58" ry="18"/>
<text text-anchor="middle" x="339.82" y="-209.51" font-family="Arial" font-size="14.00"> steal() </text>
</g>
<!-- Thieves&#45;&gt;Steal -->
<g id="edge5" class="edge">
<title>Thieves&#45;&gt;Steal</title>
<path fill="none" stroke="black" d="M339.82,-279.43C339.82,-269.1 339.82,-256.13 339.82,-244.62"/>
<polygon fill="black" stroke="black" points="343.32,-244.83 339.82,-234.83 336.32,-244.83 343.32,-244.83"/>
</g>
<!-- Queue -->
<g id="node3" class="node">
<title>Queue</title>
<polygon fill="none" stroke="black" points="118.57,-0.5 118.57,-119 253.07,-119 253.07,-0.5 118.57,-0.5"/>
<text text-anchor="middle" x="185.82" y="-101.7" font-family="Arial" font-size="14.00">Head (Top)</text>
<text text-anchor="middle" x="185.82" y="-85.95" font-family="Arial" font-size="14.00">steal index</text>
<polyline fill="none" stroke="black" points="118.57,-79.5 253.07,-79.5"/>
<text text-anchor="middle" x="185.82" y="-62.2" font-family="Arial" font-size="14.00">Dynamic Buffer</text>
<text text-anchor="middle" x="185.82" y="-46.45" font-family="Arial" font-size="14.00">(resizes as needed)</text>
<polyline fill="none" stroke="black" points="118.57,-40 253.07,-40"/>
<text text-anchor="middle" x="185.82" y="-22.7" font-family="Arial" font-size="14.00">Tail (Bottom)</text>
<text text-anchor="middle" x="185.82" y="-6.95" font-family="Arial" font-size="14.00">push / pop index</text>
</g>
<!-- Push&#45;&gt;Queue -->
<g id="edge3" class="edge">
<title>Push&#45;&gt;Queue:tail</title>
<path fill="none" stroke="black" d="M59.97,-186.59C54.33,-136.33 49.89,-33.28 106.31,-21.38"/>
<polygon fill="black" stroke="black" points="106.46,-24.88 116.06,-20.4 105.76,-17.92 106.46,-24.88"/>
<text text-anchor="middle" x="108.77" y="-155.7" font-family="Arial" font-size="14.00"> insert at bottom</text>
<text text-anchor="middle" x="108.77" y="-139.95" font-family="Arial" font-size="14.00">(grow if needed) </text>
</g>
<!-- Pop&#45;&gt;Queue -->
<g id="edge4" class="edge">
<title>Pop&#45;&gt;Queue:tail</title>
<path fill="none" stroke="black" d="M178.59,-196.72C175.51,-179.75 173.92,-154.02 187.32,-137.5 206.4,-113.96 234.57,-143.49 253.07,-119.5 277.37,-87.98 294.55,-32.53 265.26,-22"/>
<polygon fill="black" stroke="black" points="265.98,-18.57 255.56,-20.48 264.9,-25.49 265.98,-18.57"/>
<text text-anchor="middle" x="252.57" y="-147.82" font-family="Arial" font-size="14.00"> remove from bottom </text>
</g>
<!-- Steal&#45;&gt;Queue -->
<g id="edge6" class="edge">
<title>Steal&#45;&gt;Queue:head</title>
<path fill="none" stroke="black" d="M338.46,-196.51C336.38,-179.86 331.11,-154.8 317.82,-137.5 300.2,-114.58 289.9,-102.48 265.47,-99.82"/>
<polygon fill="black" stroke="black" points="265.74,-96.33 255.58,-99.33 265.39,-103.32 265.74,-96.33"/>
<text text-anchor="middle" x="386.32" y="-147.82" font-family="Arial" font-size="14.00"> remove from top </text>
</g>
</g>
</svg>
