<?xml version="1.0" encoding="UTF-8" standalone="no"?>
<!DOCTYPE svg PUBLIC "-//W3C//DTD SVG 1.1//EN"
 "http://www.w3.org/Graphics/SVG/1.1/DTD/svg11.dtd">
<!-- Generated by graphviz version 12.2.1 (20241206.2353)
 -->
<!-- Title: Taskflow Pages: 1 -->
<svg width="978pt" height="152pt"
 viewBox="0.00 0.00 977.65 152.00" xmlns="http://www.w3.org/2000/svg" xmlns:xlink="http://www.w3.org/1999/xlink">
<g id="graph0" class="graph" transform="scale(1 1) rotate(0) translate(4 148)">
<title>Taskflow</title>
<polygon fill="white" stroke="none" points="-4,4 -4,-148 973.65,-148 973.65,4 -4,4"/>
<!-- p0x7fc231700030 -->
<g id="node1" class="node">
<title>p0x7fc231700030</title>
<ellipse fill="none" stroke="black" cx="27" cy="-99" rx="27" ry="18"/>
<text text-anchor="middle" x="27" y="-93.95" font-family="Times,serif" font-size="14.00">init</text>
</g>
<!-- p0x7fc231700140 -->
<g id="node2" class="node">
<title>p0x7fc231700140</title>
<polygon fill="aquamarine" stroke="black" points="205.6,-117 91,-99 205.6,-81 320.21,-99 205.6,-117"/>
<text text-anchor="middle" x="205.6" y="-93.95" font-family="Times,serif" font-size="14.00">cond1 (i&gt;1 ? 1 : 0)</text>
</g>
<!-- p0x7fc231700030&#45;&gt;p0x7fc231700140 -->
<g id="edge1" class="edge">
<title>p0x7fc231700030&#45;&gt;p0x7fc231700140</title>
<path fill="none" stroke="black" d="M54.44,-99C61.05,-99 68.6,-99 76.71,-99"/>
<polygon fill="black" stroke="black" points="76.56,-102.5 86.56,-99 76.56,-95.5 76.56,-102.5"/>
</g>
<!-- p0x7fc231700470 -->
<g id="node3" class="node">
<title>p0x7fc231700470</title>
<ellipse fill="none" stroke="black" cx="477.56" cy="-126" rx="31.39" ry="18"/>
<text text-anchor="middle" x="477.56" y="-120.95" font-family="Times,serif" font-size="14.00">equl1</text>
</g>
<!-- p0x7fc231700140&#45;&gt;p0x7fc231700470 -->
<g id="edge2" class="edge">
<title>p0x7fc231700140&#45;&gt;p0x7fc231700470</title>
<path fill="none" stroke="black" stroke-dasharray="5,2" d="M277.88,-106.13C327.89,-111.13 393.04,-117.65 434.84,-121.83"/>
<polygon fill="black" stroke="black" points="434.44,-125.3 444.74,-122.82 435.13,-118.34 434.44,-125.3"/>
<text text-anchor="middle" x="341.58" y="-115.7" font-family="Times,serif" font-size="14.00">0</text>
</g>
<!-- p0x7fc231700250 -->
<g id="node4" class="node">
<title>p0x7fc231700250</title>
<polygon fill="aquamarine" stroke="black" points="477.56,-90 362.96,-72 477.56,-54 592.16,-72 477.56,-90"/>
<text text-anchor="middle" x="477.56" y="-66.95" font-family="Times,serif" font-size="14.00">cond2 (i&gt;2 ? 1 : 0)</text>
</g>
<!-- p0x7fc231700140&#45;&gt;p0x7fc231700250 -->
<g id="edge3" class="edge">
<title>p0x7fc231700140&#45;&gt;p0x7fc231700250</title>
<path fill="none" stroke="black" stroke-dasharray="5,2" d="M277.88,-91.87C313.56,-88.3 356.94,-83.96 394.05,-80.25"/>
<polygon fill="black" stroke="black" points="394.24,-83.75 403.84,-79.27 393.54,-76.79 394.24,-83.75"/>
<text text-anchor="middle" x="341.58" y="-88.7" font-family="Times,serif" font-size="14.00">1</text>
</g>
<!-- p0x7fc231700580 -->
<g id="node5" class="node">
<title>p0x7fc231700580</title>
<ellipse fill="none" stroke="black" cx="749.51" cy="-99" rx="31.39" ry="18"/>
<text text-anchor="middle" x="749.51" y="-93.95" font-family="Times,serif" font-size="14.00">equl2</text>
</g>
<!-- p0x7fc231700250&#45;&gt;p0x7fc231700580 -->
<g id="edge4" class="edge">
<title>p0x7fc231700250&#45;&gt;p0x7fc231700580</title>
<path fill="none" stroke="black" stroke-dasharray="5,2" d="M549.84,-79.13C599.85,-84.13 665,-90.65 706.8,-94.83"/>
<polygon fill="black" stroke="black" points="706.39,-98.3 716.69,-95.82 707.09,-91.34 706.39,-98.3"/>
<text text-anchor="middle" x="613.54" y="-88.7" font-family="Times,serif" font-size="14.00">0</text>
</g>
<!-- p0x7fc231700360 -->
<g id="node6" class="node">
<title>p0x7fc231700360</title>
<polygon fill="aquamarine" stroke="black" points="749.51,-63 634.91,-45 749.51,-27 864.12,-45 749.51,-63"/>
<text text-anchor="middle" x="749.51" y="-39.95" font-family="Times,serif" font-size="14.00">cond3 (i&gt;3 ? 1 : 0)</text>
</g>
<!-- p0x7fc231700250&#45;&gt;p0x7fc231700360 -->
<g id="edge5" class="edge">
<title>p0x7fc231700250&#45;&gt;p0x7fc231700360</title>
<path fill="none" stroke="black" stroke-dasharray="5,2" d="M549.84,-64.87C585.51,-61.3 628.89,-56.96 666,-53.25"/>
<polygon fill="black" stroke="black" points="666.19,-56.75 675.8,-52.27 665.5,-49.79 666.19,-56.75"/>
<text text-anchor="middle" x="613.54" y="-61.7" font-family="Times,serif" font-size="14.00">1</text>
</g>
<!-- p0x7fc231700690 -->
<g id="node7" class="node">
<title>p0x7fc231700690</title>
<ellipse fill="none" stroke="black" cx="938.26" cy="-72" rx="31.39" ry="18"/>
<text text-anchor="middle" x="938.26" y="-66.95" font-family="Times,serif" font-size="14.00">equl3</text>
</g>
<!-- p0x7fc231700360&#45;&gt;p0x7fc231700690 -->
<g id="edge6" class="edge">
<title>p0x7fc231700360&#45;&gt;p0x7fc231700690</title>
<path fill="none" stroke="black" stroke-dasharray="5,2" d="M811.14,-53.77C839,-57.79 871.31,-62.47 896.25,-66.07"/>
<polygon fill="black" stroke="black" points="895.61,-69.51 906,-67.48 896.61,-62.59 895.61,-69.51"/>
<text text-anchor="middle" x="885.49" y="-67.96" font-family="Times,serif" font-size="14.00">0</text>
</g>
<!-- p0x7fc2317007a0 -->
<g id="node8" class="node">
<title>p0x7fc2317007a0</title>
<ellipse fill="none" stroke="black" cx="938.26" cy="-18" rx="28.83" ry="18"/>
<text text-anchor="middle" x="938.26" y="-12.95" font-family="Times,serif" font-size="14.00">grtr3</text>
</g>
<!-- p0x7fc231700360&#45;&gt;p0x7fc2317007a0 -->
<g id="edge7" class="edge">
<title>p0x7fc231700360&#45;&gt;p0x7fc2317007a0</title>
<path fill="none" stroke="black" stroke-dasharray="5,2" d="M811.14,-36.23C839.83,-32.09 873.23,-27.26 898.46,-23.61"/>
<polygon fill="black" stroke="black" points="898.88,-27.09 908.27,-22.19 897.88,-20.16 898.88,-27.09"/>
<text text-anchor="middle" x="885.49" y="-28.44" font-family="Times,serif" font-size="14.00">1</text>
</g>
</g>
</svg>
