<?xml version="1.0" encoding="UTF-8" standalone="no"?>
<!DOCTYPE svg PUBLIC "-//W3C//DTD SVG 1.1//EN"
 "http://www.w3.org/Graphics/SVG/1.1/DTD/svg11.dtd">
<!-- Generated by graphviz version 12.2.1 (20241206.2353)
 -->
<!-- Title: ParallelReduction Pages: 1 -->
<svg width="598pt" height="342pt"
 viewBox="0.00 0.00 598.00 342.00" xmlns="http://www.w3.org/2000/svg" xmlns:xlink="http://www.w3.org/1999/xlink">
<g id="graph0" class="graph" transform="scale(1 1) rotate(0) translate(4 338)">
<title>ParallelReduction</title>
<polygon fill="white" stroke="none" points="-4,4 -4,-338 594,-338 594,4 -4,4"/>
<g id="clust1" class="cluster">
<title>cluster_input</title>
</g>
<g id="clust2" class="cluster">
<title>cluster_l1</title>
</g>
<g id="clust3" class="cluster">
<title>cluster_l2</title>
</g>
<g id="clust4" class="cluster">
<title>cluster_l3</title>
</g>
<!-- e1 -->
<g id="node1" class="node">
<title>e1</title>
<polygon fill="#cce5ff" stroke="black" points="70,-296.5 16,-296.5 16,-260.5 70,-260.5 70,-296.5"/>
<text text-anchor="middle" x="43" y="-274.8" font-family="Courier New" font-size="11.00">1</text>
</g>
<!-- l1a -->
<g id="node9" class="node">
<title>l1a</title>
<polygon fill="#d4edda" stroke="black" points="213,-215 159,-215 159,-179 213,-179 213,-215"/>
<text text-anchor="middle" x="186" y="-193.3" font-family="Courier New" font-size="11.00">1+2=3</text>
</g>
<!-- e1&#45;&gt;l1a -->
<g id="edge1" class="edge">
<title>e1&#45;&gt;l1a</title>
<path fill="none" stroke="black" d="M67.1,-260.1C71.02,-257.46 75.08,-254.84 79,-252.5 102.42,-238.49 129.87,-224.56 151.11,-214.28"/>
<polygon fill="black" stroke="black" points="152.01,-216.57 157.26,-211.33 149.89,-212.15 152.01,-216.57"/>
</g>
<!-- e2 -->
<g id="node2" class="node">
<title>e2</title>
<polygon fill="#cce5ff" stroke="black" points="142,-296.5 88,-296.5 88,-260.5 142,-260.5 142,-296.5"/>
<text text-anchor="middle" x="115" y="-274.8" font-family="Courier New" font-size="11.00">2</text>
</g>
<!-- e2&#45;&gt;l1a -->
<g id="edge2" class="edge">
<title>e2&#45;&gt;l1a</title>
<path fill="none" stroke="black" d="M130.41,-260.25C140.48,-248.97 153.77,-234.09 164.83,-221.71"/>
<polygon fill="black" stroke="black" points="166.54,-223.47 169.37,-216.62 162.88,-220.21 166.54,-223.47"/>
</g>
<!-- e3 -->
<g id="node3" class="node">
<title>e3</title>
<polygon fill="#cce5ff" stroke="black" points="214,-296.5 160,-296.5 160,-260.5 214,-260.5 214,-296.5"/>
<text text-anchor="middle" x="187" y="-274.8" font-family="Courier New" font-size="11.00">3</text>
</g>
<!-- l1b -->
<g id="node10" class="node">
<title>l1b</title>
<polygon fill="#d4edda" stroke="black" points="285,-215 231,-215 231,-179 285,-179 285,-215"/>
<text text-anchor="middle" x="258" y="-193.3" font-family="Courier New" font-size="11.00">3+4=7</text>
</g>
<!-- e3&#45;&gt;l1b -->
<g id="edge3" class="edge">
<title>e3&#45;&gt;l1b</title>
<path fill="none" stroke="black" d="M206.42,-260.21C211.64,-255.29 217.17,-249.82 222,-244.5 228.41,-237.44 234.93,-229.34 240.63,-221.9"/>
<polygon fill="black" stroke="black" points="242.44,-223.57 244.7,-216.51 238.53,-220.62 242.44,-223.57"/>
</g>
<!-- e4 -->
<g id="node4" class="node">
<title>e4</title>
<polygon fill="#cce5ff" stroke="black" points="286,-296.5 232,-296.5 232,-260.5 286,-260.5 286,-296.5"/>
<text text-anchor="middle" x="259" y="-274.8" font-family="Courier New" font-size="11.00">4</text>
</g>
<!-- e4&#45;&gt;l1b -->
<g id="edge4" class="edge">
<title>e4&#45;&gt;l1b</title>
<path fill="none" stroke="black" d="M258.78,-260.25C258.65,-249.59 258.47,-235.72 258.32,-223.77"/>
<polygon fill="black" stroke="black" points="260.78,-223.97 258.24,-217 255.88,-224.03 260.78,-223.97"/>
</g>
<!-- e5 -->
<g id="node5" class="node">
<title>e5</title>
<polygon fill="#cce5ff" stroke="black" points="358,-296.5 304,-296.5 304,-260.5 358,-260.5 358,-296.5"/>
<text text-anchor="middle" x="331" y="-274.8" font-family="Courier New" font-size="11.00">5</text>
</g>
<!-- l1c -->
<g id="node11" class="node">
<title>l1c</title>
<polygon fill="#d4edda" stroke="black" points="359.25,-215 302.75,-215 302.75,-179 359.25,-179 359.25,-215"/>
<text text-anchor="middle" x="331" y="-193.3" font-family="Courier New" font-size="11.00">5+6=11</text>
</g>
<!-- e5&#45;&gt;l1c -->
<g id="edge5" class="edge">
<title>e5&#45;&gt;l1c</title>
<path fill="none" stroke="black" d="M331,-260.25C331,-249.59 331,-235.72 331,-223.77"/>
<polygon fill="black" stroke="black" points="333.45,-224 331,-217 328.55,-224 333.45,-224"/>
</g>
<!-- e6 -->
<g id="node6" class="node">
<title>e6</title>
<polygon fill="#cce5ff" stroke="black" points="430,-296.5 376,-296.5 376,-260.5 430,-260.5 430,-296.5"/>
<text text-anchor="middle" x="403" y="-274.8" font-family="Courier New" font-size="11.00">6</text>
</g>
<!-- e6&#45;&gt;l1c -->
<g id="edge6" class="edge">
<title>e6&#45;&gt;l1c</title>
<path fill="none" stroke="black" d="M384.26,-260.06C379.19,-255.15 373.78,-249.71 369,-244.5 362.41,-237.33 355.58,-229.2 349.54,-221.76"/>
<polygon fill="black" stroke="black" points="351.5,-220.29 345.21,-216.36 347.68,-223.36 351.5,-220.29"/>
</g>
<!-- e7 -->
<g id="node7" class="node">
<title>e7</title>
<polygon fill="#cce5ff" stroke="black" points="502,-296.5 448,-296.5 448,-260.5 502,-260.5 502,-296.5"/>
<text text-anchor="middle" x="475" y="-274.8" font-family="Courier New" font-size="11.00">7</text>
</g>
<!-- l1d -->
<g id="node12" class="node">
<title>l1d</title>
<polygon fill="#d4edda" stroke="black" points="434.25,-215 377.75,-215 377.75,-179 434.25,-179 434.25,-215"/>
<text text-anchor="middle" x="406" y="-193.3" font-family="Courier New" font-size="11.00">7+8=15</text>
</g>
<!-- e7&#45;&gt;l1d -->
<g id="edge7" class="edge">
<title>e7&#45;&gt;l1d</title>
<path fill="none" stroke="black" d="M460.03,-260.25C450.24,-248.97 437.32,-234.09 426.58,-221.71"/>
<polygon fill="black" stroke="black" points="428.61,-220.31 422.17,-216.63 424.91,-223.53 428.61,-220.31"/>
</g>
<!-- e8 -->
<g id="node8" class="node">
<title>e8</title>
<polygon fill="#cce5ff" stroke="black" points="574,-296.5 520,-296.5 520,-260.5 574,-260.5 574,-296.5"/>
<text text-anchor="middle" x="547" y="-274.8" font-family="Courier New" font-size="11.00">8</text>
</g>
<!-- e8&#45;&gt;l1d -->
<g id="edge8" class="edge">
<title>e8&#45;&gt;l1d</title>
<path fill="none" stroke="black" d="M522.88,-260.12C518.96,-257.48 514.91,-254.86 511,-252.5 488.7,-239.05 462.73,-225.55 442.2,-215.35"/>
<polygon fill="black" stroke="black" points="443.33,-213.18 435.97,-212.28 441.17,-217.58 443.33,-213.18"/>
</g>
<!-- l2a -->
<g id="node13" class="node">
<title>l2a</title>
<polygon fill="#fff3cd" stroke="black" points="282.25,-133.5 225.75,-133.5 225.75,-97.5 282.25,-97.5 282.25,-133.5"/>
<text text-anchor="middle" x="254" y="-111.8" font-family="Courier New" font-size="11.00">3+7=10</text>
</g>
<!-- l1a&#45;&gt;l2a -->
<g id="edge9" class="edge">
<title>l1a&#45;&gt;l2a</title>
<path fill="none" stroke="black" d="M200.75,-178.75C210.4,-167.47 223.13,-152.59 233.72,-140.21"/>
<polygon fill="black" stroke="black" points="235.37,-142.05 238.06,-135.14 231.64,-138.87 235.37,-142.05"/>
</g>
<!-- l1b&#45;&gt;l2a -->
<g id="edge10" class="edge">
<title>l1b&#45;&gt;l2a</title>
<path fill="none" stroke="black" d="M257.13,-178.75C256.6,-168.09 255.9,-154.22 255.3,-142.27"/>
<polygon fill="black" stroke="black" points="257.75,-142.37 254.96,-135.5 252.86,-142.62 257.75,-142.37"/>
</g>
<!-- l2b -->
<g id="node14" class="node">
<title>l2b</title>
<polygon fill="#fff3cd" stroke="black" points="370,-133.5 300,-133.5 300,-97.5 370,-97.5 370,-133.5"/>
<text text-anchor="middle" x="335" y="-111.8" font-family="Courier New" font-size="11.00">11+15=26</text>
</g>
<!-- l1c&#45;&gt;l2b -->
<g id="edge11" class="edge">
<title>l1c&#45;&gt;l2b</title>
<path fill="none" stroke="black" d="M331.87,-178.75C332.4,-168.09 333.1,-154.22 333.7,-142.27"/>
<polygon fill="black" stroke="black" points="336.14,-142.62 334.04,-135.5 331.25,-142.37 336.14,-142.62"/>
</g>
<!-- l1d&#45;&gt;l2b -->
<g id="edge12" class="edge">
<title>l1d&#45;&gt;l2b</title>
<path fill="none" stroke="black" d="M390.59,-178.75C380.52,-167.47 367.23,-152.59 356.17,-140.21"/>
<polygon fill="black" stroke="black" points="358.12,-138.71 351.63,-135.12 354.46,-141.97 358.12,-138.71"/>
</g>
<!-- l3 -->
<g id="node15" class="node">
<title>l3</title>
<polygon fill="#f8d7da" stroke="black" stroke-width="2" points="329,-52 259,-52 259,-16 329,-16 329,-52"/>
<text text-anchor="middle" x="294" y="-30.3" font-family="Courier New" font-size="11.00">10+26=36</text>
</g>
<!-- l2a&#45;&gt;l3 -->
<g id="edge13" class="edge">
<title>l2a&#45;&gt;l3</title>
<path fill="none" stroke="black" d="M262.68,-97.25C268.15,-86.39 275.29,-72.18 281.38,-60.08"/>
<polygon fill="black" stroke="black" points="283.56,-61.2 284.52,-53.84 279.18,-59 283.56,-61.2"/>
</g>
<!-- l2b&#45;&gt;l3 -->
<g id="edge14" class="edge">
<title>l2b&#45;&gt;l3</title>
<path fill="none" stroke="black" d="M326.1,-97.25C320.45,-86.28 313.03,-71.91 306.76,-59.74"/>
<polygon fill="black" stroke="black" points="309.1,-58.93 303.71,-53.84 304.75,-61.18 309.1,-58.93"/>
</g>
</g>
</svg>
