<?xml version="1.0" encoding="UTF-8" standalone="no"?>
<!DOCTYPE svg PUBLIC "-//W3C//DTD SVG 1.1//EN"
 "http://www.w3.org/Graphics/SVG/1.1/DTD/svg11.dtd">
<!-- Generated by graphviz version 12.2.1 (20241206.2353)
 -->
<!-- Title: G Pages: 1 -->
<svg width="684pt" height="44pt"
 viewBox="0.00 0.00 683.94 44.00" xmlns="http://www.w3.org/2000/svg" xmlns:xlink="http://www.w3.org/1999/xlink">
<g id="graph0" class="graph" transform="scale(1 1) rotate(0) translate(4 40)">
<title>G</title>
<polygon fill="white" stroke="none" points="-4,4 -4,-40 679.94,-40 679.94,4 -4,4"/>
<!-- a -->
<g id="node1" class="node">
<title>a</title>
<ellipse fill="none" stroke="black" cx="38.04" cy="-18" rx="38.04" ry="18"/>
<text text-anchor="middle" x="38.04" y="-12.95" font-family="Times,serif" font-size="14.00">1/2 (H)</text>
</g>
<!-- b -->
<g id="node2" class="node">
<title>b</title>
<ellipse fill="none" stroke="black" cx="156.79" cy="-18" rx="44.7" ry="18"/>
<text text-anchor="middle" x="156.79" y="-12.95" font-family="Times,serif" font-size="14.00">1/4 (HH)</text>
</g>
<!-- a&#45;&gt;b -->
<g id="edge1" class="edge">
<title>a&#45;&gt;b</title>
<path fill="none" stroke="black" d="M76.3,-18C84.01,-18 92.29,-18 100.49,-18"/>
<polygon fill="black" stroke="black" points="100.44,-21.5 110.44,-18 100.44,-14.5 100.44,-21.5"/>
</g>
<!-- c -->
<g id="node3" class="node">
<title>c</title>
<ellipse fill="none" stroke="black" cx="288.84" cy="-18" rx="51.35" ry="18"/>
<text text-anchor="middle" x="288.84" y="-12.95" font-family="Times,serif" font-size="14.00">1/8 (HHH)</text>
</g>
<!-- b&#45;&gt;c -->
<g id="edge2" class="edge">
<title>b&#45;&gt;c</title>
<path fill="none" stroke="black" d="M201.82,-18C209.53,-18 217.68,-18 225.78,-18"/>
<polygon fill="black" stroke="black" points="225.61,-21.5 235.61,-18 225.61,-14.5 225.61,-21.5"/>
</g>
<!-- d -->
<g id="node4" class="node">
<title>d</title>
<ellipse fill="none" stroke="black" cx="438.8" cy="-18" rx="62.61" ry="18"/>
<text text-anchor="middle" x="438.8" y="-12.95" font-family="Times,serif" font-size="14.00">1/16 (HHHH)</text>
</g>
<!-- c&#45;&gt;d -->
<g id="edge3" class="edge">
<title>c&#45;&gt;d</title>
<path fill="none" stroke="black" d="M340.34,-18C348.08,-18 356.2,-18 364.32,-18"/>
<polygon fill="black" stroke="black" points="364.23,-21.5 374.23,-18 364.23,-14.5 364.23,-21.5"/>
</g>
<!-- e -->
<g id="node5" class="node">
<title>e</title>
<ellipse fill="none" stroke="black" cx="606.67" cy="-18" rx="69.26" ry="18"/>
<text text-anchor="middle" x="606.67" y="-12.95" font-family="Times,serif" font-size="14.00">1/32 (HHHHH)</text>
</g>
<!-- d&#45;&gt;e -->
<g id="edge4" class="edge">
<title>d&#45;&gt;e</title>
<path fill="none" stroke="black" d="M501.56,-18C509.45,-18 517.62,-18 525.74,-18"/>
<polygon fill="black" stroke="black" points="525.65,-21.5 535.65,-18 525.65,-14.5 525.65,-21.5"/>
</g>
</g>
</svg>
