<?xml version="1.0" encoding="UTF-8" standalone="no"?>
<!DOCTYPE svg PUBLIC "-//W3C//DTD SVG 1.1//EN"
 "http://www.w3.org/Graphics/SVG/1.1/DTD/svg11.dtd">
<!-- Generated by graphviz version 12.2.1 (20241206.2353)
 -->
<!-- Title: Taskflow Pages: 1 -->
<svg width="419pt" height="560pt"
 viewBox="0.00 0.00 419.35 559.50" xmlns="http://www.w3.org/2000/svg" xmlns:xlink="http://www.w3.org/1999/xlink">
<g id="graph0" class="graph" transform="scale(1 1) rotate(0) translate(4 555.5)">
<title>Taskflow</title>
<polygon fill="white" stroke="none" points="-4,4 -4,-555.5 415.35,-555.5 415.35,4 -4,4"/>
<!-- p0x7fca00803e30 -->
<g id="node1" class="node">
<title>p0x7fca00803e30</title>
<ellipse fill="none" stroke="black" cx="221.17" cy="-533.5" rx="27" ry="18"/>
<text text-anchor="middle" x="221.17" y="-528.45" font-family="Times,serif" font-size="14.00">init</text>
</g>
<!-- p0x7fca00803f50 -->
<g id="node2" class="node">
<title>p0x7fca00803f50</title>
<polygon fill="aquamarine" stroke="black" points="221.17,-478.5 150,-460.5 221.17,-442.5 292.35,-460.5 221.17,-478.5"/>
<text text-anchor="middle" x="221.17" y="-455.45" font-family="Times,serif" font-size="14.00">flip&#45;coin&#45;1</text>
</g>
<!-- p0x7fca00803e30&#45;&gt;p0x7fca00803f50 -->
<g id="edge1" class="edge">
<title>p0x7fca00803e30&#45;&gt;p0x7fca00803f50</title>
<path fill="none" stroke="black" d="M221.17,-515.31C221.17,-507.73 221.17,-498.6 221.17,-490.04"/>
<polygon fill="black" stroke="black" points="224.67,-490.04 221.17,-480.04 217.67,-490.04 224.67,-490.04"/>
</g>
<!-- p0x7fca00803f50&#45;&gt;p0x7fca00803f50 -->
<g id="edge3" class="edge">
<title>p0x7fca00803f50&#45;&gt;p0x7fca00803f50</title>
<path fill="none" stroke="black" stroke-dasharray="5,2" d="M280.77,-463.9C297.5,-463.76 310.35,-462.62 310.35,-460.5 310.35,-458.89 302.97,-457.85 292.12,-457.38"/>
<polygon fill="black" stroke="black" points="292.36,-453.88 282.28,-457.13 292.19,-460.88 292.36,-453.88"/>
<text text-anchor="middle" x="313.72" y="-455.45" font-family="Times,serif" font-size="14.00">1</text>
</g>
<!-- p0x7fca00803f50&#45;&gt;p0x7fca00803f50 -->
<g id="edge4" class="edge">
<title>p0x7fca00803f50&#45;&gt;p0x7fca00803f50</title>
<path fill="none" stroke="black" stroke-dasharray="5,2" d="M269.11,-466.83C299.38,-468.42 328.35,-466.31 328.35,-460.5 328.35,-455.42 306.17,-453.16 280.35,-453.75"/>
<polygon fill="black" stroke="black" points="280.49,-450.24 270.63,-454.11 280.75,-457.23 280.49,-450.24"/>
<text text-anchor="middle" x="331.72" y="-455.45" font-family="Times,serif" font-size="14.00">2</text>
</g>
<!-- p0x7fca00804070 -->
<g id="node3" class="node">
<title>p0x7fca00804070</title>
<polygon fill="aquamarine" stroke="black" points="71.17,-390 0,-372 71.17,-354 142.35,-372 71.17,-390"/>
<text text-anchor="middle" x="71.17" y="-366.95" font-family="Times,serif" font-size="14.00">flip&#45;coin&#45;2</text>
</g>
<!-- p0x7fca00803f50&#45;&gt;p0x7fca00804070 -->
<g id="edge2" class="edge">
<title>p0x7fca00803f50&#45;&gt;p0x7fca00804070</title>
<path fill="none" stroke="black" stroke-dasharray="5,2" d="M163.93,-456.56C138,-452.44 108.69,-443.48 88.42,-424.5 81.9,-418.38 77.84,-409.73 75.31,-401.25"/>
<polygon fill="black" stroke="black" points="78.73,-400.5 73.08,-391.54 71.91,-402.07 78.73,-400.5"/>
<text text-anchor="middle" x="91.8" y="-411.2" font-family="Times,serif" font-size="14.00">0</text>
</g>
<!-- p0x7fca00804070&#45;&gt;p0x7fca00803f50 -->
<g id="edge6" class="edge">
<title>p0x7fca00804070&#45;&gt;p0x7fca00803f50</title>
<path fill="none" stroke="black" stroke-dasharray="5,2" d="M82.99,-387.38C93,-398.78 108.28,-414.42 124.42,-424.5 140.09,-434.27 158.87,-441.86 175.71,-447.43"/>
<polygon fill="black" stroke="black" points="174.4,-450.69 184.99,-450.35 176.5,-444.01 174.4,-450.69"/>
<text text-anchor="middle" x="127.8" y="-411.2" font-family="Times,serif" font-size="14.00">1</text>
</g>
<!-- p0x7fca00804070&#45;&gt;p0x7fca00803f50 -->
<g id="edge7" class="edge">
<title>p0x7fca00804070&#45;&gt;p0x7fca00803f50</title>
<path fill="none" stroke="black" stroke-dasharray="5,2" d="M92.38,-385.14C103.91,-391.8 118.38,-400.25 131.17,-408 142.96,-415.14 145.55,-417.51 157.42,-424.5 167.52,-430.44 178.67,-436.67 188.79,-442.2"/>
<polygon fill="black" stroke="black" points="187.08,-445.25 197.54,-446.95 190.42,-439.1 187.08,-445.25"/>
<text text-anchor="middle" x="160.8" y="-411.2" font-family="Times,serif" font-size="14.00">2</text>
</g>
<!-- p0x7fca00804190 -->
<g id="node4" class="node">
<title>p0x7fca00804190</title>
<polygon fill="aquamarine" stroke="black" points="157.17,-301.5 86,-283.5 157.17,-265.5 228.35,-283.5 157.17,-301.5"/>
<text text-anchor="middle" x="157.17" y="-278.45" font-family="Times,serif" font-size="14.00">flip&#45;coin&#45;3</text>
</g>
<!-- p0x7fca00804070&#45;&gt;p0x7fca00804190 -->
<g id="edge5" class="edge">
<title>p0x7fca00804070&#45;&gt;p0x7fca00804190</title>
<path fill="none" stroke="black" stroke-dasharray="5,2" d="M84.99,-357.1C98.66,-343.36 119.77,-322.12 135.64,-306.16"/>
<polygon fill="black" stroke="black" points="137.76,-309 142.32,-299.44 132.79,-304.06 137.76,-309"/>
<text text-anchor="middle" x="125.25" y="-322.7" font-family="Times,serif" font-size="14.00">0</text>
</g>
<!-- p0x7fca00804190&#45;&gt;p0x7fca00803f50 -->
<g id="edge9" class="edge">
<title>p0x7fca00804190&#45;&gt;p0x7fca00803f50</title>
<path fill="none" stroke="black" stroke-dasharray="5,2" d="M162.2,-300.71C168.75,-321.53 180.74,-358.7 192.42,-390 197.83,-404.48 204.38,-420.42 209.86,-433.38"/>
<polygon fill="black" stroke="black" points="206.61,-434.68 213.76,-442.5 213.05,-431.93 206.61,-434.68"/>
<text text-anchor="middle" x="195.8" y="-366.95" font-family="Times,serif" font-size="14.00">1</text>
</g>
<!-- p0x7fca00804190&#45;&gt;p0x7fca00803f50 -->
<g id="edge10" class="edge">
<title>p0x7fca00804190&#45;&gt;p0x7fca00803f50</title>
<path fill="none" stroke="black" stroke-dasharray="5,2" d="M169.88,-298.46C175.07,-304.61 180.85,-312.12 185.17,-319.5 205.81,-354.71 214.75,-401.67 218.53,-431.25"/>
<polygon fill="black" stroke="black" points="215.03,-431.37 219.65,-440.91 221.98,-430.57 215.03,-431.37"/>
<text text-anchor="middle" x="214.33" y="-366.95" font-family="Times,serif" font-size="14.00">2</text>
</g>
<!-- p0x7fca008042b0 -->
<g id="node5" class="node">
<title>p0x7fca008042b0</title>
<polygon fill="aquamarine" stroke="black" points="241.17,-213 170,-195 241.17,-177 312.35,-195 241.17,-213"/>
<text text-anchor="middle" x="241.17" y="-189.95" font-family="Times,serif" font-size="14.00">flip&#45;coin&#45;4</text>
</g>
<!-- p0x7fca00804190&#45;&gt;p0x7fca008042b0 -->
<g id="edge8" class="edge">
<title>p0x7fca00804190&#45;&gt;p0x7fca008042b0</title>
<path fill="none" stroke="black" stroke-dasharray="5,2" d="M170.67,-268.6C183.9,-254.98 204.26,-234.01 219.71,-218.1"/>
<polygon fill="black" stroke="black" points="222.2,-220.56 226.66,-210.95 217.18,-215.68 222.2,-220.56"/>
<text text-anchor="middle" x="210.07" y="-234.2" font-family="Times,serif" font-size="14.00">0</text>
</g>
<!-- p0x7fca008042b0&#45;&gt;p0x7fca00803f50 -->
<g id="edge12" class="edge">
<title>p0x7fca008042b0&#45;&gt;p0x7fca00803f50</title>
<path fill="none" stroke="black" stroke-dasharray="5,2" d="M241.59,-213.32C242.23,-251.65 242.32,-346.4 230.17,-424.5 229.78,-427.02 229.29,-429.62 228.73,-432.21"/>
<polygon fill="black" stroke="black" points="225.37,-431.24 226.41,-441.78 232.17,-432.89 225.37,-431.24"/>
<text text-anchor="middle" x="243.31" y="-322.7" font-family="Times,serif" font-size="14.00">1</text>
</g>
<!-- p0x7fca008042b0&#45;&gt;p0x7fca00803f50 -->
<g id="edge13" class="edge">
<title>p0x7fca008042b0&#45;&gt;p0x7fca00803f50</title>
<path fill="none" stroke="black" stroke-dasharray="5,2" d="M249.3,-211.24C252.06,-217.23 254.79,-224.27 256.17,-231 270.39,-300.27 257.25,-319.64 250.17,-390 248.62,-405.42 250.81,-410.07 245.17,-424.5 243.64,-428.44 241.58,-432.37 239.32,-436.1"/>
<polygon fill="black" stroke="black" points="236.6,-433.86 233.91,-444.11 242.41,-437.78 236.6,-433.86"/>
<text text-anchor="middle" x="263.26" y="-322.7" font-family="Times,serif" font-size="14.00">2</text>
</g>
<!-- p0x7fca008043d0 -->
<g id="node6" class="node">
<title>p0x7fca008043d0</title>
<polygon fill="aquamarine" stroke="black" points="340.17,-124.5 269,-106.5 340.17,-88.5 411.35,-106.5 340.17,-124.5"/>
<text text-anchor="middle" x="340.17" y="-101.45" font-family="Times,serif" font-size="14.00">flip&#45;coin&#45;5</text>
</g>
<!-- p0x7fca008042b0&#45;&gt;p0x7fca008043d0 -->
<g id="edge11" class="edge">
<title>p0x7fca008042b0&#45;&gt;p0x7fca008043d0</title>
<path fill="none" stroke="black" stroke-dasharray="5,2" d="M256.64,-180.48C272.63,-166.52 297.78,-144.54 316.32,-128.34"/>
<polygon fill="black" stroke="black" points="318.45,-131.13 323.67,-121.92 313.84,-125.86 318.45,-131.13"/>
<text text-anchor="middle" x="302.92" y="-145.7" font-family="Times,serif" font-size="14.00">0</text>
</g>
<!-- p0x7fca008043d0&#45;&gt;p0x7fca00803f50 -->
<g id="edge15" class="edge">
<title>p0x7fca008043d0&#45;&gt;p0x7fca00803f50</title>
<path fill="none" stroke="black" stroke-dasharray="5,2" d="M340.17,-124.73C340.17,-142.19 340.17,-169.97 340.17,-194 340.17,-373 340.17,-373 340.17,-373 340.17,-411.26 299.43,-434.36 265.63,-446.94"/>
<polygon fill="black" stroke="black" points="264.68,-443.57 256.39,-450.17 266.98,-450.18 264.68,-443.57"/>
<text text-anchor="middle" x="343.55" y="-278.45" font-family="Times,serif" font-size="14.00">1</text>
</g>
<!-- p0x7fca008043d0&#45;&gt;p0x7fca00803f50 -->
<g id="edge16" class="edge">
<title>p0x7fca008043d0&#45;&gt;p0x7fca00803f50</title>
<path fill="none" stroke="black" stroke-dasharray="5,2" d="M352.38,-121.73C365.09,-138.05 383.17,-166.16 383.17,-194 383.17,-373 383.17,-373 383.17,-373 383.17,-421.16 326.78,-442.6 280.54,-452.09"/>
<polygon fill="black" stroke="black" points="280.01,-448.63 270.83,-453.92 281.3,-455.5 280.01,-448.63"/>
<text text-anchor="middle" x="386.55" y="-278.45" font-family="Times,serif" font-size="14.00">2</text>
</g>
<!-- p0x7fca008044f0 -->
<g id="node7" class="node">
<title>p0x7fca008044f0</title>
<ellipse fill="none" stroke="black" cx="340.17" cy="-18" rx="27" ry="18"/>
<text text-anchor="middle" x="340.17" y="-12.95" font-family="Times,serif" font-size="14.00">stop</text>
</g>
<!-- p0x7fca008043d0&#45;&gt;p0x7fca008044f0 -->
<g id="edge14" class="edge">
<title>p0x7fca008043d0&#45;&gt;p0x7fca008044f0</title>
<path fill="none" stroke="black" stroke-dasharray="5,2" d="M340.17,-88C340.17,-76.51 340.17,-61.2 340.17,-47.93"/>
<polygon fill="black" stroke="black" points="343.67,-47.99 340.17,-37.99 336.67,-47.99 343.67,-47.99"/>
<text text-anchor="middle" x="343.55" y="-57.2" font-family="Times,serif" font-size="14.00">0</text>
</g>
</g>
</svg>
