<?xml version="1.0" encoding="UTF-8" standalone="no"?>
<!DOCTYPE svg PUBLIC "-//W3C//DTD SVG 1.1//EN"
 "http://www.w3.org/Graphics/SVG/1.1/DTD/svg11.dtd">
<!-- Generated by graphviz version 2.43.0 (0)
 -->
<!-- Title: Taskflow Pages: 1 -->
<svg width="583pt" height="371pt"
 viewBox="0.00 0.00 583.44 371.00" xmlns="http://www.w3.org/2000/svg" xmlns:xlink="http://www.w3.org/1999/xlink">
<g id="graph0" class="graph" transform="scale(1 1) rotate(0) translate(4 367)">
<title>Taskflow</title>
<polygon fill="white" stroke="transparent" points="-4,4 -4,-367 579.44,-367 579.44,4 -4,4"/>
<g id="clust1" class="cluster">
<title>cluster_p0x5558af971240</title>
<polygon fill="none" stroke="purple" points="121.54,-64 121.54,-355 323.54,-355 323.54,-64 121.54,-64"/>
<text text-anchor="middle" x="222.54" y="-339.8" font-family="Times,serif" font-size="14.00">cudaFlow: cudaFlow</text>
</g>
<!-- p0x5558af970f10 -->
<g id="node1" class="node">
<title>p0x5558af970f10</title>
<ellipse fill="none" stroke="black" cx="56.54" cy="-162" rx="56.59" ry="18"/>
<text text-anchor="middle" x="56.54" y="-158.3" font-family="Times,serif" font-size="14.00">allocate_a</text>
</g>
<!-- p0x5558af971240 -->
<g id="node2" class="node">
<title>p0x5558af971240</title>
<polygon fill="cyan" stroke="black" points="315.04,-108 312.04,-112 291.04,-112 288.04,-108 230.04,-108 230.04,-72 315.04,-72 315.04,-108"/>
<text text-anchor="middle" x="272.54" y="-86.3" font-family="Times,serif" font-size="14.00">cudaFlow</text>
</g>
<!-- p0x5558af970f10&#45;&gt;p0x5558af971240 -->
<g id="edge1" class="edge">
<title>p0x5558af970f10&#45;&gt;p0x5558af971240</title>
<path fill="none" stroke="black" d="M94.66,-148.65C129.61,-137.32 181.66,-120.45 220.44,-107.88"/>
<polygon fill="black" stroke="black" points="221.56,-111.2 230,-104.79 219.41,-104.54 221.56,-111.2"/>
</g>
<!-- p0x5558af971350 -->
<g id="node5" class="node">
<title>p0x5558af971350</title>
<ellipse fill="none" stroke="black" cx="272.54" cy="-18" rx="29.5" ry="18"/>
<text text-anchor="middle" x="272.54" y="-14.3" font-family="Times,serif" font-size="14.00">free</text>
</g>
<!-- p0x5558af971240&#45;&gt;p0x5558af971350 -->
<g id="edge4" class="edge">
<title>p0x5558af971240&#45;&gt;p0x5558af971350</title>
<path fill="none" stroke="black" d="M272.54,-71.7C272.54,-63.98 272.54,-54.71 272.54,-46.11"/>
<polygon fill="black" stroke="black" points="276.05,-46.1 272.54,-36.1 269.05,-46.1 276.05,-46.1"/>
</g>
<!-- p0x5558af971020 -->
<g id="node3" class="node">
<title>p0x5558af971020</title>
<ellipse fill="none" stroke="black" cx="388.54" cy="-162" rx="57.39" ry="18"/>
<text text-anchor="middle" x="388.54" y="-158.3" font-family="Times,serif" font-size="14.00">allocate_b</text>
</g>
<!-- p0x5558af971020&#45;&gt;p0x5558af971240 -->
<g id="edge2" class="edge">
<title>p0x5558af971020&#45;&gt;p0x5558af971240</title>
<path fill="none" stroke="black" d="M363.37,-145.81C347.71,-136.36 327.29,-124.04 309.78,-113.47"/>
<polygon fill="black" stroke="black" points="311.3,-110.3 300.93,-108.13 307.68,-116.29 311.3,-110.3"/>
</g>
<!-- p0x5558af971130 -->
<g id="node4" class="node">
<title>p0x5558af971130</title>
<ellipse fill="none" stroke="black" cx="519.54" cy="-162" rx="55.79" ry="18"/>
<text text-anchor="middle" x="519.54" y="-158.3" font-family="Times,serif" font-size="14.00">allocate_c</text>
</g>
<!-- p0x5558af971130&#45;&gt;p0x5558af971240 -->
<g id="edge3" class="edge">
<title>p0x5558af971130&#45;&gt;p0x5558af971240</title>
<path fill="none" stroke="black" d="M479.03,-149.52C436.96,-137.59 370.96,-118.89 324.94,-105.85"/>
<polygon fill="black" stroke="black" points="325.73,-102.43 315.15,-103.07 323.82,-109.17 325.73,-102.43"/>
</g>
<!-- p0x7f6fd8000b20 -->
<g id="node6" class="node">
<title>p0x7f6fd8000b20</title>
<ellipse fill="none" stroke="black" cx="273.54" cy="-306" rx="41.69" ry="18"/>
<text text-anchor="middle" x="273.54" y="-302.3" font-family="Times,serif" font-size="14.00">H2D_a</text>
</g>
<!-- p0x7f6fd8000db0 -->
<g id="node7" class="node">
<title>p0x7f6fd8000db0</title>
<polygon fill="black" stroke="white" points="308.04,-252 241.04,-252 237.04,-248 237.04,-216 304.04,-216 308.04,-220 308.04,-252"/>
<polyline fill="none" stroke="white" points="304.04,-248 237.04,-248 "/>
<polyline fill="none" stroke="white" points="304.04,-248 304.04,-216 "/>
<polyline fill="none" stroke="white" points="304.04,-248 308.04,-252 "/>
<text text-anchor="middle" x="272.54" y="-230.3" font-family="Times,serif" font-size="14.00" fill="white">matmul</text>
</g>
<!-- p0x7f6fd8000b20&#45;&gt;p0x7f6fd8000db0 -->
<g id="edge5" class="edge">
<title>p0x7f6fd8000b20&#45;&gt;p0x7f6fd8000db0</title>
<path fill="none" stroke="black" d="M273.3,-287.7C273.19,-279.98 273.06,-270.71 272.93,-262.11"/>
<polygon fill="black" stroke="black" points="276.43,-262.05 272.79,-252.1 269.43,-262.15 276.43,-262.05"/>
</g>
<!-- p0x7f6fd8000ce0 -->
<g id="node9" class="node">
<title>p0x7f6fd8000ce0</title>
<ellipse fill="none" stroke="black" cx="272.54" cy="-162" rx="40.89" ry="18"/>
<text text-anchor="middle" x="272.54" y="-158.3" font-family="Times,serif" font-size="14.00">D2H_c</text>
</g>
<!-- p0x7f6fd8000db0&#45;&gt;p0x7f6fd8000ce0 -->
<g id="edge8" class="edge">
<title>p0x7f6fd8000db0&#45;&gt;p0x7f6fd8000ce0</title>
<path fill="none" stroke="black" d="M272.54,-215.7C272.54,-207.98 272.54,-198.71 272.54,-190.11"/>
<polygon fill="black" stroke="black" points="276.05,-190.1 272.54,-180.1 269.05,-190.1 276.05,-190.1"/>
</g>
<!-- p0x7f6fd8000c00 -->
<g id="node8" class="node">
<title>p0x7f6fd8000c00</title>
<ellipse fill="none" stroke="black" cx="171.54" cy="-306" rx="42.49" ry="18"/>
<text text-anchor="middle" x="171.54" y="-302.3" font-family="Times,serif" font-size="14.00">H2D_b</text>
</g>
<!-- p0x7f6fd8000c00&#45;&gt;p0x7f6fd8000db0 -->
<g id="edge6" class="edge">
<title>p0x7f6fd8000c00&#45;&gt;p0x7f6fd8000db0</title>
<path fill="none" stroke="black" d="M192.96,-290.15C206.55,-280.74 224.39,-268.38 239.73,-257.74"/>
<polygon fill="black" stroke="black" points="241.73,-260.61 247.96,-252.04 237.75,-254.86 241.73,-260.61"/>
</g>
<!-- p0x7f6fd8000ce0&#45;&gt;p0x5558af971240 -->
<g id="edge7" class="edge">
<title>p0x7f6fd8000ce0&#45;&gt;p0x5558af971240</title>
<path fill="none" stroke="black" d="M272.54,-143.7C272.54,-135.98 272.54,-126.71 272.54,-118.11"/>
<polygon fill="black" stroke="black" points="276.05,-118.1 272.54,-108.1 269.05,-118.1 276.05,-118.1"/>
</g>
</g>
</svg>
