<?xml version="1.0" encoding="UTF-8" standalone="no"?>
<!DOCTYPE svg PUBLIC "-//W3C//DTD SVG 1.1//EN"
 "http://www.w3.org/Graphics/SVG/1.1/DTD/svg11.dtd">
<!-- Generated by graphviz version 12.2.1 (20241206.2353)
 -->
<!-- Title: BoundedWSQ Pages: 1 -->
<svg width="475pt" height="319pt"
 viewBox="0.00 0.00 475.33 318.95" xmlns="http://www.w3.org/2000/svg" xmlns:xlink="http://www.w3.org/1999/xlink">
<g id="graph0" class="graph" transform="scale(1 1) rotate(0) translate(4 314.95)">
<title>BoundedWSQ</title>
<polygon fill="white" stroke="none" points="-4,4 -4,-314.95 471.33,-314.95 471.33,4 -4,4"/>
<!-- Owner -->
<g id="node1" class="node">
<title>Owner</title>
<polygon fill="none" stroke="black" points="201.1,-310.95 94.35,-310.95 94.35,-271.45 201.1,-271.45 201.1,-310.95"/>
<text text-anchor="middle" x="147.73" y="-293.65" font-family="Arial" font-size="14.00"> Owner Thread</text>
<text text-anchor="middle" x="147.73" y="-277.9" font-family="Arial" font-size="14.00">(single) </text>
</g>
<!-- Push -->
<g id="node4" class="node">
<title>Push</title>
<ellipse fill="none" stroke="black" cx="79.73" cy="-206.52" rx="79.73" ry="27.93"/>
<text text-anchor="middle" x="79.73" y="-208.97" font-family="Arial" font-size="14.00"> try_push()</text>
<text text-anchor="middle" x="79.73" y="-193.22" font-family="Arial" font-size="14.00">try_bulk_push() </text>
</g>
<!-- Owner&#45;&gt;Push -->
<g id="edge1" class="edge">
<title>Owner&#45;&gt;Push</title>
<path fill="none" stroke="black" d="M131.95,-271.03C124.99,-262.55 116.57,-252.32 108.54,-242.56"/>
<polygon fill="black" stroke="black" points="111.35,-240.47 102.3,-234.97 105.95,-244.91 111.35,-240.47"/>
</g>
<!-- Pop -->
<g id="node5" class="node">
<title>Pop</title>
<ellipse fill="none" stroke="black" cx="213.73" cy="-206.52" rx="36.59" ry="18"/>
<text text-anchor="middle" x="213.73" y="-201.1" font-family="Arial" font-size="14.00"> pop() </text>
</g>
<!-- Owner&#45;&gt;Pop -->
<g id="edge2" class="edge">
<title>Owner&#45;&gt;Pop</title>
<path fill="none" stroke="black" d="M163.03,-271.03C172.14,-259.62 183.79,-245.02 193.63,-232.7"/>
<polygon fill="black" stroke="black" points="196.28,-234.99 199.78,-224.99 190.81,-230.62 196.28,-234.99"/>
</g>
<!-- Thieves -->
<g id="node2" class="node">
<title>Thieves</title>
<polygon fill="none" stroke="black" points="420.23,-310.95 317.23,-310.95 317.23,-271.45 420.23,-271.45 420.23,-310.95"/>
<text text-anchor="middle" x="368.73" y="-293.65" font-family="Arial" font-size="14.00"> Thief Threads</text>
<text text-anchor="middle" x="368.73" y="-277.9" font-family="Arial" font-size="14.00">(multiple) </text>
</g>
<!-- Steal -->
<g id="node6" class="node">
<title>Steal</title>
<ellipse fill="none" stroke="black" cx="368.73" cy="-206.52" rx="40.58" ry="18"/>
<text text-anchor="middle" x="368.73" y="-201.1" font-family="Arial" font-size="14.00"> steal() </text>
</g>
<!-- Thieves&#45;&gt;Steal -->
<g id="edge5" class="edge">
<title>Thieves&#45;&gt;Steal</title>
<path fill="none" stroke="black" d="M368.73,-271.03C368.73,-260.69 368.73,-247.72 368.73,-236.21"/>
<polygon fill="black" stroke="black" points="372.23,-236.42 368.73,-226.42 365.23,-236.42 372.23,-236.42"/>
</g>
<!-- Queue -->
<g id="node3" class="node">
<title>Queue</title>
<polygon fill="none" stroke="black" points="118.98,-7.84 118.98,-126.34 310.48,-126.34 310.48,-7.84 118.98,-7.84"/>
<text text-anchor="middle" x="214.73" y="-109.04" font-family="Arial" font-size="14.00">Head (Top)</text>
<text text-anchor="middle" x="214.73" y="-93.29" font-family="Arial" font-size="14.00">steal index</text>
<polyline fill="none" stroke="black" points="118.98,-86.84 310.48,-86.84"/>
<text text-anchor="middle" x="214.73" y="-69.54" font-family="Arial" font-size="14.00">Tasks Buffer</text>
<text text-anchor="middle" x="214.73" y="-53.79" font-family="Arial" font-size="14.00">[Fixed Capacity = 2^LogSize]</text>
<polyline fill="none" stroke="black" points="118.98,-47.34 310.48,-47.34"/>
<text text-anchor="middle" x="214.73" y="-30.04" font-family="Arial" font-size="14.00">Tail (Bottom)</text>
<text text-anchor="middle" x="214.73" y="-14.29" font-family="Arial" font-size="14.00">push / pop index</text>
</g>
<!-- Push&#45;&gt;Queue -->
<g id="edge3" class="edge">
<title>Push&#45;&gt;Queue:tail</title>
<path fill="none" stroke="black" d="M74.46,-178.5C66.77,-132.03 58.22,-40.8 106.74,-28.89"/>
<polygon fill="black" stroke="black" points="106.94,-32.39 116.47,-27.77 106.14,-25.43 106.94,-32.39"/>
<text text-anchor="middle" x="128.1" y="-147.29" font-family="Arial" font-size="14.00"> append at bottom </text>
</g>
<!-- Pop&#45;&gt;Queue -->
<g id="edge4" class="edge">
<title>Pop&#45;&gt;Queue:tail</title>
<path fill="none" stroke="black" d="M209.19,-188.27C206.78,-174.85 206.1,-156.58 216.23,-144.84 244.08,-112.55 283.3,-159.7 310.48,-126.84 344.18,-86.09 347.68,-45.44 310.48,-7.84 304.57,-1.88 248.37,1.92 224.92,-1.97"/>
<polygon fill="black" stroke="black" points="223.6,1.28 216.09,-6.19 226.62,-5.03 223.6,1.28"/>
<text text-anchor="middle" x="281.48" y="-147.29" font-family="Arial" font-size="14.00"> remove from bottom </text>
</g>
<!-- Steal&#45;&gt;Queue -->
<g id="edge6" class="edge">
<title>Steal&#45;&gt;Queue:head</title>
<path fill="none" stroke="black" d="M366.65,-188.29C362.64,-162.94 351.51,-117.57 322.5,-108.28"/>
<polygon fill="black" stroke="black" points="323.39,-104.88 312.97,-106.82 322.33,-111.8 323.39,-104.88"/>
<text text-anchor="middle" x="413.7" y="-147.29" font-family="Arial" font-size="14.00"> remove from top </text>
</g>
</g>
</svg>
