<?xml version="1.0" encoding="UTF-8" standalone="no"?>
<!DOCTYPE svg PUBLIC "-//W3C//DTD SVG 1.1//EN"
 "http://www.w3.org/Graphics/SVG/1.1/DTD/svg11.dtd">
<!-- Generated by graphviz version 12.2.1 (20241206.2353)
 -->
<!-- Title: Taskflow Pages: 1 -->
<svg width="277pt" height="98pt"
 viewBox="0.00 0.00 277.30 98.00" xmlns="http://www.w3.org/2000/svg" xmlns:xlink="http://www.w3.org/1999/xlink">
<g id="graph0" class="graph" transform="scale(1 1) rotate(0) translate(4 94)">
<title>Taskflow</title>
<polygon fill="white" stroke="none" points="-4,4 -4,-94 273.3,-94 273.3,4 -4,4"/>
<!-- p0x7f9e1e700030 -->
<g id="node1" class="node">
<title>p0x7f9e1e700030</title>
<ellipse fill="none" stroke="black" cx="27" cy="-45" rx="27" ry="18"/>
<text text-anchor="middle" x="27" y="-39.95" font-family="Times,serif" font-size="14.00">init</text>
</g>
<!-- p0x7f9e1e700140 -->
<g id="node2" class="node">
<title>p0x7f9e1e700140</title>
<polygon fill="aquamarine" stroke="black" points="131.77,-63 91,-45 131.77,-27 172.55,-45 131.77,-63"/>
<text text-anchor="middle" x="131.77" y="-39.95" font-family="Times,serif" font-size="14.00">cond</text>
</g>
<!-- p0x7f9e1e700030&#45;&gt;p0x7f9e1e700140 -->
<g id="edge1" class="edge">
<title>p0x7f9e1e700030&#45;&gt;p0x7f9e1e700140</title>
<path fill="none" stroke="black" d="M54.47,-45C61.91,-45 70.27,-45 78.66,-45"/>
<polygon fill="black" stroke="black" points="78.51,-48.5 88.51,-45 78.51,-41.5 78.51,-48.5"/>
</g>
<!-- p0x7f9e1e700250 -->
<g id="node3" class="node">
<title>p0x7f9e1e700250</title>
<ellipse fill="none" stroke="black" cx="242.3" cy="-72" rx="27" ry="18"/>
<text text-anchor="middle" x="242.3" y="-66.95" font-family="Times,serif" font-size="14.00">yes</text>
</g>
<!-- p0x7f9e1e700140&#45;&gt;p0x7f9e1e700250 -->
<g id="edge2" class="edge">
<title>p0x7f9e1e700140&#45;&gt;p0x7f9e1e700250</title>
<path fill="none" stroke="black" stroke-dasharray="5,2" d="M158.77,-51.47C172.76,-54.95 190.23,-59.29 205.49,-63.09"/>
<polygon fill="black" stroke="black" points="204.62,-66.48 215.17,-65.5 206.31,-59.69 204.62,-66.48"/>
<text text-anchor="middle" x="193.92" y="-64.12" font-family="Times,serif" font-size="14.00">0</text>
</g>
<!-- p0x7f9e1e700360 -->
<g id="node4" class="node">
<title>p0x7f9e1e700360</title>
<ellipse fill="none" stroke="black" cx="242.3" cy="-18" rx="27" ry="18"/>
<text text-anchor="middle" x="242.3" y="-12.95" font-family="Times,serif" font-size="14.00">no</text>
</g>
<!-- p0x7f9e1e700140&#45;&gt;p0x7f9e1e700360 -->
<g id="edge3" class="edge">
<title>p0x7f9e1e700140&#45;&gt;p0x7f9e1e700360</title>
<path fill="none" stroke="black" stroke-dasharray="5,2" d="M158.77,-38.53C172.76,-35.05 190.23,-30.71 205.49,-26.91"/>
<polygon fill="black" stroke="black" points="206.31,-30.31 215.17,-24.5 204.62,-23.52 206.31,-30.31"/>
<text text-anchor="middle" x="193.92" y="-33.08" font-family="Times,serif" font-size="14.00">1</text>
</g>
</g>
</svg>
