<?xml version="1.0" encoding="UTF-8" standalone="no"?>
<!DOCTYPE svg PUBLIC "-//W3C//DTD SVG 1.1//EN"
 "http://www.w3.org/Graphics/SVG/1.1/DTD/svg11.dtd">
<!-- Generated by graphviz version 12.2.1 (20241206.2353)
 -->
<!-- Title: Taskflow Pages: 1 -->
<svg width="221pt" height="260pt"
 viewBox="0.00 0.00 220.88 260.00" xmlns="http://www.w3.org/2000/svg" xmlns:xlink="http://www.w3.org/1999/xlink">
<g id="graph0" class="graph" transform="scale(1 1) rotate(0) translate(4 256)">
<title>Taskflow</title>
<polygon fill="white" stroke="none" points="-4,4 -4,-256 216.88,-256 216.88,4 -4,4"/>
<!-- Task1 -->
<g id="node1" class="node">
<title>Task1</title>
<ellipse fill="none" stroke="black" cx="118.44" cy="-234" rx="33.44" ry="18"/>
<text text-anchor="middle" x="118.44" y="-228.95" font-family="Times,serif" font-size="14.00">Task1</text>
</g>
<!-- Task2 -->
<g id="node2" class="node">
<title>Task2</title>
<ellipse fill="none" stroke="black" cx="33.44" cy="-162" rx="33.44" ry="18"/>
<text text-anchor="middle" x="33.44" y="-156.95" font-family="Times,serif" font-size="14.00">Task2</text>
</g>
<!-- Task1&#45;&gt;Task2 -->
<g id="edge1" class="edge">
<title>Task1&#45;&gt;Task2</title>
<path fill="none" stroke="black" d="M100.83,-218.5C88.97,-208.73 73.13,-195.69 59.79,-184.7"/>
<polygon fill="black" stroke="black" points="62.14,-182.1 52.2,-178.45 57.69,-187.51 62.14,-182.1"/>
</g>
<!-- Task3 -->
<g id="node3" class="node">
<title>Task3</title>
<ellipse fill="none" stroke="black" cx="118.44" cy="-162" rx="33.44" ry="18"/>
<text text-anchor="middle" x="118.44" y="-156.95" font-family="Times,serif" font-size="14.00">Task3</text>
</g>
<!-- Task1&#45;&gt;Task3 -->
<g id="edge2" class="edge">
<title>Task1&#45;&gt;Task3</title>
<path fill="none" stroke="black" d="M118.44,-215.7C118.44,-208.41 118.44,-199.73 118.44,-191.54"/>
<polygon fill="black" stroke="black" points="121.94,-191.62 118.44,-181.62 114.94,-191.62 121.94,-191.62"/>
</g>
<!-- Task4 -->
<g id="node4" class="node">
<title>Task4</title>
<ellipse fill="none" stroke="black" cx="179.44" cy="-90" rx="33.44" ry="18"/>
<text text-anchor="middle" x="179.44" y="-84.95" font-family="Times,serif" font-size="14.00">Task4</text>
</g>
<!-- Task1&#45;&gt;Task4 -->
<g id="edge3" class="edge">
<title>Task1&#45;&gt;Task4</title>
<path fill="none" stroke="black" d="M133.81,-217.61C142.87,-207.67 153.83,-194.02 160.44,-180 169.4,-160.98 174.18,-137.68 176.7,-119.7"/>
<polygon fill="black" stroke="black" points="180.15,-120.33 177.9,-109.98 173.2,-119.48 180.15,-120.33"/>
</g>
<!-- Task5 -->
<g id="node5" class="node">
<title>Task5</title>
<ellipse fill="none" stroke="black" cx="94.44" cy="-90" rx="33.44" ry="18"/>
<text text-anchor="middle" x="94.44" y="-84.95" font-family="Times,serif" font-size="14.00">Task5</text>
</g>
<!-- Task2&#45;&gt;Task5 -->
<g id="edge4" class="edge">
<title>Task2&#45;&gt;Task5</title>
<path fill="none" stroke="black" d="M47.28,-145.12C54.92,-136.34 64.58,-125.26 73.16,-115.42"/>
<polygon fill="black" stroke="black" points="75.73,-117.8 79.66,-107.96 70.45,-113.2 75.73,-117.8"/>
</g>
<!-- Task3&#45;&gt;Task5 -->
<g id="edge5" class="edge">
<title>Task3&#45;&gt;Task5</title>
<path fill="none" stroke="black" d="M112.63,-144.05C110,-136.4 106.84,-127.16 103.89,-118.56"/>
<polygon fill="black" stroke="black" points="107.24,-117.55 100.69,-109.22 100.62,-119.82 107.24,-117.55"/>
</g>
<!-- Task6 -->
<g id="node6" class="node">
<title>Task6</title>
<ellipse fill="none" stroke="black" cx="136.44" cy="-18" rx="33.44" ry="18"/>
<text text-anchor="middle" x="136.44" y="-12.95" font-family="Times,serif" font-size="14.00">Task6</text>
</g>
<!-- Task4&#45;&gt;Task6 -->
<g id="edge6" class="edge">
<title>Task4&#45;&gt;Task6</title>
<path fill="none" stroke="black" d="M169.25,-72.41C164.27,-64.3 158.16,-54.35 152.56,-45.25"/>
<polygon fill="black" stroke="black" points="155.56,-43.45 147.35,-36.76 149.6,-47.11 155.56,-43.45"/>
</g>
<!-- Task5&#45;&gt;Task6 -->
<g id="edge7" class="edge">
<title>Task5&#45;&gt;Task6</title>
<path fill="none" stroke="black" d="M104.39,-72.41C109.26,-64.3 115.23,-54.35 120.69,-45.25"/>
<polygon fill="black" stroke="black" points="123.63,-47.14 125.78,-36.77 117.63,-43.54 123.63,-47.14"/>
</g>
</g>
</svg>
