<?xml version="1.0" encoding="UTF-8" standalone="no"?>
<!DOCTYPE svg PUBLIC "-//W3C//DTD SVG 1.1//EN"
 "http://www.w3.org/Graphics/SVG/1.1/DTD/svg11.dtd">
<!-- Generated by graphviz version 2.43.0 (0)
 -->
<!-- Title: TwoPhaseProtocol Pages: 1 -->
<svg width="574pt" height="592pt"
 viewBox="0.00 0.00 574.00 592.00" xmlns="http://www.w3.org/2000/svg" xmlns:xlink="http://www.w3.org/1999/xlink">
<g id="graph0" class="graph" transform="scale(1 1) rotate(0) translate(4 588)">
<title>TwoPhaseProtocol</title>
<polygon fill="white" stroke="transparent" points="-4,4 -4,-588 570,-588 570,4 -4,4"/>
<g id="clust1" class="cluster">
<title>cluster_waiter</title>
<polygon fill="none" stroke="#aaaaaa" stroke-dasharray="5,2" points="8,-8 8,-576 376,-576 376,-8 8,-8"/>
<text text-anchor="middle" x="192" y="-560.8" font-family="Helvetica,Arial,sans-serif" font-size="14.00">Waiting Thread (Consumer)</text>
</g>
<g id="clust2" class="cluster">
<title>cluster_notifier</title>
<polygon fill="none" stroke="#aaaaaa" stroke-dasharray="5,2" points="384,-281 384,-575.5 558,-575.5 558,-281 384,-281"/>
<text text-anchor="middle" x="471" y="-560.3" font-family="Helvetica,Arial,sans-serif" font-size="14.00">Notifier Thread (Producer)</text>
</g>
<!-- Start -->
<g id="node1" class="node">
<title>Start</title>
<polygon fill="none" stroke="black" points="222,-506.5 222,-544.5 368,-544.5 368,-506.5 222,-506.5"/>
<text text-anchor="middle" x="295" y="-529.3" font-family="Helvetica,Arial,sans-serif" font-size="14.00">A worker thread (wid)</text>
<text text-anchor="middle" x="295" y="-514.3" font-family="Helvetica,Arial,sans-serif" font-size="14.00">wanting to wait</text>
</g>
<!-- Check1 -->
<g id="node3" class="node">
<title>Check1</title>
<polygon fill="none" stroke="black" points="212,-469 135,-431 212,-393 289,-431 212,-469"/>
<text text-anchor="middle" x="212" y="-434.8" font-family="Helvetica,Arial,sans-serif" font-size="14.00"> Predicate</text>
<text text-anchor="middle" x="212" y="-419.8" font-family="Helvetica,Arial,sans-serif" font-size="14.00">True? </text>
</g>
<!-- Start&#45;&gt;Check1 -->
<g id="edge1" class="edge">
<title>Start&#45;&gt;Check1</title>
<path fill="none" stroke="black" d="M278.6,-506.22C268.16,-494.59 254.32,-479.16 241.96,-465.39"/>
<polygon fill="black" stroke="black" points="244.56,-463.05 235.28,-457.94 239.35,-467.72 244.56,-463.05"/>
</g>
<!-- End -->
<g id="node2" class="node">
<title>End</title>
<polygon fill="black" stroke="black" points="160.5,-52 59.5,-52 59.5,-16 160.5,-16 160.5,-52"/>
<text text-anchor="middle" x="110" y="-30.3" font-family="Helvetica,Arial,sans-serif" font-size="14.00" fill="white"> waiter queue </text>
</g>
<!-- Act1 -->
<g id="node4" class="node">
<title>Act1</title>
<polygon fill="none" stroke="black" points="335,-333.5 281,-333.5 281,-297.5 335,-297.5 335,-333.5"/>
<text text-anchor="middle" x="308" y="-311.8" font-family="Helvetica,Arial,sans-serif" font-size="14.00"> act() </text>
</g>
<!-- Check1&#45;&gt;Act1 -->
<g id="edge2" class="edge">
<title>Check1&#45;&gt;Act1</title>
<path fill="none" stroke="black" d="M234.27,-403.68C250.12,-384.94 271.28,-359.91 286.87,-341.48"/>
<polygon fill="black" stroke="black" points="289.82,-343.42 293.6,-333.52 284.47,-338.9 289.82,-343.42"/>
<text text-anchor="middle" x="283.5" y="-363.8" font-family="Helvetica,Arial,sans-serif" font-size="14.00"> Yes </text>
</g>
<!-- Prepare -->
<g id="node5" class="node">
<title>Prepare</title>
<polygon fill="none" stroke="black" points="262.5,-333.5 73.5,-333.5 73.5,-297.5 262.5,-297.5 262.5,-333.5"/>
<text text-anchor="middle" x="168" y="-311.8" font-family="Helvetica,Arial,sans-serif" font-size="14.00"> Phase 1: prepare_wait(wid) </text>
</g>
<!-- Check1&#45;&gt;Prepare -->
<g id="edge3" class="edge">
<title>Check1&#45;&gt;Prepare</title>
<path fill="none" stroke="black" d="M199.86,-398.69C193.12,-381.3 184.82,-359.89 178.38,-343.29"/>
<polygon fill="black" stroke="black" points="181.52,-341.7 174.65,-333.65 175,-344.23 181.52,-341.7"/>
<text text-anchor="middle" x="203" y="-363.8" font-family="Helvetica,Arial,sans-serif" font-size="14.00"> No </text>
</g>
<!-- Act1&#45;&gt;Start -->
<g id="edge8" class="edge">
<title>Act1&#45;&gt;Start</title>
<path fill="none" stroke="black" d="M306.94,-333.53C304.7,-369.31 299.49,-452.61 296.75,-496.42"/>
<polygon fill="black" stroke="black" points="293.26,-496.21 296.13,-506.41 300.25,-496.64 293.26,-496.21"/>
</g>
<!-- Check2 -->
<g id="node6" class="node">
<title>Check2</title>
<polygon fill="none" stroke="black" points="168,-252 91,-214 168,-176 245,-214 168,-252"/>
<text text-anchor="middle" x="168" y="-217.8" font-family="Helvetica,Arial,sans-serif" font-size="14.00"> Predicate</text>
<text text-anchor="middle" x="168" y="-202.8" font-family="Helvetica,Arial,sans-serif" font-size="14.00">True? </text>
</g>
<!-- Prepare&#45;&gt;Check2 -->
<g id="edge4" class="edge">
<title>Prepare&#45;&gt;Check2</title>
<path fill="none" stroke="black" d="M168,-297.17C168,-287.51 168,-274.97 168,-262.6"/>
<polygon fill="black" stroke="black" points="171.5,-262.32 168,-252.32 164.5,-262.32 171.5,-262.32"/>
</g>
<!-- Cancel -->
<g id="node7" class="node">
<title>Cancel</title>
<polygon fill="none" stroke="black" points="347.5,-125 222.5,-125 222.5,-89 347.5,-89 347.5,-125"/>
<text text-anchor="middle" x="285" y="-103.3" font-family="Helvetica,Arial,sans-serif" font-size="14.00"> cancel_wait(wid) </text>
</g>
<!-- Check2&#45;&gt;Cancel -->
<g id="edge5" class="edge">
<title>Check2&#45;&gt;Cancel</title>
<path fill="none" stroke="black" d="M194.84,-188.91C213.94,-171.78 239.47,-148.86 258.49,-131.79"/>
<polygon fill="black" stroke="black" points="260.84,-134.39 265.94,-125.1 256.16,-129.18 260.84,-134.39"/>
<text text-anchor="middle" x="256.5" y="-146.8" font-family="Helvetica,Arial,sans-serif" font-size="14.00"> Yes</text>
</g>
<!-- Commit -->
<g id="node9" class="node">
<title>Commit</title>
<polygon fill="none" stroke="black" points="204,-125 16,-125 16,-89 204,-89 204,-125"/>
<text text-anchor="middle" x="110" y="-103.3" font-family="Helvetica,Arial,sans-serif" font-size="14.00"> Phase 2: commit_wait(wid) </text>
</g>
<!-- Check2&#45;&gt;Commit -->
<g id="edge7" class="edge">
<title>Check2&#45;&gt;Commit</title>
<path fill="none" stroke="black" d="M151.84,-183.75C143.24,-168.17 132.74,-149.17 124.42,-134.1"/>
<polygon fill="black" stroke="black" points="127.45,-132.35 119.55,-125.29 121.32,-135.73 127.45,-132.35"/>
<text text-anchor="middle" x="150" y="-146.8" font-family="Helvetica,Arial,sans-serif" font-size="14.00"> No </text>
</g>
<!-- Act2 -->
<g id="node8" class="node">
<title>Act2</title>
<polygon fill="none" stroke="black" points="340,-52 286,-52 286,-16 340,-16 340,-52"/>
<text text-anchor="middle" x="313" y="-30.3" font-family="Helvetica,Arial,sans-serif" font-size="14.00"> act() </text>
</g>
<!-- Cancel&#45;&gt;Act2 -->
<g id="edge6" class="edge">
<title>Cancel&#45;&gt;Act2</title>
<path fill="none" stroke="black" d="M291.78,-88.81C295.01,-80.62 298.95,-70.62 302.56,-61.48"/>
<polygon fill="black" stroke="black" points="305.87,-62.62 306.28,-52.03 299.36,-60.05 305.87,-62.62"/>
</g>
<!-- Act2&#45;&gt;Start -->
<g id="edge9" class="edge">
<title>Act2&#45;&gt;Start</title>
<path fill="none" stroke="black" d="M336.21,-52.17C350.85,-65.12 367,-84.32 367,-106 367,-432 367,-432 367,-432 367,-459.07 347.57,-482.98 328.89,-499.7"/>
<polygon fill="black" stroke="black" points="326.34,-497.28 320.99,-506.42 330.88,-502.61 326.34,-497.28"/>
</g>
<!-- Commit&#45;&gt;End -->
<g id="edge10" class="edge">
<title>Commit&#45;&gt;End</title>
<path fill="none" stroke="black" d="M110,-88.81C110,-80.79 110,-71.05 110,-62.07"/>
<polygon fill="black" stroke="black" points="113.5,-62.03 110,-52.03 106.5,-62.03 113.5,-62.03"/>
</g>
<!-- Notifier -->
<g id="node10" class="node">
<title>Notifier</title>
<polygon fill="none" stroke="black" points="545.5,-544.5 396.5,-544.5 396.5,-506.5 545.5,-506.5 545.5,-544.5"/>
<text text-anchor="middle" x="471" y="-529.3" font-family="Helvetica,Arial,sans-serif" font-size="14.00"> A worker thread (wid)</text>
<text text-anchor="middle" x="471" y="-514.3" font-family="Helvetica,Arial,sans-serif" font-size="14.00">wanting to notify </text>
</g>
<!-- ModifyPredicate -->
<g id="node11" class="node">
<title>ModifyPredicate</title>
<polygon fill="none" stroke="black" points="529,-449 413,-449 413,-413 529,-413 529,-449"/>
<text text-anchor="middle" x="471" y="-427.3" font-family="Helvetica,Arial,sans-serif" font-size="14.00">Predicate = True</text>
</g>
<!-- Notifier&#45;&gt;ModifyPredicate -->
<g id="edge11" class="edge">
<title>Notifier&#45;&gt;ModifyPredicate</title>
<path fill="none" stroke="black" d="M471,-506.22C471,-492.92 471,-474.67 471,-459.6"/>
<polygon fill="black" stroke="black" points="474.5,-459.3 471,-449.3 467.5,-459.3 474.5,-459.3"/>
</g>
<!-- Notify -->
<g id="node12" class="node">
<title>Notify</title>
<polygon fill="none" stroke="black" points="527.5,-342 414.5,-342 414.5,-289 527.5,-289 527.5,-342"/>
<text text-anchor="middle" x="471" y="-326.8" font-family="Helvetica,Arial,sans-serif" font-size="14.00"> notify_one(wid)</text>
<text text-anchor="middle" x="471" y="-311.8" font-family="Helvetica,Arial,sans-serif" font-size="14.00">or</text>
<text text-anchor="middle" x="471" y="-296.8" font-family="Helvetica,Arial,sans-serif" font-size="14.00">notify_all(wid)</text>
</g>
<!-- ModifyPredicate&#45;&gt;Notify -->
<g id="edge12" class="edge">
<title>ModifyPredicate&#45;&gt;Notify</title>
<path fill="none" stroke="black" d="M471,-412.76C471,-396.81 471,-372.6 471,-352.45"/>
<polygon fill="black" stroke="black" points="474.5,-352.35 471,-342.35 467.5,-352.35 474.5,-352.35"/>
</g>
</g>
</svg>
