<?xml version="1.0" encoding="UTF-8" standalone="no"?>
<!DOCTYPE svg PUBLIC "-//W3C//DTD SVG 1.1//EN"
 "http://www.w3.org/Graphics/SVG/1.1/DTD/svg11.dtd">
<!-- Generated by graphviz version 2.43.0 (0)
 -->
<!-- Title: L Pages: 1 -->
<svg width="240pt" height="180pt"
 viewBox="0.00 0.00 240.00 180.00" xmlns="http://www.w3.org/2000/svg" xmlns:xlink="http://www.w3.org/1999/xlink">
<g id="graph0" class="graph" transform="scale(1 1) rotate(0) translate(4 176)">
<title>L</title>
<polygon fill="white" stroke="transparent" points="-4,4 -4,-176 236,-176 236,4 -4,4"/>
<!-- a -->
<g id="node1" class="node">
<title>a</title>
<polygon fill="none" stroke="black" points="169,-172 62,-172 62,-104 169,-104 169,-172"/>
<text text-anchor="start" x="70" y="-156.8" font-family="Times,serif" font-size="14.00">[Node A]</text>
<text text-anchor="start" x="70" y="-141.8" font-family="Times,serif" font-size="14.00">Step 1: f1(A)</text>
<text text-anchor="start" x="70" y="-126.8" font-family="Times,serif" font-size="14.00">Step 2: f2(A)</text>
<text text-anchor="start" x="70" y="-111.8" font-family="Times,serif" font-size="14.00">Step 3: f3(A)</text>
</g>
<!-- b -->
<g id="node2" class="node">
<title>b</title>
<polygon fill="none" stroke="black" points="107,-68 0,-68 0,0 107,0 107,-68"/>
<text text-anchor="start" x="8" y="-52.8" font-family="Times,serif" font-size="14.00">[Node B]</text>
<text text-anchor="start" x="8" y="-37.8" font-family="Times,serif" font-size="14.00">Step 1: f1(B)</text>
<text text-anchor="start" x="8" y="-22.8" font-family="Times,serif" font-size="14.00">Step 2: f2(B)</text>
<text text-anchor="start" x="8" y="-7.8" font-family="Times,serif" font-size="14.00">Step 3: f3(B)</text>
</g>
<!-- a&#45;&gt;b -->
<g id="edge1" class="edge">
<title>a&#45;&gt;b</title>
<path fill="none" stroke="black" d="M95.37,-103.88C90.17,-95.33 84.51,-86.01 79.07,-77.07"/>
<polygon fill="black" stroke="black" points="81.93,-75.03 73.74,-68.3 75.94,-78.66 81.93,-75.03"/>
</g>
<!-- c -->
<g id="node3" class="node">
<title>c</title>
<polygon fill="none" stroke="black" points="232,-68 125,-68 125,0 232,0 232,-68"/>
<text text-anchor="start" x="133" y="-52.8" font-family="Times,serif" font-size="14.00">[Node C]</text>
<text text-anchor="start" x="133" y="-37.8" font-family="Times,serif" font-size="14.00">Step 1: f1(C)</text>
<text text-anchor="start" x="133" y="-22.8" font-family="Times,serif" font-size="14.00">Step 2: f2(C)</text>
<text text-anchor="start" x="133" y="-7.8" font-family="Times,serif" font-size="14.00">Step 3: f3(C)</text>
</g>
<!-- a&#45;&gt;c -->
<g id="edge2" class="edge">
<title>a&#45;&gt;c</title>
<path fill="none" stroke="black" d="M135.95,-103.88C141.24,-95.33 146.99,-86.01 152.51,-77.07"/>
<polygon fill="black" stroke="black" points="155.66,-78.65 157.93,-68.3 149.7,-74.97 155.66,-78.65"/>
</g>
</g>
</svg>
