<?xml version="1.0" encoding="UTF-8" standalone="no"?>
<!DOCTYPE svg PUBLIC "-//W3C//DTD SVG 1.1//EN"
 "http://www.w3.org/Graphics/SVG/1.1/DTD/svg11.dtd">
<!-- Generated by graphviz version 2.43.0 (0)
 -->
<!-- Title: Taskflow Pages: 1 -->
<svg width="901pt" height="186pt"
 viewBox="0.00 0.00 901.00 186.00" xmlns="http://www.w3.org/2000/svg" xmlns:xlink="http://www.w3.org/1999/xlink">
<g id="graph0" class="graph" transform="scale(1 1) rotate(0) translate(4 182)">
<title>Taskflow</title>
<polygon fill="white" stroke="transparent" points="-4,4 -4,-182 897,-182 897,4 -4,4"/>
<g id="clust1" class="cluster">
<title>cluster_p0x7ffe35bde158</title>
<polygon fill="none" stroke="black" points="8,-8 8,-170 297,-170 297,-8 8,-8"/>
<text text-anchor="middle" x="152.5" y="-154.8" font-family="Times,serif" font-size="14.00">Taskflow</text>
</g>
<g id="clust2" class="cluster">
<title>cluster_p0x7ffe35bddd80</title>
<polygon fill="none" stroke="black" points="305,-8 305,-170 591,-170 591,-8 305,-8"/>
<text text-anchor="middle" x="448" y="-154.8" font-family="Times,serif" font-size="14.00">m2</text>
</g>
<g id="clust3" class="cluster">
<title>cluster_p0x7ffe35bdde20</title>
<polygon fill="none" stroke="black" points="599,-8 599,-170 885,-170 885,-8 599,-8"/>
<text text-anchor="middle" x="742" y="-154.8" font-family="Times,serif" font-size="14.00">m1</text>
</g>
<!-- p0x131af10 -->
<g id="node1" class="node">
<title>p0x131af10</title>
<polygon fill="none" stroke="blue" points="143.5,-52 20.5,-52 16.5,-48 16.5,-16 139.5,-16 143.5,-20 143.5,-52"/>
<polyline fill="none" stroke="blue" points="139.5,-48 16.5,-48 "/>
<polyline fill="none" stroke="blue" points="139.5,-48 139.5,-16 "/>
<polyline fill="none" stroke="blue" points="139.5,-48 143.5,-52 "/>
<text text-anchor="middle" x="80" y="-30.3" font-family="Times,serif" font-size="14.00">pipeline_1 [m1]</text>
</g>
<!-- p0x131aff8 -->
<g id="node2" class="node">
<title>p0x131aff8</title>
<polygon fill="none" stroke="blue" points="288.5,-52 165.5,-52 161.5,-48 161.5,-16 284.5,-16 288.5,-20 288.5,-52"/>
<polyline fill="none" stroke="blue" points="284.5,-48 161.5,-48 "/>
<polyline fill="none" stroke="blue" points="284.5,-48 284.5,-16 "/>
<polyline fill="none" stroke="blue" points="284.5,-48 288.5,-52 "/>
<text text-anchor="middle" x="225" y="-30.3" font-family="Times,serif" font-size="14.00">pipeline_2 [m2]</text>
</g>
<!-- p0x131b0e0 -->
<g id="node3" class="node">
<title>p0x131b0e0</title>
<ellipse fill="none" stroke="black" cx="152" cy="-121" rx="37.89" ry="18"/>
<text text-anchor="middle" x="152" y="-117.3" font-family="Times,serif" font-size="14.00">initial</text>
</g>
<!-- p0x131b0e0&#45;&gt;p0x131af10 -->
<g id="edge1" class="edge">
<title>p0x131b0e0&#45;&gt;p0x131af10</title>
<path fill="none" stroke="black" d="M138.46,-104.01C127.97,-91.63 113.25,-74.25 101.2,-60.03"/>
<polygon fill="black" stroke="black" points="103.6,-57.45 94.47,-52.08 98.26,-61.98 103.6,-57.45"/>
</g>
<!-- p0x131b0e0&#45;&gt;p0x131aff8 -->
<g id="edge2" class="edge">
<title>p0x131b0e0&#45;&gt;p0x131aff8</title>
<path fill="none" stroke="black" d="M165.73,-104.01C176.36,-91.63 191.29,-74.25 203.5,-60.03"/>
<polygon fill="black" stroke="black" points="206.47,-61.95 210.33,-52.08 201.16,-57.39 206.47,-61.95"/>
</g>
<!-- p0x131aa88 -->
<g id="node4" class="node">
<title>p0x131aa88</title>
<polygon fill="aquamarine" stroke="black" points="448,-139 402.08,-121 448,-103 493.92,-121 448,-139"/>
<text text-anchor="middle" x="448" y="-117.3" font-family="Times,serif" font-size="14.00">cond</text>
</g>
<!-- p0x131ab70 -->
<g id="node5" class="node">
<title>p0x131ab70</title>
<polygon fill="none" stroke="black" points="367,-52 313,-52 313,-48 309,-48 309,-44 313,-44 313,-24 309,-24 309,-20 313,-20 313,-16 367,-16 367,-52"/>
<polyline fill="none" stroke="black" points="313,-48 317,-48 317,-44 313,-44 "/>
<polyline fill="none" stroke="black" points="313,-24 317,-24 317,-20 313,-20 "/>
<text text-anchor="middle" x="340" y="-30.3" font-family="Times,serif" font-size="14.00">rt&#45;0</text>
</g>
<!-- p0x131aa88&#45;&gt;p0x131ab70 -->
<g id="edge3" class="edge">
<title>p0x131aa88&#45;&gt;p0x131ab70</title>
<path fill="none" stroke="black" stroke-dasharray="5,2" d="M433.43,-108.54C417.17,-95.73 390.41,-74.67 369.69,-58.36"/>
<polygon fill="black" stroke="black" points="371.81,-55.58 361.79,-52.15 367.48,-61.08 371.81,-55.58"/>
<text text-anchor="middle" x="405" y="-73.8" font-family="Times,serif" font-size="14.00">0</text>
</g>
<!-- p0x131ac58 -->
<g id="node6" class="node">
<title>p0x131ac58</title>
<polygon fill="none" stroke="black" points="439,-52 385,-52 385,-48 381,-48 381,-44 385,-44 385,-24 381,-24 381,-20 385,-20 385,-16 439,-16 439,-52"/>
<polyline fill="none" stroke="black" points="385,-48 389,-48 389,-44 385,-44 "/>
<polyline fill="none" stroke="black" points="385,-24 389,-24 389,-20 385,-20 "/>
<text text-anchor="middle" x="412" y="-30.3" font-family="Times,serif" font-size="14.00">rt&#45;1</text>
</g>
<!-- p0x131aa88&#45;&gt;p0x131ac58 -->
<g id="edge4" class="edge">
<title>p0x131aa88&#45;&gt;p0x131ac58</title>
<path fill="none" stroke="black" stroke-dasharray="5,2" d="M441.73,-105.19C436.66,-93.21 429.38,-76.03 423.29,-61.67"/>
<polygon fill="black" stroke="black" points="426.44,-60.11 419.31,-52.27 419.99,-62.84 426.44,-60.11"/>
<text text-anchor="middle" x="437" y="-73.8" font-family="Times,serif" font-size="14.00">1</text>
</g>
<!-- p0x131ad40 -->
<g id="node7" class="node">
<title>p0x131ad40</title>
<polygon fill="none" stroke="black" points="511,-52 457,-52 457,-48 453,-48 453,-44 457,-44 457,-24 453,-24 453,-20 457,-20 457,-16 511,-16 511,-52"/>
<polyline fill="none" stroke="black" points="457,-48 461,-48 461,-44 457,-44 "/>
<polyline fill="none" stroke="black" points="457,-24 461,-24 461,-20 457,-20 "/>
<text text-anchor="middle" x="484" y="-30.3" font-family="Times,serif" font-size="14.00">rt&#45;2</text>
</g>
<!-- p0x131aa88&#45;&gt;p0x131ad40 -->
<g id="edge5" class="edge">
<title>p0x131aa88&#45;&gt;p0x131ad40</title>
<path fill="none" stroke="black" stroke-dasharray="5,2" d="M454.27,-105.19C459.34,-93.21 466.62,-76.03 472.71,-61.67"/>
<polygon fill="black" stroke="black" points="476.01,-62.84 476.69,-52.27 469.56,-60.11 476.01,-62.84"/>
<text text-anchor="middle" x="473" y="-73.8" font-family="Times,serif" font-size="14.00">2</text>
</g>
<!-- p0x131ae28 -->
<g id="node8" class="node">
<title>p0x131ae28</title>
<polygon fill="none" stroke="black" points="583,-52 529,-52 529,-48 525,-48 525,-44 529,-44 529,-24 525,-24 525,-20 529,-20 529,-16 583,-16 583,-52"/>
<polyline fill="none" stroke="black" points="529,-48 533,-48 533,-44 529,-44 "/>
<polyline fill="none" stroke="black" points="529,-24 533,-24 533,-20 529,-20 "/>
<text text-anchor="middle" x="556" y="-30.3" font-family="Times,serif" font-size="14.00">rt&#45;3</text>
</g>
<!-- p0x131aa88&#45;&gt;p0x131ae28 -->
<g id="edge6" class="edge">
<title>p0x131aa88&#45;&gt;p0x131ae28</title>
<path fill="none" stroke="black" stroke-dasharray="5,2" d="M462.57,-108.54C478.83,-95.73 505.59,-74.67 526.31,-58.36"/>
<polygon fill="black" stroke="black" points="528.52,-61.08 534.21,-52.15 524.19,-55.58 528.52,-61.08"/>
<text text-anchor="middle" x="513" y="-73.8" font-family="Times,serif" font-size="14.00">3</text>
</g>
<!-- p0x131a600 -->
<g id="node9" class="node">
<title>p0x131a600</title>
<polygon fill="aquamarine" stroke="black" points="742,-139 696.08,-121 742,-103 787.92,-121 742,-139"/>
<text text-anchor="middle" x="742" y="-117.3" font-family="Times,serif" font-size="14.00">cond</text>
</g>
<!-- p0x131a6e8 -->
<g id="node10" class="node">
<title>p0x131a6e8</title>
<polygon fill="none" stroke="black" points="661,-52 607,-52 607,-48 603,-48 603,-44 607,-44 607,-24 603,-24 603,-20 607,-20 607,-16 661,-16 661,-52"/>
<polyline fill="none" stroke="black" points="607,-48 611,-48 611,-44 607,-44 "/>
<polyline fill="none" stroke="black" points="607,-24 611,-24 611,-20 607,-20 "/>
<text text-anchor="middle" x="634" y="-30.3" font-family="Times,serif" font-size="14.00">rt&#45;0</text>
</g>
<!-- p0x131a600&#45;&gt;p0x131a6e8 -->
<g id="edge7" class="edge">
<title>p0x131a600&#45;&gt;p0x131a6e8</title>
<path fill="none" stroke="black" stroke-dasharray="5,2" d="M727.43,-108.54C711.17,-95.73 684.41,-74.67 663.69,-58.36"/>
<polygon fill="black" stroke="black" points="665.81,-55.58 655.79,-52.15 661.48,-61.08 665.81,-55.58"/>
<text text-anchor="middle" x="699" y="-73.8" font-family="Times,serif" font-size="14.00">0</text>
</g>
<!-- p0x131a7d0 -->
<g id="node11" class="node">
<title>p0x131a7d0</title>
<polygon fill="none" stroke="black" points="733,-52 679,-52 679,-48 675,-48 675,-44 679,-44 679,-24 675,-24 675,-20 679,-20 679,-16 733,-16 733,-52"/>
<polyline fill="none" stroke="black" points="679,-48 683,-48 683,-44 679,-44 "/>
<polyline fill="none" stroke="black" points="679,-24 683,-24 683,-20 679,-20 "/>
<text text-anchor="middle" x="706" y="-30.3" font-family="Times,serif" font-size="14.00">rt&#45;1</text>
</g>
<!-- p0x131a600&#45;&gt;p0x131a7d0 -->
<g id="edge8" class="edge">
<title>p0x131a600&#45;&gt;p0x131a7d0</title>
<path fill="none" stroke="black" stroke-dasharray="5,2" d="M735.73,-105.19C730.66,-93.21 723.38,-76.03 717.29,-61.67"/>
<polygon fill="black" stroke="black" points="720.44,-60.11 713.31,-52.27 713.99,-62.84 720.44,-60.11"/>
<text text-anchor="middle" x="731" y="-73.8" font-family="Times,serif" font-size="14.00">1</text>
</g>
<!-- p0x131a8b8 -->
<g id="node12" class="node">
<title>p0x131a8b8</title>
<polygon fill="none" stroke="black" points="805,-52 751,-52 751,-48 747,-48 747,-44 751,-44 751,-24 747,-24 747,-20 751,-20 751,-16 805,-16 805,-52"/>
<polyline fill="none" stroke="black" points="751,-48 755,-48 755,-44 751,-44 "/>
<polyline fill="none" stroke="black" points="751,-24 755,-24 755,-20 751,-20 "/>
<text text-anchor="middle" x="778" y="-30.3" font-family="Times,serif" font-size="14.00">rt&#45;2</text>
</g>
<!-- p0x131a600&#45;&gt;p0x131a8b8 -->
<g id="edge9" class="edge">
<title>p0x131a600&#45;&gt;p0x131a8b8</title>
<path fill="none" stroke="black" stroke-dasharray="5,2" d="M748.27,-105.19C753.34,-93.21 760.62,-76.03 766.71,-61.67"/>
<polygon fill="black" stroke="black" points="770.01,-62.84 770.69,-52.27 763.56,-60.11 770.01,-62.84"/>
<text text-anchor="middle" x="767" y="-73.8" font-family="Times,serif" font-size="14.00">2</text>
</g>
<!-- p0x131a9a0 -->
<g id="node13" class="node">
<title>p0x131a9a0</title>
<polygon fill="none" stroke="black" points="877,-52 823,-52 823,-48 819,-48 819,-44 823,-44 823,-24 819,-24 819,-20 823,-20 823,-16 877,-16 877,-52"/>
<polyline fill="none" stroke="black" points="823,-48 827,-48 827,-44 823,-44 "/>
<polyline fill="none" stroke="black" points="823,-24 827,-24 827,-20 823,-20 "/>
<text text-anchor="middle" x="850" y="-30.3" font-family="Times,serif" font-size="14.00">rt&#45;3</text>
</g>
<!-- p0x131a600&#45;&gt;p0x131a9a0 -->
<g id="edge10" class="edge">
<title>p0x131a600&#45;&gt;p0x131a9a0</title>
<path fill="none" stroke="black" stroke-dasharray="5,2" d="M756.57,-108.54C772.83,-95.73 799.59,-74.67 820.31,-58.36"/>
<polygon fill="black" stroke="black" points="822.52,-61.08 828.21,-52.15 818.19,-55.58 822.52,-61.08"/>
<text text-anchor="middle" x="807" y="-73.8" font-family="Times,serif" font-size="14.00">3</text>
</g>
</g>
</svg>
