<?xml version="1.0" encoding="UTF-8" standalone="no"?>
<!DOCTYPE svg PUBLIC "-//W3C//DTD SVG 1.1//EN"
 "http://www.w3.org/Graphics/SVG/1.1/DTD/svg11.dtd">
<!-- Generated by graphviz version 12.2.1 (20241206.2353)
 -->
<!-- Title: AsyncPipeline Pages: 1 -->
<svg width="862pt" height="171pt"
 viewBox="0.00 0.00 861.96 170.72" xmlns="http://www.w3.org/2000/svg" xmlns:xlink="http://www.w3.org/1999/xlink">
<g id="graph0" class="graph" transform="scale(1 1) rotate(0) translate(4 166.72)">
<title>AsyncPipeline</title>
<polygon fill="white" stroke="none" points="-4,4 -4,-166.72 857.96,-166.72 857.96,4 -4,4"/>
<!-- lbl0 -->
<g id="node1" class="node">
<title>lbl0</title>
<polygon fill="white" stroke="none" points="55.92,-162.72 0,-162.72 0,-132.48 55.92,-132.48 55.92,-162.72"/>
<text text-anchor="middle" x="27.96" y="-143.15" font-family="Helvetica,sans-Serif" font-size="11.00">Item 0</text>
</g>
<!-- lbl1 -->
<g id="node2" class="node">
<title>lbl1</title>
<polygon fill="white" stroke="none" points="129.92,-162.72 74,-162.72 74,-132.48 129.92,-132.48 129.92,-162.72"/>
<text text-anchor="middle" x="101.96" y="-143.15" font-family="Helvetica,sans-Serif" font-size="11.00">Item 1</text>
</g>
<!-- lbl2 -->
<g id="node3" class="node">
<title>lbl2</title>
<polygon fill="white" stroke="none" points="203.92,-162.72 148,-162.72 148,-132.48 203.92,-132.48 203.92,-162.72"/>
<text text-anchor="middle" x="175.96" y="-143.15" font-family="Helvetica,sans-Serif" font-size="11.00">Item 2</text>
</g>
<!-- lbl3 -->
<g id="node4" class="node">
<title>lbl3</title>
<polygon fill="white" stroke="none" points="277.92,-162.72 222,-162.72 222,-132.48 277.92,-132.48 277.92,-162.72"/>
<text text-anchor="middle" x="249.96" y="-143.15" font-family="Helvetica,sans-Serif" font-size="11.00">Item 3</text>
</g>
<!-- p0 -->
<g id="node5" class="node">
<title>p0</title>
<polygon fill="#fde8d0" stroke="black" points="403.96,-162.72 295.96,-162.72 295.96,-132.48 403.96,-132.48 403.96,-162.72"/>
<text text-anchor="middle" x="349.96" y="-143.15" font-family="Helvetica,sans-Serif" font-size="11.00">Produce</text>
</g>
<!-- v0 -->
<g id="node6" class="node">
<title>v0</title>
<polygon fill="#fff3cd" stroke="black" points="396.76,-96.48 303.16,-96.48 303.16,-66.24 396.76,-66.24 396.76,-96.48"/>
<text text-anchor="middle" x="349.96" y="-76.91" font-family="Helvetica,sans-Serif" font-size="11.00">Validate</text>
</g>
<!-- p0&#45;&gt;v0 -->
<g id="edge1" class="edge">
<title>p0&#45;&gt;v0</title>
<path fill="none" stroke="#555555" d="M349.96,-132.02C349.96,-123.81 349.96,-113.39 349.96,-104.22"/>
<polygon fill="#555555" stroke="#555555" points="352.06,-104.39 349.96,-98.39 347.86,-104.39 352.06,-104.39"/>
</g>
<!-- c0 -->
<g id="node7" class="node">
<title>c0</title>
<polygon fill="#d4edda" stroke="black" points="396.76,-30.24 303.16,-30.24 303.16,0 396.76,0 396.76,-30.24"/>
<text text-anchor="middle" x="349.96" y="-10.67" font-family="Helvetica,sans-Serif" font-size="11.00">Consume</text>
</g>
<!-- v0&#45;&gt;c0 -->
<g id="edge2" class="edge">
<title>v0&#45;&gt;c0</title>
<path fill="none" stroke="#555555" d="M349.96,-65.78C349.96,-57.57 349.96,-47.15 349.96,-37.98"/>
<polygon fill="#555555" stroke="#555555" points="352.06,-38.15 349.96,-32.15 347.86,-38.15 352.06,-38.15"/>
</g>
<!-- p1 -->
<g id="node8" class="node">
<title>p1</title>
<polygon fill="#fde8d0" stroke="black" points="529.96,-162.72 421.96,-162.72 421.96,-132.48 529.96,-132.48 529.96,-162.72"/>
<text text-anchor="middle" x="475.96" y="-143.15" font-family="Helvetica,sans-Serif" font-size="11.00">Produce</text>
</g>
<!-- v1 -->
<g id="node9" class="node">
<title>v1</title>
<polygon fill="#fff3cd" stroke="black" points="522.76,-96.48 429.16,-96.48 429.16,-66.24 522.76,-66.24 522.76,-96.48"/>
<text text-anchor="middle" x="475.96" y="-76.91" font-family="Helvetica,sans-Serif" font-size="11.00">Validate</text>
</g>
<!-- p1&#45;&gt;v1 -->
<g id="edge3" class="edge">
<title>p1&#45;&gt;v1</title>
<path fill="none" stroke="#555555" d="M475.96,-132.02C475.96,-123.81 475.96,-113.39 475.96,-104.22"/>
<polygon fill="#555555" stroke="#555555" points="478.06,-104.39 475.96,-98.39 473.86,-104.39 478.06,-104.39"/>
</g>
<!-- c1 -->
<g id="node10" class="node">
<title>c1</title>
<polygon fill="#d4edda" stroke="black" points="522.76,-30.24 429.16,-30.24 429.16,0 522.76,0 522.76,-30.24"/>
<text text-anchor="middle" x="475.96" y="-10.67" font-family="Helvetica,sans-Serif" font-size="11.00">Consume</text>
</g>
<!-- v1&#45;&gt;c1 -->
<g id="edge4" class="edge">
<title>v1&#45;&gt;c1</title>
<path fill="none" stroke="#555555" d="M475.96,-65.78C475.96,-57.57 475.96,-47.15 475.96,-37.98"/>
<polygon fill="#555555" stroke="#555555" points="478.06,-38.15 475.96,-32.15 473.86,-38.15 478.06,-38.15"/>
</g>
<!-- p2 -->
<g id="node11" class="node">
<title>p2</title>
<polygon fill="#fde8d0" stroke="black" points="655.96,-162.72 547.96,-162.72 547.96,-132.48 655.96,-132.48 655.96,-162.72"/>
<text text-anchor="middle" x="601.96" y="-143.15" font-family="Helvetica,sans-Serif" font-size="11.00">Produce</text>
</g>
<!-- v2 -->
<g id="node12" class="node">
<title>v2</title>
<polygon fill="#fff3cd" stroke="black" points="648.76,-96.48 555.16,-96.48 555.16,-66.24 648.76,-66.24 648.76,-96.48"/>
<text text-anchor="middle" x="601.96" y="-76.91" font-family="Helvetica,sans-Serif" font-size="11.00">Validate</text>
</g>
<!-- p2&#45;&gt;v2 -->
<g id="edge5" class="edge">
<title>p2&#45;&gt;v2</title>
<path fill="none" stroke="#555555" d="M601.96,-132.02C601.96,-123.81 601.96,-113.39 601.96,-104.22"/>
<polygon fill="#555555" stroke="#555555" points="604.06,-104.39 601.96,-98.39 599.86,-104.39 604.06,-104.39"/>
</g>
<!-- c2 -->
<g id="node13" class="node">
<title>c2</title>
<polygon fill="#d4edda" stroke="black" points="648.76,-30.24 555.16,-30.24 555.16,0 648.76,0 648.76,-30.24"/>
<text text-anchor="middle" x="601.96" y="-10.67" font-family="Helvetica,sans-Serif" font-size="11.00">Consume</text>
</g>
<!-- v2&#45;&gt;c2 -->
<g id="edge6" class="edge">
<title>v2&#45;&gt;c2</title>
<path fill="none" stroke="#555555" d="M601.96,-65.78C601.96,-57.57 601.96,-47.15 601.96,-37.98"/>
<polygon fill="#555555" stroke="#555555" points="604.06,-38.15 601.96,-32.15 599.86,-38.15 604.06,-38.15"/>
</g>
<!-- p3 -->
<g id="node14" class="node">
<title>p3</title>
<polygon fill="#fde8d0" stroke="black" points="781.96,-162.72 673.96,-162.72 673.96,-132.48 781.96,-132.48 781.96,-162.72"/>
<text text-anchor="middle" x="727.96" y="-143.15" font-family="Helvetica,sans-Serif" font-size="11.00">Produce</text>
</g>
<!-- v3 -->
<g id="node15" class="node">
<title>v3</title>
<polygon fill="#fff3cd" stroke="black" points="774.76,-96.48 681.16,-96.48 681.16,-66.24 774.76,-66.24 774.76,-96.48"/>
<text text-anchor="middle" x="727.96" y="-76.91" font-family="Helvetica,sans-Serif" font-size="11.00">Validate</text>
</g>
<!-- p3&#45;&gt;v3 -->
<g id="edge7" class="edge">
<title>p3&#45;&gt;v3</title>
<path fill="none" stroke="#555555" d="M727.96,-132.02C727.96,-123.81 727.96,-113.39 727.96,-104.22"/>
<polygon fill="#555555" stroke="#555555" points="730.06,-104.39 727.96,-98.39 725.86,-104.39 730.06,-104.39"/>
</g>
<!-- c3 -->
<g id="node16" class="node">
<title>c3</title>
<polygon fill="#d4edda" stroke="black" points="774.76,-30.24 681.16,-30.24 681.16,0 774.76,0 774.76,-30.24"/>
<text text-anchor="middle" x="727.96" y="-10.67" font-family="Helvetica,sans-Serif" font-size="11.00">Consume</text>
</g>
<!-- v3&#45;&gt;c3 -->
<g id="edge8" class="edge">
<title>v3&#45;&gt;c3</title>
<path fill="none" stroke="#555555" d="M727.96,-65.78C727.96,-57.57 727.96,-47.15 727.96,-37.98"/>
<polygon fill="#555555" stroke="#555555" points="730.06,-38.15 727.96,-32.15 725.86,-38.15 730.06,-38.15"/>
</g>
<!-- t_lbl -->
<g id="node17" class="node">
<title>t_lbl</title>
<polygon fill="white" stroke="none" points="853.96,-162.72 799.96,-162.72 799.96,-132.48 853.96,-132.48 853.96,-162.72"/>
<text text-anchor="middle" x="826.96" y="-142" font-family="Helvetica Italic" font-size="13.00">t</text>
</g>
</g>
</svg>
