<?xml version="1.0" encoding="UTF-8" standalone="no"?>
<!DOCTYPE svg PUBLIC "-//W3C//DTD SVG 1.1//EN"
 "http://www.w3.org/Graphics/SVG/1.1/DTD/svg11.dtd">
<!-- Generated by graphviz version 2.43.0 (0)
 -->
<!-- Title: G Pages: 1 -->
<svg width="969pt" height="350pt"
 viewBox="0.00 0.00 969.32 350.00" xmlns="http://www.w3.org/2000/svg" xmlns:xlink="http://www.w3.org/1999/xlink">
<g id="graph0" class="graph" transform="scale(1 1) rotate(0) translate(4 346)">
<title>G</title>
<polygon fill="white" stroke="transparent" points="-4,4 -4,-346 965.32,-346 965.32,4 -4,4"/>
<!-- atask -->
<g id="node1" class="node">
<title>atask</title>
<ellipse fill="none" stroke="black" cx="812.32" cy="-324" rx="141.88" ry="18"/>
<text text-anchor="middle" x="812.32" y="-320.3" font-family="Times,serif" font-size="14.00">pop a task T from the queue</text>
</g>
<!-- cond -->
<g id="node2" class="node">
<title>cond</title>
<polygon fill="aquamarine" stroke="black" points="631.32,-269 477.83,-251 631.32,-233 784.82,-251 631.32,-269"/>
<text text-anchor="middle" x="631.32" y="-247.3" font-family="Times,serif" font-size="14.00">is T a condition task?</text>
</g>
<!-- atask&#45;&gt;cond -->
<g id="edge1" class="edge">
<title>atask&#45;&gt;cond</title>
<path fill="none" stroke="black" d="M770.8,-306.71C741.92,-295.38 703.51,-280.32 674.32,-268.86"/>
<polygon fill="black" stroke="black" points="675.38,-265.52 664.8,-265.13 672.83,-272.04 675.38,-265.52"/>
</g>
<!-- invokeN -->
<g id="node3" class="node">
<title>invokeN</title>
<ellipse fill="none" stroke="black" cx="481.32" cy="-164" rx="53.89" ry="18"/>
<text text-anchor="middle" x="481.32" y="-160.3" font-family="Times,serif" font-size="14.00">invoke(T)</text>
</g>
<!-- cond&#45;&gt;invokeN -->
<g id="edge6" class="edge">
<title>cond&#45;&gt;invokeN</title>
<path fill="none" stroke="black" stroke-dasharray="5,2" d="M606.22,-235.77C581.64,-221.85 543.98,-200.51 516.44,-184.9"/>
<polygon fill="black" stroke="black" points="517.95,-181.73 507.52,-179.85 514.5,-187.82 517.95,-181.73"/>
<text text-anchor="middle" x="574.32" y="-203.8" font-family="Times,serif" font-size="14.00">no</text>
</g>
<!-- invokeY -->
<g id="node4" class="node">
<title>invokeY</title>
<ellipse fill="none" stroke="black" cx="684.32" cy="-164" rx="74.19" ry="18"/>
<text text-anchor="middle" x="684.32" y="-160.3" font-family="Times,serif" font-size="14.00">R = invoke(T)</text>
</g>
<!-- cond&#45;&gt;invokeY -->
<g id="edge5" class="edge">
<title>cond&#45;&gt;invokeY</title>
<path fill="none" stroke="black" stroke-dasharray="5,2" d="M641.29,-234.01C648.87,-221.86 659.45,-204.9 668.22,-190.83"/>
<polygon fill="black" stroke="black" points="671.35,-192.42 673.67,-182.08 665.41,-188.72 671.35,-192.42"/>
<text text-anchor="middle" x="673.82" y="-203.8" font-family="Times,serif" font-size="14.00">yes</text>
</g>
<!-- decrement -->
<g id="node6" class="node">
<title>decrement</title>
<ellipse fill="none" stroke="black" cx="298.32" cy="-91" rx="298.15" ry="18"/>
<text text-anchor="middle" x="298.32" y="-87.3" font-family="Times,serif" font-size="14.00">decrement strong dependencies of each successor of T by one</text>
</g>
<!-- invokeN&#45;&gt;decrement -->
<g id="edge2" class="edge">
<title>invokeN&#45;&gt;decrement</title>
<path fill="none" stroke="black" d="M447.33,-149.81C420.35,-139.34 382.16,-124.53 351.19,-112.51"/>
<polygon fill="black" stroke="black" points="352.43,-109.24 341.84,-108.88 349.89,-115.76 352.43,-109.24"/>
</g>
<!-- enqueueR -->
<g id="node5" class="node">
<title>enqueueR</title>
<ellipse fill="none" stroke="black" cx="774.32" cy="-91" rx="159.47" ry="18"/>
<text text-anchor="middle" x="774.32" y="-87.3" font-family="Times,serif" font-size="14.00">enqueue the R&#45;th successor of T</text>
</g>
<!-- invokeY&#45;&gt;enqueueR -->
<g id="edge4" class="edge">
<title>invokeY&#45;&gt;enqueueR</title>
<path fill="none" stroke="black" d="M705.2,-146.53C716.95,-137.26 731.83,-125.52 744.77,-115.32"/>
<polygon fill="black" stroke="black" points="747.25,-117.81 752.94,-108.87 742.92,-112.32 747.25,-117.81"/>
</g>
<!-- enqueueR&#45;&gt;atask -->
<g id="edge8" class="edge">
<title>enqueueR&#45;&gt;atask</title>
<path fill="none" stroke="black" d="M777.16,-109.25C783.71,-149.03 799.9,-247.49 807.82,-295.63"/>
<polygon fill="black" stroke="black" points="804.39,-296.34 809.47,-305.64 811.3,-295.2 804.39,-296.34"/>
</g>
<!-- enqueueS -->
<g id="node7" class="node">
<title>enqueueS</title>
<ellipse fill="none" stroke="black" cx="629.32" cy="-18" rx="237.46" ry="18"/>
<text text-anchor="middle" x="629.32" y="-14.3" font-family="Times,serif" font-size="14.00">enqueue successors of zero strong dependencies</text>
</g>
<!-- decrement&#45;&gt;enqueueS -->
<g id="edge3" class="edge">
<title>decrement&#45;&gt;enqueueS</title>
<path fill="none" stroke="black" d="M375.09,-73.53C425.69,-62.68 491.99,-48.46 544.2,-37.26"/>
<polygon fill="black" stroke="black" points="545.07,-40.65 554.11,-35.13 543.6,-33.81 545.07,-40.65"/>
</g>
<!-- enqueueS&#45;&gt;atask -->
<g id="edge7" class="edge">
<title>enqueueS&#45;&gt;atask</title>
<path fill="none" stroke="black" d="M819.08,-28.86C893.45,-38.11 961.32,-55.89 961.32,-90 961.32,-252 961.32,-252 961.32,-252 961.32,-279.68 940.1,-296.58 913.68,-306.9"/>
<polygon fill="black" stroke="black" points="912.4,-303.64 904.14,-310.28 914.74,-310.24 912.4,-303.64"/>
</g>
</g>
</svg>
