<?xml version="1.0" encoding="UTF-8" standalone="no"?>
<!DOCTYPE svg PUBLIC "-//W3C//DTD SVG 1.1//EN"
 "http://www.w3.org/Graphics/SVG/1.1/DTD/svg11.dtd">
<!-- Generated by graphviz version 12.2.1 (20241206.2353)
 -->
<!-- Title: SpecBatch Pages: 1 -->
<svg width="739pt" height="410pt"
 viewBox="0.00 0.00 739.40 410.00" xmlns="http://www.w3.org/2000/svg" xmlns:xlink="http://www.w3.org/1999/xlink">
<g id="graph0" class="graph" transform="scale(1 1) rotate(0) translate(4 406)">
<title>SpecBatch</title>
<polygon fill="white" stroke="none" points="-4,4 -4,-406 735.4,-406 735.4,4 -4,4"/>
<g id="clust1" class="cluster">
<title>cluster_0</title>
</g>
<g id="clust2" class="cluster">
<title>cluster_1</title>
</g>
<g id="clust3" class="cluster">
<title>cluster_n</title>
</g>
<!-- sp0 -->
<g id="node1" class="node">
<title>sp0</title>
<polygon fill="aquamarine" stroke="black" points="81.4,-330.51 25,-315 81.4,-299.49 137.8,-315 81.4,-330.51"/>
<text text-anchor="middle" x="81.4" y="-311.32" font-family="Helvetica,sans-Serif" font-size="9.00">speculate₀</text>
</g>
<!-- fh0 -->
<g id="node2" class="node">
<title>fh0</title>
<polygon fill="aquamarine" stroke="black" points="257.7,-299.51 226.8,-284 257.7,-268.49 288.6,-284 257.7,-299.51"/>
<text text-anchor="middle" x="257.7" y="-280.32" font-family="Helvetica,sans-Serif" font-size="9.00">fast₀</text>
</g>
<!-- sp0&#45;&gt;fh0 -->
<g id="edge1" class="edge">
<title>sp0&#45;&gt;fh0</title>
<path fill="none" stroke="#555555" stroke-dasharray="5,2" d="M116.84,-308.88C149.12,-303.13 196.86,-294.64 227.37,-289.22"/>
<polygon fill="#555555" stroke="#555555" points="227.42,-291.16 232.49,-288.31 226.74,-287.37 227.42,-291.16"/>
<text text-anchor="middle" x="180.05" y="-299.04" font-family="Helvetica,sans-Serif" font-size="8.00">0</text>
</g>
<!-- sl0 -->
<g id="node3" class="node">
<title>sl0</title>
<polygon fill="aquamarine" stroke="black" points="257.7,-359.51 222.3,-344 257.7,-328.49 293.1,-344 257.7,-359.51"/>
<text text-anchor="middle" x="257.7" y="-340.32" font-family="Helvetica,sans-Serif" font-size="9.00">slow₀</text>
</g>
<!-- sp0&#45;&gt;sl0 -->
<g id="edge2" class="edge">
<title>sp0&#45;&gt;sl0</title>
<path fill="none" stroke="#555555" stroke-dasharray="5,2" d="M117.67,-320.87C148.93,-326.07 194.19,-333.6 224.49,-338.64"/>
<polygon fill="#555555" stroke="#555555" points="223.86,-340.49 229.6,-339.49 224.49,-336.69 223.86,-340.49"/>
<text text-anchor="middle" x="180.05" y="-332.64" font-family="Helvetica,sans-Serif" font-size="8.00">1</text>
</g>
<!-- mg0 -->
<g id="node4" class="node">
<title>mg0</title>
<polygon fill="aquamarine" stroke="black" points="420.5,-312.51 377.6,-297 420.5,-281.49 463.4,-297 420.5,-312.51"/>
<text text-anchor="middle" x="420.5" y="-293.32" font-family="Helvetica,sans-Serif" font-size="9.00">merge₀</text>
</g>
<!-- fh0&#45;&gt;mg0 -->
<g id="edge3" class="edge">
<title>fh0&#45;&gt;mg0</title>
<path fill="none" stroke="#555555" stroke-dasharray="5,2" d="M285.25,-286.15C310.28,-288.17 348.18,-291.23 377.33,-293.59"/>
<polygon fill="#555555" stroke="#555555" points="377.02,-295.5 382.66,-294.02 377.33,-291.66 377.02,-295.5"/>
<text text-anchor="middle" x="335.35" y="-291.51" font-family="Helvetica,sans-Serif" font-size="8.00">0</text>
</g>
<!-- sl0&#45;&gt;mg0 -->
<g id="edge4" class="edge">
<title>sl0&#45;&gt;mg0</title>
<path fill="none" stroke="#555555" stroke-dasharray="5,2" d="M280.05,-337.76C308.05,-329.58 357.33,-315.17 389.18,-305.86"/>
<polygon fill="#555555" stroke="#555555" points="389.51,-307.77 394.25,-304.38 388.43,-304.08 389.51,-307.77"/>
<text text-anchor="middle" x="335.35" y="-323.31" font-family="Helvetica,sans-Serif" font-size="8.00">0</text>
</g>
<!-- dn0 -->
<g id="node5" class="node">
<title>dn0</title>
<polygon fill="#d4edda" stroke="black" points="592.9,-297.08 538.9,-297.08 538.9,-276.92 592.9,-276.92 592.9,-297.08"/>
<text text-anchor="middle" x="565.9" y="-283.32" font-family="Helvetica,sans-Serif" font-size="9.00">done₀</text>
</g>
<!-- mg0&#45;&gt;dn0 -->
<g id="edge5" class="edge">
<title>mg0&#45;&gt;dn0</title>
<path fill="none" stroke="#555555" stroke-dasharray="5,2" d="M457.69,-294.48C480.45,-292.89 509.59,-290.86 531.75,-289.31"/>
<polygon fill="#555555" stroke="#555555" points="531.82,-291.24 537.17,-288.93 531.55,-287.4 531.82,-291.24"/>
<text text-anchor="middle" x="505.65" y="-292.5" font-family="Helvetica,sans-Serif" font-size="8.00">0</text>
</g>
<!-- collect -->
<g id="node17" class="node">
<title>collect</title>
<polygon fill="#cce5ff" stroke="black" stroke-width="2" points="731.4,-205.08 677.4,-205.08 677.4,-184.92 731.4,-184.92 731.4,-205.08"/>
<text text-anchor="middle" x="704.4" y="-191.32" font-family="Helvetica,sans-Serif" font-size="9.00">collect</text>
</g>
<!-- dn0&#45;&gt;collect -->
<g id="edge16" class="edge">
<title>dn0&#45;&gt;collect</title>
<path fill="none" stroke="#555555" d="M582.56,-276.45C606.88,-260.05 653.81,-228.43 681.48,-209.77"/>
<polygon fill="#555555" stroke="#555555" points="682.34,-211.52 685.82,-206.85 680.19,-208.32 682.34,-211.52"/>
<text text-anchor="middle" x="635.15" y="-247.91" font-family="Helvetica,sans-Serif" font-size="8.00">strong</text>
</g>
<!-- sp1 -->
<g id="node6" class="node">
<title>sp1</title>
<polygon fill="aquamarine" stroke="black" points="81.4,-216.51 25,-201 81.4,-185.49 137.8,-201 81.4,-216.51"/>
<text text-anchor="middle" x="81.4" y="-197.32" font-family="Helvetica,sans-Serif" font-size="9.00">speculate₁</text>
</g>
<!-- fh1 -->
<g id="node7" class="node">
<title>fh1</title>
<polygon fill="aquamarine" stroke="black" points="257.7,-179.51 226.8,-164 257.7,-148.49 288.6,-164 257.7,-179.51"/>
<text text-anchor="middle" x="257.7" y="-160.32" font-family="Helvetica,sans-Serif" font-size="9.00">fast₁</text>
</g>
<!-- sp1&#45;&gt;fh1 -->
<g id="edge6" class="edge">
<title>sp1&#45;&gt;fh1</title>
<path fill="none" stroke="#555555" stroke-dasharray="5,2" d="M114.37,-194.21C146.99,-187.29 197.13,-176.65 228.36,-170.02"/>
<polygon fill="#555555" stroke="#555555" points="228.65,-171.92 233.63,-168.9 227.85,-168.16 228.65,-171.92"/>
<text text-anchor="middle" x="180.05" y="-181.68" font-family="Helvetica,sans-Serif" font-size="8.00">0</text>
</g>
<!-- sl1 -->
<g id="node8" class="node">
<title>sl1</title>
<polygon fill="aquamarine" stroke="black" points="257.7,-239.51 222.3,-224 257.7,-208.49 293.1,-224 257.7,-239.51"/>
<text text-anchor="middle" x="257.7" y="-220.32" font-family="Helvetica,sans-Serif" font-size="9.00">slow₁</text>
</g>
<!-- sp1&#45;&gt;sl1 -->
<g id="edge7" class="edge">
<title>sp1&#45;&gt;sl1</title>
<path fill="none" stroke="#555555" stroke-dasharray="5,2" d="M121.08,-206.1C151.54,-210.12 193.57,-215.67 222.74,-219.52"/>
<polygon fill="#555555" stroke="#555555" points="222.28,-221.4 227.99,-220.21 222.79,-217.58 222.28,-221.4"/>
<text text-anchor="middle" x="180.05" y="-215.28" font-family="Helvetica,sans-Serif" font-size="8.00">1</text>
</g>
<!-- mg1 -->
<g id="node9" class="node">
<title>mg1</title>
<polygon fill="aquamarine" stroke="black" points="420.5,-210.51 377.6,-195 420.5,-179.49 463.4,-195 420.5,-210.51"/>
<text text-anchor="middle" x="420.5" y="-191.32" font-family="Helvetica,sans-Serif" font-size="9.00">merge₁</text>
</g>
<!-- fh1&#45;&gt;mg1 -->
<g id="edge8" class="edge">
<title>fh1&#45;&gt;mg1</title>
<path fill="none" stroke="#555555" stroke-dasharray="5,2" d="M281.06,-168.31C307.85,-173.48 353.07,-182.19 384.51,-188.25"/>
<polygon fill="#555555" stroke="#555555" points="384.14,-190.14 389.9,-189.29 384.87,-186.36 384.14,-190.14"/>
<text text-anchor="middle" x="335.35" y="-179.97" font-family="Helvetica,sans-Serif" font-size="8.00">0</text>
</g>
<!-- sl1&#45;&gt;mg1 -->
<g id="edge9" class="edge">
<title>sl1&#45;&gt;mg1</title>
<path fill="none" stroke="#555555" stroke-dasharray="5,2" d="M283.82,-219.47C310.76,-214.61 353.74,-206.86 384.09,-201.39"/>
<polygon fill="#555555" stroke="#555555" points="384.19,-203.32 389.26,-200.45 383.51,-199.54 384.19,-203.32"/>
<text text-anchor="middle" x="335.35" y="-211.77" font-family="Helvetica,sans-Serif" font-size="8.00">0</text>
</g>
<!-- dn1 -->
<g id="node10" class="node">
<title>dn1</title>
<polygon fill="#d4edda" stroke="black" points="592.9,-205.08 538.9,-205.08 538.9,-184.92 592.9,-184.92 592.9,-205.08"/>
<text text-anchor="middle" x="565.9" y="-191.32" font-family="Helvetica,sans-Serif" font-size="9.00">done₁</text>
</g>
<!-- mg1&#45;&gt;dn1 -->
<g id="edge10" class="edge">
<title>mg1&#45;&gt;dn1</title>
<path fill="none" stroke="#555555" stroke-dasharray="5,2" d="M464.52,-195C486.07,-195 511.76,-195 531.75,-195"/>
<polygon fill="#555555" stroke="#555555" points="531.56,-196.93 537.06,-195 531.56,-193.08 531.56,-196.93"/>
<text text-anchor="middle" x="505.65" y="-196.4" font-family="Helvetica,sans-Serif" font-size="8.00">0</text>
</g>
<!-- dn1&#45;&gt;collect -->
<g id="edge17" class="edge">
<title>dn1&#45;&gt;collect</title>
<path fill="none" stroke="#555555" d="M593.22,-195C615.08,-195 646.3,-195 669.94,-195"/>
<polygon fill="#555555" stroke="#555555" points="669.68,-196.93 675.18,-195 669.68,-193.08 669.68,-196.93"/>
<text text-anchor="middle" x="635.15" y="-196.4" font-family="Helvetica,sans-Serif" font-size="8.00">strong</text>
</g>
<!-- dots -->
<g id="node11" class="node">
<title>dots</title>
<polygon fill="lightgrey" stroke="none" points="108.4,-402 54.4,-402 54.4,-376 108.4,-376 108.4,-402"/>
<text text-anchor="middle" x="81.4" y="-383.93" font-family="Helvetica,sans-Serif" font-size="16.00">⋮</text>
</g>
<!-- spn -->
<g id="node12" class="node">
<title>spn</title>
<polygon fill="aquamarine" stroke="black" points="81.4,-92.51 16,-74 81.4,-55.49 146.8,-74 81.4,-92.51"/>
<text text-anchor="middle" x="81.4" y="-71.83" font-family="Helvetica,sans-Serif" font-size="9.00">speculateₙ</text>
</g>
<!-- fhn -->
<g id="node13" class="node">
<title>fhn</title>
<polygon fill="aquamarine" stroke="black" points="257.7,-53.51 217.8,-35 257.7,-16.49 297.6,-35 257.7,-53.51"/>
<text text-anchor="middle" x="257.7" y="-32.83" font-family="Helvetica,sans-Serif" font-size="9.00">fastₙ</text>
</g>
<!-- spn&#45;&gt;fhn -->
<g id="edge11" class="edge">
<title>spn&#45;&gt;fhn</title>
<path fill="none" stroke="#555555" stroke-dasharray="5,2" d="M119.36,-65.73C150.12,-58.85 193.51,-49.14 223.25,-42.49"/>
<polygon fill="#555555" stroke="#555555" points="223.32,-44.44 228.27,-41.36 222.48,-40.68 223.32,-44.44"/>
<text text-anchor="middle" x="180.05" y="-53.56" font-family="Helvetica,sans-Serif" font-size="8.00">0</text>
</g>
<!-- sln -->
<g id="node14" class="node">
<title>sln</title>
<polygon fill="aquamarine" stroke="black" points="257.7,-119.51 213.3,-101 257.7,-82.49 302.1,-101 257.7,-119.51"/>
<text text-anchor="middle" x="257.7" y="-98.83" font-family="Helvetica,sans-Serif" font-size="9.00">slowₙ</text>
</g>
<!-- spn&#45;&gt;sln -->
<g id="edge12" class="edge">
<title>spn&#45;&gt;sln</title>
<path fill="none" stroke="#555555" stroke-dasharray="5,2" d="M125.04,-80.6C153.28,-84.98 190.05,-90.68 217.56,-94.94"/>
<polygon fill="#555555" stroke="#555555" points="217.11,-96.82 222.84,-95.76 217.7,-93.01 217.11,-96.82"/>
<text text-anchor="middle" x="180.05" y="-90.52" font-family="Helvetica,sans-Serif" font-size="8.00">1</text>
</g>
<!-- mgn -->
<g id="node15" class="node">
<title>mgn</title>
<polygon fill="aquamarine" stroke="black" points="420.5,-119.51 368.6,-101 420.5,-82.49 472.4,-101 420.5,-119.51"/>
<text text-anchor="middle" x="420.5" y="-98.83" font-family="Helvetica,sans-Serif" font-size="9.00">mergeₙ</text>
</g>
<!-- fhn&#45;&gt;mgn -->
<g id="edge13" class="edge">
<title>fhn&#45;&gt;mgn</title>
<path fill="none" stroke="#555555" stroke-dasharray="5,2" d="M279.72,-43.63C307.66,-55.09 357.19,-75.43 389.17,-88.55"/>
<polygon fill="#555555" stroke="#555555" points="388.1,-90.19 393.92,-90.5 389.57,-86.63 388.1,-90.19"/>
<text text-anchor="middle" x="335.35" y="-67.42" font-family="Helvetica,sans-Serif" font-size="8.00">0</text>
</g>
<!-- sln&#45;&gt;mgn -->
<g id="edge14" class="edge">
<title>sln&#45;&gt;mgn</title>
<path fill="none" stroke="#555555" stroke-dasharray="5,2" d="M303.06,-101C320.78,-101 341.44,-101 360.4,-101"/>
<polygon fill="#555555" stroke="#555555" points="360.29,-102.93 365.79,-101 360.29,-99.08 360.29,-102.93"/>
<text text-anchor="middle" x="335.35" y="-102.4" font-family="Helvetica,sans-Serif" font-size="8.00">0</text>
</g>
<!-- dnn -->
<g id="node16" class="node">
<title>dnn</title>
<polygon fill="#d4edda" stroke="black" points="592.9,-116.08 538.9,-116.08 538.9,-95.92 592.9,-95.92 592.9,-116.08"/>
<text text-anchor="middle" x="565.9" y="-103.83" font-family="Helvetica,sans-Serif" font-size="9.00">doneₙ</text>
</g>
<!-- mgn&#45;&gt;dnn -->
<g id="edge15" class="edge">
<title>mgn&#45;&gt;dnn</title>
<path fill="none" stroke="#555555" stroke-dasharray="5,2" d="M468.85,-102.65C489.49,-103.37 513.17,-104.2 531.86,-104.85"/>
<polygon fill="#555555" stroke="#555555" points="531.43,-106.76 536.99,-105.03 531.56,-102.91 531.43,-106.76"/>
<text text-anchor="middle" x="505.65" y="-105.35" font-family="Helvetica,sans-Serif" font-size="8.00">0</text>
</g>
<!-- dnn&#45;&gt;collect -->
<g id="edge18" class="edge">
<title>dnn&#45;&gt;collect</title>
<path fill="none" stroke="#555555" d="M583.09,-116.56C607.49,-132.46 653.73,-162.61 681.23,-180.55"/>
<polygon fill="#555555" stroke="#555555" points="679.87,-181.96 685.53,-183.35 681.98,-178.73 679.87,-181.96"/>
<text text-anchor="middle" x="635.15" y="-157.23" font-family="Helvetica,sans-Serif" font-size="8.00">strong</text>
</g>
</g>
</svg>
