<?xml version="1.0" encoding="UTF-8" standalone="no"?>
<!DOCTYPE svg PUBLIC "-//W3C//DTD SVG 1.1//EN"
 "http://www.w3.org/Graphics/SVG/1.1/DTD/svg11.dtd">
<!-- Generated by graphviz version 2.43.0 (0)
 -->
<!-- Title: Taskflow Pages: 1 -->
<svg width="780pt" height="1124pt"
 viewBox="0.00 0.00 780.03 1124.00" xmlns="http://www.w3.org/2000/svg" xmlns:xlink="http://www.w3.org/1999/xlink">
<g id="graph0" class="graph" transform="scale(1 1) rotate(0) translate(4 1120)">
<title>Taskflow</title>
<polygon fill="white" stroke="transparent" points="-4,4 -4,-1120 776.03,-1120 776.03,4 -4,4"/>
<!-- [A33] bprop_tau2015_clk -->
<g id="node1" class="node">
<title>[A33] bprop_tau2015_clk</title>
<ellipse fill="black" stroke="black" cx="198.04" cy="-18" rx="126.18" ry="18"/>
<text text-anchor="middle" x="198.04" y="-14.3" font-family="Times,serif" font-size="14.00" fill="white">[A33] bprop_tau2015_clk</text>
</g>
<!-- [A32] bprop_f1:CLK -->
<g id="node2" class="node">
<title>[A32] bprop_f1:CLK</title>
<ellipse fill="black" stroke="black" cx="198.04" cy="-90" rx="102.08" ry="18"/>
<text text-anchor="middle" x="198.04" y="-86.3" font-family="Times,serif" font-size="14.00" fill="white">[A32] bprop_f1:CLK</text>
</g>
<!-- [A32] bprop_f1:CLK&#45;&gt;[A33] bprop_tau2015_clk -->
<g id="edge1" class="edge">
<title>[A32] bprop_f1:CLK&#45;&gt;[A33] bprop_tau2015_clk</title>
<path fill="none" stroke="black" d="M198.04,-71.7C198.04,-63.98 198.04,-54.71 198.04,-46.11"/>
<polygon fill="black" stroke="black" points="201.54,-46.1 198.04,-36.1 194.54,-46.1 201.54,-46.1"/>
</g>
<!-- [A31] bprop_f1:Q -->
<g id="node3" class="node">
<title>[A31] bprop_f1:Q</title>
<ellipse fill="black" stroke="black" cx="279.04" cy="-162" rx="89.88" ry="18"/>
<text text-anchor="middle" x="279.04" y="-158.3" font-family="Times,serif" font-size="14.00" fill="white">[A31] bprop_f1:Q</text>
</g>
<!-- [A31] bprop_f1:Q&#45;&gt;[A32] bprop_f1:CLK -->
<g id="edge2" class="edge">
<title>[A31] bprop_f1:Q&#45;&gt;[A32] bprop_f1:CLK</title>
<path fill="none" stroke="black" d="M254.01,-144.41C242.8,-135.56 229.82,-124.52 219.12,-114.77"/>
<polygon fill="black" stroke="black" points="221.49,-112.2 211.78,-107.96 216.73,-117.33 221.49,-112.2"/>
</g>
<!-- [A31] bprop_f1:Q&#45;&gt;[A32] bprop_f1:CLK -->
<g id="edge3" class="edge">
<title>[A31] bprop_f1:Q&#45;&gt;[A32] bprop_f1:CLK</title>
<path fill="none" stroke="black" d="M265.31,-144.05C255.84,-135.05 243.05,-123.84 231.11,-114.05"/>
<polygon fill="black" stroke="black" points="233.01,-111.09 223.03,-107.55 228.62,-116.55 233.01,-111.09"/>
</g>
<!-- [A30] bprop_u4:B -->
<g id="node4" class="node">
<title>[A30] bprop_u4:B</title>
<ellipse fill="black" stroke="black" cx="280.04" cy="-234" rx="91.78" ry="18"/>
<text text-anchor="middle" x="280.04" y="-230.3" font-family="Times,serif" font-size="14.00" fill="white">[A30] bprop_u4:B</text>
</g>
<!-- [A30] bprop_u4:B&#45;&gt;[A31] bprop_f1:Q -->
<g id="edge4" class="edge">
<title>[A30] bprop_u4:B&#45;&gt;[A31] bprop_f1:Q</title>
<path fill="none" stroke="black" d="M279.79,-215.7C279.68,-207.98 279.55,-198.71 279.43,-190.11"/>
<polygon fill="black" stroke="black" points="282.93,-190.05 279.29,-180.1 275.93,-190.15 282.93,-190.05"/>
</g>
<!-- [A29] bprop_u2:A -->
<g id="node5" class="node">
<title>[A29] bprop_u2:A</title>
<ellipse fill="black" stroke="black" cx="681.04" cy="-234" rx="90.98" ry="18"/>
<text text-anchor="middle" x="681.04" y="-230.3" font-family="Times,serif" font-size="14.00" fill="white">[A29] bprop_u2:A</text>
</g>
<!-- [A29] bprop_u2:A&#45;&gt;[A31] bprop_f1:Q -->
<g id="edge5" class="edge">
<title>[A29] bprop_u2:A&#45;&gt;[A31] bprop_f1:Q</title>
<path fill="none" stroke="black" d="M615.11,-221.52C543.48,-209.05 429.27,-189.16 354.21,-176.09"/>
<polygon fill="black" stroke="black" points="354.8,-172.64 344.34,-174.37 353.59,-179.53 354.8,-172.64"/>
</g>
<!-- [A28] bprop_u2:Y -->
<g id="node6" class="node">
<title>[A28] bprop_u2:Y</title>
<ellipse fill="black" stroke="black" cx="681.04" cy="-306" rx="90.98" ry="18"/>
<text text-anchor="middle" x="681.04" y="-302.3" font-family="Times,serif" font-size="14.00" fill="white">[A28] bprop_u2:Y</text>
</g>
<!-- [A28] bprop_u2:Y&#45;&gt;[A29] bprop_u2:A -->
<g id="edge6" class="edge">
<title>[A28] bprop_u2:Y&#45;&gt;[A29] bprop_u2:A</title>
<path fill="none" stroke="black" d="M675.13,-287.7C674.33,-279.98 674.1,-270.71 674.45,-262.11"/>
<polygon fill="black" stroke="black" points="677.94,-262.32 675.15,-252.1 670.96,-261.84 677.94,-262.32"/>
</g>
<!-- [A28] bprop_u2:Y&#45;&gt;[A29] bprop_u2:A -->
<g id="edge7" class="edge">
<title>[A28] bprop_u2:Y&#45;&gt;[A29] bprop_u2:A</title>
<path fill="none" stroke="black" d="M686.96,-287.7C687.75,-279.98 687.98,-270.71 687.64,-262.11"/>
<polygon fill="black" stroke="black" points="691.13,-261.84 686.94,-252.1 684.14,-262.32 691.13,-261.84"/>
</g>
<!-- [A27] bprop_u3:A -->
<g id="node7" class="node">
<title>[A27] bprop_u3:A</title>
<ellipse fill="black" stroke="black" cx="676.04" cy="-378" rx="90.98" ry="18"/>
<text text-anchor="middle" x="676.04" y="-374.3" font-family="Times,serif" font-size="14.00" fill="white">[A27] bprop_u3:A</text>
</g>
<!-- [A27] bprop_u3:A&#45;&gt;[A28] bprop_u2:Y -->
<g id="edge8" class="edge">
<title>[A27] bprop_u3:A&#45;&gt;[A28] bprop_u2:Y</title>
<path fill="none" stroke="black" d="M677.28,-359.7C677.83,-351.98 678.49,-342.71 679.11,-334.11"/>
<polygon fill="black" stroke="black" points="682.6,-334.33 679.82,-324.1 675.62,-333.83 682.6,-334.33"/>
</g>
<!-- [A26] bprop_u3:Y -->
<g id="node8" class="node">
<title>[A26] bprop_u3:Y</title>
<ellipse fill="black" stroke="black" cx="676.04" cy="-450" rx="90.98" ry="18"/>
<text text-anchor="middle" x="676.04" y="-446.3" font-family="Times,serif" font-size="14.00" fill="white">[A26] bprop_u3:Y</text>
</g>
<!-- [A26] bprop_u3:Y&#45;&gt;[A27] bprop_u3:A -->
<g id="edge9" class="edge">
<title>[A26] bprop_u3:Y&#45;&gt;[A27] bprop_u3:A</title>
<path fill="none" stroke="black" d="M670.13,-431.7C669.33,-423.98 669.1,-414.71 669.45,-406.11"/>
<polygon fill="black" stroke="black" points="672.94,-406.32 670.15,-396.1 665.96,-405.84 672.94,-406.32"/>
</g>
<!-- [A26] bprop_u3:Y&#45;&gt;[A27] bprop_u3:A -->
<g id="edge10" class="edge">
<title>[A26] bprop_u3:Y&#45;&gt;[A27] bprop_u3:A</title>
<path fill="none" stroke="black" d="M681.96,-431.7C682.75,-423.98 682.98,-414.71 682.64,-406.11"/>
<polygon fill="black" stroke="black" points="686.13,-405.84 681.94,-396.1 679.14,-406.32 686.13,-405.84"/>
</g>
<!-- [A25] bprop_out -->
<g id="node9" class="node">
<title>[A25] bprop_out</title>
<ellipse fill="black" stroke="black" cx="658.04" cy="-522" rx="85.29" ry="18"/>
<text text-anchor="middle" x="658.04" y="-518.3" font-family="Times,serif" font-size="14.00" fill="white">[A25] bprop_out</text>
</g>
<!-- [A25] bprop_out&#45;&gt;[A26] bprop_u3:Y -->
<g id="edge11" class="edge">
<title>[A25] bprop_out&#45;&gt;[A26] bprop_u3:Y</title>
<path fill="none" stroke="black" d="M662.49,-503.7C664.5,-495.9 666.91,-486.51 669.14,-477.83"/>
<polygon fill="black" stroke="black" points="672.54,-478.66 671.64,-468.1 665.76,-476.92 672.54,-478.66"/>
</g>
<!-- [A24] bprop_inp2 -->
<g id="node10" class="node">
<title>[A24] bprop_inp2</title>
<ellipse fill="black" stroke="black" cx="457.04" cy="-18" rx="90.98" ry="18"/>
<text text-anchor="middle" x="457.04" y="-14.3" font-family="Times,serif" font-size="14.00" fill="white">[A24] bprop_inp2</text>
</g>
<!-- [A23] bprop_u1:B -->
<g id="node11" class="node">
<title>[A23] bprop_u1:B</title>
<ellipse fill="black" stroke="black" cx="457.04" cy="-90" rx="91.78" ry="18"/>
<text text-anchor="middle" x="457.04" y="-86.3" font-family="Times,serif" font-size="14.00" fill="white">[A23] bprop_u1:B</text>
</g>
<!-- [A23] bprop_u1:B&#45;&gt;[A24] bprop_inp2 -->
<g id="edge12" class="edge">
<title>[A23] bprop_u1:B&#45;&gt;[A24] bprop_inp2</title>
<path fill="none" stroke="black" d="M457.04,-71.7C457.04,-63.98 457.04,-54.71 457.04,-46.11"/>
<polygon fill="black" stroke="black" points="460.54,-46.1 457.04,-36.1 453.54,-46.1 460.54,-46.1"/>
</g>
<!-- [A22] bprop_inp1 -->
<g id="node12" class="node">
<title>[A22] bprop_inp1</title>
<ellipse fill="black" stroke="black" cx="658.04" cy="-18" rx="90.98" ry="18"/>
<text text-anchor="middle" x="658.04" y="-14.3" font-family="Times,serif" font-size="14.00" fill="white">[A22] bprop_inp1</text>
</g>
<!-- [A21] bprop_u1:A -->
<g id="node13" class="node">
<title>[A21] bprop_u1:A</title>
<ellipse fill="black" stroke="black" cx="658.04" cy="-90" rx="90.98" ry="18"/>
<text text-anchor="middle" x="658.04" y="-86.3" font-family="Times,serif" font-size="14.00" fill="white">[A21] bprop_u1:A</text>
</g>
<!-- [A21] bprop_u1:A&#45;&gt;[A22] bprop_inp1 -->
<g id="edge13" class="edge">
<title>[A21] bprop_u1:A&#45;&gt;[A22] bprop_inp1</title>
<path fill="none" stroke="black" d="M658.04,-71.7C658.04,-63.98 658.04,-54.71 658.04,-46.11"/>
<polygon fill="black" stroke="black" points="661.54,-46.1 658.04,-36.1 654.54,-46.1 661.54,-46.1"/>
</g>
<!-- [A20] bprop_u1:Y -->
<g id="node14" class="node">
<title>[A20] bprop_u1:Y</title>
<ellipse fill="black" stroke="black" cx="481.04" cy="-162" rx="90.98" ry="18"/>
<text text-anchor="middle" x="481.04" y="-158.3" font-family="Times,serif" font-size="14.00" fill="white">[A20] bprop_u1:Y</text>
</g>
<!-- [A20] bprop_u1:Y&#45;&gt;[A23] bprop_u1:B -->
<g id="edge15" class="edge">
<title>[A20] bprop_u1:Y&#45;&gt;[A23] bprop_u1:B</title>
<path fill="none" stroke="black" d="M469.35,-144.05C465.85,-136.26 462.38,-126.82 459.73,-118.08"/>
<polygon fill="black" stroke="black" points="463.07,-117 457.05,-108.28 456.31,-118.84 463.07,-117"/>
</g>
<!-- [A20] bprop_u1:Y&#45;&gt;[A23] bprop_u1:B -->
<g id="edge17" class="edge">
<title>[A20] bprop_u1:Y&#45;&gt;[A23] bprop_u1:B</title>
<path fill="none" stroke="black" d="M481.03,-143.7C479.14,-135.81 476.09,-126.3 472.72,-117.55"/>
<polygon fill="black" stroke="black" points="475.86,-116 468.8,-108.1 469.4,-118.68 475.86,-116"/>
</g>
<!-- [A20] bprop_u1:Y&#45;&gt;[A21] bprop_u1:A -->
<g id="edge14" class="edge">
<title>[A20] bprop_u1:Y&#45;&gt;[A21] bprop_u1:A</title>
<path fill="none" stroke="black" d="M515.02,-145.29C540.53,-134.72 575.8,-120.72 604.98,-109.59"/>
<polygon fill="black" stroke="black" points="606.51,-112.76 614.62,-105.94 604.03,-106.21 606.51,-112.76"/>
</g>
<!-- [A20] bprop_u1:Y&#45;&gt;[A21] bprop_u1:A -->
<g id="edge16" class="edge">
<title>[A20] bprop_u1:Y&#45;&gt;[A21] bprop_u1:A</title>
<path fill="none" stroke="black" d="M524.22,-146.15C551.65,-135.82 586.96,-121.92 614.47,-110.66"/>
<polygon fill="black" stroke="black" points="615.94,-113.84 623.85,-106.8 613.27,-107.37 615.94,-113.84"/>
</g>
<!-- [A19] bprop_u4:A -->
<g id="node15" class="node">
<title>[A19] bprop_u4:A</title>
<ellipse fill="black" stroke="black" cx="481.04" cy="-234" rx="90.98" ry="18"/>
<text text-anchor="middle" x="481.04" y="-230.3" font-family="Times,serif" font-size="14.00" fill="white">[A19] bprop_u4:A</text>
</g>
<!-- [A19] bprop_u4:A&#45;&gt;[A20] bprop_u1:Y -->
<g id="edge18" class="edge">
<title>[A19] bprop_u4:A&#45;&gt;[A20] bprop_u1:Y</title>
<path fill="none" stroke="black" d="M481.04,-215.7C481.04,-207.98 481.04,-198.71 481.04,-190.11"/>
<polygon fill="black" stroke="black" points="484.54,-190.1 481.04,-180.1 477.54,-190.1 484.54,-190.1"/>
</g>
<!-- [A18] bprop_u4:Y -->
<g id="node16" class="node">
<title>[A18] bprop_u4:Y</title>
<ellipse fill="black" stroke="black" cx="280.04" cy="-306" rx="90.98" ry="18"/>
<text text-anchor="middle" x="280.04" y="-302.3" font-family="Times,serif" font-size="14.00" fill="white">[A18] bprop_u4:Y</text>
</g>
<!-- [A18] bprop_u4:Y&#45;&gt;[A30] bprop_u4:B -->
<g id="edge20" class="edge">
<title>[A18] bprop_u4:Y&#45;&gt;[A30] bprop_u4:B</title>
<path fill="none" stroke="black" d="M274.13,-287.7C273.33,-279.98 273.1,-270.71 273.45,-262.11"/>
<polygon fill="black" stroke="black" points="276.94,-262.32 274.15,-252.1 269.96,-261.84 276.94,-262.32"/>
</g>
<!-- [A18] bprop_u4:Y&#45;&gt;[A30] bprop_u4:B -->
<g id="edge22" class="edge">
<title>[A18] bprop_u4:Y&#45;&gt;[A30] bprop_u4:B</title>
<path fill="none" stroke="black" d="M285.96,-287.7C286.75,-279.98 286.98,-270.71 286.64,-262.11"/>
<polygon fill="black" stroke="black" points="290.13,-261.84 285.94,-252.1 283.14,-262.32 290.13,-261.84"/>
</g>
<!-- [A18] bprop_u4:Y&#45;&gt;[A19] bprop_u4:A -->
<g id="edge19" class="edge">
<title>[A18] bprop_u4:Y&#45;&gt;[A19] bprop_u4:A</title>
<path fill="none" stroke="black" d="M318.45,-289.64C348.38,-278.76 390.28,-264.14 424.09,-252.76"/>
<polygon fill="black" stroke="black" points="425.48,-255.98 433.85,-249.49 423.25,-249.35 425.48,-255.98"/>
</g>
<!-- [A18] bprop_u4:Y&#45;&gt;[A19] bprop_u4:A -->
<g id="edge21" class="edge">
<title>[A18] bprop_u4:Y&#45;&gt;[A19] bprop_u4:A</title>
<path fill="none" stroke="black" d="M327.03,-290.58C358.92,-279.95 400.87,-265.4 432.98,-253.85"/>
<polygon fill="black" stroke="black" points="434.39,-257.06 442.61,-250.37 432.01,-250.48 434.39,-257.06"/>
</g>
<!-- [A17] bprop_f1:D -->
<g id="node17" class="node">
<title>[A17] bprop_f1:D</title>
<ellipse fill="black" stroke="black" cx="187.04" cy="-378" rx="89.88" ry="18"/>
<text text-anchor="middle" x="187.04" y="-374.3" font-family="Times,serif" font-size="14.00" fill="white">[A17] bprop_f1:D</text>
</g>
<!-- [A17] bprop_f1:D&#45;&gt;[A32] bprop_f1:CLK -->
<g id="edge23" class="edge">
<title>[A17] bprop_f1:D&#45;&gt;[A32] bprop_f1:CLK</title>
<path fill="none" stroke="black" d="M179.5,-359.88C169.3,-321.11 157.3,-223.76 171.04,-144 172.58,-135.05 175.4,-125.58 178.79,-117.15"/>
<polygon fill="black" stroke="black" points="182.07,-118.39 182.99,-107.83 175.69,-115.51 182.07,-118.39"/>
</g>
<!-- [A17] bprop_f1:D&#45;&gt;[A32] bprop_f1:CLK -->
<g id="edge24" class="edge">
<title>[A17] bprop_f1:D&#45;&gt;[A32] bprop_f1:CLK</title>
<path fill="none" stroke="black" d="M188.92,-359.88C187.3,-321.11 175.3,-223.76 189.04,-144 190.53,-135.38 193.19,-126.27 195.63,-118.08"/>
<polygon fill="black" stroke="black" points="199.05,-118.89 198.5,-108.31 192.33,-116.92 199.05,-118.89"/>
</g>
<!-- [A17] bprop_f1:D&#45;&gt;[A18] bprop_u4:Y -->
<g id="edge25" class="edge">
<title>[A17] bprop_f1:D&#45;&gt;[A18] bprop_u4:Y</title>
<path fill="none" stroke="black" d="M209.08,-360.41C221.15,-351.32 236.3,-339.92 249.5,-329.99"/>
<polygon fill="black" stroke="black" points="251.95,-332.52 257.84,-323.71 247.74,-326.93 251.95,-332.52"/>
</g>
<!-- [A16] fprop_f1:D -->
<g id="node18" class="node">
<title>[A16] fprop_f1:D</title>
<ellipse fill="none" stroke="black" cx="400.04" cy="-738" rx="87.18" ry="18"/>
<text text-anchor="middle" x="400.04" y="-734.3" font-family="Times,serif" font-size="14.00">[A16] fprop_f1:D</text>
</g>
<!-- [A16] fprop_f1:D&#45;&gt;[A17] bprop_f1:D -->
<g id="edge26" class="edge">
<title>[A16] fprop_f1:D&#45;&gt;[A17] bprop_f1:D</title>
<path fill="none" stroke="black" d="M365.67,-721.3C323.64,-699.46 258.04,-655.66 258.04,-595 258.04,-595 258.04,-595 258.04,-521 258.04,-476.23 229.46,-431.11 208.57,-404.1"/>
<polygon fill="black" stroke="black" points="211.07,-401.63 202.1,-396 205.6,-406 211.07,-401.63"/>
</g>
<!-- [A15] fprop_u4:Y -->
<g id="node19" class="node">
<title>[A15] fprop_u4:Y</title>
<ellipse fill="none" stroke="black" cx="372.04" cy="-810" rx="88.28" ry="18"/>
<text text-anchor="middle" x="372.04" y="-806.3" font-family="Times,serif" font-size="14.00">[A15] fprop_u4:Y</text>
</g>
<!-- [A15] fprop_u4:Y&#45;&gt;[A16] fprop_f1:D -->
<g id="edge27" class="edge">
<title>[A15] fprop_u4:Y&#45;&gt;[A16] fprop_f1:D</title>
<path fill="none" stroke="black" d="M378.96,-791.7C382.12,-783.81 385.92,-774.3 389.42,-765.55"/>
<polygon fill="black" stroke="black" points="392.74,-766.69 393.2,-756.1 386.24,-764.09 392.74,-766.69"/>
</g>
<!-- [A14] fprop_u4:A -->
<g id="node20" class="node">
<title>[A14] fprop_u4:A</title>
<ellipse fill="none" stroke="black" cx="187.04" cy="-882" rx="89.08" ry="18"/>
<text text-anchor="middle" x="187.04" y="-878.3" font-family="Times,serif" font-size="14.00">[A14] fprop_u4:A</text>
</g>
<!-- [A14] fprop_u4:A&#45;&gt;[A15] fprop_u4:Y -->
<g id="edge28" class="edge">
<title>[A14] fprop_u4:A&#45;&gt;[A15] fprop_u4:Y</title>
<path fill="none" stroke="black" d="M222.38,-865.46C249.44,-854.74 287.13,-840.45 317.96,-829.19"/>
<polygon fill="black" stroke="black" points="319.5,-832.36 327.7,-825.65 317.11,-825.78 319.5,-832.36"/>
</g>
<!-- [A14] fprop_u4:A&#45;&gt;[A15] fprop_u4:Y -->
<g id="edge29" class="edge">
<title>[A14] fprop_u4:A&#45;&gt;[A15] fprop_u4:Y</title>
<path fill="none" stroke="black" d="M231.44,-866.33C260.37,-855.88 297.91,-841.74 326.97,-830.37"/>
<polygon fill="black" stroke="black" points="328.45,-833.55 336.47,-826.63 325.89,-827.03 328.45,-833.55"/>
</g>
<!-- [A13] fprop_u1:Y -->
<g id="node21" class="node">
<title>[A13] fprop_u1:Y</title>
<ellipse fill="none" stroke="black" cx="187.04" cy="-954" rx="88.28" ry="18"/>
<text text-anchor="middle" x="187.04" y="-950.3" font-family="Times,serif" font-size="14.00">[A13] fprop_u1:Y</text>
</g>
<!-- [A13] fprop_u1:Y&#45;&gt;[A14] fprop_u4:A -->
<g id="edge30" class="edge">
<title>[A13] fprop_u1:Y&#45;&gt;[A14] fprop_u4:A</title>
<path fill="none" stroke="black" d="M187.04,-935.7C187.04,-927.98 187.04,-918.71 187.04,-910.11"/>
<polygon fill="black" stroke="black" points="190.54,-910.1 187.04,-900.1 183.54,-910.1 190.54,-910.1"/>
</g>
<!-- [A12] fprop_u1:A -->
<g id="node22" class="node">
<title>[A12] fprop_u1:A</title>
<ellipse fill="none" stroke="black" cx="89.04" cy="-1026" rx="89.08" ry="18"/>
<text text-anchor="middle" x="89.04" y="-1022.3" font-family="Times,serif" font-size="14.00">[A12] fprop_u1:A</text>
</g>
<!-- [A12] fprop_u1:A&#45;&gt;[A13] fprop_u1:Y -->
<g id="edge31" class="edge">
<title>[A12] fprop_u1:A&#45;&gt;[A13] fprop_u1:Y</title>
<path fill="none" stroke="black" d="M106.89,-1008.05C119.05,-998.65 135.43,-986.85 150.26,-976.77"/>
<polygon fill="black" stroke="black" points="152.41,-979.54 158.77,-971.07 148.51,-973.73 152.41,-979.54"/>
</g>
<!-- [A12] fprop_u1:A&#45;&gt;[A13] fprop_u1:Y -->
<g id="edge32" class="edge">
<title>[A12] fprop_u1:A&#45;&gt;[A13] fprop_u1:Y</title>
<path fill="none" stroke="black" d="M117.57,-1008.76C131.3,-999.69 147.56,-988.22 160.95,-978.21"/>
<polygon fill="black" stroke="black" points="163.44,-980.71 169.28,-971.88 159.2,-975.14 163.44,-980.71"/>
</g>
<!-- [A11] fprop_inp1 -->
<g id="node23" class="node">
<title>[A11] fprop_inp1</title>
<ellipse fill="none" stroke="black" cx="89.04" cy="-1098" rx="88.28" ry="18"/>
<text text-anchor="middle" x="89.04" y="-1094.3" font-family="Times,serif" font-size="14.00">[A11] fprop_inp1</text>
</g>
<!-- [A11] fprop_inp1&#45;&gt;[A12] fprop_u1:A -->
<g id="edge33" class="edge">
<title>[A11] fprop_inp1&#45;&gt;[A12] fprop_u1:A</title>
<path fill="none" stroke="black" d="M89.04,-1079.7C89.04,-1071.98 89.04,-1062.71 89.04,-1054.11"/>
<polygon fill="black" stroke="black" points="92.54,-1054.1 89.04,-1044.1 85.54,-1054.1 92.54,-1054.1"/>
</g>
<!-- [A10] fprop_u1:B -->
<g id="node24" class="node">
<title>[A10] fprop_u1:B</title>
<ellipse fill="none" stroke="black" cx="285.04" cy="-1026" rx="89.08" ry="18"/>
<text text-anchor="middle" x="285.04" y="-1022.3" font-family="Times,serif" font-size="14.00">[A10] fprop_u1:B</text>
</g>
<!-- [A10] fprop_u1:B&#45;&gt;[A13] fprop_u1:Y -->
<g id="edge34" class="edge">
<title>[A10] fprop_u1:B&#45;&gt;[A13] fprop_u1:Y</title>
<path fill="none" stroke="black" d="M256.51,-1008.76C242.78,-999.69 226.53,-988.22 213.13,-978.21"/>
<polygon fill="black" stroke="black" points="214.88,-975.14 204.8,-971.88 210.65,-980.71 214.88,-975.14"/>
</g>
<!-- [A10] fprop_u1:B&#45;&gt;[A13] fprop_u1:Y -->
<g id="edge35" class="edge">
<title>[A10] fprop_u1:B&#45;&gt;[A13] fprop_u1:Y</title>
<path fill="none" stroke="black" d="M267.2,-1008.05C255.03,-998.65 238.66,-986.85 223.83,-976.77"/>
<polygon fill="black" stroke="black" points="225.57,-973.73 215.32,-971.07 221.67,-979.54 225.57,-973.73"/>
</g>
<!-- [A9] fprop_inp2 -->
<g id="node25" class="node">
<title>[A9] fprop_inp2</title>
<ellipse fill="none" stroke="black" cx="285.04" cy="-1098" rx="82.59" ry="18"/>
<text text-anchor="middle" x="285.04" y="-1094.3" font-family="Times,serif" font-size="14.00">[A9] fprop_inp2</text>
</g>
<!-- [A9] fprop_inp2&#45;&gt;[A10] fprop_u1:B -->
<g id="edge36" class="edge">
<title>[A9] fprop_inp2&#45;&gt;[A10] fprop_u1:B</title>
<path fill="none" stroke="black" d="M285.04,-1079.7C285.04,-1071.98 285.04,-1062.71 285.04,-1054.11"/>
<polygon fill="black" stroke="black" points="288.54,-1054.1 285.04,-1044.1 281.54,-1054.1 288.54,-1054.1"/>
</g>
<!-- [A8] fprop_out -->
<g id="node26" class="node">
<title>[A8] fprop_out</title>
<ellipse fill="none" stroke="black" cx="649.04" cy="-594" rx="77.19" ry="18"/>
<text text-anchor="middle" x="649.04" y="-590.3" font-family="Times,serif" font-size="14.00">[A8] fprop_out</text>
</g>
<!-- [A8] fprop_out&#45;&gt;[A25] bprop_out -->
<g id="edge37" class="edge">
<title>[A8] fprop_out&#45;&gt;[A25] bprop_out</title>
<path fill="none" stroke="black" d="M651.27,-575.7C652.26,-567.98 653.45,-558.71 654.56,-550.11"/>
<polygon fill="black" stroke="black" points="658.04,-550.47 655.84,-540.1 651.1,-549.58 658.04,-550.47"/>
</g>
<!-- [A7] fprop_u3:Y -->
<g id="node27" class="node">
<title>[A7] fprop_u3:Y</title>
<ellipse fill="none" stroke="black" cx="644.04" cy="-666" rx="82.59" ry="18"/>
<text text-anchor="middle" x="644.04" y="-662.3" font-family="Times,serif" font-size="14.00">[A7] fprop_u3:Y</text>
</g>
<!-- [A7] fprop_u3:Y&#45;&gt;[A8] fprop_out -->
<g id="edge38" class="edge">
<title>[A7] fprop_u3:Y&#45;&gt;[A8] fprop_out</title>
<path fill="none" stroke="black" d="M645.28,-647.7C645.83,-639.98 646.49,-630.71 647.11,-622.11"/>
<polygon fill="black" stroke="black" points="650.6,-622.33 647.82,-612.1 643.62,-621.83 650.6,-622.33"/>
</g>
<!-- [A6] fprop_u3:A -->
<g id="node28" class="node">
<title>[A6] fprop_u3:A</title>
<ellipse fill="none" stroke="black" cx="644.04" cy="-738" rx="83.39" ry="18"/>
<text text-anchor="middle" x="644.04" y="-734.3" font-family="Times,serif" font-size="14.00">[A6] fprop_u3:A</text>
</g>
<!-- [A6] fprop_u3:A&#45;&gt;[A7] fprop_u3:Y -->
<g id="edge39" class="edge">
<title>[A6] fprop_u3:A&#45;&gt;[A7] fprop_u3:Y</title>
<path fill="none" stroke="black" d="M638.13,-719.7C637.33,-711.98 637.1,-702.71 637.45,-694.11"/>
<polygon fill="black" stroke="black" points="640.94,-694.32 638.15,-684.1 633.96,-693.84 640.94,-694.32"/>
</g>
<!-- [A6] fprop_u3:A&#45;&gt;[A7] fprop_u3:Y -->
<g id="edge40" class="edge">
<title>[A6] fprop_u3:A&#45;&gt;[A7] fprop_u3:Y</title>
<path fill="none" stroke="black" d="M649.96,-719.7C650.75,-711.98 650.98,-702.71 650.64,-694.11"/>
<polygon fill="black" stroke="black" points="654.13,-693.84 649.94,-684.1 647.14,-694.32 654.13,-693.84"/>
</g>
<!-- [A5] fprop_u2:Y -->
<g id="node29" class="node">
<title>[A5] fprop_u2:Y</title>
<ellipse fill="none" stroke="black" cx="635.04" cy="-810" rx="82.59" ry="18"/>
<text text-anchor="middle" x="635.04" y="-806.3" font-family="Times,serif" font-size="14.00">[A5] fprop_u2:Y</text>
</g>
<!-- [A5] fprop_u2:Y&#45;&gt;[A6] fprop_u3:A -->
<g id="edge41" class="edge">
<title>[A5] fprop_u2:Y&#45;&gt;[A6] fprop_u3:A</title>
<path fill="none" stroke="black" d="M637.27,-791.7C638.26,-783.98 639.45,-774.71 640.56,-766.11"/>
<polygon fill="black" stroke="black" points="644.04,-766.47 641.84,-756.1 637.1,-765.58 644.04,-766.47"/>
</g>
<!-- [A4] fprop_u2:A -->
<g id="node30" class="node">
<title>[A4] fprop_u2:A</title>
<ellipse fill="none" stroke="black" cx="635.04" cy="-882" rx="83.39" ry="18"/>
<text text-anchor="middle" x="635.04" y="-878.3" font-family="Times,serif" font-size="14.00">[A4] fprop_u2:A</text>
</g>
<!-- [A4] fprop_u2:A&#45;&gt;[A5] fprop_u2:Y -->
<g id="edge42" class="edge">
<title>[A4] fprop_u2:A&#45;&gt;[A5] fprop_u2:Y</title>
<path fill="none" stroke="black" d="M629.13,-863.7C628.33,-855.98 628.1,-846.71 628.45,-838.11"/>
<polygon fill="black" stroke="black" points="631.94,-838.32 629.15,-828.1 624.96,-837.84 631.94,-838.32"/>
</g>
<!-- [A4] fprop_u2:A&#45;&gt;[A5] fprop_u2:Y -->
<g id="edge43" class="edge">
<title>[A4] fprop_u2:A&#45;&gt;[A5] fprop_u2:Y</title>
<path fill="none" stroke="black" d="M640.96,-863.7C641.75,-855.98 641.98,-846.71 641.64,-838.11"/>
<polygon fill="black" stroke="black" points="645.13,-837.84 640.94,-828.1 638.14,-838.32 645.13,-837.84"/>
</g>
<!-- [A3] fprop_u4:B -->
<g id="node31" class="node">
<title>[A3] fprop_u4:B</title>
<ellipse fill="none" stroke="black" cx="377.04" cy="-882" rx="83.39" ry="18"/>
<text text-anchor="middle" x="377.04" y="-878.3" font-family="Times,serif" font-size="14.00">[A3] fprop_u4:B</text>
</g>
<!-- [A3] fprop_u4:B&#45;&gt;[A15] fprop_u4:Y -->
<g id="edge44" class="edge">
<title>[A3] fprop_u4:B&#45;&gt;[A15] fprop_u4:Y</title>
<path fill="none" stroke="black" d="M369.95,-864.05C368.58,-856.35 367.68,-847.03 367.39,-838.36"/>
<polygon fill="black" stroke="black" points="370.89,-838.27 367.36,-828.28 363.89,-838.29 370.89,-838.27"/>
</g>
<!-- [A3] fprop_u4:B&#45;&gt;[A15] fprop_u4:Y -->
<g id="edge45" class="edge">
<title>[A3] fprop_u4:B&#45;&gt;[A15] fprop_u4:Y</title>
<path fill="none" stroke="black" d="M381.72,-863.7C381.97,-855.98 381.53,-846.71 380.57,-838.11"/>
<polygon fill="black" stroke="black" points="384.02,-837.52 379.16,-828.1 377.09,-838.5 384.02,-837.52"/>
</g>
<!-- [A2] fprop_f1:Q -->
<g id="node32" class="node">
<title>[A2] fprop_f1:Q</title>
<ellipse fill="none" stroke="black" cx="615.04" cy="-954" rx="81.49" ry="18"/>
<text text-anchor="middle" x="615.04" y="-950.3" font-family="Times,serif" font-size="14.00">[A2] fprop_f1:Q</text>
</g>
<!-- [A2] fprop_f1:Q&#45;&gt;[A4] fprop_u2:A -->
<g id="edge47" class="edge">
<title>[A2] fprop_f1:Q&#45;&gt;[A4] fprop_u2:A</title>
<path fill="none" stroke="black" d="M619.99,-935.7C622.21,-927.9 624.9,-918.51 627.38,-909.83"/>
<polygon fill="black" stroke="black" points="630.77,-910.68 630.16,-900.1 624.04,-908.76 630.77,-910.68"/>
</g>
<!-- [A2] fprop_f1:Q&#45;&gt;[A3] fprop_u4:B -->
<g id="edge46" class="edge">
<title>[A2] fprop_f1:Q&#45;&gt;[A3] fprop_u4:B</title>
<path fill="none" stroke="black" d="M568.3,-939.25C529.83,-927.94 475.13,-911.85 434.08,-899.78"/>
<polygon fill="black" stroke="black" points="435.07,-896.42 424.49,-896.95 433.09,-903.13 435.07,-896.42"/>
</g>
<!-- [A1] fprop_f1:CLK -->
<g id="node33" class="node">
<title>[A1] fprop_f1:CLK</title>
<ellipse fill="none" stroke="black" cx="560.04" cy="-1026" rx="93.68" ry="18"/>
<text text-anchor="middle" x="560.04" y="-1022.3" font-family="Times,serif" font-size="14.00">[A1] fprop_f1:CLK</text>
</g>
<!-- [A1] fprop_f1:CLK&#45;&gt;[A16] fprop_f1:D -->
<g id="edge50" class="edge">
<title>[A1] fprop_f1:CLK&#45;&gt;[A16] fprop_f1:D</title>
<path fill="none" stroke="black" d="M539.2,-1008.07C530.84,-998 522.09,-984.75 516.04,-972 480.16,-896.29 507.95,-860.73 460.04,-792 451.85,-780.25 440.26,-769.93 429.37,-761.6"/>
<polygon fill="black" stroke="black" points="431.38,-758.73 421.25,-755.62 427.23,-764.37 431.38,-758.73"/>
</g>
<!-- [A1] fprop_f1:CLK&#45;&gt;[A16] fprop_f1:D -->
<g id="edge51" class="edge">
<title>[A1] fprop_f1:CLK&#45;&gt;[A16] fprop_f1:D</title>
<path fill="none" stroke="black" d="M554.66,-1007.59C548.56,-997.59 539.99,-984.55 534.04,-972 498.16,-896.29 525.95,-860.73 478.04,-792 469.34,-779.51 456.8,-768.65 444.24,-760.06"/>
<polygon fill="black" stroke="black" points="445.9,-756.96 435.59,-754.49 442.1,-762.84 445.9,-756.96"/>
</g>
<!-- [A1] fprop_f1:CLK&#45;&gt;[A2] fprop_f1:Q -->
<g id="edge48" class="edge">
<title>[A1] fprop_f1:CLK&#45;&gt;[A2] fprop_f1:Q</title>
<path fill="none" stroke="black" d="M567.48,-1008.05C573.32,-999.46 581.45,-988.86 589.41,-979.4"/>
<polygon fill="black" stroke="black" points="592.09,-981.64 595.99,-971.79 586.8,-977.06 592.09,-981.64"/>
</g>
<!-- [A1] fprop_f1:CLK&#45;&gt;[A2] fprop_f1:Q -->
<g id="edge49" class="edge">
<title>[A1] fprop_f1:CLK&#45;&gt;[A2] fprop_f1:Q</title>
<path fill="none" stroke="black" d="M579.23,-1008.05C586.56,-999.84 594.67,-989.79 601.41,-980.66"/>
<polygon fill="black" stroke="black" points="604.43,-982.45 607.38,-972.28 598.73,-978.39 604.43,-982.45"/>
</g>
<!-- [A0] fprop_tau2015_clk -->
<g id="node34" class="node">
<title>[A0] fprop_tau2015_clk</title>
<ellipse fill="none" stroke="black" cx="560.04" cy="-1098" rx="118.08" ry="18"/>
<text text-anchor="middle" x="560.04" y="-1094.3" font-family="Times,serif" font-size="14.00">[A0] fprop_tau2015_clk</text>
</g>
<!-- [A0] fprop_tau2015_clk&#45;&gt;[A1] fprop_f1:CLK -->
<g id="edge52" class="edge">
<title>[A0] fprop_tau2015_clk&#45;&gt;[A1] fprop_f1:CLK</title>
<path fill="none" stroke="black" d="M560.04,-1079.7C560.04,-1071.98 560.04,-1062.71 560.04,-1054.11"/>
<polygon fill="black" stroke="black" points="563.54,-1054.1 560.04,-1044.1 556.54,-1054.1 563.54,-1054.1"/>
</g>
</g>
</svg>
