<?xml version="1.0" encoding="UTF-8" standalone="no"?>
<!DOCTYPE svg PUBLIC "-//W3C//DTD SVG 1.1//EN"
 "http://www.w3.org/Graphics/SVG/1.1/DTD/svg11.dtd">
<!-- Generated by graphviz version 12.2.1 (20241206.2353)
 -->
<!-- Title: ExceptionHandlingHard Pages: 1 -->
<svg width="647pt" height="314pt"
 viewBox="0.00 0.00 647.00 314.28" xmlns="http://www.w3.org/2000/svg" xmlns:xlink="http://www.w3.org/1999/xlink">
<g id="graph0" class="graph" transform="scale(1 1) rotate(0) translate(4 310.28)">
<title>ExceptionHandlingHard</title>
<polygon fill="white" stroke="none" points="-4,4 -4,-310.28 643,-310.28 643,4 -4,4"/>
<!-- sp1 -->
<!-- sp2 -->
<!-- sp1&#45;&gt;sp2 -->
<!-- sp3 -->
<!-- sp2&#45;&gt;sp3 -->
<!-- sp4 -->
<!-- sp3&#45;&gt;sp4 -->
<!-- hdr_app -->
<g id="node5" class="node">
<title>hdr_app</title>
<polygon fill="white" stroke="none" points="169.38,-306.28 43.35,-306.28 43.35,-278.92 169.38,-278.92 169.38,-306.28"/>
<text text-anchor="middle" x="106.36" y="-287.58" font-family="Helvetica Bold" font-size="12.00">Application Thread</text>
</g>
<!-- hdr_rt -->
<g id="node6" class="node">
<title>hdr_rt</title>
<polygon fill="white" stroke="none" points="373.62,-306.28 255.1,-306.28 255.1,-278.92 373.62,-278.92 373.62,-306.28"/>
<text text-anchor="middle" x="314.36" y="-287.58" font-family="Helvetica Bold" font-size="12.00">Taskflow Runtime</text>
</g>
<!-- hdr_app&#45;&gt;hdr_rt -->
<!-- hdr_wk -->
<g id="node7" class="node">
<title>hdr_wk</title>
<polygon fill="white" stroke="none" points="561.38,-306.28 459.35,-306.28 459.35,-278.92 561.38,-278.92 561.38,-306.28"/>
<text text-anchor="middle" x="510.36" y="-287.58" font-family="Helvetica Bold" font-size="12.00">Worker Thread</text>
</g>
<!-- hdr_rt&#45;&gt;hdr_wk -->
<!-- app1 -->
<g id="node8" class="node">
<title>app1</title>
<polygon fill="#dce8fb" stroke="black" points="187.36,-241.92 43.36,-241.92 43.36,-195.03 187.36,-195.03 187.36,-241.92"/>
<text text-anchor="middle" x="115.36" y="-226.2" font-family="Helvetica,sans-Serif" font-size="12.00">try {</text>
<text text-anchor="middle" x="115.36" y="-213.45" font-family="Helvetica,sans-Serif" font-size="12.00"> &#160;executor.run(tf).get();</text>
<text text-anchor="middle" x="115.36" y="-200.7" font-family="Helvetica,sans-Serif" font-size="12.00">}</text>
</g>
<!-- rt1 -->
<g id="node9" class="node">
<title>rt1</title>
<polygon fill="#f0f0f0" stroke="black" points="412.56,-235.54 290.16,-235.54 290.16,-201.41 412.56,-201.41 412.56,-235.54"/>
<text text-anchor="middle" x="351.36" y="-219.82" font-family="Helvetica,sans-Serif" font-size="12.00">schedules tasks</text>
<text text-anchor="middle" x="351.36" y="-207.07" font-family="Helvetica,sans-Serif" font-size="12.00">across workers</text>
</g>
<!-- app1&#45;&gt;rt1 -->
<!-- app2 -->
<g id="node11" class="node">
<title>app2</title>
<polygon fill="#dce8fb" stroke="black" points="187.36,-145.53 43.36,-145.53 43.36,-98.64 187.36,-98.64 187.36,-145.53"/>
<text text-anchor="middle" x="115.36" y="-129.81" font-family="Helvetica,sans-Serif" font-size="12.00">waiting…</text>
<text text-anchor="middle" x="115.36" y="-117.06" font-family="Helvetica,sans-Serif" font-size="12.00">(no call stack</text>
<text text-anchor="middle" x="115.36" y="-104.31" font-family="Helvetica,sans-Serif" font-size="12.00">connection)</text>
</g>
<!-- app1&#45;&gt;app2 -->
<g id="edge12" class="edge">
<title>app1&#45;&gt;app2</title>
<path fill="none" stroke="#1a5fa8" d="M115.36,-194.63C115.36,-182.45 115.36,-167.3 115.36,-154.08"/>
<polygon fill="#1a5fa8" stroke="#1a5fa8" points="117.81,-154.24 115.36,-147.24 112.91,-154.24 117.81,-154.24"/>
</g>
<!-- wk1 -->
<g id="node10" class="node">
<title>wk1</title>
<polygon fill="#fde8d0" stroke="black" points="639,-236.67 513.72,-236.67 513.72,-200.28 639,-200.28 639,-236.67"/>
<text text-anchor="middle" x="576.36" y="-220.95" font-family="Helvetica,sans-Serif" font-size="12.00">execute task()</text>
<text text-anchor="middle" x="576.36" y="-208.2" font-family="Helvetica,sans-Serif" font-size="12.00">→ throws exception!</text>
</g>
<!-- rt1&#45;&gt;wk1 -->
<!-- rt2 -->
<g id="node12" class="node">
<title>rt2</title>
<polygon fill="#fff3cd" stroke="black" points="430.12,-145.53 272.6,-145.53 272.6,-98.64 430.12,-98.64 430.12,-145.53"/>
<text text-anchor="middle" x="351.36" y="-129.81" font-family="Helvetica,sans-Serif" font-size="12.00">intercepts exception</text>
<text text-anchor="middle" x="351.36" y="-117.06" font-family="Helvetica,sans-Serif" font-size="12.00">stores it safely</text>
<text text-anchor="middle" x="351.36" y="-104.31" font-family="Helvetica,sans-Serif" font-size="12.00">cancels downstream tasks</text>
</g>
<!-- rt1&#45;&gt;rt2 -->
<g id="edge18" class="edge">
<title>rt1&#45;&gt;rt2</title>
<path fill="none" stroke="#888888" d="M351.36,-201.03C351.36,-188.11 351.36,-169.74 351.36,-154.07"/>
<polygon fill="#888888" stroke="#888888" points="353.81,-154.21 351.36,-147.21 348.91,-154.21 353.81,-154.21"/>
</g>
<!-- wk1&#45;&gt;rt2 -->
<g id="edge16" class="edge">
<title>wk1&#45;&gt;rt2</title>
<path fill="none" stroke="#cc3300" d="M534.3,-199.83C500.32,-185.57 451.98,-165.3 413.53,-149.17"/>
<polygon fill="#cc3300" stroke="#cc3300" points="414.78,-147.03 407.37,-146.58 412.88,-151.55 414.78,-147.03"/>
<text text-anchor="middle" x="497.96" y="-165.63" font-family="Helvetica,sans-Serif" font-size="12.00" fill="#cc3300"> &#160;throw &#160;</text>
</g>
<!-- wk2 -->
<g id="node13" class="node">
<title>wk2</title>
<polygon fill="#f8d7da" stroke="black" points="637.56,-146.28 515.16,-146.28 515.16,-97.89 637.56,-97.89 637.56,-146.28"/>
<text text-anchor="middle" x="576.36" y="-130.56" font-family="Helvetica,sans-Serif" font-size="12.00">exception cannot</text>
<text text-anchor="middle" x="576.36" y="-117.81" font-family="Helvetica,sans-Serif" font-size="12.00">propagate up</text>
<text text-anchor="middle" x="576.36" y="-105.06" font-family="Helvetica,sans-Serif" font-size="12.00">call stack ✗</text>
</g>
<!-- wk1&#45;&gt;wk2 -->
<g id="edge14" class="edge">
<title>wk1&#45;&gt;wk2</title>
<path fill="none" stroke="#cc3300" d="M576.36,-200.16C576.36,-187.5 576.36,-169.96 576.36,-154.81"/>
<polygon fill="#cc3300" stroke="#cc3300" points="578.81,-155.2 576.36,-148.2 573.91,-155.2 578.81,-155.2"/>
</g>
<!-- app2&#45;&gt;rt2 -->
<!-- app3 -->
<g id="node14" class="node">
<title>app3</title>
<polygon fill="#d4edda" stroke="black" points="187.36,-49.14 43.36,-49.14 43.36,0 187.36,0 187.36,-49.14"/>
<text text-anchor="middle" x="115.36" y="-33.42" font-family="Helvetica,sans-Serif" font-size="12.00">catch (exception&amp; e) {</text>
<text text-anchor="middle" x="115.36" y="-20.67" font-family="Helvetica,sans-Serif" font-size="12.00"> &#160;// handled here ✓</text>
<text text-anchor="middle" x="115.36" y="-5.67" font-family="Helvetica,sans-Serif" font-size="12.00">}</text>
</g>
<!-- app2&#45;&gt;app3 -->
<g id="edge13" class="edge">
<title>app2&#45;&gt;app3</title>
<path fill="none" stroke="#1a5fa8" d="M115.36,-98.45C115.36,-86.32 115.36,-71.17 115.36,-57.83"/>
<polygon fill="#1a5fa8" stroke="#1a5fa8" points="117.81,-57.89 115.36,-50.89 112.91,-57.89 117.81,-57.89"/>
</g>
<!-- rt2&#45;&gt;wk2 -->
<!-- rt3 -->
<g id="node15" class="node">
<title>rt3</title>
<polygon fill="#f0f0f0" stroke="black" points="415.88,-41.64 286.85,-41.64 286.85,-7.5 415.88,-7.5 415.88,-41.64"/>
<text text-anchor="middle" x="351.36" y="-25.92" font-family="Helvetica,sans-Serif" font-size="12.00">re&#45;raises exception</text>
<text text-anchor="middle" x="351.36" y="-13.17" font-family="Helvetica,sans-Serif" font-size="12.00">on application thread</text>
</g>
<!-- rt2&#45;&gt;rt3 -->
<g id="edge19" class="edge">
<title>rt2&#45;&gt;rt3</title>
<path fill="none" stroke="#888888" d="M351.36,-98.45C351.36,-83.97 351.36,-65.18 351.36,-50.31"/>
<polygon fill="#888888" stroke="#888888" points="353.81,-50.58 351.36,-43.58 348.91,-50.58 353.81,-50.58"/>
</g>
<!-- wk3 -->
<g id="node16" class="node">
<title>wk3</title>
<polygon fill="#f0f0f0" stroke="black" points="637.56,-41.64 515.16,-41.64 515.16,-7.5 637.56,-7.5 637.56,-41.64"/>
<text text-anchor="middle" x="576.36" y="-25.92" font-family="Helvetica,sans-Serif" font-size="12.00">remaining tasks</text>
<text text-anchor="middle" x="576.36" y="-13.17" font-family="Helvetica,sans-Serif" font-size="12.00">skipped</text>
</g>
<!-- wk2&#45;&gt;wk3 -->
<g id="edge15" class="edge">
<title>wk2&#45;&gt;wk3</title>
<path fill="none" stroke="#cc3300" stroke-dasharray="5,2" d="M576.36,-97.47C576.36,-83.2 576.36,-65.02 576.36,-50.51"/>
<polygon fill="#cc3300" stroke="#cc3300" points="578.81,-50.54 576.36,-43.54 573.91,-50.54 578.81,-50.54"/>
<text text-anchor="middle" x="602.24" y="-68.49" font-family="Helvetica,sans-Serif" font-size="12.00">cancelled</text>
</g>
<!-- app3&#45;&gt;rt3 -->
<!-- rt3&#45;&gt;app3 -->
<g id="edge17" class="edge">
<title>rt3&#45;&gt;app3</title>
<path fill="none" stroke="#2a7a2a" d="M286.7,-24.57C258.69,-24.57 225.61,-24.57 196.02,-24.57"/>
<polygon fill="#2a7a2a" stroke="#2a7a2a" points="196.29,-22.12 189.29,-24.57 196.29,-27.02 196.29,-22.12"/>
<text text-anchor="middle" x="237.1" y="-28.92" font-family="Helvetica,sans-Serif" font-size="12.00" fill="#2a7a2a"> &#160;rethrow &#160;</text>
</g>
<!-- rt3&#45;&gt;wk3 -->
</g>
</svg>
