<?xml version="1.0" encoding="UTF-8" standalone="no"?>
<!DOCTYPE svg PUBLIC "-//W3C//DTD SVG 1.1//EN"
 "http://www.w3.org/Graphics/SVG/1.1/DTD/svg11.dtd">
<!-- Generated by graphviz version 12.2.1 (20241206.2353)
 -->
<!-- Title: TSP Pages: 1 -->
<svg width="679pt" height="321pt"
 viewBox="0.00 0.00 679.15 321.29" xmlns="http://www.w3.org/2000/svg" xmlns:xlink="http://www.w3.org/1999/xlink">
<g id="graph0" class="graph" transform="scale(1 1) rotate(0) translate(4 317.29)">
<title>TSP</title>
<polygon fill="white" stroke="none" points="-4,4 -4,-317.29 675.15,-317.29 675.15,4 -4,4"/>
<!-- root -->
<g id="node1" class="node">
<title>root</title>
<polygon fill="#fde8d0" stroke="black" points="364.52,-313.29 290.12,-313.29 290.12,-285.03 364.52,-285.03 364.52,-313.29"/>
<text text-anchor="middle" x="327.32" y="-300.91" font-family="Helvetica,sans-Serif" font-size="10.00">A</text>
<text text-anchor="middle" x="327.32" y="-289.66" font-family="Helvetica,sans-Serif" font-size="10.00">cost=0, lb=55</text>
</g>
<!-- AB -->
<g id="node2" class="node">
<title>AB</title>
<polygon fill="#fde8d0" stroke="black" points="207.15,-225.28 127.5,-225.28 127.5,-195.52 207.15,-195.52 207.15,-225.28"/>
<text text-anchor="middle" x="167.32" y="-212.9" font-family="Helvetica,sans-Serif" font-size="10.00">A→B</text>
<text text-anchor="middle" x="167.32" y="-200.15" font-family="Helvetica,sans-Serif" font-size="10.00">cost=10, lb=70</text>
</g>
<!-- root&#45;&gt;AB -->
<g id="edge1" class="edge">
<title>root&#45;&gt;AB</title>
<path fill="none" stroke="#555555" d="M302.32,-284.6C274.75,-269.65 230.29,-245.54 199.99,-229.11"/>
<polygon fill="#555555" stroke="#555555" points="201.35,-227.46 195.08,-226.45 199.35,-231.15 201.35,-227.46"/>
<text text-anchor="middle" x="264.78" y="-251.48" font-family="Helvetica,sans-Serif" font-size="9.00">+10</text>
</g>
<!-- AC -->
<g id="node3" class="node">
<title>AC</title>
<polygon fill="#fde8d0" stroke="black" points="367.15,-225.28 287.5,-225.28 287.5,-195.52 367.15,-195.52 367.15,-225.28"/>
<text text-anchor="middle" x="327.32" y="-212.9" font-family="Helvetica,sans-Serif" font-size="10.00">A→C</text>
<text text-anchor="middle" x="327.32" y="-200.15" font-family="Helvetica,sans-Serif" font-size="10.00">cost=15, lb=75</text>
</g>
<!-- root&#45;&gt;AC -->
<g id="edge2" class="edge">
<title>root&#45;&gt;AC</title>
<path fill="none" stroke="#555555" d="M327.32,-284.6C327.32,-270.84 327.32,-249.32 327.32,-233.17"/>
<polygon fill="#555555" stroke="#555555" points="329.43,-233.24 327.33,-227.24 325.23,-233.24 329.43,-233.24"/>
<text text-anchor="middle" x="335.2" y="-251.48" font-family="Helvetica,sans-Serif" font-size="9.00">+15</text>
</g>
<!-- AD -->
<g id="node4" class="node">
<title>AD</title>
<polygon fill="#fde8d0" stroke="black" points="555.15,-225.28 475.5,-225.28 475.5,-195.52 555.15,-195.52 555.15,-225.28"/>
<text text-anchor="middle" x="515.33" y="-212.9" font-family="Helvetica,sans-Serif" font-size="10.00">A→D</text>
<text text-anchor="middle" x="515.33" y="-200.15" font-family="Helvetica,sans-Serif" font-size="10.00">cost=20, lb=70</text>
</g>
<!-- root&#45;&gt;AD -->
<g id="edge3" class="edge">
<title>root&#45;&gt;AD</title>
<path fill="none" stroke="#555555" d="M356.7,-284.6C389.37,-269.53 442.21,-245.14 477.84,-228.7"/>
<polygon fill="#555555" stroke="#555555" points="478.34,-230.78 482.91,-226.36 476.58,-226.97 478.34,-230.78"/>
<text text-anchor="middle" x="434.84" y="-251.48" font-family="Helvetica,sans-Serif" font-size="9.00">+20</text>
</g>
<!-- ABC -->
<g id="node5" class="node">
<title>ABC</title>
<polygon fill="#fde8d0" stroke="black" points="87.15,-129.39 7.5,-129.39 7.5,-99.63 87.15,-99.63 87.15,-129.39"/>
<text text-anchor="middle" x="47.32" y="-117.01" font-family="Helvetica,sans-Serif" font-size="10.00">A→B→C</text>
<text text-anchor="middle" x="47.32" y="-104.26" font-family="Helvetica,sans-Serif" font-size="10.00">cost=45, lb=95</text>
</g>
<!-- AB&#45;&gt;ABC -->
<g id="edge4" class="edge">
<title>AB&#45;&gt;ABC</title>
<path fill="none" stroke="#555555" d="M149.1,-195.14C128.27,-178.85 94.12,-152.13 71.19,-134.19"/>
<polygon fill="#555555" stroke="#555555" points="72.54,-132.58 66.52,-130.53 69.95,-135.88 72.54,-132.58"/>
<text text-anchor="middle" x="122.38" y="-161.97" font-family="Helvetica,sans-Serif" font-size="9.00">+35</text>
</g>
<!-- ABD -->
<g id="node6" class="node">
<title>ABD</title>
<polygon fill="#fde8d0" stroke="black" points="207.15,-129.39 127.5,-129.39 127.5,-99.63 207.15,-99.63 207.15,-129.39"/>
<text text-anchor="middle" x="167.32" y="-117.01" font-family="Helvetica,sans-Serif" font-size="10.00">A→B→D</text>
<text text-anchor="middle" x="167.32" y="-104.26" font-family="Helvetica,sans-Serif" font-size="10.00">cost=35, lb=80</text>
</g>
<!-- AB&#45;&gt;ABD -->
<g id="edge5" class="edge">
<title>AB&#45;&gt;ABD</title>
<path fill="none" stroke="#555555" d="M167.32,-195.14C167.32,-179.61 167.32,-154.61 167.32,-136.76"/>
<polygon fill="#555555" stroke="#555555" points="169.43,-137.11 167.33,-131.11 165.23,-137.11 169.43,-137.11"/>
<text text-anchor="middle" x="175.2" y="-161.97" font-family="Helvetica,sans-Serif" font-size="9.00">+25</text>
</g>
<!-- ACB -->
<g id="node7" class="node">
<title>ACB</title>
<polygon fill="#f8d7da" stroke="black" points="323.15,-135.77 243.5,-135.77 243.5,-93.26 323.15,-93.26 323.15,-135.77"/>
<text text-anchor="middle" x="283.32" y="-123.39" font-family="Helvetica,sans-Serif" font-size="10.00">A→C→B</text>
<text text-anchor="middle" x="283.32" y="-110.64" font-family="Helvetica,sans-Serif" font-size="10.00">cost=50, lb=95</text>
<text text-anchor="middle" x="283.32" y="-99.39" font-family="Helvetica,sans-Serif" font-size="10.00">PRUNED ✗</text>
</g>
<!-- AC&#45;&gt;ACB -->
<g id="edge6" class="edge">
<title>AC&#45;&gt;ACB</title>
<path fill="none" stroke="#cc0000" stroke-dasharray="5,2" d="M320.64,-195.14C314.15,-181.28 304.12,-159.88 296.09,-142.76"/>
<polygon fill="#cc0000" stroke="#cc0000" points="298.1,-142.1 293.66,-137.56 294.3,-143.88 298.1,-142.1"/>
<text text-anchor="middle" x="315.83" y="-161.97" font-family="Helvetica,sans-Serif" font-size="9.00">+35</text>
</g>
<!-- ACD -->
<g id="node8" class="node">
<title>ACD</title>
<polygon fill="#f8d7da" stroke="black" points="439.15,-135.77 359.5,-135.77 359.5,-93.26 439.15,-93.26 439.15,-135.77"/>
<text text-anchor="middle" x="399.32" y="-123.39" font-family="Helvetica,sans-Serif" font-size="10.00">A→C→D</text>
<text text-anchor="middle" x="399.32" y="-110.64" font-family="Helvetica,sans-Serif" font-size="10.00">cost=45, lb=80</text>
<text text-anchor="middle" x="399.32" y="-99.39" font-family="Helvetica,sans-Serif" font-size="10.00">PRUNED ✗</text>
</g>
<!-- AC&#45;&gt;ACD -->
<g id="edge7" class="edge">
<title>AC&#45;&gt;ACD</title>
<path fill="none" stroke="#cc0000" stroke-dasharray="5,2" d="M338.26,-195.14C349.08,-181.04 365.88,-159.12 379.13,-141.85"/>
<polygon fill="#cc0000" stroke="#cc0000" points="380.56,-143.43 382.55,-137.39 377.23,-140.87 380.56,-143.43"/>
<text text-anchor="middle" x="371.2" y="-161.97" font-family="Helvetica,sans-Serif" font-size="9.00">+30</text>
</g>
<!-- ADB -->
<g id="node9" class="node">
<title>ADB</title>
<polygon fill="#f8d7da" stroke="black" points="555.15,-135.77 475.5,-135.77 475.5,-93.26 555.15,-93.26 555.15,-135.77"/>
<text text-anchor="middle" x="515.33" y="-123.39" font-family="Helvetica,sans-Serif" font-size="10.00">A→D→B</text>
<text text-anchor="middle" x="515.33" y="-110.64" font-family="Helvetica,sans-Serif" font-size="10.00">cost=45, lb=95</text>
<text text-anchor="middle" x="515.33" y="-99.39" font-family="Helvetica,sans-Serif" font-size="10.00">PRUNED ✗</text>
</g>
<!-- AD&#45;&gt;ADB -->
<g id="edge8" class="edge">
<title>AD&#45;&gt;ADB</title>
<path fill="none" stroke="#cc0000" stroke-dasharray="5,2" d="M515.33,-195.14C515.33,-181.53 515.33,-160.64 515.33,-143.67"/>
<polygon fill="#cc0000" stroke="#cc0000" points="517.43,-143.7 515.33,-137.7 513.23,-143.7 517.43,-143.7"/>
<text text-anchor="middle" x="523.2" y="-161.97" font-family="Helvetica,sans-Serif" font-size="9.00">+25</text>
</g>
<!-- ADC -->
<g id="node10" class="node">
<title>ADC</title>
<polygon fill="#f8d7da" stroke="black" points="671.15,-135.77 591.5,-135.77 591.5,-93.26 671.15,-93.26 671.15,-135.77"/>
<text text-anchor="middle" x="631.33" y="-123.39" font-family="Helvetica,sans-Serif" font-size="10.00">A→D→C</text>
<text text-anchor="middle" x="631.33" y="-110.64" font-family="Helvetica,sans-Serif" font-size="10.00">cost=50, lb=95</text>
<text text-anchor="middle" x="631.33" y="-99.39" font-family="Helvetica,sans-Serif" font-size="10.00">PRUNED ✗</text>
</g>
<!-- AD&#45;&gt;ADC -->
<g id="edge9" class="edge">
<title>AD&#45;&gt;ADC</title>
<path fill="none" stroke="#cc0000" stroke-dasharray="5,2" d="M532.94,-195.14C550.75,-180.73 578.63,-158.17 600.17,-140.73"/>
<polygon fill="#cc0000" stroke="#cc0000" points="601.26,-142.55 604.6,-137.14 598.62,-139.28 601.26,-142.55"/>
<text text-anchor="middle" x="581.2" y="-161.97" font-family="Helvetica,sans-Serif" font-size="9.00">+30</text>
</g>
<!-- ABCDA -->
<g id="node11" class="node">
<title>ABCDA</title>
<polygon fill="#fff3cd" stroke="black" points="88.65,-31.63 0,-31.63 0,-1.88 88.65,-1.88 88.65,-31.63"/>
<text text-anchor="middle" x="44.32" y="-19.25" font-family="Helvetica,sans-Serif" font-size="10.00">A→B→C→D→A</text>
<text text-anchor="middle" x="44.32" y="-6.5" font-family="Helvetica,sans-Serif" font-size="10.00">cost=95</text>
</g>
<!-- ABC&#45;&gt;ABCDA -->
<g id="edge10" class="edge">
<title>ABC&#45;&gt;ABCDA</title>
<path fill="none" stroke="#555555" d="M46.88,-99.39C46.39,-83.54 45.58,-57.67 45,-39.3"/>
<polygon fill="#555555" stroke="#555555" points="47.1,-39.39 44.82,-33.46 42.91,-39.52 47.1,-39.39"/>
<text text-anchor="middle" x="53.7" y="-59.71" font-family="Helvetica,sans-Serif" font-size="9.00">+50</text>
</g>
<!-- ABDCA -->
<g id="node12" class="node">
<title>ABDCA</title>
<polygon fill="#d4edda" stroke="black" points="213.65,-33.51 125,-33.51 125,0 213.65,0 213.65,-33.51"/>
<text text-anchor="middle" x="169.32" y="-21.13" font-family="Helvetica,sans-Serif" font-size="10.00">A→B→D→C→A</text>
<text text-anchor="middle" x="169.32" y="-8.38" font-family="Helvetica,sans-Serif" font-size="10.00">cost=80 ★</text>
</g>
<!-- ABD&#45;&gt;ABDCA -->
<g id="edge11" class="edge">
<title>ABD&#45;&gt;ABDCA</title>
<path fill="none" stroke="#555555" d="M167.62,-99.39C167.94,-84.09 168.45,-59.44 168.83,-41.23"/>
<polygon fill="#555555" stroke="#555555" points="170.93,-41.42 168.96,-35.38 166.73,-41.33 170.93,-41.42"/>
<text text-anchor="middle" x="176.32" y="-59.71" font-family="Helvetica,sans-Serif" font-size="9.00">+45</text>
</g>
</g>
</svg>
