<?xml version="1.0" encoding="UTF-8" standalone="no"?>
<!DOCTYPE svg PUBLIC "-//W3C//DTD SVG 1.1//EN"
 "http://www.w3.org/Graphics/SVG/1.1/DTD/svg11.dtd">
<!-- Generated by graphviz version 2.43.0 (0)
 -->
<!-- Title: Taskflow Pages: 1 -->
<svg width="380pt" height="259pt"
 viewBox="0.00 0.00 380.00 259.00" xmlns="http://www.w3.org/2000/svg" xmlns:xlink="http://www.w3.org/1999/xlink">
<g id="graph0" class="graph" transform="scale(1 1) rotate(0) translate(4 255)">
<title>Taskflow</title>
<polygon fill="white" stroke="transparent" points="-4,4 -4,-255 376,-255 376,4 -4,4"/>
<g id="clust1" class="cluster">
<title>cluster_p0x7ffd7418c200</title>
<polygon fill="none" stroke="black" points="8,-8 8,-243 214,-243 214,-8 8,-8"/>
<text text-anchor="middle" x="111" y="-227.8" font-family="Times,serif" font-size="14.00">Graph Processing Pipeline</text>
</g>
<g id="clust2" class="cluster">
<title>cluster_p0x7ffd7418c110</title>
<polygon fill="none" stroke="black" points="222,-81 222,-243 364,-243 364,-81 222,-81"/>
<text text-anchor="middle" x="293" y="-227.8" font-family="Times,serif" font-size="14.00">m1</text>
</g>
<!-- p0x7bc4000142e8 -->
<g id="node1" class="node">
<title>p0x7bc4000142e8</title>
<ellipse fill="none" stroke="black" cx="111" cy="-194" rx="87.99" ry="18"/>
<text text-anchor="middle" x="111" y="-190.3" font-family="Times,serif" font-size="14.00">starting pipeline</text>
</g>
<!-- p0x7bc4000143d0 -->
<g id="node2" class="node">
<title>p0x7bc4000143d0</title>
<polygon fill="none" stroke="blue" points="166.5,-125 59.5,-125 55.5,-121 55.5,-89 162.5,-89 166.5,-93 166.5,-125"/>
<polyline fill="none" stroke="blue" points="162.5,-121 55.5,-121 "/>
<polyline fill="none" stroke="blue" points="162.5,-121 162.5,-89 "/>
<polyline fill="none" stroke="blue" points="162.5,-121 166.5,-125 "/>
<text text-anchor="middle" x="111" y="-103.3" font-family="Times,serif" font-size="14.00">pipeline [m1]</text>
</g>
<!-- p0x7bc4000142e8&#45;&gt;p0x7bc4000143d0 -->
<g id="edge1" class="edge">
<title>p0x7bc4000142e8&#45;&gt;p0x7bc4000143d0</title>
<path fill="none" stroke="black" d="M111,-175.8C111,-164.16 111,-148.55 111,-135.24"/>
<polygon fill="black" stroke="black" points="114.5,-135.18 111,-125.18 107.5,-135.18 114.5,-135.18"/>
</g>
<!-- p0x7bc4000144b8 -->
<g id="node3" class="node">
<title>p0x7bc4000144b8</title>
<ellipse fill="none" stroke="black" cx="111" cy="-34" rx="87.99" ry="18"/>
<text text-anchor="middle" x="111" y="-30.3" font-family="Times,serif" font-size="14.00">pipeline stopped</text>
</g>
<!-- p0x7bc4000143d0&#45;&gt;p0x7bc4000144b8 -->
<g id="edge2" class="edge">
<title>p0x7bc4000143d0&#45;&gt;p0x7bc4000144b8</title>
<path fill="none" stroke="black" d="M111,-88.81C111,-80.79 111,-71.05 111,-62.07"/>
<polygon fill="black" stroke="black" points="114.5,-62.03 111,-52.03 107.5,-62.03 114.5,-62.03"/>
</g>
<!-- p0x7bc400014030 -->
<g id="node4" class="node">
<title>p0x7bc400014030</title>
<polygon fill="aquamarine" stroke="black" points="283,-212 237.08,-194 283,-176 328.92,-194 283,-212"/>
<text text-anchor="middle" x="283" y="-190.3" font-family="Times,serif" font-size="14.00">cond</text>
</g>
<!-- p0x7bc400014118 -->
<g id="node5" class="node">
<title>p0x7bc400014118</title>
<polygon fill="none" stroke="black" points="284,-125 230,-125 230,-121 226,-121 226,-117 230,-117 230,-97 226,-97 226,-93 230,-93 230,-89 284,-89 284,-125"/>
<polyline fill="none" stroke="black" points="230,-121 234,-121 234,-117 230,-117 "/>
<polyline fill="none" stroke="black" points="230,-97 234,-97 234,-93 230,-93 "/>
<text text-anchor="middle" x="257" y="-103.3" font-family="Times,serif" font-size="14.00">rt&#45;0</text>
</g>
<!-- p0x7bc400014030&#45;&gt;p0x7bc400014118 -->
<g id="edge3" class="edge">
<title>p0x7bc400014030&#45;&gt;p0x7bc400014118</title>
<path fill="none" stroke="black" stroke-dasharray="5,2" d="M278.35,-177.8C274.71,-165.89 269.55,-149.02 265.21,-134.84"/>
<polygon fill="black" stroke="black" points="268.51,-133.65 262.23,-125.11 261.81,-135.7 268.51,-133.65"/>
<text text-anchor="middle" x="276" y="-146.8" font-family="Times,serif" font-size="14.00">0</text>
</g>
<!-- p0x7bc400014200 -->
<g id="node6" class="node">
<title>p0x7bc400014200</title>
<polygon fill="none" stroke="black" points="356,-125 302,-125 302,-121 298,-121 298,-117 302,-117 302,-97 298,-97 298,-93 302,-93 302,-89 356,-89 356,-125"/>
<polyline fill="none" stroke="black" points="302,-121 306,-121 306,-117 302,-117 "/>
<polyline fill="none" stroke="black" points="302,-97 306,-97 306,-93 302,-93 "/>
<text text-anchor="middle" x="329" y="-103.3" font-family="Times,serif" font-size="14.00">rt&#45;1</text>
</g>
<!-- p0x7bc400014030&#45;&gt;p0x7bc400014200 -->
<g id="edge4" class="edge">
<title>p0x7bc400014030&#45;&gt;p0x7bc400014200</title>
<path fill="none" stroke="black" stroke-dasharray="5,2" d="M290.6,-178.96C297.13,-166.9 306.72,-149.16 314.69,-134.44"/>
<polygon fill="black" stroke="black" points="317.96,-135.75 319.64,-125.29 311.8,-132.42 317.96,-135.75"/>
<text text-anchor="middle" x="313" y="-146.8" font-family="Times,serif" font-size="14.00">1</text>
</g>
</g>
</svg>
