<?xml version="1.0" encoding="UTF-8" standalone="no"?>
<!DOCTYPE svg PUBLIC "-//W3C//DTD SVG 1.1//EN"
 "http://www.w3.org/Graphics/SVG/1.1/DTD/svg11.dtd">
<!-- Generated by graphviz version 12.2.1 (20241206.2353)
 -->
<!-- Title: Taskflow Pages: 1 -->
<svg width="332pt" height="389pt"
 viewBox="0.00 0.00 332.00 388.50" xmlns="http://www.w3.org/2000/svg" xmlns:xlink="http://www.w3.org/1999/xlink">
<g id="graph0" class="graph" transform="scale(1 1) rotate(0) translate(4 384.5)">
<title>Taskflow</title>
<polygon fill="white" stroke="none" points="-4,4 -4,-384.5 328,-384.5 328,4 -4,4"/>
<g id="clust1" class="cluster">
<title>cluster_p0x7ffee9223970</title>
<polygon fill="none" stroke="black" points="8,-8 8,-372.5 166,-372.5 166,-8 8,-8"/>
<text text-anchor="middle" x="87" y="-355.2" font-family="Times,serif" font-size="14.00">Taskflow: F2</text>
</g>
<g id="clust2" class="cluster">
<title>cluster_p0x7ffee92238d0</title>
<polygon fill="none" stroke="black" points="174,-224 174,-372.5 316,-372.5 316,-224 174,-224"/>
<text text-anchor="middle" x="245" y="-355.2" font-family="Times,serif" font-size="14.00">Taskflow: F1</text>
</g>
<!-- p0x7f816f402b60 -->
<g id="node1" class="node">
<title>p0x7f816f402b60</title>
<ellipse fill="none" stroke="black" cx="51" cy="-322" rx="27" ry="18"/>
<text text-anchor="middle" x="51" y="-316.95" font-family="Times,serif" font-size="14.00">f2A</text>
</g>
<!-- p0x7f816f402d80 -->
<g id="node2" class="node">
<title>p0x7f816f402d80</title>
<ellipse fill="none" stroke="black" cx="87" cy="-250" rx="27" ry="18"/>
<text text-anchor="middle" x="87" y="-244.95" font-family="Times,serif" font-size="14.00">f2C</text>
</g>
<!-- p0x7f816f402b60&#45;&gt;p0x7f816f402d80 -->
<g id="edge1" class="edge">
<title>p0x7f816f402b60&#45;&gt;p0x7f816f402d80</title>
<path fill="none" stroke="black" d="M59.35,-304.76C63.58,-296.55 68.81,-286.37 73.58,-277.09"/>
<polygon fill="black" stroke="black" points="76.54,-278.99 78,-268.49 70.32,-275.79 76.54,-278.99"/>
</g>
<!-- p0x7f816f402fa0 -->
<g id="node4" class="node">
<title>p0x7f816f402fa0</title>
<polygon fill="none" stroke="blue" points="158.38,-196 19.62,-196 15.62,-192 15.62,-160 154.38,-160 158.38,-164 158.38,-196"/>
<polyline fill="none" stroke="blue" points="154.38,-192 15.62,-192"/>
<polyline fill="none" stroke="blue" points="154.38,-192 154.38,-160"/>
<polyline fill="none" stroke="blue" points="154.38,-192 158.38,-196"/>
<text text-anchor="middle" x="87" y="-172.95" font-family="Times,serif" font-size="14.00">module [Taskflow: F1]</text>
</g>
<!-- p0x7f816f402d80&#45;&gt;p0x7f816f402fa0 -->
<g id="edge3" class="edge">
<title>p0x7f816f402d80&#45;&gt;p0x7f816f402fa0</title>
<path fill="none" stroke="black" d="M87,-231.7C87,-224.41 87,-215.73 87,-207.54"/>
<polygon fill="black" stroke="black" points="90.5,-207.62 87,-197.62 83.5,-207.62 90.5,-207.62"/>
</g>
<!-- p0x7f816f402c70 -->
<g id="node3" class="node">
<title>p0x7f816f402c70</title>
<ellipse fill="none" stroke="black" cx="123" cy="-322" rx="27" ry="18"/>
<text text-anchor="middle" x="123" y="-316.95" font-family="Times,serif" font-size="14.00">f2B</text>
</g>
<!-- p0x7f816f402c70&#45;&gt;p0x7f816f402d80 -->
<g id="edge2" class="edge">
<title>p0x7f816f402c70&#45;&gt;p0x7f816f402d80</title>
<path fill="none" stroke="black" d="M114.65,-304.76C110.42,-296.55 105.19,-286.37 100.42,-277.09"/>
<polygon fill="black" stroke="black" points="103.68,-275.79 96,-268.49 97.46,-278.99 103.68,-275.79"/>
</g>
<!-- p0x7f816f402fa1 -->
<g id="node6" class="node">
<title>p0x7f816f402fa1</title>
<polygon fill="none" stroke="blue" points="158.38,-124 19.62,-124 15.62,-120 15.62,-88 154.38,-88 158.38,-92 158.38,-124"/>
<polyline fill="none" stroke="blue" points="154.38,-120 15.62,-120"/>
<polyline fill="none" stroke="blue" points="154.38,-120 154.38,-88"/>
<polyline fill="none" stroke="blue" points="154.38,-120 158.38,-124"/>
<text text-anchor="middle" x="87" y="-100.95" font-family="Times,serif" font-size="14.00">module [Taskflow: F1]</text>
</g>
<!-- p0x7f816f402fa0&#45;&gt;p0x7f816f402fa1 -->
<g id="edge5" class="edge">
<title>p0x7f816f402fa0&#45;&gt;p0x7f816f402fa1</title>
<path fill="none" stroke="black" d="M87,-159.7C87,-152.41 87,-143.73 87,-135.54"/>
<polygon fill="black" stroke="black" points="90.5,-135.62 87,-125.62 83.5,-135.62 90.5,-135.62"/>
</g>
<!-- p0x7f816f402e90 -->
<g id="node5" class="node">
<title>p0x7f816f402e90</title>
<ellipse fill="none" stroke="black" cx="87" cy="-34" rx="27" ry="18"/>
<text text-anchor="middle" x="87" y="-28.95" font-family="Times,serif" font-size="14.00">f2D</text>
</g>
<!-- p0x7f816f402fa1&#45;&gt;p0x7f816f402e90 -->
<g id="edge4" class="edge">
<title>p0x7f816f402fa1&#45;&gt;p0x7f816f402e90</title>
<path fill="none" stroke="black" d="M87,-87.7C87,-80.41 87,-71.73 87,-63.54"/>
<polygon fill="black" stroke="black" points="90.5,-63.62 87,-53.62 83.5,-63.62 90.5,-63.62"/>
</g>
<!-- p0x7f816f402830 -->
<g id="node7" class="node">
<title>p0x7f816f402830</title>
<ellipse fill="none" stroke="black" cx="209" cy="-322" rx="27" ry="18"/>
<text text-anchor="middle" x="209" y="-316.95" font-family="Times,serif" font-size="14.00">f1A</text>
</g>
<!-- p0x7f816f402a50 -->
<g id="node8" class="node">
<title>p0x7f816f402a50</title>
<ellipse fill="none" stroke="black" cx="245" cy="-250" rx="27" ry="18"/>
<text text-anchor="middle" x="245" y="-244.95" font-family="Times,serif" font-size="14.00">f1C</text>
</g>
<!-- p0x7f816f402830&#45;&gt;p0x7f816f402a50 -->
<g id="edge6" class="edge">
<title>p0x7f816f402830&#45;&gt;p0x7f816f402a50</title>
<path fill="none" stroke="black" d="M217.35,-304.76C221.58,-296.55 226.81,-286.37 231.58,-277.09"/>
<polygon fill="black" stroke="black" points="234.54,-278.99 236,-268.49 228.32,-275.79 234.54,-278.99"/>
</g>
<!-- p0x7f816f402940 -->
<g id="node9" class="node">
<title>p0x7f816f402940</title>
<ellipse fill="none" stroke="black" cx="281" cy="-322" rx="27" ry="18"/>
<text text-anchor="middle" x="281" y="-316.95" font-family="Times,serif" font-size="14.00">f1B</text>
</g>
<!-- p0x7f816f402940&#45;&gt;p0x7f816f402a50 -->
<g id="edge7" class="edge">
<title>p0x7f816f402940&#45;&gt;p0x7f816f402a50</title>
<path fill="none" stroke="black" d="M272.65,-304.76C268.42,-296.55 263.19,-286.37 258.42,-277.09"/>
<polygon fill="black" stroke="black" points="261.68,-275.79 254,-268.49 255.46,-278.99 261.68,-275.79"/>
</g>
</g>
</svg>
