<?xml version="1.0" encoding="UTF-8" standalone="no"?>
<!DOCTYPE svg PUBLIC "-//W3C//DTD SVG 1.1//EN"
 "http://www.w3.org/Graphics/SVG/1.1/DTD/svg11.dtd">
<!-- Generated by graphviz version 12.2.1 (20241206.2353)
 -->
<!-- Title: L Pages: 1 -->
<svg width="200pt" height="192pt"
 viewBox="0.00 0.00 200.25 192.00" xmlns="http://www.w3.org/2000/svg" xmlns:xlink="http://www.w3.org/1999/xlink">
<g id="graph0" class="graph" transform="scale(1 1) rotate(0) translate(4 188)">
<title>L</title>
<polygon fill="white" stroke="none" points="-4,4 -4,-188 196.25,-188 196.25,4 -4,4"/>
<!-- a -->
<g id="node1" class="node">
<title>a</title>
<polygon fill="none" stroke="black" points="139.62,-184 51.62,-184 51.62,-110 139.62,-110 139.62,-184"/>
<text text-anchor="start" x="59.62" y="-166.7" font-family="Times,serif" font-size="14.00">[Node A]</text>
<text text-anchor="start" x="59.62" y="-150.2" font-family="Times,serif" font-size="14.00">Step 1: f1(A)</text>
<text text-anchor="start" x="59.62" y="-133.7" font-family="Times,serif" font-size="14.00">Step 2: f2(A)</text>
<text text-anchor="start" x="59.62" y="-117.2" font-family="Times,serif" font-size="14.00">Step 3: f3(A)</text>
</g>
<!-- b -->
<g id="node2" class="node">
<title>b</title>
<polygon fill="none" stroke="black" points="87.25,-74 0,-74 0,0 87.25,0 87.25,-74"/>
<text text-anchor="start" x="8" y="-56.7" font-family="Times,serif" font-size="14.00">[Node B]</text>
<text text-anchor="start" x="8" y="-40.2" font-family="Times,serif" font-size="14.00">Step 1: f1(B)</text>
<text text-anchor="start" x="8" y="-23.7" font-family="Times,serif" font-size="14.00">Step 2: f2(B)</text>
<text text-anchor="start" x="8" y="-7.2" font-family="Times,serif" font-size="14.00">Step 3: f3(B)</text>
</g>
<!-- a&#45;&gt;b -->
<g id="edge1" class="edge">
<title>a&#45;&gt;b</title>
<path fill="none" stroke="black" d="M78.17,-109.74C74.26,-101.63 70.07,-92.93 66,-84.48"/>
<polygon fill="black" stroke="black" points="69.28,-83.21 61.78,-75.71 62.97,-86.24 69.28,-83.21"/>
</g>
<!-- c -->
<g id="node3" class="node">
<title>c</title>
<polygon fill="none" stroke="black" points="192.25,-74 105,-74 105,0 192.25,0 192.25,-74"/>
<text text-anchor="start" x="113" y="-56.7" font-family="Times,serif" font-size="14.00">[Node C]</text>
<text text-anchor="start" x="113" y="-40.2" font-family="Times,serif" font-size="14.00">Step 1: f1(C)</text>
<text text-anchor="start" x="113" y="-23.7" font-family="Times,serif" font-size="14.00">Step 2: f2(C)</text>
<text text-anchor="start" x="113" y="-7.2" font-family="Times,serif" font-size="14.00">Step 3: f3(C)</text>
</g>
<!-- a&#45;&gt;c -->
<g id="edge2" class="edge">
<title>a&#45;&gt;c</title>
<path fill="none" stroke="black" d="M113.42,-109.74C117.4,-101.63 121.67,-92.93 125.82,-84.48"/>
<polygon fill="black" stroke="black" points="128.86,-86.23 130.12,-75.71 122.57,-83.15 128.86,-86.23"/>
</g>
</g>
</svg>
