<?xml version="1.0" encoding="UTF-8" standalone="no"?>
<!DOCTYPE svg PUBLIC "-//W3C//DTD SVG 1.1//EN"
 "http://www.w3.org/Graphics/SVG/1.1/DTD/svg11.dtd">
<!-- Generated by graphviz version 2.43.0 (0)
 -->
<!-- Title: Taskflow Pages: 1 -->
<svg width="1105pt" height="116pt"
 viewBox="0.00 0.00 1104.64 116.00" xmlns="http://www.w3.org/2000/svg" xmlns:xlink="http://www.w3.org/1999/xlink">
<g id="graph0" class="graph" transform="scale(1 1) rotate(0) translate(4 112)">
<title>Taskflow</title>
<polygon fill="white" stroke="transparent" points="-4,4 -4,-112 1100.64,-112 1100.64,4 -4,4"/>
<!-- p0xce2720 -->
<g id="node1" class="node">
<title>p0xce2720</title>
<ellipse fill="none" stroke="black" cx="536.4" cy="-18" rx="152.97" ry="18"/>
<text text-anchor="middle" x="536.4" y="-14.3" font-family="Times,serif" font-size="14.00">[0, 100) with the step size of 2</text>
</g>
<!-- p0x7f322c000b50 -->
<g id="node2" class="node">
<title>p0x7f322c000b50</title>
<ellipse fill="none" stroke="black" cx="36.4" cy="-90" rx="36.29" ry="18"/>
<text text-anchor="middle" x="36.4" y="-86.3" font-family="Times,serif" font-size="14.00">pfg_0</text>
</g>
<!-- p0x7f322c000b50&#45;&gt;p0xce2720 -->
<g id="edge1" class="edge">
<title>p0x7f322c000b50&#45;&gt;p0xce2720</title>
<path fill="none" stroke="black" d="M63.31,-77.84C69.49,-75.62 76.1,-73.51 82.4,-72 183.93,-47.68 301.02,-34.36 390.85,-27.15"/>
<polygon fill="black" stroke="black" points="391.14,-30.64 400.83,-26.37 390.59,-23.66 391.14,-30.64"/>
</g>
<!-- p0x7f322c000c58 -->
<g id="node3" class="node">
<title>p0x7f322c000c58</title>
<ellipse fill="none" stroke="black" cx="127.4" cy="-90" rx="36.29" ry="18"/>
<text text-anchor="middle" x="127.4" y="-86.3" font-family="Times,serif" font-size="14.00">pfg_1</text>
</g>
<!-- p0x7f322c000c58&#45;&gt;p0xce2720 -->
<g id="edge2" class="edge">
<title>p0x7f322c000c58&#45;&gt;p0xce2720</title>
<path fill="none" stroke="black" d="M154.83,-77.8C160.87,-75.63 167.29,-73.56 173.4,-72 250.75,-52.29 339.37,-39.18 409.69,-30.92"/>
<polygon fill="black" stroke="black" points="410.39,-34.37 419.92,-29.74 409.59,-27.41 410.39,-34.37"/>
</g>
<!-- p0x7f322c000d60 -->
<g id="node4" class="node">
<title>p0x7f322c000d60</title>
<ellipse fill="none" stroke="black" cx="218.4" cy="-90" rx="36.29" ry="18"/>
<text text-anchor="middle" x="218.4" y="-86.3" font-family="Times,serif" font-size="14.00">pfg_2</text>
</g>
<!-- p0x7f322c000d60&#45;&gt;p0xce2720 -->
<g id="edge3" class="edge">
<title>p0x7f322c000d60&#45;&gt;p0xce2720</title>
<path fill="none" stroke="black" d="M245.89,-78.02C251.93,-75.84 258.33,-73.7 264.4,-72 320.87,-56.18 385.23,-43.41 437.16,-34.37"/>
<polygon fill="black" stroke="black" points="437.78,-37.81 447.04,-32.67 436.59,-30.91 437.78,-37.81"/>
</g>
<!-- p0x7f322c000e68 -->
<g id="node5" class="node">
<title>p0x7f322c000e68</title>
<ellipse fill="none" stroke="black" cx="309.4" cy="-90" rx="36.29" ry="18"/>
<text text-anchor="middle" x="309.4" y="-86.3" font-family="Times,serif" font-size="14.00">pfg_3</text>
</g>
<!-- p0x7f322c000e68&#45;&gt;p0xce2720 -->
<g id="edge4" class="edge">
<title>p0x7f322c000e68&#45;&gt;p0xce2720</title>
<path fill="none" stroke="black" d="M337.51,-78.26C343.39,-76.11 349.58,-73.92 355.4,-72 392.74,-59.65 434.9,-47.22 469.13,-37.5"/>
<polygon fill="black" stroke="black" points="470.35,-40.79 479.02,-34.71 468.45,-34.06 470.35,-40.79"/>
</g>
<!-- p0x7f322c000f70 -->
<g id="node6" class="node">
<title>p0x7f322c000f70</title>
<ellipse fill="none" stroke="black" cx="400.4" cy="-90" rx="36.29" ry="18"/>
<text text-anchor="middle" x="400.4" y="-86.3" font-family="Times,serif" font-size="14.00">pfg_4</text>
</g>
<!-- p0x7f322c000f70&#45;&gt;p0xce2720 -->
<g id="edge5" class="edge">
<title>p0x7f322c000f70&#45;&gt;p0xce2720</title>
<path fill="none" stroke="black" d="M424.71,-76.49C444.18,-66.46 471.95,-52.17 494.92,-40.35"/>
<polygon fill="black" stroke="black" points="496.82,-43.31 504.11,-35.62 493.62,-37.08 496.82,-43.31"/>
</g>
<!-- p0x7f322c001078 -->
<g id="node7" class="node">
<title>p0x7f322c001078</title>
<ellipse fill="none" stroke="black" cx="491.4" cy="-90" rx="36.29" ry="18"/>
<text text-anchor="middle" x="491.4" y="-86.3" font-family="Times,serif" font-size="14.00">pfg_5</text>
</g>
<!-- p0x7f322c001078&#45;&gt;p0xce2720 -->
<g id="edge6" class="edge">
<title>p0x7f322c001078&#45;&gt;p0xce2720</title>
<path fill="none" stroke="black" d="M502.06,-72.41C507.42,-64.08 514.03,-53.8 520.01,-44.49"/>
<polygon fill="black" stroke="black" points="523.03,-46.26 525.5,-35.96 517.14,-42.48 523.03,-46.26"/>
</g>
<!-- p0x7f322c001180 -->
<g id="node8" class="node">
<title>p0x7f322c001180</title>
<ellipse fill="none" stroke="black" cx="582.4" cy="-90" rx="36.29" ry="18"/>
<text text-anchor="middle" x="582.4" y="-86.3" font-family="Times,serif" font-size="14.00">pfg_6</text>
</g>
<!-- p0x7f322c001180&#45;&gt;p0xce2720 -->
<g id="edge7" class="edge">
<title>p0x7f322c001180&#45;&gt;p0xce2720</title>
<path fill="none" stroke="black" d="M571.73,-72.76C566.26,-64.44 559.46,-54.1 553.3,-44.73"/>
<polygon fill="black" stroke="black" points="556.07,-42.56 547.65,-36.12 550.22,-46.4 556.07,-42.56"/>
</g>
<!-- p0x7f322c001288 -->
<g id="node9" class="node">
<title>p0x7f322c001288</title>
<ellipse fill="none" stroke="black" cx="673.4" cy="-90" rx="36.29" ry="18"/>
<text text-anchor="middle" x="673.4" y="-86.3" font-family="Times,serif" font-size="14.00">pfg_7</text>
</g>
<!-- p0x7f322c001288&#45;&gt;p0xce2720 -->
<g id="edge8" class="edge">
<title>p0x7f322c001288&#45;&gt;p0xce2720</title>
<path fill="none" stroke="black" d="M648.9,-76.49C629.2,-66.42 601.07,-52.05 577.87,-40.19"/>
<polygon fill="black" stroke="black" points="579.42,-37.05 568.92,-35.62 576.23,-43.28 579.42,-37.05"/>
</g>
<!-- p0x7f322c001390 -->
<g id="node10" class="node">
<title>p0x7f322c001390</title>
<ellipse fill="none" stroke="black" cx="764.4" cy="-90" rx="36.29" ry="18"/>
<text text-anchor="middle" x="764.4" y="-86.3" font-family="Times,serif" font-size="14.00">pfg_8</text>
</g>
<!-- p0x7f322c001390&#45;&gt;p0xce2720 -->
<g id="edge9" class="edge">
<title>p0x7f322c001390&#45;&gt;p0xce2720</title>
<path fill="none" stroke="black" d="M736.29,-78.25C730.4,-76.11 724.22,-73.92 718.4,-72 680.85,-59.61 638.46,-47.18 604.04,-37.47"/>
<polygon fill="black" stroke="black" points="604.67,-34.01 594.1,-34.68 602.78,-40.75 604.67,-34.01"/>
</g>
<!-- p0x7f322c001498 -->
<g id="node11" class="node">
<title>p0x7f322c001498</title>
<ellipse fill="none" stroke="black" cx="855.4" cy="-90" rx="36.29" ry="18"/>
<text text-anchor="middle" x="855.4" y="-86.3" font-family="Times,serif" font-size="14.00">pfg_9</text>
</g>
<!-- p0x7f322c001498&#45;&gt;p0xce2720 -->
<g id="edge10" class="edge">
<title>p0x7f322c001498&#45;&gt;p0xce2720</title>
<path fill="none" stroke="black" d="M827.91,-78.01C821.87,-75.83 815.46,-73.7 809.4,-72 752.72,-56.14 688.13,-43.37 636,-34.34"/>
<polygon fill="black" stroke="black" points="636.53,-30.88 626.08,-32.64 635.35,-37.78 636.53,-30.88"/>
</g>
<!-- p0x7f322c0015a0 -->
<g id="node12" class="node">
<title>p0x7f322c0015a0</title>
<ellipse fill="none" stroke="black" cx="952.4" cy="-90" rx="42.49" ry="18"/>
<text text-anchor="middle" x="952.4" y="-86.3" font-family="Times,serif" font-size="14.00">pfg_10</text>
</g>
<!-- p0x7f322c0015a0&#45;&gt;p0xce2720 -->
<g id="edge11" class="edge">
<title>p0x7f322c0015a0&#45;&gt;p0xce2720</title>
<path fill="none" stroke="black" d="M921.02,-77.78C914.28,-75.64 907.15,-73.58 900.4,-72 820.84,-53.35 729.87,-40.1 658.78,-31.52"/>
<polygon fill="black" stroke="black" points="658.78,-27.99 648.44,-30.28 657.95,-34.94 658.78,-27.99"/>
</g>
<!-- p0x7f322c0016a8 -->
<g id="node13" class="node">
<title>p0x7f322c0016a8</title>
<ellipse fill="none" stroke="black" cx="1054.4" cy="-90" rx="42.49" ry="18"/>
<text text-anchor="middle" x="1054.4" y="-86.3" font-family="Times,serif" font-size="14.00">pfg_11</text>
</g>
<!-- p0x7f322c0016a8&#45;&gt;p0xce2720 -->
<g id="edge12" class="edge">
<title>p0x7f322c0016a8&#45;&gt;p0xce2720</title>
<path fill="none" stroke="black" d="M1023.67,-77.61C1017.06,-75.48 1010.05,-73.47 1003.4,-72 896.44,-48.38 773.25,-34.96 680.26,-27.53"/>
<polygon fill="black" stroke="black" points="680.46,-24.04 670.22,-26.74 679.91,-31.02 680.46,-24.04"/>
</g>
</g>
</svg>
