<?xml version="1.0" encoding="UTF-8" standalone="no"?>
<!DOCTYPE svg PUBLIC "-//W3C//DTD SVG 1.1//EN"
 "http://www.w3.org/Graphics/SVG/1.1/DTD/svg11.dtd">
<!-- Generated by graphviz version 2.43.0 (0)
 -->
<!-- Title: Taskflow Pages: 1 -->
<svg width="529pt" height="152pt"
 viewBox="0.00 0.00 529.27 152.00" xmlns="http://www.w3.org/2000/svg" xmlns:xlink="http://www.w3.org/1999/xlink">
<g id="graph0" class="graph" transform="scale(1 1) rotate(0) translate(4 148)">
<title>Taskflow</title>
<polygon fill="white" stroke="transparent" points="-4,4 -4,-148 525.27,-148 525.27,4 -4,4"/>
<!-- p0x7fa25f000030 -->
<g id="node1" class="node">
<title>p0x7fa25f000030</title>
<ellipse fill="none" stroke="black" cx="41.6" cy="-72" rx="41.69" ry="18"/>
<text text-anchor="middle" x="41.6" y="-68.3" font-family="Times,serif" font-size="14.00">source</text>
</g>
<!-- p0x7fa25f000140 -->
<g id="node2" class="node">
<title>p0x7fa25f000140</title>
<polygon fill="aquamarine" stroke="black" points="178.1,-90 120.29,-72 178.1,-54 235.91,-72 178.1,-90"/>
<text text-anchor="middle" x="178.1" y="-68.3" font-family="Times,serif" font-size="14.00">switch</text>
</g>
<!-- p0x7fa25f000030&#45;&gt;p0x7fa25f000140 -->
<g id="edge1" class="edge">
<title>p0x7fa25f000030&#45;&gt;p0x7fa25f000140</title>
<path fill="none" stroke="black" d="M83.32,-72C91.74,-72 100.83,-72 109.92,-72"/>
<polygon fill="black" stroke="black" points="110.14,-75.5 120.14,-72 110.14,-68.5 110.14,-75.5"/>
</g>
<!-- p0x7fa25f000250 -->
<g id="node3" class="node">
<title>p0x7fa25f000250</title>
<polygon fill="aquamarine" stroke="black" points="338.99,-144 282.02,-126 338.99,-108 395.97,-126 338.99,-144"/>
<text text-anchor="middle" x="338.99" y="-122.3" font-family="Times,serif" font-size="14.00">case 1</text>
</g>
<!-- p0x7fa25f000140&#45;&gt;p0x7fa25f000250 -->
<g id="edge2" class="edge">
<title>p0x7fa25f000140&#45;&gt;p0x7fa25f000250</title>
<path fill="none" stroke="black" stroke-dasharray="5,2" d="M206.41,-81.28C232.53,-90.16 272.1,-103.6 301.02,-113.44"/>
<polygon fill="black" stroke="black" points="300.18,-116.84 310.77,-116.75 302.43,-110.22 300.18,-116.84"/>
<text text-anchor="middle" x="259.01" y="-103.8" font-family="Times,serif" font-size="14.00">0</text>
</g>
<!-- p0x7fa25f000360 -->
<g id="node4" class="node">
<title>p0x7fa25f000360</title>
<polygon fill="aquamarine" stroke="black" points="338.99,-90 282.02,-72 338.99,-54 395.97,-72 338.99,-90"/>
<text text-anchor="middle" x="338.99" y="-68.3" font-family="Times,serif" font-size="14.00">case 2</text>
</g>
<!-- p0x7fa25f000140&#45;&gt;p0x7fa25f000360 -->
<g id="edge3" class="edge">
<title>p0x7fa25f000140&#45;&gt;p0x7fa25f000360</title>
<path fill="none" stroke="black" stroke-dasharray="5,2" d="M236.02,-72C247.59,-72 259.85,-72 271.72,-72"/>
<polygon fill="black" stroke="black" points="272.01,-75.5 282.01,-72 272.01,-68.5 272.01,-75.5"/>
<text text-anchor="middle" x="259.01" y="-75.8" font-family="Times,serif" font-size="14.00">1</text>
</g>
<!-- p0x7fa25f000470 -->
<g id="node5" class="node">
<title>p0x7fa25f000470</title>
<polygon fill="aquamarine" stroke="black" points="338.99,-36 282.02,-18 338.99,0 395.97,-18 338.99,-36"/>
<text text-anchor="middle" x="338.99" y="-14.3" font-family="Times,serif" font-size="14.00">case 3</text>
</g>
<!-- p0x7fa25f000140&#45;&gt;p0x7fa25f000470 -->
<g id="edge4" class="edge">
<title>p0x7fa25f000140&#45;&gt;p0x7fa25f000470</title>
<path fill="none" stroke="black" stroke-dasharray="5,2" d="M206.41,-62.72C232.53,-53.84 272.1,-40.4 301.02,-30.56"/>
<polygon fill="black" stroke="black" points="302.43,-33.78 310.77,-27.25 300.18,-27.16 302.43,-33.78"/>
<text text-anchor="middle" x="259.01" y="-48.8" font-family="Times,serif" font-size="14.00">2</text>
</g>
<!-- p0x7fa25f000580 -->
<g id="node6" class="node">
<title>p0x7fa25f000580</title>
<ellipse fill="none" stroke="black" cx="481.63" cy="-72" rx="39.79" ry="18"/>
<text text-anchor="middle" x="481.63" y="-68.3" font-family="Times,serif" font-size="14.00">target</text>
</g>
<!-- p0x7fa25f000250&#45;&gt;p0x7fa25f000580 -->
<g id="edge5" class="edge">
<title>p0x7fa25f000250&#45;&gt;p0x7fa25f000580</title>
<path fill="none" stroke="black" stroke-dasharray="5,2" d="M365.46,-116.22C386.54,-108.13 416.85,-96.49 441.08,-87.18"/>
<polygon fill="black" stroke="black" points="442.63,-90.34 450.71,-83.49 440.12,-83.8 442.63,-90.34"/>
<text text-anchor="middle" x="418.98" y="-100.8" font-family="Times,serif" font-size="14.00">0</text>
</g>
<!-- p0x7fa25f000360&#45;&gt;p0x7fa25f000580 -->
<g id="edge6" class="edge">
<title>p0x7fa25f000360&#45;&gt;p0x7fa25f000580</title>
<path fill="none" stroke="black" stroke-dasharray="5,2" d="M395.98,-72C407.71,-72 419.99,-72 431.45,-72"/>
<polygon fill="black" stroke="black" points="431.7,-75.5 441.7,-72 431.7,-68.5 431.7,-75.5"/>
<text text-anchor="middle" x="418.98" y="-75.8" font-family="Times,serif" font-size="14.00">0</text>
</g>
<!-- p0x7fa25f000470&#45;&gt;p0x7fa25f000580 -->
<g id="edge7" class="edge">
<title>p0x7fa25f000470&#45;&gt;p0x7fa25f000580</title>
<path fill="none" stroke="black" stroke-dasharray="5,2" d="M365.46,-27.78C386.54,-35.87 416.85,-47.51 441.08,-56.82"/>
<polygon fill="black" stroke="black" points="440.12,-60.2 450.71,-60.51 442.63,-53.66 440.12,-60.2"/>
<text text-anchor="middle" x="418.98" y="-52.8" font-family="Times,serif" font-size="14.00">0</text>
</g>
</g>
</svg>
