<?xml version="1.0" encoding="UTF-8" standalone="no"?>
<!DOCTYPE svg PUBLIC "-//W3C//DTD SVG 1.1//EN"
 "http://www.w3.org/Graphics/SVG/1.1/DTD/svg11.dtd">
<!-- Generated by graphviz version 2.43.0 (0)
 -->
<!-- Title: Taskflow Pages: 1 -->
<svg width="314pt" height="292pt"
 viewBox="0.00 0.00 314.00 292.00" xmlns="http://www.w3.org/2000/svg" xmlns:xlink="http://www.w3.org/1999/xlink">
<g id="graph0" class="graph" transform="scale(1 1) rotate(0) translate(4 288)">
<title>Taskflow</title>
<polygon fill="white" stroke="transparent" points="-4,4 -4,-288 310,-288 310,4 -4,4"/>
<g id="clust4" class="cluster">
<title>cluster0</title>
<polygon fill="none" stroke="black" stroke-dasharray="5,2" points="8,-224 8,-276 298,-276 298,-224 8,-224"/>
</g>
<g id="clust5" class="cluster">
<title>cluster1</title>
<polygon fill="none" stroke="black" stroke-dasharray="5,2" points="8,-152 8,-204 298,-204 298,-152 8,-152"/>
</g>
<g id="clust6" class="cluster">
<title>cluster2</title>
<polygon fill="none" stroke="black" stroke-dasharray="5,2" points="8,-80 8,-132 298,-132 298,-80 8,-80"/>
</g>
<g id="clust7" class="cluster">
<title>cluster3</title>
<polygon fill="none" stroke="black" stroke-dasharray="5,2" points="8,-8 8,-60 298,-60 298,-8 8,-8"/>
</g>
<!-- p00 -->
<g id="node1" class="node">
<title>p00</title>
<ellipse fill="none" stroke="black" cx="56" cy="-250" rx="39.79" ry="18"/>
<text text-anchor="middle" x="56" y="-246.3" font-family="Times,serif" font-size="14.00">pipe&#45;0</text>
</g>
<!-- p10 -->
<g id="node2" class="node">
<title>p10</title>
<ellipse fill="none" stroke="black" cx="56" cy="-178" rx="39.79" ry="18"/>
<text text-anchor="middle" x="56" y="-174.3" font-family="Times,serif" font-size="14.00">pipe&#45;0</text>
</g>
<!-- p00&#45;&gt;p10 -->
<g id="edge9" class="edge">
<title>p00&#45;&gt;p10</title>
<path fill="none" stroke="black" d="M56,-231.7C56,-223.98 56,-214.71 56,-206.11"/>
<polygon fill="black" stroke="black" points="59.5,-206.1 56,-196.1 52.5,-206.1 59.5,-206.1"/>
</g>
<!-- p01 -->
<g id="node5" class="node">
<title>p01</title>
<ellipse fill="none" stroke="black" cx="153" cy="-250" rx="39.79" ry="18"/>
<text text-anchor="middle" x="153" y="-246.3" font-family="Times,serif" font-size="14.00">pipe&#45;1</text>
</g>
<!-- p00&#45;&gt;p01 -->
<g id="edge1" class="edge">
<title>p00&#45;&gt;p01</title>
<path fill="none" stroke="black" d="M95.79,-250C98.24,-250 100.69,-250 103.14,-250"/>
<polygon fill="black" stroke="black" points="103.22,-253.5 113.22,-250 103.22,-246.5 103.22,-253.5"/>
</g>
<!-- p20 -->
<g id="node3" class="node">
<title>p20</title>
<ellipse fill="none" stroke="black" cx="56" cy="-106" rx="39.79" ry="18"/>
<text text-anchor="middle" x="56" y="-102.3" font-family="Times,serif" font-size="14.00">pipe&#45;0</text>
</g>
<!-- p10&#45;&gt;p20 -->
<g id="edge12" class="edge">
<title>p10&#45;&gt;p20</title>
<path fill="none" stroke="black" d="M56,-159.7C56,-151.98 56,-142.71 56,-134.11"/>
<polygon fill="black" stroke="black" points="59.5,-134.1 56,-124.1 52.5,-134.1 59.5,-134.1"/>
</g>
<!-- p11 -->
<g id="node6" class="node">
<title>p11</title>
<ellipse fill="none" stroke="black" cx="153" cy="-178" rx="39.79" ry="18"/>
<text text-anchor="middle" x="153" y="-174.3" font-family="Times,serif" font-size="14.00">pipe&#45;1</text>
</g>
<!-- p10&#45;&gt;p11 -->
<g id="edge3" class="edge">
<title>p10&#45;&gt;p11</title>
<path fill="none" stroke="black" d="M95.79,-178C98.24,-178 100.69,-178 103.14,-178"/>
<polygon fill="black" stroke="black" points="103.22,-181.5 113.22,-178 103.22,-174.5 103.22,-181.5"/>
</g>
<!-- p30 -->
<g id="node4" class="node">
<title>p30</title>
<ellipse fill="none" stroke="black" cx="56" cy="-34" rx="39.79" ry="18"/>
<text text-anchor="middle" x="56" y="-30.3" font-family="Times,serif" font-size="14.00">pipe&#45;0</text>
</g>
<!-- p20&#45;&gt;p30 -->
<g id="edge15" class="edge">
<title>p20&#45;&gt;p30</title>
<path fill="none" stroke="black" d="M56,-87.7C56,-79.98 56,-70.71 56,-62.11"/>
<polygon fill="black" stroke="black" points="59.5,-62.1 56,-52.1 52.5,-62.1 59.5,-62.1"/>
</g>
<!-- p21 -->
<g id="node7" class="node">
<title>p21</title>
<ellipse fill="none" stroke="black" cx="153" cy="-106" rx="39.79" ry="18"/>
<text text-anchor="middle" x="153" y="-102.3" font-family="Times,serif" font-size="14.00">pipe&#45;1</text>
</g>
<!-- p20&#45;&gt;p21 -->
<g id="edge5" class="edge">
<title>p20&#45;&gt;p21</title>
<path fill="none" stroke="black" d="M95.79,-106C98.24,-106 100.69,-106 103.14,-106"/>
<polygon fill="black" stroke="black" points="103.22,-109.5 113.22,-106 103.22,-102.5 103.22,-109.5"/>
</g>
<!-- p31 -->
<g id="node8" class="node">
<title>p31</title>
<ellipse fill="none" stroke="black" cx="153" cy="-34" rx="39.79" ry="18"/>
<text text-anchor="middle" x="153" y="-30.3" font-family="Times,serif" font-size="14.00">pipe&#45;1</text>
</g>
<!-- p30&#45;&gt;p31 -->
<g id="edge7" class="edge">
<title>p30&#45;&gt;p31</title>
<path fill="none" stroke="black" d="M95.79,-34C98.24,-34 100.69,-34 103.14,-34"/>
<polygon fill="black" stroke="black" points="103.22,-37.5 113.22,-34 103.22,-30.5 103.22,-37.5"/>
</g>
<!-- p01&#45;&gt;p11 -->
<g id="edge10" class="edge">
<title>p01&#45;&gt;p11</title>
<path fill="none" stroke="black" d="M153,-231.7C153,-223.98 153,-214.71 153,-206.11"/>
<polygon fill="black" stroke="black" points="156.5,-206.1 153,-196.1 149.5,-206.1 156.5,-206.1"/>
</g>
<!-- p02 -->
<g id="node9" class="node">
<title>p02</title>
<ellipse fill="none" stroke="black" cx="250" cy="-250" rx="39.79" ry="18"/>
<text text-anchor="middle" x="250" y="-246.3" font-family="Times,serif" font-size="14.00">pipe&#45;2</text>
</g>
<!-- p01&#45;&gt;p02 -->
<g id="edge2" class="edge">
<title>p01&#45;&gt;p02</title>
<path fill="none" stroke="black" d="M192.79,-250C195.24,-250 197.69,-250 200.14,-250"/>
<polygon fill="black" stroke="black" points="200.22,-253.5 210.22,-250 200.22,-246.5 200.22,-253.5"/>
</g>
<!-- p11&#45;&gt;p21 -->
<g id="edge13" class="edge">
<title>p11&#45;&gt;p21</title>
<path fill="none" stroke="black" d="M153,-159.7C153,-151.98 153,-142.71 153,-134.11"/>
<polygon fill="black" stroke="black" points="156.5,-134.1 153,-124.1 149.5,-134.1 156.5,-134.1"/>
</g>
<!-- p12 -->
<g id="node10" class="node">
<title>p12</title>
<ellipse fill="none" stroke="black" cx="250" cy="-178" rx="39.79" ry="18"/>
<text text-anchor="middle" x="250" y="-174.3" font-family="Times,serif" font-size="14.00">pipe&#45;2</text>
</g>
<!-- p11&#45;&gt;p12 -->
<g id="edge4" class="edge">
<title>p11&#45;&gt;p12</title>
<path fill="none" stroke="black" d="M192.79,-178C195.24,-178 197.69,-178 200.14,-178"/>
<polygon fill="black" stroke="black" points="200.22,-181.5 210.22,-178 200.22,-174.5 200.22,-181.5"/>
</g>
<!-- p21&#45;&gt;p31 -->
<g id="edge16" class="edge">
<title>p21&#45;&gt;p31</title>
<path fill="none" stroke="black" d="M153,-87.7C153,-79.98 153,-70.71 153,-62.11"/>
<polygon fill="black" stroke="black" points="156.5,-62.1 153,-52.1 149.5,-62.1 156.5,-62.1"/>
</g>
<!-- p22 -->
<g id="node11" class="node">
<title>p22</title>
<ellipse fill="none" stroke="black" cx="250" cy="-106" rx="39.79" ry="18"/>
<text text-anchor="middle" x="250" y="-102.3" font-family="Times,serif" font-size="14.00">pipe&#45;2</text>
</g>
<!-- p21&#45;&gt;p22 -->
<g id="edge6" class="edge">
<title>p21&#45;&gt;p22</title>
<path fill="none" stroke="black" d="M192.79,-106C195.24,-106 197.69,-106 200.14,-106"/>
<polygon fill="black" stroke="black" points="200.22,-109.5 210.22,-106 200.22,-102.5 200.22,-109.5"/>
</g>
<!-- p32 -->
<g id="node12" class="node">
<title>p32</title>
<ellipse fill="none" stroke="black" cx="250" cy="-34" rx="39.79" ry="18"/>
<text text-anchor="middle" x="250" y="-30.3" font-family="Times,serif" font-size="14.00">pipe&#45;2</text>
</g>
<!-- p31&#45;&gt;p32 -->
<g id="edge8" class="edge">
<title>p31&#45;&gt;p32</title>
<path fill="none" stroke="black" d="M192.79,-34C195.24,-34 197.69,-34 200.14,-34"/>
<polygon fill="black" stroke="black" points="200.22,-37.5 210.22,-34 200.22,-30.5 200.22,-37.5"/>
</g>
<!-- p02&#45;&gt;p12 -->
<g id="edge11" class="edge">
<title>p02&#45;&gt;p12</title>
<path fill="none" stroke="black" d="M250,-231.7C250,-223.98 250,-214.71 250,-206.11"/>
<polygon fill="black" stroke="black" points="253.5,-206.1 250,-196.1 246.5,-206.1 253.5,-206.1"/>
</g>
<!-- p12&#45;&gt;p22 -->
<g id="edge14" class="edge">
<title>p12&#45;&gt;p22</title>
<path fill="none" stroke="black" d="M250,-159.7C250,-151.98 250,-142.71 250,-134.11"/>
<polygon fill="black" stroke="black" points="253.5,-134.1 250,-124.1 246.5,-134.1 253.5,-134.1"/>
</g>
<!-- p22&#45;&gt;p32 -->
<g id="edge17" class="edge">
<title>p22&#45;&gt;p32</title>
<path fill="none" stroke="black" d="M250,-87.7C250,-79.98 250,-70.71 250,-62.11"/>
<polygon fill="black" stroke="black" points="253.5,-62.1 250,-52.1 246.5,-62.1 253.5,-62.1"/>
</g>
</g>
</svg>
