<?xml version="1.0" encoding="UTF-8" standalone="no"?>
<!DOCTYPE svg PUBLIC "-//W3C//DTD SVG 1.1//EN"
 "http://www.w3.org/Graphics/SVG/1.1/DTD/svg11.dtd">
<!-- Generated by graphviz version 12.2.1 (20241206.2353)
 -->
<!-- Title: Taskflow Pages: 1 -->
<svg width="406pt" height="227pt"
 viewBox="0.00 0.00 405.56 227.00" xmlns="http://www.w3.org/2000/svg" xmlns:xlink="http://www.w3.org/1999/xlink">
<g id="graph0" class="graph" transform="scale(1 1) rotate(0) translate(4 223)">
<title>Taskflow</title>
<polygon fill="white" stroke="none" points="-4,4 -4,-223 401.56,-223 401.56,4 -4,4"/>
<g id="clust1" class="cluster">
<title>cluster_p0x7ffeeca03810</title>
<polygon fill="none" stroke="black" points="8,-8 8,-211 389.56,-211 389.56,-8 8,-8"/>
<text text-anchor="middle" x="198.78" y="-193.7" font-family="Times,serif" font-size="14.00">Taskflow</text>
</g>
<g id="clust2" class="cluster">
<title>cluster_p0x7fbc40c02830</title>
<polygon fill="none" stroke="blue" points="16,-16 16,-178 381.56,-178 381.56,-16 16,-16"/>
<text text-anchor="middle" x="198.78" y="-160.7" font-family="Times,serif" font-size="14.00">Subflow: A</text>
</g>
<g id="clust3" class="cluster">
<title>cluster_p0x7fbc40d00240</title>
<polygon fill="none" stroke="blue" points="24,-24 24,-101 291.56,-101 291.56,-24 24,-24"/>
<text text-anchor="middle" x="157.78" y="-83.7" font-family="Times,serif" font-size="14.00">Subflow: A2</text>
</g>
<!-- p0x7fbc40c02830 -->
<g id="node1" class="node">
<title>p0x7fbc40c02830</title>
<ellipse fill="none" stroke="black" cx="346.56" cy="-50" rx="27" ry="18"/>
<text text-anchor="middle" x="346.56" y="-44.95" font-family="Times,serif" font-size="14.00">A</text>
</g>
<!-- p0x7fbc40d00120 -->
<g id="node2" class="node">
<title>p0x7fbc40d00120</title>
<ellipse fill="none" stroke="black" cx="162.17" cy="-127" rx="27" ry="18"/>
<text text-anchor="middle" x="162.17" y="-121.95" font-family="Times,serif" font-size="14.00">A1</text>
</g>
<!-- p0x7fbc40d00240 -->
<g id="node3" class="node">
<title>p0x7fbc40d00240</title>
<ellipse fill="none" stroke="black" cx="256.56" cy="-50" rx="27" ry="18"/>
<text text-anchor="middle" x="256.56" y="-44.95" font-family="Times,serif" font-size="14.00">A2</text>
</g>
<!-- p0x7fbc40d00120&#45;&gt;p0x7fbc40d00240 -->
<g id="edge1" class="edge">
<title>p0x7fbc40d00120&#45;&gt;p0x7fbc40d00240</title>
<path fill="none" stroke="black" d="M181.71,-114.03C185.68,-111.13 189.8,-108.02 193.56,-105 206.4,-94.7 220.15,-82.62 231.43,-72.41"/>
<polygon fill="black" stroke="black" points="233.74,-75.04 238.76,-65.71 229.02,-69.87 233.74,-75.04"/>
</g>
<!-- p0x7fbc40d00240&#45;&gt;p0x7fbc40c02830 -->
<g id="edge2" class="edge">
<title>p0x7fbc40d00240&#45;&gt;p0x7fbc40c02830</title>
<path fill="none" stroke="black" d="M283.97,-50C291.45,-50 299.75,-50 307.76,-50"/>
<polygon fill="black" stroke="black" points="307.67,-53.5 317.67,-50 307.67,-46.5 307.67,-53.5"/>
</g>
<!-- p0x7fbc40d00360 -->
<g id="node4" class="node">
<title>p0x7fbc40d00360</title>
<ellipse fill="none" stroke="black" cx="63.39" cy="-50" rx="31.39" ry="18"/>
<text text-anchor="middle" x="63.39" y="-44.95" font-family="Times,serif" font-size="14.00">A2_1</text>
</g>
<!-- p0x7fbc40d00470 -->
<g id="node5" class="node">
<title>p0x7fbc40d00470</title>
<ellipse fill="none" stroke="black" cx="162.17" cy="-50" rx="31.39" ry="18"/>
<text text-anchor="middle" x="162.17" y="-44.95" font-family="Times,serif" font-size="14.00">A2_2</text>
</g>
<!-- p0x7fbc40d00360&#45;&gt;p0x7fbc40d00470 -->
<g id="edge3" class="edge">
<title>p0x7fbc40d00360&#45;&gt;p0x7fbc40d00470</title>
<path fill="none" stroke="black" d="M95.28,-50C102.86,-50 111.11,-50 119.12,-50"/>
<polygon fill="black" stroke="black" points="119.06,-53.5 129.06,-50 119.06,-46.5 119.06,-53.5"/>
</g>
<!-- p0x7fbc40d00470&#45;&gt;p0x7fbc40d00240 -->
<g id="edge4" class="edge">
<title>p0x7fbc40d00470&#45;&gt;p0x7fbc40d00240</title>
<path fill="none" stroke="black" d="M193.94,-50C201.63,-50 209.96,-50 217.94,-50"/>
<polygon fill="black" stroke="black" points="217.75,-53.5 227.75,-50 217.75,-46.5 217.75,-53.5"/>
</g>
</g>
</svg>
