<?xml version="1.0" encoding="UTF-8" standalone="no"?>
<!DOCTYPE svg PUBLIC "-//W3C//DTD SVG 1.1//EN"
 "http://www.w3.org/Graphics/SVG/1.1/DTD/svg11.dtd">
<!-- Generated by graphviz version 2.43.0 (0)
 -->
<!-- Title: Taskflow Pages: 1 -->
<svg width="358pt" height="243pt"
 viewBox="0.00 0.00 358.00 243.00" xmlns="http://www.w3.org/2000/svg" xmlns:xlink="http://www.w3.org/1999/xlink">
<g id="graph0" class="graph" transform="scale(1 1) rotate(0) translate(4 239)">
<title>Taskflow</title>
<polygon fill="white" stroke="transparent" points="-4,4 -4,-239 354,-239 354,4 -4,4"/>
<g id="clust1" class="cluster">
<title>cluster_p0x7ffeeb8ff970</title>
<polygon fill="none" stroke="black" points="8,-8 8,-227 192,-227 192,-8 8,-8"/>
<text text-anchor="middle" x="100" y="-211.8" font-family="Times,serif" font-size="14.00">Taskflow: f2</text>
</g>
<g id="clust2" class="cluster">
<title>cluster_p0x7ffeeb8ff8d0</title>
<polygon fill="none" stroke="black" points="200,-152 200,-227 342,-227 342,-152 200,-152"/>
<text text-anchor="middle" x="271" y="-211.8" font-family="Times,serif" font-size="14.00">Taskflow: f1</text>
</g>
<!-- p0x7ffb03813838 -->
<g id="node1" class="node">
<title>p0x7ffb03813838</title>
<ellipse fill="none" stroke="black" cx="100" cy="-34" rx="27" ry="18"/>
<text text-anchor="middle" x="100" y="-30.3" font-family="Times,serif" font-size="14.00">f2C</text>
</g>
<!-- p0x7ffb03813938 -->
<g id="node2" class="node">
<title>p0x7ffb03813938</title>
<ellipse fill="none" stroke="black" cx="136" cy="-178" rx="27" ry="18"/>
<text text-anchor="middle" x="136" y="-174.3" font-family="Times,serif" font-size="14.00">f2B</text>
</g>
<!-- p0x7ffb03813b38 -->
<g id="node3" class="node">
<title>p0x7ffb03813b38</title>
<polygon fill="none" stroke="blue" points="184.5,-124 19.5,-124 15.5,-120 15.5,-88 180.5,-88 184.5,-92 184.5,-124"/>
<polyline fill="none" stroke="blue" points="180.5,-120 15.5,-120 "/>
<polyline fill="none" stroke="blue" points="180.5,-120 180.5,-88 "/>
<polyline fill="none" stroke="blue" points="180.5,-120 184.5,-124 "/>
<text text-anchor="middle" x="100" y="-102.3" font-family="Times,serif" font-size="14.00">module [Taskflow: f1]</text>
</g>
<!-- p0x7ffb03813938&#45;&gt;p0x7ffb03813b38 -->
<g id="edge1" class="edge">
<title>p0x7ffb03813938&#45;&gt;p0x7ffb03813b38</title>
<path fill="none" stroke="black" d="M127.65,-160.76C123.46,-152.61 118.27,-142.53 113.53,-133.31"/>
<polygon fill="black" stroke="black" points="116.49,-131.42 108.81,-124.12 110.27,-134.62 116.49,-131.42"/>
</g>
<!-- p0x7ffb03813b38&#45;&gt;p0x7ffb03813838 -->
<g id="edge3" class="edge">
<title>p0x7ffb03813b38&#45;&gt;p0x7ffb03813838</title>
<path fill="none" stroke="black" d="M100,-87.7C100,-79.98 100,-70.71 100,-62.11"/>
<polygon fill="black" stroke="black" points="103.5,-62.1 100,-52.1 96.5,-62.1 103.5,-62.1"/>
</g>
<!-- p0x7ffb03813a38 -->
<g id="node4" class="node">
<title>p0x7ffb03813a38</title>
<ellipse fill="none" stroke="black" cx="64" cy="-178" rx="27" ry="18"/>
<text text-anchor="middle" x="64" y="-174.3" font-family="Times,serif" font-size="14.00">f2A</text>
</g>
<!-- p0x7ffb03813a38&#45;&gt;p0x7ffb03813b38 -->
<g id="edge2" class="edge">
<title>p0x7ffb03813a38&#45;&gt;p0x7ffb03813b38</title>
<path fill="none" stroke="black" d="M72.35,-160.76C76.54,-152.61 81.73,-142.53 86.47,-133.31"/>
<polygon fill="black" stroke="black" points="89.73,-134.62 91.19,-124.12 83.51,-131.42 89.73,-134.62"/>
</g>
<!-- p0x7ffb03813638 -->
<g id="node5" class="node">
<title>p0x7ffb03813638</title>
<ellipse fill="none" stroke="black" cx="307" cy="-178" rx="27" ry="18"/>
<text text-anchor="middle" x="307" y="-174.3" font-family="Times,serif" font-size="14.00">f1B</text>
</g>
<!-- p0x7ffb03813738 -->
<g id="node6" class="node">
<title>p0x7ffb03813738</title>
<ellipse fill="none" stroke="black" cx="235" cy="-178" rx="27" ry="18"/>
<text text-anchor="middle" x="235" y="-174.3" font-family="Times,serif" font-size="14.00">f1A</text>
</g>
</g>
</svg>
