<?xml version="1.0" encoding="UTF-8" standalone="no"?>
<!DOCTYPE svg PUBLIC "-//W3C//DTD SVG 1.1//EN"
 "http://www.w3.org/Graphics/SVG/1.1/DTD/svg11.dtd">
<!-- Generated by graphviz version 2.43.0 (0)
 -->
<!-- Title: Taskflow Pages: 1 -->
<svg width="501pt" height="46pt"
 viewBox="0.00 0.00 500.64 45.80" xmlns="http://www.w3.org/2000/svg" xmlns:xlink="http://www.w3.org/1999/xlink">
<g id="graph0" class="graph" transform="scale(1 1) rotate(0) translate(4 41.8)">
<title>Taskflow</title>
<polygon fill="white" stroke="transparent" points="-4,4 -4,-41.8 496.64,-41.8 496.64,4 -4,4"/>
<!-- p0x7f950d600030 -->
<g id="node1" class="node">
<title>p0x7f950d600030</title>
<ellipse fill="none" stroke="black" cx="27" cy="-19.8" rx="27" ry="18"/>
<text text-anchor="middle" x="27" y="-16.1" font-family="Times,serif" font-size="14.00">init</text>
</g>
<!-- p0x7f950d600140 -->
<g id="node2" class="node">
<title>p0x7f950d600140</title>
<ellipse fill="none" stroke="black" cx="134.55" cy="-19.8" rx="43.59" ry="18"/>
<text text-anchor="middle" x="134.55" y="-16.1" font-family="Times,serif" font-size="14.00">do i++</text>
</g>
<!-- p0x7f950d600030&#45;&gt;p0x7f950d600140 -->
<g id="edge1" class="edge">
<title>p0x7f950d600030&#45;&gt;p0x7f950d600140</title>
<path fill="none" stroke="black" d="M54.09,-19.8C62.25,-19.8 71.56,-19.8 80.87,-19.8"/>
<polygon fill="black" stroke="black" points="80.92,-23.3 90.92,-19.8 80.92,-16.3 80.92,-23.3"/>
</g>
<!-- p0x7f950d600250 -->
<g id="node3" class="node">
<title>p0x7f950d600250</title>
<polygon fill="aquamarine" stroke="black" points="302.22,-37.8 223.96,-19.8 302.22,-1.8 380.48,-19.8 302.22,-37.8"/>
<text text-anchor="middle" x="302.22" y="-16.1" font-family="Times,serif" font-size="14.00">while i&lt;5</text>
</g>
<!-- p0x7f950d600140&#45;&gt;p0x7f950d600250 -->
<g id="edge2" class="edge">
<title>p0x7f950d600140&#45;&gt;p0x7f950d600250</title>
<path fill="none" stroke="black" d="M178.22,-20.59C184.22,-20.68 190.31,-20.75 196.09,-20.8 203.24,-20.86 210.67,-20.88 218.12,-20.86"/>
<polygon fill="black" stroke="black" points="218.28,-24.36 228.27,-20.83 218.25,-17.36 218.28,-24.36"/>
</g>
<!-- p0x7f950d600250&#45;&gt;p0x7f950d600140 -->
<g id="edge3" class="edge">
<title>p0x7f950d600250&#45;&gt;p0x7f950d600140</title>
<path fill="none" stroke="black" stroke-dasharray="5,2" d="M269.54,-9.12C248.71,-3.4 220.83,1.8 196.09,-1.8 190.18,-2.66 184.05,-3.97 178.05,-5.5"/>
<polygon fill="black" stroke="black" points="176.86,-2.19 168.15,-8.23 178.72,-8.94 176.86,-2.19"/>
<text text-anchor="middle" x="201.09" y="-5.6" font-family="Times,serif" font-size="14.00">0</text>
</g>
<!-- p0x7f950d600360 -->
<g id="node4" class="node">
<title>p0x7f950d600360</title>
<ellipse fill="none" stroke="black" cx="459.5" cy="-19.8" rx="33.29" ry="18"/>
<text text-anchor="middle" x="459.5" y="-16.1" font-family="Times,serif" font-size="14.00">done</text>
</g>
<!-- p0x7f950d600250&#45;&gt;p0x7f950d600360 -->
<g id="edge4" class="edge">
<title>p0x7f950d600250&#45;&gt;p0x7f950d600360</title>
<path fill="none" stroke="black" stroke-dasharray="5,2" d="M380.4,-19.8C392.63,-19.8 404.87,-19.8 415.92,-19.8"/>
<polygon fill="black" stroke="black" points="416.1,-23.3 426.1,-19.8 416.1,-16.3 416.1,-23.3"/>
<text text-anchor="middle" x="403.35" y="-23.6" font-family="Times,serif" font-size="14.00">1</text>
</g>
</g>
</svg>
