<?xml version="1.0" encoding="UTF-8" standalone="no"?>
<!DOCTYPE svg PUBLIC "-//W3C//DTD SVG 1.1//EN"
 "http://www.w3.org/Graphics/SVG/1.1/DTD/svg11.dtd">
<!-- Generated by graphviz version 12.2.1 (20241206.2353)
 -->
<!-- Title: Taskflow Pages: 1 -->
<svg width="1003pt" height="116pt"
 viewBox="0.00 0.00 1003.44 116.00" xmlns="http://www.w3.org/2000/svg" xmlns:xlink="http://www.w3.org/1999/xlink">
<g id="graph0" class="graph" transform="scale(1 1) rotate(0) translate(4 112)">
<title>Taskflow</title>
<polygon fill="white" stroke="none" points="-4,4 -4,-112 999.44,-112 999.44,4 -4,4"/>
<!-- p0xce2720 -->
<g id="node1" class="node">
<title>p0xce2720</title>
<ellipse fill="none" stroke="black" cx="488.41" cy="-18" rx="125.05" ry="18"/>
<text text-anchor="middle" x="488.41" y="-12.95" font-family="Times,serif" font-size="14.00">[0, 100) with the step size of 2</text>
</g>
<!-- p0x7f322c000b50 -->
<g id="node2" class="node">
<title>p0x7f322c000b50</title>
<ellipse fill="none" stroke="black" cx="32.41" cy="-90" rx="32.41" ry="18"/>
<text text-anchor="middle" x="32.41" y="-84.95" font-family="Times,serif" font-size="14.00">pfg_0</text>
</g>
<!-- p0x7f322c000b50&#45;&gt;p0xce2720 -->
<g id="edge1" class="edge">
<title>p0x7f322c000b50&#45;&gt;p0xce2720</title>
<path fill="none" stroke="black" d="M56.93,-77.85C62.58,-75.63 68.63,-73.51 74.41,-72 169.58,-47.09 280.24,-33.7 363.2,-26.61"/>
<polygon fill="black" stroke="black" points="363.28,-30.12 372.95,-25.8 362.69,-23.14 363.28,-30.12"/>
</g>
<!-- p0x7f322c000c58 -->
<g id="node3" class="node">
<title>p0x7f322c000c58</title>
<ellipse fill="none" stroke="black" cx="115.41" cy="-90" rx="32.41" ry="18"/>
<text text-anchor="middle" x="115.41" y="-84.95" font-family="Times,serif" font-size="14.00">pfg_1</text>
</g>
<!-- p0x7f322c000c58&#45;&gt;p0xce2720 -->
<g id="edge2" class="edge">
<title>p0x7f322c000c58&#45;&gt;p0xce2720</title>
<path fill="none" stroke="black" d="M139.97,-77.98C145.61,-75.75 151.66,-73.6 157.41,-72 229.36,-51.96 312.35,-38.69 377.23,-30.44"/>
<polygon fill="black" stroke="black" points="377.31,-33.96 386.8,-29.25 376.44,-27.01 377.31,-33.96"/>
</g>
<!-- p0x7f322c000d60 -->
<g id="node4" class="node">
<title>p0x7f322c000d60</title>
<ellipse fill="none" stroke="black" cx="198.41" cy="-90" rx="32.41" ry="18"/>
<text text-anchor="middle" x="198.41" y="-84.95" font-family="Times,serif" font-size="14.00">pfg_2</text>
</g>
<!-- p0x7f322c000d60&#45;&gt;p0xce2720 -->
<g id="edge3" class="edge">
<title>p0x7f322c000d60&#45;&gt;p0xce2720</title>
<path fill="none" stroke="black" d="M223.48,-78.03C228.99,-75.85 234.85,-73.71 240.41,-72 291.76,-56.25 350.47,-43.48 397.88,-34.42"/>
<polygon fill="black" stroke="black" points="398.39,-37.89 407.57,-32.6 397.09,-31.01 398.39,-37.89"/>
</g>
<!-- p0x7f322c000e68 -->
<g id="node5" class="node">
<title>p0x7f322c000e68</title>
<ellipse fill="none" stroke="black" cx="281.41" cy="-90" rx="32.41" ry="18"/>
<text text-anchor="middle" x="281.41" y="-84.95" font-family="Times,serif" font-size="14.00">pfg_3</text>
</g>
<!-- p0x7f322c000e68&#45;&gt;p0xce2720 -->
<g id="edge4" class="edge">
<title>p0x7f322c000e68&#45;&gt;p0xce2720</title>
<path fill="none" stroke="black" d="M306.62,-78.45C312.12,-76.24 317.94,-73.98 323.41,-72 356.82,-59.89 394.51,-47.68 425.43,-38.03"/>
<polygon fill="black" stroke="black" points="426.1,-41.49 434.62,-35.18 424.03,-34.8 426.1,-41.49"/>
</g>
<!-- p0x7f322c000f70 -->
<g id="node6" class="node">
<title>p0x7f322c000f70</title>
<ellipse fill="none" stroke="black" cx="364.41" cy="-90" rx="32.41" ry="18"/>
<text text-anchor="middle" x="364.41" y="-84.95" font-family="Times,serif" font-size="14.00">pfg_4</text>
</g>
<!-- p0x7f322c000f70&#45;&gt;p0xce2720 -->
<g id="edge5" class="edge">
<title>p0x7f322c000f70&#45;&gt;p0xce2720</title>
<path fill="none" stroke="black" d="M386.58,-76.49C403.82,-66.75 428.19,-53 448.77,-41.38"/>
<polygon fill="black" stroke="black" points="450.21,-44.59 457.2,-36.62 446.77,-38.49 450.21,-44.59"/>
</g>
<!-- p0x7f322c001078 -->
<g id="node7" class="node">
<title>p0x7f322c001078</title>
<ellipse fill="none" stroke="black" cx="447.41" cy="-90" rx="32.41" ry="18"/>
<text text-anchor="middle" x="447.41" y="-84.95" font-family="Times,serif" font-size="14.00">pfg_5</text>
</g>
<!-- p0x7f322c001078&#45;&gt;p0xce2720 -->
<g id="edge6" class="edge">
<title>p0x7f322c001078&#45;&gt;p0xce2720</title>
<path fill="none" stroke="black" d="M457.13,-72.41C461.81,-64.42 467.54,-54.64 472.81,-45.64"/>
<polygon fill="black" stroke="black" points="475.68,-47.66 477.72,-37.26 469.64,-44.12 475.68,-47.66"/>
</g>
<!-- p0x7f322c001180 -->
<g id="node8" class="node">
<title>p0x7f322c001180</title>
<ellipse fill="none" stroke="black" cx="530.41" cy="-90" rx="32.41" ry="18"/>
<text text-anchor="middle" x="530.41" y="-84.95" font-family="Times,serif" font-size="14.00">pfg_6</text>
</g>
<!-- p0x7f322c001180&#45;&gt;p0xce2720 -->
<g id="edge7" class="edge">
<title>p0x7f322c001180&#45;&gt;p0xce2720</title>
<path fill="none" stroke="black" d="M520.46,-72.41C515.67,-64.42 509.8,-54.64 504.4,-45.64"/>
<polygon fill="black" stroke="black" points="507.51,-44.03 499.37,-37.25 501.51,-47.63 507.51,-44.03"/>
</g>
<!-- p0x7f322c001288 -->
<g id="node9" class="node">
<title>p0x7f322c001288</title>
<ellipse fill="none" stroke="black" cx="613.41" cy="-90" rx="32.41" ry="18"/>
<text text-anchor="middle" x="613.41" y="-84.95" font-family="Times,serif" font-size="14.00">pfg_7</text>
</g>
<!-- p0x7f322c001288&#45;&gt;p0xce2720 -->
<g id="edge8" class="edge">
<title>p0x7f322c001288&#45;&gt;p0xce2720</title>
<path fill="none" stroke="black" d="M591.07,-76.49C573.69,-66.75 549.12,-53 528.38,-41.38"/>
<polygon fill="black" stroke="black" points="530.31,-38.45 519.87,-36.62 526.89,-44.56 530.31,-38.45"/>
</g>
<!-- p0x7f322c001390 -->
<g id="node10" class="node">
<title>p0x7f322c001390</title>
<ellipse fill="none" stroke="black" cx="696.41" cy="-90" rx="32.41" ry="18"/>
<text text-anchor="middle" x="696.41" y="-84.95" font-family="Times,serif" font-size="14.00">pfg_8</text>
</g>
<!-- p0x7f322c001390&#45;&gt;p0xce2720 -->
<g id="edge9" class="edge">
<title>p0x7f322c001390&#45;&gt;p0xce2720</title>
<path fill="none" stroke="black" d="M671.21,-78.44C665.71,-76.23 659.89,-73.98 654.41,-72 620.82,-59.86 582.9,-47.64 551.79,-38"/>
<polygon fill="black" stroke="black" points="553.12,-34.75 542.54,-35.15 551.06,-41.44 553.12,-34.75"/>
</g>
<!-- p0x7f322c001498 -->
<g id="node11" class="node">
<title>p0x7f322c001498</title>
<ellipse fill="none" stroke="black" cx="779.41" cy="-90" rx="32.41" ry="18"/>
<text text-anchor="middle" x="779.41" y="-84.95" font-family="Times,serif" font-size="14.00">pfg_9</text>
</g>
<!-- p0x7f322c001498&#45;&gt;p0xce2720 -->
<g id="edge10" class="edge">
<title>p0x7f322c001498&#45;&gt;p0xce2720</title>
<path fill="none" stroke="black" d="M754.35,-78.02C748.84,-75.84 742.98,-73.7 737.41,-72 685.87,-56.22 626.92,-43.44 579.32,-34.39"/>
<polygon fill="black" stroke="black" points="580.06,-30.97 569.58,-32.57 578.77,-37.85 580.06,-30.97"/>
</g>
<!-- p0x7f322c0015a0 -->
<g id="node12" class="node">
<title>p0x7f322c0015a0</title>
<ellipse fill="none" stroke="black" cx="866.41" cy="-90" rx="37.02" ry="18"/>
<text text-anchor="middle" x="866.41" y="-84.95" font-family="Times,serif" font-size="14.00">pfg_10</text>
</g>
<!-- p0x7f322c0015a0&#45;&gt;p0xce2720 -->
<g id="edge11" class="edge">
<title>p0x7f322c0015a0&#45;&gt;p0xce2720</title>
<path fill="none" stroke="black" d="M838.47,-77.68C832.58,-75.58 826.34,-73.55 820.41,-72 747.16,-52.81 662.88,-39.46 597.56,-30.96"/>
<polygon fill="black" stroke="black" points="598.29,-27.52 587.93,-29.72 597.4,-34.47 598.29,-27.52"/>
</g>
<!-- p0x7f322c0016a8 -->
<g id="node13" class="node">
<title>p0x7f322c0016a8</title>
<ellipse fill="none" stroke="black" cx="958.41" cy="-90" rx="37.02" ry="18"/>
<text text-anchor="middle" x="958.41" y="-84.95" font-family="Times,serif" font-size="14.00">pfg_11</text>
</g>
<!-- p0x7f322c0016a8&#45;&gt;p0xce2720 -->
<g id="edge12" class="edge">
<title>p0x7f322c0016a8&#45;&gt;p0xce2720</title>
<path fill="none" stroke="black" d="M931,-77.7C924.96,-75.54 918.54,-73.49 912.41,-72 813.09,-47.78 697.83,-34.28 612.57,-26.97"/>
<polygon fill="black" stroke="black" points="613.04,-23.5 602.79,-26.15 612.46,-30.47 613.04,-23.5"/>
</g>
</g>
</svg>
