<?xml version="1.0" encoding="UTF-8" standalone="no"?>
<!DOCTYPE svg PUBLIC "-//W3C//DTD SVG 1.1//EN"
 "http://www.w3.org/Graphics/SVG/1.1/DTD/svg11.dtd">
<!-- Generated by graphviz version 12.2.1 (20241206.2353)
 -->
<!-- Title: G Pages: 1 -->
<svg width="794pt" height="352pt"
 viewBox="0.00 0.00 794.21 351.50" xmlns="http://www.w3.org/2000/svg" xmlns:xlink="http://www.w3.org/1999/xlink">
<g id="graph0" class="graph" transform="scale(1 1) rotate(0) translate(4 347.5)">
<title>G</title>
<polygon fill="white" stroke="none" points="-4,4 -4,-347.5 790.21,-347.5 790.21,4 -4,4"/>
<!-- atask -->
<g id="node1" class="node">
<title>atask</title>
<ellipse fill="none" stroke="black" cx="663.21" cy="-325.5" rx="115.33" ry="18"/>
<text text-anchor="middle" x="663.21" y="-320.45" font-family="Times,serif" font-size="14.00">pop a task T from the queue</text>
</g>
<!-- cond -->
<g id="node2" class="node">
<title>cond</title>
<polygon fill="aquamarine" stroke="black" points="508.21,-270.5 381.3,-252.5 508.21,-234.5 635.12,-252.5 508.21,-270.5"/>
<text text-anchor="middle" x="508.21" y="-247.45" font-family="Times,serif" font-size="14.00">is T a condition task?</text>
</g>
<!-- atask&#45;&gt;cond -->
<g id="edge1" class="edge">
<title>atask&#45;&gt;cond</title>
<path fill="none" stroke="black" d="M627.26,-308.03C603.42,-297.11 572.14,-282.78 547.62,-271.55"/>
<polygon fill="black" stroke="black" points="549.15,-268.4 538.6,-267.42 546.24,-274.77 549.15,-268.4"/>
</g>
<!-- invokeN -->
<g id="node3" class="node">
<title>invokeN</title>
<ellipse fill="none" stroke="black" cx="378.21" cy="-164" rx="47.77" ry="18"/>
<text text-anchor="middle" x="378.21" y="-158.95" font-family="Times,serif" font-size="14.00">invoke(T)</text>
</g>
<!-- cond&#45;&gt;invokeN -->
<g id="edge6" class="edge">
<title>cond&#45;&gt;invokeN</title>
<path fill="none" stroke="black" stroke-dasharray="5,2" d="M486.74,-237.22C465.95,-223.38 434.17,-202.23 410.36,-186.39"/>
<polygon fill="black" stroke="black" points="412.54,-183.64 402.28,-181.02 408.67,-189.47 412.54,-183.64"/>
<text text-anchor="middle" x="461.6" y="-203.2" font-family="Times,serif" font-size="14.00">no</text>
</g>
<!-- invokeY -->
<g id="node4" class="node">
<title>invokeY</title>
<ellipse fill="none" stroke="black" cx="549.21" cy="-164" rx="64.66" ry="18"/>
<text text-anchor="middle" x="549.21" y="-158.95" font-family="Times,serif" font-size="14.00">R = invoke(T)</text>
</g>
<!-- cond&#45;&gt;invokeY -->
<g id="edge5" class="edge">
<title>cond&#45;&gt;invokeY</title>
<path fill="none" stroke="black" stroke-dasharray="5,2" d="M515.92,-235.23C521.65,-223.14 529.6,-206.37 536.29,-192.25"/>
<polygon fill="black" stroke="black" points="539.34,-193.99 540.46,-183.45 533.02,-190.99 539.34,-193.99"/>
<text text-anchor="middle" x="541.38" y="-203.2" font-family="Times,serif" font-size="14.00">yes</text>
</g>
<!-- decrement -->
<g id="node6" class="node">
<title>decrement</title>
<ellipse fill="none" stroke="black" cx="240.21" cy="-91" rx="240.21" ry="18"/>
<text text-anchor="middle" x="240.21" y="-85.95" font-family="Times,serif" font-size="14.00">decrement strong dependencies of each successor of T by one</text>
</g>
<!-- invokeN&#45;&gt;decrement -->
<g id="edge2" class="edge">
<title>invokeN&#45;&gt;decrement</title>
<path fill="none" stroke="black" d="M350.94,-148.97C331.82,-139.13 305.85,-125.77 283.86,-114.46"/>
<polygon fill="black" stroke="black" points="285.6,-111.42 275.11,-109.95 282.4,-117.64 285.6,-111.42"/>
</g>
<!-- enqueueR -->
<g id="node5" class="node">
<title>enqueueR</title>
<ellipse fill="none" stroke="black" cx="628.21" cy="-91" rx="130.17" ry="18"/>
<text text-anchor="middle" x="628.21" y="-85.95" font-family="Times,serif" font-size="14.00">enqueue the R&#45;th successor of T</text>
</g>
<!-- invokeY&#45;&gt;enqueueR -->
<g id="edge4" class="edge">
<title>invokeY&#45;&gt;enqueueR</title>
<path fill="none" stroke="black" d="M567.53,-146.53C577.39,-137.68 589.74,-126.58 600.72,-116.7"/>
<polygon fill="black" stroke="black" points="602.94,-119.42 608.03,-110.13 598.26,-114.21 602.94,-119.42"/>
</g>
<!-- enqueueR&#45;&gt;atask -->
<g id="edge8" class="edge">
<title>enqueueR&#45;&gt;atask</title>
<path fill="none" stroke="black" d="M630.82,-109.36C636.8,-149.07 651.52,-246.84 658.88,-295.72"/>
<polygon fill="black" stroke="black" points="655.4,-296.16 660.35,-305.53 662.32,-295.12 655.4,-296.16"/>
</g>
<!-- enqueueS -->
<g id="node7" class="node">
<title>enqueueS</title>
<ellipse fill="none" stroke="black" cx="513.21" cy="-18" rx="189.54" ry="18"/>
<text text-anchor="middle" x="513.21" y="-12.95" font-family="Times,serif" font-size="14.00">enqueue successors of zero strong dependencies</text>
</g>
<!-- decrement&#45;&gt;enqueueS -->
<g id="edge3" class="edge">
<title>decrement&#45;&gt;enqueueS</title>
<path fill="none" stroke="black" d="M304.56,-73.26C344.93,-62.76 397.12,-49.19 439.21,-38.25"/>
<polygon fill="black" stroke="black" points="439.97,-41.66 448.77,-35.76 438.21,-34.89 439.97,-41.66"/>
</g>
<!-- enqueueS&#45;&gt;atask -->
<g id="edge7" class="edge">
<title>enqueueS&#45;&gt;atask</title>
<path fill="none" stroke="black" d="M648.91,-30.88C717.42,-40.77 786.21,-58.54 786.21,-90 786.21,-253.5 786.21,-253.5 786.21,-253.5 786.21,-279.28 765.69,-295.85 741.41,-306.42"/>
<polygon fill="black" stroke="black" points="740.25,-303.12 732.23,-310.04 742.82,-309.63 740.25,-303.12"/>
</g>
</g>
</svg>
