<?xml version="1.0" encoding="UTF-8" standalone="no"?>
<!DOCTYPE svg PUBLIC "-//W3C//DTD SVG 1.1//EN"
 "http://www.w3.org/Graphics/SVG/1.1/DTD/svg11.dtd">
<!-- Generated by graphviz version 12.2.1 (20241206.2353)
 -->
<!-- Title: Taskflow Pages: 1 -->
<svg width="703pt" height="1124pt"
 viewBox="0.00 0.00 703.49 1124.00" xmlns="http://www.w3.org/2000/svg" xmlns:xlink="http://www.w3.org/1999/xlink">
<g id="graph0" class="graph" transform="scale(1 1) rotate(0) translate(4 1120)">
<title>Taskflow</title>
<polygon fill="white" stroke="none" points="-4,4 -4,-1120 699.49,-1120 699.49,4 -4,4"/>
<!-- [A33] bprop_tau2015_clk -->
<g id="node1" class="node">
<title>[A33] bprop_tau2015_clk</title>
<ellipse fill="black" stroke="black" cx="188.48" cy="-18" rx="107.14" ry="18"/>
<text text-anchor="middle" x="188.48" y="-12.95" font-family="Times,serif" font-size="14.00" fill="white">[A33] bprop_tau2015_clk</text>
</g>
<!-- [A32] bprop_f1:CLK -->
<g id="node2" class="node">
<title>[A32] bprop_f1:CLK</title>
<ellipse fill="black" stroke="black" cx="188.48" cy="-90" rx="90.25" ry="18"/>
<text text-anchor="middle" x="188.48" y="-84.95" font-family="Times,serif" font-size="14.00" fill="white">[A32] bprop_f1:CLK</text>
</g>
<!-- [A32] bprop_f1:CLK&#45;&gt;[A33] bprop_tau2015_clk -->
<g id="edge1" class="edge">
<title>[A32] bprop_f1:CLK&#45;&gt;[A33] bprop_tau2015_clk</title>
<path fill="none" stroke="black" d="M188.48,-71.7C188.48,-64.41 188.48,-55.73 188.48,-47.54"/>
<polygon fill="black" stroke="black" points="191.98,-47.62 188.48,-37.62 184.98,-47.62 191.98,-47.62"/>
</g>
<!-- [A31] bprop_f1:Q -->
<g id="node3" class="node">
<title>[A31] bprop_f1:Q</title>
<ellipse fill="black" stroke="black" cx="258.48" cy="-162" rx="78.48" ry="18"/>
<text text-anchor="middle" x="258.48" y="-156.95" font-family="Times,serif" font-size="14.00" fill="white">[A31] bprop_f1:Q</text>
</g>
<!-- [A31] bprop_f1:Q&#45;&gt;[A32] bprop_f1:CLK -->
<g id="edge2" class="edge">
<title>[A31] bprop_f1:Q&#45;&gt;[A32] bprop_f1:CLK</title>
<path fill="none" stroke="black" d="M236.05,-144.41C226.71,-135.99 216.08,-125.58 207.17,-116.2"/>
<polygon fill="black" stroke="black" points="209.94,-114.04 200.58,-109.07 204.79,-118.79 209.94,-114.04"/>
</g>
<!-- [A31] bprop_f1:Q&#45;&gt;[A32] bprop_f1:CLK -->
<g id="edge3" class="edge">
<title>[A31] bprop_f1:Q&#45;&gt;[A32] bprop_f1:CLK</title>
<path fill="none" stroke="black" d="M247.09,-143.7C239.51,-135.24 229.37,-124.92 219.61,-115.66"/>
<polygon fill="black" stroke="black" points="222.03,-113.12 212.32,-108.89 217.27,-118.26 222.03,-113.12"/>
</g>
<!-- [A30] bprop_u4:B -->
<g id="node4" class="node">
<title>[A30] bprop_u4:B</title>
<ellipse fill="black" stroke="black" cx="259.48" cy="-234" rx="79.5" ry="18"/>
<text text-anchor="middle" x="259.48" y="-228.95" font-family="Times,serif" font-size="14.00" fill="white">[A30] bprop_u4:B</text>
</g>
<!-- [A30] bprop_u4:B&#45;&gt;[A31] bprop_f1:Q -->
<g id="edge4" class="edge">
<title>[A30] bprop_u4:B&#45;&gt;[A31] bprop_f1:Q</title>
<path fill="none" stroke="black" d="M259.23,-215.7C259.13,-208.41 259,-199.73 258.88,-191.54"/>
<polygon fill="black" stroke="black" points="262.39,-191.57 258.74,-181.62 255.39,-191.67 262.39,-191.57"/>
</g>
<!-- [A29] bprop_u2:A -->
<g id="node5" class="node">
<title>[A29] bprop_u2:A</title>
<ellipse fill="black" stroke="black" cx="615.48" cy="-234" rx="80.01" ry="18"/>
<text text-anchor="middle" x="615.48" y="-228.95" font-family="Times,serif" font-size="14.00" fill="white">[A29] bprop_u2:A</text>
</g>
<!-- [A29] bprop_u2:A&#45;&gt;[A31] bprop_f1:Q -->
<g id="edge5" class="edge">
<title>[A29] bprop_u2:A&#45;&gt;[A31] bprop_f1:Q</title>
<path fill="none" stroke="black" d="M556.53,-221.44C493.72,-209.13 394.36,-189.64 327.83,-176.6"/>
<polygon fill="black" stroke="black" points="328.6,-173.18 318.11,-174.69 327.25,-180.05 328.6,-173.18"/>
</g>
<!-- [A28] bprop_u2:Y -->
<g id="node6" class="node">
<title>[A28] bprop_u2:Y</title>
<ellipse fill="black" stroke="black" cx="615.48" cy="-306" rx="80.01" ry="18"/>
<text text-anchor="middle" x="615.48" y="-300.95" font-family="Times,serif" font-size="14.00" fill="white">[A28] bprop_u2:Y</text>
</g>
<!-- [A28] bprop_u2:Y&#45;&gt;[A29] bprop_u2:A -->
<g id="edge6" class="edge">
<title>[A28] bprop_u2:Y&#45;&gt;[A29] bprop_u2:A</title>
<path fill="none" stroke="black" d="M609.56,-287.7C608.81,-280.41 608.57,-271.73 608.83,-263.54"/>
<polygon fill="black" stroke="black" points="612.32,-263.82 609.48,-253.61 605.33,-263.36 612.32,-263.82"/>
</g>
<!-- [A28] bprop_u2:Y&#45;&gt;[A29] bprop_u2:A -->
<g id="edge7" class="edge">
<title>[A28] bprop_u2:Y&#45;&gt;[A29] bprop_u2:A</title>
<path fill="none" stroke="black" d="M621.39,-287.7C622.14,-280.41 622.39,-271.73 622.12,-263.54"/>
<polygon fill="black" stroke="black" points="625.62,-263.36 621.47,-253.61 618.64,-263.82 625.62,-263.36"/>
</g>
<!-- [A27] bprop_u3:A -->
<g id="node7" class="node">
<title>[A27] bprop_u3:A</title>
<ellipse fill="black" stroke="black" cx="610.48" cy="-378" rx="80.01" ry="18"/>
<text text-anchor="middle" x="610.48" y="-372.95" font-family="Times,serif" font-size="14.00" fill="white">[A27] bprop_u3:A</text>
</g>
<!-- [A27] bprop_u3:A&#45;&gt;[A28] bprop_u2:Y -->
<g id="edge8" class="edge">
<title>[A27] bprop_u3:A&#45;&gt;[A28] bprop_u2:Y</title>
<path fill="none" stroke="black" d="M611.71,-359.7C612.23,-352.41 612.85,-343.73 613.44,-335.54"/>
<polygon fill="black" stroke="black" points="616.93,-335.84 614.15,-325.61 609.94,-335.34 616.93,-335.84"/>
</g>
<!-- [A26] bprop_u3:Y -->
<g id="node8" class="node">
<title>[A26] bprop_u3:Y</title>
<ellipse fill="black" stroke="black" cx="610.48" cy="-450" rx="80.01" ry="18"/>
<text text-anchor="middle" x="610.48" y="-444.95" font-family="Times,serif" font-size="14.00" fill="white">[A26] bprop_u3:Y</text>
</g>
<!-- [A26] bprop_u3:Y&#45;&gt;[A27] bprop_u3:A -->
<g id="edge9" class="edge">
<title>[A26] bprop_u3:Y&#45;&gt;[A27] bprop_u3:A</title>
<path fill="none" stroke="black" d="M604.56,-431.7C603.81,-424.41 603.57,-415.73 603.83,-407.54"/>
<polygon fill="black" stroke="black" points="607.32,-407.82 604.48,-397.61 600.33,-407.36 607.32,-407.82"/>
</g>
<!-- [A26] bprop_u3:Y&#45;&gt;[A27] bprop_u3:A -->
<g id="edge10" class="edge">
<title>[A26] bprop_u3:Y&#45;&gt;[A27] bprop_u3:A</title>
<path fill="none" stroke="black" d="M616.39,-431.7C617.14,-424.41 617.39,-415.73 617.12,-407.54"/>
<polygon fill="black" stroke="black" points="620.62,-407.36 616.47,-397.61 613.64,-407.82 620.62,-407.36"/>
</g>
<!-- [A25] bprop_out -->
<g id="node9" class="node">
<title>[A25] bprop_out</title>
<ellipse fill="black" stroke="black" cx="602.48" cy="-522" rx="73.36" ry="18"/>
<text text-anchor="middle" x="602.48" y="-516.95" font-family="Times,serif" font-size="14.00" fill="white">[A25] bprop_out</text>
</g>
<!-- [A25] bprop_out&#45;&gt;[A26] bprop_u3:Y -->
<g id="edge11" class="edge">
<title>[A25] bprop_out&#45;&gt;[A26] bprop_u3:Y</title>
<path fill="none" stroke="black" d="M604.45,-503.7C605.29,-496.41 606.28,-487.73 607.22,-479.54"/>
<polygon fill="black" stroke="black" points="610.69,-479.94 608.35,-469.61 603.74,-479.15 610.69,-479.94"/>
</g>
<!-- [A24] bprop_inp2 -->
<g id="node10" class="node">
<title>[A24] bprop_inp2</title>
<ellipse fill="black" stroke="black" cx="414.48" cy="-18" rx="77.97" ry="18"/>
<text text-anchor="middle" x="414.48" y="-12.95" font-family="Times,serif" font-size="14.00" fill="white">[A24] bprop_inp2</text>
</g>
<!-- [A23] bprop_u1:B -->
<g id="node11" class="node">
<title>[A23] bprop_u1:B</title>
<ellipse fill="black" stroke="black" cx="414.48" cy="-90" rx="79.5" ry="18"/>
<text text-anchor="middle" x="414.48" y="-84.95" font-family="Times,serif" font-size="14.00" fill="white">[A23] bprop_u1:B</text>
</g>
<!-- [A23] bprop_u1:B&#45;&gt;[A24] bprop_inp2 -->
<g id="edge12" class="edge">
<title>[A23] bprop_u1:B&#45;&gt;[A24] bprop_inp2</title>
<path fill="none" stroke="black" d="M414.48,-71.7C414.48,-64.41 414.48,-55.73 414.48,-47.54"/>
<polygon fill="black" stroke="black" points="417.98,-47.62 414.48,-37.62 410.98,-47.62 417.98,-47.62"/>
</g>
<!-- [A22] bprop_inp1 -->
<g id="node12" class="node">
<title>[A22] bprop_inp1</title>
<ellipse fill="black" stroke="black" cx="592.48" cy="-18" rx="77.97" ry="18"/>
<text text-anchor="middle" x="592.48" y="-12.95" font-family="Times,serif" font-size="14.00" fill="white">[A22] bprop_inp1</text>
</g>
<!-- [A21] bprop_u1:A -->
<g id="node13" class="node">
<title>[A21] bprop_u1:A</title>
<ellipse fill="black" stroke="black" cx="592.48" cy="-90" rx="80.01" ry="18"/>
<text text-anchor="middle" x="592.48" y="-84.95" font-family="Times,serif" font-size="14.00" fill="white">[A21] bprop_u1:A</text>
</g>
<!-- [A21] bprop_u1:A&#45;&gt;[A22] bprop_inp1 -->
<g id="edge13" class="edge">
<title>[A21] bprop_u1:A&#45;&gt;[A22] bprop_inp1</title>
<path fill="none" stroke="black" d="M592.48,-71.7C592.48,-64.41 592.48,-55.73 592.48,-47.54"/>
<polygon fill="black" stroke="black" points="595.98,-47.62 592.48,-37.62 588.98,-47.62 595.98,-47.62"/>
</g>
<!-- [A20] bprop_u1:Y -->
<g id="node14" class="node">
<title>[A20] bprop_u1:Y</title>
<ellipse fill="black" stroke="black" cx="437.48" cy="-162" rx="80.01" ry="18"/>
<text text-anchor="middle" x="437.48" y="-156.95" font-family="Times,serif" font-size="14.00" fill="white">[A20] bprop_u1:Y</text>
</g>
<!-- [A20] bprop_u1:Y&#45;&gt;[A23] bprop_u1:B -->
<g id="edge15" class="edge">
<title>[A20] bprop_u1:Y&#45;&gt;[A23] bprop_u1:B</title>
<path fill="none" stroke="black" d="M425.88,-143.7C422.66,-136.24 419.49,-127.32 417.04,-118.97"/>
<polygon fill="black" stroke="black" points="420.5,-118.36 414.58,-109.57 413.73,-120.13 420.5,-118.36"/>
</g>
<!-- [A20] bprop_u1:Y&#45;&gt;[A23] bprop_u1:B -->
<g id="edge17" class="edge">
<title>[A20] bprop_u1:Y&#45;&gt;[A23] bprop_u1:B</title>
<path fill="none" stroke="black" d="M437.71,-143.7C436.01,-136.15 433.27,-127.12 430.19,-118.68"/>
<polygon fill="black" stroke="black" points="433.49,-117.51 426.55,-109.51 426.99,-120.1 433.49,-117.51"/>
</g>
<!-- [A20] bprop_u1:Y&#45;&gt;[A21] bprop_u1:A -->
<g id="edge14" class="edge">
<title>[A20] bprop_u1:Y&#45;&gt;[A21] bprop_u1:A</title>
<path fill="none" stroke="black" d="M467.26,-144.94C488.7,-134.73 517.99,-121.45 542.9,-110.62"/>
<polygon fill="black" stroke="black" points="544.08,-113.92 551.88,-106.75 541.31,-107.49 544.08,-113.92"/>
</g>
<!-- [A20] bprop_u1:Y&#45;&gt;[A21] bprop_u1:A -->
<g id="edge16" class="edge">
<title>[A20] bprop_u1:Y&#45;&gt;[A21] bprop_u1:A</title>
<path fill="none" stroke="black" d="M476.39,-145.98C499.6,-136.05 528.92,-122.9 552.34,-111.95"/>
<polygon fill="black" stroke="black" points="553.72,-115.17 561.27,-107.73 550.73,-108.83 553.72,-115.17"/>
</g>
<!-- [A19] bprop_u4:A -->
<g id="node15" class="node">
<title>[A19] bprop_u4:A</title>
<ellipse fill="black" stroke="black" cx="437.48" cy="-234" rx="80.01" ry="18"/>
<text text-anchor="middle" x="437.48" y="-228.95" font-family="Times,serif" font-size="14.00" fill="white">[A19] bprop_u4:A</text>
</g>
<!-- [A19] bprop_u4:A&#45;&gt;[A20] bprop_u1:Y -->
<g id="edge18" class="edge">
<title>[A19] bprop_u4:A&#45;&gt;[A20] bprop_u1:Y</title>
<path fill="none" stroke="black" d="M437.48,-215.7C437.48,-208.41 437.48,-199.73 437.48,-191.54"/>
<polygon fill="black" stroke="black" points="440.98,-191.62 437.48,-181.62 433.98,-191.62 440.98,-191.62"/>
</g>
<!-- [A18] bprop_u4:Y -->
<g id="node16" class="node">
<title>[A18] bprop_u4:Y</title>
<ellipse fill="black" stroke="black" cx="259.48" cy="-306" rx="80.01" ry="18"/>
<text text-anchor="middle" x="259.48" y="-300.95" font-family="Times,serif" font-size="14.00" fill="white">[A18] bprop_u4:Y</text>
</g>
<!-- [A18] bprop_u4:Y&#45;&gt;[A30] bprop_u4:B -->
<g id="edge20" class="edge">
<title>[A18] bprop_u4:Y&#45;&gt;[A30] bprop_u4:B</title>
<path fill="none" stroke="black" d="M253.56,-287.7C252.81,-280.41 252.57,-271.73 252.83,-263.54"/>
<polygon fill="black" stroke="black" points="256.32,-263.82 253.48,-253.61 249.33,-263.36 256.32,-263.82"/>
</g>
<!-- [A18] bprop_u4:Y&#45;&gt;[A30] bprop_u4:B -->
<g id="edge22" class="edge">
<title>[A18] bprop_u4:Y&#45;&gt;[A30] bprop_u4:B</title>
<path fill="none" stroke="black" d="M265.39,-287.7C266.14,-280.41 266.39,-271.73 266.12,-263.54"/>
<polygon fill="black" stroke="black" points="269.62,-263.36 265.47,-253.61 262.64,-263.82 269.62,-263.36"/>
</g>
<!-- [A18] bprop_u4:Y&#45;&gt;[A19] bprop_u4:A -->
<g id="edge19" class="edge">
<title>[A18] bprop_u4:Y&#45;&gt;[A19] bprop_u4:A</title>
<path fill="none" stroke="black" d="M293.68,-289.29C319.38,-278.7 354.92,-264.68 384.29,-253.54"/>
<polygon fill="black" stroke="black" points="385.26,-256.92 393.38,-250.12 382.79,-250.37 385.26,-256.92"/>
</g>
<!-- [A18] bprop_u4:Y&#45;&gt;[A19] bprop_u4:A -->
<g id="edge21" class="edge">
<title>[A18] bprop_u4:Y&#45;&gt;[A19] bprop_u4:A</title>
<path fill="none" stroke="black" d="M301.95,-290.5C329.34,-280.24 364.81,-266.37 392.65,-255.06"/>
<polygon fill="black" stroke="black" points="393.96,-258.3 401.89,-251.28 391.31,-251.82 393.96,-258.3"/>
</g>
<!-- [A17] bprop_f1:D -->
<g id="node17" class="node">
<title>[A17] bprop_f1:D</title>
<ellipse fill="black" stroke="black" cx="173.48" cy="-378" rx="78.48" ry="18"/>
<text text-anchor="middle" x="173.48" y="-372.95" font-family="Times,serif" font-size="14.00" fill="white">[A17] bprop_f1:D</text>
</g>
<!-- [A17] bprop_f1:D&#45;&gt;[A32] bprop_f1:CLK -->
<g id="edge23" class="edge">
<title>[A17] bprop_f1:D&#45;&gt;[A32] bprop_f1:CLK</title>
<path fill="none" stroke="black" d="M166.58,-359.6C157.94,-320.66 149.45,-223.65 162.48,-144 163.87,-135.48 166.36,-126.44 169.4,-118.3"/>
<polygon fill="black" stroke="black" points="172.55,-119.84 173.24,-109.26 166.11,-117.1 172.55,-119.84"/>
</g>
<!-- [A17] bprop_f1:D&#45;&gt;[A32] bprop_f1:CLK -->
<g id="edge24" class="edge">
<title>[A17] bprop_f1:D&#45;&gt;[A32] bprop_f1:CLK</title>
<path fill="none" stroke="black" d="M176.06,-359.6C175.94,-320.66 167.45,-223.65 180.48,-144 181.82,-135.8 184.18,-127.13 186.38,-119.23"/>
<polygon fill="black" stroke="black" points="189.69,-120.37 188.95,-109.81 182.94,-118.53 189.69,-120.37"/>
</g>
<!-- [A17] bprop_f1:D&#45;&gt;[A18] bprop_u4:Y -->
<g id="edge25" class="edge">
<title>[A17] bprop_f1:D&#45;&gt;[A18] bprop_u4:Y</title>
<path fill="none" stroke="black" d="M193.86,-360.41C204.7,-351.58 218.23,-340.57 230.18,-330.84"/>
<polygon fill="black" stroke="black" points="232.22,-333.7 237.77,-324.67 227.81,-328.27 232.22,-333.7"/>
</g>
<!-- [A16] fprop_f1:D -->
<g id="node18" class="node">
<title>[A16] fprop_f1:D</title>
<ellipse fill="none" stroke="black" cx="358.48" cy="-738" rx="76.94" ry="18"/>
<text text-anchor="middle" x="358.48" y="-732.95" font-family="Times,serif" font-size="14.00">[A16] fprop_f1:D</text>
</g>
<!-- [A16] fprop_f1:D&#45;&gt;[A17] bprop_f1:D -->
<g id="edge26" class="edge">
<title>[A16] fprop_f1:D&#45;&gt;[A17] bprop_f1:D</title>
<path fill="none" stroke="black" d="M329.95,-720.88C293.61,-697.99 235.48,-652.4 235.48,-595 235.48,-595 235.48,-595 235.48,-521 235.48,-477.64 210.89,-432.58 192.69,-405.16"/>
<polygon fill="black" stroke="black" points="195.72,-403.4 187.18,-397.13 189.95,-407.36 195.72,-403.4"/>
</g>
<!-- [A15] fprop_u4:Y -->
<g id="node19" class="node">
<title>[A15] fprop_u4:Y</title>
<ellipse fill="none" stroke="black" cx="330.48" cy="-810" rx="78.48" ry="18"/>
<text text-anchor="middle" x="330.48" y="-804.95" font-family="Times,serif" font-size="14.00">[A15] fprop_u4:Y</text>
</g>
<!-- [A15] fprop_u4:Y&#45;&gt;[A16] fprop_f1:D -->
<g id="edge27" class="edge">
<title>[A15] fprop_u4:Y&#45;&gt;[A16] fprop_f1:D</title>
<path fill="none" stroke="black" d="M337.4,-791.7C340.42,-784.15 344.03,-775.12 347.41,-766.68"/>
<polygon fill="black" stroke="black" points="350.61,-768.09 351.07,-757.51 344.11,-765.49 350.61,-768.09"/>
</g>
<!-- [A14] fprop_u4:A -->
<g id="node20" class="node">
<title>[A14] fprop_u4:A</title>
<ellipse fill="none" stroke="black" cx="165.48" cy="-882" rx="78.48" ry="18"/>
<text text-anchor="middle" x="165.48" y="-876.95" font-family="Times,serif" font-size="14.00">[A14] fprop_u4:A</text>
</g>
<!-- [A14] fprop_u4:A&#45;&gt;[A15] fprop_u4:Y -->
<g id="edge28" class="edge">
<title>[A14] fprop_u4:A&#45;&gt;[A15] fprop_u4:Y</title>
<path fill="none" stroke="black" d="M197.16,-865.12C220.55,-854.68 252.74,-840.98 279.68,-829.97"/>
<polygon fill="black" stroke="black" points="280.74,-833.32 288.69,-826.31 278.11,-826.83 280.74,-833.32"/>
</g>
<!-- [A14] fprop_u4:A&#45;&gt;[A15] fprop_u4:Y -->
<g id="edge29" class="edge">
<title>[A14] fprop_u4:A&#45;&gt;[A15] fprop_u4:Y</title>
<path fill="none" stroke="black" d="M206.11,-866.15C231.12,-856.08 263.04,-842.62 288.33,-831.52"/>
<polygon fill="black" stroke="black" points="289.6,-834.78 297.33,-827.53 286.77,-828.38 289.6,-834.78"/>
</g>
<!-- [A13] fprop_u1:Y -->
<g id="node21" class="node">
<title>[A13] fprop_u1:Y</title>
<ellipse fill="none" stroke="black" cx="165.48" cy="-954" rx="78.48" ry="18"/>
<text text-anchor="middle" x="165.48" y="-948.95" font-family="Times,serif" font-size="14.00">[A13] fprop_u1:Y</text>
</g>
<!-- [A13] fprop_u1:Y&#45;&gt;[A14] fprop_u4:A -->
<g id="edge30" class="edge">
<title>[A13] fprop_u1:Y&#45;&gt;[A14] fprop_u4:A</title>
<path fill="none" stroke="black" d="M165.48,-935.7C165.48,-928.41 165.48,-919.73 165.48,-911.54"/>
<polygon fill="black" stroke="black" points="168.98,-911.62 165.48,-901.62 161.98,-911.62 168.98,-911.62"/>
</g>
<!-- [A12] fprop_u1:A -->
<g id="node22" class="node">
<title>[A12] fprop_u1:A</title>
<ellipse fill="none" stroke="black" cx="78.48" cy="-1026" rx="78.48" ry="18"/>
<text text-anchor="middle" x="78.48" y="-1020.95" font-family="Times,serif" font-size="14.00">[A12] fprop_u1:A</text>
</g>
<!-- [A12] fprop_u1:A&#45;&gt;[A13] fprop_u1:Y -->
<g id="edge31" class="edge">
<title>[A12] fprop_u1:A&#45;&gt;[A13] fprop_u1:Y</title>
<path fill="none" stroke="black" d="M93.66,-1008.05C103.87,-999.07 117.59,-987.9 130.35,-978.12"/>
<polygon fill="black" stroke="black" points="132.31,-981.03 138.19,-972.22 128.1,-975.44 132.31,-981.03"/>
</g>
<!-- [A12] fprop_u1:A&#45;&gt;[A13] fprop_u1:Y -->
<g id="edge32" class="edge">
<title>[A12] fprop_u1:A&#45;&gt;[A13] fprop_u1:Y</title>
<path fill="none" stroke="black" d="M104.46,-1008.76C116.2,-1000.1 129.91,-989.25 141.42,-979.57"/>
<polygon fill="black" stroke="black" points="143.63,-982.28 148.94,-973.11 139.08,-976.97 143.63,-982.28"/>
</g>
<!-- [A11] fprop_inp1 -->
<g id="node23" class="node">
<title>[A11] fprop_inp1</title>
<ellipse fill="none" stroke="black" cx="78.48" cy="-1098" rx="76.43" ry="18"/>
<text text-anchor="middle" x="78.48" y="-1092.95" font-family="Times,serif" font-size="14.00">[A11] fprop_inp1</text>
</g>
<!-- [A11] fprop_inp1&#45;&gt;[A12] fprop_u1:A -->
<g id="edge33" class="edge">
<title>[A11] fprop_inp1&#45;&gt;[A12] fprop_u1:A</title>
<path fill="none" stroke="black" d="M78.48,-1079.7C78.48,-1072.41 78.48,-1063.73 78.48,-1055.54"/>
<polygon fill="black" stroke="black" points="81.98,-1055.62 78.48,-1045.62 74.98,-1055.62 81.98,-1055.62"/>
</g>
<!-- [A10] fprop_u1:B -->
<g id="node24" class="node">
<title>[A10] fprop_u1:B</title>
<ellipse fill="none" stroke="black" cx="252.48" cy="-1026" rx="77.97" ry="18"/>
<text text-anchor="middle" x="252.48" y="-1020.95" font-family="Times,serif" font-size="14.00">[A10] fprop_u1:B</text>
</g>
<!-- [A10] fprop_u1:B&#45;&gt;[A13] fprop_u1:Y -->
<g id="edge34" class="edge">
<title>[A10] fprop_u1:B&#45;&gt;[A13] fprop_u1:Y</title>
<path fill="none" stroke="black" d="M226.5,-1008.76C214.75,-1000.1 201.04,-989.25 189.54,-979.57"/>
<polygon fill="black" stroke="black" points="191.88,-976.97 182.01,-973.11 187.32,-982.28 191.88,-976.97"/>
</g>
<!-- [A10] fprop_u1:B&#45;&gt;[A13] fprop_u1:Y -->
<g id="edge35" class="edge">
<title>[A10] fprop_u1:B&#45;&gt;[A13] fprop_u1:Y</title>
<path fill="none" stroke="black" d="M237.3,-1008.05C227.08,-999.07 213.36,-987.9 200.61,-978.12"/>
<polygon fill="black" stroke="black" points="202.86,-975.44 192.76,-972.22 198.65,-981.03 202.86,-975.44"/>
</g>
<!-- [A9] fprop_inp2 -->
<g id="node25" class="node">
<title>[A9] fprop_inp2</title>
<ellipse fill="none" stroke="black" cx="252.48" cy="-1098" rx="71.82" ry="18"/>
<text text-anchor="middle" x="252.48" y="-1092.95" font-family="Times,serif" font-size="14.00">[A9] fprop_inp2</text>
</g>
<!-- [A9] fprop_inp2&#45;&gt;[A10] fprop_u1:B -->
<g id="edge36" class="edge">
<title>[A9] fprop_inp2&#45;&gt;[A10] fprop_u1:B</title>
<path fill="none" stroke="black" d="M252.48,-1079.7C252.48,-1072.41 252.48,-1063.73 252.48,-1055.54"/>
<polygon fill="black" stroke="black" points="255.98,-1055.62 252.48,-1045.62 248.98,-1055.62 255.98,-1055.62"/>
</g>
<!-- [A8] fprop_out -->
<g id="node26" class="node">
<title>[A8] fprop_out</title>
<ellipse fill="none" stroke="black" cx="587.48" cy="-594" rx="67.22" ry="18"/>
<text text-anchor="middle" x="587.48" y="-588.95" font-family="Times,serif" font-size="14.00">[A8] fprop_out</text>
</g>
<!-- [A8] fprop_out&#45;&gt;[A25] bprop_out -->
<g id="edge37" class="edge">
<title>[A8] fprop_out&#45;&gt;[A25] bprop_out</title>
<path fill="none" stroke="black" d="M591.19,-575.7C592.77,-568.32 594.65,-559.52 596.42,-551.25"/>
<polygon fill="black" stroke="black" points="599.82,-552.1 598.49,-541.58 592.98,-550.63 599.82,-552.1"/>
</g>
<!-- [A7] fprop_u3:Y -->
<g id="node27" class="node">
<title>[A7] fprop_u3:Y</title>
<ellipse fill="none" stroke="black" cx="583.48" cy="-666" rx="73.87" ry="18"/>
<text text-anchor="middle" x="583.48" y="-660.95" font-family="Times,serif" font-size="14.00">[A7] fprop_u3:Y</text>
</g>
<!-- [A7] fprop_u3:Y&#45;&gt;[A8] fprop_out -->
<g id="edge38" class="edge">
<title>[A7] fprop_u3:Y&#45;&gt;[A8] fprop_out</title>
<path fill="none" stroke="black" d="M584.47,-647.7C584.88,-640.41 585.38,-631.73 585.85,-623.54"/>
<polygon fill="black" stroke="black" points="589.34,-623.8 586.41,-613.62 582.35,-623.4 589.34,-623.8"/>
</g>
<!-- [A6] fprop_u3:A -->
<g id="node28" class="node">
<title>[A6] fprop_u3:A</title>
<ellipse fill="none" stroke="black" cx="583.48" cy="-738" rx="73.87" ry="18"/>
<text text-anchor="middle" x="583.48" y="-732.95" font-family="Times,serif" font-size="14.00">[A6] fprop_u3:A</text>
</g>
<!-- [A6] fprop_u3:A&#45;&gt;[A7] fprop_u3:Y -->
<g id="edge39" class="edge">
<title>[A6] fprop_u3:A&#45;&gt;[A7] fprop_u3:Y</title>
<path fill="none" stroke="black" d="M577.56,-719.7C576.81,-712.41 576.57,-703.73 576.83,-695.54"/>
<polygon fill="black" stroke="black" points="580.32,-695.82 577.48,-685.61 573.33,-695.36 580.32,-695.82"/>
</g>
<!-- [A6] fprop_u3:A&#45;&gt;[A7] fprop_u3:Y -->
<g id="edge40" class="edge">
<title>[A6] fprop_u3:A&#45;&gt;[A7] fprop_u3:Y</title>
<path fill="none" stroke="black" d="M589.39,-719.7C590.14,-712.41 590.39,-703.73 590.12,-695.54"/>
<polygon fill="black" stroke="black" points="593.62,-695.36 589.47,-685.61 586.64,-695.82 593.62,-695.36"/>
</g>
<!-- [A5] fprop_u2:Y -->
<g id="node29" class="node">
<title>[A5] fprop_u2:Y</title>
<ellipse fill="none" stroke="black" cx="574.48" cy="-810" rx="73.87" ry="18"/>
<text text-anchor="middle" x="574.48" y="-804.95" font-family="Times,serif" font-size="14.00">[A5] fprop_u2:Y</text>
</g>
<!-- [A5] fprop_u2:Y&#45;&gt;[A6] fprop_u3:A -->
<g id="edge41" class="edge">
<title>[A5] fprop_u2:Y&#45;&gt;[A6] fprop_u3:A</title>
<path fill="none" stroke="black" d="M576.7,-791.7C577.65,-784.32 578.78,-775.52 579.85,-767.25"/>
<polygon fill="black" stroke="black" points="583.28,-767.97 581.09,-757.61 576.34,-767.08 583.28,-767.97"/>
</g>
<!-- [A4] fprop_u2:A -->
<g id="node30" class="node">
<title>[A4] fprop_u2:A</title>
<ellipse fill="none" stroke="black" cx="574.48" cy="-882" rx="73.87" ry="18"/>
<text text-anchor="middle" x="574.48" y="-876.95" font-family="Times,serif" font-size="14.00">[A4] fprop_u2:A</text>
</g>
<!-- [A4] fprop_u2:A&#45;&gt;[A5] fprop_u2:Y -->
<g id="edge42" class="edge">
<title>[A4] fprop_u2:A&#45;&gt;[A5] fprop_u2:Y</title>
<path fill="none" stroke="black" d="M568.56,-863.7C567.81,-856.41 567.57,-847.73 567.83,-839.54"/>
<polygon fill="black" stroke="black" points="571.32,-839.82 568.48,-829.61 564.33,-839.36 571.32,-839.82"/>
</g>
<!-- [A4] fprop_u2:A&#45;&gt;[A5] fprop_u2:Y -->
<g id="edge43" class="edge">
<title>[A4] fprop_u2:A&#45;&gt;[A5] fprop_u2:Y</title>
<path fill="none" stroke="black" d="M580.39,-863.7C581.14,-856.41 581.39,-847.73 581.12,-839.54"/>
<polygon fill="black" stroke="black" points="584.62,-839.36 580.47,-829.61 577.64,-839.82 584.62,-839.36"/>
</g>
<!-- [A3] fprop_u4:B -->
<g id="node31" class="node">
<title>[A3] fprop_u4:B</title>
<ellipse fill="none" stroke="black" cx="335.48" cy="-882" rx="73.36" ry="18"/>
<text text-anchor="middle" x="335.48" y="-876.95" font-family="Times,serif" font-size="14.00">[A3] fprop_u4:B</text>
</g>
<!-- [A3] fprop_u4:B&#45;&gt;[A15] fprop_u4:Y -->
<g id="edge44" class="edge">
<title>[A3] fprop_u4:B&#45;&gt;[A15] fprop_u4:Y</title>
<path fill="none" stroke="black" d="M328.33,-863.7C327.05,-856.41 326.19,-847.73 325.87,-839.54"/>
<polygon fill="black" stroke="black" points="329.37,-839.6 325.81,-829.62 322.37,-839.64 329.37,-839.6"/>
</g>
<!-- [A3] fprop_u4:B&#45;&gt;[A15] fprop_u4:Y -->
<g id="edge45" class="edge">
<title>[A3] fprop_u4:B&#45;&gt;[A15] fprop_u4:Y</title>
<path fill="none" stroke="black" d="M340.16,-863.7C340.39,-856.32 340,-847.52 339.13,-839.25"/>
<polygon fill="black" stroke="black" points="342.64,-839.03 337.8,-829.6 335.7,-839.99 342.64,-839.03"/>
</g>
<!-- [A2] fprop_f1:Q -->
<g id="node32" class="node">
<title>[A2] fprop_f1:Q</title>
<ellipse fill="none" stroke="black" cx="554.48" cy="-954" rx="72.34" ry="18"/>
<text text-anchor="middle" x="554.48" y="-948.95" font-family="Times,serif" font-size="14.00">[A2] fprop_f1:Q</text>
</g>
<!-- [A2] fprop_f1:Q&#45;&gt;[A4] fprop_u2:A -->
<g id="edge47" class="edge">
<title>[A2] fprop_f1:Q&#45;&gt;[A4] fprop_u2:A</title>
<path fill="none" stroke="black" d="M559.42,-935.7C561.55,-928.24 564.1,-919.32 566.49,-910.97"/>
<polygon fill="black" stroke="black" points="569.79,-912.14 569.17,-901.56 563.06,-910.21 569.79,-912.14"/>
</g>
<!-- [A2] fprop_f1:Q&#45;&gt;[A3] fprop_u4:B -->
<g id="edge46" class="edge">
<title>[A2] fprop_f1:Q&#45;&gt;[A3] fprop_u4:B</title>
<path fill="none" stroke="black" d="M511.21,-939.17C476.38,-928.04 427.23,-912.33 389.76,-900.35"/>
<polygon fill="black" stroke="black" points="391.06,-897.09 380.47,-897.38 388.93,-903.76 391.06,-897.09"/>
</g>
<!-- [A1] fprop_f1:CLK -->
<g id="node33" class="node">
<title>[A1] fprop_f1:CLK</title>
<ellipse fill="none" stroke="black" cx="500.48" cy="-1026" rx="84.11" ry="18"/>
<text text-anchor="middle" x="500.48" y="-1020.95" font-family="Times,serif" font-size="14.00">[A1] fprop_f1:CLK</text>
</g>
<!-- [A1] fprop_f1:CLK&#45;&gt;[A16] fprop_f1:D -->
<g id="edge50" class="edge">
<title>[A1] fprop_f1:CLK&#45;&gt;[A16] fprop_f1:D</title>
<path fill="none" stroke="black" d="M483.15,-1008.16C476.42,-997.91 469.54,-984.43 464.48,-972 432.9,-894.39 453.71,-862.52 408.48,-792 401.73,-781.48 392.35,-771.76 383.46,-763.59"/>
<polygon fill="black" stroke="black" points="385.78,-760.98 375.98,-756.97 381.15,-766.22 385.78,-760.98"/>
</g>
<!-- [A1] fprop_f1:CLK&#45;&gt;[A16] fprop_f1:D -->
<g id="edge51" class="edge">
<title>[A1] fprop_f1:CLK&#45;&gt;[A16] fprop_f1:D</title>
<path fill="none" stroke="black" d="M498.59,-1007.68C494.21,-997.49 487.46,-984.24 482.48,-972 450.9,-894.39 471.71,-862.52 426.48,-792 419.16,-780.59 408.75,-770.12 398.19,-761.55"/>
<polygon fill="black" stroke="black" points="400.63,-759.01 390.55,-755.74 396.39,-764.58 400.63,-759.01"/>
</g>
<!-- [A1] fprop_f1:CLK&#45;&gt;[A2] fprop_f1:Q -->
<g id="edge48" class="edge">
<title>[A1] fprop_f1:CLK&#45;&gt;[A2] fprop_f1:Q</title>
<path fill="none" stroke="black" d="M507.91,-1007.7C513.43,-999.44 520.98,-989.39 528.45,-980.3"/>
<polygon fill="black" stroke="black" points="531.03,-982.67 534.83,-972.78 525.69,-978.14 531.03,-982.67"/>
</g>
<!-- [A1] fprop_f1:CLK&#45;&gt;[A2] fprop_f1:Q -->
<g id="edge49" class="edge">
<title>[A1] fprop_f1:CLK&#45;&gt;[A2] fprop_f1:Q</title>
<path fill="none" stroke="black" d="M519.43,-1008.05C526.42,-1000.09 534.11,-990.41 540.6,-981.51"/>
<polygon fill="black" stroke="black" points="543.33,-983.71 546.2,-973.52 537.59,-979.7 543.33,-983.71"/>
</g>
<!-- [A0] fprop_tau2015_clk -->
<g id="node34" class="node">
<title>[A0] fprop_tau2015_clk</title>
<ellipse fill="none" stroke="black" cx="500.48" cy="-1098" rx="101" ry="18"/>
<text text-anchor="middle" x="500.48" y="-1092.95" font-family="Times,serif" font-size="14.00">[A0] fprop_tau2015_clk</text>
</g>
<!-- [A0] fprop_tau2015_clk&#45;&gt;[A1] fprop_f1:CLK -->
<g id="edge52" class="edge">
<title>[A0] fprop_tau2015_clk&#45;&gt;[A1] fprop_f1:CLK</title>
<path fill="none" stroke="black" d="M500.48,-1079.7C500.48,-1072.41 500.48,-1063.73 500.48,-1055.54"/>
<polygon fill="black" stroke="black" points="503.98,-1055.62 500.48,-1045.62 496.98,-1055.62 503.98,-1055.62"/>
</g>
</g>
</svg>
