<?xml version="1.0" encoding="UTF-8" standalone="no"?>
<!DOCTYPE svg PUBLIC "-//W3C//DTD SVG 1.1//EN"
 "http://www.w3.org/Graphics/SVG/1.1/DTD/svg11.dtd">
<!-- Generated by graphviz version 2.43.0 (0)
 -->
<!-- Title: BoundedWSQ Pages: 1 -->
<svg width="478pt" height="310pt"
 viewBox="0.00 0.00 477.90 310.15" xmlns="http://www.w3.org/2000/svg" xmlns:xlink="http://www.w3.org/1999/xlink">
<g id="graph0" class="graph" transform="scale(1 1) rotate(0) translate(4 306.15)">
<title>BoundedWSQ</title>
<polygon fill="white" stroke="transparent" points="-4,4 -4,-306.15 473.9,-306.15 473.9,4 -4,4"/>
<!-- Owner -->
<g id="node1" class="node">
<title>Owner</title>
<polygon fill="none" stroke="black" points="202.4,-302.15 95.4,-302.15 95.4,-264.15 202.4,-264.15 202.4,-302.15"/>
<text text-anchor="middle" x="148.9" y="-286.95" font-family="Arial" font-size="14.00"> Owner Thread</text>
<text text-anchor="middle" x="148.9" y="-271.95" font-family="Arial" font-size="14.00">(single) </text>
</g>
<!-- Push -->
<g id="node4" class="node">
<title>Push</title>
<ellipse fill="none" stroke="black" cx="79.9" cy="-200.28" rx="79.81" ry="26.74"/>
<text text-anchor="middle" x="79.9" y="-204.08" font-family="Arial" font-size="14.00"> try_push()</text>
<text text-anchor="middle" x="79.9" y="-189.08" font-family="Arial" font-size="14.00">try_bulk_push() </text>
</g>
<!-- Owner&#45;&gt;Push -->
<g id="edge1" class="edge">
<title>Owner&#45;&gt;Push</title>
<path fill="none" stroke="black" d="M133.25,-263.8C125.7,-254.96 116.43,-244.09 107.74,-233.91"/>
<polygon fill="black" stroke="black" points="110.41,-231.63 101.25,-226.3 105.08,-236.18 110.41,-231.63"/>
</g>
<!-- Pop -->
<g id="node5" class="node">
<title>Pop</title>
<ellipse fill="none" stroke="black" cx="214.9" cy="-200.28" rx="36.29" ry="18"/>
<text text-anchor="middle" x="214.9" y="-196.58" font-family="Arial" font-size="14.00"> pop() </text>
</g>
<!-- Owner&#45;&gt;Pop -->
<g id="edge2" class="edge">
<title>Owner&#45;&gt;Pop</title>
<path fill="none" stroke="black" d="M163.88,-263.8C173.15,-252.44 185.16,-237.72 195.2,-225.42"/>
<polygon fill="black" stroke="black" points="198.16,-227.33 201.77,-217.37 192.74,-222.9 198.16,-227.33"/>
</g>
<!-- Thieves -->
<g id="node2" class="node">
<title>Thieves</title>
<polygon fill="none" stroke="black" points="421.9,-302.15 317.9,-302.15 317.9,-264.15 421.9,-264.15 421.9,-302.15"/>
<text text-anchor="middle" x="369.9" y="-286.95" font-family="Arial" font-size="14.00"> Thief Threads</text>
<text text-anchor="middle" x="369.9" y="-271.95" font-family="Arial" font-size="14.00">(multiple) </text>
</g>
<!-- Steal -->
<g id="node6" class="node">
<title>Steal</title>
<ellipse fill="none" stroke="black" cx="369.9" cy="-200.28" rx="40.09" ry="18"/>
<text text-anchor="middle" x="369.9" y="-196.58" font-family="Arial" font-size="14.00"> steal() </text>
</g>
<!-- Thieves&#45;&gt;Steal -->
<g id="edge5" class="edge">
<title>Thieves&#45;&gt;Steal</title>
<path fill="none" stroke="black" d="M369.9,-263.8C369.9,-253.38 369.9,-240.14 369.9,-228.53"/>
<polygon fill="black" stroke="black" points="373.4,-228.45 369.9,-218.45 366.4,-228.45 373.4,-228.45"/>
</g>
<!-- Queue -->
<g id="node3" class="node">
<title>Queue</title>
<polygon fill="none" stroke="black" points="119.9,-7.91 119.9,-121.91 311.9,-121.91 311.9,-7.91 119.9,-7.91"/>
<text text-anchor="middle" x="215.9" y="-106.71" font-family="Arial" font-size="14.00">Head (Top)</text>
<text text-anchor="middle" x="215.9" y="-91.71" font-family="Arial" font-size="14.00">steal index</text>
<polyline fill="none" stroke="black" points="119.9,-83.91 311.9,-83.91 "/>
<text text-anchor="middle" x="215.9" y="-68.71" font-family="Arial" font-size="14.00">Tasks Buffer</text>
<text text-anchor="middle" x="215.9" y="-53.71" font-family="Arial" font-size="14.00">[Fixed Capacity = 2^LogSize]</text>
<polyline fill="none" stroke="black" points="119.9,-45.91 311.9,-45.91 "/>
<text text-anchor="middle" x="215.9" y="-30.71" font-family="Arial" font-size="14.00">Tail (Bottom)</text>
<text text-anchor="middle" x="215.9" y="-15.71" font-family="Arial" font-size="14.00">push / pop index</text>
</g>
<!-- Push&#45;&gt;Queue -->
<g id="edge3" class="edge">
<title>Push&#45;&gt;Queue:tail</title>
<path fill="none" stroke="black" d="M75.07,-173.1C68.04,-127.8 60.64,-38.59 108.87,-27.95"/>
<polygon fill="black" stroke="black" points="109.32,-31.42 118.9,-26.91 108.59,-24.46 109.32,-31.42"/>
<text text-anchor="middle" x="129.9" y="-144.21" font-family="Arial" font-size="14.00"> append at bottom </text>
</g>
<!-- Pop&#45;&gt;Queue -->
<g id="edge4" class="edge">
<title>Pop&#45;&gt;Queue:tail</title>
<path fill="none" stroke="black" d="M210.31,-182.29C207.9,-169.29 207.18,-151.74 216.9,-140.41 244.87,-107.78 284.49,-155.5 311.9,-122.41 344.37,-83.22 347.7,-44.08 311.9,-7.91 305.87,-1.8 247.38,2.03 224.77,-2.26"/>
<polygon fill="black" stroke="black" points="223.14,0.84 215.9,-6.91 226.39,-5.36 223.14,0.84"/>
<text text-anchor="middle" x="282.4" y="-144.21" font-family="Arial" font-size="14.00"> remove from bottom </text>
</g>
<!-- Steal&#45;&gt;Queue -->
<g id="edge6" class="edge">
<title>Steal&#45;&gt;Queue:head</title>
<path fill="none" stroke="black" d="M367.63,-182.05C363.37,-157.03 351.84,-112.72 322.92,-104.31"/>
<polygon fill="black" stroke="black" points="323.29,-100.83 312.9,-102.91 322.32,-107.76 323.29,-100.83"/>
<text text-anchor="middle" x="415.9" y="-144.21" font-family="Arial" font-size="14.00"> remove from top </text>
</g>
</g>
</svg>
