<?xml version="1.0" encoding="UTF-8" standalone="no"?><!DOCTYPE svg PUBLIC "-//W3C//DTD SVG 1.1//EN" "http://www.w3.org/Graphics/SVG/1.1/DTD/svg11.dtd"><!-- Generated by graphviz version 2.40.1 (20161225.0304)
 --><!-- Title: G Pages: 1 --><svg xmlns="http://www.w3.org/2000/svg" xmlns:xlink="http://www.w3.org/1999/xlink" width="703pt" height="44pt" viewBox="0.00 0.00 702.66 44.00">
<g id="graph0" class="graph" transform="scale(1 1) rotate(0) translate(4 40)">
<title>G</title>
<polygon fill="#ffffff" stroke="transparent" points="-4,4 -4,-40 698.6638,-40 698.6638,4 -4,4"/>
<!-- a -->
<g id="node1" class="node">
<title>a</title>
<ellipse fill="none" stroke="#000000" cx="39.1923" cy="-18" rx="39.3855" ry="18"/>
<text text-anchor="middle" x="39.1923" y="-13.8" font-family="Times,serif" font-size="14.00" fill="#000000">1/2 (H)</text>
</g>
<!-- b -->
<g id="node2" class="node">
<title>b</title>
<ellipse fill="none" stroke="#000000" cx="160.5482" cy="-18" rx="46.3279" ry="18"/>
<text text-anchor="middle" x="160.5482" y="-13.8" font-family="Times,serif" font-size="14.00" fill="#000000">1/4 (HH)</text>
</g>
<!-- a&#45;&gt;b -->
<g id="edge1" class="edge">
<title>a-&gt;b</title>
<path fill="none" stroke="#000000" d="M78.5931,-18C86.7511,-18 95.4967,-18 104.1269,-18"/>
<polygon fill="#000000" stroke="#000000" points="104.1629,-21.5001 114.1628,-18 104.1628,-14.5001 104.1629,-21.5001"/>
</g>
<!-- c -->
<g id="node3" class="node">
<title>c</title>
<ellipse fill="none" stroke="#000000" cx="295.8469" cy="-18" rx="53.2703" ry="18"/>
<text text-anchor="middle" x="295.8469" y="-13.8" font-family="Times,serif" font-size="14.00" fill="#000000">1/8 (HHH)</text>
</g>
<!-- b&#45;&gt;c -->
<g id="edge2" class="edge">
<title>b-&gt;c</title>
<path fill="none" stroke="#000000" d="M206.7319,-18C214.9853,-18 223.7142,-18 232.3524,-18"/>
<polygon fill="#000000" stroke="#000000" points="232.4173,-21.5001 242.4173,-18 232.4172,-14.5001 232.4173,-21.5001"/>
</g>
<!-- d -->
<g id="node4" class="node">
<title>d</title>
<ellipse fill="none" stroke="#000000" cx="449.9167" cy="-18" rx="64.8697" ry="18"/>
<text text-anchor="middle" x="449.9167" y="-13.8" font-family="Times,serif" font-size="14.00" fill="#000000">1/16 (HHHH)</text>
</g>
<!-- c&#45;&gt;d -->
<g id="edge3" class="edge">
<title>c-&gt;d</title>
<path fill="none" stroke="#000000" d="M349.3006,-18C357.5464,-18 366.1911,-18 374.8038,-18"/>
<polygon fill="#000000" stroke="#000000" points="374.8738,-21.5001 384.8738,-18 374.8737,-14.5001 374.8738,-21.5001"/>
</g>
<!-- e -->
<g id="node5" class="node">
<title>e</title>
<ellipse fill="none" stroke="#000000" cx="622.7577" cy="-18" rx="71.8124" ry="18"/>
<text text-anchor="middle" x="622.7577" y="-13.8" font-family="Times,serif" font-size="14.00" fill="#000000">1/32 (HHHHH)</text>
</g>
<!-- d&#45;&gt;e -->
<g id="edge4" class="edge">
<title>d-&gt;e</title>
<path fill="none" stroke="#000000" d="M515.2604,-18C523.484,-18 531.9787,-18 540.4214,-18"/>
<polygon fill="#000000" stroke="#000000" points="540.672,-21.5001 550.672,-18 540.6719,-14.5001 540.672,-21.5001"/>
</g>
</g>
</svg>