<?xml version="1.0" encoding="UTF-8" standalone="no"?>
<!DOCTYPE svg PUBLIC "-//W3C//DTD SVG 1.1//EN"
 "http://www.w3.org/Graphics/SVG/1.1/DTD/svg11.dtd">
<!-- Generated by graphviz version 12.2.1 (20241206.2353)
 -->
<!-- Title: Graph Legend Pages: 1 -->
<svg width="702pt" height="187pt"
 viewBox="0.00 0.00 702.25 186.50" xmlns="http://www.w3.org/2000/svg" xmlns:xlink="http://www.w3.org/1999/xlink">
<g id="graph0" class="graph" transform="scale(1 1) rotate(0) translate(4 182.5)">
<title>Graph Legend</title>
<!-- Node9 -->
<g id="Node000009" class="node">
<title>Node9</title>
<g id="a_Node000009"><a xlink:title=" ">
<polygon fill="#999999" stroke="#666666" points="411,-24.5 332,-24.5 332,0 411,0 411,-24.5"/>
<text text-anchor="middle" x="371.5" y="-5.3" font-family="SourceSansPro" font-size="16.00">Inherited</text>
</a>
</g>
</g>
<!-- Node10 -->
<g id="Node000010" class="node">
<title>Node10</title>
<g id="a_Node000010"><a xlink:title=" ">
<polygon fill="white" stroke="#666666" points="97,-101.5 0,-101.5 0,-77 97,-77 97,-101.5"/>
<text text-anchor="middle" x="48.5" y="-82.3" font-family="SourceSansPro" font-size="16.00">PublicBase</text>
</a>
</g>
</g>
<!-- Node10&#45;&gt;Node9 -->
<g id="edge1" class="edge">
<title>Node10&#45;&gt;Node9</title>
<g id="a_edge1"><a xlink:title=" ">
<path fill="none" stroke="#63b8ff" d="M108.11,-74.41C173.18,-59.3 275.56,-35.53 331.58,-22.52"/>
<polygon fill="#63b8ff" stroke="#63b8ff" points="107.63,-70.93 98.68,-76.6 109.21,-77.75 107.63,-70.93"/>
</a>
</g>
</g>
<!-- Node11 -->
<g id="Node000011" class="node">
<title>Node11</title>
<g id="a_Node000011"><a xlink:title=" ">
<polygon fill="#fff0f0" stroke="red" points="92.88,-178.5 4.12,-178.5 4.12,-154 92.88,-154 92.88,-178.5"/>
<text text-anchor="middle" x="48.5" y="-159.3" font-family="SourceSansPro" font-size="16.00">Truncated</text>
</a>
</g>
</g>
<!-- Node11&#45;&gt;Node10 -->
<g id="edge2" class="edge">
<title>Node11&#45;&gt;Node10</title>
<g id="a_edge2"><a xlink:title=" ">
<path fill="none" stroke="#63b8ff" d="M48.5,-142.24C48.5,-128.78 48.5,-112.38 48.5,-101.64"/>
<polygon fill="#63b8ff" stroke="#63b8ff" points="45,-142.02 48.5,-152.02 52,-142.02 45,-142.02"/>
</a>
</g>
</g>
<!-- Node13 -->
<g id="node4" class="node">
<title>Node13</title>
<g id="a_node4"><a xlink:title=" ">
<polygon fill="white" stroke="#666666" points="236.38,-101.5 114.62,-101.5 114.62,-77 236.38,-77 236.38,-101.5"/>
<text text-anchor="middle" x="175.5" y="-82.3" font-family="SourceSansPro" font-size="16.00">ProtectedBase</text>
</a>
</g>
</g>
<!-- Node13&#45;&gt;Node9 -->
<g id="edge3" class="edge">
<title>Node13&#45;&gt;Node9</title>
<g id="a_edge3"><a xlink:title=" ">
<path fill="none" stroke="darkgreen" d="M216.61,-72.52C253.78,-58.29 307.66,-37.68 341.09,-24.89"/>
<polygon fill="darkgreen" stroke="darkgreen" points="215.63,-69.15 207.54,-75.99 218.13,-75.69 215.63,-69.15"/>
</a>
</g>
</g>
<!-- Node14 -->
<g id="node5" class="node">
<title>Node14</title>
<g id="a_node5"><a xlink:title=" ">
<polygon fill="white" stroke="#666666" points="357,-101.5 254,-101.5 254,-77 357,-77 357,-101.5"/>
<text text-anchor="middle" x="305.5" y="-82.3" font-family="SourceSansPro" font-size="16.00">PrivateBase</text>
</a>
</g>
</g>
<!-- Node14&#45;&gt;Node9 -->
<g id="edge4" class="edge">
<title>Node14&#45;&gt;Node9</title>
<g id="a_edge4"><a xlink:title=" ">
<path fill="none" stroke="#8b1a1a" d="M323.25,-68.08C335.5,-54.16 351.35,-36.14 361.48,-24.64"/>
<polygon fill="#8b1a1a" stroke="#8b1a1a" points="320.79,-65.58 316.81,-75.4 326.05,-70.2 320.79,-65.58"/>
</a>
</g>
</g>
<!-- Node15 -->
<g id="Node000015" class="node">
<title>Node15</title>
<g id="a_Node000015"><a xlink:title=" ">
<polygon fill="#e0e0e0" stroke="#999999" points="500.25,-101.5 374.75,-101.5 374.75,-77 500.25,-77 500.25,-101.5"/>
<text text-anchor="middle" x="437.5" y="-82.3" font-family="SourceSansPro" font-size="16.00">Undocumented</text>
</a>
</g>
</g>
<!-- Node15&#45;&gt;Node9 -->
<g id="edge5" class="edge">
<title>Node15&#45;&gt;Node9</title>
<g id="a_edge5"><a xlink:title=" ">
<path fill="none" stroke="#63b8ff" d="M419.75,-68.08C407.5,-54.16 391.65,-36.14 381.52,-24.64"/>
<polygon fill="#63b8ff" stroke="#63b8ff" points="416.95,-70.2 426.19,-75.4 422.21,-65.58 416.95,-70.2"/>
</a>
</g>
</g>
<!-- Node16 -->
<g id="node7" class="node">
<title>Node16</title>
<g id="a_node7"><a xlink:title=" ">
<polygon fill="white" stroke="#666666" points="622.38,-101.5 518.62,-101.5 518.62,-77 622.38,-77 622.38,-101.5"/>
<text text-anchor="middle" x="570.5" y="-82.3" font-family="SourceSansPro" font-size="16.00">Templ&lt; int &gt;</text>
</a>
</g>
</g>
<!-- Node16&#45;&gt;Node9 -->
<g id="edge6" class="edge">
<title>Node16&#45;&gt;Node9</title>
<g id="a_edge6"><a xlink:title=" ">
<path fill="none" stroke="#63b8ff" d="M528.76,-72.52C491.02,-58.29 436.31,-37.68 402.38,-24.89"/>
<polygon fill="#63b8ff" stroke="#63b8ff" points="527.4,-75.75 537.99,-76 529.87,-69.2 527.4,-75.75"/>
</a>
</g>
</g>
<!-- Node17 -->
<g id="node8" class="node">
<title>Node17</title>
<g id="a_node8"><a xlink:title=" ">
<polygon fill="white" stroke="#666666" points="618.62,-178.5 522.38,-178.5 522.38,-154 618.62,-154 618.62,-178.5"/>
<text text-anchor="middle" x="570.5" y="-159.3" font-family="SourceSansPro" font-size="16.00">Templ&lt; T &gt;</text>
</a>
</g>
</g>
<!-- Node17&#45;&gt;Node16 -->
<g id="edge7" class="edge">
<title>Node17&#45;&gt;Node16</title>
<g id="a_edge7"><a xlink:title=" ">
<path fill="none" stroke="orange" stroke-dasharray="5,2" d="M570.5,-142.24C570.5,-128.78 570.5,-112.38 570.5,-101.64"/>
<polygon fill="orange" stroke="orange" points="567,-142.02 570.5,-152.02 574,-142.02 567,-142.02"/>
</a>
</g>
<text text-anchor="middle" x="592.62" y="-120.8" font-family="SourceSansPro" font-size="16.00" fill="grey">&lt; int &gt;</text>
</g>
<!-- Node18 -->
<g id="node9" class="node">
<title>Node18</title>
<g id="a_node9"><a xlink:title=" ">
<polygon fill="white" stroke="#666666" points="694.25,-101.5 640.75,-101.5 640.75,-77 694.25,-77 694.25,-101.5"/>
<text text-anchor="middle" x="667.5" y="-82.3" font-family="SourceSansPro" font-size="16.00">Used</text>
</a>
</g>
</g>
<!-- Node18&#45;&gt;Node9 -->
<g id="edge8" class="edge">
<title>Node18&#45;&gt;Node9</title>
<g id="a_edge8"><a xlink:title=" ">
<path fill="none" stroke="#9a32cd" stroke-dasharray="5,2" d="M629.52,-76.56C546.43,-53.63 460.39,-33.41 411.34,-22.2"/>
<polygon fill="#9a32cd" stroke="#9a32cd" points="628.4,-79.88 638.97,-79.19 630.27,-73.14 628.4,-79.88"/>
</a>
</g>
<text text-anchor="middle" x="609.57" y="-43.8" font-family="SourceSansPro" font-size="16.00" fill="grey">m_usedClass</text>
</g>
</g>
</svg>
