<?xml version="1.0" encoding="UTF-8" standalone="no"?>
<!DOCTYPE svg PUBLIC "-//W3C//DTD SVG 1.1//EN"
 "http://www.w3.org/Graphics/SVG/1.1/DTD/svg11.dtd">
<!-- Generated by graphviz version 2.43.0 (0)
 -->
<!-- Title: Graph Legend Pages: 1 -->
<svg width="766pt" height="194pt"
 viewBox="0.00 0.00 765.50 194.00" xmlns="http://www.w3.org/2000/svg" xmlns:xlink="http://www.w3.org/1999/xlink">
<g id="graph0" class="graph" transform="scale(1 1) rotate(0) translate(4 190)">
<title>Graph Legend</title>
<!-- Node9 -->
<g id="Node000009" class="node">
<title>Node9</title>
<g id="a_Node000009"><a xlink:title=" ">
<polygon fill="#999999" stroke="#666666" points="443.5,-26 354.5,-26 354.5,0 443.5,0 443.5,-26"/>
<text text-anchor="middle" x="399" y="-9.2" font-family="SourceSansPro" font-size="16.00">Inherited</text>
</a>
</g>
</g>
<!-- Node10 -->
<g id="Node000010" class="node">
<title>Node10</title>
<g id="a_Node000010"><a xlink:title=" ">
<polygon fill="white" stroke="#666666" points="104,-106 0,-106 0,-80 104,-80 104,-106"/>
<text text-anchor="middle" x="52" y="-89.2" font-family="SourceSansPro" font-size="16.00">PublicBase</text>
</a>
</g>
</g>
<!-- Node10&#45;&gt;Node9 -->
<g id="edge1" class="edge">
<title>Node10&#45;&gt;Node9</title>
<g id="a_edge1"><a xlink:title=" ">
<path fill="none" stroke="#63b8ff" d="M114.21,-78.02C183.31,-62.48 293.16,-37.79 354.26,-24.06"/>
<polygon fill="#63b8ff" stroke="#63b8ff" points="113.31,-74.63 104.33,-80.24 114.85,-81.46 113.31,-74.63"/>
</a>
</g>
</g>
<!-- Node11 -->
<g id="Node000011" class="node">
<title>Node11</title>
<g id="a_Node000011"><a xlink:title=" ">
<polygon fill="#fff0f0" stroke="red" points="100.5,-186 3.5,-186 3.5,-160 100.5,-160 100.5,-186"/>
<text text-anchor="middle" x="52" y="-169.2" font-family="SourceSansPro" font-size="16.00">Truncated</text>
</a>
</g>
</g>
<!-- Node11&#45;&gt;Node10 -->
<g id="edge2" class="edge">
<title>Node11&#45;&gt;Node10</title>
<g id="a_edge2"><a xlink:title=" ">
<path fill="none" stroke="#63b8ff" d="M52,-149.42C52,-135.28 52,-117.63 52,-106.1"/>
<polygon fill="#63b8ff" stroke="#63b8ff" points="48.5,-149.81 52,-159.81 55.5,-149.81 48.5,-149.81"/>
</a>
</g>
</g>
<!-- Node13 -->
<g id="node4" class="node">
<title>Node13</title>
<g id="a_node4"><a xlink:title=" ">
<polygon fill="white" stroke="#666666" points="253.5,-106 122.5,-106 122.5,-80 253.5,-80 253.5,-106"/>
<text text-anchor="middle" x="188" y="-89.2" font-family="SourceSansPro" font-size="16.00">ProtectedBase</text>
</a>
</g>
</g>
<!-- Node13&#45;&gt;Node9 -->
<g id="edge3" class="edge">
<title>Node13&#45;&gt;Node9</title>
<g id="a_edge3"><a xlink:title=" ">
<path fill="none" stroke="darkgreen" d="M230.01,-76.47C270.15,-61.63 329.81,-39.58 366.46,-26.03"/>
<polygon fill="darkgreen" stroke="darkgreen" points="228.67,-73.23 220.51,-79.98 231.1,-79.8 228.67,-73.23"/>
</a>
</g>
</g>
<!-- Node14 -->
<g id="node5" class="node">
<title>Node14</title>
<g id="a_node5"><a xlink:title=" ">
<polygon fill="white" stroke="#666666" points="382.5,-106 271.5,-106 271.5,-80 382.5,-80 382.5,-106"/>
<text text-anchor="middle" x="327" y="-89.2" font-family="SourceSansPro" font-size="16.00">PrivateBase</text>
</a>
</g>
</g>
<!-- Node14&#45;&gt;Node9 -->
<g id="edge4" class="edge">
<title>Node14&#45;&gt;Node9</title>
<g id="a_edge4"><a xlink:title=" ">
<path fill="none" stroke="#8b1a1a" d="M345.18,-72.3C358.61,-57.76 376.45,-38.43 387.83,-26.1"/>
<polygon fill="#8b1a1a" stroke="#8b1a1a" points="342.46,-70.09 338.25,-79.81 347.6,-74.84 342.46,-70.09"/>
</a>
</g>
</g>
<!-- Node15 -->
<g id="Node000015" class="node">
<title>Node15</title>
<g id="a_Node000015"><a xlink:title=" ">
<polygon fill="#e0e0e0" stroke="#999999" points="541.5,-106 400.5,-106 400.5,-80 541.5,-80 541.5,-106"/>
<text text-anchor="middle" x="471" y="-89.2" font-family="SourceSansPro" font-size="16.00">Undocumented</text>
</a>
</g>
</g>
<!-- Node15&#45;&gt;Node9 -->
<g id="edge5" class="edge">
<title>Node15&#45;&gt;Node9</title>
<g id="a_edge5"><a xlink:title=" ">
<path fill="none" stroke="#63b8ff" d="M452.82,-72.3C439.39,-57.76 421.55,-38.43 410.17,-26.1"/>
<polygon fill="#63b8ff" stroke="#63b8ff" points="450.4,-74.84 459.75,-79.81 455.54,-70.09 450.4,-74.84"/>
</a>
</g>
</g>
<!-- Node16 -->
<g id="node7" class="node">
<title>Node16</title>
<g id="a_node7"><a xlink:title=" ">
<polygon fill="white" stroke="#666666" points="682,-106 560,-106 560,-80 682,-80 682,-106"/>
<text text-anchor="middle" x="621" y="-89.2" font-family="SourceSansPro" font-size="16.00">Templ&lt; int &gt;</text>
</a>
</g>
</g>
<!-- Node16&#45;&gt;Node9 -->
<g id="edge6" class="edge">
<title>Node16&#45;&gt;Node9</title>
<g id="a_edge6"><a xlink:title=" ">
<path fill="none" stroke="#63b8ff" d="M577.33,-76.66C535.1,-61.82 471.96,-39.63 433.24,-26.03"/>
<polygon fill="#63b8ff" stroke="#63b8ff" points="576.2,-79.97 586.8,-79.98 578.52,-73.37 576.2,-79.97"/>
</a>
</g>
</g>
<!-- Node17 -->
<g id="node8" class="node">
<title>Node17</title>
<g id="a_node8"><a xlink:title=" ">
<polygon fill="white" stroke="#666666" points="676.5,-186 565.5,-186 565.5,-160 676.5,-160 676.5,-186"/>
<text text-anchor="middle" x="621" y="-169.2" font-family="SourceSansPro" font-size="16.00">Templ&lt; T &gt;</text>
</a>
</g>
</g>
<!-- Node17&#45;&gt;Node16 -->
<g id="edge7" class="edge">
<title>Node17&#45;&gt;Node16</title>
<g id="a_edge7"><a xlink:title=" ">
<path fill="none" stroke="orange" stroke-dasharray="5,2" d="M621,-149.42C621,-135.28 621,-117.63 621,-106.1"/>
<polygon fill="orange" stroke="orange" points="617.5,-149.81 621,-159.81 624.5,-149.81 617.5,-149.81"/>
</a>
</g>
<text text-anchor="middle" x="650.5" y="-129.2" font-family="SourceSansPro" font-size="16.00" fill="grey">&lt; int &gt;</text>
</g>
<!-- Node18 -->
<g id="node9" class="node">
<title>Node18</title>
<g id="a_node9"><a xlink:title=" ">
<polygon fill="white" stroke="#666666" points="757.5,-106 700.5,-106 700.5,-80 757.5,-80 757.5,-106"/>
<text text-anchor="middle" x="729" y="-89.2" font-family="SourceSansPro" font-size="16.00">Used</text>
</a>
</g>
</g>
<!-- Node18&#45;&gt;Node9 -->
<g id="edge8" class="edge">
<title>Node18&#45;&gt;Node9</title>
<g id="a_edge8"><a xlink:title=" ">
<path fill="none" stroke="#9a32cd" stroke-dasharray="5,2" d="M690.55,-80.03C597.23,-55.05 499.4,-34.24 443.81,-22.91"/>
<polygon fill="#9a32cd" stroke="#9a32cd" points="689.88,-83.47 700.44,-82.7 691.7,-76.72 689.88,-83.47"/>
</a>
</g>
<text text-anchor="middle" x="672" y="-49.2" font-family="SourceSansPro" font-size="16.00" fill="grey">m_usedClass</text>
</g>
</g>
</svg>
