<?xml version="1.0" encoding="UTF-8" standalone="no"?>
<!DOCTYPE svg PUBLIC "-//W3C//DTD SVG 1.1//EN"
 "http://www.w3.org/Graphics/SVG/1.1/DTD/svg11.dtd">
<!-- Generated by graphviz version 12.2.1 (20241206.2353)
 -->
<!-- Title: Graphical Class Hierarchy Pages: 1 -->
<svg width="258pt" height="76pt"
 viewBox="0.00 0.00 258.25 75.50" xmlns="http://www.w3.org/2000/svg" xmlns:xlink="http://www.w3.org/1999/xlink">
<g id="graph0" class="graph" transform="scale(1 1) rotate(0) translate(4 71.5)">
<title>Graphical Class Hierarchy</title>
<!-- Node0 -->
<g id="Node000000" class="node">
<title>Node0</title>
<g id="a_Node000000"><a xlink:href="classtf_1_1FlowBuilder.html" target="_top" xlink:title="class to build a task dependency graph">
<polygon fill="white" stroke="#666666" points="118,-45.5 0,-45.5 0,-21 118,-21 118,-45.5"/>
<text text-anchor="middle" x="59" y="-26.3" font-family="SourceSansPro" font-size="16.00">tf::FlowBuilder</text>
</a>
</g>
</g>
<!-- Node1 -->
<g id="Node000001" class="node">
<title>Node1</title>
<g id="a_Node000001"><a xlink:href="classtf_1_1Subflow.html" target="_top" xlink:title="class to construct a subflow graph from the execution of a dynamic task">
<polygon fill="white" stroke="#666666" points="247.62,-67.5 156.62,-67.5 156.62,-43 247.62,-43 247.62,-67.5"/>
<text text-anchor="middle" x="202.12" y="-48.3" font-family="SourceSansPro" font-size="16.00">tf::Subflow</text>
</a>
</g>
</g>
<!-- Node0&#45;&gt;Node1 -->
<g id="edge6_Node000000_Node000001" class="edge">
<title>Node0&#45;&gt;Node1</title>
<g id="a_edge6_Node000000_Node000001"><a xlink:title=" ">
<path fill="none" stroke="#63b8ff" d="M129.37,-44.06C138.57,-45.5 147.79,-46.94 156.41,-48.28"/>
<polygon fill="#63b8ff" stroke="#63b8ff" points="130.13,-40.64 119.71,-42.56 129.05,-47.56 130.13,-40.64"/>
</a>
</g>
</g>
<!-- Node2 -->
<g id="Node000002" class="node">
<title>Node2</title>
<g id="a_Node000002"><a xlink:href="classtf_1_1Taskflow.html" target="_top" xlink:title="class to create a taskflow object">
<polygon fill="white" stroke="#666666" points="250.25,-24.5 154,-24.5 154,0 250.25,0 250.25,-24.5"/>
<text text-anchor="middle" x="202.12" y="-5.3" font-family="SourceSansPro" font-size="16.00">tf::Taskflow</text>
</a>
</g>
</g>
<!-- Node0&#45;&gt;Node2 -->
<g id="edge7_Node000000_Node000002" class="edge">
<title>Node0&#45;&gt;Node2</title>
<g id="a_edge7_Node000000_Node000002"><a xlink:title=" ">
<path fill="none" stroke="#63b8ff" d="M129.42,-22.92C137.67,-21.69 145.95,-20.46 153.8,-19.29"/>
<polygon fill="#63b8ff" stroke="#63b8ff" points="129.09,-19.43 119.71,-24.36 130.12,-26.35 129.09,-19.43"/>
</a>
</g>
</g>
</g>
</svg>
