<?xml version="1.0" encoding="UTF-8" standalone="no"?>
<!DOCTYPE svg PUBLIC "-//W3C//DTD SVG 1.1//EN"
 "http://www.w3.org/Graphics/SVG/1.1/DTD/svg11.dtd">
<!-- Generated by graphviz version 12.2.1 (20241206.2353)
 -->
<!-- Title: Graphical Class Hierarchy Pages: 1 -->
<svg width="366pt" height="76pt"
 viewBox="0.00 0.00 365.50 75.50" xmlns="http://www.w3.org/2000/svg" xmlns:xlink="http://www.w3.org/1999/xlink">
<g id="graph0" class="graph" transform="scale(1 1) rotate(0) translate(4 71.5)">
<title>Graphical Class Hierarchy</title>
<!-- Node0 -->
<g id="Node000000" class="node">
<title>Node0</title>
<g id="a_Node000000"><a xlink:href="classtf_1_1ObserverInterface.html" target="_top" xlink:title="class to derive an executor observer">
<polygon fill="white" stroke="#666666" points="163.75,-45.5 0,-45.5 0,-21 163.75,-21 163.75,-45.5"/>
<text text-anchor="middle" x="81.88" y="-26.3" font-family="SourceSansPro" font-size="16.00">tf::ObserverInterface</text>
</a>
</g>
</g>
<!-- Node1 -->
<g id="Node000001" class="node">
<title>Node1</title>
<g id="a_Node000001"><a xlink:href="classtf_1_1ChromeObserver.html" target="_top" xlink:title="class to create an observer based on Chrome tracing format">
<polygon fill="white" stroke="#666666" points="357.5,-67.5 199.75,-67.5 199.75,-43 357.5,-43 357.5,-67.5"/>
<text text-anchor="middle" x="278.62" y="-48.3" font-family="SourceSansPro" font-size="16.00">tf::ChromeObserver</text>
</a>
</g>
</g>
<!-- Node0&#45;&gt;Node1 -->
<g id="edge12_Node000000_Node000001" class="edge">
<title>Node0&#45;&gt;Node1</title>
<g id="a_edge12_Node000000_Node000001"><a xlink:title=" ">
<path fill="none" stroke="#63b8ff" d="M175.36,-43.7C183.4,-44.61 191.48,-45.52 199.39,-46.41"/>
<polygon fill="#63b8ff" stroke="#63b8ff" points="175.89,-40.24 165.56,-42.59 175.1,-47.19 175.89,-40.24"/>
</a>
</g>
</g>
<!-- Node2 -->
<g id="Node000002" class="node">
<title>Node2</title>
<g id="a_Node000002"><a xlink:href="classtf_1_1TFProfObserver.html" target="_top" xlink:title="class to create an observer based on the built&#45;in taskflow profiler format">
<polygon fill="white" stroke="#666666" points="353.38,-24.5 203.88,-24.5 203.88,0 353.38,0 353.38,-24.5"/>
<text text-anchor="middle" x="278.62" y="-5.3" font-family="SourceSansPro" font-size="16.00">tf::TFProfObserver</text>
</a>
</g>
</g>
<!-- Node0&#45;&gt;Node2 -->
<g id="edge13_Node000000_Node000002" class="edge">
<title>Node0&#45;&gt;Node2</title>
<g id="a_edge13_Node000000_Node000002"><a xlink:title=" ">
<path fill="none" stroke="#63b8ff" d="M175.45,-23.27C184.83,-22.26 194.27,-21.24 203.42,-20.25"/>
<polygon fill="#63b8ff" stroke="#63b8ff" points="175.13,-19.78 165.56,-24.33 175.88,-26.74 175.13,-19.78"/>
</a>
</g>
</g>
</g>
</svg>
