<?xml version="1.0" encoding="UTF-8" standalone="no"?>
<!DOCTYPE svg PUBLIC "-//W3C//DTD SVG 1.1//EN"
 "http://www.w3.org/Graphics/SVG/1.1/DTD/svg11.dtd">
<!-- Generated by graphviz version 12.2.1 (20241206.2353)
 -->
<!-- Title: Graphical Class Hierarchy Pages: 1 -->
<svg width="464pt" height="162pt"
 viewBox="0.00 0.00 463.75 161.50" xmlns="http://www.w3.org/2000/svg" xmlns:xlink="http://www.w3.org/1999/xlink">
<g id="graph0" class="graph" transform="scale(1 1) rotate(0) translate(4 157.5)">
<title>Graphical Class Hierarchy</title>
<!-- Node0 -->
<g id="Node000000" class="node">
<title>Node0</title>
<g id="a_Node000000"><a xlink:href="classtf_1_1PartitionerBase.html" target="_top" xlink:title=" ">
<polygon fill="white" stroke="#666666" points="211,-96.75 0,-96.75 0,-55.75 211,-55.75 211,-96.75"/>
<text text-anchor="start" x="8" y="-77.55" font-family="SourceSansPro" font-size="16.00">tf::PartitionerBase</text>
<text text-anchor="middle" x="105.5" y="-61.05" font-family="SourceSansPro" font-size="16.00">&lt; DefaultClosureWrapper &gt;</text>
</a>
</g>
</g>
<!-- Node1 -->
<g id="Node000001" class="node">
<title>Node1</title>
<g id="a_Node000001"><a xlink:href="classtf_1_1DynamicPartitioner.html" target="_top" xlink:title="class to create a dynamic partitioner for scheduling parallel algorithms">
<polygon fill="white" stroke="#666666" points="455.75,-153.5 247,-153.5 247,-129 455.75,-129 455.75,-153.5"/>
<text text-anchor="middle" x="351.38" y="-134.3" font-family="SourceSansPro" font-size="16.00">tf::DynamicPartitioner&lt; C &gt;</text>
</a>
</g>
</g>
<!-- Node0&#45;&gt;Node1 -->
<g id="edge14_Node000000_Node000001" class="edge">
<title>Node0&#45;&gt;Node1</title>
<g id="a_edge14_Node000000_Node000001"><a xlink:title=" ">
<path fill="none" stroke="#63b8ff" d="M181.67,-100.58C202.71,-107.03 225.66,-113.72 247,-119.25 259.61,-122.52 273.18,-125.66 286.2,-128.5"/>
<polygon fill="#63b8ff" stroke="#63b8ff" points="182.9,-97.3 172.31,-97.69 180.83,-103.98 182.9,-97.3"/>
</a>
</g>
</g>
<!-- Node2 -->
<g id="Node000002" class="node">
<title>Node2</title>
<g id="a_Node000002"><a xlink:href="classtf_1_1GuidedPartitioner.html" target="_top" xlink:title="class to create a guided partitioner for scheduling parallel algorithms">
<polygon fill="white" stroke="#666666" points="450.5,-110.5 252.25,-110.5 252.25,-86 450.5,-86 450.5,-110.5"/>
<text text-anchor="middle" x="351.38" y="-91.3" font-family="SourceSansPro" font-size="16.00">tf::GuidedPartitioner&lt; C &gt;</text>
</a>
</g>
</g>
<!-- Node0&#45;&gt;Node2 -->
<g id="edge15_Node000000_Node000002" class="edge">
<title>Node0&#45;&gt;Node2</title>
<g id="a_edge15_Node000000_Node000002"><a xlink:title=" ">
<path fill="none" stroke="#63b8ff" d="M222.72,-86.73C232.45,-87.61 242.22,-88.49 251.8,-89.36"/>
<polygon fill="#63b8ff" stroke="#63b8ff" points="223.12,-83.26 212.85,-85.84 222.49,-90.23 223.12,-83.26"/>
</a>
</g>
</g>
<!-- Node3 -->
<g id="Node000003" class="node">
<title>Node3</title>
<g id="a_Node000003"><a xlink:href="classtf_1_1RandomPartitioner.html" target="_top" xlink:title="class to construct a random partitioner for scheduling parallel algorithms">
<polygon fill="white" stroke="#666666" points="454.62,-67.5 248.12,-67.5 248.12,-43 454.62,-43 454.62,-67.5"/>
<text text-anchor="middle" x="351.38" y="-48.3" font-family="SourceSansPro" font-size="16.00">tf::RandomPartitioner&lt; C &gt;</text>
</a>
</g>
</g>
<!-- Node0&#45;&gt;Node3 -->
<g id="edge16_Node000000_Node000003" class="edge">
<title>Node0&#45;&gt;Node3</title>
<g id="a_edge16_Node000000_Node000003"><a xlink:title=" ">
<path fill="none" stroke="#63b8ff" d="M222.77,-66.24C231.18,-65.51 239.62,-64.79 247.94,-64.07"/>
<polygon fill="#63b8ff" stroke="#63b8ff" points="222.51,-62.75 212.85,-67.09 223.11,-69.72 222.51,-62.75"/>
</a>
</g>
</g>
<!-- Node4 -->
<g id="Node000004" class="node">
<title>Node4</title>
<g id="a_Node000004"><a xlink:href="classtf_1_1StaticPartitioner.html" target="_top" xlink:title="class to construct a static partitioner for scheduling parallel algorithms">
<polygon fill="white" stroke="#666666" points="444.5,-24.5 258.25,-24.5 258.25,0 444.5,0 444.5,-24.5"/>
<text text-anchor="middle" x="351.38" y="-5.3" font-family="SourceSansPro" font-size="16.00">tf::StaticPartitioner&lt; C &gt;</text>
</a>
</g>
</g>
<!-- Node0&#45;&gt;Node4 -->
<g id="edge17_Node000000_Node000004" class="edge">
<title>Node0&#45;&gt;Node4</title>
<g id="a_edge17_Node000000_Node000004"><a xlink:title=" ">
<path fill="none" stroke="#63b8ff" d="M183.55,-52C204.07,-45.87 226.3,-39.54 247,-34.25 259.8,-30.98 273.58,-27.81 286.77,-24.94"/>
<polygon fill="#63b8ff" stroke="#63b8ff" points="182.68,-48.6 174.11,-54.84 184.69,-55.31 182.68,-48.6"/>
</a>
</g>
</g>
</g>
</svg>
