<?xml version="1.0" encoding="UTF-8" standalone="no"?>
<!DOCTYPE svg PUBLIC "-//W3C//DTD SVG 1.1//EN"
 "http://www.w3.org/Graphics/SVG/1.1/DTD/svg11.dtd">
<!-- Generated by graphviz version 2.43.0 (0)
 -->
<!-- Title: Graphical Class Hierarchy Pages: 1 -->
<svg width="528pt" height="166pt"
 viewBox="0.00 0.00 528.00 166.00" xmlns="http://www.w3.org/2000/svg" xmlns:xlink="http://www.w3.org/1999/xlink">
<g id="graph0" class="graph" transform="scale(1 1) rotate(0) translate(4 162)">
<title>Graphical Class Hierarchy</title>
<!-- Node0 -->
<g id="Node000000" class="node">
<title>Node0</title>
<g id="a_Node000000"><a xlink:href="classtf_1_1PartitionerBase.html" target="_top" xlink:title=" ">
<polygon fill="white" stroke="#666666" points="242,-101 0,-101 0,-57 242,-57 242,-101"/>
<text text-anchor="start" x="8" y="-84.2" font-family="SourceSansPro" font-size="16.00">tf::PartitionerBase</text>
<text text-anchor="middle" x="121" y="-66.2" font-family="SourceSansPro" font-size="16.00">&lt; DefaultClosureWrapper &gt;</text>
</a>
</g>
</g>
<!-- Node1 -->
<g id="Node000001" class="node">
<title>Node1</title>
<g id="a_Node000001"><a xlink:href="classtf_1_1DynamicPartitioner.html" target="_top" xlink:title="class to create a dynamic partitioner for scheduling parallel algorithms">
<polygon fill="white" stroke="#666666" points="520,-158 278,-158 278,-132 520,-132 520,-158"/>
<text text-anchor="middle" x="399" y="-141.2" font-family="SourceSansPro" font-size="16.00">tf::DynamicPartitioner&lt; C &gt;</text>
</a>
</g>
</g>
<!-- Node0&#45;&gt;Node1 -->
<g id="edge12_Node000000_Node000001" class="edge">
<title>Node0&#45;&gt;Node1</title>
<g id="a_edge12_Node000000_Node000001"><a xlink:title=" ">
<path fill="none" stroke="#63b8ff" d="M204.3,-103.77C227.97,-110.47 253.91,-117.41 278,-123 291.82,-126.21 306.63,-129.25 320.96,-131.98"/>
<polygon fill="#63b8ff" stroke="#63b8ff" points="205.23,-100.39 194.65,-101.01 203.31,-107.12 205.23,-100.39"/>
</a>
</g>
</g>
<!-- Node2 -->
<g id="Node000002" class="node">
<title>Node2</title>
<g id="a_Node000002"><a xlink:href="classtf_1_1GuidedPartitioner.html" target="_top" xlink:title="class to create a guided partitioner for scheduling parallel algorithms">
<polygon fill="white" stroke="#666666" points="513.5,-114 284.5,-114 284.5,-88 513.5,-88 513.5,-114"/>
<text text-anchor="middle" x="399" y="-97.2" font-family="SourceSansPro" font-size="16.00">tf::GuidedPartitioner&lt; C &gt;</text>
</a>
</g>
</g>
<!-- Node0&#45;&gt;Node2 -->
<g id="edge13_Node000000_Node000002" class="edge">
<title>Node0&#45;&gt;Node2</title>
<g id="a_edge13_Node000000_Node000002"><a xlink:title=" ">
<path fill="none" stroke="#63b8ff" d="M252.42,-89.4C263.05,-90.24 273.75,-91.1 284.25,-91.93"/>
<polygon fill="#63b8ff" stroke="#63b8ff" points="252.5,-85.89 242.25,-88.59 251.94,-92.87 252.5,-85.89"/>
</a>
</g>
</g>
<!-- Node3 -->
<g id="Node000003" class="node">
<title>Node3</title>
<g id="a_Node000003"><a xlink:href="classtf_1_1RandomPartitioner.html" target="_top" xlink:title="class to construct a random partitioner for scheduling parallel algorithms">
<polygon fill="white" stroke="#666666" points="517.5,-70 280.5,-70 280.5,-44 517.5,-44 517.5,-70"/>
<text text-anchor="middle" x="399" y="-53.2" font-family="SourceSansPro" font-size="16.00">tf::RandomPartitioner&lt; C &gt;</text>
</a>
</g>
</g>
<!-- Node0&#45;&gt;Node3 -->
<g id="edge14_Node000000_Node000003" class="edge">
<title>Node0&#45;&gt;Node3</title>
<g id="a_edge14_Node000000_Node000003"><a xlink:title=" ">
<path fill="none" stroke="#63b8ff" d="M252.36,-68.61C261.7,-67.86 271.08,-67.12 280.34,-66.38"/>
<polygon fill="#63b8ff" stroke="#63b8ff" points="251.94,-65.13 242.25,-69.41 252.5,-72.11 251.94,-65.13"/>
</a>
</g>
</g>
<!-- Node4 -->
<g id="Node000004" class="node">
<title>Node4</title>
<g id="a_Node000004"><a xlink:href="classtf_1_1StaticPartitioner.html" target="_top" xlink:title="class to construct a static partitioner for scheduling parallel algorithms">
<polygon fill="white" stroke="#666666" points="507,-26 291,-26 291,0 507,0 507,-26"/>
<text text-anchor="middle" x="399" y="-9.2" font-family="SourceSansPro" font-size="16.00">tf::StaticPartitioner&lt; C &gt;</text>
</a>
</g>
</g>
<!-- Node0&#45;&gt;Node4 -->
<g id="edge15_Node000000_Node000004" class="edge">
<title>Node0&#45;&gt;Node4</title>
<g id="a_edge15_Node000000_Node000004"><a xlink:title=" ">
<path fill="none" stroke="#63b8ff" d="M204.3,-54.23C227.97,-47.53 253.91,-40.59 278,-35 291.82,-31.79 306.63,-28.75 320.96,-26.02"/>
<polygon fill="#63b8ff" stroke="#63b8ff" points="203.31,-50.88 194.65,-56.99 205.23,-57.61 203.31,-50.88"/>
</a>
</g>
</g>
</g>
</svg>
