<?xml version="1.0" encoding="UTF-8" standalone="no"?>
<!DOCTYPE svg PUBLIC "-//W3C//DTD SVG 1.1//EN"
 "http://www.w3.org/Graphics/SVG/1.1/DTD/svg11.dtd">
<!-- Generated by graphviz version 2.43.0 (0)
 -->
<!-- Title: Graphical Class Hierarchy Pages: 1 -->
<svg width="456pt" height="558pt"
 viewBox="0.00 0.00 456.00 558.00" xmlns="http://www.w3.org/2000/svg" xmlns:xlink="http://www.w3.org/1999/xlink">
<g id="graph0" class="graph" transform="scale(1 1) rotate(0) translate(4 554)">
<title>Graphical Class Hierarchy</title>
<!-- Node0 -->
<g id="Node000000" class="node">
<title>Node0</title>
<g id="a_Node000000"><a xlink:title=" ">
<polygon fill="#e0e0e0" stroke="#999999" points="140,-256 0,-256 0,-230 140,-230 140,-256"/>
<text text-anchor="middle" x="70" y="-239.2" font-family="SourceSansPro" font-size="16.00">std::unique_ptr</text>
</a>
</g>
</g>
<!-- Node1 -->
<g id="Node000001" class="node">
<title>Node1</title>
<g id="a_Node000001"><a xlink:href="classtf_1_1cudaEventBase.html" target="_top" xlink:title=" ">
<polygon fill="white" stroke="#666666" points="443.5,-550 180.5,-550 180.5,-488 443.5,-488 443.5,-550"/>
<text text-anchor="start" x="188.5" y="-533.2" font-family="SourceSansPro" font-size="16.00">tf::cudaEventBase&lt;</text>
<text text-anchor="start" x="188.5" y="-515.2" font-family="SourceSansPro" font-size="16.00"> cudaEventCreator, cudaEvent</text>
<text text-anchor="middle" x="312" y="-497.2" font-family="SourceSansPro" font-size="16.00">Deleter &gt;</text>
</a>
</g>
</g>
<!-- Node0&#45;&gt;Node1 -->
<g id="edge2_Node000000_Node000001" class="edge">
<title>Node0&#45;&gt;Node1</title>
<g id="a_edge2_Node000000_Node000001"><a xlink:title=" ">
<path fill="none" stroke="#63b8ff" d="M74.68,-266.11C83.42,-313.25 109.85,-420.97 176,-479 179.68,-482.22 183.6,-485.19 187.71,-487.91"/>
<polygon fill="#63b8ff" stroke="#63b8ff" points="78.13,-265.49 72.95,-256.24 71.23,-266.7 78.13,-265.49"/>
</a>
</g>
</g>
<!-- Node2 -->
<g id="Node000002" class="node">
<title>Node2</title>
<g id="a_Node000002"><a xlink:href="classtf_1_1cudaGraphBase.html" target="_top" xlink:title=" ">
<polygon fill="white" stroke="#666666" points="448,-470 176,-470 176,-408 448,-408 448,-470"/>
<text text-anchor="start" x="184" y="-453.2" font-family="SourceSansPro" font-size="16.00">tf::cudaGraphBase&lt;</text>
<text text-anchor="start" x="184" y="-435.2" font-family="SourceSansPro" font-size="16.00"> cudaGraphCreator, cudaGraph</text>
<text text-anchor="middle" x="312" y="-417.2" font-family="SourceSansPro" font-size="16.00">Deleter &gt;</text>
</a>
</g>
</g>
<!-- Node0&#45;&gt;Node2 -->
<g id="edge3_Node000000_Node000002" class="edge">
<title>Node0&#45;&gt;Node2</title>
<g id="a_edge3_Node000000_Node000002"><a xlink:title=" ">
<path fill="none" stroke="#63b8ff" d="M80.2,-265.67C95.18,-299.72 128.06,-363.81 176,-399 180.43,-402.25 185.13,-405.25 190.01,-408"/>
<polygon fill="#63b8ff" stroke="#63b8ff" points="83.28,-263.95 76.13,-256.13 76.84,-266.7 83.28,-263.95"/>
</a>
</g>
</g>
<!-- Node3 -->
<g id="Node000003" class="node">
<title>Node3</title>
<g id="a_Node000003"><a xlink:href="classtf_1_1cudaGraphExecBase.html" target="_top" xlink:title=" ">
<polygon fill="white" stroke="#666666" points="425.5,-390 198.5,-390 198.5,-328 425.5,-328 425.5,-390"/>
<text text-anchor="start" x="206.5" y="-373.2" font-family="SourceSansPro" font-size="16.00">tf::cudaGraphExecBase</text>
<text text-anchor="start" x="206.5" y="-355.2" font-family="SourceSansPro" font-size="16.00">&lt; cudaGraphExecCreator,</text>
<text text-anchor="middle" x="312" y="-337.2" font-family="SourceSansPro" font-size="16.00"> cudaGraphExecDeleter &gt;</text>
</a>
</g>
</g>
<!-- Node0&#45;&gt;Node3 -->
<g id="edge4_Node000000_Node000003" class="edge">
<title>Node0&#45;&gt;Node3</title>
<g id="a_edge4_Node000000_Node000003"><a xlink:title=" ">
<path fill="none" stroke="#63b8ff" d="M93.34,-262.65C113.66,-279.64 145.12,-303.81 176,-319 183.13,-322.51 190.62,-325.77 198.27,-328.79"/>
<polygon fill="#63b8ff" stroke="#63b8ff" points="95.49,-259.88 85.6,-256.08 90.96,-265.22 95.49,-259.88"/>
</a>
</g>
</g>
<!-- Node4 -->
<g id="Node000004" class="node">
<title>Node4</title>
<g id="a_Node000004"><a xlink:href="classtf_1_1cudaStreamBase.html" target="_top" xlink:title=" ">
<polygon fill="white" stroke="#666666" points="410.5,-310 213.5,-310 213.5,-248 410.5,-248 410.5,-310"/>
<text text-anchor="start" x="221.5" y="-293.2" font-family="SourceSansPro" font-size="16.00">tf::cudaStreamBase</text>
<text text-anchor="start" x="221.5" y="-275.2" font-family="SourceSansPro" font-size="16.00">&lt; cudaStreamCreator,</text>
<text text-anchor="middle" x="312" y="-257.2" font-family="SourceSansPro" font-size="16.00"> cudaStreamDeleter &gt;</text>
</a>
</g>
</g>
<!-- Node0&#45;&gt;Node4 -->
<g id="edge5_Node000000_Node000004" class="edge">
<title>Node0&#45;&gt;Node4</title>
<g id="a_edge5_Node000000_Node000004"><a xlink:title=" ">
<path fill="none" stroke="#63b8ff" d="M150.18,-254.88C170.4,-257.91 192.37,-261.21 213.39,-264.36"/>
<polygon fill="#63b8ff" stroke="#63b8ff" points="150.5,-251.39 140.1,-253.36 149.47,-258.31 150.5,-251.39"/>
</a>
</g>
</g>
<!-- Node5 -->
<g id="Node000005" class="node">
<title>Node5</title>
<g id="a_Node000005"><a xlink:href="classtf_1_1cudaEventBase.html" target="_top" xlink:title="class to create a CUDA event with unique ownership">
<polygon fill="white" stroke="#666666" points="400,-230 224,-230 224,-186 400,-186 400,-230"/>
<text text-anchor="start" x="232" y="-213.2" font-family="SourceSansPro" font-size="16.00">tf::cudaEventBase&lt;</text>
<text text-anchor="middle" x="312" y="-195.2" font-family="SourceSansPro" font-size="16.00"> Creator, Deleter &gt;</text>
</a>
</g>
</g>
<!-- Node0&#45;&gt;Node5 -->
<g id="edge6_Node000000_Node000005" class="edge">
<title>Node0&#45;&gt;Node5</title>
<g id="a_edge6_Node000000_Node000005"><a xlink:title=" ">
<path fill="none" stroke="#63b8ff" d="M150.03,-231.47C173.58,-228.04 199.52,-224.26 223.58,-220.75"/>
<polygon fill="#63b8ff" stroke="#63b8ff" points="149.49,-228.02 140.1,-232.92 150.5,-234.94 149.49,-228.02"/>
</a>
</g>
</g>
<!-- Node6 -->
<g id="Node000006" class="node">
<title>Node6</title>
<g id="a_Node000006"><a xlink:href="classtf_1_1cudaGraphBase.html" target="_top" xlink:title="class to create a CUDA graph with uunique ownership">
<polygon fill="white" stroke="#666666" points="402.5,-168 221.5,-168 221.5,-124 402.5,-124 402.5,-168"/>
<text text-anchor="start" x="229.5" y="-151.2" font-family="SourceSansPro" font-size="16.00">tf::cudaGraphBase&lt;</text>
<text text-anchor="middle" x="312" y="-133.2" font-family="SourceSansPro" font-size="16.00"> Creator, Deleter &gt;</text>
</a>
</g>
</g>
<!-- Node0&#45;&gt;Node6 -->
<g id="edge7_Node000000_Node000006" class="edge">
<title>Node0&#45;&gt;Node6</title>
<g id="a_edge7_Node000000_Node000006"><a xlink:title=" ">
<path fill="none" stroke="#63b8ff" d="M96,-223.89C116.49,-209.09 146.77,-189.13 176,-177 190.33,-171.05 206,-166.14 221.44,-162.11"/>
<polygon fill="#63b8ff" stroke="#63b8ff" points="93.83,-221.14 87.85,-229.88 97.98,-226.78 93.83,-221.14"/>
</a>
</g>
</g>
<!-- Node7 -->
<g id="Node000007" class="node">
<title>Node7</title>
<g id="a_Node000007"><a xlink:href="classtf_1_1cudaGraphExecBase.html" target="_top" xlink:title="class to create an executable CUDA graph with unique ownership">
<polygon fill="white" stroke="#666666" points="414.5,-106 209.5,-106 209.5,-62 414.5,-62 414.5,-106"/>
<text text-anchor="start" x="217.5" y="-89.2" font-family="SourceSansPro" font-size="16.00">tf::cudaGraphExecBase</text>
<text text-anchor="middle" x="312" y="-71.2" font-family="SourceSansPro" font-size="16.00">&lt; Creator, Deleter &gt;</text>
</a>
</g>
</g>
<!-- Node0&#45;&gt;Node7 -->
<g id="edge8_Node000000_Node000007" class="edge">
<title>Node0&#45;&gt;Node7</title>
<g id="a_edge8_Node000000_Node000007"><a xlink:title=" ">
<path fill="none" stroke="#63b8ff" d="M82.99,-220.72C99.8,-191.69 133.2,-141.52 176,-115 186.22,-108.67 197.6,-103.62 209.29,-99.61"/>
<polygon fill="#63b8ff" stroke="#63b8ff" points="79.79,-219.26 77.93,-229.69 85.89,-222.7 79.79,-219.26"/>
</a>
</g>
</g>
<!-- Node8 -->
<g id="Node000008" class="node">
<title>Node8</title>
<g id="a_Node000008"><a xlink:href="classtf_1_1cudaStreamBase.html" target="_top" xlink:title="class to create a CUDA stream with unique ownership">
<polygon fill="white" stroke="#666666" points="403,-44 221,-44 221,0 403,0 403,-44"/>
<text text-anchor="start" x="229" y="-27.2" font-family="SourceSansPro" font-size="16.00">tf::cudaStreamBase</text>
<text text-anchor="middle" x="312" y="-9.2" font-family="SourceSansPro" font-size="16.00">&lt; Creator, Deleter &gt;</text>
</a>
</g>
</g>
<!-- Node0&#45;&gt;Node8 -->
<g id="edge9_Node000000_Node000008" class="edge">
<title>Node0&#45;&gt;Node8</title>
<g id="a_edge9_Node000000_Node000008"><a xlink:title=" ">
<path fill="none" stroke="#63b8ff" d="M76.93,-220.23C88.67,-179.9 118.81,-96.1 176,-53 189.16,-43.09 204.94,-36.26 221,-31.57"/>
<polygon fill="#63b8ff" stroke="#63b8ff" points="73.54,-219.37 74.22,-229.94 80.28,-221.25 73.54,-219.37"/>
</a>
</g>
</g>
</g>
</svg>
