<?xml version="1.0" encoding="UTF-8" standalone="no"?>
<!DOCTYPE svg PUBLIC "-//W3C//DTD SVG 1.1//EN"
 "http://www.w3.org/Graphics/SVG/1.1/DTD/svg11.dtd">
<!-- Generated by graphviz version 12.2.1 (20241206.2353)
 -->
<!-- Title: Graphical Class Hierarchy Pages: 1 -->
<svg width="410pt" height="529pt"
 viewBox="0.00 0.00 409.75 529.25" xmlns="http://www.w3.org/2000/svg" xmlns:xlink="http://www.w3.org/1999/xlink">
<g id="graph0" class="graph" transform="scale(1 1) rotate(0) translate(4 525.25)">
<title>Graphical Class Hierarchy</title>
<!-- Node0 -->
<g id="Node000000" class="node">
<title>Node0</title>
<g id="a_Node000000"><a xlink:title=" ">
<polygon fill="#e0e0e0" stroke="#999999" points="123.25,-242.75 0,-242.75 0,-218.25 123.25,-218.25 123.25,-242.75"/>
<text text-anchor="middle" x="61.62" y="-223.55" font-family="SourceSansPro" font-size="16.00">std::unique_ptr</text>
</a>
</g>
</g>
<!-- Node1 -->
<g id="Node000001" class="node">
<title>Node1</title>
<g id="a_Node000001"><a xlink:href="classtf_1_1cudaEventBase.html" target="_top" xlink:title=" ">
<polygon fill="white" stroke="#666666" points="398,-521.25 163,-521.25 163,-463.75 398,-463.75 398,-521.25"/>
<text text-anchor="start" x="171" y="-502.05" font-family="SourceSansPro" font-size="16.00">tf::cudaEventBase&lt;</text>
<text text-anchor="start" x="171" y="-485.55" font-family="SourceSansPro" font-size="16.00"> cudaEventCreator, cudaEvent</text>
<text text-anchor="middle" x="280.5" y="-469.05" font-family="SourceSansPro" font-size="16.00">Deleter &gt;</text>
</a>
</g>
</g>
<!-- Node0&#45;&gt;Node1 -->
<g id="edge2_Node000000_Node000001" class="edge">
<title>Node0&#45;&gt;Node1</title>
<g id="a_edge2_Node000000_Node000001"><a xlink:title=" ">
<path fill="none" stroke="#63b8ff" d="M66.24,-254.33C74.4,-299.88 98.5,-399.6 159.25,-454.5 162.82,-457.73 166.67,-460.68 170.72,-463.39"/>
<polygon fill="#63b8ff" stroke="#63b8ff" points="69.7,-253.79 64.59,-244.5 62.79,-254.94 69.7,-253.79"/>
</a>
</g>
</g>
<!-- Node2 -->
<g id="Node000002" class="node">
<title>Node2</title>
<g id="a_Node000002"><a xlink:href="classtf_1_1cudaGraphBase.html" target="_top" xlink:title=" ">
<polygon fill="white" stroke="#666666" points="401.75,-445.25 159.25,-445.25 159.25,-387.75 401.75,-387.75 401.75,-445.25"/>
<text text-anchor="start" x="167.25" y="-426.05" font-family="SourceSansPro" font-size="16.00">tf::cudaGraphBase&lt;</text>
<text text-anchor="start" x="167.25" y="-409.55" font-family="SourceSansPro" font-size="16.00"> cudaGraphCreator, cudaGraph</text>
<text text-anchor="middle" x="280.5" y="-393.05" font-family="SourceSansPro" font-size="16.00">Deleter &gt;</text>
</a>
</g>
</g>
<!-- Node0&#45;&gt;Node2 -->
<g id="edge3_Node000000_Node000002" class="edge">
<title>Node0&#45;&gt;Node2</title>
<g id="a_edge3_Node000000_Node000002"><a xlink:title=" ">
<path fill="none" stroke="#63b8ff" d="M71.53,-253.17C85.42,-285.64 115.3,-345.14 159.25,-378.5 163.44,-381.68 167.89,-384.59 172.54,-387.27"/>
<polygon fill="#63b8ff" stroke="#63b8ff" points="74.92,-252.2 67.86,-244.29 68.45,-254.87 74.92,-252.2"/>
</a>
</g>
</g>
<!-- Node3 -->
<g id="Node000003" class="node">
<title>Node3</title>
<g id="a_Node000003"><a xlink:href="classtf_1_1cudaGraphExecBase.html" target="_top" xlink:title=" ">
<polygon fill="white" stroke="#666666" points="381.88,-369.25 179.12,-369.25 179.12,-311.75 381.88,-311.75 381.88,-369.25"/>
<text text-anchor="start" x="187.12" y="-350.05" font-family="SourceSansPro" font-size="16.00">tf::cudaGraphExecBase</text>
<text text-anchor="start" x="187.12" y="-333.55" font-family="SourceSansPro" font-size="16.00">&lt; cudaGraphExecCreator,</text>
<text text-anchor="middle" x="280.5" y="-317.05" font-family="SourceSansPro" font-size="16.00"> cudaGraphExecDeleter &gt;</text>
</a>
</g>
</g>
<!-- Node0&#45;&gt;Node3 -->
<g id="edge4_Node000000_Node000003" class="edge">
<title>Node0&#45;&gt;Node3</title>
<g id="a_edge4_Node000000_Node000003"><a xlink:title=" ">
<path fill="none" stroke="#63b8ff" d="M84.99,-250.6C103.7,-266.53 131.69,-288.39 159.25,-302.5 165.49,-305.69 172.04,-308.68 178.74,-311.47"/>
<polygon fill="#63b8ff" stroke="#63b8ff" points="87.34,-248 77.49,-244.09 82.75,-253.29 87.34,-248"/>
</a>
</g>
</g>
<!-- Node4 -->
<g id="Node000004" class="node">
<title>Node4</title>
<g id="a_Node000004"><a xlink:href="classtf_1_1cudaStreamBase.html" target="_top" xlink:title=" ">
<polygon fill="white" stroke="#666666" points="367.25,-293.25 193.75,-293.25 193.75,-235.75 367.25,-235.75 367.25,-293.25"/>
<text text-anchor="start" x="201.75" y="-274.05" font-family="SourceSansPro" font-size="16.00">tf::cudaStreamBase</text>
<text text-anchor="start" x="201.75" y="-257.55" font-family="SourceSansPro" font-size="16.00">&lt; cudaStreamCreator,</text>
<text text-anchor="middle" x="280.5" y="-241.05" font-family="SourceSansPro" font-size="16.00"> cudaStreamDeleter &gt;</text>
</a>
</g>
</g>
<!-- Node0&#45;&gt;Node4 -->
<g id="edge5_Node000000_Node000004" class="edge">
<title>Node0&#45;&gt;Node4</title>
<g id="a_edge5_Node000000_Node000004"><a xlink:title=" ">
<path fill="none" stroke="#63b8ff" d="M134.78,-241.81C153.59,-244.76 174.04,-247.97 193.48,-251.02"/>
<polygon fill="#63b8ff" stroke="#63b8ff" points="135.53,-238.39 125.11,-240.3 134.45,-245.3 135.53,-238.39"/>
</a>
</g>
</g>
<!-- Node5 -->
<g id="Node000005" class="node">
<title>Node5</title>
<g id="a_Node000005"><a xlink:href="classtf_1_1cudaEventBase.html" target="_top" xlink:title="class to create a CUDA event with unique ownership">
<polygon fill="white" stroke="#666666" points="358.62,-218 202.38,-218 202.38,-177 358.62,-177 358.62,-218"/>
<text text-anchor="start" x="210.38" y="-198.8" font-family="SourceSansPro" font-size="16.00">tf::cudaEventBase&lt;</text>
<text text-anchor="middle" x="280.5" y="-182.3" font-family="SourceSansPro" font-size="16.00"> Creator, Deleter &gt;</text>
</a>
</g>
</g>
<!-- Node0&#45;&gt;Node5 -->
<g id="edge6_Node000000_Node000005" class="edge">
<title>Node0&#45;&gt;Node5</title>
<g id="a_edge6_Node000000_Node000005"><a xlink:title=" ">
<path fill="none" stroke="#63b8ff" d="M134.98,-219.49C156.47,-216.22 180.11,-212.62 201.92,-209.3"/>
<polygon fill="#63b8ff" stroke="#63b8ff" points="134.47,-216.03 125.11,-220.99 135.52,-222.95 134.47,-216.03"/>
</a>
</g>
</g>
<!-- Node6 -->
<g id="Node000006" class="node">
<title>Node6</title>
<g id="a_Node000006"><a xlink:href="classtf_1_1cudaGraphBase.html" target="_top" xlink:title="class to create a CUDA graph with uunique ownership">
<polygon fill="white" stroke="#666666" points="360.5,-159 200.5,-159 200.5,-118 360.5,-118 360.5,-159"/>
<text text-anchor="start" x="208.5" y="-139.8" font-family="SourceSansPro" font-size="16.00">tf::cudaGraphBase&lt;</text>
<text text-anchor="middle" x="280.5" y="-123.3" font-family="SourceSansPro" font-size="16.00"> Creator, Deleter &gt;</text>
</a>
</g>
</g>
<!-- Node0&#45;&gt;Node6 -->
<g id="edge7_Node000000_Node000006" class="edge">
<title>Node0&#45;&gt;Node6</title>
<g id="a_edge7_Node000000_Node000006"><a xlink:title=" ">
<path fill="none" stroke="#63b8ff" d="M87.84,-211.05C106.62,-197.4 133.38,-179.67 159.25,-168.5 172.09,-162.96 186.16,-158.3 200.01,-154.42"/>
<polygon fill="#63b8ff" stroke="#63b8ff" points="85.96,-208.09 80.01,-216.86 90.13,-213.72 85.96,-208.09"/>
</a>
</g>
</g>
<!-- Node7 -->
<g id="Node000007" class="node">
<title>Node7</title>
<g id="a_Node000007"><a xlink:href="classtf_1_1cudaGraphExecBase.html" target="_top" xlink:title="class to create an executable CUDA graph with unique ownership">
<polygon fill="white" stroke="#666666" points="374,-100 187,-100 187,-59 374,-59 374,-100"/>
<text text-anchor="start" x="195" y="-80.8" font-family="SourceSansPro" font-size="16.00">tf::cudaGraphExecBase</text>
<text text-anchor="middle" x="280.5" y="-64.3" font-family="SourceSansPro" font-size="16.00">&lt; Creator, Deleter &gt;</text>
</a>
</g>
</g>
<!-- Node0&#45;&gt;Node7 -->
<g id="edge8_Node000000_Node000007" class="edge">
<title>Node0&#45;&gt;Node7</title>
<g id="a_edge8_Node000000_Node000007"><a xlink:title=" ">
<path fill="none" stroke="#63b8ff" d="M74.4,-208.11C90.04,-180.59 120.31,-134.5 159.25,-109.5 167.67,-104.09 177,-99.66 186.63,-96.03"/>
<polygon fill="#63b8ff" stroke="#63b8ff" points="71.45,-206.21 69.69,-216.66 77.58,-209.59 71.45,-206.21"/>
</a>
</g>
</g>
<!-- Node8 -->
<g id="Node000008" class="node">
<title>Node8</title>
<g id="a_Node000008"><a xlink:href="classtf_1_1cudaStreamBase.html" target="_top" xlink:title="class to create a CUDA stream with unique ownership">
<polygon fill="white" stroke="#666666" points="359.38,-41 201.62,-41 201.62,0 359.38,0 359.38,-41"/>
<text text-anchor="start" x="209.62" y="-21.8" font-family="SourceSansPro" font-size="16.00">tf::cudaStreamBase</text>
<text text-anchor="middle" x="280.5" y="-5.3" font-family="SourceSansPro" font-size="16.00">&lt; Creator, Deleter &gt;</text>
</a>
</g>
</g>
<!-- Node0&#45;&gt;Node8 -->
<g id="edge9_Node000000_Node000008" class="edge">
<title>Node0&#45;&gt;Node8</title>
<g id="a_edge9_Node000000_Node000008"><a xlink:title=" ">
<path fill="none" stroke="#63b8ff" d="M68.46,-207.31C79.42,-168.66 106.85,-91.28 159.25,-50.5 171.48,-40.99 186.34,-34.45 201.38,-29.97"/>
<polygon fill="#63b8ff" stroke="#63b8ff" points="65.14,-206.17 65.92,-216.74 71.9,-207.99 65.14,-206.17"/>
</a>
</g>
</g>
</g>
</svg>
