<?xml version="1.0" encoding="UTF-8" standalone="no"?>
<!DOCTYPE svg PUBLIC "-//W3C//DTD SVG 1.1//EN"
 "http://www.w3.org/Graphics/SVG/1.1/DTD/svg11.dtd">
<!-- Generated by graphviz version 12.2.1 (20241206.2353)
 -->
<!-- Title: Graphical Class Hierarchy Pages: 1 -->
<svg width="354pt" height="226pt"
 viewBox="0.00 0.00 354.25 226.00" xmlns="http://www.w3.org/2000/svg" xmlns:xlink="http://www.w3.org/1999/xlink">
<g id="graph0" class="graph" transform="scale(1 1) rotate(0) translate(4 222)">
<title>Graphical Class Hierarchy</title>
<!-- Node0 -->
<g id="Node000000" class="node">
<title>Node0</title>
<g id="a_Node000000"><a xlink:title=" ">
<polygon fill="#e0e0e0" stroke="#999999" points="123.25,-120.75 0,-120.75 0,-96.25 123.25,-96.25 123.25,-120.75"/>
<text text-anchor="middle" x="61.62" y="-101.55" font-family="SourceSansPro" font-size="16.00">std::unique_ptr</text>
</a>
</g>
</g>
<!-- Node1 -->
<g id="Node000001" class="node">
<title>Node1</title>
<g id="a_Node000001"><a xlink:href="classtf_1_1cudaEventBase.html" target="_top" xlink:title="class to create a CUDA event with unique ownership">
<polygon fill="white" stroke="#666666" points="330.88,-218 174.62,-218 174.62,-177 330.88,-177 330.88,-218"/>
<text text-anchor="start" x="182.62" y="-198.8" font-family="SourceSansPro" font-size="16.00">tf::cudaEventBase&lt;</text>
<text text-anchor="middle" x="252.75" y="-182.3" font-family="SourceSansPro" font-size="16.00"> Creator, Deleter &gt;</text>
</a>
</g>
</g>
<!-- Node0&#45;&gt;Node1 -->
<g id="edge2_Node000000_Node000001" class="edge">
<title>Node0&#45;&gt;Node1</title>
<g id="a_edge2_Node000000_Node000001"><a xlink:title=" ">
<path fill="none" stroke="#63b8ff" d="M89.43,-127.71C108.27,-140.56 134.45,-157.13 159.25,-168.5 165.52,-171.37 172.16,-174.07 178.88,-176.58"/>
<polygon fill="#63b8ff" stroke="#63b8ff" points="91.49,-124.88 81.28,-122.05 87.5,-130.63 91.49,-124.88"/>
</a>
</g>
</g>
<!-- Node2 -->
<g id="Node000002" class="node">
<title>Node2</title>
<g id="a_Node000002"><a xlink:href="classtf_1_1cudaGraphBase.html" target="_top" xlink:title="class to create a CUDA graph with uunique ownership">
<polygon fill="white" stroke="#666666" points="332.75,-159 172.75,-159 172.75,-118 332.75,-118 332.75,-159"/>
<text text-anchor="start" x="180.75" y="-139.8" font-family="SourceSansPro" font-size="16.00">tf::cudaGraphBase&lt;</text>
<text text-anchor="middle" x="252.75" y="-123.3" font-family="SourceSansPro" font-size="16.00"> Creator, Deleter &gt;</text>
</a>
</g>
</g>
<!-- Node0&#45;&gt;Node2 -->
<g id="edge3_Node000000_Node000002" class="edge">
<title>Node0&#45;&gt;Node2</title>
<g id="a_edge3_Node000000_Node000002"><a xlink:title=" ">
<path fill="none" stroke="#63b8ff" d="M134.64,-119.92C146.97,-121.88 159.83,-123.92 172.33,-125.9"/>
<polygon fill="#63b8ff" stroke="#63b8ff" points="135.43,-116.5 125,-118.39 134.33,-123.42 135.43,-116.5"/>
</a>
</g>
</g>
<!-- Node3 -->
<g id="Node000003" class="node">
<title>Node3</title>
<g id="a_Node000003"><a xlink:href="classtf_1_1cudaGraphExecBase.html" target="_top" xlink:title="class to create an executable CUDA graph with unique ownership">
<polygon fill="white" stroke="#666666" points="346.25,-100 159.25,-100 159.25,-59 346.25,-59 346.25,-100"/>
<text text-anchor="start" x="167.25" y="-80.8" font-family="SourceSansPro" font-size="16.00">tf::cudaGraphExecBase</text>
<text text-anchor="middle" x="252.75" y="-64.3" font-family="SourceSansPro" font-size="16.00">&lt; Creator, Deleter &gt;</text>
</a>
</g>
</g>
<!-- Node0&#45;&gt;Node3 -->
<g id="edge4_Node000000_Node000003" class="edge">
<title>Node0&#45;&gt;Node3</title>
<g id="a_edge4_Node000000_Node000003"><a xlink:title=" ">
<path fill="none" stroke="#63b8ff" d="M134.88,-97.42C142.77,-96.21 150.88,-94.97 158.97,-93.73"/>
<polygon fill="#63b8ff" stroke="#63b8ff" points="134.36,-93.96 125,-98.94 135.42,-100.88 134.36,-93.96"/>
</a>
</g>
</g>
<!-- Node4 -->
<g id="Node000004" class="node">
<title>Node4</title>
<g id="a_Node000004"><a xlink:href="classtf_1_1cudaStreamBase.html" target="_top" xlink:title="class to create a CUDA stream with unique ownership">
<polygon fill="white" stroke="#666666" points="331.62,-41 173.88,-41 173.88,0 331.62,0 331.62,-41"/>
<text text-anchor="start" x="181.88" y="-21.8" font-family="SourceSansPro" font-size="16.00">tf::cudaStreamBase</text>
<text text-anchor="middle" x="252.75" y="-5.3" font-family="SourceSansPro" font-size="16.00">&lt; Creator, Deleter &gt;</text>
</a>
</g>
</g>
<!-- Node0&#45;&gt;Node4 -->
<g id="edge5_Node000000_Node000004" class="edge">
<title>Node0&#45;&gt;Node4</title>
<g id="a_edge5_Node000000_Node000004"><a xlink:title=" ">
<path fill="none" stroke="#63b8ff" d="M90.25,-89.61C109.1,-77.31 134.95,-61.56 159.25,-50.5 166.32,-47.28 173.83,-44.25 181.41,-41.45"/>
<polygon fill="#63b8ff" stroke="#63b8ff" points="88.49,-86.58 82.09,-95.02 92.35,-92.42 88.49,-86.58"/>
</a>
</g>
</g>
</g>
</svg>
