<?xml version="1.0" encoding="UTF-8" standalone="no"?>
<!DOCTYPE svg PUBLIC "-//W3C//DTD SVG 1.1//EN"
 "http://www.w3.org/Graphics/SVG/1.1/DTD/svg11.dtd">
<!-- Generated by graphviz version 2.43.0 (0)
 -->
<!-- Title: Graphical Class Hierarchy Pages: 1 -->
<svg width="280pt" height="78pt"
 viewBox="0.00 0.00 280.00 78.00" xmlns="http://www.w3.org/2000/svg" xmlns:xlink="http://www.w3.org/1999/xlink">
<g id="graph0" class="graph" transform="scale(1 1) rotate(0) translate(4 74)">
<title>Graphical Class Hierarchy</title>
<!-- Node0 -->
<g id="Node000000" class="node">
<title>Node0</title>
<g id="a_Node000000"><a xlink:href="classtf_1_1FlowBuilder.html" target="_top" xlink:title="class to build a task dependency graph">
<polygon fill="white" stroke="#666666" points="132,-48 0,-48 0,-22 132,-22 132,-48"/>
<text text-anchor="middle" x="66" y="-31.2" font-family="SourceSansPro" font-size="16.00">tf::FlowBuilder</text>
</a>
</g>
</g>
<!-- Node1 -->
<g id="Node000001" class="node">
<title>Node1</title>
<g id="a_Node000001"><a xlink:href="classtf_1_1Subflow.html" target="_top" xlink:title="class to construct a subflow graph from the execution of a dynamic task">
<polygon fill="white" stroke="#666666" points="271,-70 169,-70 169,-44 271,-44 271,-70"/>
<text text-anchor="middle" x="220" y="-53.2" font-family="SourceSansPro" font-size="16.00">tf::Subflow</text>
</a>
</g>
</g>
<!-- Node0&#45;&gt;Node1 -->
<g id="edge10_Node000000_Node000001" class="edge">
<title>Node0&#45;&gt;Node1</title>
<g id="a_edge10_Node000000_Node000001"><a xlink:title=" ">
<path fill="none" stroke="#63b8ff" d="M142.43,-45.92C151.4,-47.22 160.37,-48.51 168.86,-49.74"/>
<polygon fill="#63b8ff" stroke="#63b8ff" points="142.74,-42.43 132.34,-44.46 141.74,-49.35 142.74,-42.43"/>
</a>
</g>
</g>
<!-- Node2 -->
<g id="Node000002" class="node">
<title>Node2</title>
<g id="a_Node000002"><a xlink:href="classtf_1_1Taskflow.html" target="_top" xlink:title="class to create a taskflow object">
<polygon fill="white" stroke="#666666" points="272,-26 168,-26 168,0 272,0 272,-26"/>
<text text-anchor="middle" x="220" y="-9.2" font-family="SourceSansPro" font-size="16.00">tf::Taskflow</text>
</a>
</g>
</g>
<!-- Node0&#45;&gt;Node2 -->
<g id="edge11_Node000000_Node000002" class="edge">
<title>Node0&#45;&gt;Node2</title>
<g id="a_edge11_Node000000_Node000002"><a xlink:title=" ">
<path fill="none" stroke="#63b8ff" d="M142.45,-24.08C151.08,-22.83 159.73,-21.58 167.94,-20.39"/>
<polygon fill="#63b8ff" stroke="#63b8ff" points="141.74,-20.65 132.34,-25.54 142.74,-27.57 141.74,-20.65"/>
</a>
</g>
</g>
</g>
</svg>
