<?xml version="1.0" encoding="UTF-8" standalone="no"?><!DOCTYPE svg PUBLIC "-//W3C//DTD SVG 1.1//EN" "http://www.w3.org/Graphics/SVG/1.1/DTD/svg11.dtd"><!-- Generated by graphviz version 2.40.1 (20161225.0304)
 --><!-- Title: Taskflow Pages: 1 --><svg xmlns="http://www.w3.org/2000/svg" xmlns:xlink="http://www.w3.org/1999/xlink" width="307pt" height="152pt" viewBox="0.00 0.00 306.65 152.00">
<g id="graph0" class="graph" transform="scale(1 1) rotate(0) translate(4 148)">
<title>Taskflow</title>
<polygon fill="#ffffff" stroke="transparent" points="-4,4 -4,-148 302.6486,-148 302.6486,4 -4,4"/>
<!-- p0x55d923794f10 -->
<g id="node1" class="node">
<title>p0x55d923794f10</title>
<ellipse fill="none" stroke="#000000" cx="50.7198" cy="-126" rx="50.3567" ry="18"/>
<text text-anchor="middle" x="50.7198" y="-121.8" font-family="Times,serif" font-size="14.00" fill="#000000">allocate_a</text>
</g>
<!-- p0x55d923795240 -->
<g id="node2" class="node">
<title>p0x55d923795240</title>
<polygon fill="#00ffff" stroke="#000000" points="208.7534,-90 205.7534,-94 184.7534,-94 181.7534,-90 137.3348,-90 137.3348,-54 208.7534,-54 208.7534,-90"/>
<text text-anchor="middle" x="173.0441" y="-67.8" font-family="Times,serif" font-size="14.00" fill="#000000">cudaFlow</text>
</g>
<!-- p0x55d923794f10&#45;&gt;p0x55d923795240 -->
<g id="edge1" class="edge">
<title>p0x55d923794f10-&gt;p0x55d923795240</title>
<path fill="none" stroke="#000000" d="M82.5397,-111.9531C96.3746,-105.8457 112.8345,-98.5795 127.8997,-91.929"/>
<polygon fill="#000000" stroke="#000000" points="129.3289,-95.124 137.0637,-87.8835 126.5019,-88.7202 129.3289,-95.124"/>
</g>
<!-- p0x55d923795350 -->
<g id="node5" class="node">
<title>p0x55d923795350</title>
<ellipse fill="none" stroke="#000000" cx="271.6486" cy="-72" rx="27" ry="18"/>
<text text-anchor="middle" x="271.6486" y="-67.8" font-family="Times,serif" font-size="14.00" fill="#000000">free</text>
</g>
<!-- p0x55d923795240&#45;&gt;p0x55d923795350 -->
<g id="edge4" class="edge">
<title>p0x55d923795240-&gt;p0x55d923795350</title>
<path fill="none" stroke="#000000" d="M208.9215,-72C217.2071,-72 226.0403,-72 234.3836,-72"/>
<polygon fill="#000000" stroke="#000000" points="234.6118,-75.5001 244.6118,-72 234.6117,-68.5001 234.6118,-75.5001"/>
</g>
<!-- p0x55d923795020 -->
<g id="node3" class="node">
<title>p0x55d923795020</title>
<ellipse fill="none" stroke="#000000" cx="50.7198" cy="-72" rx="50.9405" ry="18"/>
<text text-anchor="middle" x="50.7198" y="-67.8" font-family="Times,serif" font-size="14.00" fill="#000000">allocate_b</text>
</g>
<!-- p0x55d923795020&#45;&gt;p0x55d923795240 -->
<g id="edge2" class="edge">
<title>p0x55d923795020-&gt;p0x55d923795240</title>
<path fill="none" stroke="#000000" d="M101.5336,-72C109.9337,-72 118.6019,-72 126.8796,-72"/>
<polygon fill="#000000" stroke="#000000" points="127.1062,-75.5001 137.1062,-72 127.1061,-68.5001 127.1062,-75.5001"/>
</g>
<!-- p0x55d923795130 -->
<g id="node4" class="node">
<title>p0x55d923795130</title>
<ellipse fill="none" stroke="#000000" cx="50.7198" cy="-18" rx="50.3567" ry="18"/>
<text text-anchor="middle" x="50.7198" y="-13.8" font-family="Times,serif" font-size="14.00" fill="#000000">allocate_c</text>
</g>
<!-- p0x55d923795130&#45;&gt;p0x55d923795240 -->
<g id="edge3" class="edge">
<title>p0x55d923795130-&gt;p0x55d923795240</title>
<path fill="none" stroke="#000000" d="M82.5397,-32.0469C96.3746,-38.1543 112.8345,-45.4205 127.8997,-52.071"/>
<polygon fill="#000000" stroke="#000000" points="126.5019,-55.2798 137.0637,-56.1165 129.3289,-48.876 126.5019,-55.2798"/>
</g>
</g>
</svg>