<?xml version="1.0" encoding="UTF-8" standalone="no"?>
<!DOCTYPE svg PUBLIC "-//W3C//DTD SVG 1.1//EN"
 "http://www.w3.org/Graphics/SVG/1.1/DTD/svg11.dtd">
<!-- Generated by graphviz version 2.40.1 (20161225.0304)
 -->
<!-- Title: Taskflow Pages: 1 -->
<svg width="428pt" height="229pt"
 viewBox="0.00 0.00 427.80 229.00" xmlns="http://www.w3.org/2000/svg" xmlns:xlink="http://www.w3.org/1999/xlink">
<g id="graph0" class="graph" transform="scale(1 1) rotate(0) translate(4 225)">
<title>Taskflow</title>
<polygon fill="#ffffff" stroke="transparent" points="-4,4 -4,-225 423.7973,-225 423.7973,4 -4,4"/>
<g id="clust1" class="cluster">
<title>cluster_p0x55b2191178a8</title>
<polygon fill="none" stroke="#a020f0" points="8,-46 8,-177 411.7973,-177 411.7973,-46 8,-46"/>
<text text-anchor="middle" x="209.8987" y="-160.4" font-family="Times,serif" font-size="14.00" fill="#000000">cudaFlow: saxpy</text>
</g>
<!-- p0x55b219117698 -->
<g id="node1" class="node">
<title>p0x55b219117698</title>
<ellipse fill="none" stroke="#000000" cx="263.0775" cy="-203" rx="50.9405" ry="18"/>
<text text-anchor="middle" x="263.0775" y="-198.8" font-family="Times,serif" font-size="14.00" fill="#000000">allocate_x</text>
</g>
<!-- p0x55b2191178a8 -->
<g id="node2" class="node">
<title>p0x55b2191178a8</title>
<polygon fill="#00ffff" stroke="#000000" points="403.7973,-117 400.7973,-121 379.7973,-121 376.7973,-117 349.7973,-117 349.7973,-81 403.7973,-81 403.7973,-117"/>
<text text-anchor="middle" x="376.7973" y="-94.8" font-family="Times,serif" font-size="14.00" fill="#000000">saxpy</text>
</g>
<!-- p0x55b219117698&#45;&gt;p0x55b2191178a8 -->
<g id="edge1" class="edge">
<title>p0x55b219117698&#45;&gt;p0x55b2191178a8</title>
<path fill="none" stroke="#000000" d="M299.0247,-190.1549C304.2313,-187.5293 309.3323,-184.4831 313.7973,-181 333.2042,-165.8611 349.8937,-143.4185 361.2102,-125.8374"/>
<polygon fill="#000000" stroke="#000000" points="364.3049,-127.4891 366.6242,-117.1512 358.3644,-123.7864 364.3049,-127.4891"/>
</g>
<!-- p0x55b2191177a0 -->
<g id="node3" class="node">
<title>p0x55b2191177a0</title>
<ellipse fill="none" stroke="#000000" cx="263.0775" cy="-18" rx="50.9405" ry="18"/>
<text text-anchor="middle" x="263.0775" y="-13.8" font-family="Times,serif" font-size="14.00" fill="#000000">allocate_y</text>
</g>
<!-- p0x55b2191177a0&#45;&gt;p0x55b2191178a8 -->
<g id="edge2" class="edge">
<title>p0x55b2191177a0&#45;&gt;p0x55b2191178a8</title>
<path fill="none" stroke="#000000" d="M296.0492,-31.8682C302.1271,-34.9041 308.2882,-38.3216 313.7973,-42 327.4518,-51.1169 341.143,-63.0821 352.2574,-73.6949"/>
<polygon fill="#000000" stroke="#000000" points="349.908,-76.2927 359.5081,-80.7746 354.7983,-71.2842 349.908,-76.2927"/>
</g>
<!-- p0x7f2870401a50 -->
<g id="node4" class="node">
<title>p0x7f2870401a50</title>
<ellipse fill="none" stroke="#000000" cx="51.1789" cy="-126" rx="35.3587" ry="18"/>
<text text-anchor="middle" x="51.1789" y="-121.8" font-family="Times,serif" font-size="14.00" fill="#000000">h2d_x</text>
</g>
<!-- p0x7f2870402bc0 -->
<g id="node5" class="node">
<title>p0x7f2870402bc0</title>
<polygon fill="#000000" stroke="#ffffff" points="176.3577,-117 126.3577,-117 122.3577,-113 122.3577,-81 172.3577,-81 176.3577,-85 176.3577,-117"/>
<polyline fill="none" stroke="#ffffff" points="172.3577,-113 122.3577,-113 "/>
<polyline fill="none" stroke="#ffffff" points="172.3577,-113 172.3577,-81 "/>
<polyline fill="none" stroke="#ffffff" points="172.3577,-113 176.3577,-117 "/>
<text text-anchor="middle" x="149.3577" y="-94.8" font-family="Times,serif" font-size="14.00" fill="#ffffff">saxpy</text>
</g>
<!-- p0x7f2870401a50&#45;&gt;p0x7f2870402bc0 -->
<g id="edge3" class="edge">
<title>p0x7f2870401a50&#45;&gt;p0x7f2870402bc0</title>
<path fill="none" stroke="#000000" d="M82.2433,-117.457C91.8498,-114.8152 102.5258,-111.8792 112.4853,-109.1402"/>
<polygon fill="#000000" stroke="#000000" points="113.4259,-112.5116 122.1398,-106.4851 111.5697,-105.7621 113.4259,-112.5116"/>
</g>
<!-- p0x7f2870402310 -->
<g id="node7" class="node">
<title>p0x7f2870402310</title>
<ellipse fill="none" stroke="#000000" cx="263.0775" cy="-72" rx="35.3587" ry="18"/>
<text text-anchor="middle" x="263.0775" y="-67.8" font-family="Times,serif" font-size="14.00" fill="#000000">d2h_x</text>
</g>
<!-- p0x7f2870402bc0&#45;&gt;p0x7f2870402310 -->
<g id="edge7" class="edge">
<title>p0x7f2870402bc0&#45;&gt;p0x7f2870402310</title>
<path fill="none" stroke="#000000" d="M176.5965,-92.5328C189.8368,-89.3892 206.0502,-85.5398 220.8458,-82.0269"/>
<polygon fill="#000000" stroke="#000000" points="221.8874,-85.377 230.8084,-79.6615 220.2704,-78.5663 221.8874,-85.377"/>
</g>
<!-- p0x7f2870402780 -->
<g id="node8" class="node">
<title>p0x7f2870402780</title>
<ellipse fill="none" stroke="#000000" cx="263.0775" cy="-126" rx="35.3587" ry="18"/>
<text text-anchor="middle" x="263.0775" y="-121.8" font-family="Times,serif" font-size="14.00" fill="#000000">d2h_y</text>
</g>
<!-- p0x7f2870402bc0&#45;&gt;p0x7f2870402780 -->
<g id="edge8" class="edge">
<title>p0x7f2870402bc0&#45;&gt;p0x7f2870402780</title>
<path fill="none" stroke="#000000" d="M176.5965,-105.4672C189.8368,-108.6108 206.0502,-112.4602 220.8458,-115.9731"/>
<polygon fill="#000000" stroke="#000000" points="220.2704,-119.4337 230.8084,-118.3385 221.8874,-112.623 220.2704,-119.4337"/>
</g>
<!-- p0x7f2870401eb0 -->
<g id="node6" class="node">
<title>p0x7f2870401eb0</title>
<ellipse fill="none" stroke="#000000" cx="51.1789" cy="-72" rx="35.3587" ry="18"/>
<text text-anchor="middle" x="51.1789" y="-67.8" font-family="Times,serif" font-size="14.00" fill="#000000">h2d_y</text>
</g>
<!-- p0x7f2870401eb0&#45;&gt;p0x7f2870402bc0 -->
<g id="edge4" class="edge">
<title>p0x7f2870401eb0&#45;&gt;p0x7f2870402bc0</title>
<path fill="none" stroke="#000000" d="M82.2433,-80.543C91.8498,-83.1848 102.5258,-86.1208 112.4853,-88.8598"/>
<polygon fill="#000000" stroke="#000000" points="111.5697,-92.2379 122.1398,-91.5149 113.4259,-85.4884 111.5697,-92.2379"/>
</g>
<!-- p0x7f2870402310&#45;&gt;p0x55b2191178a8 -->
<g id="edge5" class="edge">
<title>p0x7f2870402310&#45;&gt;p0x55b2191178a8</title>
<path fill="none" stroke="#000000" d="M295.0575,-79.5929C308.9077,-82.8813 325.2112,-86.7521 339.5992,-90.1682"/>
<polygon fill="#000000" stroke="#000000" points="339.1368,-93.6557 349.6749,-92.5604 340.7539,-86.845 339.1368,-93.6557"/>
</g>
<!-- p0x7f2870402780&#45;&gt;p0x55b2191178a8 -->
<g id="edge6" class="edge">
<title>p0x7f2870402780&#45;&gt;p0x55b2191178a8</title>
<path fill="none" stroke="#000000" d="M295.0575,-118.4071C308.9077,-115.1187 325.2112,-111.2479 339.5992,-107.8318"/>
<polygon fill="#000000" stroke="#000000" points="340.7539,-111.155 349.6749,-105.4396 339.1368,-104.3443 340.7539,-111.155"/>
</g>
</g>
</svg>
