<svg xmlns="http://www.w3.org/2000/svg" xml:space="preserve" width="261" height="306" viewBox="0 0 261 306"><g fill="#fff"><path d="M166.5 238.5v45l-36 18v-45z"/><path d="m166.5 238.5-36 18-36-18 36-18z"/><path d="M130.5 256.5v45l-36-18v-45z"/></g><g fill="none" stroke="#1a171b" stroke-linecap="round"><path d="m130.5 256.5 36-18M130.5 256.5v45M130.5 256.5l-36-18M94.5 238.5l36-18M130.5 220.5l36 18M94.5 238.5v45M166.5 238.5v45M130.5 301.5l-36-18M130.5 301.5l36-18"/></g><path fill="none" stroke="#e1071d" stroke-linecap="round" stroke-width="4" d="M130.5 238.5v-45"/><path fill="#e1071d" d="m130.5 179.379 8.13 19.899-8.13-4.722-8.129 4.722z"/><g fill="#fff"><path d="M76.5 85.5v45l-36 18v-45z"/><path d="m76.5 85.5-36 18-36-18 36-18z"/><path d="M40.5 103.5v45l-36-18v-45z"/></g><g fill="none" stroke="#1a171b" stroke-linecap="round"><path d="m40.5 103.5 36-18M40.5 103.5v45M40.5 103.5l-36-18M4.5 85.5l36-18M40.5 67.5l36 18M4.5 85.5v45M76.5 85.5v45M40.5 148.5l-36-18M40.5 148.5l36-18"/></g><path fill="none" stroke="#e1071d" stroke-linecap="round" stroke-width="4" d="m58.5 117 36 18"/><path fill="#e1071d" d="m107.13 141.315-21.434-1.627 7.86-5.16-.589-9.382z"/><g fill="#fff"><path d="M256.5 85.5v45l-36 18v-45z"/><path d="m256.5 85.5-36 18-36-18 36-18z"/><path d="M220.5 103.5v45l-36-18v-45z"/></g><g fill="none" stroke="#1a171b" stroke-linecap="round"><path d="m220.5 103.5 36-18M220.5 103.5v45M220.5 103.5l-36-18M184.5 85.5l36-18M220.5 67.5l36 18M184.5 85.5v45M256.5 85.5v45M220.5 148.5l-36-18M220.5 148.5l36-18"/></g><path fill="none" stroke="#e1071d" stroke-linecap="round" stroke-width="4" d="m202.5 117-36 18"/><path fill="#e1071d" d="m153.87 141.315 14.162-16.17-.588 9.383 7.86 5.159z"/><g fill="#fff"><path d="M166.5 130.5v45l-36 18v-45z"/><path d="m166.5 130.5-36 18-36-18 36-18z"/><path d="M130.5 148.5v45l-36-18v-45z"/></g><g fill="none" stroke="#1a171b" stroke-linecap="round"><path d="m130.5 148.5 36-18M130.5 148.5v45M130.5 148.5l-36-18M94.5 130.5l36-18M130.5 112.5l36 18M94.5 130.5v45M166.5 130.5v45M130.5 193.5l-36-18M130.5 193.5l36-18"/></g><path fill="none" stroke="#e1071d" stroke-linecap="round" stroke-width="4" d="m67.5 184.5 36-18"/><path fill="#e1071d" d="m116.13 160.185-14.163 16.17.589-9.383-7.86-5.159z"/><g fill="#fff"><path d="M76.5 175.5v45l-36 18v-45z"/><path d="m76.5 175.5-36 18-36-18 36-18z"/><path d="M40.5 193.5v45l-36-18v-45z"/></g><g fill="none" stroke="#1a171b" stroke-linecap="round"><path d="m40.5 193.5 36-18M40.5 193.5v45M40.5 193.5l-36-18M4.5 175.5l36-18M40.5 157.5l36 18M4.5 175.5v45M76.5 175.5v45M40.5 238.5l-36-18M40.5 238.5l36-18"/></g><path fill="none" stroke="#e1071d" stroke-linecap="round" stroke-width="4" d="m193.5 184.5-36-18"/><path fill="#e1071d" d="m144.87 160.185 21.434 1.628-7.86 5.159.589 9.382z"/><g fill="#fff"><path d="M256.5 175.5v45l-36 18v-45z"/><path d="m256.5 175.5-36 18-36-18 36-18z"/><path d="M220.5 193.5v45l-36-18v-45z"/></g><g fill="none" stroke="#1a171b" stroke-linecap="round"><path d="m220.5 193.5 36-18M220.5 193.5v45M220.5 193.5l-36-18M184.5 175.5l36-18M220.5 157.5l36 18M184.5 175.5v45M256.5 175.5v45M220.5 238.5l-36-18M220.5 238.5l36-18"/></g><path fill="none" stroke="#e1071d" stroke-linecap="round" stroke-width="4" d="M130.5 72v45"/><path fill="#e1071d" d="m130.5 131.121-8.13-19.899 8.13 4.722 8.129-4.722z"/><g fill="#fff"><path d="M166.5 22.5v45l-36 18v-45z"/><path d="m166.5 22.5-36 18-36-18 36-18z"/><path d="M130.5 40.5v45l-36-18v-45z"/></g><g fill="none" stroke="#1a171b" stroke-linecap="round"><path d="m130.5 40.5 36-18M130.5 40.5v45M130.5 40.5l-36-18M94.5 22.5l36-18M130.5 4.5l36 18M94.5 22.5v45M166.5 22.5v45M130.5 85.5l-36-18M130.5 85.5l36-18"/></g></svg>