<?xml version="1.0" encoding="UTF-8" standalone="no"?><!DOCTYPE svg PUBLIC "-//W3C//DTD SVG 1.1//EN" "http://www.w3.org/Graphics/SVG/1.1/DTD/svg11.dtd"><!-- Generated by graphviz version 2.40.1 (20161225.0304)
 --><!-- Title: Taskflow Pages: 1 --><svg xmlns="http://www.w3.org/2000/svg" xmlns:xlink="http://www.w3.org/1999/xlink" width="393pt" height="144pt" viewBox="0.00 0.00 393.08 144.00">
<g id="graph0" class="graph" transform="scale(1 1) rotate(0) translate(4 140)">
<title>Taskflow</title>
<polygon fill="#ffffff" stroke="transparent" points="-4,4 -4,-140 389.0815,-140 389.0815,4 -4,4"/>
<!-- Task1 -->
<g id="node1" class="node">
<title>Task1</title>
<ellipse fill="none" stroke="#000000" cx="34.6352" cy="-64" rx="34.7709" ry="18"/>
<text text-anchor="middle" x="34.6352" y="-59.8" font-family="Times,serif" font-size="14.00" fill="#000000">Task1</text>
</g>
<!-- Task2 -->
<g id="node2" class="node">
<title>Task2</title>
<ellipse fill="none" stroke="#000000" cx="139.9056" cy="-118" rx="34.7709" ry="18"/>
<text text-anchor="middle" x="139.9056" y="-113.8" font-family="Times,serif" font-size="14.00" fill="#000000">Task2</text>
</g>
<!-- Task1&#45;&gt;Task2 -->
<g id="edge1" class="edge">
<title>Task1-&gt;Task2</title>
<path fill="none" stroke="#000000" d="M59.3164,-76.6606C73.2064,-83.7857 90.7551,-92.7876 105.928,-100.5707"/>
<polygon fill="#000000" stroke="#000000" points="104.5191,-103.7816 115.0142,-105.2316 107.714,-97.5532 104.5191,-103.7816"/>
</g>
<!-- Task3 -->
<g id="node3" class="node">
<title>Task3</title>
<ellipse fill="none" stroke="#000000" cx="139.9056" cy="-64" rx="34.7709" ry="18"/>
<text text-anchor="middle" x="139.9056" y="-59.8" font-family="Times,serif" font-size="14.00" fill="#000000">Task3</text>
</g>
<!-- Task1&#45;&gt;Task3 -->
<g id="edge2" class="edge">
<title>Task1-&gt;Task3</title>
<path fill="none" stroke="#000000" d="M69.3964,-64C77.5712,-64 86.3987,-64 94.9498,-64"/>
<polygon fill="#000000" stroke="#000000" points="95.1809,-67.5001 105.1808,-64 95.1808,-60.5001 95.1809,-67.5001"/>
</g>
<!-- Task4 -->
<g id="node4" class="node">
<title>Task4</title>
<ellipse fill="none" stroke="#000000" cx="245.1759" cy="-18" rx="34.7709" ry="18"/>
<text text-anchor="middle" x="245.1759" y="-13.8" font-family="Times,serif" font-size="14.00" fill="#000000">Task4</text>
</g>
<!-- Task1&#45;&gt;Task4 -->
<g id="edge3" class="edge">
<title>Task1-&gt;Task4</title>
<path fill="none" stroke="#000000" d="M60.9982,-52.2629C74.0806,-46.8693 90.2606,-40.8333 105.2704,-37 136.6489,-28.9863 172.9035,-24.1835 200.6432,-21.4119"/>
<polygon fill="#000000" stroke="#000000" points="201.2047,-24.8744 210.8299,-20.4466 200.5442,-17.9056 201.2047,-24.8744"/>
</g>
<!-- Task5 -->
<g id="node5" class="node">
<title>Task5</title>
<ellipse fill="none" stroke="#000000" cx="245.1759" cy="-72" rx="34.7709" ry="18"/>
<text text-anchor="middle" x="245.1759" y="-67.8" font-family="Times,serif" font-size="14.00" fill="#000000">Task5</text>
</g>
<!-- Task2&#45;&gt;Task5 -->
<g id="edge4" class="edge">
<title>Task2-&gt;Task5</title>
<path fill="none" stroke="#000000" d="M166.4697,-106.3923C179.4357,-100.7265 195.2256,-93.8268 209.2497,-87.6987"/>
<polygon fill="#000000" stroke="#000000" points="210.8584,-90.8154 218.6203,-83.604 208.0554,-84.401 210.8584,-90.8154"/>
</g>
<!-- Task3&#45;&gt;Task5 -->
<g id="edge5" class="edge">
<title>Task3-&gt;Task5</title>
<path fill="none" stroke="#000000" d="M174.375,-66.6195C182.7362,-67.2549 191.7944,-67.9433 200.5498,-68.6087"/>
<polygon fill="#000000" stroke="#000000" points="200.3925,-72.1067 210.629,-69.3746 200.923,-65.1268 200.3925,-72.1067"/>
</g>
<!-- Task6 -->
<g id="node6" class="node">
<title>Task6</title>
<ellipse fill="none" stroke="#000000" cx="350.4463" cy="-45" rx="34.7709" ry="18"/>
<text text-anchor="middle" x="350.4463" y="-40.8" font-family="Times,serif" font-size="14.00" fill="#000000">Task6</text>
</g>
<!-- Task4&#45;&gt;Task6 -->
<g id="edge6" class="edge">
<title>Task4-&gt;Task6</title>
<path fill="none" stroke="#000000" d="M276.4755,-26.0278C286.7768,-28.6699 298.3905,-31.6486 309.3101,-34.4493"/>
<polygon fill="#000000" stroke="#000000" points="308.5295,-37.8623 319.0855,-36.9565 310.2686,-31.0818 308.5295,-37.8623"/>
</g>
<!-- Task5&#45;&gt;Task6 -->
<g id="edge7" class="edge">
<title>Task5-&gt;Task6</title>
<path fill="none" stroke="#000000" d="M276.4755,-63.9722C286.7768,-61.3301 298.3905,-58.3514 309.3101,-55.5507"/>
<polygon fill="#000000" stroke="#000000" points="310.2686,-58.9182 319.0855,-53.0435 308.5295,-52.1377 310.2686,-58.9182"/>
</g>
</g>
</svg>