<?xml version="1.0" encoding="UTF-8" standalone="no"?><!DOCTYPE svg PUBLIC "-//W3C//DTD SVG 1.1//EN" "http://www.w3.org/Graphics/SVG/1.1/DTD/svg11.dtd"><!-- Generated by graphviz version 2.40.1 (20161225.0304)
 --><!-- Title: Topology Pages: 1 --><svg xmlns="http://www.w3.org/2000/svg" xmlns:xlink="http://www.w3.org/1999/xlink" width="231pt" height="404pt" viewBox="0.00 0.00 231.00 404.00">
<g id="graph0" class="graph" transform="scale(1 1) rotate(0) translate(4 400)">
<title>Topology</title>
<polygon fill="#ffffff" stroke="transparent" points="-4,4 -4,-400 227,-400 227,4 -4,4"/>
<!-- S -->
<g id="node1" class="node">
<title>S</title>
<ellipse fill="none" stroke="#000000" cx="124" cy="-378" rx="27" ry="18"/>
<text text-anchor="middle" x="124" y="-373.8" font-family="Times,serif" font-size="14.00" fill="#000000">S</text>
</g>
<!-- a0 -->
<g id="node2" class="node">
<title>a0</title>
<ellipse fill="none" stroke="#000000" cx="124" cy="-306" rx="27" ry="18"/>
<text text-anchor="middle" x="124" y="-301.8" font-family="Times,serif" font-size="14.00" fill="#000000">a0</text>
</g>
<!-- S&#45;&gt;a0 -->
<g id="edge1" class="edge">
<title>S-&gt;a0</title>
<path fill="none" stroke="#000000" d="M124,-359.8314C124,-352.131 124,-342.9743 124,-334.4166"/>
<polygon fill="#000000" stroke="#000000" points="127.5001,-334.4132 124,-324.4133 120.5001,-334.4133 127.5001,-334.4132"/>
</g>
<!-- b0 -->
<g id="node3" class="node">
<title>b0</title>
<ellipse fill="none" stroke="#000000" cx="196" cy="-306" rx="27" ry="18"/>
<text text-anchor="middle" x="196" y="-301.8" font-family="Times,serif" font-size="14.00" fill="#000000">b0</text>
</g>
<!-- S&#45;&gt;b0 -->
<g id="edge2" class="edge">
<title>S-&gt;b0</title>
<path fill="none" stroke="#000000" d="M139.2693,-362.7307C149.197,-352.803 162.3153,-339.6847 173.4363,-328.5637"/>
<polygon fill="#000000" stroke="#000000" points="176.1564,-330.7933 180.7527,-321.2473 171.2067,-325.8436 176.1564,-330.7933"/>
</g>
<!-- a1 -->
<g id="node4" class="node">
<title>a1</title>
<ellipse fill="none" stroke="#000000" cx="73" cy="-234" rx="27" ry="18"/>
<text text-anchor="middle" x="73" y="-229.8" font-family="Times,serif" font-size="14.00" fill="#000000">a1</text>
</g>
<!-- S&#45;&gt;a1 -->
<g id="edge3" class="edge">
<title>S-&gt;a1</title>
<path fill="none" stroke="#000000" d="M110.6931,-362.0001C102.8697,-351.7555 93.4693,-337.8307 88,-324 80.1601,-304.1747 76.4177,-280.3199 74.6313,-262.1518"/>
<polygon fill="#000000" stroke="#000000" points="78.1188,-261.8551 73.7893,-252.1853 71.1436,-262.4445 78.1188,-261.8551"/>
</g>
<!-- a0&#45;&gt;a1 -->
<g id="edge4" class="edge">
<title>a0-&gt;a1</title>
<path fill="none" stroke="#000000" d="M112.4273,-289.6621C106.0628,-280.6768 98.0285,-269.3343 90.8756,-259.2362"/>
<polygon fill="#000000" stroke="#000000" points="93.5171,-256.9101 84.8808,-250.7729 87.8049,-260.9562 93.5171,-256.9101"/>
</g>
<!-- b2 -->
<g id="node5" class="node">
<title>b2</title>
<ellipse fill="none" stroke="#000000" cx="137" cy="-162" rx="27" ry="18"/>
<text text-anchor="middle" x="137" y="-157.8" font-family="Times,serif" font-size="14.00" fill="#000000">b2</text>
</g>
<!-- a0&#45;&gt;b2 -->
<g id="edge5" class="edge">
<title>a0-&gt;b2</title>
<path fill="none" stroke="#000000" d="M125.6465,-287.7623C127.8638,-263.201 131.8318,-219.2474 134.4403,-190.3541"/>
<polygon fill="#000000" stroke="#000000" points="137.9535,-190.3638 135.3669,-180.0896 130.9819,-189.7344 137.9535,-190.3638"/>
</g>
<!-- b1 -->
<g id="node9" class="node">
<title>b1</title>
<ellipse fill="none" stroke="#000000" cx="192" cy="-234" rx="27" ry="18"/>
<text text-anchor="middle" x="192" y="-229.8" font-family="Times,serif" font-size="14.00" fill="#000000">b1</text>
</g>
<!-- b0&#45;&gt;b1 -->
<g id="edge9" class="edge">
<title>b0-&gt;b1</title>
<path fill="none" stroke="#000000" d="M194.9906,-287.8314C194.5628,-280.131 194.0541,-270.9743 193.5787,-262.4166"/>
<polygon fill="#000000" stroke="#000000" points="197.0724,-262.2037 193.023,-252.4133 190.0831,-262.592 197.0724,-262.2037"/>
</g>
<!-- a2 -->
<g id="node6" class="node">
<title>a2</title>
<ellipse fill="none" stroke="#000000" cx="27" cy="-162" rx="27" ry="18"/>
<text text-anchor="middle" x="27" y="-157.8" font-family="Times,serif" font-size="14.00" fill="#000000">a2</text>
</g>
<!-- a1&#45;&gt;a2 -->
<g id="edge6" class="edge">
<title>a1-&gt;a2</title>
<path fill="none" stroke="#000000" d="M62.3311,-217.3008C56.6414,-208.3952 49.5223,-197.2524 43.1684,-187.307"/>
<polygon fill="#000000" stroke="#000000" points="45.9445,-185.1513 37.6111,-178.6087 40.0456,-188.92 45.9445,-185.1513"/>
</g>
<!-- b3 -->
<g id="node7" class="node">
<title>b3</title>
<ellipse fill="none" stroke="#000000" cx="137" cy="-90" rx="27" ry="18"/>
<text text-anchor="middle" x="137" y="-85.8" font-family="Times,serif" font-size="14.00" fill="#000000">b3</text>
</g>
<!-- a1&#45;&gt;b3 -->
<g id="edge7" class="edge">
<title>a1-&gt;b3</title>
<path fill="none" stroke="#000000" d="M76.9393,-216.1871C81.4107,-197.614 89.5934,-167.9297 101,-144 105.7997,-133.9308 112.271,-123.5737 118.4032,-114.6572"/>
<polygon fill="#000000" stroke="#000000" points="121.4121,-116.465 124.3479,-106.285 115.7046,-112.4124 121.4121,-116.465"/>
</g>
<!-- b2&#45;&gt;b3 -->
<g id="edge11" class="edge">
<title>b2-&gt;b3</title>
<path fill="none" stroke="#000000" d="M137,-143.8314C137,-136.131 137,-126.9743 137,-118.4166"/>
<polygon fill="#000000" stroke="#000000" points="140.5001,-118.4132 137,-108.4133 133.5001,-118.4133 140.5001,-118.4132"/>
</g>
<!-- a3 -->
<g id="node8" class="node">
<title>a3</title>
<ellipse fill="none" stroke="#000000" cx="65" cy="-90" rx="27" ry="18"/>
<text text-anchor="middle" x="65" y="-85.8" font-family="Times,serif" font-size="14.00" fill="#000000">a3</text>
</g>
<!-- b2&#45;&gt;a3 -->
<g id="edge12" class="edge">
<title>b2-&gt;a3</title>
<path fill="none" stroke="#000000" d="M121.7307,-146.7307C111.803,-136.803 98.6847,-123.6847 87.5637,-112.5637"/>
<polygon fill="#000000" stroke="#000000" points="89.7933,-109.8436 80.2473,-105.2473 84.8436,-114.7933 89.7933,-109.8436"/>
</g>
<!-- a2&#45;&gt;a3 -->
<g id="edge8" class="edge">
<title>a2-&gt;a3</title>
<path fill="none" stroke="#000000" d="M36.0055,-144.937C40.4828,-136.4537 45.9952,-126.0092 51.007,-116.513"/>
<polygon fill="#000000" stroke="#000000" points="54.2229,-117.9182 55.7952,-107.4407 48.0322,-114.6509 54.2229,-117.9182"/>
</g>
<!-- T -->
<g id="node10" class="node">
<title>T</title>
<ellipse fill="none" stroke="#000000" cx="137" cy="-18" rx="27" ry="18"/>
<text text-anchor="middle" x="137" y="-13.8" font-family="Times,serif" font-size="14.00" fill="#000000">T</text>
</g>
<!-- b3&#45;&gt;T -->
<g id="edge15" class="edge">
<title>b3-&gt;T</title>
<path fill="none" stroke="#000000" d="M137,-71.8314C137,-64.131 137,-54.9743 137,-46.4166"/>
<polygon fill="#000000" stroke="#000000" points="140.5001,-46.4132 137,-36.4133 133.5001,-46.4133 140.5001,-46.4132"/>
</g>
<!-- a3&#45;&gt;T -->
<g id="edge13" class="edge">
<title>a3-&gt;T</title>
<path fill="none" stroke="#000000" d="M80.2693,-74.7307C90.197,-64.803 103.3153,-51.6847 114.4363,-40.5637"/>
<polygon fill="#000000" stroke="#000000" points="117.1564,-42.7933 121.7527,-33.2473 112.2067,-37.8436 117.1564,-42.7933"/>
</g>
<!-- b1&#45;&gt;b2 -->
<g id="edge10" class="edge">
<title>b1-&gt;b2</title>
<path fill="none" stroke="#000000" d="M179.5196,-217.6621C172.4876,-208.4564 163.5653,-196.7764 155.7117,-186.4953"/>
<polygon fill="#000000" stroke="#000000" points="158.2828,-184.0953 149.431,-178.2733 152.72,-188.3446 158.2828,-184.0953"/>
</g>
<!-- b1&#45;&gt;T -->
<g id="edge14" class="edge">
<title>b1-&gt;T</title>
<path fill="none" stroke="#000000" d="M192.5863,-215.8694C192.99,-185.2324 191.2761,-121.7005 173,-72 169.1502,-61.5307 162.8941,-51.083 156.6686,-42.2059"/>
<polygon fill="#000000" stroke="#000000" points="159.2989,-39.8758 150.5436,-33.9096 153.6674,-44.0335 159.2989,-39.8758"/>
</g>
</g>
</svg>