<?xml version="1.0" encoding="UTF-8" standalone="no"?><!DOCTYPE svg PUBLIC "-//W3C//DTD SVG 1.1//EN" "http://www.w3.org/Graphics/SVG/1.1/DTD/svg11.dtd"><!-- Generated by graphviz version 2.40.1 (20161225.0304)
 --><!-- Title: Taskflow Pages: 1 --><svg xmlns="http://www.w3.org/2000/svg" xmlns:xlink="http://www.w3.org/1999/xlink" width="332pt" height="245pt" viewBox="0.00 0.00 332.00 244.80">
<g id="graph0" class="graph" transform="scale(1 1) rotate(0) translate(4 240.8)">
<title>Taskflow</title>
<polygon fill="#ffffff" stroke="transparent" points="-4,4 -4,-240.8 328,-240.8 328,4 -4,4"/>
<g id="clust1" class="cluster">
<title>cluster_p0x7ffee0c37970</title>
<polygon fill="none" stroke="#000000" points="8,-8 8,-228.8 166,-228.8 166,-8 8,-8"/>
<text text-anchor="middle" x="87" y="-212.2" font-family="Times,serif" font-size="14.00" fill="#000000">Taskflow: f2</text>
</g>
<g id="clust2" class="cluster">
<title>cluster_p0x7ffee0c378d0</title>
<polygon fill="none" stroke="#000000" points="174,-152 174,-228.8 316,-228.8 316,-152 174,-152"/>
<text text-anchor="middle" x="245" y="-212.2" font-family="Times,serif" font-size="14.00" fill="#000000">Taskflow: f1</text>
</g>
<!-- p0x7f989dc02a50 -->
<g id="node1" class="node">
<title>p0x7f989dc02a50</title>
<ellipse fill="none" stroke="#000000" cx="87" cy="-34" rx="27" ry="18"/>
<text text-anchor="middle" x="87" y="-29.8" font-family="Times,serif" font-size="14.00" fill="#000000">f2C</text>
</g>
<!-- p0x7f989dc02b60 -->
<g id="node2" class="node">
<title>p0x7f989dc02b60</title>
<ellipse fill="none" stroke="#000000" cx="123" cy="-178" rx="27" ry="18"/>
<text text-anchor="middle" x="123" y="-173.8" font-family="Times,serif" font-size="14.00" fill="#000000">f2B</text>
</g>
<!-- p0x7f989dc02d80 -->
<g id="node3" class="node">
<title>p0x7f989dc02d80</title>
<polygon fill="none" stroke="#0000ff" points="158.238,-124 15.762,-124 15.762,-88 158.238,-88 158.238,-124"/>
<text text-anchor="middle" x="87" y="-101.8" font-family="Times,serif" font-size="14.00" fill="#000000">module [Taskflow: f1]</text>
</g>
<!-- p0x7f989dc02b60&#45;&gt;p0x7f989dc02d80 -->
<g id="edge1" class="edge">
<title>p0x7f989dc02b60-&gt;p0x7f989dc02d80</title>
<path fill="none" stroke="#000000" d="M114.2854,-160.5708C110.1772,-152.3544 105.1804,-142.3608 100.5911,-133.1821"/>
<polygon fill="#000000" stroke="#000000" points="103.613,-131.3996 96.0103,-124.0206 97.352,-134.5301 103.613,-131.3996"/>
</g>
<!-- p0x7f989dc02d80&#45;&gt;p0x7f989dc02a50 -->
<g id="edge3" class="edge">
<title>p0x7f989dc02d80-&gt;p0x7f989dc02a50</title>
<path fill="none" stroke="#000000" d="M87,-87.8314C87,-80.131 87,-70.9743 87,-62.4166"/>
<polygon fill="#000000" stroke="#000000" points="90.5001,-62.4132 87,-52.4133 83.5001,-62.4133 90.5001,-62.4132"/>
</g>
<!-- p0x7f989dc02c70 -->
<g id="node4" class="node">
<title>p0x7f989dc02c70</title>
<ellipse fill="none" stroke="#000000" cx="51" cy="-178" rx="27" ry="18"/>
<text text-anchor="middle" x="51" y="-173.8" font-family="Times,serif" font-size="14.00" fill="#000000">f2A</text>
</g>
<!-- p0x7f989dc02c70&#45;&gt;p0x7f989dc02d80 -->
<g id="edge2" class="edge">
<title>p0x7f989dc02c70-&gt;p0x7f989dc02d80</title>
<path fill="none" stroke="#000000" d="M59.7146,-160.5708C63.8228,-152.3544 68.8196,-142.3608 73.4089,-133.1821"/>
<polygon fill="#000000" stroke="#000000" points="76.648,-134.5301 77.9897,-124.0206 70.387,-131.3996 76.648,-134.5301"/>
</g>
<!-- p0x7f989dc02830 -->
<g id="node5" class="node">
<title>p0x7f989dc02830</title>
<ellipse fill="none" stroke="#000000" cx="281" cy="-178" rx="27" ry="18"/>
<text text-anchor="middle" x="281" y="-173.8" font-family="Times,serif" font-size="14.00" fill="#000000">f1B</text>
</g>
<!-- p0x7f989dc02940 -->
<g id="node6" class="node">
<title>p0x7f989dc02940</title>
<ellipse fill="none" stroke="#000000" cx="209" cy="-178" rx="27" ry="18"/>
<text text-anchor="middle" x="209" y="-173.8" font-family="Times,serif" font-size="14.00" fill="#000000">f1A</text>
</g>
</g>
</svg>