<?xml version="1.0" encoding="UTF-8" standalone="no"?><!DOCTYPE svg PUBLIC "-//W3C//DTD SVG 1.1//EN" "http://www.w3.org/Graphics/SVG/1.1/DTD/svg11.dtd"><!-- Generated by graphviz version 2.40.1 (20161225.0304)
 --><!-- Title: Taskflow Pages: 1 --><svg xmlns="http://www.w3.org/2000/svg" xmlns:xlink="http://www.w3.org/1999/xlink" width="117pt" height="206pt" viewBox="0.00 0.00 117.31 205.80">
<g id="graph0" class="graph" transform="scale(1 1) rotate(0) translate(4 201.8)">
<title>Taskflow</title>
<polygon fill="#ffffff" stroke="transparent" points="-4,4 -4,-201.8 113.3116,-201.8 113.3116,4 -4,4"/>
<!-- cond -->
<g id="node1" class="node">
<title>cond</title>
<polygon fill="#7fffd4" stroke="#000000" points="42.1558,-124.8 -.1564,-106.8 42.1558,-88.8 84.4679,-106.8 42.1558,-124.8"/>
<text text-anchor="middle" x="42.1558" y="-102.6" font-family="Times,serif" font-size="14.00" fill="#000000">cond</text>
</g>
<!-- cond&#45;&gt;cond -->
<g id="edge2" class="edge">
<title>cond-&gt;cond</title>
<path fill="none" stroke="#000000" stroke-dasharray="5,2" d="M69.6891,-113.1013C86.4496,-114.5606 102.3116,-112.4602 102.3116,-106.8 102.3116,-102.3338 92.4356,-100.0839 80.035,-100.0504"/>
<polygon fill="#000000" stroke="#000000" points="79.5282,-96.569 69.6891,-100.4987 79.8313,-103.5624 79.5282,-96.569"/>
<text text-anchor="middle" x="105.8116" y="-102.6" font-family="Times,serif" font-size="14.00" fill="#000000">0</text>
</g>
<!-- stop -->
<g id="node3" class="node">
<title>stop</title>
<ellipse fill="none" stroke="#000000" cx="42.1558" cy="-18" rx="27.2661" ry="18"/>
<text text-anchor="middle" x="42.1558" y="-13.8" font-family="Times,serif" font-size="14.00" fill="#000000">stop</text>
</g>
<!-- cond&#45;&gt;stop -->
<g id="edge3" class="edge">
<title>cond-&gt;stop</title>
<path fill="none" stroke="#000000" stroke-dasharray="5,2" d="M42.1558,-88.4006C42.1558,-76.2949 42.1558,-60.2076 42.1558,-46.4674"/>
<polygon fill="#000000" stroke="#000000" points="45.6559,-46.072 42.1558,-36.072 38.6559,-46.0721 45.6559,-46.072"/>
<text text-anchor="middle" x="45.6558" y="-58.2" font-family="Times,serif" font-size="14.00" fill="#000000">1</text>
</g>
<!-- init -->
<g id="node2" class="node">
<title>init</title>
<ellipse fill="none" stroke="#000000" cx="42.1558" cy="-179.8" rx="27" ry="18"/>
<text text-anchor="middle" x="42.1558" y="-175.6" font-family="Times,serif" font-size="14.00" fill="#000000">init</text>
</g>
<!-- init&#45;&gt;cond -->
<g id="edge1" class="edge">
<title>init-&gt;cond</title>
<path fill="none" stroke="#000000" d="M42.1558,-161.7551C42.1558,-153.6828 42.1558,-143.9764 42.1558,-134.9817"/>
<polygon fill="#000000" stroke="#000000" points="45.6559,-134.8903 42.1558,-124.8904 38.6559,-134.8904 45.6559,-134.8903"/>
</g>
</g>
</svg>