<?xml version="1.0" encoding="UTF-8" standalone="no"?>
<!DOCTYPE svg PUBLIC "-//W3C//DTD SVG 1.1//EN"
 "http://www.w3.org/Graphics/SVG/1.1/DTD/svg11.dtd">
<!-- Generated by graphviz version 2.38.0 (20140413.2041)
 -->
<!-- Title: Taskflow Pages: 1 -->
<svg width="920pt" height="273pt"
 viewBox="0.00 0.00 920.00 273.00" xmlns="http://www.w3.org/2000/svg" xmlns:xlink="http://www.w3.org/1999/xlink">
<g id="graph0" class="graph" transform="scale(1 1) rotate(0) translate(4 269)">
<title>Taskflow</title>
<g id="clust1" class="cluster"><title>cluster_1</title>
<polygon fill="none" stroke="black" points="8,-95 8,-257 150,-257 150,-95 8,-95"/>
<text text-anchor="middle" x="79" y="-241.8" font-family="Times,serif" font-size="14.00">error1: no source tasks</text>
</g>
<g id="clust2" class="cluster"><title>cluster_2</title>
<polygon fill="none" stroke="black" points="158,-8 158,-257 300,-257 300,-8 158,-8"/>
<text text-anchor="middle" x="229" y="-241.8" font-family="Times,serif" font-size="14.00">fix1: adds a source</text>
</g>
<g id="clust3" class="cluster"><title>cluster_3</title>
<polygon fill="none" stroke="black" points="308,-95 308,-257 450,-257 450,-95 308,-95"/>
<text text-anchor="middle" x="379" y="-241.8" font-family="Times,serif" font-size="14.00">error2: race on D</text>
</g>
<g id="clust4" class="cluster"><title>cluster_4</title>
<polygon fill="none" stroke="black" points="458,-8 458,-257 682,-257 682,-8 458,-8"/>
<text text-anchor="middle" x="570" y="-241.8" font-family="Times,serif" font-size="14.00">fix2: adds an auxiliary task</text>
</g>
<g id="clust5" class="cluster"><title>cluster_5</title>
<polygon fill="none" stroke="black" points="690,-95 690,-257 904,-257 904,-95 690,-95"/>
<text text-anchor="middle" x="797" y="-241.8" font-family="Times,serif" font-size="14.00">risky: Q may race</text>
</g>
<!-- c1A -->
<g id="node1" class="node"><title>c1A</title>
<polygon fill="aquamarine" stroke="black" points="58,-226 31,-208 58,-190 85,-208 58,-226"/>
<text text-anchor="middle" x="58" y="-204.3" font-family="Times,serif" font-size="14.00">A</text>
</g>
<!-- c1A&#45;&gt;c1A -->
<g id="edge1" class="edge"><title>c1A&#45;&gt;c1A</title>
<path fill="none" stroke="black" stroke-dasharray="5,2" d="M75.0837,-214.768C88.8203,-217.475 103,-215.219 103,-208 103,-202.586 95.0239,-199.964 85.2408,-200.133"/>
<polygon fill="black" stroke="black" points="84.6489,-196.676 75.0837,-201.232 85.4024,-203.636 84.6489,-196.676"/>
<text text-anchor="middle" x="106.5" y="-204.3" font-family="Times,serif" font-size="14.00">0</text>
</g>
<!-- c1B -->
<g id="node2" class="node"><title>c1B</title>
<ellipse fill="none" stroke="black" cx="43" cy="-121" rx="27" ry="18"/>
<text text-anchor="middle" x="43" y="-117.3" font-family="Times,serif" font-size="14.00">B</text>
</g>
<!-- c1A&#45;&gt;c1B -->
<g id="edge2" class="edge"><title>c1A&#45;&gt;c1B</title>
<path fill="none" stroke="black" stroke-dasharray="5,2" d="M55.2488,-191.41C53.1594,-179.57 50.2349,-162.997 47.7674,-149.015"/>
<polygon fill="black" stroke="black" points="51.1757,-148.189 45.991,-138.949 44.2822,-149.405 51.1757,-148.189"/>
<text text-anchor="middle" x="55.5" y="-160.8" font-family="Times,serif" font-size="14.00">1</text>
</g>
<!-- c1X -->
<g id="node3" class="node"><title>c1X</title>
<ellipse fill="none" stroke="black" cx="115" cy="-121" rx="27" ry="18"/>
<text text-anchor="middle" x="115" y="-117.3" font-family="Times,serif" font-size="14.00">X</text>
</g>
<!-- c1A&#45;&gt;c1X -->
<g id="edge3" class="edge"><title>c1A&#45;&gt;c1X</title>
<path fill="none" stroke="black" stroke-dasharray="5,2" d="M65.9256,-195.181C74.3914,-182.557 88.0432,-162.199 98.8013,-146.156"/>
<polygon fill="black" stroke="black" points="101.766,-148.019 104.429,-137.764 95.9525,-144.12 101.766,-148.019"/>
<text text-anchor="middle" x="93.5" y="-160.8" font-family="Times,serif" font-size="14.00">2</text>
</g>
<!-- c2S -->
<g id="node4" class="node"><title>c2S</title>
<ellipse fill="none" stroke="black" cx="208" cy="-208" rx="27" ry="18"/>
<text text-anchor="middle" x="208" y="-204.3" font-family="Times,serif" font-size="14.00">S</text>
</g>
<!-- c2A -->
<g id="node5" class="node"><title>c2A</title>
<polygon fill="aquamarine" stroke="black" points="208,-139 181,-121 208,-103 235,-121 208,-139"/>
<text text-anchor="middle" x="208" y="-117.3" font-family="Times,serif" font-size="14.00">A</text>
</g>
<!-- c2S&#45;&gt;c2A -->
<g id="edge4" class="edge"><title>c2S&#45;&gt;c2A</title>
<path fill="none" stroke="black" d="M208,-189.799C208,-178.163 208,-162.548 208,-149.237"/>
<polygon fill="black" stroke="black" points="211.5,-149.175 208,-139.175 204.5,-149.175 211.5,-149.175"/>
</g>
<!-- c2A&#45;&gt;c2A -->
<g id="edge5" class="edge"><title>c2A&#45;&gt;c2A</title>
<path fill="none" stroke="black" stroke-dasharray="5,2" d="M225.084,-127.768C238.82,-130.475 253,-128.219 253,-121 253,-115.586 245.024,-112.964 235.241,-113.133"/>
<polygon fill="black" stroke="black" points="234.649,-109.676 225.084,-114.232 235.402,-116.636 234.649,-109.676"/>
<text text-anchor="middle" x="256.5" y="-117.3" font-family="Times,serif" font-size="14.00">0</text>
</g>
<!-- c2B -->
<g id="node6" class="node"><title>c2B</title>
<ellipse fill="none" stroke="black" cx="193" cy="-34" rx="27" ry="18"/>
<text text-anchor="middle" x="193" y="-30.3" font-family="Times,serif" font-size="14.00">B</text>
</g>
<!-- c2A&#45;&gt;c2B -->
<g id="edge6" class="edge"><title>c2A&#45;&gt;c2B</title>
<path fill="none" stroke="black" stroke-dasharray="5,2" d="M205.249,-104.41C203.159,-92.5701 200.235,-75.9975 197.767,-62.0151"/>
<polygon fill="black" stroke="black" points="201.176,-61.1885 195.991,-51.949 194.282,-62.4051 201.176,-61.1885"/>
<text text-anchor="middle" x="205.5" y="-73.8" font-family="Times,serif" font-size="14.00">1</text>
</g>
<!-- c2X -->
<g id="node7" class="node"><title>c2X</title>
<ellipse fill="none" stroke="black" cx="265" cy="-34" rx="27" ry="18"/>
<text text-anchor="middle" x="265" y="-30.3" font-family="Times,serif" font-size="14.00">X</text>
</g>
<!-- c2A&#45;&gt;c2X -->
<g id="edge7" class="edge"><title>c2A&#45;&gt;c2X</title>
<path fill="none" stroke="black" stroke-dasharray="5,2" d="M215.926,-108.181C224.391,-95.5567 238.043,-75.1987 248.801,-59.156"/>
<polygon fill="black" stroke="black" points="251.766,-61.0186 254.429,-50.7638 245.952,-57.1199 251.766,-61.0186"/>
<text text-anchor="middle" x="243.5" y="-73.8" font-family="Times,serif" font-size="14.00">2</text>
</g>
<!-- c3E -->
<g id="node8" class="node"><title>c3E</title>
<ellipse fill="none" stroke="black" cx="415" cy="-208" rx="27" ry="18"/>
<text text-anchor="middle" x="415" y="-204.3" font-family="Times,serif" font-size="14.00">E</text>
</g>
<!-- c3D -->
<g id="node10" class="node"><title>c3D</title>
<ellipse fill="none" stroke="black" cx="415" cy="-121" rx="27" ry="18"/>
<text text-anchor="middle" x="415" y="-117.3" font-family="Times,serif" font-size="14.00">D</text>
</g>
<!-- c3E&#45;&gt;c3D -->
<g id="edge8" class="edge"><title>c3E&#45;&gt;c3D</title>
<path fill="none" stroke="black" d="M415,-189.799C415,-178.163 415,-162.548 415,-149.237"/>
<polygon fill="black" stroke="black" points="418.5,-149.175 415,-139.175 411.5,-149.175 418.5,-149.175"/>
</g>
<!-- c3C -->
<g id="node9" class="node"><title>c3C</title>
<polygon fill="aquamarine" stroke="black" points="343,-226 316,-208 343,-190 370,-208 343,-226"/>
<text text-anchor="middle" x="343" y="-204.3" font-family="Times,serif" font-size="14.00">C</text>
</g>
<!-- c3C&#45;&gt;c3D -->
<g id="edge9" class="edge"><title>c3C&#45;&gt;c3D</title>
<path fill="none" stroke="black" stroke-dasharray="5,2" d="M352.413,-195.888C363.354,-182.971 381.698,-161.315 395.705,-144.778"/>
<polygon fill="black" stroke="black" points="398.389,-147.025 402.182,-137.132 393.048,-142.5 398.389,-147.025"/>
<text text-anchor="middle" x="387.5" y="-160.8" font-family="Times,serif" font-size="14.00">1</text>
</g>
<!-- c3F -->
<g id="node11" class="node"><title>c3F</title>
<ellipse fill="none" stroke="black" cx="343" cy="-121" rx="27" ry="18"/>
<text text-anchor="middle" x="343" y="-117.3" font-family="Times,serif" font-size="14.00">F</text>
</g>
<!-- c3C&#45;&gt;c3F -->
<g id="edge10" class="edge"><title>c3C&#45;&gt;c3F</title>
<path fill="none" stroke="black" stroke-dasharray="5,2" d="M343,-189.799C343,-178.163 343,-162.548 343,-149.237"/>
<polygon fill="black" stroke="black" points="346.5,-149.175 343,-139.175 339.5,-149.175 346.5,-149.175"/>
<text text-anchor="middle" x="346.5" y="-160.8" font-family="Times,serif" font-size="14.00">0</text>
</g>
<!-- c4E -->
<g id="node12" class="node"><title>c4E</title>
<ellipse fill="none" stroke="black" cx="647" cy="-121" rx="27" ry="18"/>
<text text-anchor="middle" x="647" y="-117.3" font-family="Times,serif" font-size="14.00">E</text>
</g>
<!-- c4D -->
<g id="node14" class="node"><title>c4D</title>
<ellipse fill="none" stroke="black" cx="572" cy="-34" rx="27" ry="18"/>
<text text-anchor="middle" x="572" y="-30.3" font-family="Times,serif" font-size="14.00">D</text>
</g>
<!-- c4E&#45;&gt;c4D -->
<g id="edge11" class="edge"><title>c4E&#45;&gt;c4D</title>
<path fill="none" stroke="black" d="M633.936,-105.194C622.392,-92.1109 605.376,-72.8258 592.099,-57.7787"/>
<polygon fill="black" stroke="black" points="594.407,-55.1041 585.166,-49.9214 589.158,-59.7355 594.407,-55.1041"/>
</g>
<!-- c4C -->
<g id="node13" class="node"><title>c4C</title>
<polygon fill="aquamarine" stroke="black" points="525,-226 498,-208 525,-190 552,-208 525,-226"/>
<text text-anchor="middle" x="525" y="-204.3" font-family="Times,serif" font-size="14.00">C</text>
</g>
<!-- c4Daux -->
<g id="node15" class="node"><title>c4Daux</title>
<ellipse fill="none" stroke="black" cx="498" cy="-121" rx="32.4942" ry="18"/>
<text text-anchor="middle" x="498" y="-117.3" font-family="Times,serif" font-size="14.00">D&#45;aux</text>
</g>
<!-- c4C&#45;&gt;c4Daux -->
<g id="edge12" class="edge"><title>c4C&#45;&gt;c4Daux</title>
<path fill="none" stroke="black" stroke-dasharray="5,2" d="M520.541,-192.964C516.72,-180.934 511.11,-163.273 506.443,-148.58"/>
<polygon fill="black" stroke="black" points="509.759,-147.458 503.396,-138.987 503.088,-149.578 509.759,-147.458"/>
<text text-anchor="middle" x="517.5" y="-160.8" font-family="Times,serif" font-size="14.00">1</text>
</g>
<!-- c4F -->
<g id="node16" class="node"><title>c4F</title>
<ellipse fill="none" stroke="black" cx="575" cy="-121" rx="27" ry="18"/>
<text text-anchor="middle" x="575" y="-117.3" font-family="Times,serif" font-size="14.00">F</text>
</g>
<!-- c4C&#45;&gt;c4F -->
<g id="edge13" class="edge"><title>c4C&#45;&gt;c4F</title>
<path fill="none" stroke="black" stroke-dasharray="5,2" d="M532.378,-194.458C539.735,-181.95 551.236,-162.4 560.437,-146.757"/>
<polygon fill="black" stroke="black" points="563.487,-148.475 565.54,-138.082 557.453,-144.926 563.487,-148.475"/>
<text text-anchor="middle" x="556.5" y="-160.8" font-family="Times,serif" font-size="14.00">0</text>
</g>
<!-- c4Daux&#45;&gt;c4D -->
<g id="edge14" class="edge"><title>c4Daux&#45;&gt;c4D</title>
<path fill="none" stroke="black" d="M511.573,-104.41C522.979,-91.3076 539.432,-72.409 552.291,-57.6391"/>
<polygon fill="black" stroke="black" points="555.083,-59.7618 559.01,-49.9214 549.804,-55.1655 555.083,-59.7618"/>
</g>
<!-- c5P -->
<g id="node17" class="node"><title>c5P</title>
<polygon fill="aquamarine" stroke="black" points="819,-226 792,-208 819,-190 846,-208 819,-226"/>
<text text-anchor="middle" x="819" y="-204.3" font-family="Times,serif" font-size="14.00">P</text>
</g>
<!-- c5Q -->
<g id="node19" class="node"><title>c5Q</title>
<ellipse fill="none" stroke="black" cx="797" cy="-121" rx="27" ry="18"/>
<text text-anchor="middle" x="797" y="-117.3" font-family="Times,serif" font-size="14.00">Q</text>
</g>
<!-- c5P&#45;&gt;c5Q -->
<g id="edge15" class="edge"><title>c5P&#45;&gt;c5Q</title>
<path fill="none" stroke="black" stroke-dasharray="5,2" d="M815.168,-192.194C812.077,-180.252 807.649,-163.144 803.938,-148.807"/>
<polygon fill="black" stroke="black" points="807.287,-147.775 801.393,-138.971 800.51,-149.529 807.287,-147.775"/>
<text text-anchor="middle" x="812.5" y="-160.8" font-family="Times,serif" font-size="14.00">0</text>
</g>
<!-- c5X -->
<g id="node20" class="node"><title>c5X</title>
<ellipse fill="none" stroke="black" cx="869" cy="-121" rx="27" ry="18"/>
<text text-anchor="middle" x="869" y="-117.3" font-family="Times,serif" font-size="14.00">X</text>
</g>
<!-- c5P&#45;&gt;c5X -->
<g id="edge16" class="edge"><title>c5P&#45;&gt;c5X</title>
<path fill="none" stroke="black" stroke-dasharray="5,2" d="M826.378,-194.458C833.735,-181.95 845.236,-162.4 854.437,-146.757"/>
<polygon fill="black" stroke="black" points="857.487,-148.475 859.54,-138.082 851.453,-144.926 857.487,-148.475"/>
<text text-anchor="middle" x="849.5" y="-160.8" font-family="Times,serif" font-size="14.00">1</text>
</g>
<!-- c5M -->
<g id="node18" class="node"><title>c5M</title>
<polygon fill="aquamarine" stroke="black" points="740,-226 713,-208 740,-190 767,-208 740,-226"/>
<text text-anchor="middle" x="740" y="-204.3" font-family="Times,serif" font-size="14.00">M</text>
</g>
<!-- c5M&#45;&gt;c5Q -->
<g id="edge17" class="edge"><title>c5M&#45;&gt;c5Q</title>
<path fill="none" stroke="black" stroke-dasharray="5,2" d="M747.926,-195.181C756.391,-182.557 770.043,-162.199 780.801,-146.156"/>
<polygon fill="black" stroke="black" points="783.766,-148.019 786.429,-137.764 777.952,-144.12 783.766,-148.019"/>
<text text-anchor="middle" x="775.5" y="-160.8" font-family="Times,serif" font-size="14.00">1</text>
</g>
<!-- c5N -->
<g id="node21" class="node"><title>c5N</title>
<ellipse fill="none" stroke="black" cx="725" cy="-121" rx="27" ry="18"/>
<text text-anchor="middle" x="725" y="-117.3" font-family="Times,serif" font-size="14.00">N</text>
</g>
<!-- c5M&#45;&gt;c5N -->
<g id="edge18" class="edge"><title>c5M&#45;&gt;c5N</title>
<path fill="none" stroke="black" stroke-dasharray="5,2" d="M737.249,-191.41C735.159,-179.57 732.235,-162.997 729.767,-149.015"/>
<polygon fill="black" stroke="black" points="733.176,-148.189 727.991,-138.949 726.282,-149.405 733.176,-148.189"/>
<text text-anchor="middle" x="737.5" y="-160.8" font-family="Times,serif" font-size="14.00">0</text>
</g>
</g>
</svg>
