<?xml version="1.0" encoding="UTF-8" standalone="no"?><!DOCTYPE svg PUBLIC "-//W3C//DTD SVG 1.1//EN" "http://www.w3.org/Graphics/SVG/1.1/DTD/svg11.dtd"><!-- Generated by graphviz version 2.40.1 (20161225.0304)
 --><!-- Title: Taskflow Pages: 1 --><svg xmlns="http://www.w3.org/2000/svg" xmlns:xlink="http://www.w3.org/1999/xlink" width="927pt" height="354pt" viewBox="0.00 0.00 927.00 354.40">
<g id="graph0" class="graph" transform="scale(1 1) rotate(0) translate(4 350.4)">
<title>Taskflow</title>
<g id="clust1" class="cluster">
<title>cluster_p1</title>
<polygon fill="transparent" stroke="#000000" points="8,-134.8 8,-338.4 151,-338.4 151,-134.8 8,-134.8"/>
<text text-anchor="middle" x="79.5" y="-321.8" font-family="Times,serif" font-size="14.00" fill="#000000">error1: no source tasks</text>
</g>
<g id="clust2" class="cluster">
<title>cluster_p4</title>
<polygon fill="transparent" stroke="#000000" points="159,-8 159,-338.4 301,-338.4 301,-8 159,-8"/>
<text text-anchor="middle" x="230" y="-321.8" font-family="Times,serif" font-size="14.00" fill="#000000">fix1: adds a source</text>
</g>
<g id="clust3" class="cluster">
<title>cluster_p2</title>
<polygon fill="transparent" stroke="#000000" points="309,-134.8 309,-338.4 451,-338.4 451,-134.8 309,-134.8"/>
<text text-anchor="middle" x="380" y="-321.8" font-family="Times,serif" font-size="14.00" fill="#000000">error2: race on D</text>
</g>
<g id="clust4" class="cluster">
<title>cluster_p3</title>
<polygon fill="transparent" stroke="#000000" points="459,-8 459,-338.4 689,-338.4 689,-8 459,-8"/>
<text text-anchor="middle" x="574" y="-321.8" font-family="Times,serif" font-size="14.00" fill="#000000">fix2: adds an auxiliary task</text>
</g>
<g id="clust5" class="cluster">
<title>cluster_p5</title>
<polygon fill="transparent" stroke="#000000" points="697,-134.8 697,-338.4 911,-338.4 911,-134.8 697,-134.8"/>
<text text-anchor="middle" x="804" y="-321.8" font-family="Times,serif" font-size="14.00" fill="#000000">risky: O may race</text>
</g>
<!-- A -->
<g id="node1" class="node">
<title>A</title>
<polygon fill="#7fffd4" stroke="#000000" points="64,-305.6 37,-287.6 64,-269.6 91,-287.6 64,-305.6"/>
<text text-anchor="middle" x="64" y="-283.4" font-family="Times,serif" font-size="14.00" fill="#000000">A</text>
</g>
<!-- A&#45;&gt;A -->
<g id="edge1" class="edge">
<title>A-&gt;A</title>
<path fill="none" stroke="#000000" stroke-dasharray="5,2" d="M82.4896,-293.6233C95.7706,-295.5843 109,-293.5766 109,-287.6 109,-283.1643 101.7127,-280.9147 92.5255,-280.8514"/>
<polygon fill="#000000" stroke="#000000" points="92.2112,-277.3649 82.4896,-281.5767 92.7159,-284.3467 92.2112,-277.3649"/>
<text text-anchor="middle" x="112.5" y="-283.4" font-family="Times,serif" font-size="14.00" fill="#000000">0</text>
</g>
<!-- B -->
<g id="node2" class="node">
<title>B</title>
<ellipse fill="none" stroke="#000000" cx="43" cy="-160.8" rx="27" ry="18"/>
<text text-anchor="middle" x="43" y="-156.6" font-family="Times,serif" font-size="14.00" fill="#000000">B</text>
</g>
<!-- A&#45;&gt;B -->
<g id="edge2" class="edge">
<title>A-&gt;B</title>
<path fill="none" stroke="#000000" stroke-dasharray="5,2" d="M61.2976,-271.2827C57.8663,-250.5641 51.8898,-214.4774 47.7035,-189.2004"/>
<polygon fill="#000000" stroke="#000000" points="51.1186,-188.3993 46.0317,-179.1056 44.2127,-189.5431 51.1186,-188.3993"/>
<text text-anchor="middle" x="57.5" y="-220" font-family="Times,serif" font-size="14.00" fill="#000000">1</text>
</g>
<!-- X -->
<g id="node3" class="node">
<title>X</title>
<ellipse fill="none" stroke="#000000" cx="115" cy="-160.8" rx="27" ry="18"/>
<text text-anchor="middle" x="115" y="-156.6" font-family="Times,serif" font-size="14.00" fill="#000000">X</text>
</g>
<!-- A&#45;&gt;X -->
<g id="edge3" class="edge">
<title>A-&gt;X</title>
<path fill="none" stroke="#000000" stroke-dasharray="5,2" d="M69.8503,-273.0544C78.2024,-252.2888 93.6905,-213.7813 104.1697,-187.7271"/>
<polygon fill="#000000" stroke="#000000" points="107.4309,-188.9981 107.9154,-178.4143 100.9366,-186.386 107.4309,-188.9981"/>
<text text-anchor="middle" x="95.5" y="-220" font-family="Times,serif" font-size="14.00" fill="#000000">2</text>
</g>
<!-- p4A -->
<g id="node4" class="node">
<title>p4A</title>
<polygon fill="#7fffd4" stroke="#000000" points="207,-178.8 180,-160.8 207,-142.8 234,-160.8 207,-178.8"/>
<text text-anchor="middle" x="207" y="-156.6" font-family="Times,serif" font-size="14.00" fill="#000000">A</text>
</g>
<!-- p4A&#45;&gt;p4A -->
<g id="edge4" class="edge">
<title>p4A-&gt;p4A</title>
<path fill="none" stroke="#000000" stroke-dasharray="5,2" d="M225.4896,-166.8233C238.7706,-168.7843 252,-166.7766 252,-160.8 252,-156.3643 244.7127,-154.1147 235.5255,-154.0514"/>
<polygon fill="#000000" stroke="#000000" points="235.2112,-150.5649 225.4896,-154.7767 235.7159,-157.5467 235.2112,-150.5649"/>
<text text-anchor="middle" x="255.5" y="-156.6" font-family="Times,serif" font-size="14.00" fill="#000000">0</text>
</g>
<!-- p4B -->
<g id="node5" class="node">
<title>p4B</title>
<ellipse fill="none" stroke="#000000" cx="194" cy="-34" rx="27" ry="18"/>
<text text-anchor="middle" x="194" y="-29.8" font-family="Times,serif" font-size="14.00" fill="#000000">B</text>
</g>
<!-- p4A&#45;&gt;p4B -->
<g id="edge5" class="edge">
<title>p4A-&gt;p4B</title>
<path fill="none" stroke="#000000" stroke-dasharray="5,2" d="M205.2468,-143.6992C203.1,-122.7602 199.4344,-87.0065 196.8734,-62.0271"/>
<polygon fill="#000000" stroke="#000000" points="200.3529,-61.6467 195.8511,-52.0558 193.3894,-62.3607 200.3529,-61.6467"/>
<text text-anchor="middle" x="204.5" y="-93.2" font-family="Times,serif" font-size="14.00" fill="#000000">1</text>
</g>
<!-- p4X -->
<g id="node7" class="node">
<title>p4X</title>
<ellipse fill="none" stroke="#000000" cx="266" cy="-34" rx="27" ry="18"/>
<text text-anchor="middle" x="266" y="-29.8" font-family="Times,serif" font-size="14.00" fill="#000000">X</text>
</g>
<!-- p4A&#45;&gt;p4X -->
<g id="edge7" class="edge">
<title>p4A-&gt;p4X</title>
<path fill="none" stroke="#000000" d="M213.5395,-146.7457C223.1701,-126.048 241.3448,-86.9878 253.565,-60.7247"/>
<polygon fill="#000000" stroke="#000000" points="256.8813,-61.8938 257.9268,-51.3506 250.5347,-58.9407 256.8813,-61.8938"/>
</g>
<!-- S -->
<g id="node6" class="node">
<title>S</title>
<ellipse fill="none" stroke="#000000" cx="207" cy="-287.6" rx="27" ry="18"/>
<text text-anchor="middle" x="207" y="-283.4" font-family="Times,serif" font-size="14.00" fill="#000000">S</text>
</g>
<!-- S&#45;&gt;p4A -->
<g id="edge6" class="edge">
<title>S-&gt;p4A</title>
<path fill="none" stroke="#000000" d="M207,-269.4327C207,-248.4352 207,-213.6261 207,-189.079"/>
<polygon fill="#000000" stroke="#000000" points="210.5001,-188.9336 207,-178.9336 203.5001,-188.9337 210.5001,-188.9336"/>
</g>
<!-- C -->
<g id="node8" class="node">
<title>C</title>
<polygon fill="#7fffd4" stroke="#000000" points="416,-305.6 389,-287.6 416,-269.6 443,-287.6 416,-305.6"/>
<text text-anchor="middle" x="416" y="-283.4" font-family="Times,serif" font-size="14.00" fill="#000000">C</text>
</g>
<!-- F -->
<g id="node9" class="node">
<title>F</title>
<ellipse fill="none" stroke="#000000" cx="416" cy="-160.8" rx="27" ry="18"/>
<text text-anchor="middle" x="416" y="-156.6" font-family="Times,serif" font-size="14.00" fill="#000000">F</text>
</g>
<!-- C&#45;&gt;F -->
<g id="edge8" class="edge">
<title>C-&gt;F</title>
<path fill="none" stroke="#000000" stroke-dasharray="5,2" d="M416,-269.4327C416,-248.4352 416,-213.6261 416,-189.079"/>
<polygon fill="#000000" stroke="#000000" points="419.5001,-188.9336 416,-178.9336 412.5001,-188.9337 419.5001,-188.9336"/>
<text text-anchor="middle" x="419.5" y="-220" font-family="Times,serif" font-size="14.00" fill="#000000">0</text>
</g>
<!-- D -->
<g id="node10" class="node">
<title>D</title>
<ellipse fill="none" stroke="#000000" cx="344" cy="-160.8" rx="27" ry="18"/>
<text text-anchor="middle" x="344" y="-156.6" font-family="Times,serif" font-size="14.00" fill="#000000">D</text>
</g>
<!-- C&#45;&gt;D -->
<g id="edge9" class="edge">
<title>C-&gt;D</title>
<path fill="none" stroke="#000000" stroke-dasharray="5,2" d="M408.5659,-274.5078C396.867,-253.9046 373.935,-213.5189 358.789,-186.845"/>
<polygon fill="#000000" stroke="#000000" points="361.7689,-185.0046 353.7875,-178.0369 355.6817,-188.461 361.7689,-185.0046"/>
<text text-anchor="middle" x="386.5" y="-220" font-family="Times,serif" font-size="14.00" fill="#000000">1</text>
</g>
<!-- E -->
<g id="node11" class="node">
<title>E</title>
<ellipse fill="none" stroke="#000000" cx="344" cy="-287.6" rx="27" ry="18"/>
<text text-anchor="middle" x="344" y="-283.4" font-family="Times,serif" font-size="14.00" fill="#000000">E</text>
</g>
<!-- E&#45;&gt;D -->
<g id="edge10" class="edge">
<title>E-&gt;D</title>
<path fill="none" stroke="#000000" d="M344,-269.4327C344,-248.4352 344,-213.6261 344,-189.079"/>
<polygon fill="#000000" stroke="#000000" points="347.5001,-188.9336 344,-178.9336 340.5001,-188.9337 347.5001,-188.9336"/>
</g>
<!-- pc -->
<g id="node12" class="node">
<title>pc</title>
<polygon fill="#7fffd4" stroke="#000000" points="606,-305.6 579,-287.6 606,-269.6 633,-287.6 606,-305.6"/>
<text text-anchor="middle" x="606" y="-283.4" font-family="Times,serif" font-size="14.00" fill="#000000">C</text>
</g>
<!-- pf -->
<g id="node13" class="node">
<title>pf</title>
<ellipse fill="none" stroke="#000000" cx="566" cy="-160.8" rx="27" ry="18"/>
<text text-anchor="middle" x="566" y="-156.6" font-family="Times,serif" font-size="14.00" fill="#000000">F</text>
</g>
<!-- pc&#45;&gt;pf -->
<g id="edge11" class="edge">
<title>pc-&gt;pf</title>
<path fill="none" stroke="#000000" stroke-dasharray="5,2" d="M601.2544,-272.5564C594.714,-251.8233 582.815,-214.1035 574.665,-188.268"/>
<polygon fill="#000000" stroke="#000000" points="577.9853,-187.1591 571.6389,-178.6754 571.3096,-189.2651 577.9853,-187.1591"/>
<text text-anchor="middle" x="590.5" y="-220" font-family="Times,serif" font-size="14.00" fill="#000000">0</text>
</g>
<!-- pd -->
<g id="node14" class="node">
<title>pd</title>
<ellipse fill="none" stroke="#000000" cx="646" cy="-160.8" rx="35.3334" ry="18"/>
<text text-anchor="middle" x="646" y="-156.6" font-family="Times,serif" font-size="14.00" fill="#000000">D-aux</text>
</g>
<!-- pc&#45;&gt;pd -->
<g id="edge12" class="edge">
<title>pc-&gt;pd</title>
<path fill="none" stroke="#000000" stroke-dasharray="5,2" d="M610.7456,-272.5564C617.286,-251.8233 629.185,-214.1035 637.335,-188.268"/>
<polygon fill="#000000" stroke="#000000" points="640.6904,-189.2651 640.3611,-178.6754 634.0147,-187.1591 640.6904,-189.2651"/>
<text text-anchor="middle" x="630.5" y="-220" font-family="Times,serif" font-size="14.00" fill="#000000">1</text>
</g>
<!-- pD -->
<g id="node15" class="node">
<title>pD</title>
<ellipse fill="none" stroke="#000000" cx="570" cy="-34" rx="27" ry="18"/>
<text text-anchor="middle" x="570" y="-29.8" font-family="Times,serif" font-size="14.00" fill="#000000">D</text>
</g>
<!-- pd&#45;&gt;pD -->
<g id="edge13" class="edge">
<title>pd-&gt;pD</title>
<path fill="none" stroke="#000000" d="M635.5919,-143.4349C622.6146,-121.7833 600.3224,-84.5906 585.3751,-59.6521"/>
<polygon fill="#000000" stroke="#000000" points="588.1838,-57.5302 580.0407,-50.7522 582.1797,-61.1289 588.1838,-57.5302"/>
</g>
<!-- pe -->
<g id="node16" class="node">
<title>pe</title>
<ellipse fill="none" stroke="#000000" cx="494" cy="-160.8" rx="27" ry="18"/>
<text text-anchor="middle" x="494" y="-156.6" font-family="Times,serif" font-size="14.00" fill="#000000">E</text>
</g>
<!-- pe&#45;&gt;pD -->
<g id="edge14" class="edge">
<title>pe-&gt;pD</title>
<path fill="none" stroke="#000000" d="M504.0922,-143.9619C517.0384,-122.3623 539.6161,-84.6931 554.6856,-59.5509"/>
<polygon fill="#000000" stroke="#000000" points="557.7271,-61.2844 559.866,-50.9077 551.723,-57.6857 557.7271,-61.2844"/>
</g>
<!-- p5M -->
<g id="node17" class="node">
<title>p5M</title>
<polygon fill="#7fffd4" stroke="#000000" points="855,-305.6 827.0024,-287.6 855,-269.6 882.9976,-287.6 855,-305.6"/>
<text text-anchor="middle" x="855" y="-283.4" font-family="Times,serif" font-size="14.00" fill="#000000">M</text>
</g>
<!-- p5O -->
<g id="node18" class="node">
<title>p5O</title>
<ellipse fill="none" stroke="#000000" cx="804" cy="-160.8" rx="27" ry="18"/>
<text text-anchor="middle" x="804" y="-156.6" font-family="Times,serif" font-size="14.00" fill="#000000">X</text>
</g>
<!-- p5M&#45;&gt;p5O -->
<g id="edge15" class="edge">
<title>p5M-&gt;p5O</title>
<path fill="none" stroke="#000000" stroke-dasharray="5,2" d="M849.1497,-273.0544C840.7976,-252.2888 825.3095,-213.7813 814.8303,-187.7271"/>
<polygon fill="#000000" stroke="#000000" points="818.0634,-186.386 811.0846,-178.4143 811.5691,-188.9981 818.0634,-186.386"/>
<text text-anchor="middle" x="835.5" y="-220" font-family="Times,serif" font-size="14.00" fill="#000000">0</text>
</g>
<!-- p5N -->
<g id="node19" class="node">
<title>p5N</title>
<ellipse fill="none" stroke="#000000" cx="876" cy="-160.8" rx="27" ry="18"/>
<text text-anchor="middle" x="876" y="-156.6" font-family="Times,serif" font-size="14.00" fill="#000000">N</text>
</g>
<!-- p5M&#45;&gt;p5N -->
<g id="edge16" class="edge">
<title>p5M-&gt;p5N</title>
<path fill="none" stroke="#000000" stroke-dasharray="5,2" d="M857.7024,-271.2827C861.1337,-250.5641 867.1102,-214.4774 871.2965,-189.2004"/>
<polygon fill="#000000" stroke="#000000" points="874.7873,-189.5431 872.9683,-179.1056 867.8814,-188.3993 874.7873,-189.5431"/>
<text text-anchor="middle" x="869.5" y="-220" font-family="Times,serif" font-size="14.00" fill="#000000">1</text>
</g>
<!-- p5P -->
<g id="node20" class="node">
<title>p5P</title>
<polygon fill="#7fffd4" stroke="#000000" points="762,-305.6 735,-287.6 762,-269.6 789,-287.6 762,-305.6"/>
<text text-anchor="middle" x="762" y="-283.4" font-family="Times,serif" font-size="14.00" fill="#000000">P</text>
</g>
<!-- p5P&#45;&gt;p5O -->
<g id="edge18" class="edge">
<title>p5P-&gt;p5O</title>
<path fill="none" stroke="#000000" stroke-dasharray="5,2" d="M766.9829,-272.5564C773.8503,-251.8233 786.3443,-214.1035 794.9018,-188.268"/>
<polygon fill="#000000" stroke="#000000" points="798.2572,-189.2687 798.0791,-178.6754 791.6123,-187.0676 798.2572,-189.2687"/>
<text text-anchor="middle" x="788.5" y="-220" font-family="Times,serif" font-size="14.00" fill="#000000">1</text>
</g>
<!-- p5Q -->
<g id="node21" class="node">
<title>p5Q</title>
<ellipse fill="none" stroke="#000000" cx="732" cy="-160.8" rx="27" ry="18"/>
<text text-anchor="middle" x="732" y="-156.6" font-family="Times,serif" font-size="14.00" fill="#000000">Q</text>
</g>
<!-- p5P&#45;&gt;p5Q -->
<g id="edge17" class="edge">
<title>p5P-&gt;p5Q</title>
<path fill="none" stroke="#000000" stroke-dasharray="5,2" d="M758.3214,-272.0518C753.4259,-251.36 744.6838,-214.4101 738.6248,-188.8008"/>
<polygon fill="#000000" stroke="#000000" points="741.9987,-187.8591 736.2903,-178.9336 735.1868,-189.4709 741.9987,-187.8591"/>
<text text-anchor="middle" x="751.5" y="-220" font-family="Times,serif" font-size="14.00" fill="#000000">0</text>
</g>
</g>
</svg>