<?xml version="1.0" encoding="UTF-8" standalone="no"?><!DOCTYPE svg PUBLIC "-//W3C//DTD SVG 1.1//EN" "http://www.w3.org/Graphics/SVG/1.1/DTD/svg11.dtd"><!-- Generated by graphviz version 2.40.1 (20161225.0304)
 --><!-- Title: Taskflow Pages: 1 --><svg xmlns="http://www.w3.org/2000/svg" xmlns:xlink="http://www.w3.org/1999/xlink" width="159pt" height="245pt" viewBox="0.00 0.00 159.00 244.80">
<g id="graph0" class="graph" transform="scale(1 1) rotate(0) translate(4 240.8)">
<title>Taskflow</title>
<polygon fill="#ffffff" stroke="transparent" points="-4,4 -4,-240.8 155,-240.8 155,4 -4,4"/>
<g id="clust1" class="cluster">
<title>cluster_p0x7ffeeca03810</title>
<polygon fill="none" stroke="#0000ff" points="63,-8 63,-228.8 143,-228.8 143,-8 63,-8"/>
<text text-anchor="middle" x="103" y="-212.2" font-family="Times,serif" font-size="14.00" fill="#000000">Subflow: B</text>
</g>
<!-- A -->
<g id="node1" class="node">
<title>A</title>
<ellipse fill="none" stroke="#000000" cx="27" cy="-106" rx="27" ry="18"/>
<text text-anchor="middle" x="27" y="-101.8" font-family="Times,serif" font-size="14.00" fill="#000000">A</text>
</g>
<!-- B -->
<g id="node2" class="node">
<title>B</title>
<ellipse fill="none" stroke="#000000" cx="98" cy="-34" rx="27" ry="18"/>
<text text-anchor="middle" x="98" y="-29.8" font-family="Times,serif" font-size="14.00" fill="#000000">B</text>
</g>
<!-- A&#45;&gt;B -->
<g id="edge1" class="edge">
<title>A-&gt;B</title>
<path fill="none" stroke="#000000" d="M42.0573,-90.7307C51.847,-80.803 64.7831,-67.6847 75.7497,-56.5637"/>
<polygon fill="#000000" stroke="#000000" points="78.4351,-58.8252 82.9644,-49.2473 73.4508,-53.9102 78.4351,-58.8252"/>
</g>
<!-- B1 -->
<g id="node3" class="node">
<title>B1</title>
<ellipse fill="none" stroke="#000000" cx="99" cy="-178" rx="27" ry="18"/>
<text text-anchor="middle" x="99" y="-173.8" font-family="Times,serif" font-size="14.00" fill="#000000">B1</text>
</g>
<!-- B2 -->
<g id="node4" class="node">
<title>B2</title>
<ellipse fill="none" stroke="#000000" cx="99" cy="-106" rx="27" ry="18"/>
<text text-anchor="middle" x="99" y="-101.8" font-family="Times,serif" font-size="14.00" fill="#000000">B2</text>
</g>
<!-- B1&#45;&gt;B2 -->
<g id="edge2" class="edge">
<title>B1-&gt;B2</title>
<path fill="none" stroke="#000000" d="M99,-159.8314C99,-152.131 99,-142.9743 99,-134.4166"/>
<polygon fill="#000000" stroke="#000000" points="102.5001,-134.4132 99,-124.4133 95.5001,-134.4133 102.5001,-134.4132"/>
</g>
<!-- B2&#45;&gt;B -->
<g id="edge3" class="edge">
<title>B2-&gt;B</title>
<path fill="none" stroke="#000000" d="M98.7477,-87.8314C98.6407,-80.131 98.5135,-70.9743 98.3947,-62.4166"/>
<polygon fill="#000000" stroke="#000000" points="101.8944,-62.3637 98.2557,-52.4133 94.8951,-62.4609 101.8944,-62.3637"/>
</g>
</g>
</svg>