<?xml version="1.0" encoding="UTF-8" standalone="no"?><!DOCTYPE svg PUBLIC "-//W3C//DTD SVG 1.1//EN" "http://www.w3.org/Graphics/SVG/1.1/DTD/svg11.dtd"><!-- Generated by graphviz version 2.40.1 (20161225.0304)
 --><!-- Title: Taskflow Pages: 1 --><svg xmlns="http://www.w3.org/2000/svg" xmlns:xlink="http://www.w3.org/1999/xlink" width="175pt" height="188pt" viewBox="0.00 0.00 175.00 188.00">
<g id="graph0" class="graph" transform="scale(1 1) rotate(0) translate(4 184)">
<title>Taskflow</title>
<polygon fill="#ffffff" stroke="transparent" points="-4,4 -4,-184 171,-184 171,4 -4,4"/>
<!-- A -->
<g id="node1" class="node">
<title>A</title>
<ellipse fill="none" stroke="#000000" cx="68" cy="-162" rx="27" ry="18"/>
<text text-anchor="middle" x="68" y="-157.8" font-family="Times,serif" font-size="14.00" fill="#000000">A</text>
</g>
<!-- B -->
<g id="node2" class="node">
<title>B</title>
<ellipse fill="none" stroke="#000000" cx="68" cy="-90" rx="27" ry="18"/>
<text text-anchor="middle" x="68" y="-85.8" font-family="Times,serif" font-size="14.00" fill="#000000">B</text>
</g>
<!-- A&#45;&gt;B -->
<g id="edge1" class="edge">
<title>A-&gt;B</title>
<path fill="none" stroke="#000000" d="M68,-143.8314C68,-136.131 68,-126.9743 68,-118.4166"/>
<polygon fill="#000000" stroke="#000000" points="71.5001,-118.4132 68,-108.4133 64.5001,-118.4133 71.5001,-118.4132"/>
</g>
<!-- C -->
<g id="node3" class="node">
<title>C</title>
<ellipse fill="none" stroke="#000000" cx="140" cy="-90" rx="27" ry="18"/>
<text text-anchor="middle" x="140" y="-85.8" font-family="Times,serif" font-size="14.00" fill="#000000">C</text>
</g>
<!-- A&#45;&gt;C -->
<g id="edge2" class="edge">
<title>A-&gt;C</title>
<path fill="none" stroke="#000000" d="M83.2693,-146.7307C93.197,-136.803 106.3153,-123.6847 117.4363,-112.5637"/>
<polygon fill="#000000" stroke="#000000" points="120.1564,-114.7933 124.7527,-105.2473 115.2067,-109.8436 120.1564,-114.7933"/>
</g>
<!-- E -->
<g id="node4" class="node">
<title>E</title>
<ellipse fill="none" stroke="#000000" cx="27" cy="-18" rx="27" ry="18"/>
<text text-anchor="middle" x="27" y="-13.8" font-family="Times,serif" font-size="14.00" fill="#000000">E</text>
</g>
<!-- A&#45;&gt;E -->
<g id="edge3" class="edge">
<title>A-&gt;E</title>
<path fill="none" stroke="#000000" d="M54.1539,-146.1964C46.1275,-136.0257 36.7032,-122.1097 32,-108 25.3709,-88.1127 24.3104,-64.3952 24.8058,-46.3014"/>
<polygon fill="#000000" stroke="#000000" points="28.3113,-46.2553 25.263,-36.1085 21.3183,-45.9416 28.3113,-46.2553"/>
</g>
<!-- B&#45;&gt;E -->
<g id="edge5" class="edge">
<title>B-&gt;E</title>
<path fill="none" stroke="#000000" d="M58.2836,-72.937C53.3307,-64.2393 47.2039,-53.4799 41.6887,-43.7948"/>
<polygon fill="#000000" stroke="#000000" points="44.6366,-41.8984 36.6467,-34.9405 38.5537,-45.3623 44.6366,-41.8984"/>
</g>
<!-- D -->
<g id="node5" class="node">
<title>D</title>
<ellipse fill="none" stroke="#000000" cx="126" cy="-18" rx="27" ry="18"/>
<text text-anchor="middle" x="126" y="-13.8" font-family="Times,serif" font-size="14.00" fill="#000000">D</text>
</g>
<!-- B&#45;&gt;D -->
<g id="edge4" class="edge">
<title>B-&gt;D</title>
<path fill="none" stroke="#000000" d="M80.8721,-74.0209C88.4562,-64.6061 98.1982,-52.5126 106.6884,-41.973"/>
<polygon fill="#000000" stroke="#000000" points="109.6162,-43.9177 113.1639,-33.9345 104.1649,-39.5264 109.6162,-43.9177"/>
</g>
<!-- C&#45;&gt;D -->
<g id="edge6" class="edge">
<title>C-&gt;D</title>
<path fill="none" stroke="#000000" d="M136.4672,-71.8314C134.9302,-63.9266 133.0947,-54.4872 131.3932,-45.7365"/>
<polygon fill="#000000" stroke="#000000" points="134.8276,-45.0615 129.4832,-35.9134 127.9563,-46.3976 134.8276,-45.0615"/>
</g>
</g>
</svg>