<?xml version="1.0" encoding="UTF-8" standalone="no"?><!DOCTYPE svg PUBLIC "-//W3C//DTD SVG 1.1//EN" "http://www.w3.org/Graphics/SVG/1.1/DTD/svg11.dtd"><!-- Generated by graphviz version 2.40.1 (20161225.0304)
 --><!-- Title: Taskflow Pages: 1 --><svg xmlns="http://www.w3.org/2000/svg" xmlns:xlink="http://www.w3.org/1999/xlink" width="205pt" height="390pt" viewBox="0.00 0.00 205.00 390.40">
<g id="graph0" class="graph" transform="scale(1 1) rotate(0) translate(4 386.4)">
<title>Taskflow</title>
<polygon fill="#ffffff" stroke="transparent" points="-4,4 -4,-386.4 201,-386.4 201,4 -4,4"/>
<g id="clust1" class="cluster">
<title>cluster_p0x7ffeeca03810</title>
<polygon fill="none" stroke="#000000" points="8,-8 8,-374.4 189,-374.4 189,-8 8,-8"/>
<text text-anchor="middle" x="98.5" y="-357.8" font-family="Times,serif" font-size="14.00" fill="#000000">Taskflow</text>
</g>
<g id="clust2" class="cluster">
<title>cluster_p0x7fbc40c02830</title>
<polygon fill="none" stroke="#0000ff" points="16,-16 16,-341.6 181,-341.6 181,-16 16,-16"/>
<text text-anchor="middle" x="98.5" y="-325" font-family="Times,serif" font-size="14.00" fill="#000000">Subflow: A</text>
</g>
<g id="clust3" class="cluster">
<title>cluster_p0x7fbc40d00240</title>
<polygon fill="none" stroke="#0000ff" points="86,-88 86,-308.8 173,-308.8 173,-88 86,-88"/>
<text text-anchor="middle" x="129.5" y="-292.2" font-family="Times,serif" font-size="14.00" fill="#000000">Subflow: A2</text>
</g>
<!-- p0x7fbc40c02830 -->
<g id="node1" class="node">
<title>p0x7fbc40c02830</title>
<ellipse fill="none" stroke="#000000" cx="124" cy="-42" rx="27" ry="18"/>
<text text-anchor="middle" x="124" y="-37.8" font-family="Times,serif" font-size="14.00" fill="#000000">A</text>
</g>
<!-- p0x7fbc40d00120 -->
<g id="node2" class="node">
<title>p0x7fbc40d00120</title>
<ellipse fill="none" stroke="#000000" cx="51" cy="-186" rx="27" ry="18"/>
<text text-anchor="middle" x="51" y="-181.8" font-family="Times,serif" font-size="14.00" fill="#000000">A1</text>
</g>
<!-- p0x7fbc40d00240 -->
<g id="node3" class="node">
<title>p0x7fbc40d00240</title>
<ellipse fill="none" stroke="#000000" cx="124" cy="-114" rx="27" ry="18"/>
<text text-anchor="middle" x="124" y="-109.8" font-family="Times,serif" font-size="14.00" fill="#000000">A2</text>
</g>
<!-- p0x7fbc40d00120&#45;&gt;p0x7fbc40d00240 -->
<g id="edge1" class="edge">
<title>p0x7fbc40d00120-&gt;p0x7fbc40d00240</title>
<path fill="none" stroke="#000000" d="M66.1256,-171.0816C76.3345,-161.0125 89.9878,-147.5463 101.4693,-136.2221"/>
<polygon fill="#000000" stroke="#000000" points="103.9806,-138.6611 108.6426,-129.147 99.0651,-133.6773 103.9806,-138.6611"/>
</g>
<!-- p0x7fbc40d00240&#45;&gt;p0x7fbc40c02830 -->
<g id="edge2" class="edge">
<title>p0x7fbc40d00240-&gt;p0x7fbc40c02830</title>
<path fill="none" stroke="#000000" d="M124,-95.8314C124,-88.131 124,-78.9743 124,-70.4166"/>
<polygon fill="#000000" stroke="#000000" points="127.5001,-70.4132 124,-60.4133 120.5001,-70.4133 127.5001,-70.4132"/>
</g>
<!-- p0x7fbc40d00360 -->
<g id="node4" class="node">
<title>p0x7fbc40d00360</title>
<ellipse fill="none" stroke="#000000" cx="128" cy="-258" rx="32.4865" ry="18"/>
<text text-anchor="middle" x="128" y="-253.8" font-family="Times,serif" font-size="14.00" fill="#000000">A2_1</text>
</g>
<!-- p0x7fbc40d00470 -->
<g id="node5" class="node">
<title>p0x7fbc40d00470</title>
<ellipse fill="none" stroke="#000000" cx="128" cy="-186" rx="32.4865" ry="18"/>
<text text-anchor="middle" x="128" y="-181.8" font-family="Times,serif" font-size="14.00" fill="#000000">A2_2</text>
</g>
<!-- p0x7fbc40d00360&#45;&gt;p0x7fbc40d00470 -->
<g id="edge3" class="edge">
<title>p0x7fbc40d00360-&gt;p0x7fbc40d00470</title>
<path fill="none" stroke="#000000" d="M128,-239.8314C128,-232.131 128,-222.9743 128,-214.4166"/>
<polygon fill="#000000" stroke="#000000" points="131.5001,-214.4132 128,-204.4133 124.5001,-214.4133 131.5001,-214.4132"/>
</g>
<!-- p0x7fbc40d00470&#45;&gt;p0x7fbc40d00240 -->
<g id="edge4" class="edge">
<title>p0x7fbc40d00470-&gt;p0x7fbc40d00240</title>
<path fill="none" stroke="#000000" d="M126.9906,-167.8314C126.5628,-160.131 126.0541,-150.9743 125.5787,-142.4166"/>
<polygon fill="#000000" stroke="#000000" points="129.0724,-142.2037 125.023,-132.4133 122.0831,-142.592 129.0724,-142.2037"/>
</g>
</g>
</svg>