<?xml version="1.0" encoding="UTF-8" standalone="no"?><!DOCTYPE svg PUBLIC "-//W3C//DTD SVG 1.1//EN" "http://www.w3.org/Graphics/SVG/1.1/DTD/svg11.dtd"><!-- Generated by graphviz version 2.40.1 (20161225.0304)
 --><!-- Title: Taskflow Pages: 1 --><svg xmlns="http://www.w3.org/2000/svg" xmlns:xlink="http://www.w3.org/1999/xlink" width="144pt" height="188pt" viewBox="0.00 0.00 143.55 188.00">
<g id="graph0" class="graph" transform="scale(1 1) rotate(0) translate(4 184)">
<title>Taskflow</title>
<polygon fill="#ffffff" stroke="transparent" points="-4,4 -4,-184 139.5531,-184 139.5531,4 -4,4"/>
<!-- S -->
<g id="node1" class="node">
<title>S</title>
<ellipse fill="none" stroke="#000000" cx="67.2765" cy="-162" rx="27" ry="18"/>
<text text-anchor="middle" x="67.2765" y="-157.8" font-family="Times,serif" font-size="14.00" fill="#000000">S</text>
</g>
<!-- A, B -->
<g id="node2" class="node">
<title>A, B</title>
<ellipse fill="none" stroke="#000000" cx="29.2765" cy="-90" rx="29.0548" ry="18"/>
<text text-anchor="middle" x="29.2765" y="-85.8" font-family="Times,serif" font-size="14.00" fill="#000000">A, B</text>
</g>
<!-- S&#45;&gt;A, B -->
<g id="edge1" class="edge">
<title>S-&gt;A, B</title>
<path fill="none" stroke="#000000" d="M58.2711,-144.937C53.7938,-136.4537 48.2814,-126.0092 43.2695,-116.513"/>
<polygon fill="#000000" stroke="#000000" points="46.2443,-114.6509 38.4813,-107.4407 40.0536,-117.9182 46.2443,-114.6509"/>
</g>
<!-- C, D -->
<g id="node3" class="node">
<title>C, D</title>
<ellipse fill="none" stroke="#000000" cx="106.2765" cy="-90" rx="29.0548" ry="18"/>
<text text-anchor="middle" x="106.2765" y="-85.8" font-family="Times,serif" font-size="14.00" fill="#000000">C, D</text>
</g>
<!-- S&#45;&gt;C, D -->
<g id="edge2" class="edge">
<title>S-&gt;C, D</title>
<path fill="none" stroke="#000000" d="M76.519,-144.937C81.1141,-136.4537 86.7716,-126.0092 91.9153,-116.513"/>
<polygon fill="#000000" stroke="#000000" points="95.1442,-117.9006 96.8295,-107.4407 88.9891,-114.5666 95.1442,-117.9006"/>
</g>
<!-- T -->
<g id="node4" class="node">
<title>T</title>
<ellipse fill="none" stroke="#000000" cx="67.2765" cy="-18" rx="27" ry="18"/>
<text text-anchor="middle" x="67.2765" y="-13.8" font-family="Times,serif" font-size="14.00" fill="#000000">T</text>
</g>
<!-- A, B&#45;&gt;T -->
<g id="edge3" class="edge">
<title>A, B-&gt;T</title>
<path fill="none" stroke="#000000" d="M38.4753,-72.5708C42.9562,-64.0807 48.4387,-53.6929 53.4132,-44.2674"/>
<polygon fill="#000000" stroke="#000000" points="56.5902,-45.7462 58.1625,-35.2687 50.3995,-42.4789 56.5902,-45.7462"/>
</g>
<!-- C, D&#45;&gt;T -->
<g id="edge4" class="edge">
<title>C, D-&gt;T</title>
<path fill="none" stroke="#000000" d="M96.8357,-72.5708C92.2369,-64.0807 86.6102,-53.6929 81.5047,-44.2674"/>
<polygon fill="#000000" stroke="#000000" points="84.4708,-42.3946 76.6304,-35.2687 78.3158,-45.7286 84.4708,-42.3946"/>
</g>
</g>
</svg>