<?xml version="1.0" encoding="UTF-8" standalone="no"?><!DOCTYPE svg PUBLIC "-//W3C//DTD SVG 1.1//EN" "http://www.w3.org/Graphics/SVG/1.1/DTD/svg11.dtd"><!-- Generated by graphviz version 2.40.1 (20161225.0304)
 --><!-- Title: Taskflow Pages: 1 --><svg xmlns="http://www.w3.org/2000/svg" xmlns:xlink="http://www.w3.org/1999/xlink" width="278pt" height="188pt" viewBox="0.00 0.00 278.00 188.00">
<g id="graph0" class="graph" transform="scale(1 1) rotate(0) translate(4 184)">
<title>Taskflow</title>
<polygon fill="#ffffff" stroke="transparent" points="-4,4 -4,-184 274,-184 274,4 -4,4"/>
<!-- S -->
<g id="node1" class="node">
<title>S</title>
<ellipse fill="none" stroke="#000000" cx="135" cy="-162" rx="27" ry="18"/>
<text text-anchor="middle" x="135" y="-157.8" font-family="Times,serif" font-size="14.00" fill="#000000">S</text>
</g>
<!-- A -->
<g id="node2" class="node">
<title>A</title>
<ellipse fill="none" stroke="#000000" cx="27" cy="-90" rx="27" ry="18"/>
<text text-anchor="middle" x="27" y="-85.8" font-family="Times,serif" font-size="14.00" fill="#000000">A</text>
</g>
<!-- S&#45;&gt;A -->
<g id="edge1" class="edge">
<title>S-&gt;A</title>
<path fill="none" stroke="#000000" d="M115.6918,-149.1278C98.6445,-137.763 73.5981,-121.0654 54.4656,-108.3104"/>
<polygon fill="#000000" stroke="#000000" points="56.4031,-105.3956 46.1411,-102.7607 52.5201,-111.2199 56.4031,-105.3956"/>
</g>
<!-- B -->
<g id="node3" class="node">
<title>B</title>
<ellipse fill="none" stroke="#000000" cx="99" cy="-90" rx="27" ry="18"/>
<text text-anchor="middle" x="99" y="-85.8" font-family="Times,serif" font-size="14.00" fill="#000000">B</text>
</g>
<!-- S&#45;&gt;B -->
<g id="edge2" class="edge">
<title>S-&gt;B</title>
<path fill="none" stroke="#000000" d="M126.2854,-144.5708C122.0403,-136.0807 116.8464,-125.6929 112.1337,-116.2674"/>
<polygon fill="#000000" stroke="#000000" points="115.237,-114.6477 107.6343,-107.2687 108.976,-117.7782 115.237,-114.6477"/>
</g>
<!-- C -->
<g id="node4" class="node">
<title>C</title>
<ellipse fill="none" stroke="#000000" cx="171" cy="-90" rx="27" ry="18"/>
<text text-anchor="middle" x="171" y="-85.8" font-family="Times,serif" font-size="14.00" fill="#000000">C</text>
</g>
<!-- S&#45;&gt;C -->
<g id="edge3" class="edge">
<title>S-&gt;C</title>
<path fill="none" stroke="#000000" d="M143.7146,-144.5708C147.9597,-136.0807 153.1536,-125.6929 157.8663,-116.2674"/>
<polygon fill="#000000" stroke="#000000" points="161.024,-117.7782 162.3657,-107.2687 154.763,-114.6477 161.024,-117.7782"/>
</g>
<!-- D -->
<g id="node5" class="node">
<title>D</title>
<ellipse fill="none" stroke="#000000" cx="243" cy="-90" rx="27" ry="18"/>
<text text-anchor="middle" x="243" y="-85.8" font-family="Times,serif" font-size="14.00" fill="#000000">D</text>
</g>
<!-- S&#45;&gt;D -->
<g id="edge4" class="edge">
<title>S-&gt;D</title>
<path fill="none" stroke="#000000" d="M154.3082,-149.1278C171.3555,-137.763 196.4019,-121.0654 215.5344,-108.3104"/>
<polygon fill="#000000" stroke="#000000" points="217.4799,-111.2199 223.8589,-102.7607 213.5969,-105.3956 217.4799,-111.2199"/>
</g>
<!-- T -->
<g id="node6" class="node">
<title>T</title>
<ellipse fill="none" stroke="#000000" cx="135" cy="-18" rx="27" ry="18"/>
<text text-anchor="middle" x="135" y="-13.8" font-family="Times,serif" font-size="14.00" fill="#000000">T</text>
</g>
<!-- A&#45;&gt;T -->
<g id="edge5" class="edge">
<title>A-&gt;T</title>
<path fill="none" stroke="#000000" d="M46.3082,-77.1278C63.3555,-65.763 88.4019,-49.0654 107.5344,-36.3104"/>
<polygon fill="#000000" stroke="#000000" points="109.4799,-39.2199 115.8589,-30.7607 105.5969,-33.3956 109.4799,-39.2199"/>
</g>
<!-- B&#45;&gt;T -->
<g id="edge6" class="edge">
<title>B-&gt;T</title>
<path fill="none" stroke="#000000" d="M107.7146,-72.5708C111.9597,-64.0807 117.1536,-53.6929 121.8663,-44.2674"/>
<polygon fill="#000000" stroke="#000000" points="125.024,-45.7782 126.3657,-35.2687 118.763,-42.6477 125.024,-45.7782"/>
</g>
<!-- C&#45;&gt;T -->
<g id="edge7" class="edge">
<title>C-&gt;T</title>
<path fill="none" stroke="#000000" d="M162.2854,-72.5708C158.0403,-64.0807 152.8464,-53.6929 148.1337,-44.2674"/>
<polygon fill="#000000" stroke="#000000" points="151.237,-42.6477 143.6343,-35.2687 144.976,-45.7782 151.237,-42.6477"/>
</g>
<!-- D&#45;&gt;T -->
<g id="edge8" class="edge">
<title>D-&gt;T</title>
<path fill="none" stroke="#000000" d="M223.6918,-77.1278C206.6445,-65.763 181.5981,-49.0654 162.4656,-36.3104"/>
<polygon fill="#000000" stroke="#000000" points="164.4031,-33.3956 154.1411,-30.7607 160.5201,-39.2199 164.4031,-33.3956"/>
</g>
</g>
</svg>